<svg width="30" height="30" fill="none" xmlns="http://www.w3.org/2000/svg"><path fill-rule="evenodd" clip-rule="evenodd" d="M14.959 30.02h.023-.023zm.109 0h-.008.023-.015zm-.155 0h.024-.024zm.205 0h-.014.025-.01zm-.248 0h.017-.017zm.298 0h-.013.016-.003zm.044 0h-.005.022-.017zm-.4 0h.023-.022zm.45-.001h-.013.028-.014zm-.497 0h.027-.027zm.548-.001h-.018.026-.008zm-.592 0h.025-.025zm-.055-.001h.023-.023zm.69 0h-.004.023-.019zm-.74-.002.032.001h-.031zm.79 0-.012.001h.03-.018zm.052 0h-.02.031-.011zm-.886 0h.032-.032zm-.036-.002h.022-.041.019zm.968 0h-.02.039-.02zm.046-.001h-.012l.035-.001h-.023zm-1.082-.001.035.001h-.011l-.024-.001zm-.044-.002.037.001h-.038zm1.177 0-.02.001h.036-.016zm-1.22-.002.036.002-.028-.001h-.008zm1.271 0-.027.002.035-.002h-.008zm-1.332-.002.038.001h-.009l-.029-.001zm1.372.001h-.01l.039-.001-.029.001zm-1.415-.003.04.001h-.02l-.02-.001zm1.467 0-.019.001.04-.001h-.021zM14.234 30l.04.002h-.028L14.234 30zm1.561.001-.027.001.04-.002-.013.001zm.046-.002-.037.002.032-.002.038-.002-.034.002zm-1.636 0 .032.002-.036-.002-.034-.002.038.002zm1.681-.003-.016.001.04-.002-.024.001zm-1.755-.001.04.002h-.016l-.024-.002zm-.043-.003.041.003-.025-.002h-.015zm1.85.001-.026.002.04-.003-.014.001zm-1.883-.003.037.002-.034-.002-.034-.002.032.002zm1.928 0-.034.002.037-.002.032-.002-.035.002zm.045-.003-.012.001.039-.002-.027.001zm-2.041-.001.038.002h-.012l-.026-.002zm-.042-.003.038.002-.021-.001-.017-.001zm2.135 0-.021.002.038-.002h-.017zm-2.177-.003.035.002-.027-.002h-.008zm2.228 0-.028.002.035-.002h-.008zm-2.284-.005.031.003h-.007l-.024-.003zm2.324.002h-.008l.031-.002-.023.002zm.05-.004-.014.002.03-.003-.016.001zm-2.417-.001.03.002h-.014l-.016-.002zm-.042-.003.027.002-.019-.002h-.008zm2.51 0-.02.002.027-.002h-.008zm.091-.008-.007.001.018-.002-.01.001zm-2.696 0 .018.001h-.007l-.01-.002zm-.043-.005.014.002-.009-.001h-.005zm2.788 0-.008.002.013-.002h-.005zm-3.756-.138C5.49 28.69 0 22.48 0 15 0 6.721 6.721 0 15 0s15 6.721 15 15c0 7.482-5.49 13.691-12.656 14.818V19.336h3.495L21.504 15h-4.16v-2.814c0-1.186.58-2.342 2.444-2.342h1.892V6.152s-1.717-.293-3.358-.293c-3.426 0-5.666 2.077-5.666 5.836V15H8.848v4.336h3.808v10.482z" fill="#000"/></svg>