<svg width="30" height="30" fill="none" xmlns="http://www.w3.org/2000/svg"><path fill-rule="evenodd" clip-rule="evenodd" d="M15 0c8.279 0 15 6.721 15 15s-6.721 15-15 15S0 23.279 0 15 6.721 0 15 0zm-4.69 23.43V11.716H6.416V23.43h3.894zm14.04 0v-6.718c0-3.598-1.92-5.272-4.482-5.272-2.066 0-2.991 1.136-3.51 1.934v-1.658h-3.893c.052 1.099 0 11.714 0 11.714h3.893v-6.542c0-.35.026-.7.129-.95.28-.7.922-1.424 1.998-1.424 1.408 0 1.972 1.074 1.972 2.648v6.268h3.894zM8.39 6.067c-1.333 0-2.204.876-2.204 2.024 0 1.124.845 2.025 2.152 2.025h.025c1.358 0 2.203-.9 2.203-2.024-.025-1.149-.845-2.025-2.177-2.025z" fill="#000"/></svg>