<svg width="30" height="30" fill="none" xmlns="http://www.w3.org/2000/svg"><path fill-rule="evenodd" clip-rule="evenodd" d="M15 30c8.284 0 15-6.716 15-15 0-8.284-6.716-15-15-15C6.716 0 0 6.716 0 15c0 8.284 6.716 15 15 15zm10.532-12.212c-.324 1.623-2.897 3.398-5.852 3.742-1.541.18-3.058.345-4.676.272a28.118 28.118 0 0 1-4.734-.616c0 .252.016.49.048.714.344 2.547 2.59 2.7 4.716 2.77 2.147.072 4.058-.516 4.058-.516l.088 1.893s-1.501.786-4.176.93c-1.475.08-3.306-.036-5.44-.586-4.625-1.194-5.421-6.003-5.543-10.882a96.5 96.5 0 0 1-.017-3.006l.003-.952c0-4.99 3.352-6.452 3.352-6.452C9.05 4.342 11.95 4.024 14.965 4h.074c3.016.024 5.918.342 7.608 1.1 0 0 3.352 1.462 3.352 6.451 0 0 .042 3.681-.467 6.237zM22 12.008V18h-2.439v-5.817c0-1.226-.53-1.848-1.59-1.848-1.171 0-1.759.738-1.759 2.198v3.184h-2.424v-3.184c0-1.46-.588-2.198-1.76-2.198-1.06 0-1.59.622-1.59 1.848V18H8v-5.993c0-1.224.32-2.198.964-2.918C9.627 8.37 10.496 8 11.574 8c1.249 0 2.194.467 2.819 1.401l.607.991.608-.991C16.232 8.467 17.178 8 18.425 8c1.079 0 1.948.37 2.611 1.09.644.72.964 1.693.964 2.917z" fill="#000"/></svg>