<svg width="30" height="30" fill="none" xmlns="http://www.w3.org/2000/svg"><path fill-rule="evenodd" clip-rule="evenodd" d="M15 30c8.284 0 15-6.716 15-15 0-8.284-6.716-15-15-15C6.716 0 0 6.716 0 15c0 8.284 6.716 15 15 15zm.002-25a3.112 3.112 0 0 1 3.06 2.612 3.111 3.111 0 0 1 4.01.317 3.113 3.113 0 0 1 .317 4.01c-.095.133-.199.26-.317.379l-1.95 1.95a3.069 3.069 0 0 1-1.55.835c.073-.256.112-.525.112-.803 0-1.648-1.361-2.984-3.04-2.984h-.565a3.066 3.066 0 0 0-.808-1.436l-1.948-1.948 1.948 1.948a3.07 3.07 0 0 1 .808 1.436H13.07c-.574 0-1.083.27-1.403.688a3.074 3.074 0 0 0-.806-.107H8.103c-.166 0-.328.017-.488.042a3.112 3.112 0 0 1 .318-4.01 3.111 3.111 0 0 1 4.01-.317A3.112 3.112 0 0 1 15.003 5zm.641 12.283c1.396 0 2.572-.922 2.93-2.18a3.113 3.113 0 0 0 1.548-.834l1.95-1.95c.12-.12.223-.247.318-.38A3.112 3.112 0 0 1 25 15a3.112 3.112 0 0 1-2.611 3.06 3.113 3.113 0 0 1-.317 4.011 3.111 3.111 0 0 1-4.01.317A3.112 3.112 0 0 1 15.002 25a3.112 3.112 0 0 1-3.06-2.612 3.111 3.111 0 0 1-4.01-.317 3.113 3.113 0 0 1-.32-4.006A3.115 3.115 0 0 1 5 15a3.111 3.111 0 0 1 2.615-3.06c.16-.026.322-.043.488-.043h2.758c.278 0 .549.037.806.107-.22.288-.351.645-.351 1.033v6.7l2.544-2.454h1.783zm-.64 1.661z" fill="#000"/></svg>