<svg width="30" height="30" fill="none" xmlns="http://www.w3.org/2000/svg"><path fill-rule="evenodd" clip-rule="evenodd" d="M25.607 4.393A14.902 14.902 0 0 0 15 0C10.993 0 7.226 1.56 4.393 4.393A14.902 14.902 0 0 0 0 15c0 4.007 1.56 7.773 4.393 10.607A14.902 14.902 0 0 0 15 30c4.007 0 7.773-1.56 10.607-4.393A14.902 14.902 0 0 0 30 15c0-4.007-1.56-7.774-4.393-10.607zM9.917 21.56c-.804 0-1.459-.655-1.459-1.46 0-.804.655-1.459 1.46-1.459.804 0 1.459.655 1.459 1.46a1.46 1.46 0 0 1-1.46 1.459zm3.825-.59a.879.879 0 0 0 1.758 0 6.459 6.459 0 0 0-6.451-6.452.879.879 0 1 0 0 1.758 4.7 4.7 0 0 1 4.694 4.694zm4.81.878a.879.879 0 0 1-.878-.878c0-4.756-3.87-8.626-8.625-8.626a.879.879 0 1 1 0-1.757c5.725 0 10.383 4.657 10.383 10.383a.879.879 0 0 1-.88.878zm3.006-.878a.879.879 0 0 0 1.758 0c0-3.811-1.484-7.394-4.179-10.09A14.175 14.175 0 0 0 9.05 6.702a.879.879 0 1 0 0 1.758c6.897 0 12.51 5.612 12.51 12.51z" fill="#000"/></svg>