<svg width="30" height="30" fill="none" xmlns="http://www.w3.org/2000/svg"><path fill-rule="evenodd" clip-rule="evenodd" d="M15 30c8.284 0 15-6.716 15-15 0-8.284-6.716-15-15-15C6.716 0 0 6.716 0 15c0 8.284 6.716 15 15 15zm9.126-15.693c-.387 0-.76.082-1.089.222A4.976 4.976 0 0 0 18.077 10c-.63 0-1.249.13-1.807.343-.215.086-.258.172-.272.344v8.957a.354.354 0 0 0 .315.33h7.827a2.782 2.782 0 0 0 2.809-2.794 2.816 2.816 0 0 0-2.81-2.823l-.013-.05zm-8.7-3.608c.057 0 .1.015.143.058l.014-.062c.088.054.158.15.158.265l.144 6.346-.144 2.309a.318.318 0 0 1-.315.314.314.314 0 0 1-.314-.3l-.058-1.133-.073-1.162.131-6.32v-.027a.3.3 0 0 1 .114-.23.329.329 0 0 1 .2-.058zm-.819.581a.296.296 0 0 0-.158-.042.299.299 0 0 0-.157.042.287.287 0 0 0-.143.244v.059l-.1 5.783.11 2.341v.008c.008.057.03.13.071.172.056.058.136.1.224.1a.317.317 0 0 0 .2-.086.3.3 0 0 0 .087-.216l.014-.23.112-2.106-.129-5.82c0-.098-.058-.184-.129-.228l-.002-.02zm-3.025.609c.129 0 .23.1.23.229l.014-.014.157 5.217-.157 2.393c0 .13-.1.23-.229.23a.25.25 0 0 1-.245-.23l-.142-2.393.142-5.203c0-.13.116-.23.23-.23zm-.96.201c-.116 0-.202.085-.215.2l-.158 5.044.158 2.41c.013.114.099.215.215.215.114 0 .215-.1.215-.215l.186-2.41-.187-5.044a.22.22 0 0 0-.215-.215v.015zm-.93.43h.005-.021.01a.203.203 0 0 0-.183.185l-.172 4.659.158 2.436c0 .115.086.2.186.2s.186-.085.2-.2l.185-2.436-.183-4.644c-.015-.11-.095-.194-.19-.2h.005zm-.89.902a.177.177 0 0 0-.172.173l-.2 3.784.178 2.45c0 .087.076.158.172.158.09 0 .166-.086.172-.172l.2-2.451-.2-3.798c-.007-.1-.084-.172-.172-.172l.022.028zm-1.878 1.29c-.072 0-.129.058-.143.13l-.185 2.524.2 2.432c.016.074.073.132.143.132.072 0 .13-.058.144-.143l.23-2.421-.23-2.508a.129.129 0 0 0-.13-.13l-.029-.016zm-1.032.201c0-.056.057-.1.115-.1l.013-.016c.058 0 .1.058.116.115l.243 2.436-.243 2.366c-.015.056-.057.115-.116.115a.113.113 0 0 1-.113-.115l-.215-2.35.2-2.451zm-.768.302h-.006.006zm-.003 0c.042.002.083.042.083.096l.258 2.06-.244 2.012c-.008.056-.047.094-.094.094-.05 0-.09-.038-.097-.094l-.223-2.013.223-2.06c.007-.05.046-.093.094-.095zm-.863.792c-.057 0-.087.035-.1.09L4 17.37l.158 1.251c0 .053.043.09.086.09s.085-.043.1-.1l.2-1.26-.2-1.276c0-.059-.043-.086-.087-.086l.001.018zm3.618-1.093c.08 0 .148.056.152.142l-.031-.014.217 2.337-.217 2.45c0 .087-.07.152-.142.152a.151.151 0 0 1-.152-.15l-.19-2.451.207-2.324c.005-.085.07-.142.156-.142zm4.651-2.924a.25.25 0 0 0-.243.243l-.144 5.089.144 2.364c0 .144.114.244.243.244.13 0 .244-.114.244-.258l.144-2.366-.158-5.074a.259.259 0 0 0-.26-.258l.03.016zm.66.415c0-.144.115-.273.272-.273l.016.052c.143 0 .261.116.273.273l.129 4.888-.116 2.336c-.012.157-.13.272-.272.272a.266.266 0 0 1-.271-.265l-.13-2.365.1-4.918z" fill="#000"/></svg>