<svg width="30" height="30" fill="none" xmlns="http://www.w3.org/2000/svg"><path fill-rule="evenodd" clip-rule="evenodd" d="M0 15C0 6.717 6.717 0 15 0c8.283 0 15 6.717 15 15 0 8.283-6.717 15-15 15-8.283 0-15-6.717-15-15zm21.859-2.86c0-.149-.004-.297-.01-.445a6.994 6.994 0 0 0 1.717-1.783 6.866 6.866 0 0 1-1.977.543 3.456 3.456 0 0 0 1.514-1.905 6.906 6.906 0 0 1-2.186.836 3.444 3.444 0 0 0-5.867 3.14 9.775 9.775 0 0 1-7.097-3.598 3.44 3.44 0 0 0 1.066 4.596 3.419 3.419 0 0 1-1.56-.43v.044a3.444 3.444 0 0 0 2.762 3.375 3.442 3.442 0 0 1-1.555.06 3.447 3.447 0 0 0 3.217 2.39 6.908 6.908 0 0 1-4.276 1.474 6.98 6.98 0 0 1-.822-.047 9.746 9.746 0 0 0 5.278 1.546c6.333 0 9.796-5.246 9.796-9.796z" fill="#000"/></svg>