<svg data-name="Layer 1" xmlns="http://www.w3.org/2000/svg" viewBox="0 0 30 30"><path d="M15 0a15 15 0 0 1 10.61 25.61A15 15 0 0 1 4.39 4.39 14.9 14.9 0 0 1 15 0zm0 8.36H11.45a6.65 6.65 0 0 0-6.55 6.45v.63a6.65 6.65 0 0 0 6.52 6.66h7.35a6.65 6.65 0 0 0 6.51-6.43V15a6.65 6.65 0 0 0-6.55-6.66zm0 3h3.55a4.15 4.15 0 1 1 0 8.3h-6.93a4.15 4.15 0 1 1 0-8.31zm1.63 5.36h-3.3l.05.15A1.77 1.77 0 0 0 15 18.1a1.77 1.77 0 0 0 1.7-1.43zm9.12-3.42h-.54v.05a7.43 7.43 0 0 1 .23 1.89 7.69 7.69 0 0 1-.14 1.62l-.06.27h.52a1.39 1.39 0 0 0 1.36-1.25v-1.29a1.38 1.38 0 0 0-1.33-1.35zM5 13.24h-.69a1.38 1.38 0 0 0-1.24 1.21v1.36a1.39 1.39 0 0 0 1.23 1.24h.65l-.06-.27a7.7 7.7 0 0 1-.14-1.62 7.13 7.13 0 0 1 .16-1.57L5 13.3zm6.45.57A1.33 1.33 0 0 0 10 15a1.33 1.33 0 0 0 1.43 1.19A1.33 1.33 0 0 0 12.86 15a1.33 1.33 0 0 0-1.43-1.19zm6.67 0A1.33 1.33 0 0 0 16.67 15a1.33 1.33 0 0 0 1.43 1.19A1.33 1.33 0 0 0 19.52 15a1.33 1.33 0 0 0-1.42-1.19z"/></svg>