<?xml version="1.0" encoding="UTF-8" standalone="no"?>
<!-- Created with Inkscape (http://www.inkscape.org/) -->

<svg
   xmlns:dc="http://purl.org/dc/elements/1.1/"
   xmlns:cc="http://creativecommons.org/ns#"
   xmlns:rdf="http://www.w3.org/1999/02/22-rdf-syntax-ns#"
   xmlns:svg="http://www.w3.org/2000/svg"
   xmlns="http://www.w3.org/2000/svg"
   xmlns:sodipodi="http://sodipodi.sourceforge.net/DTD/sodipodi-0.dtd"
   xmlns:inkscape="http://www.inkscape.org/namespaces/inkscape"
   width="96"
   height="96"
   id="svg4874"
   version="1.1"
   inkscape:version="0.91+devel r"
   viewBox="0 0 96 96.000001"
   sodipodi:docname="audio-input-microphone-symbolic.svg">
  <defs
     id="defs4876" />
  <sodipodi:namedview
     id="base"
     pagecolor="#ffffff"
     bordercolor="#666666"
     borderopacity="1.0"
     inkscape:pageopacity="0.0"
     inkscape:pageshadow="2"
     inkscape:zoom="4.4959994"
     inkscape:cx="63.756674"
     inkscape:cy="31.427913"
     inkscape:document-units="px"
     inkscape:current-layer="g4780"
     showgrid="true"
     showborder="true"
     fit-margin-top="0"
     fit-margin-left="0"
     fit-margin-right="0"
     fit-margin-bottom="0"
     inkscape:snap-bbox="true"
     inkscape:bbox-paths="true"
     inkscape:bbox-nodes="true"
     inkscape:snap-bbox-edge-midpoints="true"
     inkscape:snap-bbox-midpoints="true"
     inkscape:object-paths="true"
     inkscape:snap-intersection-paths="true"
     inkscape:object-nodes="true"
     inkscape:snap-smooth-nodes="true"
     inkscape:snap-midpoints="true"
     inkscape:snap-object-midpoints="true"
     inkscape:snap-center="true"
     showguides="true"
     inkscape:guide-bbox="true"
     inkscape:snap-global="true">
    <inkscape:grid
       type="xygrid"
       id="grid5451"
       empspacing="8" />
    <sodipodi:guide
       orientation="1,0"
       position="8,-8.0000001"
       id="guide4063" />
    <sodipodi:guide
       orientation="1,0"
       position="4,-8.0000001"
       id="guide4065" />
    <sodipodi:guide
       orientation="0,1"
       position="-8,88.000001"
       id="guide4067" />
    <sodipodi:guide
       orientation="0,1"
       position="-8,92.000001"
       id="guide4069" />
    <sodipodi:guide
       orientation="0,1"
       position="104,4"
       id="guide4071" />
    <sodipodi:guide
       orientation="0,1"
       position="-5,8.0000001"
       id="guide4073" />
    <sodipodi:guide
       orientation="1,0"
       position="88,-8.0000001"
       id="guide4077" />
    <sodipodi:guide
       orientation="0,1"
       position="-8,84.000001"
       id="guide4074" />
    <sodipodi:guide
       orientation="1,0"
       position="12,-8.0000001"
       id="guide4076" />
    <sodipodi:guide
       orientation="1,0"
       position="84,-8.0000001"
       id="guide4080" />
    <sodipodi:guide
       position="48,-8.0000001"
       orientation="1,0"
       id="guide4170" />
    <sodipodi:guide
       position="-8,48"
       orientation="0,1"
       id="guide4172" />
    <sodipodi:guide
       position="92,-8.0000001"
       orientation="1,0"
       id="guide4760" />
  </sodipodi:namedview>
  <metadata
     id="metadata4879">
    <rdf:RDF>
      <cc:Work
         rdf:about="">
        <dc:format>image/svg+xml</dc:format>
        <dc:type
           rdf:resource="http://purl.org/dc/dcmitype/StillImage" />
        <dc:title></dc:title>
      </cc:Work>
    </rdf:RDF>
  </metadata>
  <g
     inkscape:label="Layer 1"
     inkscape:groupmode="layer"
     id="layer1"
     transform="translate(67.857146,-78.50504)">
    <g
       transform="matrix(0,-1,-1,0,373.50506,516.50504)"
       id="g4845"
       style="display:inline">
      <g
         inkscape:export-ydpi="90"
         inkscape:export-xdpi="90"
         inkscape:export-filename="next01.png"
         transform="matrix(-0.9996045,0,0,1,575.94296,-611.00001)"
         id="g4778"
         inkscape:label="Layer 1">
        <g
           transform="matrix(-1,0,0,1,575.99999,611)"
           id="g4780"
           style="display:inline">
          <rect
             style="color:#000000;display:inline;overflow:visible;visibility:visible;fill:none;stroke:none;stroke-width:4;marker:none;enable-background:accumulate"
             id="rect4782"
             width="96.037987"
             height="96"
             x="-438.00244"
             y="345.36221"
             transform="scale(-1,1)" />
          <path
             style="color:#000000;display:inline;overflow:visible;visibility:visible;fill:#808080;fill-opacity:1;fill-rule:nonzero;stroke:none;stroke-width:2;marker:none;enable-background:accumulate"
             d="M 48,8.7001297e-8 C 41.2234,8.7001297e-8 36,4.0575635 36,12.210938 l 0,18.28125 0,5.085937 0,12.210937 C 36,55.942437 41.2234,60 48,60 54.7766,60 60,55.929422 60,47.789062 l 0,-12.210937 0,-5.085937 0,-18.28125 C 60,4.0705784 54.7766,8.7001297e-8 48,8.7001297e-8 Z M 48,4.0781251 c 2.58797,0 4.570789,0.7678307 5.849609,1.9765625 1.14505,1.0824317 2.177735,3.0694875 2.177735,6.1542964 l 0,18.28125 0,5.087891 0,12.212891 c 0,3.084809 -1.032695,5.071865 -2.177735,6.154296 -1.27881,1.208712 -3.261639,1.976563 -5.849609,1.976563 -2.59033,0 -4.573013,-0.765124 -5.851562,-1.972656 -1.14302,-1.079573 -2.175782,-3.065717 -2.175782,-6.158203 l 0,-12.212891 0,-5.087891 0,-18.28125 c 0,-3.0924959 1.032762,-5.0786298 2.175782,-6.1582027 C 43.426998,4.8432191 45.40968,4.0781251 48,4.0781251 Z"
             transform="matrix(0,-1,-1.0003957,0,438.00245,441.36222)"
             id="path4358"
             inkscape:connector-curvature="0"
             sodipodi:nodetypes="ssccsssccssscsccscscsccsss" />
          <rect
             y="-373.97714"
             x="-396.36212"
             height="28.011103"
             width="5.9998922"
             id="rect2014"
             style="color:#000000;display:inline;overflow:visible;visibility:visible;fill:#808080;stroke:none;stroke-width:3;marker:none;enable-background:accumulate"
             transform="matrix(0,-1,-1,0,0,0)" />
          <path
             inkscape:connector-curvature="0"
             style="font-style:normal;font-variant:normal;font-weight:normal;font-stretch:normal;font-size:15px;line-height:125%;font-family:Ubuntu;-inkscape-font-specification:Ubuntu;text-align:center;letter-spacing:0px;word-spacing:0px;writing-mode:lr-tb;text-anchor:middle;fill:#808080;fill-opacity:1;stroke:none"
             d="m 347.96683,393.36217 c 0,5.33314 -0.95467,10.67715 -2.75107,15.99995 l -3.25127,0 0,-31.9999 3.25127,0 c 1.75818,5.33419 2.75107,10.66681 2.75107,15.99995 z"
             id="path1687-9" />
          <path
             style="color:#000000;font-style:normal;font-variant:normal;font-weight:normal;font-stretch:normal;line-height:normal;font-family:sans-serif;-inkscape-font-specification:sans-serif;text-indent:0;text-align:start;text-decoration:none;text-decoration-line:none;letter-spacing:normal;word-spacing:normal;text-transform:none;direction:ltr;block-progression:tb;writing-mode:lr-tb;baseline-shift:baseline;text-anchor:start;clip-rule:nonzero;display:inline;overflow:visible;visibility:visible;color-interpolation:sRGB;color-interpolation-filters:linearRGB;fill:#808080;fill-opacity:1;stroke:none;stroke-width:4.00079107;stroke-miterlimit:4;stroke-dasharray:none;marker:none;color-rendering:auto;image-rendering:auto;shape-rendering:auto;text-rendering:auto;enable-background:accumulate"
             d="m 394.98544,417.36222 -5.00198,0 c -6.74692,0 -13.33973,-2.49674 -17.7964,-7.2962 -4.41223,-4.75146 -6.2131,-10.90027 -6.2131,-16.7038 0,-5.809 1.80049,-11.95369 6.2131,-16.7018 4.45687,-4.79586 11.0518,-7.2982 17.7964,-7.2982 l 5.00198,0 0,4.21678 -5.00198,0 c -5.69238,0 -11.20471,2.13469 -14.7297,5.92779 -3.56031,3.83103 -5.06334,8.91061 -5.06334,13.85543 0,4.93838 1.50243,10.02285 5.06334,13.85742 3.52481,3.796 9.03291,5.92779 14.7297,5.92779 l 5.00198,0 z"
             id="path2060"
             inkscape:connector-curvature="0"
             sodipodi:nodetypes="cscsssccssscscc" />
        </g>
      </g>
    </g>
  </g>
</svg>
