<?xml version="1.0" encoding="UTF-8" standalone="no"?>
<!-- Created with Inkscape (http://www.inkscape.org/) -->

<svg
   xmlns:dc="http://purl.org/dc/elements/1.1/"
   xmlns:cc="http://creativecommons.org/ns#"
   xmlns:rdf="http://www.w3.org/1999/02/22-rdf-syntax-ns#"
   xmlns:svg="http://www.w3.org/2000/svg"
   xmlns="http://www.w3.org/2000/svg"
   xmlns:sodipodi="http://sodipodi.sourceforge.net/DTD/sodipodi-0.dtd"
   xmlns:inkscape="http://www.inkscape.org/namespaces/inkscape"
   width="96"
   height="96"
   id="svg4874"
   version="1.1"
   inkscape:version="0.91+devel r"
   viewBox="0 0 96 96.000001"
   sodipodi:docname="audio-input-microphone-muted-symbolic.svg">
  <defs
     id="defs4876" />
  <sodipodi:namedview
     id="base"
     pagecolor="#ffffff"
     bordercolor="#666666"
     borderopacity="1.0"
     inkscape:pageopacity="0.0"
     inkscape:pageshadow="2"
     inkscape:zoom="7.0249991"
     inkscape:cx="48.576514"
     inkscape:cy="61.516005"
     inkscape:document-units="px"
     inkscape:current-layer="g4780"
     showgrid="false"
     showborder="true"
     fit-margin-top="0"
     fit-margin-left="0"
     fit-margin-right="0"
     fit-margin-bottom="0"
     inkscape:snap-bbox="true"
     inkscape:bbox-paths="true"
     inkscape:bbox-nodes="true"
     inkscape:snap-bbox-edge-midpoints="true"
     inkscape:snap-bbox-midpoints="true"
     inkscape:object-paths="true"
     inkscape:snap-intersection-paths="true"
     inkscape:object-nodes="true"
     inkscape:snap-smooth-nodes="true"
     inkscape:snap-midpoints="true"
     inkscape:snap-object-midpoints="true"
     inkscape:snap-center="true"
     showguides="false"
     inkscape:guide-bbox="true"
     inkscape:snap-global="true">
    <inkscape:grid
       type="xygrid"
       id="grid5451"
       empspacing="8" />
    <sodipodi:guide
       orientation="1,0"
       position="8,-8.0000001"
       id="guide4063" />
    <sodipodi:guide
       orientation="1,0"
       position="4,-8.0000001"
       id="guide4065" />
    <sodipodi:guide
       orientation="0,1"
       position="-8,88.000001"
       id="guide4067" />
    <sodipodi:guide
       orientation="0,1"
       position="-8,92.000001"
       id="guide4069" />
    <sodipodi:guide
       orientation="0,1"
       position="104,4"
       id="guide4071" />
    <sodipodi:guide
       orientation="0,1"
       position="-5,8.0000001"
       id="guide4073" />
    <sodipodi:guide
       orientation="1,0"
       position="88,-8.0000001"
       id="guide4077" />
    <sodipodi:guide
       orientation="0,1"
       position="-8,84.000001"
       id="guide4074" />
    <sodipodi:guide
       orientation="1,0"
       position="12,-8.0000001"
       id="guide4076" />
    <sodipodi:guide
       orientation="1,0"
       position="84,-8.0000001"
       id="guide4080" />
    <sodipodi:guide
       position="48,-8.0000001"
       orientation="1,0"
       id="guide4170" />
    <sodipodi:guide
       position="-8,48"
       orientation="0,1"
       id="guide4172" />
    <sodipodi:guide
       position="92,-8.0000001"
       orientation="1,0"
       id="guide4760" />
  </sodipodi:namedview>
  <metadata
     id="metadata4879">
    <rdf:RDF>
      <cc:Work
         rdf:about="">
        <dc:format>image/svg+xml</dc:format>
        <dc:type
           rdf:resource="http://purl.org/dc/dcmitype/StillImage" />
        <dc:title></dc:title>
      </cc:Work>
    </rdf:RDF>
  </metadata>
  <g
     inkscape:label="Layer 1"
     inkscape:groupmode="layer"
     id="layer1"
     transform="translate(67.857146,-78.50504)">
    <g
       transform="matrix(0,-1,-1,0,373.50506,516.50504)"
       id="g4845"
       style="display:inline">
      <g
         inkscape:export-ydpi="90"
         inkscape:export-xdpi="90"
         inkscape:export-filename="next01.png"
         transform="matrix(-0.9996045,0,0,1,575.94296,-611.00001)"
         id="g4778"
         inkscape:label="Layer 1">
        <g
           transform="matrix(-1,0,0,1,575.99999,611)"
           id="g4780"
           style="display:inline">
          <rect
             style="color:#000000;display:inline;overflow:visible;visibility:visible;fill:none;stroke:none;stroke-width:4;marker:none;enable-background:accumulate"
             id="rect4782"
             width="96.037987"
             height="96"
             x="-438.00244"
             y="345.36221"
             transform="scale(-1,1)" />
          <path
             style="color:#000000;display:inline;overflow:visible;visibility:visible;fill:#808080;fill-opacity:1;fill-rule:nonzero;stroke:none;stroke-width:2;marker:none;enable-background:accumulate"
             d="M 48 0 C 41.2234 0 36 4.0575617 36 12.210938 L 36 30.492188 L 36 35.578125 L 36 47.789062 C 36 49.008195 36.130266 50.124041 36.351562 51.160156 L 39.972656 47.539062 L 39.972656 35.578125 L 39.972656 30.490234 L 39.972656 12.208984 C 39.972656 9.1164885 41.005418 7.1303543 42.148438 6.0507812 C 43.426997 4.843219 45.40968 4.078125 48 4.078125 C 50.58797 4.078125 52.570789 4.8459555 53.849609 6.0546875 C 54.994659 7.1371192 56.027344 9.1241755 56.027344 12.208984 L 56.027344 30.490234 L 56.027344 31.484375 L 60 27.511719 L 60 12.210938 C 60 4.0705766 54.7766 -1.1842379e-15 48 0 z M 60 33.169922 L 56.027344 37.142578 L 56.027344 47.791016 C 56.027344 50.875825 54.994649 52.862881 53.849609 53.945312 C 52.570799 55.154026 50.58797 55.921875 48 55.921875 C 45.40967 55.921875 43.426985 55.156751 42.148438 53.949219 C 41.702338 53.527881 41.275639 52.963297 40.917969 52.253906 L 37.982422 55.189453 C 40.104127 58.398528 43.744874 60 48 60 C 54.7766 60 60 55.929424 60 47.789062 L 60 35.578125 L 60 33.169922 z M 24 43 L 24 48 C 24 52.38026 25.059863 56.691026 27.113281 60.398438 L 30.234375 57.277344 C 28.918565 54.472409 28.214844 51.268031 28.214844 48 L 28.214844 43 L 24 43 z M 67.783203 43 L 67.783203 48 C 67.783203 53.690129 65.648569 59.201014 61.855469 62.724609 C 58.024439 66.283512 52.94482 67.785156 48 67.785156 C 43.06162 67.785156 37.977148 66.284112 34.142578 62.724609 C 33.506578 62.134279 32.921225 61.484246 32.380859 60.791016 L 29.402344 63.769531 C 29.989016 64.48024 30.617356 65.158326 31.296875 65.789062 C 36.048335 70.199548 42.19647 72 48 72 C 53.809 72 59.953062 70.199928 64.701172 65.789062 C 69.497032 61.333955 72 54.741933 72 48 L 72 43 L 67.783203 43 z "
             transform="matrix(0,-1,-1.0003957,0,438.00245,441.36222)"
             id="path4358" />
          <rect
             y="-373.97714"
             x="-396.36212"
             height="28.011103"
             width="5.9998922"
             id="rect2014"
             style="color:#000000;display:inline;overflow:visible;visibility:visible;fill:#808080;stroke:none;stroke-width:3;marker:none;enable-background:accumulate"
             transform="matrix(0,-1,-1,0,0,0)" />
          <path
             inkscape:connector-curvature="0"
             style="font-style:normal;font-variant:normal;font-weight:normal;font-stretch:normal;font-size:15px;line-height:125%;font-family:Ubuntu;-inkscape-font-specification:Ubuntu;text-align:center;letter-spacing:0px;word-spacing:0px;writing-mode:lr-tb;text-anchor:middle;fill:#808080;fill-opacity:1;stroke:none"
             d="m 347.96683,393.36217 c 0,5.33314 -0.95467,10.67715 -2.75107,15.99995 l -3.25127,0 0,-31.9999 3.25127,0 c 1.75818,5.33419 2.75107,10.66681 2.75107,15.99995 z"
             id="path1687-9" />
          <path
             style="color:#000000;font-style:normal;font-variant:normal;font-weight:normal;font-stretch:normal;font-size:medium;line-height:normal;font-family:sans-serif;font-variant-ligatures:normal;font-variant-position:normal;font-variant-caps:normal;font-variant-numeric:normal;font-variant-alternates:normal;font-feature-settings:normal;text-indent:0;text-align:start;text-decoration:none;text-decoration-line:none;text-decoration-style:solid;text-decoration-color:#000000;letter-spacing:normal;word-spacing:normal;text-transform:none;direction:ltr;block-progression:tb;writing-mode:lr-tb;baseline-shift:baseline;text-anchor:start;white-space:normal;shape-padding:0;clip-rule:nonzero;display:inline;overflow:visible;visibility:visible;opacity:1;isolation:auto;mix-blend-mode:normal;color-interpolation:sRGB;color-interpolation-filters:linearRGB;solid-color:#000000;solid-opacity:1;fill:#808080;fill-opacity:1;fill-rule:nonzero;stroke:none;stroke-width:4.00079107;stroke-linecap:butt;stroke-linejoin:miter;stroke-miterlimit:4;stroke-dasharray:none;stroke-dashoffset:0;stroke-opacity:1;marker:none;color-rendering:auto;image-rendering:auto;shape-rendering:auto;text-rendering:auto;enable-background:accumulate"
             d="m 428.58594,351.94727 -80.03321,80 2.83008,2.83007 80.03125,-80 -2.82812,-2.83007 z"
             id="path4205"
             inkscape:connector-curvature="0" />
        </g>
      </g>
    </g>
  </g>
</svg>
