<?xml version="1.0" encoding="UTF-8" standalone="no"?>
<!-- Created with Inkscape (http://www.inkscape.org/) -->

<svg
   xmlns:dc="http://purl.org/dc/elements/1.1/"
   xmlns:cc="http://creativecommons.org/ns#"
   xmlns:rdf="http://www.w3.org/1999/02/22-rdf-syntax-ns#"
   xmlns:svg="http://www.w3.org/2000/svg"
   xmlns="http://www.w3.org/2000/svg"
   xmlns:sodipodi="http://sodipodi.sourceforge.net/DTD/sodipodi-0.dtd"
   xmlns:inkscape="http://www.inkscape.org/namespaces/inkscape"
   width="96"
   height="96"
   id="svg4874"
   version="1.1"
   inkscape:version="0.91 r13725"
   viewBox="0 0 96 96.000001"
   sodipodi:docname="multimedia-volume-high.svg">
  <defs
     id="defs4876" />
  <sodipodi:namedview
     id="base"
     pagecolor="#ffffff"
     bordercolor="#666666"
     borderopacity="1.0"
     inkscape:pageopacity="0.0"
     inkscape:pageshadow="2"
     inkscape:zoom="10.976561"
     inkscape:cx="35.981214"
     inkscape:cy="44.604123"
     inkscape:document-units="px"
     inkscape:current-layer="g4780"
     showgrid="true"
     showborder="true"
     fit-margin-top="0"
     fit-margin-left="0"
     fit-margin-right="0"
     fit-margin-bottom="0"
     inkscape:snap-bbox="true"
     inkscape:bbox-paths="true"
     inkscape:bbox-nodes="true"
     inkscape:snap-bbox-edge-midpoints="true"
     inkscape:snap-bbox-midpoints="true"
     inkscape:object-paths="true"
     inkscape:snap-intersection-paths="true"
     inkscape:object-nodes="true"
     inkscape:snap-smooth-nodes="true"
     inkscape:snap-midpoints="true"
     inkscape:snap-object-midpoints="true"
     inkscape:snap-center="true"
     showguides="false"
     inkscape:guide-bbox="true"
     inkscape:snap-global="true">
    <inkscape:grid
       type="xygrid"
       id="grid5451"
       empspacing="8" />
    <sodipodi:guide
       orientation="1,0"
       position="8,-8.0000001"
       id="guide4063"
       inkscape:locked="false" />
    <sodipodi:guide
       orientation="1,0"
       position="4,-8.0000001"
       id="guide4065"
       inkscape:locked="false" />
    <sodipodi:guide
       orientation="0,1"
       position="-8,88.000001"
       id="guide4067"
       inkscape:locked="false" />
    <sodipodi:guide
       orientation="0,1"
       position="-8,92.000001"
       id="guide4069"
       inkscape:locked="false" />
    <sodipodi:guide
       orientation="0,1"
       position="104,4"
       id="guide4071"
       inkscape:locked="false" />
    <sodipodi:guide
       orientation="0,1"
       position="-5,8.0000001"
       id="guide4073"
       inkscape:locked="false" />
    <sodipodi:guide
       orientation="1,0"
       position="88,-8.0000001"
       id="guide4077"
       inkscape:locked="false" />
    <sodipodi:guide
       orientation="0,1"
       position="-8,84.000001"
       id="guide4074"
       inkscape:locked="false" />
    <sodipodi:guide
       orientation="1,0"
       position="12,-8.0000001"
       id="guide4076"
       inkscape:locked="false" />
    <sodipodi:guide
       orientation="1,0"
       position="84,-8.0000001"
       id="guide4080"
       inkscape:locked="false" />
    <sodipodi:guide
       position="48,-8.0000001"
       orientation="1,0"
       id="guide4170"
       inkscape:locked="false" />
    <sodipodi:guide
       position="-8,48"
       orientation="0,1"
       id="guide4172"
       inkscape:locked="false" />
    <sodipodi:guide
       position="92,-8.0000001"
       orientation="1,0"
       id="guide4760"
       inkscape:locked="false" />
    <sodipodi:guide
       position="108,12"
       orientation="0,1"
       id="guide4182"
       inkscape:locked="false" />
  </sodipodi:namedview>
  <metadata
     id="metadata4879">
    <rdf:RDF>
      <cc:Work
         rdf:about="">
        <dc:format>image/svg+xml</dc:format>
        <dc:type
           rdf:resource="http://purl.org/dc/dcmitype/StillImage" />
        <dc:title></dc:title>
      </cc:Work>
    </rdf:RDF>
  </metadata>
  <g
     inkscape:label="Layer 1"
     inkscape:groupmode="layer"
     id="layer1"
     transform="translate(67.857146,-78.50504)">
    <g
       transform="matrix(0,-1,-1,0,373.50506,516.50504)"
       id="g4845"
       style="display:inline">
      <g
         inkscape:export-ydpi="90"
         inkscape:export-xdpi="90"
         inkscape:export-filename="next01.png"
         transform="matrix(-0.9996045,0,0,1,575.94296,-611.00001)"
         id="g4778"
         inkscape:label="Layer 1">
        <g
           transform="matrix(-1,0,0,1,575.99999,611)"
           id="g4780"
           style="display:inline">
          <rect
             style="color:#000000;display:inline;overflow:visible;visibility:visible;fill:none;stroke:none;stroke-width:4;marker:none;enable-background:accumulate"
             id="rect4782"
             width="96.037987"
             height="96"
             x="-438.00244"
             y="345.36221"
             transform="scale(-1,1)" />
          <path
             style="color:#000000;font-style:normal;font-variant:normal;font-weight:normal;font-stretch:normal;font-size:medium;line-height:normal;font-family:sans-serif;text-indent:0;text-align:start;text-decoration:none;text-decoration-line:none;text-decoration-style:solid;text-decoration-color:#000000;letter-spacing:normal;word-spacing:normal;text-transform:none;direction:ltr;writing-mode:lr-tb;baseline-shift:baseline;text-anchor:start;white-space:normal;clip-rule:nonzero;display:inline;overflow:visible;visibility:visible;opacity:1;isolation:auto;mix-blend-mode:normal;color-interpolation:sRGB;color-interpolation-filters:linearRGB;solid-color:#000000;solid-opacity:1;fill:#808080;fill-opacity:1;fill-rule:nonzero;stroke:none;stroke-width:5.00098896;stroke-linecap:butt;stroke-linejoin:miter;stroke-miterlimit:4;stroke-dasharray:none;stroke-dashoffset:0;stroke-opacity:1;marker:none;color-rendering:auto;image-rendering:auto;shape-rendering:auto;text-rendering:auto;enable-background:accumulate"
             d="m 411.46289,372.25391 -3.53516,3.53711 c -4.75917,-4.75729 -11.21248,-7.42969 -17.94335,-7.42969 -6.73088,0 -13.18419,2.6724 -17.94336,7.42969 l -3.53516,-3.53711 c 5.69586,-5.69361 13.42374,-8.89258 21.47852,-8.89258 8.05477,0 15.78265,3.19897 21.47851,8.89258 z"
             id="path4158"
             inkscape:connector-curvature="0" />
          <path
             style="color:#000000;font-style:normal;font-variant:normal;font-weight:normal;font-stretch:normal;font-size:medium;line-height:normal;font-family:sans-serif;text-indent:0;text-align:start;text-decoration:none;text-decoration-line:none;text-decoration-style:solid;text-decoration-color:#000000;letter-spacing:normal;word-spacing:normal;text-transform:none;direction:ltr;writing-mode:lr-tb;baseline-shift:baseline;text-anchor:start;white-space:normal;clip-rule:nonzero;display:inline;overflow:visible;visibility:visible;opacity:1;isolation:auto;mix-blend-mode:normal;color-interpolation:sRGB;color-interpolation-filters:linearRGB;solid-color:#000000;solid-opacity:1;fill:#808080;fill-opacity:1;fill-rule:nonzero;stroke:none;stroke-width:5.00098896;stroke-linecap:butt;stroke-linejoin:miter;stroke-miterlimit:4;stroke-dasharray:none;stroke-dashoffset:0;stroke-opacity:1;marker:none;color-rendering:auto;image-rendering:auto;shape-rendering:auto;text-rendering:auto;enable-background:accumulate"
             d="m 421.34961,362.37109 -3.53516,3.53711 c -7.38135,-7.37843 -17.39087,-11.52343 -27.83007,-11.52343 -10.43921,0 -20.44873,4.145 -27.83008,11.52343 l -3.53516,-3.53711 c 8.31805,-8.31475 19.60213,-12.98632 31.36524,-12.98632 11.7631,0 23.04718,4.67157 31.36523,12.98632 z"
             id="circle4160"
             inkscape:connector-curvature="0" />
          <path
             style="font-style:normal;font-variant:normal;font-weight:normal;font-stretch:normal;font-size:15px;line-height:125%;font-family:Ubuntu;-inkscape-font-specification:Ubuntu;text-align:center;letter-spacing:0px;word-spacing:0px;writing-mode:lr-tb;text-anchor:middle;display:inline;fill:#808080;fill-opacity:1;stroke:none;stroke-width:3.33608699;enable-background:new"
             d="m 423.99639,386.06253 c 0.0101,0.91064 -0.13232,2.12169 -0.37452,3.73254 l -4.31239,28.0956 c -1.37858,6.47158 -1.80721,6.47155 -7.27685,6.47155 l -10.71067,0 -33.57532,-0.012 c 0.15843,0.22676 0.31641,0.45547 0.47309,0.6892 l -0.002,0 c 1.37839,2.05606 2.35925,4.39005 2.35927,7.3334 0,3.68682 -1.41248,5.88618 -3.27262,7.21715 -1.86016,1.33092 -4.20499,1.77229 -6.01745,1.77229 -2.18558,0 -4.51798,-0.74647 -6.29555,-2.36465 -1.77757,-1.61817 -3.02288,-4.106 -3.02293,-7.6831 0,-4.03933 1.12893,-7.024 3.33265,-8.63024 1.73507,-1.26467 4.05257,-1.96343 6.91184,-2.21301 l 0.005,0 0.003,0 c 0.34689,-0.0351 0.70271,-0.0601 1.06979,-0.0821 0.56519,-0.0339 1.62289,-0.0269 1.62289,-0.0269 l 33.98084,0 c 4.85442,0 5.14428,2.5e-4 6.2513,-6.47314 l 3.2031,-20.04109 c 0.84924,-6.48504 0.25315,-6.38985 -3.38639,-6.48577 l -30.71605,-0.0318 c 0.14919,0.21384 0.29794,0.42957 0.44555,0.64974 l -0.002,0 c 1.37839,2.05605 2.35924,4.24689 2.35925,7.19026 0,3.68681 -1.41246,5.88617 -3.2726,7.21713 -1.86017,1.33095 -4.20498,1.77229 -6.01746,1.77229 -2.18557,0 -4.51799,-0.74646 -6.29556,-2.36465 -1.77755,-1.61818 -3.02287,-4.10597 -3.02293,-7.68309 0,-4.03934 1.12894,-6.88089 3.33267,-8.48711 1.73506,-1.26467 4.05256,-1.96342 6.91182,-2.213 l 0.005,0 0.003,0 c 0.34689,-0.035 0.70271,-0.06 1.0698,-0.0821 0.5652,-0.0338 1.62287,-0.0267 1.62287,-0.0267 l 37.21708,0 9.69458,0 c 4.25763,0 5.6678,0.0276 5.69824,2.75955 z"
             id="path4393"
             inkscape:connector-curvature="0"
             sodipodi:nodetypes="cccsccccscsscscccccsccccccssssccccccccscc" />
        </g>
      </g>
    </g>
  </g>
</svg>
