<?xml version="1.0" encoding="UTF-8" standalone="no"?>
<!-- Created with Inkscape (http://www.inkscape.org/) -->

<svg
   xmlns:dc="http://purl.org/dc/elements/1.1/"
   xmlns:cc="http://creativecommons.org/ns#"
   xmlns:rdf="http://www.w3.org/1999/02/22-rdf-syntax-ns#"
   xmlns:svg="http://www.w3.org/2000/svg"
   xmlns="http://www.w3.org/2000/svg"
   xmlns:sodipodi="http://sodipodi.sourceforge.net/DTD/sodipodi-0.dtd"
   xmlns:inkscape="http://www.inkscape.org/namespaces/inkscape"
   width="96"
   height="96"
   id="svg4874"
   version="1.1"
   inkscape:version="0.91+devel r"
   viewBox="0 0 96 96.000001"
   sodipodi:docname="network-vpn-disabled.svg">
  <defs
     id="defs4876" />
  <sodipodi:namedview
     id="base"
     pagecolor="#ffffff"
     bordercolor="#666666"
     borderopacity="1.0"
     inkscape:pageopacity="0.0"
     inkscape:pageshadow="2"
     inkscape:zoom="5.6199992"
     inkscape:cx="40.071173"
     inkscape:cy="68.21173"
     inkscape:document-units="px"
     inkscape:current-layer="layer1"
     showgrid="true"
     showborder="true"
     fit-margin-top="0"
     fit-margin-left="0"
     fit-margin-right="0"
     fit-margin-bottom="0"
     inkscape:snap-bbox="true"
     inkscape:bbox-paths="true"
     inkscape:bbox-nodes="true"
     inkscape:snap-bbox-edge-midpoints="true"
     inkscape:snap-bbox-midpoints="true"
     inkscape:object-paths="true"
     inkscape:snap-intersection-paths="true"
     inkscape:object-nodes="true"
     inkscape:snap-smooth-nodes="true"
     inkscape:snap-midpoints="true"
     inkscape:snap-object-midpoints="true"
     inkscape:snap-center="true"
     showguides="true"
     inkscape:guide-bbox="true"
     inkscape:snap-global="true">
    <inkscape:grid
       type="xygrid"
       id="grid5451"
       empspacing="8" />
    <sodipodi:guide
       orientation="1,0"
       position="8,-8.0000001"
       id="guide4063"
       inkscape:locked="false" />
    <sodipodi:guide
       orientation="1,0"
       position="4,-8.0000001"
       id="guide4065"
       inkscape:locked="false" />
    <sodipodi:guide
       orientation="0,1"
       position="-8,88.000001"
       id="guide4067"
       inkscape:locked="false" />
    <sodipodi:guide
       orientation="0,1"
       position="-8,92.000001"
       id="guide4069"
       inkscape:locked="false" />
    <sodipodi:guide
       orientation="0,1"
       position="104,4"
       id="guide4071"
       inkscape:locked="false" />
    <sodipodi:guide
       orientation="0,1"
       position="-5,8.0000001"
       id="guide4073"
       inkscape:locked="false" />
    <sodipodi:guide
       orientation="1,0"
       position="88,-8.0000001"
       id="guide4077"
       inkscape:locked="false" />
    <sodipodi:guide
       orientation="0,1"
       position="-8,84.000001"
       id="guide4074"
       inkscape:locked="false" />
    <sodipodi:guide
       orientation="1,0"
       position="12,-8.0000001"
       id="guide4076"
       inkscape:locked="false" />
    <sodipodi:guide
       orientation="1,0"
       position="84,-8.0000001"
       id="guide4080"
       inkscape:locked="false" />
    <sodipodi:guide
       position="48,-8.0000001"
       orientation="1,0"
       id="guide4170"
       inkscape:locked="false" />
    <sodipodi:guide
       position="-8,48"
       orientation="0,1"
       id="guide4172"
       inkscape:locked="false" />
    <sodipodi:guide
       position="92,-8.0000001"
       orientation="1,0"
       id="guide4760"
       inkscape:locked="false" />
  </sodipodi:namedview>
  <metadata
     id="metadata4879">
    <rdf:RDF>
      <cc:Work
         rdf:about="">
        <dc:format>image/svg+xml</dc:format>
        <dc:type
           rdf:resource="http://purl.org/dc/dcmitype/StillImage" />
        <dc:title />
      </cc:Work>
    </rdf:RDF>
  </metadata>
  <g
     inkscape:label="Layer 1"
     inkscape:groupmode="layer"
     id="layer1"
     transform="translate(67.857146,-78.50504)">
    <rect
       transform="rotate(90)"
       y="-28.142855"
       x="78.505035"
       height="96"
       width="96.000008"
       id="rect4782-05"
       style="color:#000000;display:inline;overflow:visible;visibility:visible;fill:none;stroke:none;stroke-width:3.99920893;marker:none;enable-background:accumulate" />
    <path
       style="color:#000000;font-style:normal;font-variant:normal;font-weight:normal;font-stretch:normal;font-size:medium;line-height:normal;font-family:sans-serif;font-variant-ligatures:normal;font-variant-position:normal;font-variant-caps:normal;font-variant-numeric:normal;font-variant-alternates:normal;font-feature-settings:normal;text-indent:0;text-align:start;text-decoration:none;text-decoration-line:none;text-decoration-style:solid;text-decoration-color:#000000;letter-spacing:normal;word-spacing:normal;text-transform:none;writing-mode:lr-tb;direction:ltr;baseline-shift:baseline;text-anchor:start;white-space:normal;shape-padding:0;clip-rule:nonzero;display:inline;overflow:visible;visibility:visible;opacity:0.5;isolation:auto;mix-blend-mode:normal;color-interpolation:sRGB;color-interpolation-filters:linearRGB;solid-color:#000000;solid-opacity:1;fill:#808080;fill-opacity:1;fill-rule:nonzero;stroke:none;stroke-width:3.99999976;stroke-linecap:butt;stroke-linejoin:miter;stroke-miterlimit:4;stroke-dasharray:none;stroke-dashoffset:0;stroke-opacity:1;marker:none;color-rendering:auto;image-rendering:auto;shape-rendering:auto;text-rendering:auto;enable-background:accumulate"
       d="M 19.976562 10 C 14.943782 10.0582 11.262951 9.8798456 8.2519531 11.541016 C 6.7464541 12.371686 5.5551424 13.77656 4.8964844 15.53125 C 4.2378264 17.28589 4 19.369559 4 22 L 4 62 C 4 64.63044 4.2377504 66.712157 4.8964844 68.466797 C 5.5551424 70.221447 6.7464541 71.626371 8.2519531 72.457031 C 11.262951 74.118321 14.943782 73.94184 19.976562 74 L 19.988281 74 L 45.998047 74 L 45.998047 78.351562 A 5.9999971 5.9999967 0 0 0 42.349609 82.001953 L 12 82.001953 L 12 86 L 42.349609 86 A 5.9999971 5.9999967 0 0 0 48 90 A 5.9999971 5.9999967 0 0 0 53.650391 86 L 84 86 L 84 82.001953 L 53.650391 82.001953 A 5.9999971 5.9999967 0 0 0 50 78.351562 L 50 74 L 76.011719 74 L 76.021484 74 C 81.054264 73.9418 84.735134 74.118281 87.746094 72.457031 C 89.251594 71.626371 90.442903 70.221447 91.101562 68.466797 C 91.760263 66.712157 91.998047 64.63044 91.998047 62 L 91.998047 22 C 91.998047 19.369559 91.760333 17.28589 91.101562 15.53125 C 90.442903 13.77656 89.251594 12.371686 87.746094 11.541016 C 84.735134 9.8797656 81.054264 10.05817 76.021484 10 L 76.011719 10 L 19.988281 10 L 19.976562 10 z M 19.998047 14 L 20 14 L 75.998047 14 C 81.036277 14.0586 84.349923 14.236972 85.814453 15.044922 C 86.548103 15.449712 86.967152 15.8979 87.357422 16.9375 C 87.747662 17.97713 87.998047 19.630419 87.998047 22 L 87.998047 62 C 87.998047 64.36958 87.747472 66.02287 87.357422 67.0625 C 86.967152 68.1021 86.548103 68.550288 85.814453 68.955078 C 84.349923 69.763108 81.036277 69.94122 75.998047 70 L 20.021484 70 L 20 70 C 14.961739 69.9414 11.648123 69.763028 10.183594 68.955078 C 9.4499498 68.550288 9.0328141 68.1021 8.6425781 67.0625 C 8.2523041 66.02287 8 64.36958 8 62 L 8 22 C 8 19.630419 8.2524551 17.97713 8.6425781 16.9375 C 9.0328141 15.8979 9.4499497 15.449712 10.183594 15.044922 C 11.647916 14.237006 14.960985 14.058795 19.998047 14 z M 31.998047 32 C 29.010299 33.427553 25.969834 35.001051 22.873047 36.720703 C 19.806452 38.443823 16.847534 40.20352 14 42 C 16.847534 43.83319 19.806452 45.610784 22.873047 47.333984 C 25.968669 49.052944 29.007521 50.60936 31.994141 52 L 31.996094 44 L 64.003906 44 L 64.005859 52 C 66.992479 50.60936 70.031333 49.052944 73.126953 47.333984 C 76.193553 45.610784 79.15246 43.83319 82 42 C 79.15246 40.20352 76.193553 38.443823 73.126953 36.720703 C 70.030169 35.001051 66.9897 33.427553 64.001953 32 L 64.003906 40.001953 L 31.996094 40 L 31.998047 32 z "
       transform="translate(-67.857146,78.50504)"
       id="path4205-0" />
  </g>
</svg>
