<?xml version="1.0" encoding="UTF-8" standalone="no"?>
<!-- Created with Inkscape (http://www.inkscape.org/) -->

<svg
   xmlns:dc="http://purl.org/dc/elements/1.1/"
   xmlns:cc="http://creativecommons.org/ns#"
   xmlns:rdf="http://www.w3.org/1999/02/22-rdf-syntax-ns#"
   xmlns:svg="http://www.w3.org/2000/svg"
   xmlns="http://www.w3.org/2000/svg"
   xmlns:sodipodi="http://sodipodi.sourceforge.net/DTD/sodipodi-0.dtd"
   xmlns:inkscape="http://www.inkscape.org/namespaces/inkscape"
   width="96"
   height="96"
   id="svg4874"
   version="1.1"
   inkscape:version="0.91+devel r"
   viewBox="0 0 96 96.000001"
   sodipodi:docname="orientation-lock-disabled.svg">
  <defs
     id="defs4876" />
  <sodipodi:namedview
     id="base"
     pagecolor="#ffffff"
     bordercolor="#666666"
     borderopacity="1.0"
     inkscape:pageopacity="0.0"
     inkscape:pageshadow="2"
     inkscape:zoom="4.4959994"
     inkscape:cx="-132.718"
     inkscape:cy="46.919462"
     inkscape:document-units="px"
     inkscape:current-layer="layer1"
     showgrid="true"
     showborder="true"
     fit-margin-top="0"
     fit-margin-left="0"
     fit-margin-right="0"
     fit-margin-bottom="0"
     inkscape:snap-bbox="true"
     inkscape:bbox-paths="true"
     inkscape:bbox-nodes="true"
     inkscape:snap-bbox-edge-midpoints="true"
     inkscape:snap-bbox-midpoints="true"
     inkscape:object-paths="true"
     inkscape:snap-intersection-paths="true"
     inkscape:object-nodes="true"
     inkscape:snap-smooth-nodes="true"
     inkscape:snap-midpoints="true"
     inkscape:snap-object-midpoints="true"
     inkscape:snap-center="true"
     showguides="true"
     inkscape:guide-bbox="true"
     inkscape:snap-global="true">
    <inkscape:grid
       type="xygrid"
       id="grid5451"
       empspacing="8" />
    <sodipodi:guide
       orientation="1,0"
       position="8,-8.0000001"
       id="guide4063"
       inkscape:locked="false" />
    <sodipodi:guide
       orientation="1,0"
       position="4,-8.0000001"
       id="guide4065"
       inkscape:locked="false" />
    <sodipodi:guide
       orientation="0,1"
       position="-8,88.000001"
       id="guide4067"
       inkscape:locked="false" />
    <sodipodi:guide
       orientation="0,1"
       position="-8,92.000001"
       id="guide4069"
       inkscape:locked="false" />
    <sodipodi:guide
       orientation="0,1"
       position="104,4"
       id="guide4071"
       inkscape:locked="false" />
    <sodipodi:guide
       orientation="0,1"
       position="-5,8.0000001"
       id="guide4073"
       inkscape:locked="false" />
    <sodipodi:guide
       orientation="1,0"
       position="88,-8.0000001"
       id="guide4077"
       inkscape:locked="false" />
    <sodipodi:guide
       orientation="0,1"
       position="-8,84.000001"
       id="guide4074"
       inkscape:locked="false" />
    <sodipodi:guide
       orientation="1,0"
       position="12,-8.0000001"
       id="guide4076"
       inkscape:locked="false" />
    <sodipodi:guide
       orientation="1,0"
       position="84,-8.0000001"
       id="guide4080"
       inkscape:locked="false" />
    <sodipodi:guide
       position="48,-8.0000001"
       orientation="1,0"
       id="guide4170"
       inkscape:locked="false" />
    <sodipodi:guide
       position="-8,48"
       orientation="0,1"
       id="guide4172"
       inkscape:locked="false" />
    <sodipodi:guide
       position="92,-8.0000001"
       orientation="1,0"
       id="guide4760"
       inkscape:locked="false" />
  </sodipodi:namedview>
  <metadata
     id="metadata4879">
    <rdf:RDF>
      <cc:Work
         rdf:about="">
        <dc:format>image/svg+xml</dc:format>
        <dc:type
           rdf:resource="http://purl.org/dc/dcmitype/StillImage" />
        <dc:title></dc:title>
      </cc:Work>
    </rdf:RDF>
  </metadata>
  <g
     inkscape:label="Layer 1"
     inkscape:groupmode="layer"
     id="layer1"
     transform="translate(67.857146,-78.50504)">
    <rect
       transform="rotate(90)"
       y="-28.142855"
       x="78.505043"
       height="96"
       width="96"
       id="rect4782-53"
       style="color:#000000;display:inline;overflow:visible;visibility:visible;fill:none;stroke:none;stroke-width:3.99999976;marker:none;enable-background:accumulate" />
    <path
       style="color:#000000;display:inline;overflow:visible;visibility:visible;opacity:0.5;fill:#808080;fill-opacity:1;fill-rule:nonzero;stroke:none;stroke-width:1.99999988;stroke-linecap:butt;stroke-linejoin:miter;stroke-miterlimit:4;stroke-dasharray:none;stroke-dashoffset:0;stroke-opacity:1;marker:none;enable-background:accumulate"
       d="M 26.933594 9.9667969 C 23.167749 11.571857 19.359732 13.31293 15.511719 15.1875 C 11.645225 17.09506 7.9619634 19.048508 4.4589844 21.048828 L 4.4589844 21.050781 L 12.017578 26.367188 C 6.98788 34.513461 4.8344752 44.22827 6.109375 53.912109 C 7.813488 66.856119 15.44343 78.276798 26.75 84.804688 L 28.75 81.339844 C 18.517496 75.432094 11.618408 65.105005 10.076172 53.390625 C 8.9330574 44.707643 10.837838 36.003844 15.298828 28.675781 L 24.087891 34.857422 C 24.82418 30.912122 25.437075 26.798618 25.927734 22.517578 C 26.393901 18.262693 26.7295 14.078737 26.933594 9.9667969 z M 69.25 11.193359 L 67.25 14.65625 C 77.4825 20.56395 84.383541 30.891089 85.925781 42.605469 C 87.044291 51.101603 85.237295 59.615885 80.980469 66.84375 L 72.648438 61.113281 C 71.953918 65.066131 71.384833 69.186676 70.939453 73.472656 C 70.518263 77.732226 70.227036 81.919333 70.066406 86.033203 C 73.815096 84.388463 77.603631 82.606536 81.431641 80.691406 C 85.277771 78.743106 88.940245 76.752084 92.421875 74.714844 L 92.423828 74.712891 L 84.285156 69.115234 C 89.092025 61.075145 91.138995 51.566247 89.890625 42.083984 C 88.186515 29.139974 80.55657 17.721249 69.25 11.193359 z M 48 24 C 41.386583 24 36 29.38662 36 36 L 36 43 L 32 43 L 32 68 L 64 68 L 64 43 L 60 43 L 60 36 C 60 29.38662 54.613417 24 48 24 z M 48 28 C 52.466608 28 56 31.53343 56 36 L 56 43 L 40 43 L 40 36 C 40 31.53343 43.533392 28 48 28 z "
       transform="translate(-67.857146,78.50504)"
       id="rect4171" />
  </g>
</svg>
