<?xml version="1.0" encoding="UTF-8" standalone="no"?>
<!-- Created with Inkscape (http://www.inkscape.org/) -->

<svg
   xmlns:dc="http://purl.org/dc/elements/1.1/"
   xmlns:cc="http://creativecommons.org/ns#"
   xmlns:rdf="http://www.w3.org/1999/02/22-rdf-syntax-ns#"
   xmlns:svg="http://www.w3.org/2000/svg"
   xmlns="http://www.w3.org/2000/svg"
   xmlns:sodipodi="http://sodipodi.sourceforge.net/DTD/sodipodi-0.dtd"
   xmlns:inkscape="http://www.inkscape.org/namespaces/inkscape"
   width="96"
   height="96"
   id="svg4874"
   version="1.1"
   inkscape:version="0.91 r13725"
   viewBox="0 0 96 96.000001"
   sodipodi:docname="simcard-2.svg">
  <defs
     id="defs4876" />
  <sodipodi:namedview
     id="base"
     pagecolor="#ffffff"
     bordercolor="#666666"
     borderopacity="1.0"
     inkscape:pageopacity="0.0"
     inkscape:pageshadow="2"
     inkscape:zoom="13.720701"
     inkscape:cx="26.864514"
     inkscape:cy="55.660411"
     inkscape:document-units="px"
     inkscape:current-layer="layer1"
     showgrid="true"
     showborder="true"
     fit-margin-top="0"
     fit-margin-left="0"
     fit-margin-right="0"
     fit-margin-bottom="0"
     inkscape:snap-bbox="true"
     inkscape:bbox-paths="true"
     inkscape:bbox-nodes="true"
     inkscape:snap-bbox-edge-midpoints="true"
     inkscape:snap-bbox-midpoints="true"
     inkscape:object-paths="true"
     inkscape:snap-intersection-paths="true"
     inkscape:object-nodes="true"
     inkscape:snap-smooth-nodes="true"
     inkscape:snap-midpoints="true"
     inkscape:snap-object-midpoints="true"
     inkscape:snap-center="true"
     showguides="true"
     inkscape:guide-bbox="true"
     inkscape:snap-global="true">
    <inkscape:grid
       type="xygrid"
       id="grid5451"
       empspacing="8" />
    <sodipodi:guide
       orientation="1,0"
       position="8,-8.0000001"
       id="guide4063" />
    <sodipodi:guide
       orientation="1,0"
       position="4,-8.0000001"
       id="guide4065" />
    <sodipodi:guide
       orientation="0,1"
       position="-8,88.000001"
       id="guide4067" />
    <sodipodi:guide
       orientation="0,1"
       position="-8,92.000001"
       id="guide4069" />
    <sodipodi:guide
       orientation="0,1"
       position="104,4"
       id="guide4071" />
    <sodipodi:guide
       orientation="0,1"
       position="-5,8.0000001"
       id="guide4073" />
    <sodipodi:guide
       orientation="1,0"
       position="88,-8.0000001"
       id="guide4077" />
    <sodipodi:guide
       orientation="0,1"
       position="-8,84.000001"
       id="guide4074" />
    <sodipodi:guide
       orientation="1,0"
       position="12,-8.0000001"
       id="guide4076" />
    <sodipodi:guide
       orientation="1,0"
       position="84,-8.0000001"
       id="guide4080" />
    <sodipodi:guide
       position="48,-8.0000001"
       orientation="1,0"
       id="guide4170" />
    <sodipodi:guide
       position="-8,48"
       orientation="0,1"
       id="guide4172" />
    <sodipodi:guide
       position="92,-8.0000001"
       orientation="1,0"
       id="guide4760" />
  </sodipodi:namedview>
  <metadata
     id="metadata4879">
    <rdf:RDF>
      <cc:Work
         rdf:about="">
        <dc:format>image/svg+xml</dc:format>
        <dc:type
           rdf:resource="http://purl.org/dc/dcmitype/StillImage" />
        <dc:title />
      </cc:Work>
    </rdf:RDF>
  </metadata>
  <g
     inkscape:label="Layer 1"
     inkscape:groupmode="layer"
     id="layer1"
     transform="translate(67.857146,-78.50504)">
    <rect
       transform="rotate(90)"
       y="-28.142857"
       x="78.505051"
       height="96"
       width="96"
       id="rect4782"
       style="color:#000000;display:inline;overflow:visible;visibility:visible;fill:none;stroke:none;stroke-width:4;marker:none;enable-background:accumulate" />
    <path
       style="color:#000000;font-style:normal;font-variant:normal;font-weight:normal;font-stretch:normal;font-size:medium;line-height:normal;font-family:sans-serif;font-variant-ligatures:none;font-variant-position:normal;font-variant-caps:normal;font-variant-numeric:normal;font-variant-alternates:normal;font-feature-settings:normal;text-indent:0;text-align:start;text-decoration:none;text-decoration-line:none;text-decoration-style:solid;text-decoration-color:#000000;letter-spacing:normal;word-spacing:normal;text-transform:none;direction:ltr;block-progression:tb;writing-mode:lr-tb;baseline-shift:baseline;text-anchor:start;white-space:normal;shape-padding:0;clip-rule:nonzero;display:inline;overflow:visible;visibility:visible;opacity:1;isolation:auto;mix-blend-mode:normal;color-interpolation:sRGB;color-interpolation-filters:linearRGB;solid-color:#000000;solid-opacity:1;fill:#808080;fill-opacity:1;fill-rule:nonzero;stroke:none;stroke-width:4.00000048;stroke-linecap:butt;stroke-linejoin:miter;stroke-miterlimit:4;stroke-dasharray:none;stroke-dashoffset:0;stroke-opacity:1;marker:none;color-rendering:auto;image-rendering:auto;shape-rendering:auto;text-rendering:auto;enable-background:accumulate"
       d="m -35.869141,82.503906 -0.01172,0.002 c -5.032775,0.05818 -8.713619,-0.120274 -11.72461,1.541016 -1.505495,0.830645 -2.696806,2.235578 -3.355469,3.990234 -0.658662,1.754657 -0.896484,3.836361 -0.896484,6.466797 l 0,64.001954 c 0,2.63043 0.237822,4.71214 0.896484,6.4668 0.658663,1.75465 1.849974,3.15959 3.355469,3.99023 3.010991,1.66129 6.691834,1.48479 11.72461,1.54297 l 0.01172,0 32.0234379,0 0.011719,0 c 5.0327754,-0.0582 8.7136191,0.11832 11.7246094,-1.54297 1.5054952,-0.83064 2.696807,-2.23558 3.355469,-3.99023 0.658662,-1.75466 0.896484,-3.83637 0.896484,-6.4668 l 0,-58.830079 -17.1718749,-17.171875 -30.8398441,0 z m 0.01172,4 29.1718751,0 14.828125,14.830074 0,57.17188 c 0,2.36956 -0.2503715,4.02092 -0.640625,5.06055 -0.3902535,1.03962 -0.8093314,1.48975 -1.5429687,1.89453 -1.4645345,0.80804 -4.778153,0.98616 -9.8164063,1.04492 l -31.9765621,0 -0.02344,0 c -5.038253,-0.0588 -8.351872,-0.23688 -9.816406,-1.04492 -0.733637,-0.40478 -1.150762,-0.85491 -1.541016,-1.89453 -0.390253,-1.03963 -0.642578,-2.69099 -0.642578,-5.06055 l 0,-64.001954 c 0,-2.369565 0.252325,-4.020923 0.642578,-5.060547 0.390254,-1.039624 0.807379,-1.489752 1.541016,-1.894531 1.464534,-0.808045 4.778153,-0.986156 9.816406,-1.044922 z"
       id="path4643"
       inkscape:connector-curvature="0" />
    <path
       style="font-style:normal;font-variant:normal;font-weight:300;font-stretch:normal;font-size:59.32202911px;line-height:1000%;font-family:Ubuntu;-inkscape-font-specification:'Ubuntu Light';text-align:center;letter-spacing:0px;word-spacing:0px;writing-mode:lr-tb;text-anchor:middle;fill:#808080;fill-opacity:1;stroke:none;stroke-width:1px;stroke-linecap:butt;stroke-linejoin:miter;stroke-opacity:1"
       d="m -21.456243,105.50504 c -1.508779,0 -2.886887,0.19855 -4.133227,0.6006 -1.221286,0.35526 -2.311023,0.7904 -3.26782,1.30867 l -0.0038,0.002 -0.0019,0 c -0.911108,0.51497 -1.690276,1.05323 -2.335254,1.6176 -0.587715,0.50945 -1.002581,0.90199 -1.260691,1.20312 l -0.193806,0.22451 2.415847,3.19874 0.299342,-0.29934 c 0.218653,-0.21865 0.58485,-0.54683 1.086076,-0.97095 0.483122,-0.40879 1.064005,-0.80495 1.746164,-1.18393 l 0.0038,0 0.0019,-0.002 c 0.711109,-0.4117 1.542125,-0.77233 2.492601,-1.07648 0.927896,-0.29693 1.997621,-0.4471 3.210255,-0.4471 2.1479,0 3.874192,0.57463 5.24041,1.7193 l 0.0058,0.004 0.0038,0.006 c 1.367077,1.07926 2.074289,2.8847 2.074289,5.53783 0,1.20495 -0.18823,2.30735 -0.560308,3.31195 -0.377274,1.01864 -0.886782,1.97885 -1.529332,2.88597 -0.647309,0.91385 -1.410688,1.81173 -2.291121,2.69216 -0.852819,0.85282 -1.762726,1.74587 -2.732458,2.67681 l -0.0019,0 c -1.164256,1.12545 -2.385933,2.29088 -3.666944,3.49425 l -0.0019,0.002 -0.0019,0.002 c -1.257333,1.21804 -2.41645,2.53307 -3.476976,3.9471 l -0.0019,0.004 -0.0019,0.002 c -1.026763,1.42168 -1.876886,2.94389 -2.548247,4.56306 -0.679885,1.60105 -1.018915,3.34237 -1.018915,5.21162 l 0,1.02659 0.0077,0.0365 c 0.037,0.18501 0.04989,0.31949 0.04989,0.3358 l 0,0.36842 23.991522,0 0,-4.06031 -19.000564,0 c 0.03463,-0.79266 0.181758,-1.5859 0.550713,-2.3909 0.453417,-0.94348 1.04067,-1.89247 1.763434,-2.84375 l 0.0019,-0.002 c 0.768028,-0.99827 1.613657,-1.97815 2.536735,-2.93969 0.968018,-1.00675 1.954063,-1.99471 2.960803,-2.96273 l 0.0019,0 c 1.205904,-1.16701 2.392414,-2.33484 3.559488,-3.50192 1.176664,-1.17666 2.216946,-2.39319 3.121987,-3.65159 0.949449,-1.26594 1.703732,-2.57596 2.260418,-3.92791 l 0.0019,-0.002 0,-0.002 c 0.5614831,-1.4037 0.8423803,-2.89044 0.8423803,-4.44984 0,-3.48925 -1.0238803,-6.26718 -3.0836103,-8.24726 l -0.0019,-0.002 c -2.068357,-2.02656 -5.130744,-3.01645 -9.11459,-3.01645 l 0,-0.002 z"
       id="text4192"
       inkscape:connector-curvature="0" />
  </g>
</svg>
