<?xml version="1.0" encoding="UTF-8" standalone="no"?>
<!-- Created with Inkscape (http://www.inkscape.org/) -->

<svg
   xmlns:dc="http://purl.org/dc/elements/1.1/"
   xmlns:cc="http://creativecommons.org/ns#"
   xmlns:rdf="http://www.w3.org/1999/02/22-rdf-syntax-ns#"
   xmlns:svg="http://www.w3.org/2000/svg"
   xmlns="http://www.w3.org/2000/svg"
   xmlns:sodipodi="http://sodipodi.sourceforge.net/DTD/sodipodi-0.dtd"
   xmlns:inkscape="http://www.inkscape.org/namespaces/inkscape"
   width="90"
   height="90"
   id="svg6138"
   version="1.1"
   inkscape:version="0.91+devel r"
   viewBox="0 0 90 90.000001"
   sodipodi:docname="sync-paused.svg">
  <defs
     id="defs6140" />
  <sodipodi:namedview
     id="base"
     pagecolor="#ffffff"
     bordercolor="#666666"
     borderopacity="1.0"
     inkscape:pageopacity="0.0"
     inkscape:pageshadow="2"
     inkscape:zoom="5.0931703"
     inkscape:cx="-11.326935"
     inkscape:cy="32.306003"
     inkscape:document-units="px"
     inkscape:current-layer="g6253"
     showgrid="true"
     fit-margin-top="0"
     fit-margin-left="0"
     fit-margin-right="0"
     fit-margin-bottom="0"
     inkscape:snap-global="true"
     inkscape:snap-bbox="true"
     inkscape:bbox-paths="true"
     inkscape:snap-bbox-midpoints="true"
     inkscape:snap-bbox-edge-midpoints="true"
     inkscape:bbox-nodes="true"
     inkscape:object-paths="true"
     inkscape:snap-intersection-paths="true"
     inkscape:object-nodes="true"
     inkscape:snap-smooth-nodes="true"
     inkscape:snap-midpoints="true"
     inkscape:snap-others="true"
     inkscape:snap-object-midpoints="true"
     inkscape:snap-center="true"
     showguides="true"
     inkscape:guide-bbox="true">
    <inkscape:grid
       type="xygrid"
       id="grid6700"
       empspacing="6" />
    <sodipodi:guide
       orientation="0,1"
       position="62,87"
       id="guide4084" />
    <sodipodi:guide
       orientation="0,1"
       position="63,84"
       id="guide4086" />
    <sodipodi:guide
       orientation="0,1"
       position="63,81"
       id="guide4088" />
    <sodipodi:guide
       orientation="1,0"
       position="3,70"
       id="guide4090" />
    <sodipodi:guide
       orientation="1,0"
       position="6,66"
       id="guide4092" />
    <sodipodi:guide
       orientation="1,0"
       position="9,59"
       id="guide4094" />
    <sodipodi:guide
       orientation="1,0"
       position="87,63"
       id="guide4096" />
    <sodipodi:guide
       orientation="1,0"
       position="84,64"
       id="guide4098" />
    <sodipodi:guide
       orientation="1,0"
       position="81,55"
       id="guide4100" />
    <sodipodi:guide
       orientation="0,1"
       position="60,3"
       id="guide4102" />
    <sodipodi:guide
       orientation="0,1"
       position="61,6"
       id="guide4104" />
    <sodipodi:guide
       orientation="0,1"
       position="62,9"
       id="guide4106" />
  </sodipodi:namedview>
  <metadata
     id="metadata6143">
    <rdf:RDF>
      <cc:Work
         rdf:about="">
        <dc:format>image/svg+xml</dc:format>
        <dc:type
           rdf:resource="http://purl.org/dc/dcmitype/StillImage" />
        <dc:title></dc:title>
      </cc:Work>
    </rdf:RDF>
  </metadata>
  <g
     inkscape:label="Layer 1"
     inkscape:groupmode="layer"
     id="layer1"
     transform="translate(-283.57144,-358.79068)">
    <g
       id="g6253"
       inkscape:export-filename="planemode01.png"
       inkscape:export-xdpi="90"
       inkscape:export-ydpi="90"
       transform="matrix(-1,0,0,1,547.57143,-1341.5715)">
      <rect
         style="fill:none;stroke:none"
         id="rect6257"
         width="90"
         height="90"
         x="174"
         y="1700.3622" />
      <rect
         style="color:#000000;display:inline;overflow:visible;visibility:visible;opacity:1;fill:#808080;fill-opacity:1;fill-rule:nonzero;stroke:none;stroke-width:1.5;stroke-linecap:butt;stroke-linejoin:miter;stroke-miterlimit:4;stroke-dasharray:none;stroke-dashoffset:0;stroke-opacity:1;marker:none;enable-background:accumulate"
         id="rect4148"
         width="8"
         height="21.99999"
         x="-215.99997"
         y="1740.3622"
         transform="scale(-1,1)" />
      <rect
         y="1740.3622"
         x="-229.99998"
         height="21.99999"
         width="8"
         id="rect4150"
         style="color:#000000;display:inline;overflow:visible;visibility:visible;opacity:1;fill:#808080;fill-opacity:1;fill-rule:nonzero;stroke:none;stroke-width:1.5;stroke-linecap:butt;stroke-linejoin:miter;stroke-miterlimit:4;stroke-dasharray:none;stroke-dashoffset:0;stroke-opacity:1;marker:none;enable-background:accumulate"
         transform="scale(-1,1)" />
      <path
         style="color:#000000;font-style:normal;font-variant:normal;font-weight:normal;font-stretch:normal;font-size:medium;line-height:normal;font-family:sans-serif;font-variant-ligatures:none;font-variant-position:normal;font-variant-caps:normal;font-variant-numeric:normal;font-variant-alternates:normal;font-feature-settings:normal;text-indent:0;text-align:start;text-decoration:none;text-decoration-line:none;text-decoration-style:solid;text-decoration-color:#000000;letter-spacing:normal;word-spacing:normal;text-transform:none;direction:ltr;block-progression:tb;writing-mode:lr-tb;baseline-shift:baseline;text-anchor:start;white-space:normal;shape-padding:0;clip-rule:nonzero;display:inline;overflow:visible;visibility:visible;opacity:1;isolation:auto;mix-blend-mode:normal;color-interpolation:sRGB;color-interpolation-filters:linearRGB;solid-color:#000000;solid-opacity:1;fill:#808080;fill-opacity:1;fill-rule:nonzero;stroke:none;stroke-width:4;stroke-linecap:butt;stroke-linejoin:miter;stroke-miterlimit:4;stroke-dasharray:none;stroke-dashoffset:0;stroke-opacity:1;marker:none;color-rendering:auto;image-rendering:auto;shape-rendering:auto;text-rendering:auto;enable-background:accumulate"
         d="m 212.5,1714.3613 c -11.29815,0 -20.5,9.2019 -20.5,20.5 l 0,0.01 0,0.01 c 0.002,0.2497 0.0454,0.4967 0.0566,0.7461 -10.15029,1.2279 -18.0494,9.7961 -18.05664,20.2363 0,11.2982 9.20185,20.5 20.5,20.5 l 49,0 c 11.29815,0 20.5,-9.2018 20.5,-20.5 l 0,-0 c -0.0116,-8.9301 -5.844,-16.696 -14.21094,-19.4063 0.0644,-0.5317 0.21041,-1.0527 0.21094,-1.5898 l 0,-0 c 0,-7.4321 -6.06785,-13.5 -13.5,-13.5 l -0.002,0 -0.002,0 c -2.55665,0 -4.93658,0.9271 -7.07421,2.2754 -3.76777,-5.6712 -10.02107,-9.2653 -16.91993,-9.2754 l -0.002,0 z m -0.002,4 0.002,0 c 6.1355,0.01 11.75025,3.4089 14.59766,8.8418 l 1.18945,2.2676 1.91211,-1.7031 c 1.73553,-1.5457 3.97683,-2.4018 6.30078,-2.4063 5.27039,0 9.5,4.2296 9.5,9.5 -0.001,0.8309 -0.11279,1.6591 -0.33008,2.4629 l -0.54297,2.0117 2.03125,0.461 c 7.51333,1.7082 12.82999,8.3597 12.8418,16.0644 0,7e-4 0,0 0,0 0,6e-4 0,0 0,0 -0.002,9.1346 -7.36493,16.4961 -16.5,16.4961 l -49,0 c -9.13573,0 -16.49893,-7.3625 -16.5,-16.498 l 0,-0 c 0.007,-9.023 7.2045,-16.3348 16.22656,-16.4843 l 2.27539,-0.037 -0.33007,-2.25 c -0.10801,-0.7397 -0.16511,-1.4866 -0.17188,-2.2343 0.003,-9.133 7.36456,-16.4931 16.49805,-16.4942 z"
         id="path4154"
         inkscape:connector-curvature="0" />
    </g>
  </g>
</svg>
