<?xml version="1.0" encoding="UTF-8" standalone="no"?>
<!-- Created with Inkscape (http://www.inkscape.org/) -->

<svg
   xmlns:dc="http://purl.org/dc/elements/1.1/"
   xmlns:cc="http://creativecommons.org/ns#"
   xmlns:rdf="http://www.w3.org/1999/02/22-rdf-syntax-ns#"
   xmlns:svg="http://www.w3.org/2000/svg"
   xmlns="http://www.w3.org/2000/svg"
   xmlns:sodipodi="http://sodipodi.sourceforge.net/DTD/sodipodi-0.dtd"
   xmlns:inkscape="http://www.inkscape.org/namespaces/inkscape"
   width="96"
   height="96"
   id="svg4874"
   version="1.1"
   inkscape:version="0.91+devel r"
   viewBox="0 0 96 96.000001"
   sodipodi:docname="weather-few-clouds-night-symbolic.svg">
  <defs
     id="defs4876" />
  <sodipodi:namedview
     id="base"
     pagecolor="#ffffff"
     bordercolor="#666666"
     borderopacity="1.0"
     inkscape:pageopacity="0.0"
     inkscape:pageshadow="2"
     inkscape:zoom="3.5967995"
     inkscape:cx="-11.996785"
     inkscape:cy="53.422459"
     inkscape:document-units="px"
     inkscape:current-layer="g4780"
     showgrid="true"
     showborder="true"
     fit-margin-top="0"
     fit-margin-left="0"
     fit-margin-right="0"
     fit-margin-bottom="0"
     inkscape:snap-bbox="true"
     inkscape:bbox-paths="true"
     inkscape:bbox-nodes="true"
     inkscape:snap-bbox-edge-midpoints="true"
     inkscape:snap-bbox-midpoints="true"
     inkscape:object-paths="true"
     inkscape:snap-intersection-paths="true"
     inkscape:object-nodes="true"
     inkscape:snap-smooth-nodes="true"
     inkscape:snap-midpoints="true"
     inkscape:snap-object-midpoints="true"
     inkscape:snap-center="true"
     showguides="true"
     inkscape:guide-bbox="true"
     inkscape:snap-global="true">
    <inkscape:grid
       type="xygrid"
       id="grid5451"
       empspacing="8" />
    <sodipodi:guide
       orientation="1,0"
       position="8,-8.0000001"
       id="guide4063" />
    <sodipodi:guide
       orientation="1,0"
       position="4,-8.0000001"
       id="guide4065" />
    <sodipodi:guide
       orientation="0,1"
       position="-8,88.000001"
       id="guide4067" />
    <sodipodi:guide
       orientation="0,1"
       position="-8,92.000001"
       id="guide4069" />
    <sodipodi:guide
       orientation="0,1"
       position="104,4"
       id="guide4071" />
    <sodipodi:guide
       orientation="0,1"
       position="-5,8.0000001"
       id="guide4073" />
    <sodipodi:guide
       orientation="1,0"
       position="88,-8.0000001"
       id="guide4077" />
    <sodipodi:guide
       orientation="0,1"
       position="-8,84.000001"
       id="guide4074" />
    <sodipodi:guide
       orientation="1,0"
       position="12,-8.0000001"
       id="guide4076" />
    <sodipodi:guide
       orientation="1,0"
       position="84,-8.0000001"
       id="guide4080" />
    <sodipodi:guide
       position="48,-8.0000001"
       orientation="1,0"
       id="guide4170" />
    <sodipodi:guide
       position="-8,48"
       orientation="0,1"
       id="guide4172" />
    <sodipodi:guide
       position="92,-8.0000001"
       orientation="1,0"
       id="guide4760" />
  </sodipodi:namedview>
  <metadata
     id="metadata4879">
    <rdf:RDF>
      <cc:Work
         rdf:about="">
        <dc:format>image/svg+xml</dc:format>
        <dc:type
           rdf:resource="http://purl.org/dc/dcmitype/StillImage" />
        <dc:title></dc:title>
      </cc:Work>
    </rdf:RDF>
  </metadata>
  <g
     inkscape:label="Layer 1"
     inkscape:groupmode="layer"
     id="layer1"
     transform="translate(67.857146,-78.50504)">
    <g
       transform="matrix(0,-1,-1,0,373.50506,516.50504)"
       id="g4845"
       style="display:inline">
      <g
         inkscape:export-ydpi="90"
         inkscape:export-xdpi="90"
         inkscape:export-filename="next01.png"
         transform="matrix(-0.9996045,0,0,1,575.94296,-611.00001)"
         id="g4778"
         inkscape:label="Layer 1">
        <g
           transform="matrix(-1,0,0,1,575.99999,611)"
           id="g4780"
           style="display:inline">
          <rect
             style="color:#000000;display:inline;overflow:visible;visibility:visible;fill:none;stroke:none;stroke-width:4;marker:none;enable-background:accumulate"
             id="rect4782"
             width="96.037987"
             height="96"
             x="-438.00244"
             y="345.36221"
             transform="scale(-1,1)" />
          <path
             style="color:#000000;display:inline;overflow:visible;visibility:visible;fill:#808080;fill-opacity:1;fill-rule:nonzero;stroke:none;stroke-width:5.99881315;marker:none;enable-background:accumulate"
             d="M 62.919922 15.839844 C 69.124572 23.435848 71.30523 33.547719 68.78125 43.025391 C 67.729824 46.949373 65.954664 50.484841 63.646484 53.537109 C 64.660687 53.318249 65.709385 53.195312 66.789062 53.195312 C 67.414571 53.195312 68.027214 53.243955 68.632812 53.318359 C 70.377078 50.511346 71.746665 47.409484 72.644531 44.058594 L 72.646484 44.056641 L 72.646484 44.052734 C 74.352624 37.646089 73.941053 31.045878 72.007812 24.884766 C 79.987364 31.019528 84.590519 40.777248 83.943359 51.042969 C 83.816499 53.055343 83.490539 55.086979 82.949219 57.111328 C 82.436474 59.024423 81.750307 60.842012 80.921875 62.560547 C 81.700084 64.271388 82.193115 66.143921 82.365234 68.113281 C 84.315292 65.121138 85.839876 61.779666 86.814453 58.142578 C 91.695943 39.887689 81.073962 21.083829 62.919922 15.839844 z M 19.992188 58.763672 C 22.934577 68.995051 30.376397 77.223986 40.064453 81.234375 C 38.947898 79.650676 38.20437 77.769415 37.976562 75.728516 C 34.547588 73.744252 31.534975 71.132686 29.115234 68.021484 C 29.527434 68.150083 29.900849 68.373093 30.318359 68.486328 L 30.324219 68.488281 L 30.330078 68.488281 C 34.574289 69.625454 38.849313 69.905931 42.978516 69.453125 C 43.878875 67.487747 45.29332 65.826595 47.048828 64.658203 C 42.071469 65.97341 36.69639 66.054835 31.367188 64.626953 C 27.204087 63.49785 23.327586 61.499 19.992188 58.763672 z M 52.697266 62.550781 C 52.470712 62.661766 52.24493 62.775452 52.015625 62.880859 C 52.102783 62.872368 52.187665 62.856008 52.275391 62.849609 L 52.570312 62.828125 L 52.693359 62.558594 C 52.694581 62.555939 52.696043 62.553435 52.697266 62.550781 z "
             transform="matrix(0,-1,-1.0003957,0,438.00245,441.36222)"
             id="path4243" />
          <path
             style="color:#000000;display:inline;overflow:visible;visibility:visible;fill:#808080;fill-opacity:1;fill-rule:nonzero;stroke:none;stroke-width:3;marker:none;enable-background:accumulate"
             d="m 425.99717,409.85023 c 0,10e-4 -2.3e-4,0.002 -10e-4,0.002 -2.6e-4,0.002 -0.001,0.002 -0.002,0.002 -7.5e-4,0.001 -0.002,0.002 -0.002,0.002 -7.6e-4,0.001 -7.6e-4,0.001 -0.002,0.002 -2.71625,1.26517 -5.48448,2.24279 -7.18071,2.79864 -10e-4,1.82859 -0.0709,4.84033 -0.44359,7.71085 -10e-4,2.4e-4 -10e-4,5e-4 -0.002,-5e-4 -0.001,2.4e-4 -0.002,-10e-4 -0.003,-0.002 -10e-4,-2.5e-4 -0.002,-0.001 -0.002,-0.002 -0.002,-2.6e-4 -0.001,-5e-4 -0.002,-0.001 -2.04313,-2.19132 -3.8287,-4.52112 -4.88177,-5.96196 -1.74014,0.56384 -4.62734,1.42871 -7.47373,1.96143 -5e-4,-7.6e-4 -7.5e-4,-0.001 0,-0.002 -7.5e-4,-10e-4 2.5e-4,-0.002 5e-4,-0.003 -2.5e-4,-0.002 2.5e-4,-0.002 5e-4,-0.003 -2.5e-4,-10e-4 -2.5e-4,-0.002 0,-0.002 1.4536,-2.61966 3.11803,-5.03726 4.16346,-6.4836 -1.07421,-1.48015 -2.78906,-3.95812 -4.17534,-6.49925 5e-4,-7.5e-4 10e-4,-7.5e-4 0.002,-5e-4 0.001,-10e-4 0.002,-5e-4 0.003,-5e-4 10e-4,-7.6e-4 0.002,-5.1e-4 0.003,-5.1e-4 10e-4,-7.5e-4 10e-4,-9.9e-4 0.002,-9.9e-4 2.94164,0.5724 5.75624,1.40801 7.45539,1.95495 1.07634,-1.47866 2.90336,-3.87403 4.89256,-5.97706 7.4e-4,2.5e-4 0.001,7.5e-4 0.001,0.002 10e-4,7.7e-4 10e-4,0.002 0.002,0.002 9.9e-4,9.9e-4 10e-4,0.002 0.002,0.003 0.001,0.001 0.002,0.001 0.002,0.002 0.3644,2.9733 0.4389,5.90703 0.44359,7.69141 1.7395,0.56636 4.58322,1.5635 7.19852,2.80458 z"
             id="path4170"
             inkscape:connector-curvature="0" />
          <path
             inkscape:connector-curvature="0"
             id="path4195"
             d="m 405.98937,428.47311 c 0,7.5e-4 -1.8e-4,10e-4 -7.9e-4,10e-4 -1.9e-4,10e-4 -7.8e-4,10e-4 -0.001,10e-4 -5.7e-4,7.9e-4 -10e-4,0.001 -10e-4,0.001 -5.7e-4,7.9e-4 -5.7e-4,7.9e-4 -10e-4,10e-4 -2.03736,0.94895 -4.1137,1.68223 -5.38598,2.09915 -7.8e-4,1.37155 -0.0531,3.63055 -0.33271,5.78362 -7.6e-4,1.8e-4 -7.9e-4,3.7e-4 -0.002,-3.7e-4 -7.9e-4,1.7e-4 -10e-4,-7.6e-4 -0.002,-10e-4 -7.8e-4,-1.9e-4 -0.001,-7.5e-4 -0.001,-0.001 -0.002,-2e-4 -7.9e-4,-3.8e-4 -0.002,-7.5e-4 -1.53247,-1.64362 -2.87176,-3.39112 -3.66162,-4.47184 -1.30522,0.42291 -3.4708,1.07162 -5.60577,1.47119 -3.8e-4,-5.7e-4 -5.7e-4,-7.5e-4 0,-10e-4 -5.7e-4,-7.9e-4 1.9e-4,-0.001 3.8e-4,-0.002 -1.9e-4,-0.002 1.8e-4,-0.002 3.6e-4,-0.002 -1.8e-4,-7.8e-4 -1.8e-4,-0.001 0,-0.001 1.0903,-1.9649 2.33873,-3.77826 3.12286,-4.86311 -0.80572,-1.1102 -2.09196,-2.96883 -3.13176,-4.87484 3.7e-4,-5.6e-4 7.8e-4,-5.6e-4 0.002,-3.8e-4 7.5e-4,-7.4e-4 0.001,-3.7e-4 0.002,-3.7e-4 7.8e-4,-5.6e-4 0.001,-3.7e-4 0.002,-3.7e-4 7.9e-4,-5.6e-4 7.9e-4,-7.4e-4 10e-4,-7.4e-4 2.20642,0.42932 4.31755,1.05608 5.59201,1.46633 0.80732,-1.10909 2.1777,-2.90577 3.66973,-4.48317 5.5e-4,1.9e-4 7.8e-4,5.6e-4 7.8e-4,0.001 7.8e-4,5.8e-4 7.8e-4,0.002 0.001,0.002 7.4e-4,7.4e-4 7.9e-4,0.001 10e-4,0.002 7.4e-4,7.4e-4 0.001,7.4e-4 0.001,0.001 0.27332,2.23016 0.3292,4.43064 0.33272,5.76904 1.30473,0.4248 3.4377,1.17273 5.39933,2.10361 z"
             style="color:#000000;display:inline;overflow:visible;visibility:visible;fill:#808080;fill-opacity:1;fill-rule:nonzero;stroke:none;stroke-width:2.99999976;marker:none;enable-background:accumulate" />
          <path
             style="color:#000000;font-style:normal;font-variant:normal;font-weight:normal;font-stretch:normal;line-height:normal;font-family:sans-serif;-inkscape-font-specification:sans-serif;text-indent:0;text-align:start;text-decoration:none;text-decoration-line:none;letter-spacing:normal;word-spacing:normal;text-transform:none;direction:ltr;block-progression:tb;writing-mode:lr-tb;baseline-shift:baseline;text-anchor:start;clip-rule:nonzero;display:inline;overflow:visible;visibility:visible;color-interpolation:sRGB;color-interpolation-filters:linearRGB;fill:#808080;fill-opacity:1;stroke:none;stroke-width:4;marker:none;color-rendering:auto;image-rendering:auto;shape-rendering:auto;text-rendering:auto;enable-background:accumulate"
             d="m 384.78609,374.57316 c 0,6.25052 -3.86023,11.56286 -9.36699,14.0957 l -0.26963,0.12305 -0.0215,0.29492 c -0.42297,5.79637 -5.44257,10.3789 -11.54363,10.3789 -6.37541,0 -11.61592,-4.98705 -11.61592,-11.15429 l 0,-13.73828 0,-12.80274 c 0,-4.64977 3.95354,-8.4082 8.73979,-8.4082 3.63016,0 6.67926,2.17762 7.99339,5.26562 l 0.12505,0.28907 0.31458,0.0137 c 8.66689,0.39191 15.64486,7.19864 15.64486,15.64258 z m -4.23996,0.43554 0,-0.49219 0,-0.01 0,-0.004 0,-0.0176 -0.004,0.004 c -0.0143,-6.19916 -5.05369,-11.23427 -11.25836,-11.23437 -0.217,1.5e-4 -0.4268,0.0177 -0.63697,0.0312 l -0.25791,0.002 c -1.01522,0.01 -1.84018,0.19861 -2.34859,0.29883 0.0503,-0.30669 0.1011,-0.44403 0.11138,-1.04102 l 0,-0.004 0,-0.004 c -9e-4,-2.76596 -2.25459,-5.01965 -5.02152,-5.01953 l 0,0.002 c -2.76693,-1.2e-4 -5.02256,2.25327 -5.02347,5.01953 l -0.008,25.31836 c -4.7e-4,4.12458 3.35354,7.47992 7.47952,7.48047 4.1267,4.4e-4 7.48195,-3.35537 7.48148,-7.48047 -8.6e-4,-0.78057 -0.20941,-1.53514 -0.4494,-2.27539 5.43844,-0.6589 9.67696,-5.09946 9.93553,-10.57422 l 0,0 z"
             id="path4184"
             inkscape:connector-curvature="0"
             sodipodi:nodetypes="ccccsscsscccccccccccccccccccccccccccc" />
        </g>
      </g>
    </g>
  </g>
</svg>
