<?xml version="1.0" encoding="UTF-8" standalone="no"?>
<!-- Created with Inkscape (http://www.inkscape.org/) -->

<svg
   xmlns:dc="http://purl.org/dc/elements/1.1/"
   xmlns:cc="http://creativecommons.org/ns#"
   xmlns:rdf="http://www.w3.org/1999/02/22-rdf-syntax-ns#"
   xmlns:svg="http://www.w3.org/2000/svg"
   xmlns="http://www.w3.org/2000/svg"
   xmlns:sodipodi="http://sodipodi.sourceforge.net/DTD/sodipodi-0.dtd"
   xmlns:inkscape="http://www.inkscape.org/namespaces/inkscape"
   width="96"
   height="96"
   id="svg4874"
   version="1.1"
   inkscape:version="0.91+devel r"
   viewBox="0 0 96 96.000001"
   sodipodi:docname="weather-overcast-symbolic.svg">
  <defs
     id="defs4876" />
  <sodipodi:namedview
     id="base"
     pagecolor="#ffffff"
     bordercolor="#666666"
     borderopacity="1.0"
     inkscape:pageopacity="0.0"
     inkscape:pageshadow="2"
     inkscape:zoom="5.6199993"
     inkscape:cx="20.613876"
     inkscape:cy="50.658347"
     inkscape:document-units="px"
     inkscape:current-layer="g4780"
     showgrid="false"
     showborder="true"
     fit-margin-top="0"
     fit-margin-left="0"
     fit-margin-right="0"
     fit-margin-bottom="0"
     inkscape:snap-bbox="true"
     inkscape:bbox-paths="true"
     inkscape:bbox-nodes="true"
     inkscape:snap-bbox-edge-midpoints="true"
     inkscape:snap-bbox-midpoints="true"
     inkscape:object-paths="true"
     inkscape:snap-intersection-paths="true"
     inkscape:object-nodes="true"
     inkscape:snap-smooth-nodes="true"
     inkscape:snap-midpoints="true"
     inkscape:snap-object-midpoints="true"
     inkscape:snap-center="true"
     showguides="true"
     inkscape:guide-bbox="true"
     inkscape:snap-global="true">
    <inkscape:grid
       type="xygrid"
       id="grid5451"
       empspacing="8" />
    <sodipodi:guide
       orientation="1,0"
       position="8,-8.0000001"
       id="guide4063" />
    <sodipodi:guide
       orientation="1,0"
       position="4,-8.0000001"
       id="guide4065" />
    <sodipodi:guide
       orientation="0,1"
       position="-8,88.000001"
       id="guide4067" />
    <sodipodi:guide
       orientation="0,1"
       position="-8,92.000001"
       id="guide4069" />
    <sodipodi:guide
       orientation="0,1"
       position="104,4"
       id="guide4071" />
    <sodipodi:guide
       orientation="0,1"
       position="-5,8.0000001"
       id="guide4073" />
    <sodipodi:guide
       orientation="1,0"
       position="88,-8.0000001"
       id="guide4077" />
    <sodipodi:guide
       orientation="0,1"
       position="-8,84.000001"
       id="guide4074" />
    <sodipodi:guide
       orientation="1,0"
       position="12,-8.0000001"
       id="guide4076" />
    <sodipodi:guide
       orientation="1,0"
       position="84,-8.0000001"
       id="guide4080" />
    <sodipodi:guide
       position="48,-8.0000001"
       orientation="1,0"
       id="guide4170" />
    <sodipodi:guide
       position="-8,48"
       orientation="0,1"
       id="guide4172" />
    <sodipodi:guide
       position="92,-8.0000001"
       orientation="1,0"
       id="guide4760" />
  </sodipodi:namedview>
  <metadata
     id="metadata4879">
    <rdf:RDF>
      <cc:Work
         rdf:about="">
        <dc:format>image/svg+xml</dc:format>
        <dc:type
           rdf:resource="http://purl.org/dc/dcmitype/StillImage" />
        <dc:title></dc:title>
      </cc:Work>
    </rdf:RDF>
  </metadata>
  <g
     inkscape:label="Layer 1"
     inkscape:groupmode="layer"
     id="layer1"
     transform="translate(67.857146,-78.50504)">
    <g
       transform="matrix(0,-1,-1,0,373.50506,516.50504)"
       id="g4845"
       style="display:inline">
      <g
         inkscape:export-ydpi="90"
         inkscape:export-xdpi="90"
         inkscape:export-filename="next01.png"
         transform="matrix(-0.9996045,0,0,1,575.94296,-611.00001)"
         id="g4778"
         inkscape:label="Layer 1">
        <g
           transform="matrix(-1,0,0,1,575.99999,611)"
           id="g4780"
           style="display:inline">
          <rect
             style="color:#000000;display:inline;overflow:visible;visibility:visible;fill:none;stroke:none;stroke-width:4;marker:none;enable-background:accumulate"
             id="rect4782"
             width="96.037987"
             height="96"
             x="-438.00244"
             y="345.36221"
             transform="scale(-1,1)" />
          <path
             style="color:#000000;display:inline;overflow:visible;visibility:visible;fill:#808080;fill-opacity:1;fill-rule:nonzero;stroke:none;stroke-width:12;marker:none;enable-background:accumulate"
             d="M 58.775391 10.285156 C 51.267831 10.294153 44.217021 13.899423 39.806641 19.984375 C 38.172881 19.522238 36.482826 19.285644 34.785156 19.279297 C 24.704426 19.290592 16.442264 27.292425 16.089844 37.382812 C 9.1976532 38.211067 4.0088 44.061243 4 51.013672 C 3.99979 58.606368 10.143819 64.761679 17.724609 64.761719 L 20.353516 64.761719 C 21.047775 63.271008 21.978106 61.922737 23.097656 60.763672 L 17.724609 60.763672 C 12.310299 60.763642 7.99985 56.449401 8 51.013672 C 8.00921 46.050416 11.656686 41.943522 16.566406 41.353516 L 19.96875 40.945312 L 20.087891 37.523438 C 20.366671 29.541694 26.817894 23.296544 34.777344 23.28125 C 36.109074 23.286958 37.435637 23.469635 38.716797 23.832031 L 41.40625 24.591797 L 43.046875 22.332031 C 46.707715 17.2812 52.545014 14.293199 58.771484 14.283203 C 69.399904 14.288871 78.002429 22.723342 78.230469 33.378906 L 78.285156 35.919922 L 80.607422 36.949219 C 85.105162 38.945489 87.998047 43.385483 87.998047 48.314453 C 87.998127 55.240333 82.480115 60.763822 75.578125 60.763672 L 74.714844 60.763672 C 74.964958 61.917423 75.136395 63.102476 75.191406 64.318359 C 75.487591 64.444354 75.774253 64.587881 76.056641 64.738281 C 84.902999 64.483673 92.000108 57.236363 92 48.314453 C 92 41.813655 88.166562 35.92872 82.232422 33.294922 C 81.958892 20.513787 71.539281 10.291964 58.775391 10.285156 z "
             transform="matrix(0,-1,-1.0003957,0,438.00245,441.36222)"
             id="path4187" />
          <path
             style="color:#000000;font-style:normal;font-variant:normal;font-weight:normal;font-stretch:normal;line-height:normal;font-family:sans-serif;-inkscape-font-specification:sans-serif;text-indent:0;text-align:start;text-decoration:none;text-decoration-line:none;letter-spacing:normal;word-spacing:normal;text-transform:none;direction:ltr;block-progression:tb;writing-mode:lr-tb;baseline-shift:baseline;text-anchor:start;clip-rule:nonzero;display:inline;overflow:visible;visibility:visible;color-interpolation:sRGB;color-interpolation-filters:linearRGB;fill:#808080;fill-opacity:1;stroke:none;stroke-width:3.99999976;marker:none;color-rendering:auto;image-rendering:auto;shape-rendering:auto;text-rendering:auto;enable-background:accumulate"
             d="M 55.664062 44.824219 C 47.854263 44.824219 41.221489 49.651048 38.068359 56.503906 C 30.733969 57.038915 24.953125 63.384252 24.953125 71.064453 C 24.953125 79.089098 31.246358 85.714844 39.048828 85.714844 L 55.664062 85.714844 L 71.154297 85.714844 C 77.121227 85.714844 81.927734 80.64538 81.927734 74.541016 C 81.927734 69.909548 79.143346 65.999484 75.191406 64.318359 C 74.703636 53.537485 66.210983 44.824219 55.664062 44.824219 z M 55.664062 48.822266 C 64.006792 48.822266 70.795879 55.712763 71.193359 64.498047 L 71.306641 67.013672 L 73.623047 67.996094 C 76.141307 69.06735 77.925781 71.511514 77.925781 74.541016 C 77.925781 78.547161 74.852294 81.714844 71.152344 81.714844 L 55.664062 81.714844 L 39.046875 81.714844 C 33.510215 81.714844 28.953125 76.998995 28.953125 71.064453 C 28.953125 65.390408 33.160852 60.871258 38.357422 60.492188 L 40.714844 60.320312 L 41.701172 58.173828 C 44.262142 52.60796 49.503252 48.822266 55.664062 48.822266 z "
             transform="matrix(0,-1,-1.0003957,0,438.00245,441.36222)"
             id="path4196" />
        </g>
      </g>
    </g>
  </g>
</svg>
