<?xml version="1.0" encoding="UTF-8" standalone="no"?>
<!-- Created with Inkscape (http://www.inkscape.org/) -->

<svg
   xmlns:dc="http://purl.org/dc/elements/1.1/"
   xmlns:cc="http://creativecommons.org/ns#"
   xmlns:rdf="http://www.w3.org/1999/02/22-rdf-syntax-ns#"
   xmlns:svg="http://www.w3.org/2000/svg"
   xmlns="http://www.w3.org/2000/svg"
   xmlns:sodipodi="http://sodipodi.sourceforge.net/DTD/sodipodi-0.dtd"
   xmlns:inkscape="http://www.inkscape.org/namespaces/inkscape"
   width="96"
   height="96"
   id="svg4874"
   version="1.1"
   inkscape:version="0.91+devel r"
   viewBox="0 0 96 96.000001"
   sodipodi:docname="weather-flurries-symbolic.svg">
  <defs
     id="defs4876" />
  <sodipodi:namedview
     id="base"
     pagecolor="#ffffff"
     bordercolor="#666666"
     borderopacity="1.0"
     inkscape:pageopacity="0.0"
     inkscape:pageshadow="2"
     inkscape:zoom="10.976561"
     inkscape:cx="22.142635"
     inkscape:cy="33.448534"
     inkscape:document-units="px"
     inkscape:current-layer="g4780"
     showgrid="false"
     showborder="true"
     fit-margin-top="0"
     fit-margin-left="0"
     fit-margin-right="0"
     fit-margin-bottom="0"
     inkscape:snap-bbox="true"
     inkscape:bbox-paths="true"
     inkscape:bbox-nodes="true"
     inkscape:snap-bbox-edge-midpoints="true"
     inkscape:snap-bbox-midpoints="true"
     inkscape:object-paths="true"
     inkscape:snap-intersection-paths="true"
     inkscape:object-nodes="true"
     inkscape:snap-smooth-nodes="true"
     inkscape:snap-midpoints="true"
     inkscape:snap-object-midpoints="true"
     inkscape:snap-center="true"
     showguides="true"
     inkscape:guide-bbox="true"
     inkscape:snap-global="true">
    <inkscape:grid
       type="xygrid"
       id="grid5451"
       empspacing="8" />
    <sodipodi:guide
       orientation="1,0"
       position="8,-8.0000001"
       id="guide4063" />
    <sodipodi:guide
       orientation="1,0"
       position="4,-8.0000001"
       id="guide4065" />
    <sodipodi:guide
       orientation="0,1"
       position="-8,88.000001"
       id="guide4067" />
    <sodipodi:guide
       orientation="0,1"
       position="-8,92.000001"
       id="guide4069" />
    <sodipodi:guide
       orientation="0,1"
       position="104,4"
       id="guide4071" />
    <sodipodi:guide
       orientation="0,1"
       position="-5,8.0000001"
       id="guide4073" />
    <sodipodi:guide
       orientation="1,0"
       position="88,-8.0000001"
       id="guide4077" />
    <sodipodi:guide
       orientation="0,1"
       position="-8,84.000001"
       id="guide4074" />
    <sodipodi:guide
       orientation="1,0"
       position="12,-8.0000001"
       id="guide4076" />
    <sodipodi:guide
       orientation="1,0"
       position="84,-8.0000001"
       id="guide4080" />
    <sodipodi:guide
       position="48,-8.0000001"
       orientation="1,0"
       id="guide4170" />
    <sodipodi:guide
       position="-8,48"
       orientation="0,1"
       id="guide4172" />
    <sodipodi:guide
       position="92,-8.0000001"
       orientation="1,0"
       id="guide4760" />
  </sodipodi:namedview>
  <metadata
     id="metadata4879">
    <rdf:RDF>
      <cc:Work
         rdf:about="">
        <dc:format>image/svg+xml</dc:format>
        <dc:type
           rdf:resource="http://purl.org/dc/dcmitype/StillImage" />
        <dc:title></dc:title>
      </cc:Work>
    </rdf:RDF>
  </metadata>
  <g
     inkscape:label="Layer 1"
     inkscape:groupmode="layer"
     id="layer1"
     transform="translate(67.857146,-78.50504)">
    <g
       transform="matrix(0,-1,-1,0,373.50506,516.50504)"
       id="g4845"
       style="display:inline">
      <g
         inkscape:export-ydpi="90"
         inkscape:export-xdpi="90"
         inkscape:export-filename="next01.png"
         transform="matrix(-0.9996045,0,0,1,575.94296,-611.00001)"
         id="g4778"
         inkscape:label="Layer 1">
        <g
           transform="matrix(-1,0,0,1,575.99999,611)"
           id="g4780"
           style="display:inline">
          <rect
             style="color:#000000;display:inline;overflow:visible;visibility:visible;fill:none;stroke:none;stroke-width:4;marker:none;enable-background:accumulate"
             id="rect4782"
             width="96.037987"
             height="96"
             x="-438.00244"
             y="345.36221"
             transform="scale(-1,1)" />
          <path
             style="color:#000000;display:inline;overflow:visible;visibility:visible;fill:#808080;fill-opacity:1;fill-rule:nonzero;stroke:none;stroke-width:12.0023737;marker:none;enable-background:accumulate"
             d="m 367.97249,391.36237 -0.80021,3.9995 -4.93727,0 2.66869,4.6205 -3.465,1.9998 -2.66869,-4.6205 -2.66868,4.6205 -3.46499,-1.9998 2.66867,-4.6205 -5.33737,0 0,-3.9995 5.33737,0 -2.66867,-4.6204 3.46499,-1.9998 2.66868,4.6205 2.66869,-4.6205 3.465,1.9998 -2.66869,4.6204 5.73748,0 z"
             id="rect4315"
             inkscape:connector-curvature="0"
             inkscape:transform-center-x="-4.9970432e-05"
             inkscape:transform-center-y="-8.9988672" />
          <path
             id="path4342"
             d="m 372.37111,409.42577 -0.55109,2.7543 -3.40018,0 1.83786,3.1822 -2.38626,1.3771 -1.83786,-3.182 -1.83786,3.182 -2.38626,-1.3771 1.83786,-3.1822 -3.67572,0 0,-2.7543 3.67572,0 -1.83786,-3.182 2.38626,-1.3772 1.83786,3.182 1.83786,-3.182 2.38626,1.3772 -1.83786,3.182 3.95127,0 z"
             style="color:#000000;display:inline;overflow:visible;visibility:visible;fill:#808080;fill-opacity:1;fill-rule:nonzero;stroke:none;stroke-width:12.0023737;marker:none;enable-background:accumulate"
             inkscape:connector-curvature="0"
             inkscape:transform-center-x="16.396404"
             inkscape:transform-center-y="-15.80467" />
          <path
             style="color:#000000;font-style:normal;font-variant:normal;font-weight:normal;font-stretch:normal;font-size:medium;line-height:normal;font-family:sans-serif;font-variant-ligatures:none;font-variant-position:normal;font-variant-caps:normal;font-variant-numeric:normal;font-variant-alternates:normal;font-feature-settings:normal;text-indent:0;text-align:start;text-decoration:none;text-decoration-line:none;text-decoration-style:solid;text-decoration-color:#000000;letter-spacing:normal;word-spacing:normal;text-transform:none;direction:ltr;block-progression:tb;writing-mode:lr-tb;baseline-shift:baseline;text-anchor:start;white-space:normal;shape-padding:0;clip-rule:nonzero;display:inline;overflow:visible;visibility:visible;opacity:1;isolation:auto;mix-blend-mode:normal;color-interpolation:sRGB;color-interpolation-filters:linearRGB;solid-color:#000000;solid-opacity:1;fill:#808080;fill-opacity:1;fill-rule:nonzero;stroke:none;stroke-width:4.00079107;stroke-linecap:butt;stroke-linejoin:miter;stroke-miterlimit:4;stroke-dasharray:none;stroke-dashoffset:0;stroke-opacity:1;marker:none;color-rendering:auto;image-rendering:auto;shape-rendering:auto;text-rendering:auto;enable-background:accumulate"
             d="m 415.60547,384.36133 c -3.97616,0 -6.7935,1.6624 -8.1582,3.98242 -1.36471,2.32002 -1.45704,4.90895 -1.45704,7.01758 l 0,24 4,0 0,-24 c 0,-1.90524 0.21419,-3.81372 0.90625,-4.99024 0.69207,-1.17651 1.68239,-2.00781 4.70899,-2.00781 1.87806,0 2.72133,0.70859 3.40625,1.73633 0.68492,1.02774 0.98437,2.49609 0.98437,3.26172 0,2.67583 -2.61914,3.4668 -2.61914,3.46679 l 1.29493,3.78516 c 0,0 5.32421,-1.92778 5.32421,-7.25195 0,-1.56143 -0.3944,-3.58997 -1.65429,-5.48047 -1.2599,-1.8905 -3.6124,-3.51953 -6.73633,-3.51953 z"
             id="path4194"
             inkscape:connector-curvature="0" />
          <path
             style="color:#000000;font-style:normal;font-variant:normal;font-weight:normal;font-stretch:normal;font-size:medium;line-height:normal;font-family:sans-serif;font-variant-ligatures:none;font-variant-position:normal;font-variant-caps:normal;font-variant-numeric:normal;font-variant-alternates:normal;font-feature-settings:normal;text-indent:0;text-align:start;text-decoration:none;text-decoration-line:none;text-decoration-style:solid;text-decoration-color:#000000;letter-spacing:normal;word-spacing:normal;text-transform:none;direction:ltr;block-progression:tb;writing-mode:lr-tb;baseline-shift:baseline;text-anchor:start;white-space:normal;shape-padding:0;clip-rule:nonzero;display:inline;overflow:visible;visibility:visible;opacity:1;isolation:auto;mix-blend-mode:normal;color-interpolation:sRGB;color-interpolation-filters:linearRGB;solid-color:#000000;solid-opacity:1;fill:#808080;fill-opacity:1;fill-rule:nonzero;stroke:none;stroke-width:4.00079107;stroke-linecap:butt;stroke-linejoin:miter;stroke-miterlimit:4;stroke-dasharray:none;stroke-dashoffset:0;stroke-opacity:1;marker:none;color-rendering:auto;image-rendering:auto;shape-rendering:auto;text-rendering:auto;enable-background:accumulate"
             d="m 403.60156,349.36133 c -3.97615,0 -6.7935,1.6624 -8.1582,3.98242 -1.36471,2.32002 -1.45703,4.90895 -1.45703,7.01758 l 0,24 0,42 c 0,2 -0.0842,4.03363 -0.58985,5.21289 -0.50559,1.17926 -0.96637,1.78711 -3.4121,1.78711 -2.44574,0 -2.90847,-0.60785 -3.41407,-1.78711 -0.5056,-1.17926 -0.58789,-3.21289 -0.58789,-5.21289 l 0,-27 0,-24 c 0,-2.10863 -0.0943,-4.69756 -1.45898,-7.01758 -1.36471,-2.32002 -4.18205,-3.98242 -8.15821,-3.98242 -3.12392,0 -5.47448,1.62903 -6.73437,3.51953 -1.25989,1.8905 -1.65625,3.91904 -1.65625,5.48047 0,5.32417 5.32617,7.25195 5.32617,7.25195 l 1.29297,-3.78516 c 0,0 -2.61719,-0.79096 -2.61719,-3.46679 0,-0.76563 0.29751,-2.23398 0.98242,-3.26172 0.68492,-1.02774 1.52819,-1.73633 3.40625,-1.73633 3.02661,0 4.01888,0.8313 4.71094,2.00781 0.69207,1.17652 0.9043,3.085 0.9043,4.99024 l 0,24 0,27 c 0,2 -0.0829,4.46832 0.91211,6.78906 0.99499,2.32074 3.53516,4.21289 7.0918,4.21289 3.55663,0 6.09484,-1.89215 7.08984,-4.21289 0.99499,-2.32074 0.91211,-4.78906 0.91211,-6.78906 l 0,-42 0,-24 c 0,-1.90524 0.21223,-3.81372 0.90429,-4.99024 0.69207,-1.17651 1.68434,-2.00781 4.71094,-2.00781 1.87806,0 2.72133,0.70859 3.40625,1.73633 0.68492,1.02774 0.98242,2.49609 0.98242,3.26172 0,2.67583 -2.61718,3.46679 -2.61718,3.46679 l 1.29297,3.78516 c 0,0 5.32617,-1.92778 5.32617,-7.25195 0,-1.56143 -0.39636,-3.58997 -1.65625,-5.48047 -1.2599,-1.8905 -3.61045,-3.51953 -6.73438,-3.51953 z"
             id="path4196"
             inkscape:connector-curvature="0" />
        </g>
      </g>
    </g>
  </g>
</svg>
