<?xml version="1.0" encoding="UTF-8" standalone="no"?>
<!-- Created with Inkscape (http://www.inkscape.org/) -->

<svg
   xmlns:dc="http://purl.org/dc/elements/1.1/"
   xmlns:cc="http://creativecommons.org/ns#"
   xmlns:rdf="http://www.w3.org/1999/02/22-rdf-syntax-ns#"
   xmlns:svg="http://www.w3.org/2000/svg"
   xmlns="http://www.w3.org/2000/svg"
   xmlns:sodipodi="http://sodipodi.sourceforge.net/DTD/sodipodi-0.dtd"
   xmlns:inkscape="http://www.inkscape.org/namespaces/inkscape"
   width="96"
   height="96"
   id="svg4874"
   version="1.1"
   inkscape:version="0.91+devel r"
   viewBox="0 0 96 96.000001"
   sodipodi:docname="weather-showers-symbolic.svg">
  <defs
     id="defs4876" />
  <sodipodi:namedview
     id="base"
     pagecolor="#ffffff"
     bordercolor="#666666"
     borderopacity="1.0"
     inkscape:pageopacity="0.0"
     inkscape:pageshadow="2"
     inkscape:zoom="4.4959994"
     inkscape:cx="-12.566735"
     inkscape:cy="76.890551"
     inkscape:document-units="px"
     inkscape:current-layer="g4780"
     showgrid="false"
     showborder="true"
     fit-margin-top="0"
     fit-margin-left="0"
     fit-margin-right="0"
     fit-margin-bottom="0"
     inkscape:snap-bbox="true"
     inkscape:bbox-paths="true"
     inkscape:bbox-nodes="true"
     inkscape:snap-bbox-edge-midpoints="true"
     inkscape:snap-bbox-midpoints="true"
     inkscape:object-paths="true"
     inkscape:snap-intersection-paths="true"
     inkscape:object-nodes="true"
     inkscape:snap-smooth-nodes="true"
     inkscape:snap-midpoints="true"
     inkscape:snap-object-midpoints="true"
     inkscape:snap-center="true"
     showguides="true"
     inkscape:guide-bbox="true"
     inkscape:snap-global="true">
    <inkscape:grid
       type="xygrid"
       id="grid5451"
       empspacing="8" />
    <sodipodi:guide
       orientation="1,0"
       position="8,-8.0000001"
       id="guide4063" />
    <sodipodi:guide
       orientation="1,0"
       position="4,-8.0000001"
       id="guide4065" />
    <sodipodi:guide
       orientation="0,1"
       position="-8,88.000001"
       id="guide4067" />
    <sodipodi:guide
       orientation="0,1"
       position="-8,92.000001"
       id="guide4069" />
    <sodipodi:guide
       orientation="0,1"
       position="104,4"
       id="guide4071" />
    <sodipodi:guide
       orientation="0,1"
       position="-5,8.0000001"
       id="guide4073" />
    <sodipodi:guide
       orientation="1,0"
       position="88,-8.0000001"
       id="guide4077" />
    <sodipodi:guide
       orientation="0,1"
       position="-8,84.000001"
       id="guide4074" />
    <sodipodi:guide
       orientation="1,0"
       position="12,-8.0000001"
       id="guide4076" />
    <sodipodi:guide
       orientation="1,0"
       position="84,-8.0000001"
       id="guide4080" />
    <sodipodi:guide
       position="48,-8.0000001"
       orientation="1,0"
       id="guide4170" />
    <sodipodi:guide
       position="-8,48"
       orientation="0,1"
       id="guide4172" />
    <sodipodi:guide
       position="92,-8.0000001"
       orientation="1,0"
       id="guide4760" />
  </sodipodi:namedview>
  <metadata
     id="metadata4879">
    <rdf:RDF>
      <cc:Work
         rdf:about="">
        <dc:format>image/svg+xml</dc:format>
        <dc:type
           rdf:resource="http://purl.org/dc/dcmitype/StillImage" />
        <dc:title></dc:title>
      </cc:Work>
    </rdf:RDF>
  </metadata>
  <g
     inkscape:label="Layer 1"
     inkscape:groupmode="layer"
     id="layer1"
     transform="translate(67.857146,-78.50504)">
    <g
       transform="matrix(0,-1,-1,0,373.50506,516.50504)"
       id="g4845"
       style="display:inline">
      <g
         inkscape:export-ydpi="90"
         inkscape:export-xdpi="90"
         inkscape:export-filename="next01.png"
         transform="matrix(-0.9996045,0,0,1,575.94296,-611.00001)"
         id="g4778"
         inkscape:label="Layer 1">
        <g
           transform="matrix(-1,0,0,1,575.99999,611)"
           id="g4780"
           style="display:inline">
          <rect
             style="color:#000000;display:inline;overflow:visible;visibility:visible;fill:none;stroke:none;stroke-width:4;marker:none;enable-background:accumulate"
             id="rect4782"
             width="96.037987"
             height="96"
             x="-438.00244"
             y="345.36221"
             transform="scale(-1,1)" />
          <path
             style="color:#000000;display:inline;overflow:visible;visibility:visible;fill:#808080;fill-opacity:1;fill-rule:nonzero;stroke:none;stroke-width:3;marker:none;enable-background:accumulate"
             d="m 345.96605,392.78972 c 0,3.9778 3.22457,7.2025 7.20239,7.2025 0.78983,0 1.54761,-0.1332 2.2587,-0.3681 0.0723,-0.024 0.14686,-0.043 0.21814,-0.069 0.60704,-0.1834 9.42924,-2.8722 17.34073,-6.7728 0,0 -5.6e-4,0 -0.002,0 -5.6e-4,0 -0.002,0 -0.004,0 -10e-4,0 -0.003,0 -0.004,0 -8.5e-4,0 -0.002,0 -0.002,0 -8.64071,-4.1676 -17.54714,-6.8168 -17.54714,-6.8168 l 0,0 c -0.71068,-0.2346 -1.46936,-0.3634 -2.25867,-0.3634 -3.97783,0 -7.2024,3.2246 -7.2024,7.2024 z"
             id="path4253"
             inkscape:connector-curvature="0"
             inkscape:transform-center-y="-47.999153" />
          <path
             inkscape:transform-center-x="-58.577355"
             inkscape:transform-center-y="-40.167092"
             inkscape:connector-curvature="0"
             id="path4248-8"
             d="m 352.72103,375.47512 c 0,3.3287 2.69837,6.0272 6.02706,6.0272 0.66094,0 1.29507,-0.1115 1.89012,-0.3081 0.0605,-0.02 0.12289,-0.036 0.18253,-0.058 0.50799,-0.1535 7.89054,-2.4036 14.51099,-5.6676 0,0 -5.7e-4,0 -10e-4,0 -5.7e-4,0 -0.002,0 -0.004,0 -10e-4,0 -0.002,0 -0.003,0 -8.4e-4,0 -0.001,0 -0.001,0 -7.23068,-3.4874 -14.68371,-5.7044 -14.68371,-5.7044 l 0,0 c -0.5947,-0.1963 -1.22958,-0.3041 -1.89009,-0.3041 -3.3287,0 -6.02707,2.6984 -6.02707,6.0271 z"
             style="color:#000000;display:inline;overflow:visible;visibility:visible;fill:#808080;fill-opacity:1;fill-rule:nonzero;stroke:none;stroke-width:3;marker:none;enable-background:accumulate" />
          <path
             inkscape:transform-center-x="52.523195"
             inkscape:transform-center-y="-36.015557"
             inkscape:connector-curvature="0"
             id="path4250-0"
             d="m 353.84687,410.10902 c 0,2.9846 2.41949,5.4042 5.40417,5.4042 0.59263,0 1.16122,-0.1 1.69478,-0.2762 0.0542,-0.018 0.11019,-0.032 0.16367,-0.052 0.45549,-0.1376 7.07506,-2.1551 13.0113,-5.0818 0,0 -5.6e-4,0 -10e-4,0 -5.6e-4,0 -0.002,0 -0.003,0 -8.5e-4,0 -0.002,0 -0.003,0 -5.7e-4,0 -10e-4,0 -10e-4,0 -6.48341,-3.127 -13.16618,-5.1148 -13.16618,-5.1148 l 0,0 c -0.53325,-0.1761 -1.1025,-0.2727 -1.69476,-0.2727 -2.98468,0 -5.40418,2.4196 -5.40418,5.4043 z"
             style="color:#000000;display:inline;overflow:visible;visibility:visible;fill:#808080;fill-opacity:1;fill-rule:nonzero;stroke:none;stroke-width:3;marker:none;enable-background:accumulate" />
          <path
             style="color:#000000;font-style:normal;font-variant:normal;font-weight:normal;font-stretch:normal;line-height:normal;font-family:sans-serif;-inkscape-font-specification:sans-serif;text-indent:0;text-align:start;text-decoration:none;text-decoration-line:none;letter-spacing:normal;word-spacing:normal;text-transform:none;direction:ltr;block-progression:tb;writing-mode:lr-tb;baseline-shift:baseline;text-anchor:start;clip-rule:nonzero;display:inline;overflow:visible;visibility:visible;color-interpolation:sRGB;color-interpolation-filters:linearRGB;fill:#808080;fill-opacity:1;stroke:none;stroke-width:4;marker:none;color-rendering:auto;image-rendering:auto;shape-rendering:auto;text-rendering:auto;enable-background:accumulate"
             d="m 51.046875,6.2285156 c -10.2287,0 -18.920473,6.3045104 -23.070313,15.3105464 l -0.277343,0.603516 -0.66211,0.04883 C 17.596749,22.879034 10.125,31.04039 10.125,40.974609 c 0,10.381453 8.126595,18.904297 18.171875,18.904297 l 22.75,0 21.205078,0 c 7.53212,0 13.621094,-6.396318 13.621094,-14.15039 0,-5.880084 -3.52978,-10.812395 -8.537109,-12.939454 l -0.652344,-0.277343 -0.03125,-0.707031 C 76.009894,17.628506 64.866505,6.2285156 51.046875,6.2285156 Z m -2.636719,3.9316404 2.714844,0 0.002,0 c 11.71084,4e-5 21.227703,9.518419 21.226563,21.228516 l 0,0.002 0,0.002 c -0.005,1.437861 -0.311319,2.843663 -0.605469,4.248047 5.55037,0.01369 10.070272,4.535148 10.070312,10.087891 l -0.002,0 c -4e-5,5.561129 -4.53189,10.09371 -10.09375,10.09375 l -42.773437,-0.02148 c -8.13181,2.8e-4 -14.748317,-6.616964 -14.748047,-14.748047 -2.7e-4,-8.131083 6.616237,-14.746373 14.748047,-14.746093 l 0.002,0 0.0059,0 c 0.53755,0.003 1.068253,0.09102 1.601563,0.152343 2.07759,-8.66921 9.098292,-15.254511 17.851562,-16.298828 z"
             id="path4233"
             transform="matrix(0,-1,-1.0003957,0,438.00245,441.36222)"
             inkscape:connector-curvature="0"
             sodipodi:nodetypes="scccsscsscccsccsccccccccccccccc" />
        </g>
      </g>
    </g>
  </g>
</svg>
