<?xml version="1.0" encoding="UTF-8" standalone="no"?>
<!-- Created with Inkscape (http://www.inkscape.org/) -->

<svg
   xmlns:dc="http://purl.org/dc/elements/1.1/"
   xmlns:cc="http://creativecommons.org/ns#"
   xmlns:rdf="http://www.w3.org/1999/02/22-rdf-syntax-ns#"
   xmlns:svg="http://www.w3.org/2000/svg"
   xmlns="http://www.w3.org/2000/svg"
   xmlns:sodipodi="http://sodipodi.sourceforge.net/DTD/sodipodi-0.dtd"
   xmlns:inkscape="http://www.inkscape.org/namespaces/inkscape"
   width="96"
   height="96"
   id="svg4874"
   version="1.1"
   inkscape:version="0.91+devel r"
   viewBox="0 0 96 96.000001"
   sodipodi:docname="weather-showers-scattered-symbolic.svg">
  <defs
     id="defs4876" />
  <sodipodi:namedview
     id="base"
     pagecolor="#ffffff"
     bordercolor="#666666"
     borderopacity="1.0"
     inkscape:pageopacity="0.0"
     inkscape:pageshadow="2"
     inkscape:zoom="5.6199993"
     inkscape:cx="-0.29359984"
     inkscape:cy="21.877204"
     inkscape:document-units="px"
     inkscape:current-layer="g4780"
     showgrid="false"
     showborder="true"
     fit-margin-top="0"
     fit-margin-left="0"
     fit-margin-right="0"
     fit-margin-bottom="0"
     inkscape:snap-bbox="true"
     inkscape:bbox-paths="true"
     inkscape:bbox-nodes="true"
     inkscape:snap-bbox-edge-midpoints="true"
     inkscape:snap-bbox-midpoints="true"
     inkscape:object-paths="true"
     inkscape:snap-intersection-paths="true"
     inkscape:object-nodes="true"
     inkscape:snap-smooth-nodes="true"
     inkscape:snap-midpoints="true"
     inkscape:snap-object-midpoints="true"
     inkscape:snap-center="true"
     showguides="true"
     inkscape:guide-bbox="true"
     inkscape:snap-global="true">
    <inkscape:grid
       type="xygrid"
       id="grid5451"
       empspacing="8" />
    <sodipodi:guide
       orientation="1,0"
       position="8,-8.0000001"
       id="guide4063" />
    <sodipodi:guide
       orientation="1,0"
       position="4,-8.0000001"
       id="guide4065" />
    <sodipodi:guide
       orientation="0,1"
       position="-8,88.000001"
       id="guide4067" />
    <sodipodi:guide
       orientation="0,1"
       position="-8,92.000001"
       id="guide4069" />
    <sodipodi:guide
       orientation="0,1"
       position="104,4"
       id="guide4071" />
    <sodipodi:guide
       orientation="0,1"
       position="-5,8.0000001"
       id="guide4073" />
    <sodipodi:guide
       orientation="1,0"
       position="88,-8.0000001"
       id="guide4077" />
    <sodipodi:guide
       orientation="0,1"
       position="-8,84.000001"
       id="guide4074" />
    <sodipodi:guide
       orientation="1,0"
       position="12,-8.0000001"
       id="guide4076" />
    <sodipodi:guide
       orientation="1,0"
       position="84,-8.0000001"
       id="guide4080" />
    <sodipodi:guide
       position="48,-8.0000001"
       orientation="1,0"
       id="guide4170" />
    <sodipodi:guide
       position="-8,48"
       orientation="0,1"
       id="guide4172" />
    <sodipodi:guide
       position="92,-8.0000001"
       orientation="1,0"
       id="guide4760" />
  </sodipodi:namedview>
  <metadata
     id="metadata4879">
    <rdf:RDF>
      <cc:Work
         rdf:about="">
        <dc:format>image/svg+xml</dc:format>
        <dc:type
           rdf:resource="http://purl.org/dc/dcmitype/StillImage" />
        <dc:title></dc:title>
      </cc:Work>
    </rdf:RDF>
  </metadata>
  <g
     inkscape:label="Layer 1"
     inkscape:groupmode="layer"
     id="layer1"
     transform="translate(67.857146,-78.50504)">
    <g
       transform="matrix(0,-1,-1,0,373.50506,516.50504)"
       id="g4845"
       style="display:inline">
      <g
         inkscape:export-ydpi="90"
         inkscape:export-xdpi="90"
         inkscape:export-filename="next01.png"
         transform="matrix(-0.9996045,0,0,1,575.94296,-611.00001)"
         id="g4778"
         inkscape:label="Layer 1">
        <g
           transform="matrix(-1,0,0,1,575.99999,611)"
           id="g4780"
           style="display:inline">
          <rect
             style="color:#000000;display:inline;overflow:visible;visibility:visible;fill:none;stroke:none;stroke-width:4;marker:none;enable-background:accumulate"
             id="rect4782"
             width="96.037987"
             height="96"
             x="-438.00244"
             y="345.36221"
             transform="scale(-1,1)" />
          <path
             style="color:#000000;font-style:normal;font-variant:normal;font-weight:normal;font-stretch:normal;line-height:normal;font-family:sans-serif;-inkscape-font-specification:sans-serif;text-indent:0;text-align:start;text-decoration:none;text-decoration-line:none;letter-spacing:normal;word-spacing:normal;text-transform:none;direction:ltr;block-progression:tb;writing-mode:lr-tb;baseline-shift:baseline;text-anchor:start;clip-rule:nonzero;display:inline;overflow:visible;visibility:visible;color-interpolation:sRGB;color-interpolation-filters:linearRGB;fill:#808080;fill-opacity:1;stroke:none;stroke-width:4;marker:none;color-rendering:auto;image-rendering:auto;shape-rendering:auto;text-rendering:auto;enable-background:accumulate"
             d="m 51.046875,6.2285156 c -10.2287,0 -18.920473,6.3045104 -23.070313,15.3105464 l -0.277343,0.603516 -0.66211,0.04883 C 17.596749,22.879034 10.125,31.04039 10.125,40.974609 c 0,10.381453 8.126595,18.904297 18.171875,18.904297 l 22.75,0 21.205078,0 c 7.53212,0 13.621094,-6.396318 13.621094,-14.15039 0,-5.880084 -3.52978,-10.812395 -8.537109,-12.939454 l -0.652344,-0.277343 -0.03125,-0.707031 C 76.009894,17.628506 64.866505,6.2285156 51.046875,6.2285156 Z m -2.636719,3.9316404 2.714844,0 0.002,0 c 11.71084,4e-5 21.227703,9.518419 21.226563,21.228516 l 0,0.002 0,0.002 c -0.005,1.437861 -0.311319,2.843663 -0.605469,4.248047 5.55037,0.01369 10.070272,4.535148 10.070312,10.087891 l -0.002,0 c -4e-5,5.561129 -4.53189,10.09371 -10.09375,10.09375 l -42.773437,-0.02148 c -8.13181,2.8e-4 -14.748317,-6.616964 -14.748047,-14.748047 -2.7e-4,-8.131083 6.616237,-14.746373 14.748047,-14.746093 l 0.002,0 0.0059,0 c 0.53755,0.003 1.068253,0.09102 1.601563,0.152343 2.07759,-8.66921 9.098292,-15.254511 17.851562,-16.298828 z"
             id="path4233"
             transform="matrix(0,-1,-1.0003957,0,438.00245,441.36222)"
             inkscape:connector-curvature="0"
             sodipodi:nodetypes="scccsscsscccsccsccccccccccccccc" />
          <path
             style="color:#000000;display:inline;overflow:visible;visibility:visible;fill:#808080;fill-opacity:1;fill-rule:nonzero;stroke:none;stroke-width:3.00059342;marker:none;enable-background:accumulate"
             d="m 358.15042,377.57127 c 0,2.4333 1.97251,4.4058 4.40578,4.4058 0.48315,0 0.94669,-0.081 1.38168,-0.2252 0.0442,-0.014 0.0898,-0.026 0.13342,-0.042 0.37134,-0.1122 5.76796,-1.757 10.6075,-4.143 0,0 -5.6e-4,0 -0.001,0 -5.6e-4,0 -10e-4,0 -0.003,0 -8.4e-4,0 -0.002,0 -0.003,0 -5.6e-4,0 -0.001,0 -0.001,0 -5.28561,-2.5494 -10.73376,-4.17 -10.73376,-4.17 l 0,0 c -0.43473,-0.1434 -0.89881,-0.2222 -1.38165,-0.2222 -2.43327,0 -4.40578,1.9726 -4.40578,4.4058 z"
             id="path4274"
             inkscape:connector-curvature="0"
             inkscape:transform-center-y="-6.3297277"
             inkscape:transform-center-x="0.0040142635" />
          <path
             inkscape:transform-center-x="0.0040296009"
             inkscape:transform-center-y="-7.9703526"
             inkscape:connector-curvature="0"
             id="path4248"
             d="m 349.96852,393.36267 c 0,3.064 2.48377,5.5478 5.54772,5.5478 0.60837,0 1.19206,-0.1031 1.73979,-0.2835 0.0557,-0.018 0.1131,-0.033 0.16802,-0.053 0.46758,-0.1412 7.26297,-2.2123 13.35688,-5.2168 0,0 -5.7e-4,0 -0.001,0 -5.7e-4,0 -0.002,0 -0.004,0 -0.001,0 -0.002,0 -0.003,0 -5.7e-4,0 -10e-4,0 -10e-4,0 -6.6556,-3.21 -13.51586,-5.2506 -13.51586,-5.2506 l 0,0 c -0.54741,-0.1807 -1.13179,-0.2799 -1.73978,-0.2799 -3.06394,0 -5.5477,2.4839 -5.5477,5.5479 z"
             style="color:#000000;display:inline;overflow:visible;visibility:visible;fill:#808080;fill-opacity:1;fill-rule:nonzero;stroke:none;stroke-width:3.00059342;marker:none;enable-background:accumulate" />
          <path
             style="color:#000000;display:inline;overflow:visible;visibility:visible;fill:#808080;fill-opacity:1;fill-rule:nonzero;stroke:none;stroke-width:3.00059342;marker:none;enable-background:accumulate"
             d="m 357.86829,409.15597 c 0,2.1197 1.71831,3.8381 3.83801,3.8381 0.42088,0 0.82468,-0.071 1.20362,-0.1962 0.0385,-0.013 0.0782,-0.022 0.11623,-0.036 0.32349,-0.098 5.02465,-1.5305 9.24052,-3.6091 0,0 -5.6e-4,0 -8.4e-4,0 -5.7e-4,0 -10e-4,0 -0.002,0 -8.5e-4,0 -10e-4,0 -0.003,0 -5.6e-4,0 -8.4e-4,0 -8.4e-4,0 -4.60446,-2.2208 -9.35051,-3.6326 -9.35051,-3.6326 l 0,0 c -0.3787,-0.1253 -0.78299,-0.1936 -1.2036,-0.1936 -2.1197,0 -3.83801,1.7183 -3.83801,3.8381 z"
             id="path4250"
             inkscape:connector-curvature="0"
             inkscape:transform-center-y="-5.5140646"
             inkscape:transform-center-x="0.0039698761" />
        </g>
      </g>
    </g>
  </g>
</svg>
