<?xml version="1.0" encoding="UTF-8" standalone="no"?>
<!-- Created with Inkscape (http://www.inkscape.org/) -->

<svg
   xmlns:dc="http://purl.org/dc/elements/1.1/"
   xmlns:cc="http://creativecommons.org/ns#"
   xmlns:rdf="http://www.w3.org/1999/02/22-rdf-syntax-ns#"
   xmlns:svg="http://www.w3.org/2000/svg"
   xmlns="http://www.w3.org/2000/svg"
   xmlns:sodipodi="http://sodipodi.sourceforge.net/DTD/sodipodi-0.dtd"
   xmlns:inkscape="http://www.inkscape.org/namespaces/inkscape"
   width="96"
   height="96"
   id="svg4874"
   version="1.1"
   inkscape:version="0.92pre1 unknown"
   viewBox="0 0 96 96.000001"
   sodipodi:docname="address-book-app-symbolic.svg">
  <defs
     id="defs4876" />
  <sodipodi:namedview
     id="base"
     pagecolor="#ffffff"
     bordercolor="#666666"
     borderopacity="1.0"
     inkscape:pageopacity="0.0"
     inkscape:pageshadow="2"
     inkscape:zoom="8.7812489"
     inkscape:cx="9.2697478"
     inkscape:cy="71.10035"
     inkscape:document-units="px"
     inkscape:current-layer="layer1"
     showgrid="true"
     showborder="true"
     fit-margin-top="0"
     fit-margin-left="0"
     fit-margin-right="0"
     fit-margin-bottom="0"
     inkscape:snap-bbox="true"
     inkscape:bbox-paths="true"
     inkscape:bbox-nodes="true"
     inkscape:snap-bbox-edge-midpoints="true"
     inkscape:snap-bbox-midpoints="true"
     inkscape:object-paths="true"
     inkscape:snap-intersection-paths="true"
     inkscape:object-nodes="true"
     inkscape:snap-smooth-nodes="true"
     inkscape:snap-midpoints="true"
     inkscape:snap-object-midpoints="true"
     inkscape:snap-center="true"
     showguides="true"
     inkscape:guide-bbox="true"
     inkscape:snap-global="true">
    <inkscape:grid
       type="xygrid"
       id="grid5451"
       empspacing="8" />
    <sodipodi:guide
       orientation="1,0"
       position="8,-8.0000001"
       id="guide4063"
       inkscape:locked="false" />
    <sodipodi:guide
       orientation="1,0"
       position="4,-8.0000001"
       id="guide4065"
       inkscape:locked="false" />
    <sodipodi:guide
       orientation="0,1"
       position="-8,88.000001"
       id="guide4067"
       inkscape:locked="false" />
    <sodipodi:guide
       orientation="0,1"
       position="-8,92.000001"
       id="guide4069"
       inkscape:locked="false" />
    <sodipodi:guide
       orientation="0,1"
       position="104,4"
       id="guide4071"
       inkscape:locked="false" />
    <sodipodi:guide
       orientation="0,1"
       position="-5,8.0000001"
       id="guide4073"
       inkscape:locked="false" />
    <sodipodi:guide
       orientation="1,0"
       position="88,-8.0000001"
       id="guide4077"
       inkscape:locked="false" />
    <sodipodi:guide
       orientation="0,1"
       position="-8,84.000001"
       id="guide4074"
       inkscape:locked="false" />
    <sodipodi:guide
       orientation="1,0"
       position="12,-8.0000001"
       id="guide4076"
       inkscape:locked="false" />
    <sodipodi:guide
       orientation="1,0"
       position="84,-8.0000001"
       id="guide4080"
       inkscape:locked="false" />
    <sodipodi:guide
       position="48,-8.0000001"
       orientation="1,0"
       id="guide4170"
       inkscape:locked="false" />
    <sodipodi:guide
       position="-8,48"
       orientation="0,1"
       id="guide4172"
       inkscape:locked="false" />
    <sodipodi:guide
       position="92,-8.0000001"
       orientation="1,0"
       id="guide4760"
       inkscape:locked="false" />
    <sodipodi:guide
       position="118,12"
       orientation="0,1"
       id="guide4177"
       inkscape:locked="false" />
  </sodipodi:namedview>
  <metadata
     id="metadata4879">
    <rdf:RDF>
      <cc:Work
         rdf:about="">
        <dc:format>image/svg+xml</dc:format>
        <dc:type
           rdf:resource="http://purl.org/dc/dcmitype/StillImage" />
        <dc:title />
      </cc:Work>
    </rdf:RDF>
  </metadata>
  <g
     inkscape:label="Layer 1"
     inkscape:groupmode="layer"
     id="layer1"
     transform="translate(67.857146,-78.50504)">
    <rect
       transform="rotate(90)"
       y="-28.142857"
       x="78.505051"
       height="96"
       width="96"
       id="rect4782"
       style="color:#000000;display:inline;overflow:visible;visibility:visible;fill:none;stroke:none;stroke-width:4;marker:none;enable-background:accumulate" />
    <path
       style="color:#000000;font-style:normal;font-variant:normal;font-weight:normal;font-stretch:normal;font-size:medium;line-height:normal;font-family:sans-serif;font-variant-ligatures:normal;font-variant-position:normal;font-variant-caps:normal;font-variant-numeric:normal;font-variant-alternates:normal;font-feature-settings:normal;text-indent:0;text-align:start;text-decoration:none;text-decoration-line:none;text-decoration-style:solid;text-decoration-color:#000000;letter-spacing:normal;word-spacing:normal;text-transform:none;writing-mode:lr-tb;direction:ltr;text-orientation:mixed;baseline-shift:baseline;text-anchor:start;white-space:normal;shape-padding:0;clip-rule:nonzero;display:inline;overflow:visible;visibility:visible;opacity:1;isolation:auto;mix-blend-mode:normal;color-interpolation:sRGB;color-interpolation-filters:linearRGB;solid-color:#000000;solid-opacity:1;fill:#808080;fill-opacity:1;fill-rule:nonzero;stroke:none;stroke-width:4.00000048;stroke-linecap:butt;stroke-linejoin:miter;stroke-miterlimit:4;stroke-dasharray:none;stroke-dashoffset:0;stroke-opacity:1;marker:none;color-rendering:auto;image-rendering:auto;shape-rendering:auto;text-rendering:auto;enable-background:accumulate"
       d="M 23.976562 8 C 18.943787 8.05818 15.262944 7.8797246 12.251953 9.5410156 C 10.746458 10.371661 9.5551474 11.776594 8.8964844 13.53125 C 8.2378224 15.285907 8 17.369563 8 20 L 8 76 C 8 78.63043 8.2378224 80.712137 8.8964844 82.466797 C 9.5551474 84.221447 10.746458 85.626391 12.251953 86.457031 C 15.262944 88.118321 18.94379 87.94182 23.976562 88 L 23.988281 88 L 72.011719 88 L 72.023438 88 C 77.056213 87.9418 80.737057 88.118321 83.748047 86.457031 C 85.253542 85.626391 86.444854 84.221447 87.103516 82.466797 C 87.762178 80.712137 88 78.63043 88 76 L 88 66 L 84 66 L 84 76 C 84 78.36956 83.749629 80.02288 83.359375 81.0625 C 82.969122 82.10212 82.550044 82.550298 81.816406 82.955078 C 81.051638 83.37703 79.75548 83.624277 78 83.775391 L 78 62 L 79 62 L 84 62 L 88 62 L 88 40 L 84 40 L 84 58 L 78 58 L 78 36 L 79 36 L 84 36 L 88 36 L 88 32 L 88 20 C 88 17.369563 87.762178 15.285907 87.103516 13.53125 C 86.444851 11.776594 85.253542 10.371661 83.748047 9.5410156 C 80.737057 7.8797246 77.056213 8.058184 72.023438 8 L 72.011719 8 L 23.988281 8 L 23.976562 8 z M 24 12 L 72 12 C 77.038253 12.05877 80.351872 12.236877 81.816406 13.044922 C 82.550044 13.449701 82.969122 13.897876 83.359375 14.9375 C 83.749629 15.977125 84 17.630434 84 20 L 84 32 L 74 32 L 74 58 L 74 62 L 74 83.957031 C 73.343174 83.972094 72.729521 83.991492 72 84 L 24.023438 84 L 24 84 C 23.270479 83.991486 22.656826 83.972097 22 83.957031 L 22 12.042969 C 22.656826 12.027905 23.270479 12.008509 24 12 z "
       transform="translate(-67.857146,78.50504)"
       id="path4179" />
    <path
       style="color:#000000;font-style:normal;font-variant:normal;font-weight:normal;font-stretch:normal;font-size:medium;line-height:125%;font-family:Ubuntu;-inkscape-font-specification:'Ubuntu, Normal';font-variant-ligatures:normal;font-variant-position:normal;font-variant-caps:normal;font-variant-numeric:normal;font-variant-alternates:normal;font-feature-settings:normal;text-indent:0;text-align:start;text-decoration:none;text-decoration-line:none;text-decoration-style:solid;text-decoration-color:#000000;letter-spacing:0px;word-spacing:0px;text-transform:none;writing-mode:lr-tb;direction:ltr;text-orientation:mixed;dominant-baseline:auto;baseline-shift:baseline;text-anchor:start;white-space:normal;shape-padding:0;clip-rule:nonzero;display:inline;overflow:visible;visibility:visible;opacity:1;isolation:auto;mix-blend-mode:normal;color-interpolation:sRGB;color-interpolation-filters:linearRGB;solid-color:#000000;solid-opacity:1;fill:#808080;fill-opacity:1;fill-rule:nonzero;stroke:none;stroke-width:4;stroke-linecap:butt;stroke-linejoin:miter;stroke-miterlimit:4;stroke-dasharray:none;stroke-dashoffset:0;stroke-opacity:1;color-rendering:auto;image-rendering:auto;shape-rendering:auto;text-rendering:auto;enable-background:accumulate"
       d="m -19.820312,105.17773 c -1.585563,0 -3.11006,0.30155 -4.511719,0.90625 -1.389917,0.57546 -2.632718,1.42551 -3.658203,2.51758 l -0.0098,0.01 -0.0098,0.0117 c -1.001562,1.09991 -1.769559,2.41902 -2.304687,3.89453 -2.16e-4,5.8e-4 2.16e-4,0.001 0,0.002 -0.548568,1.48822 -0.810547,3.10744 -0.810547,4.82227 0,1.73707 0.260038,3.36856 0.810547,4.86132 0.536846,1.45576 1.306449,2.75919 2.304687,3.85547 l 0.0098,0.0117 0.0098,0.0117 c 1.02304,1.08947 2.254403,1.95105 3.636718,2.55078 l 0.01758,0.008 0.01758,0.006 c 1.39987,0.577 2.917245,0.85938 4.498047,0.85938 1.580833,0 3.10013,-0.28238 4.5,-0.85938 l 0.01758,-0.006 0.01563,-0.008 c 1.382043,-0.59961 2.605861,-1.46811 3.607421,-2.56445 1.025896,-1.09573 1.816341,-2.40327 2.3554692,-3.86524 0.5505,-1.49275 0.8105469,-3.12425 0.8105469,-4.86132 0,-1.71268 -0.2614365,-3.32973 -0.8085937,-4.81641 -0.5377786,-1.48587 -1.3272524,-2.81024 -2.3593754,-3.91211 -1.003792,-1.09829 -2.236106,-1.95421 -3.625,-2.5293 -1.402139,-0.60522 -2.927418,-0.90625 -4.513671,-0.90625 z m 0,4 c 1.101946,0 2.060328,0.1978 2.941406,0.58008 l 0.01758,0.006 0.01758,0.008 c 0.887096,0.36564 1.601469,0.86701 2.21875,1.54493 l 0.01172,0.0117 0.0098,0.0117 c 0.64062,0.68219 1.145575,1.50907 1.521485,2.54883 l 0.002,0.006 0.002,0.006 c 0.366291,0.99325 0.564453,2.12895 0.564453,3.44141 0,1.34053 -0.19966,2.48737 -0.564453,3.47656 -0.374257,1.01488 -0.878435,1.83645 -1.525391,2.52539 l -0.0098,0.0117 -0.01172,0.0117 c -0.619693,0.68057 -1.346828,1.19585 -2.240234,1.58593 -0.883134,0.361 -1.848884,0.55274 -2.955078,0.55274 -1.106851,0 -2.071468,-0.19129 -2.955079,-0.55274 -0.893326,-0.38995 -1.636816,-0.91237 -2.285156,-1.5996 -0.624247,-0.68852 -1.125534,-1.51443 -1.501953,-2.53516 -0.364798,-0.98919 -0.5625,-2.13604 -0.5625,-3.47656 0,-1.31245 0.196204,-2.44816 0.5625,-3.44141 l 0.002,-0.006 0.002,-0.006 c 0.377942,-1.04536 0.879887,-1.87672 1.498047,-2.55859 0.645817,-0.6844 1.379123,-1.1932 2.265625,-1.5586 l 0.01758,-0.008 0.01563,-0.006 c 0.881102,-0.38228 1.839506,-0.58008 2.941407,-0.58008 z"
       id="path4202"
       inkscape:connector-curvature="0" />
    <path
       style="color:#000000;font-style:normal;font-variant:normal;font-weight:normal;font-stretch:normal;font-size:medium;line-height:125%;font-family:Ubuntu;-inkscape-font-specification:'Ubuntu, Normal';font-variant-ligatures:normal;font-variant-position:normal;font-variant-caps:normal;font-variant-numeric:normal;font-variant-alternates:normal;font-feature-settings:normal;text-indent:0;text-align:start;text-decoration:none;text-decoration-line:none;text-decoration-style:solid;text-decoration-color:#000000;letter-spacing:0px;word-spacing:0px;text-transform:none;writing-mode:lr-tb;direction:ltr;text-orientation:mixed;dominant-baseline:auto;baseline-shift:baseline;text-anchor:start;white-space:normal;shape-padding:0;clip-rule:nonzero;display:inline;overflow:visible;visibility:visible;opacity:1;isolation:auto;mix-blend-mode:normal;color-interpolation:sRGB;color-interpolation-filters:linearRGB;solid-color:#000000;solid-opacity:1;fill:#808080;fill-opacity:1;fill-rule:nonzero;stroke:none;stroke-width:3.99999976;stroke-linecap:butt;stroke-linejoin:miter;stroke-miterlimit:4;stroke-dasharray:none;stroke-dashoffset:0;stroke-opacity:1;color-rendering:auto;image-rendering:auto;shape-rendering:auto;text-rendering:auto;enable-background:accumulate"
       d="m -19.8125,133.48242 c -7.689401,0 -12.527985,0.60316 -15.816406,2.94922 -1.644211,1.17303 -2.765074,2.82663 -3.375,4.69531 -0.609927,1.86869 -0.785378,3.94342 -0.791016,6.31836 l 4,0.01 c 0.0051,-2.16735 0.193247,-3.85888 0.59375,-5.08594 0.400503,-1.22705 0.938466,-1.99816 1.896484,-2.68164 1.916038,-1.36696 6.057008,-2.20508 13.492188,-2.20508 7.435182,0 11.5767211,0.83893 13.4902344,2.20508 0.9567566,0.68308 1.4939193,1.45319 1.8925781,2.67969 0.3986588,1.2265 0.5823694,2.91876 0.5839844,5.08593 l 3.99999998,-0.004 c -0.00177,-2.37511 -0.17367462,-4.44912 -0.78125,-6.31836 -0.60757538,-1.86924 -1.72751518,-3.52579 -3.37109378,-4.69922 -3.2871572,-2.34687 -8.1250491,-2.94922 -15.8144531,-2.94922 z"
       id="path4228"
       inkscape:connector-curvature="0" />
  </g>
</svg>
