<?xml version="1.0" encoding="UTF-8" standalone="no"?>
<!-- Created with Inkscape (http://www.inkscape.org/) -->

<svg
   xmlns:dc="http://purl.org/dc/elements/1.1/"
   xmlns:cc="http://creativecommons.org/ns#"
   xmlns:rdf="http://www.w3.org/1999/02/22-rdf-syntax-ns#"
   xmlns:svg="http://www.w3.org/2000/svg"
   xmlns="http://www.w3.org/2000/svg"
   xmlns:sodipodi="http://sodipodi.sourceforge.net/DTD/sodipodi-0.dtd"
   xmlns:inkscape="http://www.inkscape.org/namespaces/inkscape"
   width="96"
   height="96"
   id="svg4874"
   version="1.1"
   inkscape:version="0.91+devel r"
   viewBox="0 0 96 96.000001"
   sodipodi:docname="amazon-symbolic.svg">
  <defs
     id="defs4876" />
  <sodipodi:namedview
     id="base"
     pagecolor="#ffffff"
     bordercolor="#666666"
     borderopacity="1.0"
     inkscape:pageopacity="0.0"
     inkscape:pageshadow="2"
     inkscape:zoom="5.6199993"
     inkscape:cx="21.788253"
     inkscape:cy="55.204611"
     inkscape:document-units="px"
     inkscape:current-layer="g4780"
     showgrid="true"
     showborder="true"
     fit-margin-top="0"
     fit-margin-left="0"
     fit-margin-right="0"
     fit-margin-bottom="0"
     inkscape:snap-bbox="true"
     inkscape:bbox-paths="true"
     inkscape:bbox-nodes="true"
     inkscape:snap-bbox-edge-midpoints="true"
     inkscape:snap-bbox-midpoints="true"
     inkscape:object-paths="true"
     inkscape:snap-intersection-paths="true"
     inkscape:object-nodes="true"
     inkscape:snap-smooth-nodes="true"
     inkscape:snap-midpoints="true"
     inkscape:snap-object-midpoints="true"
     inkscape:snap-center="true"
     showguides="true"
     inkscape:guide-bbox="true"
     inkscape:snap-global="true">
    <inkscape:grid
       type="xygrid"
       id="grid5451"
       empspacing="8" />
    <sodipodi:guide
       orientation="1,0"
       position="8,-8.0000001"
       id="guide4063" />
    <sodipodi:guide
       orientation="1,0"
       position="4,-8.0000001"
       id="guide4065" />
    <sodipodi:guide
       orientation="0,1"
       position="-8,88.000001"
       id="guide4067" />
    <sodipodi:guide
       orientation="0,1"
       position="-8,92.000001"
       id="guide4069" />
    <sodipodi:guide
       orientation="0,1"
       position="104,4"
       id="guide4071" />
    <sodipodi:guide
       orientation="0,1"
       position="-5,8.0000001"
       id="guide4073" />
    <sodipodi:guide
       orientation="1,0"
       position="88,-8.0000001"
       id="guide4077" />
    <sodipodi:guide
       orientation="0,1"
       position="-8,84.000001"
       id="guide4074" />
    <sodipodi:guide
       orientation="1,0"
       position="12,-8.0000001"
       id="guide4076" />
    <sodipodi:guide
       orientation="1,0"
       position="84,-8.0000001"
       id="guide4080" />
    <sodipodi:guide
       position="48,-8.0000001"
       orientation="1,0"
       id="guide4170" />
    <sodipodi:guide
       position="-8,48"
       orientation="0,1"
       id="guide4172" />
    <sodipodi:guide
       position="92,-8.0000001"
       orientation="1,0"
       id="guide4760" />
  </sodipodi:namedview>
  <metadata
     id="metadata4879">
    <rdf:RDF>
      <cc:Work
         rdf:about="">
        <dc:format>image/svg+xml</dc:format>
        <dc:type
           rdf:resource="http://purl.org/dc/dcmitype/StillImage" />
        <dc:title></dc:title>
      </cc:Work>
    </rdf:RDF>
  </metadata>
  <g
     inkscape:label="Layer 1"
     inkscape:groupmode="layer"
     id="layer1"
     transform="translate(67.857146,-78.50504)">
    <g
       transform="matrix(0,-1,-1,0,373.50506,516.50504)"
       id="g4845"
       style="display:inline">
      <g
         inkscape:export-ydpi="90"
         inkscape:export-xdpi="90"
         inkscape:export-filename="next01.png"
         transform="matrix(-0.9996045,0,0,1,575.94296,-611.00001)"
         id="g4778"
         inkscape:label="Layer 1">
        <g
           transform="matrix(-1,0,0,1,575.99999,611)"
           id="g4780"
           style="display:inline">
          <rect
             style="color:#000000;display:inline;overflow:visible;visibility:visible;fill:none;stroke:none;stroke-width:4;marker:none;enable-background:accumulate"
             id="rect4782"
             width="96.037987"
             height="96"
             x="-438.00244"
             y="345.36221"
             transform="scale(-1,1)" />
          <path
             style="fill:#808080;fill-opacity:1;fill-rule:evenodd;stroke:none;stroke-width:1.00019777"
             d="m 426.99809,393.22427 c 0,9.84856 -3.67327,20.84806 -15.85755,23.16451 -1.29708,0.23309 -1.98188,-0.69914 -2.17134,-1.54413 l -1.07912,-10.05241 c 0.0444,-0.9324 0.96238,-1.61738 1.89512,-1.79222 4.19744,-0.85956 6.22343,-4.38504 6.22343,-8.33319 0,-2.12706 -0.78687,-4.54557 -2.69644,-5.81307 -2.12774,-1.44233 -5.04267,-1.25318 -7.50594,-1.25318 l -1.341,0 c -0.685,6.00237 -1.12208,13.85544 -3.59972,19.47902 -2.79819,6.48313 -8.52628,11.04267 -16.93614,11.04267 -10.77046,0 -16.14835,-6.78883 -16.14835,-15.50101 0,-7.37185 1.73447,-11.3929 7.53529,-17.07476 -2.72547,-1.89394 -4.05209,-2.50602 -6.90886,-5.94427 -0.40784,-0.77213 -0.36384,-1.76236 0.24835,-2.4471 l -0.0299,-0.0291 c 1.83643,-2.06879 5.11611,-5.82767 6.87972,-7.94015 0.69947,-0.845 1.82166,-0.69925 2.7545,-0.0291 2.62339,1.89395 4.75103,3.90448 9.60445,3.90448 l 16.14888,0 c 6.83571,0 13.11699,-0.48093 17.82476,4.55989 3.81842,3.9773 5.1594,10.5623 5.1594,15.60311 z m -30.84042,-5.62369 -2.24418,0 c -4.03722,0 -7.40399,-0.10192 -10.98935,1.93769 -2.91492,1.64629 -4.70776,4.25405 -4.70776,7.16782 0,3.9773 3.03176,6.29393 7.50615,6.29393 8.83228,0 10.43514,-7.91105 10.43514,-15.39944 z m -23.17828,-32.69373 c 0.0392,3.22128 -0.61724,7.1796 -2.69644,10.13228 -0.59741,0.85955 -1.42776,0.71357 -1.31123,-0.24069 0.37179,-3.13229 1.20979,-10.11061 -0.37892,-11.34896 -1.59574,-1.24563 -8.16193,1.38435 -11.09132,2.55714 -0.88914,0.35694 -1.24625,-0.40799 -0.57592,-1.20927 4.36511,-5.22291 13.51059,-6.56344 14.82957,-5.49992 0.61518,0.49852 1.19007,2.76709 1.22426,5.60942 z m -1.75007,82.04379 c 0.0423,0.76204 -0.82395,1.16196 -1.49285,0.42213 -10.4719,-11.58946 -16.76765,-26.90841 -16.76765,-43.92473 0,-12.13578 3.82544,-26.23083 10.99607,-35.95549 1.19523,-1.60985 2.9736,-0.23333 2.27392,1.41293 -4.62718,10.89744 -6.8572,22.74906 -6.8572,33.52266 0,15.97466 4.37925,31.43967 11.65928,43.94695 0.11963,0.20488 0.17851,0.39969 0.18843,0.57555 z"
             id="path8"
             inkscape:connector-curvature="0" />
        </g>
      </g>
    </g>
  </g>
</svg>
