<?xml version="1.0" encoding="UTF-8" standalone="no"?>
<!-- Created with Inkscape (http://www.inkscape.org/) -->

<svg
   xmlns:dc="http://purl.org/dc/elements/1.1/"
   xmlns:cc="http://creativecommons.org/ns#"
   xmlns:rdf="http://www.w3.org/1999/02/22-rdf-syntax-ns#"
   xmlns:svg="http://www.w3.org/2000/svg"
   xmlns="http://www.w3.org/2000/svg"
   xmlns:sodipodi="http://sodipodi.sourceforge.net/DTD/sodipodi-0.dtd"
   xmlns:inkscape="http://www.inkscape.org/namespaces/inkscape"
   width="96"
   height="96"
   id="svg4874"
   version="1.1"
   inkscape:version="0.91+devel r"
   viewBox="0 0 96 96.000001"
   sodipodi:docname="calendar-app-symbolic.svg">
  <defs
     id="defs4876" />
  <sodipodi:namedview
     id="base"
     pagecolor="#ffffff"
     bordercolor="#666666"
     borderopacity="1.0"
     inkscape:pageopacity="0.0"
     inkscape:pageshadow="2"
     inkscape:zoom="8.7812489"
     inkscape:cx="49.366719"
     inkscape:cy="42.710312"
     inkscape:document-units="px"
     inkscape:current-layer="layer1"
     showgrid="true"
     showborder="true"
     fit-margin-top="0"
     fit-margin-left="0"
     fit-margin-right="0"
     fit-margin-bottom="0"
     inkscape:snap-bbox="true"
     inkscape:bbox-paths="true"
     inkscape:bbox-nodes="true"
     inkscape:snap-bbox-edge-midpoints="true"
     inkscape:snap-bbox-midpoints="true"
     inkscape:object-paths="true"
     inkscape:snap-intersection-paths="true"
     inkscape:object-nodes="true"
     inkscape:snap-smooth-nodes="true"
     inkscape:snap-midpoints="true"
     inkscape:snap-object-midpoints="true"
     inkscape:snap-center="true"
     showguides="true"
     inkscape:guide-bbox="true"
     inkscape:snap-global="true">
    <inkscape:grid
       type="xygrid"
       id="grid5451"
       empspacing="8" />
    <sodipodi:guide
       orientation="1,0"
       position="8,-8.0000001"
       id="guide4063" />
    <sodipodi:guide
       orientation="1,0"
       position="4,-8.0000001"
       id="guide4065" />
    <sodipodi:guide
       orientation="0,1"
       position="-8,88.000001"
       id="guide4067" />
    <sodipodi:guide
       orientation="0,1"
       position="-8,92.000001"
       id="guide4069" />
    <sodipodi:guide
       orientation="0,1"
       position="104,4"
       id="guide4071" />
    <sodipodi:guide
       orientation="0,1"
       position="-5,8.0000001"
       id="guide4073" />
    <sodipodi:guide
       orientation="1,0"
       position="88,-8.0000001"
       id="guide4077" />
    <sodipodi:guide
       orientation="0,1"
       position="-8,84.000001"
       id="guide4074" />
    <sodipodi:guide
       orientation="1,0"
       position="12,-8.0000001"
       id="guide4076" />
    <sodipodi:guide
       orientation="1,0"
       position="84,-8.0000001"
       id="guide4080" />
    <sodipodi:guide
       position="48,-8.0000001"
       orientation="1,0"
       id="guide4170" />
    <sodipodi:guide
       position="-8,48"
       orientation="0,1"
       id="guide4172" />
    <sodipodi:guide
       position="92,-8.0000001"
       orientation="1,0"
       id="guide4760" />
  </sodipodi:namedview>
  <metadata
     id="metadata4879">
    <rdf:RDF>
      <cc:Work
         rdf:about="">
        <dc:format>image/svg+xml</dc:format>
        <dc:type
           rdf:resource="http://purl.org/dc/dcmitype/StillImage" />
        <dc:title></dc:title>
      </cc:Work>
    </rdf:RDF>
  </metadata>
  <g
     inkscape:label="Layer 1"
     inkscape:groupmode="layer"
     id="layer1"
     transform="translate(67.857146,-78.50504)">
    <rect
       transform="rotate(90)"
       y="-28.142857"
       x="78.505051"
       height="96"
       width="96"
       id="rect4782"
       style="color:#000000;display:inline;overflow:visible;visibility:visible;fill:none;stroke:none;stroke-width:4;marker:none;enable-background:accumulate" />
    <path
       style="color:#000000;font-style:normal;font-variant:normal;font-weight:normal;font-stretch:normal;font-size:medium;line-height:normal;font-family:sans-serif;text-indent:0;text-align:start;text-decoration:none;text-decoration-line:none;text-decoration-style:solid;text-decoration-color:#000000;letter-spacing:normal;word-spacing:normal;text-transform:none;direction:ltr;block-progression:tb;writing-mode:lr-tb;baseline-shift:baseline;text-anchor:start;white-space:normal;shape-padding:0;clip-rule:nonzero;display:inline;overflow:visible;visibility:visible;opacity:1;isolation:auto;mix-blend-mode:normal;color-interpolation:sRGB;color-interpolation-filters:linearRGB;solid-color:#000000;solid-opacity:1;fill:#808080;fill-opacity:1;fill-rule:nonzero;stroke:none;stroke-width:4.00000048;stroke-linecap:butt;stroke-linejoin:miter;stroke-miterlimit:4;stroke-dasharray:none;stroke-dashoffset:0;stroke-opacity:1;marker:none;color-rendering:auto;image-rendering:auto;shape-rendering:auto;text-rendering:auto;enable-background:accumulate"
       d="M 19.976562,12 C 14.943787,12.05818 11.262944,11.879725 8.2519531,13.541016 6.7464581,14.371661 5.5551474,15.776594 4.8964844,17.53125 4.2378224,19.285907 4,21.369562 4,24 L 4,36 8,36 8,24 C 8,21.63043 8.2523251,19.977125 8.6425781,18.9375 9.0328321,17.897876 9.4499567,17.449701 10.183594,17.044922 11.648128,16.236877 14.961747,16.058766 20,16 l 56,0 c 5.038253,0.05877 8.351872,0.236877 9.816406,1.044922 0.733638,0.404779 1.152716,0.852954 1.542969,1.892578 C 87.749629,19.977125 88,21.63043 88,24 l 0,12 4,0 0,-12 C 92,21.369562 91.762178,19.285907 91.103516,17.53125 90.444851,15.776594 89.253542,14.371661 87.748047,13.541016 84.737057,11.879725 81.056213,12.058184 76.023438,12 l -0.01172,0 -56.023438,0 z M 4,60 4,76 c 0,2.63043 0.2378224,4.712137 0.8964844,6.466797 0.658663,1.75465 1.8499737,3.159594 3.3554687,3.990234 C 11.262944,88.118321 14.943787,87.94182 19.976562,88 l 0.01172,0 56.023438,0 0.01172,0 c 5.032775,-0.0582 8.713619,0.118321 11.724609,-1.542969 1.505495,-0.83064 2.696807,-2.235584 3.355469,-3.990234 C 91.762178,80.712137 92,78.63043 92,76 l 0,-16 -4,0 0,16 c 0,2.36956 -0.250371,4.02288 -0.640625,5.0625 -0.390253,1.03962 -0.809331,1.487798 -1.542969,1.892578 C 84.351872,83.763118 81.038253,83.94124 76,84 L 20.023438,84 20,84 C 14.961747,83.9412 11.648128,83.763118 10.183594,82.955078 9.4499567,82.550298 9.0328321,82.10212 8.6425781,81.0625 8.2523251,80.02288 8,78.36956 8,76 L 8,60 Z"
       transform="translate(-67.857146,78.50504)"
       id="path4179"
       inkscape:connector-curvature="0"
       sodipodi:nodetypes="csssccsssccsssccssscccccsssccccsssccssscccssscc" />
    <path
       style="font-style:normal;font-variant:normal;font-weight:normal;font-stretch:normal;font-size:medium;line-height:125%;font-family:Ubuntu;-inkscape-font-specification:Ubuntu;text-align:end;letter-spacing:0px;word-spacing:0px;writing-mode:lr-tb;text-anchor:end;fill:#808080;fill-opacity:1;stroke:none;stroke-width:1px;stroke-linecap:butt;stroke-linejoin:miter;stroke-opacity:1"
       d="M 30.958984 27.447266 C 29.596325 27.447266 28.327698 27.616365 27.154297 27.957031 C 25.980896 28.297691 24.9209 28.714958 23.974609 29.207031 C 23.028317 29.699105 22.214532 30.229102 21.533203 30.796875 C 20.851873 31.326802 20.340665 31.77969 20 32.158203 L 22.611328 35.90625 C 22.87629 35.679137 23.255976 35.357773 23.748047 34.941406 C 24.240118 34.487186 24.845271 34.069926 25.564453 33.691406 C 26.283634 33.275046 27.097419 32.916095 28.005859 32.613281 C 28.914298 32.310461 29.917928 32.158203 31.015625 32.158203 C 31.924066 32.158203 32.775428 32.291674 33.570312 32.556641 C 34.403049 32.783747 35.120936 33.161486 35.726562 33.691406 C 36.332189 34.22134 36.80582 34.884814 37.146484 35.679688 C 37.525001 36.474574 37.714844 37.438665 37.714844 38.574219 C 37.714844 39.634059 37.506212 40.637684 37.089844 41.583984 C 36.711328 42.530271 36.181331 43.458748 35.5 44.367188 C 34.856522 45.237781 34.099103 46.126723 33.228516 47.035156 C 32.395779 47.90575 31.506838 48.794692 30.560547 49.703125 C 29.424998 50.838678 28.271058 52.01141 27.097656 53.222656 C 25.924255 54.43391 24.86426 55.721324 23.917969 57.083984 C 22.971678 58.446651 22.19547 59.905111 21.589844 61.457031 C 21.022069 62.971091 20.738281 64.617458 20.738281 66.396484 L 20.738281 67.019531 C 20.738281 67.246631 20.757069 67.474052 20.794922 67.701172 L 44.640625 67.701172 L 44.640625 63.216797 L 26.529297 63.216797 C 26.529297 62.573317 26.775507 61.815899 27.267578 60.945312 C 27.797501 60.074726 28.440232 59.167003 29.197266 58.220703 C 29.954298 57.274416 30.749295 56.364727 31.582031 55.494141 L 33.853516 53.222656 C 34.989064 52.08711 36.124216 50.933166 37.259766 49.759766 C 38.395315 48.548519 39.417733 47.338213 40.326172 46.126953 C 41.234612 44.877853 41.954452 43.628013 42.484375 42.378906 C 43.05215 41.091953 43.335938 39.766957 43.335938 38.404297 C 43.335938 34.921944 42.294731 32.234384 40.212891 30.341797 C 38.168901 28.411364 35.084814 27.447266 30.958984 27.447266 z M 63.111328 27.447266 C 61.294449 27.447266 59.648089 27.749842 58.171875 28.355469 C 56.69566 28.923242 55.427034 29.69944 54.367188 30.683594 C 53.345193 31.667727 52.550197 32.821671 51.982422 34.146484 C 51.414647 35.433438 51.130859 36.796008 51.130859 38.234375 C 51.130859 42.360202 52.985851 45.483829 56.695312 47.603516 C 55.824724 48.133449 54.99215 48.757389 54.197266 49.476562 C 53.440232 50.157896 52.759923 50.934101 52.154297 51.804688 C 51.586522 52.675281 51.112891 53.620591 50.734375 54.642578 C 50.39371 55.626725 50.222656 56.667925 50.222656 57.765625 C 50.222656 58.901172 50.431288 60.113437 50.847656 61.400391 C 51.264025 62.649497 51.965076 63.803428 52.949219 64.863281 C 53.933361 65.923121 55.237613 66.812063 56.865234 67.53125 C 58.530707 68.212577 60.59433 68.552734 63.054688 68.552734 C 65.17438 68.552734 67.04816 68.268945 68.675781 67.701172 C 70.303402 67.171252 71.647185 66.415794 72.707031 65.431641 C 73.804729 64.409647 74.618514 63.234963 75.148438 61.910156 C 75.716212 60.547496 76 59.072189 76 57.482422 C 75.924297 52.902375 73.653995 49.551334 69.1875 47.431641 C 69.944533 46.939567 70.66242 46.372002 71.34375 45.728516 C 72.062931 45.085042 72.688827 44.346405 73.21875 43.513672 C 73.786525 42.680932 74.220624 41.79199 74.523438 40.845703 C 74.864102 39.861556 75.035156 38.820356 75.035156 37.722656 C 75.035156 36.587116 74.807735 35.414385 74.353516 34.203125 C 73.937147 32.991872 73.236096 31.894296 72.251953 30.910156 C 71.305662 29.888163 70.076566 29.055589 68.5625 28.412109 C 67.048434 27.768629 65.231021 27.447266 63.111328 27.447266 z M 63.111328 31.818359 C 64.322581 31.818359 65.344998 32.026986 66.177734 32.443359 C 67.010471 32.821866 67.69078 33.314295 68.220703 33.919922 C 68.750626 34.487702 69.130312 35.111642 69.357422 35.792969 C 69.622383 36.474302 69.753906 37.098242 69.753906 37.666016 C 69.753906 39.710009 69.282229 41.375156 68.335938 42.662109 C 67.389646 43.911216 66.121019 45.008791 64.53125 45.955078 C 63.092887 45.614418 61.843049 45.16153 60.783203 44.59375 C 59.761208 44.025977 58.928635 43.381289 58.285156 42.662109 C 57.641679 41.942929 57.168048 41.168678 56.865234 40.335938 C 56.56242 39.503204 56.412109 38.668678 56.412109 37.835938 C 56.412109 37.154611 56.524842 36.474302 56.751953 35.792969 C 57.016914 35.073789 57.415389 34.431055 57.945312 33.863281 C 58.475235 33.257655 59.155545 32.765239 59.988281 32.386719 C 60.858869 32.008205 61.900075 31.818359 63.111328 31.818359 z M 60.896484 49.306641 C 62.410551 49.647307 63.754333 50.062621 64.927734 50.554688 C 66.138987 51.008914 67.161404 51.576486 67.994141 52.257812 C 68.864728 52.939146 69.528202 53.734145 69.982422 54.642578 C 70.436642 55.551018 70.662109 56.611012 70.662109 57.822266 C 70.662109 58.617152 70.511798 59.393357 70.208984 60.150391 C 69.906171 60.907424 69.45133 61.589679 68.845703 62.195312 C 68.240077 62.763079 67.44508 63.234761 66.460938 63.613281 C 65.514646 63.991795 64.398284 64.181641 63.111328 64.181641 C 61.672965 64.181641 60.481447 63.973014 59.535156 63.556641 C 58.588865 63.140274 57.812658 62.629064 57.207031 62.023438 C 56.601405 61.379964 56.165353 60.699655 55.900391 59.980469 C 55.673281 59.223435 55.560547 58.503592 55.560547 57.822266 C 55.560547 55.891832 56.013436 54.226679 56.921875 52.826172 C 57.868166 51.425652 59.19316 50.252927 60.896484 49.306641 z "
       transform="translate(-67.857146,78.50504)"
       id="path4225" />
    <path
       style="color:#000000;font-style:normal;font-variant:normal;font-weight:normal;font-stretch:normal;font-size:medium;line-height:normal;font-family:sans-serif;text-indent:0;text-align:start;text-decoration:none;text-decoration-line:none;text-decoration-style:solid;text-decoration-color:#000000;letter-spacing:normal;word-spacing:normal;text-transform:none;direction:ltr;block-progression:tb;writing-mode:lr-tb;baseline-shift:baseline;text-anchor:start;white-space:normal;clip-rule:nonzero;display:inline;overflow:visible;visibility:visible;opacity:1;isolation:auto;mix-blend-mode:normal;color-interpolation:sRGB;color-interpolation-filters:linearRGB;solid-color:#000000;solid-opacity:1;fill:#808080;fill-opacity:1;fill-rule:nonzero;stroke:none;stroke-width:3.99999976;stroke-linecap:butt;stroke-linejoin:miter;stroke-miterlimit:4;stroke-dasharray:none;stroke-dashoffset:0;stroke-opacity:1;marker:none;color-rendering:auto;image-rendering:auto;shape-rendering:auto;text-rendering:auto;enable-background:accumulate"
       d="m -63.857147,118.50504 0,16 8,0 0,-16 -8,0 z"
       id="path4171"
       inkscape:connector-curvature="0" />
    <path
       inkscape:connector-curvature="0"
       id="path4180"
       d="m 16.142853,118.50504 0,16 8,0 0,-16 -8,0 z"
       style="color:#000000;font-style:normal;font-variant:normal;font-weight:normal;font-stretch:normal;font-size:medium;line-height:normal;font-family:sans-serif;text-indent:0;text-align:start;text-decoration:none;text-decoration-line:none;text-decoration-style:solid;text-decoration-color:#000000;letter-spacing:normal;word-spacing:normal;text-transform:none;direction:ltr;block-progression:tb;writing-mode:lr-tb;baseline-shift:baseline;text-anchor:start;white-space:normal;clip-rule:nonzero;display:inline;overflow:visible;visibility:visible;opacity:1;isolation:auto;mix-blend-mode:normal;color-interpolation:sRGB;color-interpolation-filters:linearRGB;solid-color:#000000;solid-opacity:1;fill:#808080;fill-opacity:1;fill-rule:nonzero;stroke:none;stroke-width:3.99999976;stroke-linecap:butt;stroke-linejoin:miter;stroke-miterlimit:4;stroke-dasharray:none;stroke-dashoffset:0;stroke-opacity:1;marker:none;color-rendering:auto;image-rendering:auto;shape-rendering:auto;text-rendering:auto;enable-background:accumulate" />
  </g>
</svg>
