<?xml version="1.0" encoding="UTF-8" standalone="no"?>
<!-- Created with Inkscape (http://www.inkscape.org/) -->

<svg
   xmlns:dc="http://purl.org/dc/elements/1.1/"
   xmlns:cc="http://creativecommons.org/ns#"
   xmlns:rdf="http://www.w3.org/1999/02/22-rdf-syntax-ns#"
   xmlns:svg="http://www.w3.org/2000/svg"
   xmlns="http://www.w3.org/2000/svg"
   xmlns:sodipodi="http://sodipodi.sourceforge.net/DTD/sodipodi-0.dtd"
   xmlns:inkscape="http://www.inkscape.org/namespaces/inkscape"
   width="96"
   height="96"
   id="svg4874"
   version="1.1"
   inkscape:version="0.91+devel r"
   viewBox="0 0 96 96.000001"
   sodipodi:docname="ebay-symbolic.svg">
  <defs
     id="defs4876" />
  <sodipodi:namedview
     id="base"
     pagecolor="#ffffff"
     bordercolor="#666666"
     borderopacity="1.0"
     inkscape:pageopacity="0.0"
     inkscape:pageshadow="2"
     inkscape:zoom="5.6199993"
     inkscape:cx="21.788253"
     inkscape:cy="55.204611"
     inkscape:document-units="px"
     inkscape:current-layer="g4780"
     showgrid="true"
     showborder="true"
     fit-margin-top="0"
     fit-margin-left="0"
     fit-margin-right="0"
     fit-margin-bottom="0"
     inkscape:snap-bbox="true"
     inkscape:bbox-paths="true"
     inkscape:bbox-nodes="true"
     inkscape:snap-bbox-edge-midpoints="true"
     inkscape:snap-bbox-midpoints="true"
     inkscape:object-paths="true"
     inkscape:snap-intersection-paths="true"
     inkscape:object-nodes="true"
     inkscape:snap-smooth-nodes="true"
     inkscape:snap-midpoints="true"
     inkscape:snap-object-midpoints="true"
     inkscape:snap-center="true"
     showguides="true"
     inkscape:guide-bbox="true"
     inkscape:snap-global="true">
    <inkscape:grid
       type="xygrid"
       id="grid5451"
       empspacing="8" />
    <sodipodi:guide
       orientation="1,0"
       position="8,-8.0000001"
       id="guide4063" />
    <sodipodi:guide
       orientation="1,0"
       position="4,-8.0000001"
       id="guide4065" />
    <sodipodi:guide
       orientation="0,1"
       position="-8,88.000001"
       id="guide4067" />
    <sodipodi:guide
       orientation="0,1"
       position="-8,92.000001"
       id="guide4069" />
    <sodipodi:guide
       orientation="0,1"
       position="104,4"
       id="guide4071" />
    <sodipodi:guide
       orientation="0,1"
       position="-5,8.0000001"
       id="guide4073" />
    <sodipodi:guide
       orientation="1,0"
       position="88,-8.0000001"
       id="guide4077" />
    <sodipodi:guide
       orientation="0,1"
       position="-8,84.000001"
       id="guide4074" />
    <sodipodi:guide
       orientation="1,0"
       position="12,-8.0000001"
       id="guide4076" />
    <sodipodi:guide
       orientation="1,0"
       position="84,-8.0000001"
       id="guide4080" />
    <sodipodi:guide
       position="48,-8.0000001"
       orientation="1,0"
       id="guide4170" />
    <sodipodi:guide
       position="-8,48"
       orientation="0,1"
       id="guide4172" />
    <sodipodi:guide
       position="92,-8.0000001"
       orientation="1,0"
       id="guide4760" />
  </sodipodi:namedview>
  <metadata
     id="metadata4879">
    <rdf:RDF>
      <cc:Work
         rdf:about="">
        <dc:format>image/svg+xml</dc:format>
        <dc:type
           rdf:resource="http://purl.org/dc/dcmitype/StillImage" />
        <dc:title></dc:title>
      </cc:Work>
    </rdf:RDF>
  </metadata>
  <g
     inkscape:label="Layer 1"
     inkscape:groupmode="layer"
     id="layer1"
     transform="translate(67.857146,-78.50504)">
    <g
       transform="matrix(0,-1,-1,0,373.50506,516.50504)"
       id="g4845"
       style="display:inline">
      <g
         inkscape:export-ydpi="90"
         inkscape:export-xdpi="90"
         inkscape:export-filename="next01.png"
         transform="matrix(-0.9996045,0,0,1,575.94296,-611.00001)"
         id="g4778"
         inkscape:label="Layer 1">
        <g
           transform="matrix(-1,0,0,1,575.99999,611)"
           id="g4780"
           style="display:inline">
          <rect
             style="color:#000000;display:inline;overflow:visible;visibility:visible;fill:none;stroke:none;stroke-width:4;marker:none;enable-background:accumulate"
             id="rect4782"
             width="96.037987"
             height="96"
             x="-438.00244"
             y="345.36221"
             transform="scale(-1,1)" />
          <path
             inkscape:connector-curvature="0"
             style="font-style:normal;font-variant:normal;font-weight:normal;font-stretch:normal;font-size:15px;line-height:125%;font-family:Ubuntu;-inkscape-font-specification:Ubuntu;text-align:center;letter-spacing:0px;word-spacing:0px;writing-mode:lr-tb;text-anchor:middle;display:inline;fill:#808080;fill-opacity:1;stroke:none;stroke-width:1.00019777"
             d="m 429.99931,417.97762 c 0,10.25642 2.5e-4,15.38462 -11.9298,15.38462 l -28.66919,0 c 7.22511,0 9.62119,-4.70204 9.62119,-10.34455 0,-7.5316 -4.96846,-9.69388 -8.29655,-9.75962 l 15.29251,0 0,-4.07853 -10.05807,0 c 0,0 3.006,-1.72878 3.006,-7.29367 0,-5.94243 -4.19805,-9.46114 -9.41879,-9.46114 -0.64847,0 -1.27371,0.0529 -1.87374,0.15225 2.71656,-0.94955 4.0601,-4.27864 4.0601,-9.76964 l 0,-4.95392 0.87374,0 c 2.45708,0 3.73546,2.16271 3.73546,4.95392 0,4.29503 -2.71542,4.51724 -2.71542,4.51724 l 0,4.22476 c 0.74316,0 5.39476,-0.54375 5.39476,-9.03246 0,-2.90137 -0.61106,-6.07558 -3.01201,-7.68229 l 2.28255,1.21594 0,-4.75361 -13.67327,-6.82291 13.67327,-6.80489 0,-4.30688 19.77746,0 c 11.93005,0 11.9298,5.1282 11.9298,15.38461 l 0,49.23077 z m -31.70726,-64.61538 -24.34255,12.39783 0,4.51722 6.78553,-3.57772 14.29652,7.61418 c -0.82505,-0.34253 -1.80872,-0.53886 -2.98395,-0.53886 l -8.78754,0 c -1.0165,0 -2.60519,-0.14623 -2.60519,-0.14623 l 0,3.75601 c 0,0 1.28264,0.1002 2.58315,0.1002 0,0 -3.27052,1.90613 -3.27052,7.82252 0,4.3411 2.09226,7.55409 5.93584,7.55409 0.22111,0 0.43479,-0.0138 0.64329,-0.0361 -3.95839,1.12025 -6.52903,4.50082 -6.52903,9.06851 0,5.35559 3.08214,7.32571 3.08214,7.32571 -1.16764,0 -2.44487,0.14224 -2.44487,0.14224 l 0,3.98637 c 0,0 1.77932,-0.0902 3.04607,-0.0902 l 4.75549,0 0,15.97156 c -3.36183,0 -5.75949,-2.55416 -5.75949,-6.10376 0,-4.35806 3.06011,-5.25241 3.06011,-5.25241 l 0,-4.18069 c 0,0 -5.68535,0.55266 -5.68535,9.17869 0,7.32855 3.60451,10.49079 9.32862,10.49079 l -27.50287,0 c -11.93006,0 -11.9298,-5.1282 -11.9298,-15.38462 l 0,-49.23077 c 0,-10.25641 -2.6e-4,-15.38462 11.9298,-15.38462 l 36.3946,0 z m -1.96793,69.80168 c 0,2.96711 -1.87957,5.97355 -5.17431,5.97355 l 0,-11.65665 c 3.10338,0 5.17431,2.30434 5.17431,5.6831 z m -0.11823,-20.2504 c 0,4.28643 -3.39754,6.26602 -6.69536,6.26602 -3.53913,0 -6.73343,-2.2046 -6.73343,-6.29207 0,-3.42504 2.67783,-6.23798 6.76951,-6.23798 3.81597,0 6.65928,2.43429 6.65928,6.26403 z m -7.09616,-25.0601 c 0,6.41523 -0.0203,10.78325 -3.20639,10.78325 -1.75136,0 -3.26251,-1.2968 -3.26251,-4.32091 0,-5.52268 3.78167,-6.46234 5.30258,-6.46234 l 1.16632,0 z"
             id="path4971" />
        </g>
      </g>
    </g>
  </g>
</svg>
