<?xml version="1.0" encoding="UTF-8" standalone="no"?>
<!-- Created with Inkscape (http://www.inkscape.org/) -->

<svg
   xmlns:dc="http://purl.org/dc/elements/1.1/"
   xmlns:cc="http://creativecommons.org/ns#"
   xmlns:rdf="http://www.w3.org/1999/02/22-rdf-syntax-ns#"
   xmlns:svg="http://www.w3.org/2000/svg"
   xmlns="http://www.w3.org/2000/svg"
   xmlns:sodipodi="http://sodipodi.sourceforge.net/DTD/sodipodi-0.dtd"
   xmlns:inkscape="http://www.inkscape.org/namespaces/inkscape"
   width="96"
   height="96"
   id="svg4874"
   version="1.1"
   inkscape:version="0.91+devel r"
   viewBox="0 0 96 96.000001"
   sodipodi:docname="preferences-desktop-wallpaper-symbolic.svg">
  <defs
     id="defs4876" />
  <sodipodi:namedview
     id="base"
     pagecolor="#ffffff"
     bordercolor="#666666"
     borderopacity="1.0"
     inkscape:pageopacity="0.0"
     inkscape:pageshadow="2"
     inkscape:zoom="4.4959994"
     inkscape:cx="-9.6530349"
     inkscape:cy="15.157891"
     inkscape:document-units="px"
     inkscape:current-layer="g4780"
     showgrid="true"
     showborder="true"
     fit-margin-top="0"
     fit-margin-left="0"
     fit-margin-right="0"
     fit-margin-bottom="0"
     inkscape:snap-bbox="true"
     inkscape:bbox-paths="true"
     inkscape:bbox-nodes="true"
     inkscape:snap-bbox-edge-midpoints="true"
     inkscape:snap-bbox-midpoints="true"
     inkscape:object-paths="true"
     inkscape:snap-intersection-paths="true"
     inkscape:object-nodes="true"
     inkscape:snap-smooth-nodes="true"
     inkscape:snap-midpoints="true"
     inkscape:snap-object-midpoints="true"
     inkscape:snap-center="true"
     showguides="true"
     inkscape:guide-bbox="true"
     inkscape:snap-global="true">
    <inkscape:grid
       type="xygrid"
       id="grid5451"
       empspacing="8" />
    <sodipodi:guide
       orientation="1,0"
       position="8,-8.0000001"
       id="guide4063" />
    <sodipodi:guide
       orientation="1,0"
       position="4,-8.0000001"
       id="guide4065" />
    <sodipodi:guide
       orientation="0,1"
       position="-8,88.000001"
       id="guide4067" />
    <sodipodi:guide
       orientation="0,1"
       position="-8,92.000001"
       id="guide4069" />
    <sodipodi:guide
       orientation="0,1"
       position="104,4"
       id="guide4071" />
    <sodipodi:guide
       orientation="0,1"
       position="-5,8.0000001"
       id="guide4073" />
    <sodipodi:guide
       orientation="1,0"
       position="88,-8.0000001"
       id="guide4077" />
    <sodipodi:guide
       orientation="0,1"
       position="-8,84.000001"
       id="guide4074" />
    <sodipodi:guide
       orientation="1,0"
       position="12,-8.0000001"
       id="guide4076" />
    <sodipodi:guide
       orientation="1,0"
       position="84,-8.0000001"
       id="guide4080" />
    <sodipodi:guide
       position="48,-8.0000001"
       orientation="1,0"
       id="guide4170" />
    <sodipodi:guide
       position="-8,48"
       orientation="0,1"
       id="guide4172" />
    <sodipodi:guide
       position="92,-8.0000001"
       orientation="1,0"
       id="guide4760" />
  </sodipodi:namedview>
  <metadata
     id="metadata4879">
    <rdf:RDF>
      <cc:Work
         rdf:about="">
        <dc:format>image/svg+xml</dc:format>
        <dc:type
           rdf:resource="http://purl.org/dc/dcmitype/StillImage" />
        <dc:title></dc:title>
      </cc:Work>
    </rdf:RDF>
  </metadata>
  <g
     inkscape:label="Layer 1"
     inkscape:groupmode="layer"
     id="layer1"
     transform="translate(67.857146,-78.50504)">
    <g
       transform="matrix(0,-1,-1,0,373.50506,516.50504)"
       id="g4845"
       style="display:inline">
      <g
         inkscape:export-ydpi="90"
         inkscape:export-xdpi="90"
         inkscape:export-filename="next01.png"
         transform="matrix(-0.9996045,0,0,1,575.94296,-611.00001)"
         id="g4778"
         inkscape:label="Layer 1">
        <g
           transform="matrix(-1,0,0,1,575.99999,611)"
           id="g4780"
           style="display:inline">
          <rect
             style="color:#000000;display:inline;overflow:visible;visibility:visible;fill:none;stroke:none;stroke-width:4;marker:none;enable-background:accumulate"
             id="rect4782"
             width="96.037987"
             height="96"
             x="-438.00244"
             y="345.36221"
             transform="scale(-1,1)" />
          <path
             style="color:#000000;display:inline;overflow:visible;visibility:visible;fill:#808080;fill-opacity:1;fill-rule:nonzero;stroke:none;stroke-width:2;marker:none;enable-background:accumulate"
             d="M 49.732422 4.0136719 C 47.263957 3.8499142 44.558317 5.2405084 40.916016 8.8828125 L 39.929688 9.8671875 C 39.920791 9.8581751 39.913238 9.8488451 39.904297 9.8398438 L 39.851562 9.7871094 C 38.456522 8.3920512 37.121484 7.4783329 35.871094 6.9960938 L 35.861328 6.9921875 L 35.851562 6.9882812 C 34.909783 6.6023839 34.011526 6.4207832 33.134766 6.4257812 C 32.843846 6.4275806 32.552989 6.450158 32.261719 6.4941406 L 32.246094 6.4980469 L 32.228516 6.5 C 31.054546 6.636426 29.86958 7.0825235 28.65625 7.875 L 28.646484 7.8808594 L 28.634766 7.8886719 C 27.393416 8.6559083 26.154322 9.6562254 24.914062 10.896484 L 22.101562 13.708984 C 20.860823 14.949723 19.858187 16.188807 19.091797 17.429688 L 19.083984 17.441406 L 19.078125 17.451172 C 18.286035 18.663912 17.841618 19.848501 17.705078 21.023438 L 17.703125 21.041016 L 17.699219 21.056641 C 17.524019 22.216242 17.678959 23.391101 18.193359 24.646484 L 18.197266 24.65625 L 18.201172 24.666016 C 18.683532 25.916681 19.597458 27.253708 20.992188 28.648438 C 21.076977 28.733234 21.204616 28.835475 21.378906 29.009766 L 22.085938 29.716797 L 22.072266 29.730469 L 42.953125 50.611328 L 36.951172 56.613281 L 35.337891 55 C 31.968637 57.197857 28.697371 59.493579 25.523438 61.886719 C 22.308497 64.320749 18.981495 67.256786 15.542969 70.695312 L 4 82.238281 L 13.761719 92 L 25.304688 80.457031 C 28.743214 77.018512 31.679261 73.69149 34.113281 70.476562 C 36.506375 67.302565 38.80208 64.03131 41 60.662109 L 39.386719 59.048828 L 44.974609 53.460938 L 44.976562 53.460938 L 47.826172 50.609375 L 44.683594 47.466797 L 23.078125 25.601562 C 22.564705 25.015434 22.007068 24.461959 21.742188 23.740234 C 21.440836 22.918579 21.291594 21.991016 21.527344 21.029297 C 21.707224 20.113069 22.151687 19.216594 22.810547 18.308594 C 23.425757 17.395875 24.251422 16.430226 25.294922 15.386719 L 26.529297 14.152344 C 27.572357 13.109276 28.535956 12.285258 29.447266 11.669922 C 30.356876 11.009243 31.254385 10.564754 32.171875 10.384766 C 33.092485 10.157975 34.049949 10.244437 34.917969 10.623047 C 35.777989 10.951927 36.586888 11.514629 37.361328 12.289062 C 37.383565 12.311299 37.407324 12.343987 37.429688 12.367188 L 36.388672 13.408203 C 28.063412 21.733459 31.501543 25.171465 38.376953 32.046875 L 63.953125 57.623047 C 70.828535 64.498447 74.266527 67.936594 82.591797 59.611328 L 87.117188 55.083984 C 95.442448 46.758718 92.004306 43.320713 85.128906 36.445312 L 59.552734 10.871094 C 55.685322 7.003681 52.906163 4.2242175 49.732422 4.0136719 z M 49.097656 7.9707031 C 49.358784 7.9383834 49.564777 7.9786891 49.826172 8.0429688 C 50.871762 8.300077 53.298538 10.247757 56.736328 13.685547 L 82.3125 39.261719 C 84.46115 41.410369 86.151597 43.149116 87.060547 44.435547 C 87.969487 45.721978 88.076573 46.238691 88.001953 46.884766 C 87.912423 47.660039 87.131931 49.438381 84.300781 52.269531 L 79.773438 56.796875 C 77.885958 58.684348 76.409674 59.72593 75.458984 60.166016 C 74.508284 60.606102 74.200524 60.579721 73.677734 60.451172 C 72.632154 60.194054 70.205368 58.24443 66.767578 54.806641 L 41.193359 29.230469 C 37.755549 25.792659 35.808091 23.368961 35.550781 22.322266 C 35.422131 21.798923 35.393574 21.490227 35.833984 20.539062 C 36.274384 19.587899 37.317528 18.112153 39.205078 16.224609 A 3.9834012 3.981826 0 0 0 39.207031 16.222656 L 43.730469 11.697266 C 45.617939 9.8097919 47.094232 8.7682109 48.044922 8.328125 C 48.520267 8.1080871 48.836529 8.0030228 49.097656 7.9707031 z M 71.986328 70.460938 C 68.747628 76.767792 66.515611 83.799285 66.363281 84.283203 C 66.341681 84.340031 66.324588 84.399454 66.304688 84.457031 C 66.109568 85.023897 66 85.628182 66 86.257812 C 66 89.428196 68.678526 91.998976 71.980469 92 C 75.282402 91.998976 77.958984 89.430149 77.958984 86.259766 C 77.958984 85.630535 77.853023 85.02551 77.658203 84.458984 L 77.660156 84.458984 C 77.660156 84.458984 75.46036 77.358888 72 70.470703 C 71.999 70.470703 71.997094 70.46947 71.996094 70.46875 L 71.992188 70.464844 C 71.991188 70.462845 71.991234 70.461657 71.990234 70.460938 C 71.989234 70.460418 71.987058 70.460938 71.986328 70.460938 z "
             transform="matrix(0,-1,-1.0003957,0,438.00245,441.36222)"
             id="rect4448" />
        </g>
      </g>
    </g>
  </g>
</svg>
