<?xml version="1.0" encoding="UTF-8" standalone="no"?>
<!-- Created with Inkscape (http://www.inkscape.org/) -->

<svg
   xmlns:dc="http://purl.org/dc/elements/1.1/"
   xmlns:cc="http://creativecommons.org/ns#"
   xmlns:rdf="http://www.w3.org/1999/02/22-rdf-syntax-ns#"
   xmlns:svg="http://www.w3.org/2000/svg"
   xmlns="http://www.w3.org/2000/svg"
   xmlns:sodipodi="http://sodipodi.sourceforge.net/DTD/sodipodi-0.dtd"
   xmlns:inkscape="http://www.inkscape.org/namespaces/inkscape"
   width="152.00003"
   height="96.000008"
   id="svg4874"
   version="1.1"
   inkscape:version="0.91+devel r"
   viewBox="0 0 152.00003 96.000009"
   sodipodi:docname="preferences-system-battery-070-charging-symbolic.svg">
  <defs
     id="defs4876" />
  <sodipodi:namedview
     id="base"
     pagecolor="#ffffff"
     bordercolor="#666666"
     borderopacity="1.0"
     inkscape:pageopacity="0.0"
     inkscape:pageshadow="2"
     inkscape:zoom="2.8774396"
     inkscape:cx="-112.02664"
     inkscape:cy="64.675666"
     inkscape:document-units="px"
     inkscape:current-layer="layer1"
     showgrid="true"
     showborder="true"
     fit-margin-top="0"
     fit-margin-left="0"
     fit-margin-right="0"
     fit-margin-bottom="0"
     inkscape:snap-bbox="true"
     inkscape:bbox-paths="true"
     inkscape:bbox-nodes="true"
     inkscape:snap-bbox-edge-midpoints="true"
     inkscape:snap-bbox-midpoints="true"
     inkscape:object-paths="true"
     inkscape:snap-intersection-paths="true"
     inkscape:object-nodes="true"
     inkscape:snap-smooth-nodes="true"
     inkscape:snap-midpoints="true"
     inkscape:snap-object-midpoints="true"
     inkscape:snap-center="true"
     showguides="true"
     inkscape:guide-bbox="true"
     inkscape:snap-global="true">
    <inkscape:grid
       type="xygrid"
       id="grid5451"
       empspacing="8"
       originx="2.4424079e-05"
       originy="6.7895726e-05" />
    <sodipodi:guide
       orientation="1,0"
       position="8.0000243,-7.9999323"
       id="guide4063" />
    <sodipodi:guide
       orientation="1,0"
       position="4.0000243,-7.9999323"
       id="guide4065" />
    <sodipodi:guide
       orientation="0,1"
       position="-7.9999755,88.000069"
       id="guide4067" />
    <sodipodi:guide
       orientation="0,1"
       position="-7.9999755,92.000069"
       id="guide4069" />
    <sodipodi:guide
       orientation="0,1"
       position="104.00003,4.000068"
       id="guide4071" />
    <sodipodi:guide
       orientation="0,1"
       position="-4.9999755,8.0000681"
       id="guide4073" />
    <sodipodi:guide
       orientation="1,0"
       position="88.000023,-7.9999323"
       id="guide4077" />
    <sodipodi:guide
       orientation="0,1"
       position="-7.9999755,84.000069"
       id="guide4074" />
    <sodipodi:guide
       orientation="1,0"
       position="12.000024,-7.9999323"
       id="guide4076" />
    <sodipodi:guide
       orientation="1,0"
       position="84.000023,-7.9999323"
       id="guide4080" />
    <sodipodi:guide
       position="48.000024,-7.9999323"
       orientation="1,0"
       id="guide4170" />
    <sodipodi:guide
       position="-7.9999755,48.000068"
       orientation="0,1"
       id="guide4172" />
    <sodipodi:guide
       position="92.000023,-7.9999323"
       orientation="1,0"
       id="guide4760" />
  </sodipodi:namedview>
  <metadata
     id="metadata4879">
    <rdf:RDF>
      <cc:Work
         rdf:about="">
        <dc:format>image/svg+xml</dc:format>
        <dc:type
           rdf:resource="http://purl.org/dc/dcmitype/StillImage" />
        <dc:title></dc:title>
      </cc:Work>
    </rdf:RDF>
  </metadata>
  <g
     inkscape:label="Layer 1"
     inkscape:groupmode="layer"
     id="layer1"
     transform="translate(67.85717,-78.505096)">
    <rect
       style="opacity:0.21171169;fill:none;stroke:none;stroke-width:1"
       id="rect5100"
       width="152.00003"
       height="96.000008"
       x="-67.85717"
       y="78.505096" />
    <path
       style="color:#000000;font-style:normal;font-variant:normal;font-weight:normal;font-stretch:normal;font-size:medium;line-height:normal;font-family:sans-serif;font-variant-ligatures:none;font-variant-position:normal;font-variant-caps:normal;font-variant-numeric:normal;font-variant-alternates:normal;font-feature-settings:normal;text-indent:0;text-align:start;text-decoration:none;text-decoration-line:none;text-decoration-style:solid;text-decoration-color:#000000;letter-spacing:normal;word-spacing:normal;text-transform:none;direction:ltr;block-progression:tb;writing-mode:lr-tb;baseline-shift:baseline;text-anchor:start;white-space:normal;shape-padding:0;clip-rule:nonzero;display:inline;overflow:visible;visibility:visible;opacity:1;isolation:auto;mix-blend-mode:normal;color-interpolation:sRGB;color-interpolation-filters:linearRGB;solid-color:#000000;solid-opacity:1;fill:#808080;fill-opacity:1;fill-rule:nonzero;stroke:none;stroke-width:4.00000048;stroke-linecap:butt;stroke-linejoin:miter;stroke-miterlimit:4;stroke-dasharray:none;stroke-dashoffset:0;stroke-opacity:1;marker:none;color-rendering:auto;image-rendering:auto;shape-rendering:auto;text-rendering:auto;enable-background:accumulate"
       d="m -47.880859,94.505859 c -5.032775,0.05818 -8.713619,-0.120275 -11.72461,1.541016 -1.505495,0.830645 -2.696806,2.235578 -3.355469,3.990235 -0.658662,1.75466 -0.896484,3.83831 -0.896484,6.46875 l 0,40 c 0,2.63043 0.237822,4.71214 0.896484,6.4668 0.658663,1.75465 1.849974,3.15959 3.355469,3.99023 3.010991,1.66129 6.691834,1.48479 11.72461,1.54297 l 0.01172,0 72.023438,0 0.01172,0 c 5.032775,-0.0582 8.713619,0.11832 11.724609,-1.54297 1.505495,-0.83064 2.696807,-2.23558 3.355469,-3.99023 0.658662,-1.75466 0.896484,-3.83637 0.896484,-6.4668 l 0,-40 c 0,-2.63044 -0.237822,-4.71409 -0.896484,-6.46875 -0.658662,-1.754657 -1.849974,-3.15959 -3.355469,-3.990235 -3.01099,-1.661291 -6.691834,-1.482832 -11.724609,-1.541016 l -0.01172,0 -72.023438,0 -0.01172,0 z m 0.02344,4 72,0 c 5.038253,0.05877 8.351872,0.236877 9.816406,1.044922 0.733638,0.404779 1.152716,0.852949 1.542969,1.892579 0.390254,1.03962 0.640625,2.69293 0.640625,5.0625 l 0,40 c 0,2.36956 -0.250371,4.02288 -0.640625,5.0625 -0.390253,1.03962 -0.809331,1.4878 -1.542969,1.89258 -1.464534,0.80804 -4.778153,0.98616 -9.816406,1.04492 l -71.976562,0 -0.02344,0 c -5.038253,-0.0588 -8.351872,-0.23688 -9.816406,-1.04492 -0.733637,-0.40478 -1.150762,-0.85296 -1.541016,-1.89258 -0.390253,-1.03962 -0.642578,-2.69294 -0.642578,-5.0625 l 0,-40 c 0,-2.36957 0.252325,-4.02288 0.642578,-5.0625 0.390254,-1.03963 0.807379,-1.4878 1.541016,-1.892579 1.464534,-0.808045 4.778153,-0.986156 9.816406,-1.044922 z"
       id="path4213"
       inkscape:connector-curvature="0" />
    <rect
       style="color:#000000;display:inline;overflow:visible;visibility:visible;opacity:1;fill:#808080;fill-opacity:1;fill-rule:nonzero;stroke:none;stroke-width:2.25;stroke-linecap:butt;stroke-linejoin:miter;stroke-miterlimit:4;stroke-dasharray:none;stroke-dashoffset:0;stroke-opacity:1;marker:none;enable-background:accumulate"
       id="rect4215"
       width="10.000002"
       height="30"
       x="36.142853"
       y="111.50504" />
    <path
       style="display:inline;fill:#808080;fill-opacity:1;stroke:none"
       d="m 68.13855,96.505064 -13.99568,35.000006 14.0002,0 -0.005,25 14.00469,-35 -14.00019,0 z"
       id="path3847-06-9"
       inkscape:connector-curvature="0"
       sodipodi:nodetypes="ccccccc" />
    <rect
       style="color:#000000;display:inline;overflow:visible;visibility:visible;opacity:1;fill:#808080;fill-opacity:1;fill-rule:nonzero;stroke:none;stroke-width:2.25;stroke-linecap:butt;stroke-linejoin:miter;stroke-miterlimit:4;stroke-dasharray:none;stroke-dashoffset:0;stroke-opacity:1;marker:none;enable-background:accumulate"
       id="rect4217"
       width="55.999992"
       height="40"
       x="-51.85714"
       y="106.50504" />
  </g>
</svg>
