<?xml version="1.0" encoding="UTF-8" standalone="no"?>
<!-- Created with Inkscape (http://www.inkscape.org/) -->

<svg
   xmlns:dc="http://purl.org/dc/elements/1.1/"
   xmlns:cc="http://creativecommons.org/ns#"
   xmlns:rdf="http://www.w3.org/1999/02/22-rdf-syntax-ns#"
   xmlns:svg="http://www.w3.org/2000/svg"
   xmlns="http://www.w3.org/2000/svg"
   xmlns:sodipodi="http://sodipodi.sourceforge.net/DTD/sodipodi-0.dtd"
   xmlns:inkscape="http://www.inkscape.org/namespaces/inkscape"
   width="96"
   height="96"
   id="svg4874"
   version="1.1"
   inkscape:version="0.91+devel r"
   viewBox="0 0 96 96.000001"
   sodipodi:docname="account02.svg">
  <defs
     id="defs4876" />
  <sodipodi:namedview
     id="base"
     pagecolor="#ffffff"
     bordercolor="#666666"
     borderopacity="1.0"
     inkscape:pageopacity="0.0"
     inkscape:pageshadow="2"
     inkscape:zoom="7.0249989"
     inkscape:cx="-75.494681"
     inkscape:cy="61.629883"
     inkscape:document-units="px"
     inkscape:current-layer="g4780"
     showgrid="true"
     showborder="true"
     fit-margin-top="0"
     fit-margin-left="0"
     fit-margin-right="0"
     fit-margin-bottom="0"
     inkscape:snap-bbox="true"
     inkscape:bbox-paths="true"
     inkscape:bbox-nodes="true"
     inkscape:snap-bbox-edge-midpoints="true"
     inkscape:snap-bbox-midpoints="true"
     inkscape:object-paths="true"
     inkscape:snap-intersection-paths="true"
     inkscape:object-nodes="true"
     inkscape:snap-smooth-nodes="true"
     inkscape:snap-midpoints="true"
     inkscape:snap-object-midpoints="true"
     inkscape:snap-center="true"
     showguides="true"
     inkscape:guide-bbox="true"
     inkscape:snap-global="false">
    <inkscape:grid
       type="xygrid"
       id="grid5451"
       empspacing="8" />
    <sodipodi:guide
       orientation="1,0"
       position="8,-8.0000001"
       id="guide4063"
       inkscape:locked="false" />
    <sodipodi:guide
       orientation="1,0"
       position="4,-8.0000001"
       id="guide4065"
       inkscape:locked="false" />
    <sodipodi:guide
       orientation="0,1"
       position="-8,88.000001"
       id="guide4067"
       inkscape:locked="false" />
    <sodipodi:guide
       orientation="0,1"
       position="-8,92.000001"
       id="guide4069"
       inkscape:locked="false" />
    <sodipodi:guide
       orientation="0,1"
       position="104,4"
       id="guide4071"
       inkscape:locked="false" />
    <sodipodi:guide
       orientation="0,1"
       position="-5,8.0000001"
       id="guide4073"
       inkscape:locked="false" />
    <sodipodi:guide
       orientation="1,0"
       position="92,-8.0000001"
       id="guide4075"
       inkscape:locked="false" />
    <sodipodi:guide
       orientation="1,0"
       position="88,-8.0000001"
       id="guide4077"
       inkscape:locked="false" />
    <sodipodi:guide
       orientation="0,1"
       position="-8,84.000001"
       id="guide4074"
       inkscape:locked="false" />
    <sodipodi:guide
       orientation="1,0"
       position="12,-8.0000001"
       id="guide4076"
       inkscape:locked="false" />
    <sodipodi:guide
       orientation="0,1"
       position="-5,12"
       id="guide4078"
       inkscape:locked="false" />
    <sodipodi:guide
       orientation="1,0"
       position="84,-9.0000001"
       id="guide4080"
       inkscape:locked="false" />
    <sodipodi:guide
       position="48,-8.0000001"
       orientation="1,0"
       id="guide4170"
       inkscape:locked="false" />
    <sodipodi:guide
       position="-8,48"
       orientation="0,1"
       id="guide4172"
       inkscape:locked="false" />
  </sodipodi:namedview>
  <metadata
     id="metadata4879">
    <rdf:RDF>
      <cc:Work
         rdf:about="">
        <dc:format>image/svg+xml</dc:format>
        <dc:type
           rdf:resource="http://purl.org/dc/dcmitype/StillImage" />
        <dc:title />
      </cc:Work>
    </rdf:RDF>
  </metadata>
  <g
     inkscape:label="Layer 1"
     inkscape:groupmode="layer"
     id="layer1"
     transform="translate(67.857146,-78.50504)">
    <g
       transform="matrix(0,-1,-1,0,373.50506,516.50504)"
       id="g4845"
       style="display:inline">
      <g
         inkscape:export-ydpi="90"
         inkscape:export-xdpi="90"
         inkscape:export-filename="next01.png"
         transform="matrix(-0.9996045,0,0,1,575.94296,-611.00001)"
         id="g4778"
         inkscape:label="Layer 1">
        <g
           transform="matrix(-1,0,0,1,575.99999,611)"
           id="g4780"
           style="display:inline">
          <rect
             style="color:#000000;display:inline;overflow:visible;visibility:visible;fill:none;stroke:none;stroke-width:4;marker:none;enable-background:accumulate"
             id="rect4782"
             width="96.037987"
             height="96"
             x="-438.00244"
             y="345.36221"
             transform="scale(-1,1)" />
          <path
             style="color:#000000;font-style:normal;font-variant:normal;font-weight:normal;font-stretch:normal;font-size:medium;line-height:normal;font-family:sans-serif;font-variant-ligatures:normal;font-variant-position:normal;font-variant-caps:normal;font-variant-numeric:normal;font-variant-alternates:normal;font-feature-settings:normal;text-indent:0;text-align:start;text-decoration:none;text-decoration-line:none;text-decoration-style:solid;text-decoration-color:#000000;letter-spacing:normal;word-spacing:normal;text-transform:none;writing-mode:lr-tb;direction:ltr;text-orientation:mixed;dominant-baseline:auto;baseline-shift:baseline;text-anchor:start;white-space:normal;shape-padding:0;clip-rule:nonzero;display:inline;overflow:visible;visibility:visible;opacity:1;isolation:auto;mix-blend-mode:normal;color-interpolation:sRGB;color-interpolation-filters:linearRGB;solid-color:#000000;solid-opacity:1;fill:#808080;fill-opacity:1;fill-rule:nonzero;stroke:none;stroke-width:4.00079107;stroke-linecap:round;stroke-linejoin:round;stroke-miterlimit:4;stroke-dasharray:none;stroke-dashoffset:0;stroke-opacity:1;marker:none;color-rendering:auto;image-rendering:auto;shape-rendering:auto;text-rendering:auto;enable-background:accumulate"
             d="m 432,393.36133 c 0,23.17236 -18.83538,42 -42.01562,42 -23.18025,0 -42.01563,-18.82764 -42.01563,-42 0,-23.17236 18.83538,-42 42.01563,-42 23.18024,0 42.01562,18.82764 42.01562,42 z m -4.00195,0 c 0,-21.00932 -16.99476,-37.99805 -38.01367,-37.99805 -21.01892,0 -38.01563,16.98873 -38.01563,37.99805 0,21.00931 16.99671,37.99804 38.01563,37.99805 21.01891,0 38.01367,-16.98874 38.01367,-37.99805 z"
             id="path4116"
             inkscape:connector-curvature="0" />
          <path
             style="color:#000000;font-style:normal;font-variant:normal;font-weight:normal;font-stretch:normal;font-size:medium;line-height:125%;font-family:Ubuntu;-inkscape-font-specification:'Ubuntu, Normal';font-variant-ligatures:normal;font-variant-position:normal;font-variant-caps:normal;font-variant-numeric:normal;font-variant-alternates:normal;font-feature-settings:normal;text-indent:0;text-align:start;text-decoration:none;text-decoration-line:none;text-decoration-style:solid;text-decoration-color:#000000;letter-spacing:0px;word-spacing:0px;text-transform:none;writing-mode:lr-tb;direction:ltr;text-orientation:mixed;dominant-baseline:auto;baseline-shift:baseline;text-anchor:start;white-space:normal;shape-padding:0;clip-rule:nonzero;display:inline;overflow:visible;visibility:visible;opacity:1;isolation:auto;mix-blend-mode:normal;color-interpolation:sRGB;color-interpolation-filters:linearRGB;solid-color:#000000;solid-opacity:1;fill:#808080;fill-opacity:1;fill-rule:nonzero;stroke:none;stroke-width:4.00079107;stroke-linecap:butt;stroke-linejoin:miter;stroke-miterlimit:4;stroke-dasharray:none;stroke-dashoffset:0;stroke-opacity:1;color-rendering:auto;image-rendering:auto;shape-rendering:auto;text-rendering:auto;enable-background:accumulate"
             d="m 405.01758,377.44141 c -2.47429,0 -4.77402,0.37366 -6.86133,1.15234 -2.05824,0.76779 -3.87801,1.88191 -5.40039,3.32617 -1.52083,1.40488 -2.71451,3.11134 -3.54883,5.05664 l -0.008,0.0156 -0.006,0.0176 C 388.39303,388.97398 388,391.10676 388,393.35156 c 0,2.24476 0.39304,4.37563 1.19336,6.33985 l 0.006,0.0176 0.008,0.0176 c 0.83501,1.9469 2.02571,3.66805 3.54102,5.10742 l 0.0117,0.01 0.01,0.0117 c 1.52217,1.4021 3.33667,2.4872 5.38672,3.25195 2.08731,0.77869 4.38704,1.15235 6.86133,1.15235 2.44091,0 4.72145,-0.37519 6.80469,-1.15235 2.08162,-0.76297 3.91553,-1.84644 5.4414,-3.25195 l 0.0117,-0.0117 0.0117,-0.01 c 1.51879,-1.44272 2.69533,-3.17519 3.49414,-5.13086 0.8391,-1.96532 1.25391,-4.1033 1.25391,-6.35156 0,-2.25047 -0.41513,-4.39054 -1.25586,-6.35742 -0.79899,-1.95434 -1.98018,-3.67196 -3.50586,-5.08008 -1.52696,-1.44689 -3.36858,-2.55717 -5.45899,-3.32226 -2.08122,-0.77527 -4.35887,-1.15039 -6.79687,-1.15039 z m 0,4.00195 c 2.03312,0 3.8222,0.30751 5.40625,0.89844 l 0.006,0.004 0.006,0.002 c 1.64251,0.6007 2.98583,1.42421 4.0957,2.47851 l 0.0117,0.01 0.01,0.0117 c 1.1055,1.01828 1.93658,2.21717 2.5293,3.67187 l 0.006,0.0176 0.008,0.0156 c 0.62133,1.4486 0.93946,3.02752 0.93946,4.79883 0,1.77125 -0.31813,3.34826 -0.93946,4.79688 l -0.008,0.0176 -0.006,0.0156 c -0.59248,1.4541 -1.42881,2.67859 -2.54101,3.73828 -1.10958,1.01953 -2.45658,1.8325 -4.10547,2.43555 l -0.006,0.002 -0.006,0.002 c -1.58405,0.59093 -3.37314,0.90039 -5.40625,0.90039 -2.07307,0 -3.88296,-0.31099 -5.46289,-0.90039 -1.61095,-0.60095 -2.94301,-1.41315 -4.0586,-2.4375 -1.11428,-1.06102 -1.97055,-2.29512 -2.59961,-3.75391 C 392.30655,396.71535 392,395.12995 392,393.35156 c 0,-1.77775 0.30701,-3.36427 0.89648,-4.8164 0.62888,-1.45866 1.47715,-2.668 2.58399,-3.6875 l 0.0117,-0.0117 0.0117,-0.01 c 1.11657,-1.06067 2.44494,-1.88534 4.05078,-2.48437 1.57993,-0.5894 3.38982,-0.89844 5.46289,-0.89844 z"
             id="path4202-1"
             inkscape:connector-curvature="0" />
          <path
             style="color:#000000;font-style:normal;font-variant:normal;font-weight:normal;font-stretch:normal;font-size:medium;line-height:125%;font-family:Ubuntu;-inkscape-font-specification:'Ubuntu, Normal';font-variant-ligatures:normal;font-variant-position:normal;font-variant-caps:normal;font-variant-numeric:normal;font-variant-alternates:normal;font-feature-settings:normal;text-indent:0;text-align:start;text-decoration:none;text-decoration-line:none;text-decoration-style:solid;text-decoration-color:#000000;letter-spacing:0px;word-spacing:0px;text-transform:none;writing-mode:lr-tb;direction:ltr;text-orientation:mixed;dominant-baseline:auto;baseline-shift:baseline;text-anchor:start;white-space:normal;shape-padding:0;clip-rule:nonzero;display:inline;overflow:visible;visibility:visible;opacity:1;isolation:auto;mix-blend-mode:normal;color-interpolation:sRGB;color-interpolation-filters:linearRGB;solid-color:#000000;solid-opacity:1;fill:#808080;fill-opacity:1;fill-rule:nonzero;stroke:none;stroke-width:4.00079107;stroke-linecap:butt;stroke-linejoin:miter;stroke-miterlimit:4;stroke-dasharray:none;stroke-dashoffset:0;stroke-opacity:1;color-rendering:auto;image-rendering:auto;shape-rendering:auto;text-rendering:auto;enable-background:accumulate"
             d="m 361.07617,364.22266 -0.002,4 c 3.46007,0.002 6.2421,0.27766 8.37695,0.93945 2.13486,0.66179 3.61991,1.63997 4.8418,3.25781 2.44377,3.2357 3.73242,9.6077 3.73242,20.85742 0,11.24973 -1.28783,17.62413 -3.73242,20.86328 -1.2223,1.61958 -2.70839,2.59897 -4.84375,3.26368 -2.13536,0.6647 -4.91868,0.94328 -8.37891,0.95117 l 0.01,4.00195 c 3.65969,-0.008 6.80598,-0.27597 9.55859,-1.13281 2.75261,-0.85684 5.11262,-2.37486 6.84766,-4.67383 3.47007,-4.59793 4.53906,-11.74795 4.53906,-23.27344 0,-11.52548 -1.06817,-18.67387 -4.53906,-23.26953 -1.73545,-2.29782 -4.0965,-3.81257 -6.84961,-4.66601 -2.75312,-0.85345 -5.9007,-1.1165 -9.56055,-1.11914 z"
             id="path4228-7"
             inkscape:connector-curvature="0" />
        </g>
      </g>
    </g>
  </g>
</svg>
