<?xml version="1.0" encoding="UTF-8" standalone="no"?>
<!-- Created with Inkscape (http://www.inkscape.org/) -->

<svg
   xmlns:dc="http://purl.org/dc/elements/1.1/"
   xmlns:cc="http://creativecommons.org/ns#"
   xmlns:rdf="http://www.w3.org/1999/02/22-rdf-syntax-ns#"
   xmlns:svg="http://www.w3.org/2000/svg"
   xmlns="http://www.w3.org/2000/svg"
   xmlns:sodipodi="http://sodipodi.sourceforge.net/DTD/sodipodi-0.dtd"
   xmlns:inkscape="http://www.inkscape.org/namespaces/inkscape"
   width="96"
   height="96"
   id="svg4874"
   version="1.1"
   inkscape:version="0.91+devel r"
   viewBox="0 0 96 96.000001"
   sodipodi:docname="preferences-desktop-accessibility-symbolic.svg">
  <defs
     id="defs4876" />
  <sodipodi:namedview
     id="base"
     pagecolor="#ffffff"
     bordercolor="#666666"
     borderopacity="1.0"
     inkscape:pageopacity="0.0"
     inkscape:pageshadow="2"
     inkscape:zoom="5.6199993"
     inkscape:cx="-65.498235"
     inkscape:cy="30.293576"
     inkscape:document-units="px"
     inkscape:current-layer="g4780"
     showgrid="true"
     showborder="true"
     fit-margin-top="0"
     fit-margin-left="0"
     fit-margin-right="0"
     fit-margin-bottom="0"
     inkscape:snap-bbox="true"
     inkscape:bbox-paths="true"
     inkscape:bbox-nodes="true"
     inkscape:snap-bbox-edge-midpoints="true"
     inkscape:snap-bbox-midpoints="true"
     inkscape:object-paths="true"
     inkscape:snap-intersection-paths="true"
     inkscape:object-nodes="true"
     inkscape:snap-smooth-nodes="true"
     inkscape:snap-midpoints="true"
     inkscape:snap-object-midpoints="true"
     inkscape:snap-center="true"
     showguides="true"
     inkscape:guide-bbox="true"
     inkscape:snap-global="true">
    <inkscape:grid
       type="xygrid"
       id="grid5451"
       empspacing="8" />
    <sodipodi:guide
       orientation="1,0"
       position="8,-8.0000001"
       id="guide4063" />
    <sodipodi:guide
       orientation="1,0"
       position="4,-8.0000001"
       id="guide4065" />
    <sodipodi:guide
       orientation="0,1"
       position="-8,88.000001"
       id="guide4067" />
    <sodipodi:guide
       orientation="0,1"
       position="-8,92.000001"
       id="guide4069" />
    <sodipodi:guide
       orientation="0,1"
       position="104,4"
       id="guide4071" />
    <sodipodi:guide
       orientation="0,1"
       position="-5,8.0000001"
       id="guide4073" />
    <sodipodi:guide
       orientation="1,0"
       position="88,-8.0000001"
       id="guide4077" />
    <sodipodi:guide
       orientation="0,1"
       position="-8,84.000001"
       id="guide4074" />
    <sodipodi:guide
       orientation="1,0"
       position="12,-8.0000001"
       id="guide4076" />
    <sodipodi:guide
       orientation="1,0"
       position="84,-8.0000001"
       id="guide4080" />
    <sodipodi:guide
       position="48,-8.0000001"
       orientation="1,0"
       id="guide4170" />
    <sodipodi:guide
       position="-8,48"
       orientation="0,1"
       id="guide4172" />
    <sodipodi:guide
       position="92,-8.0000001"
       orientation="1,0"
       id="guide4760" />
  </sodipodi:namedview>
  <metadata
     id="metadata4879">
    <rdf:RDF>
      <cc:Work
         rdf:about="">
        <dc:format>image/svg+xml</dc:format>
        <dc:type
           rdf:resource="http://purl.org/dc/dcmitype/StillImage" />
        <dc:title></dc:title>
      </cc:Work>
    </rdf:RDF>
  </metadata>
  <g
     inkscape:label="Layer 1"
     inkscape:groupmode="layer"
     id="layer1"
     transform="translate(67.857146,-78.50504)">
    <g
       transform="matrix(0,-1,-1,0,373.50506,516.50504)"
       id="g4845"
       style="display:inline">
      <g
         inkscape:export-ydpi="90"
         inkscape:export-xdpi="90"
         inkscape:export-filename="next01.png"
         transform="matrix(-0.9996045,0,0,1,575.94296,-611.00001)"
         id="g4778"
         inkscape:label="Layer 1">
        <g
           transform="matrix(-1,0,0,1,575.99999,611)"
           id="g4780"
           style="display:inline">
          <rect
             style="color:#000000;display:inline;overflow:visible;visibility:visible;fill:none;stroke:none;stroke-width:4;marker:none;enable-background:accumulate"
             id="rect4782"
             width="96.037987"
             height="96"
             x="-438.00244"
             y="345.36221"
             transform="scale(-1,1)" />
          <path
             style="font-style:normal;font-variant:normal;font-weight:normal;font-stretch:normal;font-size:15px;line-height:125%;font-family:Ubuntu;-inkscape-font-specification:Ubuntu;text-align:center;letter-spacing:0px;word-spacing:0px;writing-mode:lr-tb;text-anchor:middle;display:inline;fill:#808080;fill-opacity:1;stroke:none"
             d="M 48.001953 20.460938 C 46.053193 20.461107 44.158971 21.285356 42.769531 22.748047 C 41.379811 24.211048 40.583984 26.225388 40.583984 28.308594 L 40.583984 28.3125 L 40.583984 28.316406 C 40.586984 29.148507 40.662887 30.04856 41.023438 30.941406 C 41.980577 33.311469 43.385511 35.183291 44.738281 36.695312 L 45.855469 37.945312 L 24.75 37.945312 L 24.75 42.007812 L 28.458984 42.007812 C 30.543694 42.007812 32.315088 42.308558 33.773438 42.947266 C 35.205978 43.54247 36.380931 44.420094 37.244141 45.568359 C 38.128671 46.670043 38.742871 47.995642 39.087891 49.513672 C 39.435271 51.042177 39.485417 52.656317 39.591797 54.363281 L 39.59375 54.386719 L 39.59375 75.537109 L 44.037109 75.537109 L 44.037109 62.320312 C 44.037109 61.744041 44.110908 61.196948 44.267578 60.6875 C 44.267578 60.6875 44.267578 60.685547 44.267578 60.685547 C 44.420978 60.167722 44.669803 59.698122 45.007812 59.304688 C 45.348223 58.901687 45.787169 58.590476 46.287109 58.380859 L 46.291016 58.380859 C 46.804106 58.163705 47.379263 58.066406 48.001953 58.066406 C 48.625173 58.066406 49.20167 58.162792 49.71875 58.378906 L 49.720703 58.378906 L 49.722656 58.380859 C 50.217796 58.590926 50.653707 58.899716 50.998047 59.298828 L 51.001953 59.302734 L 51.003906 59.306641 C 51.334556 59.698855 51.580804 60.163238 51.740234 60.677734 L 51.740234 60.683594 L 51.742188 60.6875 C 51.892758 61.196349 51.964844 61.743011 51.964844 62.320312 L 51.964844 63.070312 L 51.958984 63.070312 L 51.958984 75.537109 L 56.408203 75.537109 L 56.408203 54.410156 C 56.408203 52.640237 56.576586 51.007211 56.916016 49.513672 C 57.261606 47.993133 57.876792 46.665254 58.763672 45.5625 C 59.626932 44.416803 60.801482 43.539397 62.232422 42.945312 C 63.690062 42.307725 65.460029 42.007812 67.542969 42.007812 L 71.248047 42.007812 L 71.248047 37.945312 L 50.144531 37.945312 L 51.263672 36.695312 C 52.616842 35.183171 54.021256 33.311748 54.978516 30.941406 C 55.339186 30.04852 55.416972 29.148187 55.419922 28.316406 L 55.419922 28.308594 C 55.419922 26.225378 54.622182 24.211058 53.232422 22.748047 C 51.843022 21.285376 49.950653 20.461107 48.001953 20.460938 z "
             transform="matrix(0,-1,-1.0003957,0,438.00245,441.36222)"
             id="path4525" />
          <path
             style="color:#000000;font-style:normal;font-variant:normal;font-weight:normal;font-stretch:normal;font-size:medium;line-height:normal;font-family:sans-serif;font-variant-ligatures:none;font-variant-position:normal;font-variant-caps:normal;font-variant-numeric:normal;font-variant-alternates:normal;font-feature-settings:normal;text-indent:0;text-align:start;text-decoration:none;text-decoration-line:none;text-decoration-style:solid;text-decoration-color:#000000;letter-spacing:normal;word-spacing:normal;text-transform:none;direction:ltr;block-progression:tb;writing-mode:lr-tb;baseline-shift:baseline;text-anchor:start;white-space:normal;shape-padding:0;clip-rule:nonzero;display:inline;overflow:visible;visibility:visible;opacity:1;isolation:auto;mix-blend-mode:normal;color-interpolation:sRGB;color-interpolation-filters:linearRGB;solid-color:#000000;solid-opacity:1;fill:#808080;fill-opacity:1;fill-rule:nonzero;stroke:none;stroke-width:4.00079107;stroke-linecap:round;stroke-linejoin:round;stroke-miterlimit:4;stroke-dasharray:none;stroke-dashoffset:0;stroke-opacity:1;marker:none;color-rendering:auto;image-rendering:auto;shape-rendering:auto;text-rendering:auto;enable-background:accumulate"
             d="m 432,393.36133 c 0,23.17282 -18.83492,42 -42.01562,42 -23.18071,0 -42.01563,-18.82718 -42.01563,-42 0,-23.17282 18.83492,-42 42.01563,-42 23.1807,0 42.01562,18.82718 42.01562,42 z m -4,0 c 0,-21.00978 -16.99625,-38 -38.01562,-38 -21.01938,0 -38.01563,16.99022 -38.01563,38 0,21.00978 16.99625,38 38.01563,38 21.01937,0 38.01562,-16.99022 38.01562,-38 z"
             id="path4116"
             inkscape:connector-curvature="0" />
        </g>
      </g>
    </g>
  </g>
</svg>
