<?xml version="1.0" encoding="UTF-8" standalone="no"?>
<!-- Created with Inkscape (http://www.inkscape.org/) -->

<svg
   xmlns:dc="http://purl.org/dc/elements/1.1/"
   xmlns:cc="http://creativecommons.org/ns#"
   xmlns:rdf="http://www.w3.org/1999/02/22-rdf-syntax-ns#"
   xmlns:svg="http://www.w3.org/2000/svg"
   xmlns="http://www.w3.org/2000/svg"
   xmlns:sodipodi="http://sodipodi.sourceforge.net/DTD/sodipodi-0.dtd"
   xmlns:inkscape="http://www.inkscape.org/namespaces/inkscape"
   width="96"
   height="96"
   id="svg4874"
   version="1.1"
   inkscape:version="0.91 r13725"
   viewBox="0 0 96 96.000001"
   sodipodi:docname="preferences-desktop-login-items-symbolic.svg">
  <defs
     id="defs4876" />
  <sodipodi:namedview
     id="base"
     pagecolor="#ffffff"
     bordercolor="#666666"
     borderopacity="1.0"
     inkscape:pageopacity="0.0"
     inkscape:pageshadow="2"
     inkscape:zoom="7.024999"
     inkscape:cx="-28.121005"
     inkscape:cy="36.818493"
     inkscape:document-units="px"
     inkscape:current-layer="g4780"
     showgrid="true"
     showborder="true"
     fit-margin-top="0"
     fit-margin-left="0"
     fit-margin-right="0"
     fit-margin-bottom="0"
     inkscape:snap-bbox="true"
     inkscape:bbox-paths="true"
     inkscape:bbox-nodes="true"
     inkscape:snap-bbox-edge-midpoints="true"
     inkscape:snap-bbox-midpoints="true"
     inkscape:object-paths="true"
     inkscape:snap-intersection-paths="true"
     inkscape:object-nodes="true"
     inkscape:snap-smooth-nodes="true"
     inkscape:snap-midpoints="true"
     inkscape:snap-object-midpoints="true"
     inkscape:snap-center="true"
     showguides="true"
     inkscape:guide-bbox="true"
     inkscape:snap-global="true"
     inkscape:locked="false">
    <inkscape:grid
       type="xygrid"
       id="grid5451"
       empspacing="8" />
    <sodipodi:guide
       orientation="1,0"
       position="8,-8.0000001"
       id="guide4063"
       inkscape:locked="false" />
    <sodipodi:guide
       orientation="1,0"
       position="4,-8.0000001"
       id="guide4065"
       inkscape:locked="false" />
    <sodipodi:guide
       orientation="0,1"
       position="-8,88.000001"
       id="guide4067"
       inkscape:locked="false" />
    <sodipodi:guide
       orientation="0,1"
       position="-8,92.000001"
       id="guide4069"
       inkscape:locked="false" />
    <sodipodi:guide
       orientation="0,1"
       position="104,4"
       id="guide4071"
       inkscape:locked="false" />
    <sodipodi:guide
       orientation="0,1"
       position="-5,8.0000001"
       id="guide4073"
       inkscape:locked="false" />
    <sodipodi:guide
       orientation="1,0"
       position="88,-8.0000001"
       id="guide4077"
       inkscape:locked="false" />
    <sodipodi:guide
       orientation="0,1"
       position="-8,84.000001"
       id="guide4074"
       inkscape:locked="false" />
    <sodipodi:guide
       orientation="1,0"
       position="12,-8.0000001"
       id="guide4076"
       inkscape:locked="false" />
    <sodipodi:guide
       orientation="1,0"
       position="84,-8.0000001"
       id="guide4080"
       inkscape:locked="false" />
    <sodipodi:guide
       position="48,-8.0000001"
       orientation="1,0"
       id="guide4170"
       inkscape:locked="false" />
    <sodipodi:guide
       position="-8,48"
       orientation="0,1"
       id="guide4172"
       inkscape:locked="false" />
    <sodipodi:guide
       position="92,-8.0000001"
       orientation="1,0"
       id="guide4760"
       inkscape:locked="false" />
    <sodipodi:guide
       position="115,12"
       orientation="0,1"
       id="guide4269"
       inkscape:locked="false" />
  </sodipodi:namedview>
  <metadata
     id="metadata4879">
    <rdf:RDF>
      <cc:Work
         rdf:about="">
        <dc:format>image/svg+xml</dc:format>
        <dc:type
           rdf:resource="http://purl.org/dc/dcmitype/StillImage" />
        <dc:title />
      </cc:Work>
    </rdf:RDF>
  </metadata>
  <g
     inkscape:label="Layer 1"
     inkscape:groupmode="layer"
     id="layer1"
     transform="translate(67.857146,-78.50504)">
    <g
       transform="matrix(0,-1,-1,0,373.50506,516.50504)"
       id="g4845"
       style="display:inline">
      <g
         inkscape:export-ydpi="90"
         inkscape:export-xdpi="90"
         inkscape:export-filename="next01.png"
         transform="matrix(-0.9996045,0,0,1,575.94296,-611.00001)"
         id="g4778"
         inkscape:label="Layer 1">
        <g
           transform="matrix(-1,0,0,1,575.99999,611)"
           id="g4780"
           style="display:inline">
          <rect
             style="color:#000000;display:inline;overflow:visible;visibility:visible;fill:none;stroke:none;stroke-width:4;marker:none;enable-background:accumulate"
             id="rect4782"
             width="96.037987"
             height="96"
             x="-438.00244"
             y="345.36221"
             transform="scale(-1,1)" />
          <g
             id="g4562"
             transform="matrix(0,-0.30903036,-0.30922348,0,615.48053,512.79887)">
            <path
               style="color:#000000;font-style:normal;font-variant:normal;font-weight:normal;font-stretch:normal;font-size:medium;line-height:normal;font-family:sans-serif;text-indent:0;text-align:start;text-decoration:none;text-decoration-line:none;text-decoration-style:solid;text-decoration-color:#000000;letter-spacing:normal;word-spacing:normal;text-transform:none;direction:ltr;block-progression:tb;writing-mode:lr-tb;baseline-shift:baseline;text-anchor:start;white-space:normal;clip-rule:nonzero;display:inline;overflow:visible;visibility:visible;opacity:1;isolation:auto;mix-blend-mode:normal;color-interpolation:sRGB;color-interpolation-filters:linearRGB;solid-color:#000000;solid-opacity:1;fill:#808080;fill-opacity:1;fill-rule:nonzero;stroke:none;stroke-width:12.94222927;stroke-linecap:butt;stroke-linejoin:miter;stroke-miterlimit:4;stroke-dasharray:none;stroke-dashoffset:0;stroke-opacity:1;marker:none;color-rendering:auto;image-rendering:auto;shape-rendering:auto;text-rendering:auto;enable-background:accumulate"
               d="M 78.839844 3.9804688 L 76.828125 3.9921875 C 65.517779 4.0580262 47.771739 7.8836511 29.884766 25.849609 C 28.335329 25.179545 26.52741 24.663608 24.533203 24.628906 C 21.575727 24.577441 18.258172 25.692337 15.335938 28.615234 C 0.30521996 43.649384 4.5546875 61.289062 4.5546875 61.289062 L 5.2460938 64.060547 L 18.488281 55.113281 L 29.691406 66.320312 L 40.896484 77.527344 L 31.953125 90.771484 L 34.722656 91.464844 C 34.722656 91.464844 52.35797 95.715806 67.388672 80.681641 C 70.139048 77.930631 71.296998 74.828516 71.371094 72.005859 C 71.42898 69.800702 70.878628 67.808391 70.146484 66.119141 C 84.91391 51.406601 90.161339 36.785176 91.564453 25.769531 C 93.000221 14.497526 90.429688 6.8222656 90.429688 6.8222656 L 90.113281 5.8867188 L 89.177734 5.5703125 C 89.177734 5.5703125 85.133451 4.2741648 78.839844 4.0546875 L 78.839844 3.9804688 z M 76.851562 7.9921875 C 77.195025 7.9900238 77.530904 7.9930951 77.861328 7.9980469 C 83.037324 8.0758353 85.845355 8.8084224 86.923828 9.1210938 C 87.47779 11.24099 88.650924 16.996587 87.597656 25.265625 C 86.266768 35.714253 81.313888 49.751005 66.4375 64.177734 C 65.852014 64.625296 65.261917 65.056873 64.669922 65.472656 C 64.666845 65.47481 64.663233 65.476363 64.660156 65.478516 C 64.379309 65.67568 64.097977 65.858672 63.816406 66.048828 C 63.402406 66.327129 62.988067 66.60701 62.572266 66.871094 C 62.447759 66.950628 62.323664 67.025311 62.199219 67.103516 C 55.475753 71.303408 48.702639 73.67018 45.292969 74.699219 C 44.799745 74.843465 44.384572 74.959133 44.089844 75.037109 C 44.082623 75.039021 44.075446 75.041097 44.068359 75.042969 L 32.521484 63.492188 L 20.9375 51.90625 C 21.004223 51.603443 21.105401 51.167582 21.244141 50.625 C 22.165646 47.165968 24.389928 40.270773 28.798828 33.628906 C 28.836344 33.572775 28.872313 33.517055 28.910156 33.460938 C 29.234668 32.976488 29.579523 32.49547 29.927734 32.015625 C 30.078819 31.808488 30.221172 31.600838 30.376953 31.394531 C 30.679611 30.992043 31.004024 30.597597 31.324219 30.201172 C 31.485926 30.001279 31.636345 29.798097 31.802734 29.599609 C 49.286396 11.545662 66.210445 8.0541283 76.851562 7.9921875 z M 63.923828 20.476562 C 60.954546 20.476562 57.984278 21.6109 55.71875 23.876953 C 51.187682 28.409044 51.187682 35.755003 55.71875 40.287109 C 60.249806 44.819203 67.595888 44.819203 72.126953 40.287109 C 74.392483 38.021061 75.525391 35.052045 75.525391 32.082031 C 75.525391 29.112014 74.392483 26.142999 72.126953 23.876953 C 69.861422 21.6109 66.89311 20.476562 63.923828 20.476562 z M 24.464844 28.628906 C 25.36557 28.64457 26.249228 28.830819 27.097656 29.095703 C 22.680237 34.996239 20.018303 41.300902 18.503906 45.830078 C 18.439002 46.023007 18.386528 46.187589 18.326172 46.373047 C 18.181345 46.819556 18.061411 47.212082 17.939453 47.617188 C 17.745769 48.261674 17.584603 48.820383 17.451172 49.326172 C 17.225538 50.167035 17.056759 50.851006 16.951172 51.326172 L 8.0136719 57.363281 C 7.5898553 52.302544 8.1156746 41.495997 18.164062 31.445312 C 20.417534 29.191331 22.480084 28.594367 24.464844 28.628906 z M 48.470703 41.810547 C 47.005577 41.810547 45.541702 42.370148 44.423828 43.488281 C 42.188074 45.724539 42.188074 49.349671 44.423828 51.585938 C 46.659576 53.822198 50.28378 53.822198 52.519531 51.585938 C 53.637405 50.467804 54.197266 49.002598 54.197266 47.537109 C 54.197266 46.07162 53.637405 44.606412 52.519531 43.488281 C 51.401656 42.370148 49.935829 41.810547 48.470703 41.810547 z M 21.138672 65.548828 C 18.786401 65.557947 16.437049 66.46098 14.642578 68.255859 C 13.925937 68.972662 13.359697 69.780035 12.927734 70.638672 C 12.883803 70.725987 12.833949 70.812006 12.792969 70.900391 C 12.408693 71.617879 9.5675744 79.341112 5.9296875 90.0625 C 5.9309236 90.063736 5.9333219 90.064144 5.9355469 90.064453 C 5.9377101 90.064725 5.9405472 90.064725 5.9433594 90.064453 C 5.9461406 90.064453 5.9488851 90.064453 5.9511719 90.064453 C 5.9536441 90.064728 5.9559496 90.065479 5.9570312 90.066406 C 17.579932 86.008251 25.341797 83.056641 25.341797 83.056641 L 25.339844 83.052734 C 26.197638 82.620778 27.002569 82.050333 27.71875 81.333984 C 30.111377 78.940815 30.915154 75.560389 30.134766 72.501953 C 30.062008 73.854419 29.530317 75.162812 28.525391 76.167969 C 28.076468 76.616994 27.563904 76.966447 27.017578 77.228516 C 26.962021 77.25516 26.907865 77.285822 26.851562 77.310547 C 26.396704 77.544008 22.358747 78.956541 15.509766 80.498047 L 15.484375 80.521484 L 15.480469 80.519531 L 15.474609 80.519531 L 15.470703 80.519531 L 15.466797 80.519531 C 15.467724 80.515266 15.467514 80.510249 15.46875 80.505859 C 15.464485 80.506787 15.461389 80.508529 15.457031 80.509766 L 15.457031 80.505859 L 15.457031 80.501953 L 15.457031 80.496094 L 15.455078 80.492188 L 15.478516 80.466797 C 17.019669 73.616246 18.430658 69.576057 18.664062 69.121094 C 18.688816 69.064779 18.719446 69.010648 18.746094 68.955078 C 19.008108 68.408631 19.359675 67.898238 19.808594 67.449219 C 20.813523 66.444056 22.118547 65.910665 23.470703 65.837891 C 22.706267 65.642752 21.922762 65.545783 21.138672 65.548828 z M 66.859375 68.824219 C 67.178378 69.812277 67.400854 70.841141 67.373047 71.900391 C 67.323787 73.776916 66.681416 75.73021 64.560547 77.851562 C 54.512168 87.902259 43.708019 88.42782 38.648438 88.003906 L 44.708984 79.029297 C 44.987148 78.956012 45.383841 78.842684 45.802734 78.722656 C 45.805953 78.721747 45.811225 78.719663 45.814453 78.71875 C 46.099786 78.636917 46.392589 78.54588 46.736328 78.441406 C 47.190356 78.304963 47.681791 78.147638 48.25 77.960938 C 48.575054 77.854058 48.884191 77.749035 49.238281 77.626953 C 49.799857 77.433019 50.399421 77.210947 51.035156 76.972656 C 55.428805 75.338151 61.233082 72.747652 66.859375 68.824219 z "
               transform="matrix(3.235928,0,0,3.2351866,231.16387,573.94761)"
               id="path4339" />
          </g>
        </g>
      </g>
    </g>
  </g>
</svg>
