<?xml version="1.0" encoding="UTF-8" standalone="no"?>
<!-- Created with Inkscape (http://www.inkscape.org/) -->

<svg
   xmlns:dc="http://purl.org/dc/elements/1.1/"
   xmlns:cc="http://creativecommons.org/ns#"
   xmlns:rdf="http://www.w3.org/1999/02/22-rdf-syntax-ns#"
   xmlns:svg="http://www.w3.org/2000/svg"
   xmlns="http://www.w3.org/2000/svg"
   xmlns:sodipodi="http://sodipodi.sourceforge.net/DTD/sodipodi-0.dtd"
   xmlns:inkscape="http://www.inkscape.org/namespaces/inkscape"
   width="96"
   height="96"
   id="svg4874"
   version="1.1"
   inkscape:version="0.91 r13725"
   viewBox="0 0 96 96.000001"
   sodipodi:docname="preferences-desktop-apps-media-symbolic02.svg">
  <defs
     id="defs4876" />
  <sodipodi:namedview
     id="base"
     pagecolor="#ffffff"
     bordercolor="#666666"
     borderopacity="1.0"
     inkscape:pageopacity="0.0"
     inkscape:pageshadow="2"
     inkscape:zoom="7.024999"
     inkscape:cx="-49.572966"
     inkscape:cy="43.096073"
     inkscape:document-units="px"
     inkscape:current-layer="g4780"
     showgrid="true"
     showborder="true"
     fit-margin-top="0"
     fit-margin-left="0"
     fit-margin-right="0"
     fit-margin-bottom="0"
     inkscape:snap-bbox="true"
     inkscape:bbox-paths="true"
     inkscape:bbox-nodes="true"
     inkscape:snap-bbox-edge-midpoints="true"
     inkscape:snap-bbox-midpoints="true"
     inkscape:object-paths="true"
     inkscape:snap-intersection-paths="true"
     inkscape:object-nodes="true"
     inkscape:snap-smooth-nodes="true"
     inkscape:snap-midpoints="true"
     inkscape:snap-object-midpoints="true"
     inkscape:snap-center="true"
     showguides="true"
     inkscape:guide-bbox="true"
     inkscape:snap-global="false"
     inkscape:locked="false">
    <inkscape:grid
       type="xygrid"
       id="grid5451"
       empspacing="8" />
    <sodipodi:guide
       orientation="1,0"
       position="8,-8.0000001"
       id="guide4063"
       inkscape:locked="false" />
    <sodipodi:guide
       orientation="1,0"
       position="4,-8.0000001"
       id="guide4065"
       inkscape:locked="false" />
    <sodipodi:guide
       orientation="0,1"
       position="-8,88.000001"
       id="guide4067"
       inkscape:locked="false" />
    <sodipodi:guide
       orientation="0,1"
       position="-8,92.000001"
       id="guide4069"
       inkscape:locked="false" />
    <sodipodi:guide
       orientation="0,1"
       position="104,4"
       id="guide4071"
       inkscape:locked="false" />
    <sodipodi:guide
       orientation="0,1"
       position="-5,8.0000001"
       id="guide4073"
       inkscape:locked="false" />
    <sodipodi:guide
       orientation="1,0"
       position="88,-8.0000001"
       id="guide4077"
       inkscape:locked="false" />
    <sodipodi:guide
       orientation="0,1"
       position="-8,84.000001"
       id="guide4074"
       inkscape:locked="false" />
    <sodipodi:guide
       orientation="1,0"
       position="12,-8.0000001"
       id="guide4076"
       inkscape:locked="false" />
    <sodipodi:guide
       orientation="1,0"
       position="84,-8.0000001"
       id="guide4080"
       inkscape:locked="false" />
    <sodipodi:guide
       position="48,-8.0000001"
       orientation="1,0"
       id="guide4170"
       inkscape:locked="false" />
    <sodipodi:guide
       position="-8,48"
       orientation="0,1"
       id="guide4172"
       inkscape:locked="false" />
    <sodipodi:guide
       position="92,18.64769"
       orientation="1,0"
       id="guide4760"
       inkscape:locked="false" />
    <sodipodi:guide
       position="115,12"
       orientation="0,1"
       id="guide4269"
       inkscape:locked="false" />
  </sodipodi:namedview>
  <metadata
     id="metadata4879">
    <rdf:RDF>
      <cc:Work
         rdf:about="">
        <dc:format>image/svg+xml</dc:format>
        <dc:type
           rdf:resource="http://purl.org/dc/dcmitype/StillImage" />
        <dc:title />
      </cc:Work>
    </rdf:RDF>
  </metadata>
  <g
     inkscape:label="Layer 1"
     inkscape:groupmode="layer"
     id="layer1"
     transform="translate(67.857146,-78.50504)">
    <g
       transform="matrix(0,-1,-1,0,373.50506,516.50504)"
       id="g4845">
      <g
         inkscape:export-ydpi="90"
         inkscape:export-xdpi="90"
         inkscape:export-filename="next01.png"
         transform="matrix(-0.9996045,0,0,1,575.94296,-611.00001)"
         id="g4778"
         inkscape:label="Layer 1">
        <g
           transform="matrix(-1,0,0,1,575.99999,611)"
           id="g4780">
          <rect
             style="color:#000000;fill:none;stroke-width:4"
             id="rect4782"
             width="96.037987"
             height="96"
             x="-438.00244"
             y="345.36221"
             transform="scale(-1,1)" />
          <path
             inkscape:connector-curvature="0"
             id="path4205"
             d="m 408.08596,404.4991 -36.32154,0 c 0,0 8.57441,-19.16215 18.15979,-32.27377 9.58538,13.11162 18.16175,32.27377 18.16175,32.27377 z"
             style="color:#000000;fill:#808080;stroke-width:3" />
          <g
             transform="matrix(0,-1,-1.0003957,0,516.53857,373.50507)"
             id="layer1-0"
             inkscape:label="Layer 1">
            <rect
               style="color:#000000;fill:none;stroke-width:4"
               id="rect4782-6"
               width="96"
               height="96"
               x="78.505051"
               y="-28.142857"
               transform="matrix(0,1,-1,0,0,0)" />
            <path
               style="color:#000000;solid-opacity:1;fill:#808080;stroke-width:4"
               d="M 16.84344,116.68196 C 11.418893,96.442458 -9.4418797,84.401655 -29.685864,89.824625 c -20.243984,5.422969 -32.289886,26.278835 -26.865339,46.518325 5.424545,20.23949 26.287206,32.27979 46.53119,26.85682 20.243984,-5.42297 32.287998,-26.27833 26.863453,-46.51781 z m -3.86377,1.03502 c 4.864782,18.15096 -5.8788957,36.75543 -24.035207,41.61915 -18.156312,4.86373 -36.767115,-5.87725 -41.631896,-24.02821 -4.864785,-18.15097 5.880781,-36.755935 24.037093,-41.619658 18.156311,-4.863723 36.7652262,5.877753 41.63001,24.028718 z"
               id="circle4169"
               inkscape:connector-curvature="0" />
            <path
               id="path4181"
               transform="translate(-67.857146,78.50504)"
               d="m 47.96875,1.9960938 c -3.861194,-10e-7 -5.175452,0.070957 -5.714844,3.4414062 l -0.205078,1.1914062 c -0.509623,2.353634 -0.84158,3.4398818 -4.111328,4.7558598 l 3.320312,-0.160157 6.710938,0 6.710938,0 L 58,11.384766 C 54.730257,10.068791 54.400245,8.9825362 53.890625,6.6289062 L 53.683594,5.4375 C 53.144203,2.067054 51.829947,1.9960938 47.96875,1.9960938 Z M 38,84.615234 c 3.269743,1.31598 3.599755,2.40223 4.109375,4.75586 l 0.207031,1.191406 c 0.539391,3.37045 1.853647,3.441406 5.714844,3.441406 3.861194,0 5.175452,-0.071 5.714844,-3.441406 l 0.205078,-1.191406 c 0.509623,-2.35363 0.84158,-3.43988 4.111328,-4.75586 l -3.320312,0.160157 -6.710938,0 -6.710938,0 L 38,84.615234 Z"
               style="color:#000000;fill:#808080;stroke-width:16.00000191"
               inkscape:connector-curvature="0" />
            <path
               inkscape:connector-curvature="0"
               style="color:#000000;fill:#808080;stroke-width:16.00000191"
               d="M 7.1579898,89.26873 C 4.0342188,86.999176 2.9292536,86.284081 0.51177604,88.693785 l -0.86620258,0.843326 C -2.1501516,91.141692 -3.0571909,91.825365 -6.475985,90.968104 l 2.7803267,1.822061 5.4292629,3.94459 5.4292629,3.944595 2.5920509,2.0812 C 7.8831515,99.773993 8.2546507,98.701218 9.2257885,96.497545 L 9.7585879,95.411987 C 11.30331,92.368193 10.281764,91.538284 7.1579898,89.26873 Z m -56.6272008,60.9808 c 1.871764,2.98656 1.500268,4.05933 0.52913,6.26301 l -0.532799,1.08555 c -1.544724,3.0438 -0.523176,3.87371 2.600598,6.14326 3.123772,2.26955 4.228759,2.98462 6.646214,0.57495 l 0.866202,-0.84333 c 1.795723,-1.60458 2.702764,-2.28825 6.121559,-1.43099 l -2.780327,-1.82207 -5.429263,-3.94459 -5.429263,-3.94459 z"
               id="path4231" />
            <path
               id="path4233"
               d="m 23.885508,112.25933 c -1.193173,-3.67221 -1.666787,-4.90022 -5.038956,-4.37169 l -1.196467,0.17313 c -2.395921,0.24263 -3.531584,0.26259 -5.793561,-2.44047 l 1.178351,3.10832 2.073794,6.38248 2.073791,6.38248 0.873715,3.2073 c 0.241163,-3.51637 1.172273,-4.16591 3.253227,-5.37789 l 1.069118,-0.56507 c 3.038804,-1.55451 2.700164,-2.82637 1.506988,-6.49859 z m -81.655983,16.04987 c -0.241167,3.51637 -1.172272,4.1659 -3.253229,5.3779 l -1.069114,0.56505 c -3.038809,1.55452 -2.700168,2.82639 -1.50699,6.4986 1.193177,3.67221 1.666823,4.90021 5.038953,4.37169 l 1.196469,-0.17313 c 2.395919,-0.24263 3.531582,-0.26259 5.79356,2.44047 l -1.178346,-3.10832 -2.073794,-6.38248 -2.073794,-6.38248 z"
               style="color:#000000;fill:#808080;stroke-width:16.00000191"
               inkscape:connector-curvature="0" />
            <path
               inkscape:connector-curvature="0"
               style="color:#000000;fill:#808080;stroke-width:16.00000191"
               d="m 23.904822,140.69131 c 1.193173,-3.67221 1.531818,-4.94408 -1.506986,-6.4986 l -1.069726,-0.5632 c -2.080955,-1.21199 -3.011458,-1.86337 -3.252617,-5.37975 l -0.873718,3.2073 -2.073793,6.38248 -2.073796,6.38248 -1.178353,3.10832 c 2.261975,-2.70305 3.397049,-2.68125 5.79296,-2.43861 l 1.197075,0.17126 c 3.372162,0.52854 3.845777,-0.69946 5.038954,-4.37168 z m -75.494955,-35.01157 c -2.261979,2.70305 -3.397043,2.68124 -5.792968,2.43862 l -1.197059,-0.17128 c -3.372172,-0.52853 -3.845793,0.69948 -5.038962,4.37169 -1.193171,3.67221 -1.531783,4.94409 1.506984,6.4986 l 1.069727,0.5632 c 2.080953,1.21199 3.011456,1.86337 3.252616,5.37975 l 0.873723,-3.2073 2.073793,-6.38248 2.073793,-6.38248 z"
               id="path4235" />
            <path
               id="path4237"
               d="m 7.2085499,163.70461 c 3.1237681,-2.26955 4.1453241,-3.09946 2.6006039,-6.14326 L 9.274768,156.47694 c -0.9711381,-2.20367 -1.3410593,-3.27759 0.5307153,-6.26415 l -2.5920564,2.0812 -5.4292614,3.94459 -5.4292638,3.94459 -2.7803323,1.82207 c 3.4187892,-0.85726 4.3242696,-0.17244 6.11998211,1.43214 l 0.86778992,0.84217 c 2.41746837,2.40971 3.52243127,1.69462 6.64620847,-0.57494 z M -33.288867,91.004836 c -3.418793,0.857255 -4.324259,0.172436 -6.119995,-1.432137 l -0.867765,-0.842182 c -2.417482,-2.409702 -3.522456,-1.694609 -6.646221,0.574944 -3.123766,2.269552 -4.145301,3.099494 -2.600605,6.143261 l 0.534386,1.084408 c 0.971137,2.203674 1.341058,3.277588 -0.530716,6.26415 l 2.592061,-2.0812 5.429261,-3.944589 5.429262,-3.94459 z"
               style="color:#000000;fill:#808080;stroke-width:16.00000191"
               inkscape:connector-curvature="0" />
          </g>
        </g>
      </g>
    </g>
  </g>
</svg>
