<?xml version="1.0" encoding="UTF-8" standalone="no"?>
<!-- Created with Inkscape (http://www.inkscape.org/) -->

<svg
   xmlns:dc="http://purl.org/dc/elements/1.1/"
   xmlns:cc="http://creativecommons.org/ns#"
   xmlns:rdf="http://www.w3.org/1999/02/22-rdf-syntax-ns#"
   xmlns:svg="http://www.w3.org/2000/svg"
   xmlns="http://www.w3.org/2000/svg"
   xmlns:sodipodi="http://sodipodi.sourceforge.net/DTD/sodipodi-0.dtd"
   xmlns:inkscape="http://www.inkscape.org/namespaces/inkscape"
   width="96"
   height="96"
   id="svg4874"
   version="1.1"
   inkscape:version="0.91 r13725"
   viewBox="0 0 96 96.000001"
   sodipodi:docname="preferences-desktop-keyboard-shortcuts-symbolic01b.svg">
  <defs
     id="defs4876" />
  <sodipodi:namedview
     id="base"
     pagecolor="#ffffff"
     bordercolor="#666666"
     borderopacity="1.0"
     inkscape:pageopacity="0.0"
     inkscape:pageshadow="2"
     inkscape:zoom="10.976561"
     inkscape:cx="3.5757972"
     inkscape:cy="36.136078"
     inkscape:document-units="px"
     inkscape:current-layer="g4780"
     showgrid="true"
     showborder="true"
     fit-margin-top="0"
     fit-margin-left="0"
     fit-margin-right="0"
     fit-margin-bottom="0"
     inkscape:snap-bbox="true"
     inkscape:bbox-paths="true"
     inkscape:bbox-nodes="true"
     inkscape:snap-bbox-edge-midpoints="true"
     inkscape:snap-bbox-midpoints="true"
     inkscape:object-paths="true"
     inkscape:snap-intersection-paths="true"
     inkscape:object-nodes="true"
     inkscape:snap-smooth-nodes="false"
     inkscape:snap-midpoints="false"
     inkscape:snap-object-midpoints="false"
     inkscape:snap-center="true"
     showguides="true"
     inkscape:guide-bbox="true"
     inkscape:snap-global="true"
     inkscape:snap-others="true">
    <inkscape:grid
       type="xygrid"
       id="grid5451"
       empspacing="8" />
    <sodipodi:guide
       orientation="1,0"
       position="8,-8.0000001"
       id="guide4063" />
    <sodipodi:guide
       orientation="1,0"
       position="4,-8.0000001"
       id="guide4065" />
    <sodipodi:guide
       orientation="0,1"
       position="-8,88.000001"
       id="guide4067" />
    <sodipodi:guide
       orientation="0,1"
       position="-8,92.000001"
       id="guide4069" />
    <sodipodi:guide
       orientation="0,1"
       position="-5,8.0000001"
       id="guide4073" />
    <sodipodi:guide
       orientation="1,0"
       position="92,-8.0000001"
       id="guide4075" />
    <sodipodi:guide
       orientation="1,0"
       position="88,-8.0000001"
       id="guide4077" />
    <sodipodi:guide
       orientation="0,1"
       position="-8,84.000001"
       id="guide4074" />
    <sodipodi:guide
       orientation="1,0"
       position="12,-8.0000001"
       id="guide4076" />
    <sodipodi:guide
       orientation="0,1"
       position="-5,12"
       id="guide4078" />
    <sodipodi:guide
       orientation="1,0"
       position="84,-9.0000001"
       id="guide4080" />
    <sodipodi:guide
       position="48,-8.0000001"
       orientation="1,0"
       id="guide4170" />
    <sodipodi:guide
       position="-8,48"
       orientation="0,1"
       id="guide4172" />
    <sodipodi:guide
       position="70,4"
       orientation="0,1"
       id="guide3238" />
  </sodipodi:namedview>
  <metadata
     id="metadata4879">
    <rdf:RDF>
      <cc:Work
         rdf:about="">
        <dc:format>image/svg+xml</dc:format>
        <dc:type
           rdf:resource="http://purl.org/dc/dcmitype/StillImage" />
        <dc:title />
      </cc:Work>
    </rdf:RDF>
  </metadata>
  <g
     inkscape:label="Layer 1"
     inkscape:groupmode="layer"
     id="layer1"
     transform="translate(67.857146,-78.50504)">
    <g
       transform="matrix(0,-1,-1,0,373.50506,516.50504)"
       id="g4845">
      <g
         inkscape:export-ydpi="90"
         inkscape:export-xdpi="90"
         inkscape:export-filename="next01.png"
         transform="matrix(-0.9996045,0,0,1,575.94296,-611.00001)"
         id="g4778"
         inkscape:label="Layer 1">
        <g
           transform="matrix(-1,0,0,1,575.99999,611)"
           id="g4780">
          <rect
             style="color:#000000;fill:none;stroke-width:4"
             id="rect4782"
             width="96.037987"
             height="96"
             x="-438.00244"
             y="345.36221"
             transform="scale(-1,1)" />
          <path
             style="color:#000000;solid-opacity:1;fill:#808080;stroke-width:4"
             d="m 385.98047,420.35742 c 0,4.65031 -0.43252,8.01469 -2.71094,10.29297 -2.27842,2.27829 -5.6431,2.71094 -10.29297,2.71094 l -10.0039,0 c -4.64985,0 -8.01454,-0.43266 -10.29297,-2.71094 -2.27843,-2.27828 -2.71094,-5.64265 -2.71094,-10.29297 l 0,-25.99023 c 0,-4.65031 0.43251,-8.01469 2.71094,-10.29297 2.27843,-2.27828 5.64312,-2.71289 10.29297,-2.71289 l 10.0039,0 c 4.64987,0 8.01455,0.4346 10.29297,2.71289 2.27842,2.27829 2.71094,5.64266 2.71094,10.29297 l 0,25.99023 z m -4,0 0,-25.99023 c 0,-4.35404 -0.56621,-6.49204 -1.53906,-7.46485 -0.97286,-0.9728 -3.11116,-1.54101 -7.46485,-1.54101 l -10.0039,0 c -4.35367,0 -6.49198,0.56821 -7.46485,1.54101 -0.97287,0.97281 -1.53906,3.11082 -1.53906,7.46485 l 0,25.99023 c 0,4.35404 0.5662,6.49204 1.53906,7.46485 0.97287,0.9728 3.11118,1.53906 7.46485,1.53906 l 10.0039,0 c 4.35369,0 6.49199,-0.56627 7.46485,-1.53906 0.97285,-0.9728 1.53906,-3.11081 1.53906,-7.46485 z"
             id="rect3233"
             inkscape:connector-curvature="0" />
          <path
             style="color:#000000;opacity:0.5;solid-opacity:1;fill:#808080;stroke-width:4"
             d="m 406.99023,397.36133 c -4.64984,0 -8.01454,0.43461 -10.29296,2.71289 -2.27843,2.27828 -2.71094,5.64266 -2.71094,10.29297 l 0,9.99023 c 0,4.65032 0.43251,8.01469 2.71094,10.29297 2.27843,2.27828 5.64312,2.71094 10.29296,2.71094 l 10.00391,0 c 4.64987,0 8.01455,-0.43265 10.29297,-2.71094 2.27842,-2.27828 2.71094,-5.64266 2.71094,-10.29297 l 0,-9.99023 c 0,-4.65031 -0.43252,-8.01468 -2.71094,-10.29297 -2.27842,-2.27829 -5.6431,-2.71289 -10.29297,-2.71289 l -10.00391,0 z m 0,4 10.00391,0 c 4.35369,0 6.49199,0.56821 7.46484,1.54101 0.97286,0.97281 1.53907,3.11081 1.53907,7.46485 l 0,9.99023 c 0,4.35404 -0.56621,6.49205 -1.53907,7.46485 -0.97285,0.97279 -3.11115,1.53906 -7.46484,1.53906 l -10.00391,0 c -4.35366,0 -6.49197,-0.56626 -7.46484,-1.53906 -0.97287,-0.97281 -1.53906,-3.11081 -1.53906,-7.46485 l 0,-9.99023 c 0,-4.35403 0.56619,-6.49204 1.53906,-7.46485 0.97287,-0.9728 3.11118,-1.54101 7.46484,-1.54101 z"
             id="path3236"
             inkscape:connector-curvature="0" />
          <path
             style="color:#000000;solid-opacity:1;fill:#808080;stroke-width:4"
             d="m 406.99023,353.36133 c -4.64984,0 -8.01454,0.43461 -10.29296,2.71289 -2.27843,2.27828 -2.71094,5.64266 -2.71094,10.29297 l 0,9.99023 c 0,4.65032 0.43251,8.01469 2.71094,10.29297 2.27843,2.27828 5.64312,2.71094 10.29296,2.71094 l 10.00391,0 c 4.64987,0 8.01455,-0.43265 10.29297,-2.71094 2.27842,-2.27828 2.71094,-5.64266 2.71094,-10.29297 l 0,-9.99023 c 0,-4.65031 -0.43252,-8.01468 -2.71094,-10.29297 -2.27842,-2.27829 -5.6431,-2.71289 -10.29297,-2.71289 l -10.00391,0 z m 0,4 10.00391,0 c 4.35369,0 6.49199,0.56821 7.46484,1.54101 0.97286,0.97281 1.53907,3.11081 1.53907,7.46485 l 0,9.99023 c 0,4.35404 -0.56621,6.49205 -1.53907,7.46485 -0.97285,0.97279 -3.11115,1.53906 -7.46484,1.53906 l -10.00391,0 c -4.35366,0 -6.49197,-0.56626 -7.46484,-1.53906 -0.97287,-0.97281 -1.53906,-3.11081 -1.53906,-7.46485 l 0,-9.99023 c 0,-4.35403 0.56619,-6.49204 1.53906,-7.46485 0.97287,-0.9728 3.11118,-1.54101 7.46484,-1.54101 z"
             id="path3240"
             inkscape:connector-curvature="0" />
          <path
             style="color:#000000;solid-opacity:1;fill:#808080;stroke-width:4.00079155"
             d="m 365.97461,363.36133 0,4.00195 24.00977,0 0,-4.00195 -24.00977,0 z"
             id="path3242"
             inkscape:connector-curvature="0" />
          <path
             style="color:#000000;solid-opacity:1;fill:#808080;stroke-width:4.00079155"
             d="m 375.97852,353.36133 0,24 4,0 0,-24 -4,0 z"
             id="path3244"
             inkscape:connector-curvature="0" />
        </g>
      </g>
    </g>
  </g>
</svg>
