<?xml version="1.0" encoding="UTF-8" standalone="no"?>
<!-- Created with Inkscape (http://www.inkscape.org/) -->

<svg
   xmlns:dc="http://purl.org/dc/elements/1.1/"
   xmlns:cc="http://creativecommons.org/ns#"
   xmlns:rdf="http://www.w3.org/1999/02/22-rdf-syntax-ns#"
   xmlns:svg="http://www.w3.org/2000/svg"
   xmlns="http://www.w3.org/2000/svg"
   xmlns:sodipodi="http://sodipodi.sourceforge.net/DTD/sodipodi-0.dtd"
   xmlns:inkscape="http://www.inkscape.org/namespaces/inkscape"
   width="96"
   height="96"
   id="svg4874"
   version="1.1"
   inkscape:version="0.91 r13725"
   viewBox="0 0 96 96.000001"
   sodipodi:docname="preferences-desktop-launcher-symbolic.svg">
  <defs
     id="defs4876" />
  <sodipodi:namedview
     id="base"
     pagecolor="#ffffff"
     bordercolor="#666666"
     borderopacity="1.0"
     inkscape:pageopacity="0.0"
     inkscape:pageshadow="2"
     inkscape:zoom="8.7812488"
     inkscape:cx="-27.450542"
     inkscape:cy="71.470458"
     inkscape:document-units="px"
     inkscape:current-layer="g4780"
     showgrid="true"
     showborder="true"
     fit-margin-top="0"
     fit-margin-left="0"
     fit-margin-right="0"
     fit-margin-bottom="0"
     inkscape:snap-bbox="true"
     inkscape:bbox-paths="true"
     inkscape:bbox-nodes="true"
     inkscape:snap-bbox-edge-midpoints="true"
     inkscape:snap-bbox-midpoints="true"
     inkscape:object-paths="true"
     inkscape:snap-intersection-paths="true"
     inkscape:object-nodes="true"
     inkscape:snap-smooth-nodes="true"
     inkscape:snap-midpoints="true"
     inkscape:snap-object-midpoints="true"
     inkscape:snap-center="true"
     showguides="true"
     inkscape:guide-bbox="true"
     inkscape:snap-global="true"
     inkscape:locked="false">
    <inkscape:grid
       type="xygrid"
       id="grid5451"
       empspacing="8" />
    <sodipodi:guide
       orientation="1,0"
       position="8,-8.0000001"
       id="guide4063"
       inkscape:locked="false" />
    <sodipodi:guide
       orientation="1,0"
       position="4,-8.0000001"
       id="guide4065"
       inkscape:locked="false" />
    <sodipodi:guide
       orientation="0,1"
       position="-8,88.000001"
       id="guide4067"
       inkscape:locked="false" />
    <sodipodi:guide
       orientation="0,1"
       position="-8,92.000001"
       id="guide4069"
       inkscape:locked="false" />
    <sodipodi:guide
       orientation="0,1"
       position="104,4"
       id="guide4071"
       inkscape:locked="false" />
    <sodipodi:guide
       orientation="0,1"
       position="-5,8.0000001"
       id="guide4073"
       inkscape:locked="false" />
    <sodipodi:guide
       orientation="1,0"
       position="88,-8.0000001"
       id="guide4077"
       inkscape:locked="false" />
    <sodipodi:guide
       orientation="0,1"
       position="-8,84.000001"
       id="guide4074"
       inkscape:locked="false" />
    <sodipodi:guide
       orientation="1,0"
       position="12,-8.0000001"
       id="guide4076"
       inkscape:locked="false" />
    <sodipodi:guide
       orientation="1,0"
       position="84,-8.0000001"
       id="guide4080"
       inkscape:locked="false" />
    <sodipodi:guide
       position="48,-8.0000001"
       orientation="1,0"
       id="guide4170"
       inkscape:locked="false" />
    <sodipodi:guide
       position="-8,48"
       orientation="0,1"
       id="guide4172"
       inkscape:locked="false" />
    <sodipodi:guide
       position="92,-8.0000001"
       orientation="1,0"
       id="guide4760"
       inkscape:locked="false" />
    <sodipodi:guide
       position="115,12"
       orientation="0,1"
       id="guide4269"
       inkscape:locked="false" />
  </sodipodi:namedview>
  <metadata
     id="metadata4879">
    <rdf:RDF>
      <cc:Work
         rdf:about="">
        <dc:format>image/svg+xml</dc:format>
        <dc:type
           rdf:resource="http://purl.org/dc/dcmitype/StillImage" />
        <dc:title />
      </cc:Work>
    </rdf:RDF>
  </metadata>
  <g
     inkscape:label="Layer 1"
     inkscape:groupmode="layer"
     id="layer1"
     transform="translate(67.857146,-78.50504)">
    <g
       transform="matrix(0,-1,-1,0,373.50506,516.50504)"
       id="g4845"
       style="display:inline">
      <g
         inkscape:export-ydpi="90"
         inkscape:export-xdpi="90"
         inkscape:export-filename="next01.png"
         transform="matrix(-0.9996045,0,0,1,575.94296,-611.00001)"
         id="g4778"
         inkscape:label="Layer 1">
        <g
           transform="matrix(-1,0,0,1,575.99999,611)"
           id="g4780"
           style="display:inline">
          <rect
             style="color:#000000;display:inline;overflow:visible;visibility:visible;fill:none;stroke:none;stroke-width:4;marker:none;enable-background:accumulate"
             id="rect4782"
             width="96.037987"
             height="96"
             x="-438.00244"
             y="345.36221"
             transform="scale(-1,1)" />
          <path
             style="color:#000000;font-style:normal;font-variant:normal;font-weight:normal;font-stretch:normal;font-size:medium;line-height:normal;font-family:sans-serif;text-indent:0;text-align:start;text-decoration:none;text-decoration-line:none;text-decoration-style:solid;text-decoration-color:#000000;letter-spacing:normal;word-spacing:normal;text-transform:none;direction:ltr;block-progression:tb;writing-mode:lr-tb;baseline-shift:baseline;text-anchor:start;white-space:normal;clip-rule:nonzero;display:inline;overflow:visible;visibility:visible;opacity:1;isolation:auto;mix-blend-mode:normal;color-interpolation:sRGB;color-interpolation-filters:linearRGB;solid-color:#000000;solid-opacity:1;fill:#808080;fill-opacity:1;fill-rule:nonzero;stroke:none;stroke-width:4.00079155;stroke-linecap:butt;stroke-linejoin:miter;stroke-miterlimit:4;stroke-dasharray:none;stroke-dashoffset:0;stroke-opacity:1;marker:none;color-rendering:auto;image-rendering:auto;shape-rendering:auto;text-rendering:auto;enable-background:accumulate"
             d="M 15.976562 14 C 10.943804 14.058177 7.26124 13.881536 4.25 15.542969 C 2.74438 16.37368 1.5531413 17.776754 0.89453125 19.53125 C 0.23593125 21.285746 -0.001953125 23.369641 -0.001953125 26 L -0.001953125 70 C -0.001953125 72.630359 0.23593125 74.714254 0.89453125 76.46875 C 1.5531413 78.223246 2.74438 79.62632 4.25 80.457031 C 7.26124 82.118454 10.943804 81.941823 15.976562 82 L 15.988281 82 L 80.009766 82 L 80.021484 82 C 85.054244 81.941813 88.736807 82.118454 91.748047 80.457031 C 93.253667 79.62632 94.444916 78.223246 95.103516 76.46875 C 95.762116 74.714254 96 72.630359 96 70 L 96 26 C 96 23.369641 95.762116 21.285746 95.103516 19.53125 C 94.444916 17.776754 93.253667 16.37368 91.748047 15.542969 C 88.736807 13.881536 85.054244 14.058177 80.021484 14 L 80.009766 14 L 15.988281 14 L 15.976562 14 z M 20 18 L 79.998047 18 C 85.036307 18.058767 88.350163 18.235058 89.814453 19.042969 C 90.547973 19.447679 90.967112 19.897711 91.357422 20.9375 C 91.747742 21.977279 91.998047 23.630358 91.998047 26 L 91.998047 70 C 91.998047 72.369642 91.747742 74.022721 91.357422 75.0625 C 90.967112 76.102289 90.547973 76.552311 89.814453 76.957031 C 88.350163 77.764942 85.036307 77.941223 79.998047 78 L 79.974609 78 L 20 78 L 20 18 z M 9.0019531 22 L 10.998047 22 C 15.000037 22 16 23.000013 16 27 C 16 30.999987 15.000037 32 10.998047 32 L 9.0019531 32 C 4.9999631 32 4.00001 30.999987 4 27 C 3.99999 23.000013 4.9999631 22 9.0019531 22 z M 9.0019531 36 L 10.998047 36 C 15.000037 36 16 36.999983 16 41 C 16 45.000017 15.000037 46 10.998047 46 L 9.0019531 46 C 4.9999631 46 4.00001 45.000017 4 41 C 3.99999 36.999983 4.9999631 36 9.0019531 36 z M 9.0019531 50 L 10.998047 50 C 15.000037 50 16 50.999983 16 55 C 16 59.000017 15.000037 60 10.998047 60 L 9.0019531 60 C 4.9999631 60 4.00001 59.000017 4 55 C 3.99999 50.999983 4.9999631 50 9.0019531 50 z M 9.0019531 64 L 10.998047 64 C 15.000037 64 16 64.999983 16 69 C 16 73.000017 15.000037 74 10.998047 74 L 9.0019531 74 C 4.9999631 74 4.00001 73.000017 4 69 C 3.99999 64.999983 4.9999631 64 9.0019531 64 z "
             transform="matrix(0,-1,-1.0003957,0,438.00245,441.36222)"
             id="path4297" />
        </g>
      </g>
    </g>
  </g>
</svg>
