<?xml version="1.0" encoding="UTF-8" standalone="no"?>
<!-- Created with Inkscape (http://www.inkscape.org/) -->

<svg
   xmlns:dc="http://purl.org/dc/elements/1.1/"
   xmlns:cc="http://creativecommons.org/ns#"
   xmlns:rdf="http://www.w3.org/1999/02/22-rdf-syntax-ns#"
   xmlns:svg="http://www.w3.org/2000/svg"
   xmlns="http://www.w3.org/2000/svg"
   xmlns:sodipodi="http://sodipodi.sourceforge.net/DTD/sodipodi-0.dtd"
   xmlns:inkscape="http://www.inkscape.org/namespaces/inkscape"
   width="96"
   height="96"
   id="svg4874"
   version="1.1"
   inkscape:version="0.91+devel r"
   viewBox="0 0 96 96.000001"
   sodipodi:docname="stock_music.svg">
  <defs
     id="defs4876" />
  <sodipodi:namedview
     id="base"
     pagecolor="#ffffff"
     bordercolor="#666666"
     borderopacity="1.0"
     inkscape:pageopacity="0.0"
     inkscape:pageshadow="2"
     inkscape:zoom="8.7812488"
     inkscape:cx="56.506765"
     inkscape:cy="41.753728"
     inkscape:document-units="px"
     inkscape:current-layer="g4780"
     showgrid="true"
     showborder="true"
     fit-margin-top="0"
     fit-margin-left="0"
     fit-margin-right="0"
     fit-margin-bottom="0"
     inkscape:snap-bbox="true"
     inkscape:bbox-paths="true"
     inkscape:bbox-nodes="true"
     inkscape:snap-bbox-edge-midpoints="true"
     inkscape:snap-bbox-midpoints="true"
     inkscape:object-paths="true"
     inkscape:snap-intersection-paths="true"
     inkscape:object-nodes="true"
     inkscape:snap-smooth-nodes="true"
     inkscape:snap-midpoints="true"
     inkscape:snap-object-midpoints="true"
     inkscape:snap-center="true"
     showguides="false"
     inkscape:guide-bbox="true"
     inkscape:snap-global="false">
    <inkscape:grid
       type="xygrid"
       id="grid5451"
       empspacing="8" />
    <sodipodi:guide
       orientation="1,0"
       position="8,-8.0000001"
       id="guide4063"
       inkscape:locked="false" />
    <sodipodi:guide
       orientation="1,0"
       position="4,-8.0000001"
       id="guide4065"
       inkscape:locked="false" />
    <sodipodi:guide
       orientation="0,1"
       position="-8,88.000001"
       id="guide4067"
       inkscape:locked="false" />
    <sodipodi:guide
       orientation="0,1"
       position="-8,92.000001"
       id="guide4069"
       inkscape:locked="false" />
    <sodipodi:guide
       orientation="0,1"
       position="104,4"
       id="guide4071"
       inkscape:locked="false" />
    <sodipodi:guide
       orientation="0,1"
       position="-5,8.0000001"
       id="guide4073"
       inkscape:locked="false" />
    <sodipodi:guide
       orientation="1,0"
       position="88,-8.0000001"
       id="guide4077"
       inkscape:locked="false" />
    <sodipodi:guide
       orientation="0,1"
       position="-8,84.000001"
       id="guide4074"
       inkscape:locked="false" />
    <sodipodi:guide
       orientation="1,0"
       position="12,-8.0000001"
       id="guide4076"
       inkscape:locked="false" />
    <sodipodi:guide
       orientation="1,0"
       position="84,-8.0000001"
       id="guide4080"
       inkscape:locked="false" />
    <sodipodi:guide
       position="48,-8.0000001"
       orientation="1,0"
       id="guide4170"
       inkscape:locked="false" />
    <sodipodi:guide
       position="-8,48"
       orientation="0,1"
       id="guide4172"
       inkscape:locked="false" />
    <sodipodi:guide
       position="92,-8.0000001"
       orientation="1,0"
       id="guide4760"
       inkscape:locked="false" />
  </sodipodi:namedview>
  <metadata
     id="metadata4879">
    <rdf:RDF>
      <cc:Work
         rdf:about="">
        <dc:format>image/svg+xml</dc:format>
        <dc:type
           rdf:resource="http://purl.org/dc/dcmitype/StillImage" />
        <dc:title />
      </cc:Work>
    </rdf:RDF>
  </metadata>
  <g
     inkscape:label="Layer 1"
     inkscape:groupmode="layer"
     id="layer1"
     transform="translate(67.857146,-78.50504)">
    <g
       transform="matrix(0,-1,-1,0,373.50506,516.50504)"
       id="g4845"
       style="display:inline">
      <g
         inkscape:export-ydpi="90"
         inkscape:export-xdpi="90"
         inkscape:export-filename="next01.png"
         transform="matrix(-0.9996045,0,0,1,575.94296,-611.00001)"
         id="g4778"
         inkscape:label="Layer 1">
        <g
           transform="matrix(-1,0,0,1,575.99999,611)"
           id="g4780"
           style="display:inline">
          <path
             inkscape:connector-curvature="0"
             id="path4393"
             d="m 434.94803,360.83478 c 0.0125,1.12499 -0.16349,2.62112 -0.46267,4.61114 l -5.32748,33.94069 c -1.70308,7.99492 -2.23261,7.99488 -8.98973,7.99488 h -13.23182 -42.13175 c 0.41314,0.58986 0.82896,1.17197 1.23767,1.78162 h -0.002 c 1.70285,2.54004 2.91458,5.24656 2.9146,8.88277 0,4.55464 -1.74495,7.27171 -4.04296,8.91596 -2.298,1.64421 -5.19476,2.18946 -7.43386,2.18946 -2.70005,0 -5.58147,-0.92217 -7.77745,-2.92125 -2.19598,-1.99908 -3.73443,-5.0725 -3.73449,-9.4916 0,-4.99015 1.39467,-8.50054 4.11712,-10.48487 2.14348,-1.56235 5.00648,-2.4256 8.53879,-2.73391 h 0.006 0.004 c 0.42854,-0.0432 0.86812,-0.0742 1.32161,-0.10147 0.69823,-0.0419 2.00489,-0.0332 2.00489,-0.0332 h 41.97951 c 5.99707,0 6.35516,3e-4 7.72278,-7.99684 l 3.95705,-25.9536 c 1.04913,-8.01156 0.3143,-8.01245 -4.1835,-8.01245 h -38.63347 c 0.41315,0.58987 0.82897,1.17198 1.23769,1.78163 h -0.002 c 1.70285,2.54004 2.91458,5.24655 2.91459,8.88277 0,4.55464 -1.74494,7.27171 -4.04294,8.91594 -2.29802,1.64423 -5.19477,2.18947 -7.43388,2.18947 -2.70004,0 -5.58147,-0.92217 -7.77745,-2.92125 -2.19598,-1.99909 -3.73442,-5.07248 -3.7345,-9.4916 0,-4.99014 1.39468,-8.50055 4.11714,-10.48486 2.14348,-1.56237 5.00647,-2.4256 8.53879,-2.73391 h 0.006 0.004 c 0.42856,-0.0432 0.86813,-0.0742 1.32163,-0.10148 0.69823,-0.0418 2.00488,-0.0331 2.00488,-0.0331 h 45.9775 11.97656 c 5.25982,0 7.00192,0.0341 7.03953,3.4091 z"
             style="font-style:normal;font-variant:normal;font-weight:normal;font-stretch:normal;font-size:15px;line-height:125%;font-family:Ubuntu;-inkscape-font-specification:Ubuntu;text-align:center;letter-spacing:0px;word-spacing:0px;writing-mode:lr-tb;text-anchor:middle;display:inline;fill:#808080;fill-opacity:1;stroke:none;stroke-width:3.33608699;enable-background:new" />
          <rect
             style="color:#000000;display:inline;overflow:visible;visibility:visible;fill:none;stroke:none;stroke-width:4;marker:none;enable-background:accumulate"
             id="rect4782"
             width="96.037987"
             height="96"
             x="-438.00244"
             y="345.36221"
             transform="scale(-1,1)" />
        </g>
      </g>
    </g>
  </g>
</svg>
