<?xml version="1.0" encoding="UTF-8" standalone="no"?>
<!-- Created with Inkscape (http://www.inkscape.org/) -->

<svg
   xmlns:dc="http://purl.org/dc/elements/1.1/"
   xmlns:cc="http://creativecommons.org/ns#"
   xmlns:rdf="http://www.w3.org/1999/02/22-rdf-syntax-ns#"
   xmlns:svg="http://www.w3.org/2000/svg"
   xmlns="http://www.w3.org/2000/svg"
   xmlns:sodipodi="http://sodipodi.sourceforge.net/DTD/sodipodi-0.dtd"
   xmlns:inkscape="http://www.inkscape.org/namespaces/inkscape"
   width="96"
   height="96"
   id="svg4874"
   version="1.1"
   inkscape:version="0.91+devel r"
   viewBox="0 0 96 96.000001"
   sodipodi:docname="songkick-symbolic.svg">
  <defs
     id="defs4876">
    <clipPath
       clipPathUnits="userSpaceOnUse"
       id="clipPath40">
      <path
         inkscape:connector-curvature="0"
         d="M 0,500 1024,500 1024,0 0,0 0,500 Z"
         id="path42" />
    </clipPath>
    <clipPath
       clipPathUnits="userSpaceOnUse"
       id="clipPath18">
      <path
         inkscape:connector-curvature="0"
         d="M 0,2743.88 0,0 l 2743.81,0 0,2743.88 -2743.81,0 z"
         id="path20" />
    </clipPath>
  </defs>
  <sodipodi:namedview
     id="base"
     pagecolor="#ffffff"
     bordercolor="#666666"
     borderopacity="1.0"
     inkscape:pageopacity="0.0"
     inkscape:pageshadow="2"
     inkscape:zoom="4.4959994"
     inkscape:cx="31.227753"
     inkscape:cy="61.243306"
     inkscape:document-units="px"
     inkscape:current-layer="g4780"
     showgrid="true"
     showborder="true"
     fit-margin-top="0"
     fit-margin-left="0"
     fit-margin-right="0"
     fit-margin-bottom="0"
     inkscape:snap-bbox="true"
     inkscape:bbox-paths="true"
     inkscape:bbox-nodes="true"
     inkscape:snap-bbox-edge-midpoints="true"
     inkscape:snap-bbox-midpoints="true"
     inkscape:object-paths="true"
     inkscape:snap-intersection-paths="true"
     inkscape:object-nodes="true"
     inkscape:snap-smooth-nodes="true"
     inkscape:snap-midpoints="true"
     inkscape:snap-object-midpoints="true"
     inkscape:snap-center="true"
     showguides="true"
     inkscape:guide-bbox="true"
     inkscape:snap-global="true">
    <inkscape:grid
       type="xygrid"
       id="grid5451"
       empspacing="8" />
    <sodipodi:guide
       orientation="1,0"
       position="8,-8.0000001"
       id="guide4063" />
    <sodipodi:guide
       orientation="1,0"
       position="4,-8.0000001"
       id="guide4065" />
    <sodipodi:guide
       orientation="0,1"
       position="-8,88.000001"
       id="guide4067" />
    <sodipodi:guide
       orientation="0,1"
       position="-8,92.000001"
       id="guide4069" />
    <sodipodi:guide
       orientation="0,1"
       position="104,4"
       id="guide4071" />
    <sodipodi:guide
       orientation="0,1"
       position="-5,8.0000001"
       id="guide4073" />
    <sodipodi:guide
       orientation="1,0"
       position="88,-8.0000001"
       id="guide4077" />
    <sodipodi:guide
       orientation="0,1"
       position="-8,84.000001"
       id="guide4074" />
    <sodipodi:guide
       orientation="1,0"
       position="12,-8.0000001"
       id="guide4076" />
    <sodipodi:guide
       orientation="1,0"
       position="84,-8.0000001"
       id="guide4080" />
    <sodipodi:guide
       position="48,-8.0000001"
       orientation="1,0"
       id="guide4170" />
    <sodipodi:guide
       position="-8,48"
       orientation="0,1"
       id="guide4172" />
    <sodipodi:guide
       position="92,-8.0000001"
       orientation="1,0"
       id="guide4760" />
  </sodipodi:namedview>
  <metadata
     id="metadata4879">
    <rdf:RDF>
      <cc:Work
         rdf:about="">
        <dc:format>image/svg+xml</dc:format>
        <dc:type
           rdf:resource="http://purl.org/dc/dcmitype/StillImage" />
        <dc:title></dc:title>
      </cc:Work>
    </rdf:RDF>
  </metadata>
  <g
     inkscape:label="Layer 1"
     inkscape:groupmode="layer"
     id="layer1"
     transform="translate(67.857146,-78.50504)">
    <g
       transform="matrix(0,-1,-1,0,373.50506,516.50504)"
       id="g4845"
       style="display:inline">
      <g
         inkscape:export-ydpi="90"
         inkscape:export-xdpi="90"
         inkscape:export-filename="next01.png"
         transform="matrix(-0.9996045,0,0,1,575.94296,-611.00001)"
         id="g4778"
         inkscape:label="Layer 1">
        <g
           transform="matrix(-1,0,0,1,575.99999,611)"
           id="g4780"
           style="display:inline">
          <rect
             style="color:#000000;display:inline;overflow:visible;visibility:visible;fill:none;stroke:none;stroke-width:4;marker:none;enable-background:accumulate"
             id="rect4782"
             width="96.037987"
             height="96"
             x="-438.00244"
             y="345.36221"
             transform="scale(-1,1)" />
          <g
             transform="matrix(0,-4.6667614,-4.6686081,0,5247.0268,449.36335)"
             id="layer1-7"
             inkscape:label="Layer 1"
             style="fill:#808080;fill-opacity:1;stroke-width:3.33333373;enable-background:new">
            <g
               transform="translate(-67.912501,-42.840107)"
               id="g4036"
               style="fill:#808080;fill-opacity:1;stroke-width:3.33333373">
              <path
                 sodipodi:nodetypes="csssscccccccccccsscsccsssssccsssssccs"
                 inkscape:connector-curvature="0"
                 id="path3080"
                 d="m 77.554161,1092.0399 c -2.74189,-0.497 -5.10628,-2.0146 -5.96806,-3.8306 -0.54456,-1.1475 -0.62359,-1.6878 -0.66537,-4.5487 -0.0497,-3.4003 0.11907,-4.5676 0.83852,-5.801 0.91583,-1.5701 3.24713,-3.0186 5.52598,-3.4335 0.67531,-0.123 1.82633,-0.1859 2.72426,-0.1859 l -0.0311,13.9172 2.24888,0 -0.009,-3.6864 c 2.2927,3.1176 1.74987,3.7069 4.99545,3.7069 l 0,-2.0733 c -1.19818,0 -1.55524,0.1526 -2.93509,-2.6615 l 2.99741,-4.2773 -2.56917,0 -2.4856,3.2818 -0.0108,-8.0754 c 1.89962,0.213 3.93905,1.2128 5.13305,2.5874 1.82612,2.1023 1.55452,3.9479 1.55452,5.9983 0,3.2118 0.0677,5.38 -2.52553,7.3527 -1.2093,0.8966 -2.605,1.4693 -4.21944,1.7311 -1.01182,0.1641 -3.68975,0.1631 -4.59929,0 z m -1.05162,-3.8131 c 1.72407,-0.3146 2.80245,-1.1974 2.77423,-2.7733 -0.0401,-2.2386 -1.38315,-2.5942 -2.91417,-2.8322 -0.78501,-0.1221 -1.02771,-0.1939 -1.21485,-0.3673 -0.40399,-0.3744 -0.172,-1.043 0.48286,-1.2002 0.81405,-0.1954 1.50015,-0.043 2.17643,0.4046 l 1.19714,-1.3763 c -0.87109,-0.802 -1.87431,-1.0542 -2.78097,-1.0119 -2.05261,0.096 -3.43785,1.1244 -3.39376,2.8425 0.055,2.1439 1.429,2.4649 2.91136,2.6967 1.10976,0.1735 1.37306,0.3286 1.37306,0.8664 0,0.3847 -0.23693,0.6857 -0.61322,0.7474 -1.02521,0.168 -1.93779,0.087 -2.75746,-0.5071 l -1.34965,1.3496 c 1.2029,1.0682 2.86493,1.3881 4.109,1.1611 z"
                 style="fill:#808080;fill-opacity:1;stroke-width:3.33333373" />
            </g>
          </g>
        </g>
      </g>
    </g>
  </g>
</svg>
