<?xml version="1.0" encoding="UTF-8" standalone="no"?>
<!-- Created with Inkscape (http://www.inkscape.org/) -->

<svg
   xmlns:dc="http://purl.org/dc/elements/1.1/"
   xmlns:cc="http://creativecommons.org/ns#"
   xmlns:rdf="http://www.w3.org/1999/02/22-rdf-syntax-ns#"
   xmlns:svg="http://www.w3.org/2000/svg"
   xmlns="http://www.w3.org/2000/svg"
   xmlns:sodipodi="http://sodipodi.sourceforge.net/DTD/sodipodi-0.dtd"
   xmlns:inkscape="http://www.inkscape.org/namespaces/inkscape"
   width="96"
   height="96"
   id="svg4874"
   version="1.1"
   inkscape:version="0.91+devel r"
   viewBox="0 0 96 96.000001"
   sodipodi:docname="soundcloud-symbolic.svg">
  <defs
     id="defs4876">
    <clipPath
       clipPathUnits="userSpaceOnUse"
       id="clipPath40">
      <path
         inkscape:connector-curvature="0"
         d="M 0,500 1024,500 1024,0 0,0 0,500 Z"
         id="path42" />
    </clipPath>
    <clipPath
       clipPathUnits="userSpaceOnUse"
       id="clipPath18">
      <path
         inkscape:connector-curvature="0"
         d="M 0,2743.88 0,0 l 2743.81,0 0,2743.88 -2743.81,0 z"
         id="path20" />
    </clipPath>
  </defs>
  <sodipodi:namedview
     id="base"
     pagecolor="#ffffff"
     bordercolor="#666666"
     borderopacity="1.0"
     inkscape:pageopacity="0.0"
     inkscape:pageshadow="2"
     inkscape:zoom="5.6199993"
     inkscape:cx="40.516013"
     inkscape:cy="47.170802"
     inkscape:document-units="px"
     inkscape:current-layer="g4780"
     showgrid="true"
     showborder="true"
     fit-margin-top="0"
     fit-margin-left="0"
     fit-margin-right="0"
     fit-margin-bottom="0"
     inkscape:snap-bbox="true"
     inkscape:bbox-paths="true"
     inkscape:bbox-nodes="true"
     inkscape:snap-bbox-edge-midpoints="true"
     inkscape:snap-bbox-midpoints="true"
     inkscape:object-paths="true"
     inkscape:snap-intersection-paths="true"
     inkscape:object-nodes="true"
     inkscape:snap-smooth-nodes="true"
     inkscape:snap-midpoints="true"
     inkscape:snap-object-midpoints="true"
     inkscape:snap-center="true"
     showguides="true"
     inkscape:guide-bbox="true"
     inkscape:snap-global="true">
    <inkscape:grid
       type="xygrid"
       id="grid5451"
       empspacing="8" />
    <sodipodi:guide
       orientation="1,0"
       position="8,-8.0000001"
       id="guide4063" />
    <sodipodi:guide
       orientation="1,0"
       position="4,-8.0000001"
       id="guide4065" />
    <sodipodi:guide
       orientation="0,1"
       position="-8,88.000001"
       id="guide4067" />
    <sodipodi:guide
       orientation="0,1"
       position="-8,92.000001"
       id="guide4069" />
    <sodipodi:guide
       orientation="0,1"
       position="104,4"
       id="guide4071" />
    <sodipodi:guide
       orientation="0,1"
       position="-5,8.0000001"
       id="guide4073" />
    <sodipodi:guide
       orientation="1,0"
       position="88,-8.0000001"
       id="guide4077" />
    <sodipodi:guide
       orientation="0,1"
       position="-8,84.000001"
       id="guide4074" />
    <sodipodi:guide
       orientation="1,0"
       position="12,-8.0000001"
       id="guide4076" />
    <sodipodi:guide
       orientation="1,0"
       position="84,-8.0000001"
       id="guide4080" />
    <sodipodi:guide
       position="48,-8.0000001"
       orientation="1,0"
       id="guide4170" />
    <sodipodi:guide
       position="-8,48"
       orientation="0,1"
       id="guide4172" />
    <sodipodi:guide
       position="92,-8.0000001"
       orientation="1,0"
       id="guide4760" />
  </sodipodi:namedview>
  <metadata
     id="metadata4879">
    <rdf:RDF>
      <cc:Work
         rdf:about="">
        <dc:format>image/svg+xml</dc:format>
        <dc:type
           rdf:resource="http://purl.org/dc/dcmitype/StillImage" />
        <dc:title></dc:title>
      </cc:Work>
    </rdf:RDF>
  </metadata>
  <g
     inkscape:label="Layer 1"
     inkscape:groupmode="layer"
     id="layer1"
     transform="translate(67.857146,-78.50504)">
    <g
       transform="matrix(0,-1,-1,0,373.50506,516.50504)"
       id="g4845"
       style="display:inline">
      <g
         inkscape:export-ydpi="90"
         inkscape:export-xdpi="90"
         inkscape:export-filename="next01.png"
         transform="matrix(-0.9996045,0,0,1,575.94296,-611.00001)"
         id="g4778"
         inkscape:label="Layer 1">
        <g
           transform="matrix(-1,0,0,1,575.99999,611)"
           id="g4780"
           style="display:inline">
          <rect
             style="color:#000000;display:inline;overflow:visible;visibility:visible;fill:none;stroke:none;stroke-width:4;marker:none;enable-background:accumulate"
             id="rect4782"
             width="96.037987"
             height="96"
             x="-438.00244"
             y="345.36221"
             transform="scale(-1,1)" />
          <path
             sodipodi:nodetypes="scccsccccccscscccscccccccsccccccscccscccsscccscccsscccccscccscccccscccccscccscccsscccscccsccccsccccccscccscccsccccscccscccccsccccssccccccscccccc"
             inkscape:connector-curvature="0"
             d="m 385.86549,440.27495 c 0,0.20118 -0.15516,0.35926 -0.37829,0.38518 l -5.36948,0.70208 -5.27697,-0.70208 c -0.22312,-0.0267 -0.37732,-0.18422 -0.37732,-0.38518 0,-0.19392 0.15281,-0.352 0.3754,-0.38304 l 0,0 0,0 0,0 5.27889,-0.832 5.37044,0.832 c 0.22068,0.0288 0.37733,0.18912 0.37733,0.38304 z m 2.93353,-3.94794 c 0.23038,0.0341 0.39002,0.19637 0.39002,0.39957 0,0.20363 -0.16497,0.37163 -0.39002,0.39947 0,0 -8.6813,0.94378 -8.6813,0.94378 l -8.48912,-0.94378 c -0.22792,-0.0267 -0.39172,-0.19627 -0.39172,-0.39947 0,-0.20117 0.16007,-0.36533 0.3898,-0.39851 l 8.49104,-1.0737 z m 8.00776,-14.87094 c 0,0.3871 -0.31917,0.7071 -0.72435,0.72576 l -15.97196,0.75158 -10.32184,-0.75158 c -0.40336,-0.0245 -0.72125,-0.33866 -0.72125,-0.72576 0,-0.38528 0.31885,-0.70432 0.72338,-0.72682 l 0,0 10.32312,-0.84971 15.97165,0.84971 c 0.40549,0.0245 0.72466,0.34154 0.72466,0.72682 z m -5.55132,7.69664 c 0,0.29728 -0.2401,0.53995 -0.55798,0.56363 l -10.58285,0.84661 -10.23872,-0.84661 c -0.31702,-0.0245 -0.55605,-0.26635 -0.55605,-0.56363 0,-0.29429 0.24009,-0.53696 0.55605,-0.56266 l 10.23872,-0.96214 10.58477,0.96214 c 0.31703,0.0267 0.55606,0.26837 0.55606,0.56266 z m -22.18712,-15.51829 c 0,-0.48021 0.3897,-0.8705 0.88856,-0.88992 l 10.14856,-0.73717 21.26408,0.736 c 0.49886,0.0245 0.88888,0.40992 0.88888,0.88992 0,0.48437 -0.39098,0.87563 -0.89006,0.89109 0,0 -21.26194,0.65344 -21.26194,0.65344 l -10.1524,-0.65344 c -0.49502,-0.0245 -0.88568,-0.40672 -0.88568,-0.88992 z m -0.0459,-16.01301 c 0,-0.66069 0.54784,-1.20586 1.22128,-1.21824 l 0,0 0,0 9.85723,-0.51413 24.55862,0.51413 c 0.67269,0 1.2216,0.55755 1.2216,1.21824 0,0.66176 -0.54795,1.208 -1.22256,1.21835 l -24.54912,0.45941 c -0.0245,0 -9.87174,-0.45941 -9.87174,-0.45941 -0.66747,0 -1.21531,-0.55755 -1.21531,-1.21835 z m 0.0384,8.06731 c 0,-0.57504 0.46482,-1.03851 1.05738,-1.05398 l 0,0 9.99425,-0.6257 21.41817,0.62666 c 0.59245,0.0245 1.05609,0.47904 1.05609,1.0543 0,0.57909 -0.46364,1.04266 -1.05609,1.05504 l -21.41913,0.55637 -9.99233,-0.55733 c -0.58615,-0.0245 -1.05109,-0.47616 -1.05109,-1.05536 z m 0.0949,19.63061 c 0,-0.34166 0.2752,-0.61846 0.63801,-0.64416 l 10.32387,-0.90646 9.82084,0.90646 c 0.36282,0.0245 0.6362,0.30133 0.6362,0.64416 0,0.34688 -0.27552,0.62346 -0.64057,0.64533 l -9.81647,0.79808 -10.3228,-0.79808 c -0.36388,-0.0245 -0.63929,-0.29845 -0.63929,-0.64533 z m 0.56535,7.63584 c 0,-0.24992 0.19879,-0.45216 0.47282,-0.48118 l 9.92595,-1.01792 10.30007,1.01696 c 0.27542,0.0288 0.4739,0.23264 0.4739,0.48214 0,0.2529 -0.19891,0.45525 -0.4739,0.48096 0,0 -10.30007,0.89621 -10.30007,0.89621 l -9.92371,-0.89621 c -0.27552,-0.0245 -0.47506,-0.22784 -0.47506,-0.48096 z m 32.1598,-31.28459 c 0,0.62475 -0.50004,1.12534 -1.14029,1.13771 l -20.63631,0.50805 -9.93002,-0.50805 c -0.63192,-0.0245 -1.13207,-0.512 -1.13207,-1.13771 0,-0.62357 0.49919,-1.12117 1.13944,-1.13557 l 0,0 9.9299,-0.56992 20.63877,0.56992 c 0.63802,0.0245 1.13815,0.512 1.13815,1.13557 z m -32.83036,15.88896 c 0,-0.43146 0.35448,-0.78762 0.80682,-0.80821 l 10.25323,-0.79296 19.62471,0.79296 c 0.4533,0.0245 0.80661,0.37675 0.80661,0.80821 0,0.43584 -0.35427,0.79104 -0.80661,0.8095 0,0 -19.62471,0.70197 -19.62471,0.70197 l -10.2574,-0.70293 c -0.44817,-0.0245 -0.80265,-0.3727 -0.80265,-0.80854 z m 0.96785,-8.85408 0,0 10.08376,-0.68117 21.98053,0.68117 c 0.54572,0.0245 0.97394,0.44416 0.97394,0.97163 0,0.53067 -0.42726,0.95808 -0.97394,0.97259 l -21.97957,0.6049 -10.08889,-0.60608 c -0.54059,-0.0245 -0.96784,-0.4417 -0.96784,-0.97141 0,-0.52875 0.42725,-0.95392 0.97105,-0.97163 l 0,0 z m 22.75907,-51.53642 c 0,1.6176 -0.32941,3.16118 -0.92303,4.56747 10.71571,0.93941 19.12169,9.86379 19.12169,20.74954 0,2.66379 -0.5282,5.26016 -1.42114,7.55328 -0.34723,0.89088 -0.70471,1.12843 -1.3981,1.13675 l -37.73621,0 c -0.72775,0 -1.33385,-0.57003 -1.40535,-1.2752 0,-0.0288 -0.0245,-32.52021 -0.0245,-32.73088 0,-6.52074 5.3235,-11.80778 11.89047,-11.80778 6.56697,0 11.89152,5.28608 11.89152,11.80682 z m 15.41186,36.4208 c 0,0.70933 -0.58637,1.29163 -1.30666,1.30187 l -26.78445,0.5328 -9.72086,-0.53376 c -0.70993,0 -1.29533,-0.59158 -1.29533,-1.30091 0,-0.70709 0.5854,-1.28949 1.30568,-1.29984 l 0,0 9.72214,-0.5792 26.78638,0.5792 c 0.71837,0 1.30451,0.59275 1.30451,1.29984 z"
             id="path2465"
             style="fill:#808080;fill-opacity:1;stroke-width:1.00019777" />
        </g>
      </g>
    </g>
  </g>
</svg>
