<?xml version="1.0" encoding="UTF-8" standalone="no"?>
<!-- Created with Inkscape (http://www.inkscape.org/) -->

<svg
   xmlns:dc="http://purl.org/dc/elements/1.1/"
   xmlns:cc="http://creativecommons.org/ns#"
   xmlns:rdf="http://www.w3.org/1999/02/22-rdf-syntax-ns#"
   xmlns:svg="http://www.w3.org/2000/svg"
   xmlns="http://www.w3.org/2000/svg"
   xmlns:sodipodi="http://sodipodi.sourceforge.net/DTD/sodipodi-0.dtd"
   xmlns:inkscape="http://www.inkscape.org/namespaces/inkscape"
   width="96"
   height="96"
   id="svg4874"
   version="1.1"
   inkscape:version="0.91+devel r"
   viewBox="0 0 96 96.000001"
   sodipodi:docname="twc-symbolic.svg">
  <defs
     id="defs4876">
    <clipPath
       clipPathUnits="userSpaceOnUse"
       id="clipPath40">
      <path
         inkscape:connector-curvature="0"
         d="M 0,500 1024,500 1024,0 0,0 0,500 Z"
         id="path42" />
    </clipPath>
    <clipPath
       clipPathUnits="userSpaceOnUse"
       id="clipPath18">
      <path
         inkscape:connector-curvature="0"
         d="M 0,2743.88 0,0 l 2743.81,0 0,2743.88 -2743.81,0 z"
         id="path20" />
    </clipPath>
    <linearGradient
       id="linearGradient3877">
      <stop
         id="stop3879"
         offset="0"
         style="stop-color:#eff7fc;stop-opacity:1;" />
      <stop
         id="stop3881"
         offset="1"
         style="stop-color:#ffffff;stop-opacity:1;" />
    </linearGradient>
    <clipPath
       id="clipPath3497">
      <path
         inkscape:connector-curvature="0"
         id="path3499"
         d="m 34,25 56.663,0 0,50.087 L 34,75.087 34,25 z" />
    </clipPath>
    <clipPath
       id="clipPath3505">
      <path
         inkscape:connector-curvature="0"
         id="path3507"
         d="M 0,0 792,0 792,612 0,612 0,0 z" />
    </clipPath>
    <clipPath
       id="clipPath3515">
      <path
         inkscape:connector-curvature="0"
         id="path3517"
         d="m -0.6,-0.53105 13.9753,0 0,13.00385 -13.9753,0 0,-13.00385 z" />
    </clipPath>
    <clipPath
       id="clipPath3523">
      <path
         inkscape:connector-curvature="0"
         id="path3525"
         d="m -0.3148,-0.9542 1.5554,0 0,1.9542 -1.5554,0 0,-1.9542 z" />
    </clipPath>
    <clipPath
       id="clipPath3655">
      <path
         inkscape:connector-curvature="0"
         id="path3657"
         d="m 36,114.857 396,0 0,428.7061 -396,0 0,-428.7061 z" />
    </clipPath>
    <clipPath
       id="clipPath3663">
      <path
         inkscape:connector-curvature="0"
         id="path3665"
         d="M 0,0 792,0 792,612 0,612 0,0 z" />
    </clipPath>
    <clipPath
       id="clipPath3673">
      <path
         inkscape:connector-curvature="0"
         id="path3675"
         d="m -0.18812,-0.80017 2.3455,0 0,2.06795 -2.3455,0 0,-2.06795 z" />
    </clipPath>
    <clipPath
       id="clipPath3681">
      <path
         inkscape:connector-curvature="0"
         id="path3683"
         d="M 0,0 1,0 1,1 0,1 0,0 z" />
    </clipPath>
    <clipPath
       id="clipPath3689">
      <path
         inkscape:connector-curvature="0"
         id="path3691"
         d="m 4e-4,0.0455 0.43,0 0,0.3541 -0.43,0 0,-0.3541 z" />
    </clipPath>
    <clipPath
       id="clipPath3701">
      <path
         inkscape:connector-curvature="0"
         id="path3703"
         d="m 0.5697,0.0455 0.43,0 0,0.3541 -0.43,0 0,-0.3541 z" />
    </clipPath>
  </defs>
  <sodipodi:namedview
     id="base"
     pagecolor="#ffffff"
     bordercolor="#666666"
     borderopacity="1.0"
     inkscape:pageopacity="0.0"
     inkscape:pageshadow="2"
     inkscape:zoom="4.4959994"
     inkscape:cx="51.723752"
     inkscape:cy="22.909226"
     inkscape:document-units="px"
     inkscape:current-layer="g4780"
     showgrid="true"
     showborder="true"
     fit-margin-top="0"
     fit-margin-left="0"
     fit-margin-right="0"
     fit-margin-bottom="0"
     inkscape:snap-bbox="true"
     inkscape:bbox-paths="true"
     inkscape:bbox-nodes="true"
     inkscape:snap-bbox-edge-midpoints="true"
     inkscape:snap-bbox-midpoints="true"
     inkscape:object-paths="true"
     inkscape:snap-intersection-paths="true"
     inkscape:object-nodes="true"
     inkscape:snap-smooth-nodes="true"
     inkscape:snap-midpoints="true"
     inkscape:snap-object-midpoints="true"
     inkscape:snap-center="true"
     showguides="true"
     inkscape:guide-bbox="true"
     inkscape:snap-global="true">
    <inkscape:grid
       type="xygrid"
       id="grid5451"
       empspacing="8" />
    <sodipodi:guide
       orientation="1,0"
       position="8,-8.0000001"
       id="guide4063" />
    <sodipodi:guide
       orientation="1,0"
       position="4,-8.0000001"
       id="guide4065" />
    <sodipodi:guide
       orientation="0,1"
       position="-8,88.000001"
       id="guide4067" />
    <sodipodi:guide
       orientation="0,1"
       position="-8,92.000001"
       id="guide4069" />
    <sodipodi:guide
       orientation="0,1"
       position="104,4"
       id="guide4071" />
    <sodipodi:guide
       orientation="0,1"
       position="-5,8.0000001"
       id="guide4073" />
    <sodipodi:guide
       orientation="1,0"
       position="88,-8.0000001"
       id="guide4077" />
    <sodipodi:guide
       orientation="0,1"
       position="-8,84.000001"
       id="guide4074" />
    <sodipodi:guide
       orientation="1,0"
       position="12,-8.0000001"
       id="guide4076" />
    <sodipodi:guide
       orientation="1,0"
       position="84,-8.0000001"
       id="guide4080" />
    <sodipodi:guide
       position="48,-8.0000001"
       orientation="1,0"
       id="guide4170" />
    <sodipodi:guide
       position="-8,48"
       orientation="0,1"
       id="guide4172" />
    <sodipodi:guide
       position="92,-8.0000001"
       orientation="1,0"
       id="guide4760" />
    <sodipodi:guide
       position="113,12"
       orientation="0,1"
       id="guide4321" />
  </sodipodi:namedview>
  <metadata
     id="metadata4879">
    <rdf:RDF>
      <cc:Work
         rdf:about="">
        <dc:format>image/svg+xml</dc:format>
        <dc:type
           rdf:resource="http://purl.org/dc/dcmitype/StillImage" />
        <dc:title></dc:title>
      </cc:Work>
    </rdf:RDF>
  </metadata>
  <g
     inkscape:label="Layer 1"
     inkscape:groupmode="layer"
     id="layer1"
     transform="translate(67.857146,-78.50504)">
    <g
       transform="matrix(0,-1,-1,0,373.50506,516.50504)"
       id="g4845"
       style="display:inline">
      <g
         inkscape:export-ydpi="90"
         inkscape:export-xdpi="90"
         inkscape:export-filename="next01.png"
         transform="matrix(-0.9996045,0,0,1,575.94296,-611.00001)"
         id="g4778"
         inkscape:label="Layer 1">
        <g
           transform="matrix(-1,0,0,1,575.99999,611)"
           id="g4780"
           style="display:inline">
          <rect
             style="color:#000000;display:inline;overflow:visible;visibility:visible;fill:none;stroke:none;stroke-width:4;marker:none;enable-background:accumulate"
             id="rect4782"
             width="96.037987"
             height="96"
             x="-438.00244"
             y="345.36221"
             transform="scale(-1,1)" />
          <path
             style="fill:#808080;fill-opacity:1;fill-rule:nonzero;stroke:none;stroke-width:1.25024724"
             d="m 429.99929,433.36222 h -80.06912 v -80.00001 h 80.06912 z M 410.27966,414.2424 c -0.5735,-0.15095 -1.54327,-0.20139 -2.51381,-0.20139 h -2.02987 c -0.35293,0 -0.74947,0.0506 -0.88181,0.0506 0.66173,-0.70442 1.10251,-1.861 1.10251,-2.91761 0,-1.30819 -0.57353,-2.36475 -1.45584,-2.66663 -0.57348,-0.20126 -0.92671,-0.25199 -1.89725,-0.25199 h -7.23465 v 2.61603 h 6.92587 c 1.01465,0 1.41231,0.25149 1.41231,1.05653 0,0.6541 -0.39697,1.50929 -0.92636,2.11307 h -7.41182 v 2.71723 h 11.91096 c 0.97053,0 1.94162,0.10077 2.33865,0.20139 z m -0.92636,13.98794 v -10.06338 l -2.33765,0.45338 v 3.32039 h -11.64671 v 2.86802 h 11.64671 v 3.42159 z m -3.44015,-26.31517 c 0,-1.15724 -0.39769,-2.31411 -1.10353,-2.9682 -0.97054,-0.95598 -2.33747,-1.35812 -4.49912,-1.35812 h -0.61757 v 5.93642 h -0.0891 c -1.58815,0 -2.47027,-0.75384 -2.47027,-2.16265 0,-0.90566 0.30858,-1.76169 1.01443,-2.61704 l -1.632,-1.05654 c -0.92643,1.20755 -1.41129,2.46514 -1.41129,3.87396 0,2.96855 2.07287,4.8809 5.3374,4.8809 1.85285,0 3.04409,-0.40257 4.05873,-1.25793 0.97055,-0.85534 1.41231,-1.9123 1.41231,-3.2708 z m -1.98533,-0.0496 c 0,1.0566 -0.79435,1.6101 -2.20603,1.6101 h -0.0446 v -3.06942 h 0.0891 c 0.79408,0 1.191,0.05 1.54392,0.30158 0.44115,0.25159 0.61756,0.65459 0.61756,1.15774 z M 391.79617,382.0414 c -0.57351,-0.15095 -1.54428,-0.20139 -2.51482,-0.20139 h -2.07341 c -0.3088,0 -0.75002,0.0506 -0.83827,0.0506 0.66174,-0.70439 1.10252,-1.86201 1.10252,-2.91862 0,-1.30817 -0.57354,-2.36475 -1.45585,-2.66663 -0.61761,-0.20127 -0.92613,-0.25098 -1.94078,-0.25098 h -7.19111 v 2.61603 h 6.92688 c 1.01466,0 1.41129,0.30182 1.41129,1.05654 0,0.6541 -0.39739,1.50929 -0.97089,2.11306 h -7.36728 v 2.71724 h 11.91196 c 0.97053,0 1.94061,0.10075 2.33764,0.20138 z m -0.92635,46.28911 v -2.96822 l -5.51458,-1.20732 c -2.6028,-0.55347 -4.58822,-0.75495 -4.58822,-0.75495 0.52939,-0.0503 2.51453,-0.30183 4.4556,-0.70436 l 5.6472,-1.25792 v -3.06941 l -6.26477,-1.25792 c -1.27935,-0.30189 -3.7054,-0.65376 -3.7054,-0.65376 0.44114,0 3.30872,-0.45306 4.6763,-0.75495 l 5.29387,-1.10714 v -2.96821 l -14.11699,3.37099 v 3.06941 l 5.69074,1.25792 c 1.89697,0.40253 3.7058,0.60345 4.05873,0.65376 0,0 -1.94179,0.25123 -4.0152,0.65376 l -5.73427,1.15773 v 3.22019 z m -0.57404,-40.15029 c -0.92641,0.10063 -2.07362,0.15079 -3.13238,0.15079 v -2.41565 l -1.80816,0.70435 v 1.7113 H 380.194 c -1.32345,0 -1.67654,-0.20175 -1.67654,-1.15773 0,-0.25157 0.0883,-0.4522 0.2207,-0.95533 l -1.63301,-0.35218 c -0.30881,0.80504 -0.44039,1.50886 -0.44039,2.21325 0,1.3585 0.57294,2.41564 1.49937,2.76783 0.44114,0.15095 0.61792,0.1508 1.58846,0.1508 h 5.60265 v 1.05653 h 1.80816 v -1.05653 c 1.01465,0 1.67621,-5.2e-4 2.47027,-0.1012 z m -2.86713,19.06921 c 0,-1.20756 -0.44179,-2.31512 -1.10352,-2.96922 -0.97054,-0.95598 -2.33748,-1.35811 -4.49913,-1.35811 h -0.61757 v 5.93743 h -0.0881 c -1.58815,0 -2.51481,-0.80516 -2.51481,-2.16367 0,-0.95597 0.35314,-1.812 1.05898,-2.61704 l -1.63301,-1.05653 c -0.97054,1.20755 -1.4113,2.41583 -1.4113,3.87497 0,2.96855 2.07288,4.87988 5.33741,4.87988 1.80874,0 3.04407,-0.40184 4.05872,-1.30751 0.92642,-0.85535 1.41231,-1.86171 1.41231,-3.2202 z m 0,-10.26476 c 0,-1.7107 -0.66219,-2.91789 -1.80917,-3.32039 -0.44116,-0.15095 -0.74982,-0.2011 -1.8527,-0.15079 l -3.44116,0.0496 h -0.17616 c -1.147,0 -1.54445,-0.20089 -2.11795,-1.00593 l -1.67553,1.45931 c 0.26468,0.60377 0.74929,1.15742 1.27866,1.45931 -0.22057,0.20126 -0.44067,0.40188 -0.57302,0.60315 -0.35292,0.50315 -0.52949,1.20813 -0.52949,2.06348 0,2.31448 1.14663,3.52178 3.17592,3.52178 2.42634,0 3.57379,-1.66005 3.57379,-4.93049 0,-0.20127 -4e-4,-0.3526 -0.0446,-0.60417 h 0.44141 c 1.147,0 1.49937,0.25135 1.49937,1.20732 0,0.85535 -0.3961,1.8623 -1.14604,2.96922 l 1.94078,1.15673 c 0.30881,-0.55347 0.52946,-0.95629 0.83827,-1.6607 0.39703,-1.00628 0.61756,-1.86144 0.61756,-2.81742 z m 0,-26.86772 c 0,-1.15723 -0.44179,-2.31414 -1.10352,-2.96821 -0.97054,-0.95599 -2.33748,-1.35912 -4.49913,-1.35912 h -0.61757 v 5.93743 h -0.0881 c -1.58815,0 -2.51481,-0.75486 -2.51481,-2.16367 0,-0.90567 0.35314,-1.76069 1.05898,-2.61603 l -1.63301,-1.00694 c -0.97054,1.15722 -1.4113,2.41584 -1.4113,3.87496 0,2.91825 2.07288,4.82929 5.33741,4.82929 1.80874,0 3.04407,-0.35125 4.05872,-1.25691 0.92642,-0.85536 1.41231,-1.91231 1.41231,-3.2708 z m 0,-8.20129 c -0.44114,-0.25157 -0.88234,-0.40306 -1.45584,-0.45338 0.48527,-0.3522 1.0581,-1.00574 1.27867,-1.5089 0.13232,-0.20126 0.17717,-0.60385 0.17717,-0.90574 0,-0.40252 -0.0442,-0.55384 -0.22071,-0.95635 l -2.38218,0.70436 c 0.13234,0.25158 0.2207,0.50366 0.2207,0.80555 0,0.60378 -0.30931,1.15758 -0.88281,1.66071 h -7.2792 v 2.66663 h 6.88233 c 1.36757,0 2.42627,0.1502 2.99976,0.40176 z m -1.98532,45.28317 c 0,1.00629 -0.79377,1.6101 -2.24957,1.6101 h -0.0446 v -3.12001 h 0.13262 c 0.74997,0 1.14688,0.1006 1.54392,0.35218 0.39704,0.25157 0.61757,0.60428 0.61757,1.15773 z m 0,-37.13248 c 0,1.05661 -0.79377,1.6607 -2.24957,1.6607 h -0.0446 v -3.12001 h 0.13262 c 0.74997,0 1.14688,0.051 1.54392,0.30258 0.39704,0.25157 0.61757,0.65358 0.61757,1.15673 z m -4.05874,26.21396 c 0,1.86163 -0.35281,2.51584 -1.54392,2.51584 -0.83819,0 -1.36776,-0.50365 -1.36776,-1.15773 0,-0.50315 0.2645,-1.0062 0.70565,-1.40871 l 2.20603,-0.0496 z m -8.3817,17.35892 c -0.57351,-0.15095 -1.54372,-0.20139 -2.55835,-0.20139 h -2.02987 c -0.30881,0 -0.74945,0.0506 -0.88181,0.0506 0.66174,-0.70441 1.14705,-1.86202 1.14705,-2.91862 0,-1.30819 -0.57397,-2.36475 -1.50038,-2.66663 -0.57349,-0.20127 -0.92671,-0.25199 -1.89725,-0.25199 h -7.1901 v 2.61704 h 6.92586 c 1.01464,0 1.4113,0.2515 1.4113,1.05654 -1e-5,0.65409 -0.44051,1.50929 -0.96989,2.11306 h -7.36727 v 2.71723 h 11.86641 c 1.01464,0 1.94104,0.0997 2.38218,0.20038 z m -0.0446,-52.32774 c -0.5735,-0.10063 -1.23518,-0.15078 -2.69098,-0.15078 h -7.98484 c -1.76462,0 -2.02941,1.5e-4 -2.29411,-0.15079 -0.17646,-0.10063 -0.30878,-0.35232 -0.30878,-0.55357 0,-0.10064 4e-4,-0.15063 0.0446,-0.30158 l -1.58846,-0.45338 c -0.17646,0.45284 -0.30879,1.00633 -0.30879,1.6101 0,1.15723 0.57411,2.06317 1.4123,2.36506 0.52939,0.20127 0.88186,0.25199 2.33765,0.25199 h 7.67606 c 1.32345,0 2.16143,0.0501 3.08783,0.15079 z m -0.61758,60.22644 c 0,-1.40882 -0.44077,-2.76734 -1.1025,-3.57238 l -1.89725,1.30852 c 0.52938,0.7044 0.79372,1.40923 0.79372,2.21427 0,0.95598 -0.48475,1.86089 -1.19058,2.36404 -0.8382,0.55346 -1.98507,0.80556 -3.61733,0.80556 -1.89696,0 -2.99998,-0.20164 -3.74994,-0.60417 -1.01465,-0.55346 -1.54392,-1.5094 -1.54392,-2.66663 0,-0.85536 0.22007,-1.60963 0.8818,-2.41464 l -1.76462,-1.30853 c -0.88231,1.10693 -1.32321,2.3145 -1.32321,3.92456 0,1.91196 0.61731,3.37147 1.94078,4.52872 1.27934,1.10693 2.95621,1.71029 5.02963,1.71029 1.72049,0 3.13186,-0.30125 4.32297,-0.95534 2.0293,-1.10692 3.22045,-3.12044 3.22045,-5.33427 z m -3.7054,-28.37662 c -0.44114,-0.25156 -0.88264,-0.40277 -1.27968,-0.40277 0.2647,-0.40253 0.52962,-0.75521 0.7502,-1.15774 0.3088,-0.55345 0.4414,-1.2573 0.4414,-1.86107 0,-1.15724 -0.57353,-2.16337 -1.45583,-2.46525 -0.39704,-0.15096 -0.83866,-0.20139 -1.50039,-0.20139 h -7.49888 v 2.66664 h 6.70516 c 1.14699,0 1.49937,0.20105 1.49937,0.85514 0,0.55346 -0.35286,1.2576 -0.92635,1.91168 h -7.27818 v 2.66663 h 7.45535 c 0.88231,0 1.71988,0.15093 2.42572,0.35217 z m 0,-10.51574 c -0.44114,-0.20126 -0.88264,-0.35218 -1.27968,-0.35218 0.2647,-0.40251 0.52962,-0.7555 0.7502,-1.20833 0.3088,-0.50314 0.4414,-1.20772 0.4414,-1.81149 0,-1.15723 -0.57353,-2.16335 -1.45583,-2.46525 -0.39704,-0.15094 -0.83866,-0.25097 -1.50039,-0.25097 h -7.49888 v 2.66663 h 6.70516 c 1.14699,0 1.49937,0.20133 1.49937,0.90574 0,0.55346 -0.35286,1.25731 -0.92635,1.86108 h -7.27818 v 2.71724 h 7.45535 c 0.88231,0 1.71988,0.10061 2.42572,0.35217 z m -0.0446,18.46504 c 0,-1.76101 -0.61762,-2.91788 -1.76462,-3.32039 -0.44114,-0.15095 -0.74983,-0.20139 -1.8527,-0.20139 l -3.4847,0.10019 h -0.17616 c -1.1029,0 -1.50034,-0.2009 -2.11795,-1.00593 l -1.632,1.45931 c 0.2647,0.60377 0.70576,1.15642 1.23514,1.4583 -0.17647,0.20125 -0.39716,0.4029 -0.5295,0.60417 -0.35293,0.50313 -0.57403,1.20713 -0.57403,2.06246 0,2.31448 1.19115,3.52279 3.22046,3.52279 2.42633,0 3.52925,-1.66106 3.52925,-4.9315 v -0.60315 h 0.39788 c 1.14698,0 1.54391,0.25134 1.54391,1.20732 0,0.85535 -0.44121,1.86129 -1.14705,2.96821 l 1.89623,1.15773 c 0.35294,-0.55345 0.57358,-0.95628 0.83827,-1.6607 0.44115,-1.00629 0.61757,-1.86144 0.61757,-2.81742 z m 0,-30.89347 c 0,-1.20757 -0.39667,-2.31412 -1.10251,-2.96821 -0.92643,-0.95599 -2.33806,-1.40871 -4.45559,-1.40871 h -0.66212 v 5.98701 h -0.0435 c -1.63227,0 -2.51481,-0.80443 -2.51481,-2.21325 0,-0.90566 0.3527,-1.76141 1.01443,-2.56644 l -1.58746,-1.05654 c -0.97053,1.15725 -1.45583,2.41482 -1.45583,3.87396 0,2.91825 2.11698,4.8303 5.3374,4.8303 1.85284,0 3.08862,-0.35226 4.10328,-1.25793 0.92642,-0.85533 1.36674,-1.8617 1.36674,-3.22019 z m -1.98431,-0.0496 c 0,1.00629 -0.79434,1.6101 -2.20604,1.6101 h -0.0446 v -3.12001 h 0.13262 c 0.74997,0 1.14688,0.05 1.54392,0.30158 0.39704,0.25156 0.57404,0.65486 0.57404,1.20833 z m -4.0152,30.2387 c 0,1.86164 -0.35223,2.51585 -1.58745,2.51585 -0.7941,0 -1.32423,-0.50365 -1.32423,-1.15773 0,-0.50315 0.26451,-1.0062 0.70565,-1.40871 l 2.20603,-0.0496 z"
             id="path3751"
             inkscape:connector-curvature="0" />
        </g>
      </g>
    </g>
  </g>
</svg>
