<?xml version="1.0" encoding="UTF-8" standalone="no"?>
<!-- Created with Inkscape (http://www.inkscape.org/) -->

<svg
   xmlns:dc="http://purl.org/dc/elements/1.1/"
   xmlns:cc="http://creativecommons.org/ns#"
   xmlns:rdf="http://www.w3.org/1999/02/22-rdf-syntax-ns#"
   xmlns:svg="http://www.w3.org/2000/svg"
   xmlns="http://www.w3.org/2000/svg"
   xmlns:sodipodi="http://sodipodi.sourceforge.net/DTD/sodipodi-0.dtd"
   xmlns:inkscape="http://www.inkscape.org/namespaces/inkscape"
   width="96"
   height="96"
   id="svg4874"
   version="1.1"
   inkscape:version="0.91+devel r"
   viewBox="0 0 96 96.000001"
   sodipodi:docname="ubuntu-sdk-symbolic.svg">
  <defs
     id="defs4876" />
  <sodipodi:namedview
     id="base"
     pagecolor="#ffffff"
     bordercolor="#666666"
     borderopacity="1.0"
     inkscape:pageopacity="0.0"
     inkscape:pageshadow="2"
     inkscape:zoom="4.4959994"
     inkscape:cx="42.593415"
     inkscape:cy="56.528005"
     inkscape:document-units="px"
     inkscape:current-layer="layer1"
     showgrid="true"
     showborder="true"
     fit-margin-top="0"
     fit-margin-left="0"
     fit-margin-right="0"
     fit-margin-bottom="0"
     inkscape:snap-bbox="true"
     inkscape:bbox-paths="true"
     inkscape:bbox-nodes="true"
     inkscape:snap-bbox-edge-midpoints="true"
     inkscape:snap-bbox-midpoints="true"
     inkscape:object-paths="true"
     inkscape:snap-intersection-paths="true"
     inkscape:object-nodes="true"
     inkscape:snap-smooth-nodes="true"
     inkscape:snap-midpoints="true"
     inkscape:snap-object-midpoints="true"
     inkscape:snap-center="true"
     showguides="true"
     inkscape:guide-bbox="true"
     inkscape:snap-global="true">
    <inkscape:grid
       type="xygrid"
       id="grid5451"
       empspacing="8" />
    <sodipodi:guide
       orientation="1,0"
       position="8,-8.0000001"
       id="guide4063" />
    <sodipodi:guide
       orientation="1,0"
       position="4,-8.0000001"
       id="guide4065" />
    <sodipodi:guide
       orientation="0,1"
       position="-8,88.000001"
       id="guide4067" />
    <sodipodi:guide
       orientation="0,1"
       position="-8,92.000001"
       id="guide4069" />
    <sodipodi:guide
       orientation="0,1"
       position="104,4"
       id="guide4071" />
    <sodipodi:guide
       orientation="0,1"
       position="-5,8.0000001"
       id="guide4073" />
    <sodipodi:guide
       orientation="1,0"
       position="88,-8.0000001"
       id="guide4077" />
    <sodipodi:guide
       orientation="0,1"
       position="-8,84.000001"
       id="guide4074" />
    <sodipodi:guide
       orientation="1,0"
       position="12,-8.0000001"
       id="guide4076" />
    <sodipodi:guide
       orientation="1,0"
       position="84,-8.0000001"
       id="guide4080" />
    <sodipodi:guide
       position="48,-8.0000001"
       orientation="1,0"
       id="guide4170" />
    <sodipodi:guide
       position="-8,48"
       orientation="0,1"
       id="guide4172" />
    <sodipodi:guide
       position="92,-8.0000001"
       orientation="1,0"
       id="guide4760" />
  </sodipodi:namedview>
  <metadata
     id="metadata4879">
    <rdf:RDF>
      <cc:Work
         rdf:about="">
        <dc:format>image/svg+xml</dc:format>
        <dc:type
           rdf:resource="http://purl.org/dc/dcmitype/StillImage" />
        <dc:title></dc:title>
      </cc:Work>
    </rdf:RDF>
  </metadata>
  <g
     inkscape:label="Layer 1"
     inkscape:groupmode="layer"
     id="layer1"
     transform="translate(67.857146,-78.50504)">
    <path
       style="font-style:normal;font-variant:normal;font-weight:300;font-stretch:normal;font-size:51.81091309px;line-height:125%;font-family:Ubuntu;-inkscape-font-specification:'Ubuntu Light';text-align:start;letter-spacing:0px;word-spacing:0px;writing-mode:lr-tb;text-anchor:start;fill:#808080;fill-opacity:1;stroke:none;stroke-width:0.99999994px;stroke-linecap:butt;stroke-linejoin:miter;stroke-opacity:1"
       d="m -10.803708,85.690581 -4.509971,0.833113 0,14.701666 c -0.640115,-0.38115 -1.274187,-0.75854 -2.310784,-1.14097 -1.409449,-0.57045 -3.060929,-0.846577 -4.950578,-0.846577 -2.083006,0 -3.965607,0.371931 -5.627845,1.127497 l -0.002,0.002 -0.002,0 c -1.617178,0.75219 -2.999152,1.81308 -4.12901,3.16891 -1.128709,1.35446 -1.98883,2.96756 -2.583997,4.82745 l -0.002,0.004 0,0.004 c -0.558438,1.82423 -0.835038,3.82655 -0.835038,6.0011 0,2.32434 0.331333,4.42406 1.004355,6.29357 l 0.002,0.004 0.002,0.006 c 0.70692,1.8603 1.679832,3.45556 2.920708,4.77163 l 0.0038,0.002 0.002,0.002 c 1.275399,1.31291 2.782266,2.33069 4.504199,3.04192 l 0.0059,0.002 0.0059,0.002 c 1.761128,0.67447 3.702111,1.0082 5.814477,1.0082 2.515727,0 4.603975,-0.16157 6.278172,-0.49641 1.641175,-0.32823 2.997553,-0.67636 4.077061,-1.0486 l 0.332861,-0.11352 0,-0.3521 0,-41.801896 0,-0.0019 z m 12.9045987,0 -4.5099715,0.833113 0,42.329096 4.5099715,0 0,-13.61074 c 0.843194,0.57797 1.6897589,1.16822 2.6032387,1.94329 l 0.00383,0.004 0.00197,0.002 c 1.2139244,0.99969 2.4130092,2.10784 3.5941236,3.32476 l 0.00197,0.004 0.00197,0.004 c 1.2137156,1.21372 2.356824,2.51627 3.428655,3.90966 l 0.0038,0.006 0.0059,0.006 c 1.106479,1.35633 2.085094,2.74659 2.939947,4.17133 l 0.144303,0.23858 5.312301,0 -0.432912,-0.74075 c -0.770164,-1.32029 -1.720205,-2.70806 -2.847592,-4.16364 -1.092626,-1.49325 -2.27626,-2.93205 -3.549872,-4.31565 -1.23922,-1.42145 -2.516468,-2.73538 -3.8307809,-3.94045 -1.1196767,-1.0557 -2.1657508,-1.87567 -3.1843017,-2.60323 l 2.6532637,-2.65328 c 1.1225039,-1.1225 2.2446689,-2.26426 3.3670859,-3.42288 l 3.307441,-3.41518 0.002,0 c 1.048726,-1.08489 1.988601,-2.0621 2.820656,-2.93033 l 0.798481,-0.833115 -5.608604,0 -0.14644,0.169205 c -0.717886,0.82557 -1.582437,1.77972 -2.591694,2.86107 -1.0079274,1.07991 -2.0888695,2.1966 -3.2420234,3.34976 l -0.00197,0.002 -0.00383,0.004 c -1.1188493,1.15493 -2.2367823,2.29065 -3.3555421,3.40942 -0.8105807,0.81057 -1.4991797,1.47961 -2.1953406,2.15685 l 0,-26.095877 0,-0.0019 z M -49.184644,99.183939 c -3.077551,0 -5.572275,0.726748 -7.415286,2.224201 l -0.002,0.002 -0.002,0.002 c -1.799325,1.49304 -2.726378,3.50884 -2.726378,5.90875 0,1.25263 0.227645,2.34802 0.706127,3.26511 0.462681,0.8868 1.083388,1.66251 1.852859,2.31655 l 0.0059,0.006 0.0059,0.006 c 0.753477,0.60278 1.615077,1.14425 2.582075,1.62776 l 0.0077,0.004 0.0059,0.004 c 0.945921,0.43657 1.94634,0.8725 2.999593,1.30836 1.297792,0.54074 2.378297,1.00852 3.238175,1.40263 l 0.0038,0.002 0.002,0.002 c 0.876541,0.38566 1.565321,0.78316 2.060658,1.17943 0.489082,0.39126 0.807808,0.8093 0.988961,1.26218 l 0.0059,0.0134 0.0059,0.0134 c 0.215798,0.46243 0.332862,1.03878 0.332862,1.7432 0,1.44968 -0.538379,2.35837 -1.733569,2.97458 0,0 -0.002,0 -0.002,0 -1.209817,0.60451 -2.797014,0.92547 -4.767795,0.92547 -1.099446,0 -2.067801,-0.0728 -2.901465,-0.21165 -0.811079,-0.1412 -1.511269,-0.299 -2.099139,-0.47139 -0.59444,-0.21017 -1.065934,-0.38348 -1.41234,-0.52166 -0.338738,-0.17012 -0.57873,-0.30436 -0.633012,-0.34056 l -0.559898,-0.37326 -1.221772,4.2406 0.36557,0.18278 c 0.499855,0.24992 1.366833,0.55101 2.666732,0.94856 9.1e-4,3e-4 0.0029,-3.1e-4 0.0038,0 1.389427,0.46257 3.305881,0.67534 5.791388,0.67534 3.352669,0 6.040985,-0.66123 8.030983,-2.03757 2.038668,-1.38476 3.090022,-3.50026 3.090022,-6.15503 0,-1.39377 -0.244529,-2.57807 -0.763847,-3.53833 -0.497771,-0.95569 -1.153585,-1.76847 -1.962529,-2.4243 -0.799055,-0.68393 -1.727399,-1.25046 -2.778329,-1.70086 l 0.02116,0.008 c -0.985144,-0.47433 -2.024963,-0.92912 -3.11695,-1.36606 l -0.0059,-0.002 c -1.040983,-0.43078 -1.972696,-0.82663 -2.797568,-1.18522 -0.766068,-0.34821 -1.418949,-0.71006 -1.964454,-1.08324 -0.492039,-0.39562 -0.859212,-0.8284 -1.112101,-1.30257 -0.244281,-0.45802 -0.377113,-1.02351 -0.377113,-1.7201 0,-0.68878 0.145056,-1.21973 0.409823,-1.6316 l 0.0038,-0.006 0.0038,-0.006 c 0.285594,-0.47598 0.657277,-0.84767 1.133265,-1.13327 l 0.0097,-0.006 0.0097,-0.008 c 0.487596,-0.32506 1.040559,-0.55394 1.671997,-0.68688 l 0.0097,-0.004 0.0077,-0.002 c 0.681763,-0.17043 1.400811,-0.25589 2.158783,-0.25589 1.958367,0 3.4189,0.18657 4.334884,0.51371 l 0.002,0 0.0038,0.002 c 1.039427,0.35843 1.772894,0.64786 2.16263,0.84273 l 0.544507,0.2713 1.065924,-4.11939 -0.355949,-0.17894 c -0.576574,-0.28829 -1.47467,-0.57391 -2.751392,-0.902376 -1.290284,-0.341545 -2.89903,-0.504101 -4.842831,-0.504102 z m 26.934766,4.238681 c 0.795746,0 1.550656,0.0846 2.270379,0.25589 l 0.01154,0.004 0.01154,0.002 c 0.732669,0.13956 1.408026,0.33037 2.027948,0.57144 0.628948,0.2446 1.162674,0.50385 1.600809,0.77347 l 0.0077,0.006 0.0077,0.004 c 0.412887,0.23594 0.720787,0.44752 0.998583,0.65032 l 0,18.97306 c -0.496972,0.14457 -1.109073,0.29367 -2.024101,0.44637 -1.011222,0.13894 -2.382676,0.21165 -4.100148,0.21165 -2.928877,0 -5.206933,-0.91746 -6.957363,-2.7687 l -0.002,-0.002 c -1.739262,-1.87682 -2.632099,-4.57325 -2.632099,-8.17722 0,-1.52005 0.157573,-2.94594 0.473316,-4.27909 l 0.002,-0.002 c 0.313178,-1.35709 0.812632,-2.5049 1.493064,-3.45751 l 0.002,-0.006 0.002,-0.004 c 0.678823,-0.9843 1.55372,-1.75768 2.645568,-2.33772 1.105649,-0.5683 2.487271,-0.8639 4.161719,-0.8639 z"
       id="text4185"
       inkscape:connector-curvature="0" />
    <rect
       transform="rotate(90)"
       y="-28.142857"
       x="78.505051"
       height="96"
       width="96"
       id="rect4782"
       style="color:#000000;display:inline;overflow:visible;visibility:visible;fill:none;stroke:none;stroke-width:4;marker:none;enable-background:accumulate" />
    <path
       style="display:inline;fill:#808080;fill-opacity:1;stroke:none;stroke-width:1;enable-background:new"
       d="m 5.8573308,134.71018 c -5.81753833,4e-5 -10.8931279,3.19898 -13.610974,7.95027 l -43.8021528,-2e-5 c -4.599077,9e-5 -8.301231,3.54435 -8.301128,7.94682 0,4.40264 3.702051,7.94701 8.301128,7.94705 l 43.80164,-9e-5 c 2.7176409,4.7515 7.79343565,7.95139 13.6113842,7.95084 6.3365128,7e-5 11.7983588,-3.81089 14.2858458,-9.27358 l -11.6661535,-2e-5 1.025e-4,-13.24774 11.666051,1e-5 c -2.487385,-5.46253 -7.949231,-9.27343 -14.2857432,-9.27354 z m -57.7469728,12.79187 a 3.0702717,3.1052779 0 0 1 3.070461,3.10516 3.0702717,3.1052779 0 0 1 -3.070461,3.10549 3.0702717,3.1052779 0 0 1 -3.070462,-3.10546 3.0702717,3.1052779 0 0 1 3.070462,-3.10519 z"
       id="path4328"
       inkscape:connector-curvature="0" />
  </g>
</svg>
