<?xml version="1.0" encoding="UTF-8" standalone="no"?>
<!-- Created with Inkscape (http://www.inkscape.org/) -->

<svg
   xmlns:dc="http://purl.org/dc/elements/1.1/"
   xmlns:cc="http://creativecommons.org/ns#"
   xmlns:rdf="http://www.w3.org/1999/02/22-rdf-syntax-ns#"
   xmlns:svg="http://www.w3.org/2000/svg"
   xmlns="http://www.w3.org/2000/svg"
   xmlns:sodipodi="http://sodipodi.sourceforge.net/DTD/sodipodi-0.dtd"
   xmlns:inkscape="http://www.inkscape.org/namespaces/inkscape"
   width="96"
   height="96"
   id="svg4874"
   version="1.1"
   inkscape:version="0.91+devel r"
   viewBox="0 0 96 96.000001"
   sodipodi:docname="wechat-symbolic.svg">
  <defs
     id="defs4876">
    <clipPath
       clipPathUnits="userSpaceOnUse"
       id="clipPath40">
      <path
         inkscape:connector-curvature="0"
         d="M 0,500 1024,500 1024,0 0,0 0,500 Z"
         id="path42" />
    </clipPath>
    <clipPath
       clipPathUnits="userSpaceOnUse"
       id="clipPath18">
      <path
         inkscape:connector-curvature="0"
         d="M 0,2743.88 0,0 l 2743.81,0 0,2743.88 -2743.81,0 z"
         id="path20" />
    </clipPath>
  </defs>
  <sodipodi:namedview
     id="base"
     pagecolor="#ffffff"
     bordercolor="#666666"
     borderopacity="1.0"
     inkscape:pageopacity="0.0"
     inkscape:pageshadow="2"
     inkscape:zoom="8.7812488"
     inkscape:cx="77.340931"
     inkscape:cy="69.386471"
     inkscape:document-units="px"
     inkscape:current-layer="g4780"
     showgrid="true"
     showborder="true"
     fit-margin-top="0"
     fit-margin-left="0"
     fit-margin-right="0"
     fit-margin-bottom="0"
     inkscape:snap-bbox="true"
     inkscape:bbox-paths="true"
     inkscape:bbox-nodes="true"
     inkscape:snap-bbox-edge-midpoints="true"
     inkscape:snap-bbox-midpoints="true"
     inkscape:object-paths="true"
     inkscape:snap-intersection-paths="true"
     inkscape:object-nodes="true"
     inkscape:snap-smooth-nodes="true"
     inkscape:snap-midpoints="true"
     inkscape:snap-object-midpoints="true"
     inkscape:snap-center="true"
     showguides="true"
     inkscape:guide-bbox="true"
     inkscape:snap-global="true">
    <inkscape:grid
       type="xygrid"
       id="grid5451"
       empspacing="8" />
    <sodipodi:guide
       orientation="1,0"
       position="8,-8.0000001"
       id="guide4063" />
    <sodipodi:guide
       orientation="1,0"
       position="4,-8.0000001"
       id="guide4065" />
    <sodipodi:guide
       orientation="0,1"
       position="-8,88.000001"
       id="guide4067" />
    <sodipodi:guide
       orientation="0,1"
       position="-8,92.000001"
       id="guide4069" />
    <sodipodi:guide
       orientation="0,1"
       position="104,4"
       id="guide4071" />
    <sodipodi:guide
       orientation="0,1"
       position="-5,8.0000001"
       id="guide4073" />
    <sodipodi:guide
       orientation="1,0"
       position="88,-8.0000001"
       id="guide4077" />
    <sodipodi:guide
       orientation="0,1"
       position="-8,84.000001"
       id="guide4074" />
    <sodipodi:guide
       orientation="1,0"
       position="12,-8.0000001"
       id="guide4076" />
    <sodipodi:guide
       orientation="1,0"
       position="84,-8.0000001"
       id="guide4080" />
    <sodipodi:guide
       position="48,-8.0000001"
       orientation="1,0"
       id="guide4170" />
    <sodipodi:guide
       position="-8,48"
       orientation="0,1"
       id="guide4172" />
    <sodipodi:guide
       position="92,-8.0000001"
       orientation="1,0"
       id="guide4760" />
  </sodipodi:namedview>
  <metadata
     id="metadata4879">
    <rdf:RDF>
      <cc:Work
         rdf:about="">
        <dc:format>image/svg+xml</dc:format>
        <dc:type
           rdf:resource="http://purl.org/dc/dcmitype/StillImage" />
        <dc:title></dc:title>
      </cc:Work>
    </rdf:RDF>
  </metadata>
  <g
     inkscape:label="Layer 1"
     inkscape:groupmode="layer"
     id="layer1"
     transform="translate(67.857146,-78.50504)">
    <g
       transform="matrix(0,-1,-1,0,373.50506,516.50504)"
       id="g4845"
       style="display:inline">
      <g
         inkscape:export-ydpi="90"
         inkscape:export-xdpi="90"
         inkscape:export-filename="next01.png"
         transform="matrix(-0.9996045,0,0,1,575.94296,-611.00001)"
         id="g4778"
         inkscape:label="Layer 1">
        <g
           transform="matrix(-1,0,0,1,575.99999,611)"
           id="g4780"
           style="display:inline">
          <rect
             style="color:#000000;display:inline;overflow:visible;visibility:visible;fill:none;stroke:none;stroke-width:4;marker:none;enable-background:accumulate"
             id="rect4782"
             width="96.037987"
             height="96"
             x="-438.00244"
             y="345.36221"
             transform="scale(-1,1)" />
          <path
             style="fill:#808080;stroke-width:1.00019777;enable-background:new"
             d="m 426.65937,406.50833 c -1e-5,17.51429 -11.944,31.85163 -27.11031,31.85387 -8.75202,3e-5 -15.93722,-4.7674 -21.51429,-12.74133 l -9.58891,3.18396 5.58716,-11.13661 c -0.7857,-3.98695 -1.59649,-7.18796 -1.59649,-11.15989 0,-0.99781 0.0514,-1.99377 0.13084,-2.97657 2.12306,0.62445 4.35807,0.98258 6.67218,0.98258 13.92124,0 25.22536,-11.94618 25.22536,-27.08072 0,-1.03859 -0.0748,-2.05373 -0.18858,-3.07085 12.84147,2.75311 22.383,16.47883 22.383,32.14556 z m -13.55628,10.34699 c 0,-2.38615 -1.57616,-3.97682 -3.974,-3.97909 -2.38927,0 -3.99288,1.59294 -3.99288,3.97909 0,2.38618 1.60361,4.80198 3.99288,4.80198 2.39784,0 3.974,-2.4158 3.974,-4.80198 z m 0,-22.29318 c 0,-2.39688 -1.57616,-3.98463 -3.974,-3.98463 -2.38927,0 -3.99288,1.58775 -3.99288,3.98463 0,2.39046 1.60361,4.78315 3.99288,4.78315 2.39784,0 3.974,-2.39269 3.974,-4.78315 z m -10.34887,-19.14137 c 0,15.15816 -10.38796,27.09183 -23.12851,27.09183 -12.76416,0 -23.12634,-11.93367 -23.12634,-27.09183 0,-3.16725 0.79809,-6.37304 1.60095,-9.5596 l -4.7928,-8.74005 7.96802,2.39321 c 4.79355,-6.39458 11.16092,-11.1544 18.35017,-11.15213 12.7384,0 23.12851,12.74371 23.12851,27.05857 z m -12.76634,8.77886 c 0,-2.40761 -1.59991,-3.98687 -3.18632,-3.98687 -1.61,0 -3.18741,1.57926 -3.18741,3.98687 0,1.58793 1.57741,3.18506 3.18741,3.18506 1.58425,0 3.18632,-1.595 3.18632,-3.18506 z m 0,-17.52223 c 0,-2.38403 -1.59991,-3.98131 -3.18632,-3.98131 -1.61,0 -3.18741,1.59728 -3.18741,3.98131 0,1.57932 1.57741,3.16731 3.18741,3.16731 1.58425,0 3.18632,-1.59014 3.18632,-3.16731 z"
             id="path4259"
             inkscape:connector-curvature="0" />
        </g>
      </g>
    </g>
  </g>
</svg>
