<?xml version="1.0" encoding="UTF-8" standalone="no"?>
<!-- Created with Inkscape (http://www.inkscape.org/) -->

<svg
   xmlns:dc="http://purl.org/dc/elements/1.1/"
   xmlns:cc="http://creativecommons.org/ns#"
   xmlns:rdf="http://www.w3.org/1999/02/22-rdf-syntax-ns#"
   xmlns:svg="http://www.w3.org/2000/svg"
   xmlns="http://www.w3.org/2000/svg"
   xmlns:sodipodi="http://sodipodi.sourceforge.net/DTD/sodipodi-0.dtd"
   xmlns:inkscape="http://www.inkscape.org/namespaces/inkscape"
   width="96"
   height="96"
   id="svg4874"
   version="1.1"
   inkscape:version="0.91+devel r"
   viewBox="0 0 96 96.000001"
   sodipodi:docname="wikipedia-symbolic.svg">
  <defs
     id="defs4876">
    <clipPath
       clipPathUnits="userSpaceOnUse"
       id="clipPath40">
      <path
         inkscape:connector-curvature="0"
         d="M 0,500 1024,500 1024,0 0,0 0,500 Z"
         id="path42" />
    </clipPath>
    <clipPath
       clipPathUnits="userSpaceOnUse"
       id="clipPath18">
      <path
         inkscape:connector-curvature="0"
         d="M 0,2743.88 0,0 l 2743.81,0 0,2743.88 -2743.81,0 z"
         id="path20" />
    </clipPath>
  </defs>
  <sodipodi:namedview
     id="base"
     pagecolor="#ffffff"
     bordercolor="#666666"
     borderopacity="1.0"
     inkscape:pageopacity="0.0"
     inkscape:pageshadow="2"
     inkscape:zoom="8.7812489"
     inkscape:cx="59.308189"
     inkscape:cy="66.197859"
     inkscape:document-units="px"
     inkscape:current-layer="g4780"
     showgrid="true"
     showborder="true"
     fit-margin-top="0"
     fit-margin-left="0"
     fit-margin-right="0"
     fit-margin-bottom="0"
     inkscape:snap-bbox="true"
     inkscape:bbox-paths="true"
     inkscape:bbox-nodes="true"
     inkscape:snap-bbox-edge-midpoints="true"
     inkscape:snap-bbox-midpoints="true"
     inkscape:object-paths="true"
     inkscape:snap-intersection-paths="true"
     inkscape:object-nodes="true"
     inkscape:snap-smooth-nodes="true"
     inkscape:snap-midpoints="true"
     inkscape:snap-object-midpoints="true"
     inkscape:snap-center="true"
     showguides="true"
     inkscape:guide-bbox="true"
     inkscape:snap-global="true">
    <inkscape:grid
       type="xygrid"
       id="grid5451"
       empspacing="8" />
    <sodipodi:guide
       orientation="1,0"
       position="8,-8.0000001"
       id="guide4063" />
    <sodipodi:guide
       orientation="1,0"
       position="4,-8.0000001"
       id="guide4065" />
    <sodipodi:guide
       orientation="0,1"
       position="-8,88.000001"
       id="guide4067" />
    <sodipodi:guide
       orientation="0,1"
       position="-8,92.000001"
       id="guide4069" />
    <sodipodi:guide
       orientation="0,1"
       position="104,4"
       id="guide4071" />
    <sodipodi:guide
       orientation="0,1"
       position="-5,8.0000001"
       id="guide4073" />
    <sodipodi:guide
       orientation="1,0"
       position="88,-8.0000001"
       id="guide4077" />
    <sodipodi:guide
       orientation="0,1"
       position="-8,84.000001"
       id="guide4074" />
    <sodipodi:guide
       orientation="1,0"
       position="12,-8.0000001"
       id="guide4076" />
    <sodipodi:guide
       orientation="1,0"
       position="84,-8.0000001"
       id="guide4080" />
    <sodipodi:guide
       position="48,-8.0000001"
       orientation="1,0"
       id="guide4170" />
    <sodipodi:guide
       position="-8,48"
       orientation="0,1"
       id="guide4172" />
    <sodipodi:guide
       position="92,-8.0000001"
       orientation="1,0"
       id="guide4760" />
  </sodipodi:namedview>
  <metadata
     id="metadata4879">
    <rdf:RDF>
      <cc:Work
         rdf:about="">
        <dc:format>image/svg+xml</dc:format>
        <dc:type
           rdf:resource="http://purl.org/dc/dcmitype/StillImage" />
        <dc:title></dc:title>
      </cc:Work>
    </rdf:RDF>
  </metadata>
  <g
     inkscape:label="Layer 1"
     inkscape:groupmode="layer"
     id="layer1"
     transform="translate(67.857146,-78.50504)">
    <g
       transform="matrix(0,-1,-1,0,373.50506,516.50504)"
       id="g4845"
       style="display:inline">
      <g
         inkscape:export-ydpi="90"
         inkscape:export-xdpi="90"
         inkscape:export-filename="next01.png"
         transform="matrix(-0.9996045,0,0,1,575.94296,-611.00001)"
         id="g4778"
         inkscape:label="Layer 1">
        <g
           transform="matrix(-1,0,0,1,575.99999,611)"
           id="g4780"
           style="display:inline">
          <rect
             style="color:#000000;display:inline;overflow:visible;visibility:visible;fill:none;stroke:none;stroke-width:4;marker:none;enable-background:accumulate"
             id="rect4782"
             width="96.037987"
             height="96"
             x="-438.00244"
             y="345.36221"
             transform="scale(-1,1)" />
          <path
             d="m 420.35808,365.40158 -0.17713,0.252 -1.73589,0 c -0.2056,0 -0.37476,-0.0905 -0.50376,-0.27207 -0.13936,-0.1848 -0.21085,-0.37637 -0.21085,-0.57851 l -0.0818,-1.64673 c -0.084,-2.03444 -0.49131,-2.59441 -1.17089,-3.38183 -0.70064,-0.78392 -1.89381,-0.87512 -3.57382,-0.26552 l -41.68817,17.56289 0.18356,0.67353 22.81822,11.14616 c 0.0207,-0.012 0.53769,-0.25855 0.53769,-0.25855 l 17.06609,-9.11826 c 1.8053,-1.06255 3.4135,-2.08702 4.15943,-2.60619 1.36964,-0.95105 1.6273,-1.48386 1.74953,-4.08273 0,-0.52964 0.23715,-0.79626 0.71472,-0.79626 l 1.72901,0 0.17702,0.19735 c 0,0 0.0349,11.15881 0,16.12704 l -0.17702,0.24469 -1.72901,0 c -0.2127,0 -0.37498,-0.0906 -0.50376,-0.27197 -0.13609,-0.18469 -0.21085,-0.36949 -0.21085,-0.57163 l -0.0818,-0.79604 c -0.0807,-2.03128 -0.62195,-2.96717 -0.95317,-3.2459 -0.5925,-0.48425 -1.22984,-0.72501 -3.79166,0.44913 l -14.00278,7.01565 12.98183,6.342 c 4.15092,2.08332 5.43325,2.59801 5.67716,-0.5376 l 0.17713,-1.23829 c 0,-0.60284 0.21816,-0.89825 0.63309,-0.89825 l 1.81064,0 0.15007,0.44912 c 0,0 1.1e-4,11.80747 -0.012,17.11366 l -0.17712,0.252 -1.82429,0 c -0.40784,0 -0.51141,-0.43004 -0.61956,-1.25225 -0.39037,-2.93684 -0.6954,-2.87161 -6.45343,-5.77725 -0.86423,-0.43549 -3.4649,-1.71458 -3.4649,-1.71458 l -13.00204,-6.6143 c 0,0 -3.14917,-1.42648 -4.25459,-1.92546 l -19.1966,9.6214 0.14286,0.54447 c 0,0 31.47539,14.92354 42.00804,19.24355 1.08742,0.44956 1.89796,0.65345 2.39637,0.65345 1.07007,0 1.6487,-0.96861 1.72902,-2.89876 l 0.0949,-2.25251 c 0,-0.59586 0.23061,-0.89815 0.70796,-0.89815 l 1.72912,0 0.17723,0.204 c 0,0 0.0196,17.87097 0,21.56403 l -0.17723,0.2041 -1.81752,0 c -0.32751,0 -0.52886,-0.41236 -0.61956,-1.24505 -0.12223,-2.26822 -0.48619,-3.75971 -1.08905,-4.47753 -0.60995,-0.71433 -2.15267,-1.47339 -4.55416,-2.47703 -13.03522,-5.42455 -36.29608,-16.94467 -49.544,-22.5574 -3.61768,-1.61662 -4.1747,-3.65084 0.11591,-6.11728 5.12483,-2.76317 15.08704,-7.61729 22.87955,-11.3842 -7.78029,-3.52789 -17.70157,-8.05397 -22.83863,-10.54736 -3.77462,-1.82913 -4.14491,-3.9072 -0.11589,-6.02215 12.29277,-5.52557 49.27168,-21.67268 49.27168,-21.67268 1.81927,-0.70037 3.21303,-1.67542 4.22742,-2.92604 1.0071,-1.24735 1.5663,-3.17128 1.68133,-5.77048 0,-0.52953 0.23737,-0.8028 0.70795,-0.8028 l 1.73578,0 0.17712,0.20411 0,19.83559 z"
             id="path3898"
             inkscape:connector-curvature="0"
             style="fill:#808080;stroke-width:1.00019777" />
        </g>
      </g>
    </g>
  </g>
</svg>
