<?xml version="1.0" encoding="UTF-8" standalone="no"?>
<!-- Created with Inkscape (http://www.inkscape.org/) -->

<svg
   xmlns:dc="http://purl.org/dc/elements/1.1/"
   xmlns:cc="http://creativecommons.org/ns#"
   xmlns:rdf="http://www.w3.org/1999/02/22-rdf-syntax-ns#"
   xmlns:svg="http://www.w3.org/2000/svg"
   xmlns="http://www.w3.org/2000/svg"
   xmlns:sodipodi="http://sodipodi.sourceforge.net/DTD/sodipodi-0.dtd"
   xmlns:inkscape="http://www.inkscape.org/namespaces/inkscape"
   width="96"
   height="96"
   id="svg4874"
   version="1.1"
   inkscape:version="0.92+devel unknown"
   viewBox="0 0 96 96.000001"
   sodipodi:docname="input-mouse-symbolic.svg">
  <defs
     id="defs4876">
    <inkscape:path-effect
       effect="spiro"
       id="path-effect4199"
       is_visible="true" />
    <inkscape:path-effect
       effect="spiro"
       id="path-effect4173"
       is_visible="true" />
  </defs>
  <sodipodi:namedview
     id="base"
     pagecolor="#ffffff"
     bordercolor="#666666"
     borderopacity="1.0"
     inkscape:pageopacity="0.0"
     inkscape:pageshadow="2"
     inkscape:zoom="10.976561"
     inkscape:cx="40.78223"
     inkscape:cy="59.235298"
     inkscape:document-units="px"
     inkscape:current-layer="g4780"
     showgrid="true"
     showborder="true"
     fit-margin-top="0"
     fit-margin-left="0"
     fit-margin-right="0"
     fit-margin-bottom="0"
     inkscape:snap-bbox="true"
     inkscape:bbox-paths="true"
     inkscape:bbox-nodes="true"
     inkscape:snap-bbox-edge-midpoints="true"
     inkscape:snap-bbox-midpoints="true"
     inkscape:object-paths="true"
     inkscape:snap-intersection-paths="true"
     inkscape:object-nodes="true"
     inkscape:snap-smooth-nodes="true"
     inkscape:snap-midpoints="true"
     inkscape:snap-object-midpoints="true"
     inkscape:snap-center="true"
     showguides="true"
     inkscape:guide-bbox="true"
     inkscape:snap-global="true"
     inkscape:document-rotation="0">
    <inkscape:grid
       type="xygrid"
       id="grid5451"
       empspacing="8" />
    <sodipodi:guide
       orientation="1,0"
       position="8,-8.0000001"
       id="guide4063"
       inkscape:locked="false" />
    <sodipodi:guide
       orientation="1,0"
       position="4,-8.0000001"
       id="guide4065"
       inkscape:locked="false" />
    <sodipodi:guide
       orientation="0,1"
       position="-8,88.000001"
       id="guide4067"
       inkscape:locked="false" />
    <sodipodi:guide
       orientation="0,1"
       position="-8,92.000001"
       id="guide4069"
       inkscape:locked="false" />
    <sodipodi:guide
       orientation="0,1"
       position="104,4"
       id="guide4071"
       inkscape:locked="false" />
    <sodipodi:guide
       orientation="0,1"
       position="-5,8.0000001"
       id="guide4073"
       inkscape:locked="false" />
    <sodipodi:guide
       orientation="1,0"
       position="88,-8.0000001"
       id="guide4077"
       inkscape:locked="false" />
    <sodipodi:guide
       orientation="0,1"
       position="-8,84.000001"
       id="guide4074"
       inkscape:locked="false" />
    <sodipodi:guide
       orientation="1,0"
       position="12,-8.0000001"
       id="guide4076"
       inkscape:locked="false" />
    <sodipodi:guide
       orientation="1,0"
       position="84,-8.0000001"
       id="guide4080"
       inkscape:locked="false" />
    <sodipodi:guide
       position="48,-8.0000001"
       orientation="1,0"
       id="guide4170"
       inkscape:locked="false" />
    <sodipodi:guide
       position="-8,48"
       orientation="0,1"
       id="guide4172"
       inkscape:locked="false" />
    <sodipodi:guide
       position="92,-8.0000001"
       orientation="1,0"
       id="guide4760"
       inkscape:locked="false" />
  </sodipodi:namedview>
  <metadata
     id="metadata4879">
    <rdf:RDF>
      <cc:Work
         rdf:about="">
        <dc:format>image/svg+xml</dc:format>
        <dc:type
           rdf:resource="http://purl.org/dc/dcmitype/StillImage" />
        <dc:title />
      </cc:Work>
    </rdf:RDF>
  </metadata>
  <g
     inkscape:label="Layer 1"
     inkscape:groupmode="layer"
     id="layer1"
     transform="translate(67.857146,-78.50504)">
    <g
       transform="matrix(0,-1,-1,0,373.50506,516.50504)"
       id="g4845">
      <g
         inkscape:export-ydpi="90"
         inkscape:export-xdpi="90"
         inkscape:export-filename="next01.png"
         transform="matrix(-0.9996045,0,0,1,575.94296,-611.00001)"
         id="g4778"
         inkscape:label="Layer 1">
        <g
           transform="matrix(-1,0,0,1,575.99999,611)"
           id="g4780">
          <rect
             style="color:#000000;fill:none;stroke-width:4"
             id="rect4782"
             width="96.037987"
             height="96"
             x="-438.00244"
             y="345.36221"
             transform="scale(-1,1)" />
          <path
             transform="matrix(0,-1,-1,0,0,0)"
             style="color:#000000;fill:#808080;stroke-width:6.00118685"
             d="m -393.36148,-422.99713 c 2.77,0 5,2.23088 5,5.00198 v 14.00554 c 0,2.7711 -2.23,5.00198 -5,5.00198 -2.77,0 -5,-2.23088 -5,-5.00198 v -14.00554 c 0,-2.7711 2.23,-5.00198 5,-5.00198 z"
             id="rect4191" />
          <path
             style="color:#000000;fill:#808080;stroke-width:4.00079155;stroke-dashoffset:0.25999999"
             d="M -393.36133 -438.00195 C -405.52808 -438.00195 -413.18115 -436.54847 -417.81836 -431.62109 C -422.45557 -426.69372 -423.36328 -419.12203 -423.36328 -408.00195 L -423.36328 -371.96484 C -423.36328 -360.84477 -422.45557 -353.27308 -417.81836 -348.3457 C -413.18115 -343.41833 -405.52808 -341.96484 -393.36133 -341.96484 C -381.19457 -341.96484 -373.54346 -343.41833 -368.90625 -348.3457 C -364.26904 -353.27308 -363.36133 -360.84477 -363.36133 -371.96484 L -363.36133 -408.00195 C -363.36133 -419.12203 -364.26904 -426.69372 -368.90625 -431.62109 C -373.54346 -436.54847 -381.19457 -438.00196 -393.36133 -438.00195 z M -393.36133 -434.00195 C -381.5281 -434.00196 -375.18116 -432.45213 -371.81836 -428.87891 C -368.45556 -425.30569 -367.36328 -418.87953 -367.36328 -408.00195 L -367.36328 -371.96484 C -367.36328 -361.08727 -368.45556 -354.66111 -371.81836 -351.08789 C -375.18116 -347.51467 -381.5281 -345.96484 -393.36133 -345.96484 C -405.19455 -345.96484 -411.54345 -347.51467 -414.90625 -351.08789 C -418.26905 -354.66111 -419.36133 -361.08727 -419.36133 -371.96484 L -419.36133 -408.00195 C -419.36133 -418.87953 -418.26905 -425.30569 -414.90625 -428.87891 C -411.54345 -432.45212 -405.19455 -434.00195 -393.36133 -434.00195 z "
             id="path841"
             transform="matrix(0,-1,-1,0,0,0)" />
        </g>
      </g>
    </g>
  </g>
</svg>
