<?xml version="1.0" encoding="UTF-8" standalone="no"?>
<!-- Created with Inkscape (http://www.inkscape.org/) -->

<svg
   xmlns:dc="http://purl.org/dc/elements/1.1/"
   xmlns:cc="http://creativecommons.org/ns#"
   xmlns:rdf="http://www.w3.org/1999/02/22-rdf-syntax-ns#"
   xmlns:svg="http://www.w3.org/2000/svg"
   xmlns="http://www.w3.org/2000/svg"
   xmlns:sodipodi="http://sodipodi.sourceforge.net/DTD/sodipodi-0.dtd"
   xmlns:inkscape="http://www.inkscape.org/namespaces/inkscape"
   width="96"
   height="96"
   id="svg4874"
   version="1.1"
   inkscape:version="0.91+devel r"
   viewBox="0 0 96 96.000001"
   sodipodi:docname="input-dialpad-symbolic.svg">
  <defs
     id="defs4876" />
  <sodipodi:namedview
     id="base"
     pagecolor="#ffffff"
     bordercolor="#666666"
     borderopacity="1.0"
     inkscape:pageopacity="0.0"
     inkscape:pageshadow="2"
     inkscape:zoom="5.6199994"
     inkscape:cx="19.187928"
     inkscape:cy="41.766209"
     inkscape:document-units="px"
     inkscape:current-layer="g4780"
     showgrid="true"
     showborder="true"
     fit-margin-top="0"
     fit-margin-left="0"
     fit-margin-right="0"
     fit-margin-bottom="0"
     inkscape:snap-bbox="true"
     inkscape:bbox-paths="true"
     inkscape:bbox-nodes="true"
     inkscape:snap-bbox-edge-midpoints="true"
     inkscape:snap-bbox-midpoints="true"
     inkscape:object-paths="true"
     inkscape:snap-intersection-paths="true"
     inkscape:object-nodes="true"
     inkscape:snap-smooth-nodes="true"
     inkscape:snap-midpoints="true"
     inkscape:snap-object-midpoints="true"
     inkscape:snap-center="true"
     showguides="true"
     inkscape:guide-bbox="true"
     inkscape:snap-global="true">
    <inkscape:grid
       type="xygrid"
       id="grid5451"
       empspacing="8" />
    <sodipodi:guide
       orientation="1,0"
       position="8,-8.0000001"
       id="guide4063" />
    <sodipodi:guide
       orientation="1,0"
       position="4,-8.0000001"
       id="guide4065" />
    <sodipodi:guide
       orientation="0,1"
       position="-8,88.000001"
       id="guide4067" />
    <sodipodi:guide
       orientation="0,1"
       position="-8,92.000001"
       id="guide4069" />
    <sodipodi:guide
       orientation="0,1"
       position="104,4"
       id="guide4071" />
    <sodipodi:guide
       orientation="0,1"
       position="-5,8.0000001"
       id="guide4073" />
    <sodipodi:guide
       orientation="1,0"
       position="92,-8.0000001"
       id="guide4075" />
    <sodipodi:guide
       orientation="1,0"
       position="88,-8.0000001"
       id="guide4077" />
    <sodipodi:guide
       orientation="0,1"
       position="-8,84.000001"
       id="guide4074" />
    <sodipodi:guide
       orientation="1,0"
       position="12,-8.0000001"
       id="guide4076" />
    <sodipodi:guide
       orientation="0,1"
       position="-5,12"
       id="guide4078" />
    <sodipodi:guide
       orientation="1,0"
       position="84,-9.0000001"
       id="guide4080" />
    <sodipodi:guide
       position="48,-8.0000001"
       orientation="1,0"
       id="guide4170" />
    <sodipodi:guide
       position="-8,48"
       orientation="0,1"
       id="guide4172" />
  </sodipodi:namedview>
  <metadata
     id="metadata4879">
    <rdf:RDF>
      <cc:Work
         rdf:about="">
        <dc:format>image/svg+xml</dc:format>
        <dc:type
           rdf:resource="http://purl.org/dc/dcmitype/StillImage" />
        <dc:title></dc:title>
      </cc:Work>
    </rdf:RDF>
  </metadata>
  <g
     inkscape:label="Layer 1"
     inkscape:groupmode="layer"
     id="layer1"
     transform="translate(67.857146,-78.50504)">
    <g
       transform="matrix(0,-1,-1,0,373.50506,516.50504)"
       id="g4845"
       style="display:inline">
      <g
         inkscape:export-ydpi="90"
         inkscape:export-xdpi="90"
         inkscape:export-filename="next01.png"
         transform="matrix(-0.9996045,0,0,1,575.94296,-611.00001)"
         id="g4778"
         inkscape:label="Layer 1">
        <g
           transform="matrix(-1,0,0,1,575.99999,611)"
           id="g4780"
           style="display:inline">
          <rect
             style="color:#000000;display:inline;overflow:visible;visibility:visible;fill:none;stroke:none;stroke-width:4;marker:none;enable-background:accumulate"
             id="rect4782"
             width="96.037987"
             height="96"
             x="-438.00244"
             y="345.36221"
             transform="scale(-1,1)" />
          <path
             style="color:#000000;font-style:normal;font-variant:normal;font-weight:normal;font-stretch:normal;font-size:medium;line-height:normal;font-family:sans-serif;font-variant-ligatures:none;font-variant-position:normal;font-variant-caps:normal;font-variant-numeric:normal;font-variant-alternates:normal;font-feature-settings:normal;text-indent:0;text-align:start;text-decoration:none;text-decoration-line:none;text-decoration-style:solid;text-decoration-color:#000000;letter-spacing:normal;word-spacing:normal;text-transform:none;direction:ltr;block-progression:tb;writing-mode:lr-tb;baseline-shift:baseline;text-anchor:start;white-space:normal;shape-padding:0;clip-rule:nonzero;display:inline;overflow:visible;visibility:visible;opacity:1;isolation:auto;mix-blend-mode:normal;color-interpolation:sRGB;color-interpolation-filters:linearRGB;solid-color:#000000;solid-opacity:1;fill:#808080;fill-opacity:1;fill-rule:nonzero;stroke:none;stroke-width:3.99999976;stroke-linecap:butt;stroke-linejoin:miter;stroke-miterlimit:4;stroke-dasharray:none;stroke-dashoffset:0;stroke-opacity:1;marker:none;color-rendering:auto;image-rendering:auto;shape-rendering:auto;text-rendering:auto;enable-background:accumulate"
             d="M 16.375 11.990234 C 14.981676 11.993953 13.660126 12.106961 12.361328 12.947266 C 11.495458 13.507464 10.823023 14.43334 10.470703 15.458984 C 10.118373 16.484629 10 17.619592 10 18.998047 L 10 25 C 10 26.378455 10.118383 27.513408 10.470703 28.539062 C 10.823013 29.564707 11.495458 30.494489 12.361328 31.054688 C 14.093058 32.175104 15.861949 32 17.792969 32 L 24.205078 32 C 26.136108 32 27.905179 32.175324 29.636719 31.054688 C 30.502489 30.494379 31.177167 29.564637 31.529297 28.539062 C 31.881427 27.513488 32 26.378375 32 25 L 32 18.998047 C 32 17.659546 31.877601 16.540923 31.525391 15.527344 C 31.173191 14.513765 30.513402 13.600565 29.664062 13.03125 C 27.965393 11.892631 26.166948 12 24.205078 12 L 17.792969 12 C 17.310214 12 16.839441 11.988995 16.375 11.990234 z M 43.375 11.990234 C 41.981676 11.993953 40.660126 12.106961 39.361328 12.947266 C 38.495458 13.507464 37.823023 14.43334 37.470703 15.458984 C 37.118373 16.484629 37 17.619592 37 18.998047 L 37 25 C 37 26.378455 37.118383 27.513408 37.470703 28.539062 C 37.823013 29.564707 38.495458 30.494489 39.361328 31.054688 C 41.093058 32.175104 42.861949 32 44.792969 32 L 51.205078 32 C 53.136108 32 54.905179 32.175324 56.636719 31.054688 C 57.502489 30.494379 58.177167 29.564637 58.529297 28.539062 C 58.881427 27.513488 59 26.378375 59 25 L 59 18.998047 C 59 17.659546 58.877601 16.540923 58.525391 15.527344 C 58.173191 14.513765 57.513402 13.600565 56.664062 13.03125 C 54.965393 11.892631 53.166948 12 51.205078 12 L 44.792969 12 C 44.310214 12 43.839441 11.988995 43.375 11.990234 z M 70.375 11.990234 C 68.981676 11.993953 67.660126 12.106961 66.361328 12.947266 C 65.495458 13.507464 64.823023 14.43334 64.470703 15.458984 C 64.118373 16.484629 64 17.619592 64 18.998047 L 64 25 C 64 26.378455 64.118383 27.513408 64.470703 28.539062 C 64.823013 29.564707 65.495458 30.494489 66.361328 31.054688 C 68.093058 32.175104 69.861949 32 71.792969 32 L 78.205078 32 C 80.136108 32 81.905179 32.175324 83.636719 31.054688 C 84.502489 30.494379 85.177167 29.564637 85.529297 28.539062 C 85.881427 27.513488 86 26.378375 86 25 L 86 18.998047 C 86 17.659546 85.877601 16.540923 85.525391 15.527344 C 85.173191 14.513765 84.513402 13.600565 83.664062 13.03125 C 81.965393 11.892631 80.166948 12 78.205078 12 L 71.792969 12 C 71.310214 12 70.839441 11.988995 70.375 11.990234 z M 17.792969 16 L 24.205078 16 C 26.105288 16 27.203307 16.197847 27.435547 16.353516 C 27.551667 16.431355 27.615584 16.464262 27.746094 16.839844 C 27.876594 17.215425 27.998047 17.926431 27.998047 18.998047 L 27.998047 25 C 27.998047 26.121016 27.874731 26.861868 27.744141 27.242188 C 27.613561 27.622517 27.562591 27.632791 27.462891 27.697266 C 27.263511 27.826295 26.136128 28.001953 24.205078 28.001953 L 17.792969 28.001953 C 15.861929 28.001953 14.734936 27.826514 14.535156 27.697266 C 14.435266 27.632631 14.384526 27.622437 14.253906 27.242188 C 14.123286 26.861938 14 26.120936 14 25 L 14 18.998047 C 14 17.8771 14.123286 17.138052 14.253906 16.757812 C 14.384526 16.377583 14.435256 16.367309 14.535156 16.302734 C 14.734926 16.173486 15.861929 16 17.792969 16 z M 44.792969 16 L 51.205078 16 C 53.105288 16 54.203307 16.197847 54.435547 16.353516 C 54.551667 16.431355 54.615584 16.464262 54.746094 16.839844 C 54.876594 17.215425 54.998047 17.926431 54.998047 18.998047 L 54.998047 25 C 54.998047 26.121016 54.874731 26.861868 54.744141 27.242188 C 54.613561 27.622517 54.562591 27.632791 54.462891 27.697266 C 54.263511 27.826295 53.136128 28.001953 51.205078 28.001953 L 44.792969 28.001953 C 42.861929 28.001953 41.734936 27.826514 41.535156 27.697266 C 41.435266 27.632631 41.384526 27.622437 41.253906 27.242188 C 41.123286 26.861938 41 26.120936 41 25 L 41 18.998047 C 41 17.8771 41.123286 17.138052 41.253906 16.757812 C 41.384526 16.377583 41.435256 16.367309 41.535156 16.302734 C 41.734926 16.173486 42.861929 16 44.792969 16 z M 71.792969 16 L 78.205078 16 C 80.105288 16 81.203307 16.197847 81.435547 16.353516 C 81.551667 16.431355 81.615584 16.464262 81.746094 16.839844 C 81.876594 17.215425 81.998047 17.926431 81.998047 18.998047 L 81.998047 25 C 81.998047 26.121016 81.874731 26.861868 81.744141 27.242188 C 81.613561 27.622517 81.562591 27.632791 81.462891 27.697266 C 81.263511 27.826295 80.136128 28.001953 78.205078 28.001953 L 71.792969 28.001953 C 69.861929 28.001953 68.734936 27.826514 68.535156 27.697266 C 68.435266 27.632631 68.384526 27.622437 68.253906 27.242188 C 68.123286 26.861938 68 26.120936 68 25 L 68 18.998047 C 68 17.8771 68.123286 17.138052 68.253906 16.757812 C 68.384526 16.377583 68.435256 16.367309 68.535156 16.302734 C 68.734926 16.173486 69.861929 16 71.792969 16 z M 16.375 37.990234 C 14.981676 37.993405 13.660126 38.105015 12.361328 38.945312 C 11.495458 39.505521 10.823023 40.43333 10.470703 41.458984 C 10.118373 42.484629 10 43.619602 10 44.998047 L 10 51.001953 C 10 52.380398 10.118383 53.515361 10.470703 54.541016 C 10.823013 55.56666 11.495458 56.494479 12.361328 57.054688 C 14.093058 58.175094 15.861949 58 17.792969 58 L 24.205078 58 C 26.136108 58 27.905179 58.175314 29.636719 57.054688 C 30.502489 56.494369 31.177167 55.564647 31.529297 54.539062 C 31.881427 53.513488 32 52.380318 32 51.001953 L 32 44.998047 C 32 43.659546 31.877601 42.542876 31.525391 41.529297 C 31.173191 40.515718 30.513402 39.600565 29.664062 39.03125 C 27.965393 37.892631 26.166948 38.001953 24.205078 38.001953 L 17.792969 38.001953 C 17.310214 38.001953 16.839441 37.989178 16.375 37.990234 z M 43.375 37.990234 C 41.981676 37.993405 40.660126 38.105015 39.361328 38.945312 C 38.495458 39.505521 37.823023 40.43333 37.470703 41.458984 C 37.118373 42.484629 37 43.619602 37 44.998047 L 37 51.001953 C 37 52.380398 37.118383 53.515361 37.470703 54.541016 C 37.823013 55.56666 38.495458 56.494479 39.361328 57.054688 C 41.093058 58.175094 42.861949 58 44.792969 58 L 51.205078 58 C 53.136108 58 54.905179 58.175314 56.636719 57.054688 C 57.502489 56.494369 58.177167 55.564647 58.529297 54.539062 C 58.881427 53.513488 59 52.380318 59 51.001953 L 59 44.998047 C 59 43.659546 58.877601 42.542876 58.525391 41.529297 C 58.173191 40.515718 57.513402 39.600565 56.664062 39.03125 C 54.965393 37.892631 53.166948 38.001953 51.205078 38.001953 L 44.792969 38.001953 C 44.310214 38.001953 43.839441 37.989178 43.375 37.990234 z M 70.375 37.990234 C 68.981676 37.993405 67.660126 38.105015 66.361328 38.945312 C 65.495458 39.505521 64.823023 40.43333 64.470703 41.458984 C 64.118373 42.484629 64 43.619602 64 44.998047 L 64 51.001953 C 64 52.380398 64.118383 53.515361 64.470703 54.541016 C 64.823013 55.56666 65.495458 56.494479 66.361328 57.054688 C 68.093058 58.175094 69.861949 58 71.792969 58 L 78.205078 58 C 80.136108 58 81.905179 58.175314 83.636719 57.054688 C 84.502489 56.494369 85.177167 55.564647 85.529297 54.539062 C 85.881427 53.513488 86 52.380318 86 51.001953 L 86 44.998047 C 86 43.659546 85.877601 42.542876 85.525391 41.529297 C 85.173191 40.515718 84.513402 39.600565 83.664062 39.03125 C 81.965393 37.892631 80.166948 38.001953 78.205078 38.001953 L 71.792969 38.001953 C 71.310214 38.001953 70.839441 37.989178 70.375 37.990234 z M 17.792969 42 L 24.205078 42 C 26.105288 42 27.203307 42.197837 27.435547 42.353516 C 27.551667 42.431345 27.615584 42.466215 27.746094 42.841797 C 27.876594 43.217368 27.998047 43.926431 27.998047 44.998047 L 27.998047 51.001953 C 27.998047 52.12297 27.874731 52.861868 27.744141 53.242188 C 27.613561 53.622557 27.562591 53.630838 27.462891 53.695312 C 27.263511 53.824351 26.136128 54 24.205078 54 L 17.792969 54 C 15.861929 54 14.734936 53.824571 14.535156 53.695312 C 14.435266 53.630688 14.384526 53.620474 14.253906 53.240234 C 14.123286 52.859985 14 52.12289 14 51.001953 L 14 44.998047 C 14 43.87711 14.123286 43.140005 14.253906 42.759766 C 14.384526 42.379536 14.435256 42.369362 14.535156 42.304688 C 14.734926 42.175439 15.861929 42 17.792969 42 z M 44.792969 42 L 51.205078 42 C 53.105288 42 54.203307 42.197837 54.435547 42.353516 C 54.551667 42.431345 54.615584 42.466215 54.746094 42.841797 C 54.876594 43.217368 54.998047 43.926431 54.998047 44.998047 L 54.998047 51.001953 C 54.998047 52.12297 54.874731 52.861868 54.744141 53.242188 C 54.613561 53.622557 54.562591 53.630838 54.462891 53.695312 C 54.263511 53.824351 53.136128 54 51.205078 54 L 44.792969 54 C 42.861929 54 41.734936 53.824571 41.535156 53.695312 C 41.435266 53.630688 41.384526 53.620474 41.253906 53.240234 C 41.123286 52.859985 41 52.12289 41 51.001953 L 41 44.998047 C 41 43.87711 41.123286 43.140005 41.253906 42.759766 C 41.384526 42.379536 41.435256 42.369362 41.535156 42.304688 C 41.734926 42.175439 42.861929 42 44.792969 42 z M 71.792969 42 L 78.205078 42 C 80.105288 42 81.203307 42.197837 81.435547 42.353516 C 81.551667 42.431345 81.615584 42.466215 81.746094 42.841797 C 81.876594 43.217368 81.998047 43.926431 81.998047 44.998047 L 81.998047 51.001953 C 81.998047 52.12297 81.874731 52.861868 81.744141 53.242188 C 81.613561 53.622557 81.562591 53.630838 81.462891 53.695312 C 81.263511 53.824351 80.136128 54 78.205078 54 L 71.792969 54 C 69.861929 54 68.734936 53.824571 68.535156 53.695312 C 68.435266 53.630688 68.384526 53.620474 68.253906 53.240234 C 68.123286 52.859985 68 52.12289 68 51.001953 L 68 44.998047 C 68 43.87711 68.123286 43.140005 68.253906 42.759766 C 68.384526 42.379536 68.435256 42.369362 68.535156 42.304688 C 68.734926 42.175439 69.861929 42 71.792969 42 z M 16.375 63.990234 C 14.981676 63.993402 13.660126 64.105007 12.361328 64.945312 C 11.495458 65.505511 10.823023 66.435283 10.470703 67.460938 C 10.118373 68.486582 10 69.619592 10 70.998047 L 10 77.001953 C 10 78.380398 10.118383 79.515371 10.470703 80.541016 C 10.823013 81.56667 11.495458 82.492536 12.361328 83.052734 C 14.093058 84.173151 15.861949 84 17.792969 84 L 24.205078 84 C 26.136108 84 27.905179 84.173371 29.636719 83.052734 C 30.502489 82.492426 31.177167 81.5666 31.529297 80.541016 C 31.881427 79.515441 32 78.380318 32 77.001953 L 32 70.998047 C 32 69.659546 31.877601 68.542876 31.525391 67.529297 C 31.173191 66.515728 30.513402 65.600555 29.664062 65.03125 C 27.965393 63.892631 26.166948 64 24.205078 64 L 17.792969 64 C 17.310214 64 16.839441 63.989178 16.375 63.990234 z M 43.375 63.990234 C 41.981676 63.993402 40.660126 64.105007 39.361328 64.945312 C 38.495458 65.505511 37.823023 66.435283 37.470703 67.460938 C 37.118373 68.486582 37 69.619592 37 70.998047 L 37 77.001953 C 37 78.380398 37.118383 79.515371 37.470703 80.541016 C 37.823013 81.56667 38.495458 82.492536 39.361328 83.052734 C 41.093058 84.173151 42.861949 84 44.792969 84 L 51.205078 84 C 53.136108 84 54.905179 84.173371 56.636719 83.052734 C 57.502489 82.492426 58.177167 81.5666 58.529297 80.541016 C 58.881427 79.515441 59 78.380318 59 77.001953 L 59 70.998047 C 59 69.659546 58.877601 68.542876 58.525391 67.529297 C 58.173191 66.515728 57.513402 65.600555 56.664062 65.03125 C 54.965393 63.892631 53.166948 64 51.205078 64 L 44.792969 64 C 44.310214 64 43.839441 63.989178 43.375 63.990234 z M 70.375 63.990234 C 68.981676 63.993402 67.660126 64.105007 66.361328 64.945312 C 65.495458 65.505511 64.823023 66.435283 64.470703 67.460938 C 64.118373 68.486582 64 69.619592 64 70.998047 L 64 77.001953 C 64 78.380398 64.118383 79.515371 64.470703 80.541016 C 64.823013 81.56667 65.495458 82.492536 66.361328 83.052734 C 68.093058 84.173151 69.861949 84 71.792969 84 L 78.205078 84 C 80.136108 84 81.905179 84.173371 83.636719 83.052734 C 84.502489 82.492426 85.177167 81.5666 85.529297 80.541016 C 85.881427 79.515441 86 78.380318 86 77.001953 L 86 70.998047 C 86 69.659546 85.877601 68.542876 85.525391 67.529297 C 85.173191 66.515728 84.513402 65.600555 83.664062 65.03125 C 81.965393 63.892631 80.166948 64 78.205078 64 L 71.792969 64 C 71.310214 64 70.839441 63.989178 70.375 63.990234 z M 17.792969 67.998047 L 24.205078 67.998047 C 26.105288 67.998047 27.203307 68.195894 27.435547 68.351562 C 27.551667 68.429402 27.615584 68.464272 27.746094 68.839844 C 27.876594 69.215425 27.998047 69.926431 27.998047 70.998047 L 27.998047 77.001953 C 27.998047 78.12297 27.874731 78.861878 27.744141 79.242188 C 27.613561 79.622517 27.562591 79.632791 27.462891 79.697266 C 27.263511 79.826305 26.136128 80 24.205078 80 L 17.792969 80 C 15.861929 80 14.734936 79.826524 14.535156 79.697266 C 14.435266 79.632641 14.384526 79.622437 14.253906 79.242188 C 14.123286 78.861948 14 78.12289 14 77.001953 L 14 70.998047 C 14 69.87711 14.123286 69.138062 14.253906 68.757812 C 14.384526 68.377583 14.435256 68.367409 14.535156 68.302734 C 14.734926 68.173486 15.861929 67.998047 17.792969 67.998047 z M 44.792969 67.998047 L 51.205078 67.998047 C 53.105288 67.998047 54.203307 68.195894 54.435547 68.351562 C 54.551667 68.429402 54.615584 68.464272 54.746094 68.839844 C 54.876594 69.215425 54.998047 69.926431 54.998047 70.998047 L 54.998047 77.001953 C 54.998047 78.12297 54.874731 78.861878 54.744141 79.242188 C 54.613561 79.622517 54.562591 79.632791 54.462891 79.697266 C 54.263511 79.826305 53.136128 80 51.205078 80 L 44.792969 80 C 42.861929 80 41.734936 79.826524 41.535156 79.697266 C 41.435266 79.632641 41.384526 79.622437 41.253906 79.242188 C 41.123286 78.861948 41 78.12289 41 77.001953 L 41 70.998047 C 41 69.87711 41.123286 69.138062 41.253906 68.757812 C 41.384526 68.377583 41.435256 68.367409 41.535156 68.302734 C 41.734926 68.173486 42.861929 67.998047 44.792969 67.998047 z M 71.792969 67.998047 L 78.205078 67.998047 C 80.105288 67.998047 81.203307 68.195894 81.435547 68.351562 C 81.551667 68.429402 81.615584 68.464272 81.746094 68.839844 C 81.876594 69.215425 81.998047 69.926431 81.998047 70.998047 L 81.998047 77.001953 C 81.998047 78.12297 81.874731 78.861878 81.744141 79.242188 C 81.613561 79.622517 81.562591 79.632791 81.462891 79.697266 C 81.263511 79.826305 80.136128 80 78.205078 80 L 71.792969 80 C 69.861929 80 68.734936 79.826524 68.535156 79.697266 C 68.435266 79.632641 68.384526 79.622437 68.253906 79.242188 C 68.123286 78.861948 68 78.12289 68 77.001953 L 68 70.998047 C 68 69.87711 68.123286 69.138062 68.253906 68.757812 C 68.384526 68.377583 68.435256 68.367409 68.535156 68.302734 C 68.734926 68.173486 69.861929 67.998047 71.792969 67.998047 z "
             transform="matrix(0,-1,-1.0003957,0,438.00245,441.36222)"
             id="path4233" />
        </g>
      </g>
    </g>
  </g>
</svg>
