<?xml version="1.0" encoding="UTF-8" standalone="no"?>
<!-- Created with Inkscape (http://www.inkscape.org/) -->

<svg
   xmlns:dc="http://purl.org/dc/elements/1.1/"
   xmlns:cc="http://creativecommons.org/ns#"
   xmlns:rdf="http://www.w3.org/1999/02/22-rdf-syntax-ns#"
   xmlns:svg="http://www.w3.org/2000/svg"
   xmlns="http://www.w3.org/2000/svg"
   xmlns:sodipodi="http://sodipodi.sourceforge.net/DTD/sodipodi-0.dtd"
   xmlns:inkscape="http://www.inkscape.org/namespaces/inkscape"
   width="96"
   height="96"
   id="svg4874"
   version="1.1"
   inkscape:version="0.91+devel r"
   viewBox="0 0 96 96.000001"
   sodipodi:docname="input-dialpad-hidden-symbolic.svg">
  <defs
     id="defs4876" />
  <sodipodi:namedview
     id="base"
     pagecolor="#ffffff"
     bordercolor="#666666"
     borderopacity="1.0"
     inkscape:pageopacity="0.0"
     inkscape:pageshadow="2"
     inkscape:zoom="7.0249992"
     inkscape:cx="45.841449"
     inkscape:cy="45.420086"
     inkscape:document-units="px"
     inkscape:current-layer="g4780"
     showgrid="true"
     showborder="true"
     fit-margin-top="0"
     fit-margin-left="0"
     fit-margin-right="0"
     fit-margin-bottom="0"
     inkscape:snap-bbox="true"
     inkscape:bbox-paths="true"
     inkscape:bbox-nodes="true"
     inkscape:snap-bbox-edge-midpoints="true"
     inkscape:snap-bbox-midpoints="true"
     inkscape:object-paths="true"
     inkscape:snap-intersection-paths="true"
     inkscape:object-nodes="true"
     inkscape:snap-smooth-nodes="true"
     inkscape:snap-midpoints="true"
     inkscape:snap-object-midpoints="true"
     inkscape:snap-center="true"
     showguides="true"
     inkscape:guide-bbox="true"
     inkscape:snap-global="true">
    <inkscape:grid
       type="xygrid"
       id="grid5451"
       empspacing="8" />
    <sodipodi:guide
       orientation="1,0"
       position="8,-8.0000001"
       id="guide4063" />
    <sodipodi:guide
       orientation="1,0"
       position="4,-8.0000001"
       id="guide4065" />
    <sodipodi:guide
       orientation="0,1"
       position="-8,88.000001"
       id="guide4067" />
    <sodipodi:guide
       orientation="0,1"
       position="-8,92.000001"
       id="guide4069" />
    <sodipodi:guide
       orientation="0,1"
       position="104,4"
       id="guide4071" />
    <sodipodi:guide
       orientation="0,1"
       position="-5,8.0000001"
       id="guide4073" />
    <sodipodi:guide
       orientation="1,0"
       position="92,-8.0000001"
       id="guide4075" />
    <sodipodi:guide
       orientation="1,0"
       position="88,-8.0000001"
       id="guide4077" />
    <sodipodi:guide
       orientation="0,1"
       position="-8,84.000001"
       id="guide4074" />
    <sodipodi:guide
       orientation="1,0"
       position="12,-8.0000001"
       id="guide4076" />
    <sodipodi:guide
       orientation="0,1"
       position="-5,12"
       id="guide4078" />
    <sodipodi:guide
       orientation="1,0"
       position="84,-9.0000001"
       id="guide4080" />
    <sodipodi:guide
       position="48,-8.0000001"
       orientation="1,0"
       id="guide4170" />
    <sodipodi:guide
       position="-8,48"
       orientation="0,1"
       id="guide4172" />
  </sodipodi:namedview>
  <metadata
     id="metadata4879">
    <rdf:RDF>
      <cc:Work
         rdf:about="">
        <dc:format>image/svg+xml</dc:format>
        <dc:type
           rdf:resource="http://purl.org/dc/dcmitype/StillImage" />
        <dc:title></dc:title>
      </cc:Work>
    </rdf:RDF>
  </metadata>
  <g
     inkscape:label="Layer 1"
     inkscape:groupmode="layer"
     id="layer1"
     transform="translate(67.857146,-78.50504)">
    <g
       transform="matrix(0,-1,-1,0,373.50506,516.50504)"
       id="g4845"
       style="display:inline">
      <g
         inkscape:export-ydpi="90"
         inkscape:export-xdpi="90"
         inkscape:export-filename="next01.png"
         transform="matrix(-0.9996045,0,0,1,575.94296,-611.00001)"
         id="g4778"
         inkscape:label="Layer 1">
        <g
           transform="matrix(-1,0,0,1,575.99999,611)"
           id="g4780"
           style="display:inline">
          <rect
             style="color:#000000;display:inline;overflow:visible;visibility:visible;fill:none;stroke:none;stroke-width:4;marker:none;enable-background:accumulate"
             id="rect4782"
             width="96.037987"
             height="96"
             x="-438.00244"
             y="345.36221"
             transform="scale(-1,1)" />
          <path
             style="color:#000000;font-style:normal;font-variant:normal;font-weight:normal;font-stretch:normal;font-size:medium;line-height:normal;font-family:sans-serif;font-variant-ligatures:none;font-variant-position:normal;font-variant-caps:normal;font-variant-numeric:normal;font-variant-alternates:normal;font-feature-settings:normal;text-indent:0;text-align:start;text-decoration:none;text-decoration-line:none;text-decoration-style:solid;text-decoration-color:#000000;letter-spacing:normal;word-spacing:normal;text-transform:none;direction:ltr;block-progression:tb;writing-mode:lr-tb;baseline-shift:baseline;text-anchor:start;white-space:normal;shape-padding:0;clip-rule:nonzero;display:inline;overflow:visible;visibility:visible;opacity:1;isolation:auto;mix-blend-mode:normal;color-interpolation:sRGB;color-interpolation-filters:linearRGB;solid-color:#000000;solid-opacity:1;fill:#808080;fill-opacity:1;fill-rule:nonzero;stroke:none;stroke-width:3.99920869;stroke-linecap:butt;stroke-linejoin:miter;stroke-miterlimit:4;stroke-dasharray:none;stroke-dashoffset:0;stroke-opacity:1;marker:none;color-rendering:auto;image-rendering:auto;shape-rendering:auto;text-rendering:auto;enable-background:accumulate"
             d="M 16.375 11.990234 C 14.981709 11.993626 13.662131 12.10539 12.363281 12.945312 C 11.497381 13.505271 10.823243 14.43315 10.470703 15.458984 C 10.118173 16.484818 10 17.619472 10 18.998047 L 10 25.001953 C 10 26.380528 10.118173 27.515182 10.470703 28.541016 C 10.823243 29.56685 11.497381 30.494729 12.363281 31.054688 C 14.095081 32.174584 15.864022 32 17.794922 32 L 24.207031 32 C 26.137951 32 27.907192 32.174954 29.638672 31.054688 C 30.504412 30.494549 31.177067 29.56673 31.529297 28.541016 C 31.881517 27.515301 32 26.380398 32 25.001953 L 32 18.998047 C 32 17.659466 31.879644 16.541053 31.527344 15.527344 C 31.175054 14.513635 30.515326 13.598442 29.666016 13.029297 C 27.967376 11.891017 26.168771 12 24.207031 12 L 17.794922 12 C 17.312197 12 16.83943 11.989104 16.375 11.990234 z M 43.375 11.990234 C 41.981709 11.993626 40.662131 12.10539 39.363281 12.945312 C 38.497381 13.505271 37.823243 14.43315 37.470703 15.458984 C 37.118173 16.484818 37 17.619472 37 18.998047 L 37 25.001953 C 37 26.380528 37.118173 27.515182 37.470703 28.541016 C 37.823243 29.56685 38.497381 30.494729 39.363281 31.054688 C 41.095081 32.174584 42.864022 32 44.794922 32 L 51.207031 32 C 52.986498 32 54.628637 32.134736 56.230469 31.28125 L 58.177734 29.333984 C 58.315096 29.079142 58.435223 28.814964 58.529297 28.541016 C 58.881517 27.515301 59 26.380398 59 25.001953 L 59 18.998047 C 59 17.659466 58.879644 16.541053 58.527344 15.527344 C 58.175054 14.513635 57.515326 13.598442 56.666016 13.029297 C 54.967376 11.891017 53.168771 12 51.207031 12 L 44.794922 12 C 44.312197 12 43.83943 11.989104 43.375 11.990234 z M 70.375 11.990234 C 68.981709 11.993626 67.662131 12.10539 66.363281 12.945312 C 65.497381 13.505271 64.823243 14.43315 64.470703 15.458984 C 64.118173 16.484818 64 17.619472 64 18.998047 L 64 23.511719 L 68 19.511719 L 68 18.998047 C 68 17.87725 68.123336 17.137752 68.253906 16.757812 C 68.384466 16.377883 68.435076 16.369402 68.535156 16.304688 C 68.724144 16.18247 69.767148 16.023654 71.505859 16.005859 L 75.511719 12 L 71.794922 12 C 71.312197 12 70.83943 11.989104 70.375 11.990234 z M 81.076172 12.095703 L 77.169922 16 L 78.207031 16 C 80.107381 16 81.20517 16.197827 81.4375 16.353516 C 81.55366 16.431385 81.617607 16.464522 81.748047 16.839844 C 81.878477 17.215165 82 17.926521 82 18.998047 L 82 25.001953 C 82 26.12289 81.876604 26.862128 81.746094 27.242188 C 81.615594 27.622237 81.564584 27.632731 81.464844 27.697266 C 81.265364 27.826325 80.138201 28 78.207031 28 L 71.794922 28 C 69.863772 28 68.735296 27.824741 68.535156 27.695312 C 68.435076 27.630638 68.384466 27.622137 68.253906 27.242188 C 68.130815 26.88401 68.022727 26.177596 68.009766 25.162109 L 64.519531 28.652344 C 64.881866 29.632403 65.529761 30.515668 66.363281 31.054688 C 68.095081 32.174584 69.864022 32 71.794922 32 L 78.207031 32 C 80.137951 32 81.907192 32.174954 83.638672 31.054688 C 84.504412 30.494549 85.177067 29.56673 85.529297 28.541016 C 85.881517 27.515301 86 26.380398 86 25.001953 L 86 18.998047 C 86 17.659466 85.879644 16.541053 85.527344 15.527344 C 85.175054 14.513635 84.515326 13.598442 83.666016 13.029297 C 82.829662 12.468846 81.968535 12.213302 81.076172 12.095703 z M 17.794922 16 L 24.207031 16 C 26.107381 16 27.20517 16.197827 27.4375 16.353516 C 27.55366 16.431385 27.617607 16.464522 27.748047 16.839844 C 27.878477 17.215165 28 17.926521 28 18.998047 L 28 25.001953 C 28 26.12289 27.876604 26.862128 27.746094 27.242188 C 27.615594 27.622237 27.564584 27.632731 27.464844 27.697266 C 27.265364 27.826325 26.138201 28 24.207031 28 L 17.794922 28 C 15.863772 28 14.735296 27.824741 14.535156 27.695312 C 14.435076 27.630638 14.384466 27.622137 14.253906 27.242188 C 14.123336 26.862248 14 26.12275 14 25.001953 L 14 18.998047 C 14 17.87725 14.123336 17.137752 14.253906 16.757812 C 14.384466 16.377883 14.435076 16.369402 14.535156 16.304688 C 14.735296 16.175259 15.863772 16 17.794922 16 z M 44.794922 16 L 51.207031 16 C 53.107381 16 54.20517 16.197827 54.4375 16.353516 C 54.55366 16.431385 54.617607 16.464522 54.748047 16.839844 C 54.878477 17.215165 55 17.926521 55 18.998047 L 55 25.001953 C 55 26.12289 54.876604 26.862128 54.746094 27.242188 C 54.615594 27.622237 54.564584 27.632731 54.464844 27.697266 C 54.265364 27.826325 53.138201 28 51.207031 28 L 44.794922 28 C 42.863772 28 41.735296 27.824741 41.535156 27.695312 C 41.435076 27.630638 41.384466 27.622137 41.253906 27.242188 C 41.123336 26.862248 41 26.12275 41 25.001953 L 41 18.998047 C 41 17.87725 41.123336 17.137752 41.253906 16.757812 C 41.384466 16.377883 41.435076 16.369402 41.535156 16.304688 C 41.735296 16.175259 42.863772 16 44.794922 16 z M 16.375 37.990234 C 14.981709 37.993626 13.662131 38.10539 12.363281 38.945312 C 11.497381 39.505271 10.823243 40.43315 10.470703 41.458984 C 10.118173 42.484818 10 43.619472 10 44.998047 L 10 51.001953 C 10 52.380538 10.118173 53.515182 10.470703 54.541016 C 10.823243 55.56685 11.497381 56.494739 12.363281 57.054688 C 14.095081 58.174594 15.864022 58 17.794922 58 L 24.207031 58 C 26.137951 58 27.907192 58.174954 29.638672 57.054688 C 30.504412 56.494559 31.177067 55.56673 31.529297 54.541016 C 31.881517 53.515301 32 52.380408 32 51.001953 L 32 44.998047 C 32 43.659466 31.879644 42.541053 31.527344 41.527344 C 31.175054 40.513625 30.515326 39.598442 29.666016 39.029297 C 27.967376 37.891017 26.168771 38 24.207031 38 L 17.794922 38 C 17.312197 38 16.83943 37.989104 16.375 37.990234 z M 43.375 37.990234 C 41.981709 37.993626 40.662131 38.10539 39.363281 38.945312 C 38.497381 39.505271 37.823243 40.43315 37.470703 41.458984 C 37.118173 42.484818 37 43.619472 37 44.998047 L 37 50.511719 L 41 46.511719 L 41 44.998047 C 41 43.87725 41.123336 43.137752 41.253906 42.757812 C 41.384466 42.377873 41.435076 42.369402 41.535156 42.304688 C 41.735296 42.175259 42.863772 42 44.794922 42 L 45.511719 42 L 49.511719 38 L 44.794922 38 C 44.312197 38 43.83943 37.989104 43.375 37.990234 z M 70.375 37.990234 C 68.981709 37.993626 67.662131 38.10539 66.363281 38.945312 C 65.497381 39.505271 64.823243 40.43315 64.470703 41.458984 C 64.118173 42.484818 64 43.619472 64 44.998047 L 64 51.001953 C 64 52.380538 64.118173 53.515182 64.470703 54.541016 C 64.823243 55.56685 65.497381 56.494739 66.363281 57.054688 C 68.095081 58.174594 69.864022 58 71.794922 58 L 78.207031 58 C 80.137951 58 81.907192 58.174954 83.638672 57.054688 C 84.504412 56.494559 85.177067 55.56673 85.529297 54.541016 C 85.881517 53.515301 86 52.380408 86 51.001953 L 86 44.998047 C 86 43.659466 85.879644 42.541053 85.527344 41.527344 C 85.175054 40.513625 84.515326 39.598442 83.666016 39.029297 C 81.967376 37.891017 80.168771 38 78.207031 38 L 71.794922 38 C 71.312197 38 70.83943 37.989104 70.375 37.990234 z M 54.910156 38.259766 L 51.169922 42 L 51.207031 42 C 53.107381 42 54.20517 42.197827 54.4375 42.353516 C 54.55366 42.431385 54.617607 42.464522 54.748047 42.839844 C 54.878477 43.215155 55 43.926521 55 44.998047 L 55 51.001953 C 55 52.12289 54.876604 52.862128 54.746094 53.242188 C 54.615594 53.622237 54.564584 53.632741 54.464844 53.697266 C 54.265364 53.826335 53.138201 54 51.207031 54 L 44.794922 54 C 42.863772 54 41.735296 53.824741 41.535156 53.695312 C 41.435076 53.630638 41.384466 53.622137 41.253906 53.242188 C 41.175037 53.01269 41.110504 52.606044 41.0625 52.109375 L 37.828125 55.34375 C 38.205288 56.038941 38.73167 56.646245 39.363281 57.054688 C 41.095081 58.174594 42.864022 58 44.794922 58 L 51.207031 58 C 53.137951 58 54.907192 58.174954 56.638672 57.054688 C 57.504412 56.494559 58.177067 55.56673 58.529297 54.541016 C 58.881517 53.515301 59 52.380408 59 51.001953 L 59 44.998047 C 59 43.659466 58.879644 42.541053 58.527344 41.527344 C 58.175054 40.513625 57.515326 39.598442 56.666016 39.029297 C 56.093385 38.64557 55.507929 38.411963 54.910156 38.259766 z M 17.794922 42 L 24.207031 42 C 26.107381 42 27.20517 42.197827 27.4375 42.353516 C 27.55366 42.431385 27.617607 42.464522 27.748047 42.839844 C 27.878477 43.215155 28 43.926521 28 44.998047 L 28 51.001953 C 28 52.12289 27.876604 52.862128 27.746094 53.242188 C 27.615594 53.622237 27.564584 53.632741 27.464844 53.697266 C 27.265364 53.826335 26.138201 54 24.207031 54 L 17.794922 54 C 15.863772 54 14.735296 53.824741 14.535156 53.695312 C 14.435076 53.630638 14.384466 53.622137 14.253906 53.242188 C 14.123336 52.862248 14 52.12276 14 51.001953 L 14 44.998047 C 14 43.87725 14.123336 43.137752 14.253906 42.757812 C 14.384466 42.377873 14.435076 42.369402 14.535156 42.304688 C 14.735296 42.175259 15.863772 42 17.794922 42 z M 71.794922 42 L 78.207031 42 C 80.107381 42 81.20517 42.197827 81.4375 42.353516 C 81.55366 42.431385 81.617607 42.464522 81.748047 42.839844 C 81.878477 43.215155 82 43.926521 82 44.998047 L 82 51.001953 C 82 52.12289 81.876604 52.862128 81.746094 53.242188 C 81.615594 53.622237 81.564584 53.632741 81.464844 53.697266 C 81.265364 53.826335 80.138201 54 78.207031 54 L 71.794922 54 C 69.863772 54 68.735296 53.824741 68.535156 53.695312 C 68.435076 53.630638 68.384466 53.622137 68.253906 53.242188 C 68.123336 52.862248 68 52.12276 68 51.001953 L 68 44.998047 C 68 43.87725 68.123336 43.137752 68.253906 42.757812 C 68.384466 42.377873 68.435076 42.369402 68.535156 42.304688 C 68.735296 42.175259 69.863772 42 71.794922 42 z M 16.375 63.990234 C 14.981709 63.993629 13.662131 64.10539 12.363281 64.945312 C 11.497381 65.505261 10.823243 66.43315 10.470703 67.458984 C 10.118173 68.484818 10 69.619462 10 70.998047 L 10 77.001953 C 10 77.175295 10.007751 77.334103 10.011719 77.5 L 14 73.511719 L 14 70.998047 C 14 69.87724 14.123336 69.137752 14.253906 68.757812 C 14.384466 68.377873 14.435076 68.369402 14.535156 68.304688 C 14.735296 68.175249 15.863772 68 17.794922 68 L 19.511719 68 L 23.511719 64 L 17.794922 64 C 17.312197 64 16.83943 63.989103 16.375 63.990234 z M 43.375 63.990234 C 41.981709 63.993629 40.662131 64.10539 39.363281 64.945312 C 38.497381 65.505261 37.823243 66.43315 37.470703 67.458984 C 37.118173 68.484818 37 69.619462 37 70.998047 L 37 77.001953 C 37 78.380538 37.118173 79.515182 37.470703 80.541016 C 37.823243 81.56684 38.497381 82.494739 39.363281 83.054688 C 41.095081 84.174594 42.864022 84 44.794922 84 L 51.207031 84 C 53.137951 84 54.907192 84.174954 56.638672 83.054688 C 57.504412 82.494559 58.177067 81.56672 58.529297 80.541016 C 58.881517 79.515301 59 78.380408 59 77.001953 L 59 70.998047 C 59 69.659466 58.879644 68.541063 58.527344 67.527344 C 58.175054 66.513635 57.515326 65.598432 56.666016 65.029297 C 54.967376 63.891017 53.168771 64 51.207031 64 L 44.794922 64 C 44.312197 64 43.83943 63.989103 43.375 63.990234 z M 70.375 63.990234 C 68.981709 63.993629 67.662131 64.10539 66.363281 64.945312 C 65.497381 65.505261 64.823243 66.43315 64.470703 67.458984 C 64.118173 68.484818 64 69.619462 64 70.998047 L 64 77.001953 C 64 78.380538 64.118173 79.515182 64.470703 80.541016 C 64.823243 81.56684 65.497381 82.494739 66.363281 83.054688 C 68.095081 84.174594 69.864022 84 71.794922 84 L 78.207031 84 C 80.137951 84 81.907192 84.174954 83.638672 83.054688 C 84.504412 82.494559 85.177067 81.56672 85.529297 80.541016 C 85.881517 79.515301 86 78.380408 86 77.001953 L 86 70.998047 C 86 69.659466 85.879644 68.541063 85.527344 67.527344 C 85.175054 66.513635 84.515326 65.598432 83.666016 65.029297 C 81.967376 63.891017 80.168771 64 78.207031 64 L 71.794922 64 C 71.312197 64 70.83943 63.989103 70.375 63.990234 z M 28.662109 64.507812 L 25.146484 68.025391 C 26.453152 68.078246 27.24802 68.226542 27.4375 68.353516 C 27.55366 68.431385 27.617607 68.464532 27.748047 68.839844 C 27.878477 69.215165 28 69.926511 28 70.998047 L 28 77.001953 C 28 78.12289 27.876604 78.862138 27.746094 79.242188 C 27.615594 79.622247 27.564584 79.632731 27.464844 79.697266 C 27.265364 79.826335 26.138201 80 24.207031 80 L 17.794922 80 C 15.863772 80 14.735296 79.824741 14.535156 79.695312 C 14.435076 79.630638 14.384466 79.622147 14.253906 79.242188 C 14.233143 79.18177 14.217197 79.053301 14.197266 78.974609 L 11.214844 81.957031 C 11.537854 82.393453 11.925408 82.771529 12.363281 83.054688 C 14.095081 84.174594 15.864022 84 17.794922 84 L 24.207031 84 C 26.137951 84 27.907192 84.174954 29.638672 83.054688 C 30.504412 82.494559 31.177067 81.56672 31.529297 80.541016 C 31.881517 79.515301 32 78.380408 32 77.001953 L 32 70.998047 C 32 69.659466 31.879644 68.541063 31.527344 67.527344 C 31.175054 66.513635 30.515326 65.598432 29.666016 65.029297 C 29.335649 64.807914 29.000503 64.644815 28.662109 64.507812 z M 44.794922 68 L 51.207031 68 C 53.107381 68 54.20517 68.197827 54.4375 68.353516 C 54.55366 68.431385 54.617607 68.464532 54.748047 68.839844 C 54.878477 69.215165 55 69.926511 55 70.998047 L 55 77.001953 C 55 78.12289 54.876604 78.862138 54.746094 79.242188 C 54.615594 79.622247 54.564584 79.632731 54.464844 79.697266 C 54.265364 79.826335 53.138201 80 51.207031 80 L 44.794922 80 C 42.863772 80 41.735296 79.824741 41.535156 79.695312 C 41.435076 79.630638 41.384466 79.622147 41.253906 79.242188 C 41.123336 78.862258 41 78.12276 41 77.001953 L 41 70.998047 C 41 69.87724 41.123336 69.137752 41.253906 68.757812 C 41.384466 68.377873 41.435076 68.369402 41.535156 68.304688 C 41.735296 68.175249 42.863772 68 44.794922 68 z M 71.794922 68 L 78.207031 68 C 80.107381 68 81.20517 68.197827 81.4375 68.353516 C 81.55366 68.431385 81.617607 68.464532 81.748047 68.839844 C 81.878477 69.215165 82 69.926511 82 70.998047 L 82 77.001953 C 82 78.12289 81.876604 78.862138 81.746094 79.242188 C 81.615594 79.622247 81.564584 79.632731 81.464844 79.697266 C 81.265364 79.826335 80.138201 80 78.207031 80 L 71.794922 80 C 69.863772 80 68.735296 79.824741 68.535156 79.695312 C 68.435076 79.630638 68.384466 79.622147 68.253906 79.242188 C 68.123336 78.862258 68 78.12276 68 77.001953 L 68 70.998047 C 68 69.87724 68.123336 69.137752 68.253906 68.757812 C 68.384466 68.377873 68.435076 68.369402 68.535156 68.304688 C 68.735296 68.175249 69.863772 68 71.794922 68 z "
             transform="matrix(0,-1,-1.0003957,0,438.00245,441.36222)"
             id="path4233" />
          <path
             style="color:#000000;font-style:normal;font-variant:normal;font-weight:normal;font-stretch:normal;font-size:medium;line-height:normal;font-family:sans-serif;font-variant-ligatures:normal;font-variant-position:normal;font-variant-caps:normal;font-variant-numeric:normal;font-variant-alternates:normal;font-feature-settings:normal;text-indent:0;text-align:start;text-decoration:none;text-decoration-line:none;text-decoration-style:solid;text-decoration-color:#000000;letter-spacing:normal;word-spacing:normal;text-transform:none;direction:ltr;block-progression:tb;writing-mode:lr-tb;baseline-shift:baseline;text-anchor:start;white-space:normal;shape-padding:0;clip-rule:nonzero;display:inline;overflow:visible;visibility:visible;opacity:1;isolation:auto;mix-blend-mode:normal;color-interpolation:sRGB;color-interpolation-filters:linearRGB;solid-color:#000000;solid-opacity:1;fill:#808080;fill-opacity:1;fill-rule:nonzero;stroke:none;stroke-width:4.00079107;stroke-linecap:butt;stroke-linejoin:miter;stroke-miterlimit:4;stroke-dasharray:none;stroke-dashoffset:0;stroke-opacity:1;marker:none;color-rendering:auto;image-rendering:auto;shape-rendering:auto;text-rendering:auto;enable-background:accumulate"
             d="m 428.58594,351.94727 -80.03321,80 2.83008,2.83007 80.03125,-80 -2.82812,-2.83007 z"
             id="path4205"
             inkscape:connector-curvature="0" />
        </g>
      </g>
    </g>
  </g>
</svg>
