<?xml version="1.0" encoding="UTF-8" standalone="no"?>
<!-- Created with Inkscape (http://www.inkscape.org/) -->

<svg
   xmlns:dc="http://purl.org/dc/elements/1.1/"
   xmlns:cc="http://creativecommons.org/ns#"
   xmlns:rdf="http://www.w3.org/1999/02/22-rdf-syntax-ns#"
   xmlns:svg="http://www.w3.org/2000/svg"
   xmlns="http://www.w3.org/2000/svg"
   xmlns:sodipodi="http://sodipodi.sourceforge.net/DTD/sodipodi-0.dtd"
   xmlns:inkscape="http://www.inkscape.org/namespaces/inkscape"
   width="96"
   height="96"
   id="svg4874"
   version="1.1"
   inkscape:version="0.92pre1 unknown"
   viewBox="0 0 96 96.000001"
   sodipodi:docname="wireless-display-symbolic.svg">
  <defs
     id="defs4876">
    <clipPath
       clipPathUnits="userSpaceOnUse"
       id="clipPath4269">
      <rect
         style="color:#000000;display:inline;overflow:visible;visibility:visible;opacity:0.6;fill:#ed3146;fill-opacity:1;fill-rule:nonzero;stroke:none;stroke-width:6.00118685;stroke-linecap:butt;stroke-linejoin:round;stroke-miterlimit:4;stroke-dasharray:none;stroke-dashoffset:0;stroke-opacity:1;marker:none;enable-background:accumulate"
         id="rect4271"
         width="39"
         height="41.016224"
         x="-427.36221"
         y="-412.99255"
         transform="matrix(0,-1,-1,0,0,0)" />
    </clipPath>
  </defs>
  <sodipodi:namedview
     id="base"
     pagecolor="#ffffff"
     bordercolor="#666666"
     borderopacity="1.0"
     inkscape:pageopacity="0.0"
     inkscape:pageshadow="2"
     inkscape:zoom="5.6199992"
     inkscape:cx="-58.149481"
     inkscape:cy="35.151227"
     inkscape:document-units="px"
     inkscape:current-layer="g4258"
     showgrid="false"
     showborder="true"
     fit-margin-top="0"
     fit-margin-left="0"
     fit-margin-right="0"
     fit-margin-bottom="0"
     inkscape:snap-bbox="true"
     inkscape:bbox-paths="true"
     inkscape:bbox-nodes="true"
     inkscape:snap-bbox-edge-midpoints="true"
     inkscape:snap-bbox-midpoints="true"
     inkscape:object-paths="true"
     inkscape:snap-intersection-paths="true"
     inkscape:object-nodes="true"
     inkscape:snap-smooth-nodes="false"
     inkscape:snap-midpoints="false"
     inkscape:snap-object-midpoints="false"
     inkscape:snap-center="false"
     showguides="false"
     inkscape:guide-bbox="true"
     inkscape:snap-global="true"
     inkscape:snap-others="false">
    <inkscape:grid
       type="xygrid"
       id="grid5451"
       empspacing="8" />
    <sodipodi:guide
       orientation="1,0"
       position="8,-8.0000001"
       id="guide4063"
       inkscape:locked="false" />
    <sodipodi:guide
       orientation="1,0"
       position="4,-8.0000001"
       id="guide4065"
       inkscape:locked="false" />
    <sodipodi:guide
       orientation="0,1"
       position="-8,88.000001"
       id="guide4067"
       inkscape:locked="false" />
    <sodipodi:guide
       orientation="0,1"
       position="-8,92.000001"
       id="guide4069"
       inkscape:locked="false" />
    <sodipodi:guide
       orientation="0,1"
       position="104,4"
       id="guide4071"
       inkscape:locked="false" />
    <sodipodi:guide
       orientation="0,1"
       position="-5,8.0000001"
       id="guide4073"
       inkscape:locked="false" />
    <sodipodi:guide
       orientation="1,0"
       position="88,-8.0000001"
       id="guide4077"
       inkscape:locked="false" />
    <sodipodi:guide
       orientation="0,1"
       position="-8,84.000001"
       id="guide4074"
       inkscape:locked="false" />
    <sodipodi:guide
       orientation="1,0"
       position="12,-8.0000001"
       id="guide4076"
       inkscape:locked="false" />
    <sodipodi:guide
       orientation="1,0"
       position="84,-8.0000001"
       id="guide4080"
       inkscape:locked="false" />
    <sodipodi:guide
       position="48,-8.0000001"
       orientation="1,0"
       id="guide4170"
       inkscape:locked="false" />
    <sodipodi:guide
       position="-8,48"
       orientation="0,1"
       id="guide4172"
       inkscape:locked="false" />
    <sodipodi:guide
       position="92,-8.0000001"
       orientation="1,0"
       id="guide4760"
       inkscape:locked="false" />
  </sodipodi:namedview>
  <metadata
     id="metadata4879">
    <rdf:RDF>
      <cc:Work
         rdf:about="">
        <dc:format>image/svg+xml</dc:format>
        <dc:type
           rdf:resource="http://purl.org/dc/dcmitype/StillImage" />
        <dc:title />
      </cc:Work>
    </rdf:RDF>
  </metadata>
  <g
     inkscape:label="Layer 1"
     inkscape:groupmode="layer"
     id="layer1"
     transform="translate(67.857146,-78.50504)">
    <g
       transform="matrix(0,-1,-1,0,373.50506,516.50504)"
       id="g4845"
       style="display:inline">
      <g
         inkscape:export-ydpi="90"
         inkscape:export-xdpi="90"
         inkscape:export-filename="next01.png"
         transform="matrix(-0.9996045,0,0,1,575.94296,-611.00001)"
         id="g4778"
         inkscape:label="Layer 1">
        <g
           transform="matrix(-1,0,0,1,575.99999,611)"
           id="g4780"
           style="display:inline">
          <rect
             style="color:#000000;display:inline;overflow:visible;visibility:visible;fill:none;stroke:none;stroke-width:4;marker:none;enable-background:accumulate"
             id="rect4782"
             width="96.037987"
             height="96"
             x="-438.00244"
             y="345.36221"
             transform="scale(-1,1)" />
          <path
             style="color:#000000;font-style:normal;font-variant:normal;font-weight:normal;font-stretch:normal;font-size:medium;line-height:normal;font-family:sans-serif;font-variant-ligatures:normal;font-variant-position:normal;font-variant-caps:normal;font-variant-numeric:normal;font-variant-alternates:normal;font-feature-settings:normal;text-indent:0;text-align:start;text-decoration:none;text-decoration-line:none;text-decoration-style:solid;text-decoration-color:#000000;letter-spacing:normal;word-spacing:normal;text-transform:none;writing-mode:lr-tb;direction:ltr;text-orientation:mixed;dominant-baseline:auto;baseline-shift:baseline;text-anchor:start;white-space:normal;shape-padding:0;clip-rule:nonzero;display:inline;overflow:visible;visibility:visible;opacity:1;isolation:auto;mix-blend-mode:normal;color-interpolation:sRGB;color-interpolation-filters:linearRGB;solid-color:#000000;solid-opacity:1;fill:#808080;fill-opacity:1;fill-rule:nonzero;stroke:none;stroke-width:4.00079155;stroke-linecap:butt;stroke-linejoin:miter;stroke-miterlimit:4;stroke-dasharray:none;stroke-dashoffset:0;stroke-opacity:1;marker:none;color-rendering:auto;image-rendering:auto;shape-rendering:auto;text-rendering:auto;enable-background:accumulate"
             d="m 373.97656,349.36133 c -2.6314,0 -4.71551,0.23788 -6.4707,0.89648 -1.75519,0.6586 -3.15919,1.84985 -3.99024,3.35547 -1.66208,3.01124 -1.48476,6.6938 -1.54296,11.72656 v 0.0117 56.02149 0.0117 c 0.0582,5.03276 -0.11912,8.71532 1.54296,11.72656 0.83105,1.50562 2.23505,2.69686 3.99024,3.35547 1.75519,0.6586 3.8393,0.89648 6.4707,0.89648 h 40.01563 c 2.6314,0 4.71551,-0.23788 6.4707,-0.89648 1.75519,-0.65861 3.15919,-1.84985 3.99023,-3.35547 1.66209,-3.01124 1.48672,-6.6938 1.54493,-11.72656 v -0.0117 -56.02149 -0.0117 c -0.0582,-5.03276 0.11716,-8.71532 -1.54493,-11.72656 -0.83104,-1.50562 -2.23504,-2.69687 -3.99023,-3.35547 -1.75519,-0.6586 -3.8393,-0.89648 -6.4707,-0.89648 z m 0,4.00195 h 40.01563 c 2.37058,0 4.02426,0.25031 5.06445,0.64063 1.0402,0.39031 1.48966,0.80945 1.89453,1.54297 0.80823,1.46429 0.98613,4.77814 1.04492,9.8164 v 55.97656 c -0.0584,5.05418 -0.23518,8.37086 -1.04492,9.83789 -0.40487,0.73352 -0.85433,1.15266 -1.89453,1.54297 -1.04019,0.39032 -2.69387,0.64063 -5.06445,0.64063 h -40.01563 c -2.37058,0 -4.02426,-0.25031 -5.06445,-0.64063 -1.0402,-0.39031 -1.48966,-0.80945 -1.89453,-1.54297 -0.80836,-1.46451 -0.98616,-4.77682 -1.04492,-9.8164 v -0.0215 -55.95312 -0.0234 c 0.0588,-5.03826 0.23669,-8.35211 1.04492,-9.8164 0.40487,-0.73352 0.85433,-1.15266 1.89453,-1.54297 1.04019,-0.39032 2.69387,-0.64063 5.06445,-0.64063 z"
             id="path4297"
             inkscape:connector-curvature="0" />
          <path
             style="color:#000000;display:inline;overflow:visible;visibility:visible;opacity:1;fill:#808080;fill-opacity:1;fill-rule:nonzero;stroke:none;stroke-width:8.0015831;stroke-linecap:butt;stroke-linejoin:miter;stroke-miterlimit:4;stroke-dasharray:none;stroke-dashoffset:0;stroke-opacity:1;marker:none;enable-background:accumulate"
             d="m 363.97318,403.36221 v -19.99999 h -6.00238 c -6.00237,0 -6.00237,-2 -6.00237,-6 h -2.0008 v 31.99999 l 2.0008,10e-6 c 0,-4 0,-6 6.00237,-6 z"
             id="rect4188"
             inkscape:connector-curvature="0"
             sodipodi:nodetypes="ccccccccc" />
          <g
             inkscape:groupmode="maskhelper"
             id="g4267"
             clip-path="url(#clipPath4269)">
            <g
               id="g4258">
              <ellipse
                 style="color:#000000;display:inline;overflow:visible;visibility:visible;opacity:0.98999999;fill:#808080;fill-opacity:1;fill-rule:nonzero;stroke:none;stroke-width:10.00197792;stroke-linecap:butt;stroke-linejoin:miter;stroke-miterlimit:4;stroke-dasharray:none;stroke-dashoffset:0;stroke-opacity:1;marker:none;enable-background:accumulate"
                 id="path4267"
                 transform="matrix(0,-1,-1,0,0,0)"
                 cx="-427.36221"
                 cy="-371.97632"
                 rx="4.9999971"
                 ry="5.0019755" />
              <path
                 style="color:#000000;font-style:normal;font-variant:normal;font-weight:normal;font-stretch:normal;font-size:medium;line-height:normal;font-family:sans-serif;font-variant-ligatures:normal;font-variant-position:normal;font-variant-caps:normal;font-variant-numeric:normal;font-variant-alternates:normal;font-feature-settings:normal;text-indent:0;text-align:start;text-decoration:none;text-decoration-line:none;text-decoration-style:solid;text-decoration-color:#000000;letter-spacing:normal;word-spacing:normal;text-transform:none;writing-mode:lr-tb;direction:ltr;text-orientation:mixed;dominant-baseline:auto;baseline-shift:baseline;text-anchor:start;white-space:normal;shape-padding:0;clip-rule:nonzero;display:inline;overflow:visible;visibility:visible;opacity:0.98999999;isolation:auto;mix-blend-mode:normal;color-interpolation:sRGB;color-interpolation-filters:linearRGB;solid-color:#000000;solid-opacity:1;fill:#808080;fill-opacity:1;fill-rule:nonzero;stroke:none;stroke-width:4.00079107;stroke-linecap:butt;stroke-linejoin:miter;stroke-miterlimit:4;stroke-dasharray:none;stroke-dashoffset:0;stroke-opacity:1;marker:none;color-rendering:auto;image-rendering:auto;shape-rendering:auto;text-rendering:auto;enable-background:accumulate"
                 d="m 385.98242,427.36133 c 0,7.70894 -6.29496,14.00195 -14.00586,14.00195 -7.71089,0 -14.00586,-6.29301 -14.00586,-14.00195 0,-7.70894 6.29497,-14 14.00586,-14 7.7109,0 14.00586,6.29106 14.00586,14 z m -4.00195,0 c 0,-5.5458 -4.45426,-9.99805 -10.00391,-9.99805 -5.54965,0 -10.00586,4.45225 -10.00586,9.99805 0,5.5458 4.45621,10 10.00586,10 5.54965,0 10.00391,-4.4542 10.00391,-10 z"
                 id="ellipse4269"
                 inkscape:connector-curvature="0" />
              <path
                 style="color:#000000;font-style:normal;font-variant:normal;font-weight:normal;font-stretch:normal;font-size:medium;line-height:normal;font-family:sans-serif;font-variant-ligatures:normal;font-variant-position:normal;font-variant-caps:normal;font-variant-numeric:normal;font-variant-alternates:normal;font-feature-settings:normal;text-indent:0;text-align:start;text-decoration:none;text-decoration-line:none;text-decoration-style:solid;text-decoration-color:#000000;letter-spacing:normal;word-spacing:normal;text-transform:none;writing-mode:lr-tb;direction:ltr;text-orientation:mixed;dominant-baseline:auto;baseline-shift:baseline;text-anchor:start;white-space:normal;shape-padding:0;clip-rule:nonzero;display:inline;overflow:visible;visibility:visible;opacity:0.98999999;isolation:auto;mix-blend-mode:normal;color-interpolation:sRGB;color-interpolation-filters:linearRGB;solid-color:#000000;solid-opacity:1;fill:#808080;fill-opacity:1;fill-rule:nonzero;stroke:none;stroke-width:4.00079107;stroke-linecap:butt;stroke-linejoin:miter;stroke-miterlimit:4;stroke-dasharray:none;stroke-dashoffset:0;stroke-opacity:1;marker:none;color-rendering:auto;image-rendering:auto;shape-rendering:auto;text-rendering:auto;enable-background:accumulate"
                 d="m 395.98633,427.36133 c 0,13.23164 -10.77375,24 -24.00977,24 -13.23602,0 -24.00976,-10.76836 -24.00976,-24 0,-13.23165 10.77374,-24 24.00976,-24 13.23602,0 24.00977,10.76835 24.00977,24 z m -4.00195,0 c 0,-11.06851 -8.93304,-19.99805 -20.00782,-19.99805 -11.07478,0 -20.00976,8.92954 -20.00976,19.99805 0,11.06851 8.93498,20 20.00976,20 11.07478,0 20.00782,-8.93149 20.00782,-20 z"
                 id="ellipse4271"
                 inkscape:connector-curvature="0" />
              <path
                 style="color:#000000;font-style:normal;font-variant:normal;font-weight:normal;font-stretch:normal;font-size:medium;line-height:normal;font-family:sans-serif;font-variant-ligatures:normal;font-variant-position:normal;font-variant-caps:normal;font-variant-numeric:normal;font-variant-alternates:normal;font-feature-settings:normal;text-indent:0;text-align:start;text-decoration:none;text-decoration-line:none;text-decoration-style:solid;text-decoration-color:#000000;letter-spacing:normal;word-spacing:normal;text-transform:none;writing-mode:lr-tb;direction:ltr;text-orientation:mixed;dominant-baseline:auto;baseline-shift:baseline;text-anchor:start;white-space:normal;shape-padding:0;clip-rule:nonzero;display:inline;overflow:visible;visibility:visible;opacity:0.98999999;isolation:auto;mix-blend-mode:normal;color-interpolation:sRGB;color-interpolation-filters:linearRGB;solid-color:#000000;solid-opacity:1;fill:#808080;fill-opacity:1;fill-rule:nonzero;stroke:none;stroke-width:4.00079107;stroke-linecap:butt;stroke-linejoin:miter;stroke-miterlimit:4;stroke-dasharray:none;stroke-dashoffset:0;stroke-opacity:1;marker:none;color-rendering:auto;image-rendering:auto;shape-rendering:auto;text-rendering:auto;enable-background:accumulate"
                 d="m 405.99023,427.36133 c 0,18.75414 -15.25274,34 -34.01367,34 -18.76093,0 -34.01367,-15.24586 -34.01367,-34 0,-18.75414 15.25274,-33.99805 34.01367,-33.99805 18.76093,0 34.01367,15.24391 34.01367,33.99805 z m -4.00195,0 c 0,-16.59101 -13.41203,-29.99805 -30.01172,-29.99805 -16.59969,0 -30.01367,13.40704 -30.01367,29.99805 0,16.591 13.41398,30 30.01367,30 16.59969,0 30.01172,-13.409 30.01172,-30 z"
                 id="ellipse4273"
                 inkscape:connector-curvature="0" />
            </g>
          </g>
        </g>
      </g>
    </g>
  </g>
</svg>
