<svg xmlns="http://www.w3.org/2000/svg" height="267.1mm" width="734.74" viewBox="0 0 194.388 267.089"><g stroke="#000" fill="none"><g stroke-width=".22"><path d="M58.265 54.19V45.4h37.01V34.95l6.781 14.84-6.781 14.84V54.19zM58.265 201.45v-8.792h36.96v-10.44l6.781 14.84-6.781 14.84v-10.44zM101.975 221.25v8.792h-36.93v10.44l-6.781-14.84 6.781-14.84v10.44zM58.265 122.35v-8.792h36.96v-10.44l6.781 14.84-6.781 14.84v-10.44zM137.375 121.25v-8.792h36.96v-10.44l6.781 14.84-6.781 14.84v-10.44z"/></g><g stroke-width=".265" transform="translate(-8.725 -14.05)"><rect ry="5.341" height="56.88" width="35.31" y="49.67" x="31.36"/><rect ry="5.341" height="56.88" width="35.31" y="49.67" x="110.7"/><rect ry="5.341" height="56.88" width="35.31" y="117.9" x="110.7"/><rect ry="5.341" height="56.88" width="35.31" y="117.9" x="31.36"/><rect ry="5.341" height="56.88" width="35.31" y="196.8" x="31.36"/><rect ry="5.341" height="56.88" width="35.31" y="196.8" x="110.7"/></g></g><g stroke-width=".22"><path d="M64.03 29.46V25.8h2.23v.438h-1.72v1.087h1.53v.427h-1.53v1.266h1.852v.438zM69.16 29.46q-.058-.116-.142-.259-.085-.142-.185-.29-.1-.153-.206-.3t-.205-.28q-.1.132-.206.285-.106.148-.206.3-.095.148-.18.29-.084.143-.142.254h-.506q.185-.359.438-.728.258-.375.512-.712l-.908-1.303h.554l.654.96.66-.96h.522l-.886 1.27q.253.344.517.729.269.38.453.744zM72.06 28.09q0-.48-.237-.739t-.633-.258q-.222 0-.349.016-.12.016-.195.037v1.73q.09.074.259.142.169.069.369.069.21 0 .359-.074.153-.08.248-.211.094-.137.137-.317.042-.184.042-.395zm.512 0q0 .311-.085.575-.079.264-.237.454-.158.19-.39.295-.227.105-.523.105-.237 0-.422-.063-.18-.063-.269-.121v1.097h-.49v-3.634q.174-.042.432-.09.264-.053.607-.053.316 0 .57.1t.432.285.274.454q.1.264.1.596zM75.51 28.09q0 .327-.095.59t-.269.454q-.169.19-.406.296-.238.1-.517.1t-.517-.1q-.238-.106-.412-.296-.168-.19-.263-.453-.095-.264-.095-.591 0-.322.095-.586.095-.269.263-.458.175-.19.412-.29.237-.106.517-.106t.517.106q.237.1.406.29.174.19.27.459.094.263.094.585zm-.512 0q0-.464-.21-.733-.206-.274-.565-.274t-.57.274q-.206.269-.206.733t.206.739q.211.268.57.268t.564-.269q.211-.274.211-.738zM77.04 26.66q.063 0 .142.01.085.006.164.022.079.01.142.026.069.01.1.021l-.084.427q-.058-.02-.195-.047-.132-.032-.343-.032-.137 0-.274.032-.132.026-.174.037v2.305h-.491v-2.627q.174-.063.433-.116.258-.058.58-.058zM78.24 26.72h1.039v.411H78.24v1.266q0 .206.032.343.031.132.095.211.063.074.158.106.095.031.221.031.222 0 .354-.047l.19-.074.095.406q-.074.037-.259.09-.184.058-.422.058-.28 0-.464-.069-.18-.073-.29-.216-.111-.142-.158-.348-.043-.211-.043-.485v-2.448l.491-.085zM81.64 29.11q.174 0 .306-.005.137-.01.227-.032v-.818q-.053-.026-.174-.042-.116-.02-.285-.02-.11 0-.238.015-.12.016-.226.069-.1.047-.17.137-.068.084-.068.227 0 .263.17.369.168.1.458.1zm-.042-2.458q.295 0 .496.08.205.073.327.215.126.138.179.333.053.19.053.422v1.714q-.064.01-.18.031-.11.016-.253.032-.142.016-.311.026-.164.016-.327.016-.232 0-.427-.047-.196-.048-.338-.148-.142-.105-.222-.274-.079-.169-.079-.406 0-.227.09-.39.095-.164.253-.265.158-.1.37-.147.21-.048.442-.048.074 0 .153.01.08.006.148.022.074.01.127.02t.074.017v-.137q0-.122-.027-.238-.026-.121-.095-.21-.068-.096-.19-.149-.116-.058-.306-.058-.242 0-.427.037-.18.032-.269.069l-.058-.406q.095-.042.317-.08.221-.042.48-.042zM85.14 29.46v-3.656h2.205v.438h-1.693v1.102h1.503v.432h-1.503v1.683zM88.82 29.46h-.49v-2.743h.49zm-.248-3.239q-.132 0-.227-.084-.09-.09-.09-.238t.09-.232q.095-.09.227-.09t.222.09q.095.084.095.232t-.095.238q-.09.084-.222.084zM90.33 29.51q-.454-.01-.644-.195t-.19-.575v-3.292l.491-.085v3.297q0 .122.021.2.021.08.069.127.047.048.126.074.08.021.196.037zM90.52 28.09q0-.364.105-.633.106-.274.28-.454.174-.179.401-.269.227-.09.464-.09.554 0 .85.349.295.343.295 1.05v.084q0 .048-.005.09h-1.878q.031.427.248.649.216.221.675.221.258 0 .432-.042.18-.047.27-.09l.068.412q-.09.047-.317.1-.221.053-.506.053-.359 0-.623-.106-.258-.11-.427-.3t-.253-.449q-.08-.264-.08-.575zm1.883-.269q.005-.332-.169-.543-.169-.217-.47-.217-.168 0-.3.069-.127.063-.216.169-.09.105-.143.242-.047.138-.063.28zM35.22 64.27q-.026-.063-.071-.16-.042-.099-.093-.212t-.108-.232l-.105-.227q-.05-.108-.095-.193-.042-.084-.069-.129-.029.311-.047.675-.019.362-.032.731h-.25q.01-.237.023-.477.013-.243.03-.475l.036-.457q.021-.221.045-.419h.224q.071.116.153.274.082.159.164.333.082.171.158.345l.14.314.14-.314q.076-.174.158-.345.082-.174.164-.333.081-.158.153-.274h.224q.09.884.134 1.828h-.25q-.014-.37-.032-.73-.018-.365-.047-.676-.027.045-.072.13-.042.084-.092.192l-.108.227q-.056.119-.106.232l-.095.211-.068.16zM36.42 64.78q.029.013.074.024.047.013.092.013.145 0 .227-.066.082-.063.148-.208-.166-.317-.312-.67-.142-.357-.237-.72h.264q.029.118.068.255.043.137.093.282t.108.29q.058.146.121.28.1-.277.174-.548.074-.272.14-.56h.253q-.095.388-.21.747-.117.356-.251.667-.053.119-.111.203-.055.087-.124.143-.069.055-.156.082-.084.026-.192.026-.03 0-.06-.005-.033-.003-.064-.01-.03-.006-.056-.014l-.034-.013zM39.87 64.53q-.045-.119-.084-.232l-.082-.235h-.829l-.166.467h-.266q.105-.29.198-.536.092-.248.18-.47.089-.22.176-.421.087-.203.182-.401h.235q.095.198.182.4.087.201.174.423.09.221.182.47.092.245.198.535zm-.24-.678q-.085-.23-.169-.443-.082-.216-.171-.414-.093.197-.177.414-.082.214-.164.443zM41.34 63.84q0-.24-.119-.37-.118-.129-.316-.129-.111 0-.174.008-.061.008-.098.019v.865q.045.037.13.071.084.035.184.035.105 0 .18-.037.076-.04.123-.106.048-.068.069-.158.021-.092.021-.198zm.256 0q0 .156-.042.287-.04.132-.119.227-.08.095-.195.148-.114.053-.261.053-.12 0-.211-.032-.09-.031-.135-.06v.548h-.245v-1.818q.087-.02.216-.045.132-.026.303-.026.159 0 .285.05t.217.143q.09.092.137.227.05.131.05.298zM42.81 63.84q0-.24-.119-.37-.118-.129-.316-.129-.111 0-.174.008-.061.008-.098.019v.865q.045.037.13.071.084.035.184.035.105 0 .18-.037.076-.04.123-.106.048-.068.069-.158.021-.092.021-.198zm.256 0q0 .156-.042.287-.04.132-.119.227-.08.095-.195.148-.114.053-.261.053-.12 0-.211-.032-.09-.031-.135-.06v.548h-.245v-1.818q.087-.02.216-.045.132-.026.303-.026.159 0 .285.05t.217.143q.09.092.137.227.05.131.05.298zM113.1 61.15q.385 0 .59.148.21.145.21.435 0 .158-.059.272-.055.11-.163.182-.106.068-.259.1-.153.032-.345.032h-.204v.678h-.255v-1.802q.108-.027.24-.035.134-.01.245-.01zm.021.224q-.163 0-.25.008v.718h.192q.132 0 .237-.016.106-.019.177-.058.074-.042.114-.114.04-.07.04-.182 0-.105-.043-.174-.04-.068-.11-.108-.07-.042-.162-.058t-.195-.016zM114.2 62.32q0-.182.053-.317.053-.137.14-.227.087-.09.2-.134.114-.045.232-.045.277 0 .425.174.148.172.148.525v.042q0 .024-.003.045h-.94q.016.214.125.325t.337.11q.13 0 .217-.02.09-.024.134-.045l.034.205q-.045.024-.158.05-.11.027-.253.027-.18 0-.311-.053-.13-.055-.214-.15-.085-.095-.127-.224-.04-.132-.04-.288zm.942-.135q.003-.166-.085-.271-.084-.108-.234-.108-.085 0-.15.034-.064.032-.109.084-.045.053-.071.122-.024.068-.032.14zM115.7 62.32q0-.182.053-.317.053-.137.14-.227.087-.09.2-.134.114-.045.232-.045.277 0 .425.174.148.172.148.525v.042q0 .024-.003.045h-.94q.016.214.125.325t.337.11q.13 0 .217-.02.09-.024.134-.045l.034.205q-.044.024-.158.05-.11.027-.253.027-.18 0-.311-.053-.13-.055-.214-.15-.085-.095-.127-.224-.04-.132-.04-.288zm.942-.135q.003-.166-.085-.271-.084-.108-.234-.108-.085 0-.15.034-.064.032-.109.084-.045.053-.071.122-.024.068-.032.14zM117.8 61.6q.032 0 .071.005.042.003.082.01.04.006.071.014.035.005.05.01l-.042.214q-.029-.01-.097-.023-.066-.016-.172-.016-.069 0-.137.016l-.087.018v1.153h-.245v-1.314q.087-.032.216-.058.13-.029.29-.029zM120.1 63q-.045-.119-.084-.232l-.082-.235h-.829l-.166.467h-.266q.105-.29.198-.535.092-.249.18-.47.089-.222.176-.422.087-.203.182-.401h.235q.095.198.182.4.087.201.174.423.09.222.182.47.092.245.198.535zm-.24-.678q-.085-.23-.169-.443-.082-.216-.171-.414-.093.197-.177.414-.082.214-.164.443zM121.6 62.32q0-.24-.119-.37-.118-.129-.316-.129-.111 0-.174.008-.061.008-.098.019v.865q.045.037.13.071.084.035.184.035.106 0 .18-.037.076-.04.123-.106.048-.068.069-.158.021-.092.021-.198zm.256 0q0 .156-.042.287-.04.132-.119.227-.08.095-.195.148-.114.053-.261.053-.12 0-.211-.032-.09-.031-.135-.06v.548h-.245v-1.818q.087-.02.216-.045.132-.026.303-.026.159 0 .285.05t.217.143q.09.092.137.227.05.131.05.298zM123 62.32q0-.24-.119-.37-.118-.129-.316-.129-.111 0-.174.008-.061.008-.098.019v.865q.045.037.13.071.084.035.184.035.106 0 .18-.037.076-.04.123-.106.048-.068.069-.158.021-.092.021-.198zm.256 0q0 .156-.042.287-.04.132-.119.227-.08.095-.195.148-.114.053-.261.053-.12 0-.211-.032-.09-.031-.135-.06v.548h-.245v-1.818q.087-.02.216-.045.132-.026.304-.026.158 0 .284.05t.217.143q.09.092.137.227.05.131.05.298zM110.8 65.29q0 .338.098.625t.287.533l-.174.119q-.206-.25-.332-.575-.124-.327-.124-.702t.124-.7q.126-.326.332-.577l.174.119q-.19.245-.287.533-.098.287-.098.625zM113 65.16q0 .237-.074.414-.074.174-.208.29-.135.114-.322.172-.187.055-.412.055-.11 0-.245-.01-.132-.008-.24-.035v-1.773q.108-.026.24-.034.135-.01.245-.01.225 0 .412.058.187.055.322.171.134.114.208.29.074.174.074.412zm-.995.707q.365 0 .544-.185.18-.187.18-.522t-.18-.52q-.18-.187-.544-.187-.108 0-.168.003-.058.002-.082.005v1.398l.082.005q.06.003.168.003zM113.3 65.39q0-.182.053-.317.053-.137.14-.226.087-.09.2-.135.114-.045.232-.045.277 0 .425.174.148.172.148.525v.042q0 .024-.003.045h-.94q.016.214.125.325t.337.11q.13 0 .217-.02.09-.024.134-.045l.034.205q-.044.024-.158.05-.11.027-.253.027-.18 0-.311-.053-.13-.055-.214-.15-.084-.095-.127-.224-.04-.132-.04-.288zm.942-.135q.003-.166-.085-.271-.084-.108-.234-.108-.085 0-.15.034-.064.032-.109.084-.045.053-.071.122-.024.068-.032.14zM115.2 65.9q.15 0 .222-.04.074-.04.074-.126 0-.09-.072-.143-.07-.052-.235-.118l-.153-.064q-.07-.034-.124-.079t-.084-.108q-.032-.063-.032-.156 0-.182.135-.287.134-.108.367-.108.058 0 .116.008.058.005.108.015.05.008.087.019.04.01.06.018l-.044.211q-.04-.02-.124-.042-.085-.024-.203-.024-.103 0-.18.043-.076.04-.076.126 0 .045.016.08.018.034.052.063.037.026.09.05t.127.05q.097.037.174.074.076.034.13.082.055.047.084.116.029.066.029.163 0 .19-.143.288-.14.097-.4.097-.183 0-.286-.031-.103-.03-.14-.045l.045-.211.135.047q.092.032.245.032zM116.4 64.71h.52v.206h-.52v.633q0 .103.016.171.016.066.047.106.032.037.08.053.047.015.11.015.111 0 .177-.023l.095-.037.047.203q-.037.018-.129.045-.092.029-.21.029-.14 0-.233-.035-.09-.036-.145-.108-.056-.07-.08-.174-.02-.105-.02-.242v-1.225l.245-.042z"/><path d="M117.1 66.08h-.245v-1.372h.245zm-.124-1.62q-.066 0-.113-.042-.045-.045-.045-.119t.045-.116q.047-.045.113-.045t.11.045q.048.042.048.116 0 .074-.047.119-.045.042-.111.042zM117.5 64.75q.084-.021.224-.045.14-.024.322-.024.164 0 .272.048.108.045.171.13.066.081.092.197.027.116.027.256v.77h-.245v-.717q0-.127-.019-.217-.016-.09-.055-.145-.04-.055-.106-.079-.066-.026-.163-.026l-.082.002q-.042.002-.082.008-.037.003-.069.008l-.042.008v1.158h-.245zM119.4 65.9q.087 0 .153-.003.069-.005.113-.015v-.41q-.026-.013-.087-.02-.058-.011-.142-.011-.055 0-.119.008-.06.008-.113.034-.05.024-.085.069-.034.042-.034.113 0 .132.085.185.084.05.229.05zm-.021-1.229q.148 0 .248.04.103.037.164.108.063.068.09.166.026.095.026.211v.857l-.09.016q-.055.008-.127.016-.07.008-.155.013-.082.008-.164.008-.116 0-.214-.024t-.168-.073q-.072-.053-.111-.138-.04-.084-.04-.203 0-.113.045-.195.048-.082.127-.132t.184-.074q.106-.023.222-.023.037 0 .076.005.04.002.074.01l.064.01.036.009v-.069q0-.06-.013-.118-.013-.061-.047-.106-.035-.047-.095-.074-.058-.029-.153-.029-.122 0-.214.019-.09.015-.134.034l-.03-.203q.048-.021.159-.04.11-.02.24-.02zM120.6 64.71h.52v.206h-.52v.633q0 .103.016.171.016.066.047.106.032.037.08.053.047.015.11.015.111 0 .177-.023l.095-.037.047.203q-.037.018-.129.045-.092.029-.21.029-.14 0-.233-.035-.09-.036-.145-.108-.056-.07-.08-.174-.02-.105-.02-.242v-1.225l.245-.042z"/><path d="M121.4 66.08h-.245v-1.372h.245zm-.124-1.62q-.066 0-.113-.042-.045-.045-.045-.119t.045-.116q.047-.045.113-.045t.11.045q.048.042.048.116 0 .074-.047.119-.045.042-.111.042zM122.9 65.39q0 .164-.048.295t-.134.227q-.084.095-.203.148-.119.05-.259.05t-.258-.05q-.119-.053-.206-.148-.084-.095-.132-.227t-.047-.295q0-.16.047-.293.048-.134.132-.23.087-.094.206-.144.119-.053.258-.053t.259.053q.119.05.203.145.087.095.135.23.047.131.047.292zm-.256 0q0-.232-.105-.367-.103-.137-.283-.137t-.285.137q-.103.135-.103.367 0 .232.103.37.106.134.285.134t.283-.135q.105-.137.105-.369zM123.2 64.75q.084-.021.224-.045.14-.024.322-.024.164 0 .272.048.108.045.171.13.066.081.092.197.027.116.027.256v.77h-.245v-.717q0-.127-.019-.217-.016-.09-.055-.145-.04-.055-.106-.079-.066-.026-.163-.026l-.082.002q-.042.002-.082.008-.037.003-.069.008l-.042.008v1.158h-.245zM124.9 65.29q0-.338-.098-.625t-.287-.533l.174-.119q.206.25.33.578.126.324.126.699t-.126.702q-.124.324-.33.575l-.174-.119q.19-.245.287-.533.098-.287.098-.625zM72.24 50.45v-1.828h1.116v.219h-.86v.543h.765v.214h-.765v.633h.926v.22zM74.8 50.45q-.029-.058-.071-.13-.042-.07-.093-.144-.05-.077-.102-.15-.053-.075-.103-.14-.05.065-.103.142-.053.074-.103.15-.048.074-.09.145-.042.072-.071.127h-.253q.092-.18.219-.364.129-.187.256-.356l-.454-.652h.277l.327.48.33-.48h.261l-.443.636q.126.172.258.364.135.19.227.372zM76.26 49.77q0-.24-.119-.37-.118-.129-.316-.129-.111 0-.174.008-.061.008-.098.019v.865q.045.037.13.071.084.035.184.035.105 0 .18-.037.076-.04.123-.106.048-.068.069-.158.021-.092.021-.198zm.256 0q0 .156-.042.287-.04.132-.119.227-.08.095-.195.148-.114.053-.261.053-.12 0-.211-.032-.09-.031-.135-.06v.548h-.245v-1.818q.087-.02.216-.045.132-.026.303-.026.159 0 .285.05t.217.143q.09.092.137.227.05.131.05.298zM77.98 49.77q0 .164-.047.295t-.135.227q-.084.095-.203.148-.119.05-.259.05t-.258-.05q-.119-.053-.206-.148-.084-.095-.132-.227t-.047-.295q0-.16.047-.293.048-.134.132-.23.087-.094.206-.144.119-.053.258-.053t.259.053q.119.05.203.145.087.095.135.23.047.131.047.292zm-.256 0q0-.232-.105-.367-.103-.137-.283-.137t-.285.137q-.103.135-.103.367 0 .232.103.37.106.134.285.134t.283-.135q.105-.137.105-.369zM78.74 49.05q.032 0 .071.005.042.003.082.01.04.006.071.014.035.005.05.01l-.042.214q-.029-.01-.097-.023-.066-.016-.172-.016-.069 0-.137.016l-.087.018v1.153h-.246v-1.314q.088-.032.217-.058.13-.029.29-.029zM79.34 49.08h.52v.206h-.52v.633q0 .103.016.171.016.066.047.106.032.037.08.053t.11.015q.111 0 .177-.023l.095-.037.047.203q-.037.018-.129.045-.092.029-.21.029-.14 0-.233-.034-.09-.037-.145-.109-.056-.07-.08-.174-.02-.105-.02-.242v-1.224l.245-.043zM80.6 50.45v-1.828h1.103v.219h-.847v.551h.752v.217h-.752v.841zM82.44 50.45h-.245v-1.372h.245zm-.124-1.62q-.066 0-.113-.042-.045-.045-.045-.119t.045-.116q.047-.045.113-.045t.11.045q.048.042.048.116 0 .074-.047.119-.045.042-.111.042zM83.19 50.48q-.227-.005-.322-.098-.095-.092-.095-.287v-1.646l.246-.042v1.649q0 .06.01.1.01.04.034.063t.064.037q.04.01.097.019zM83.29 49.77q0-.182.053-.317.053-.137.14-.227.087-.09.2-.134.113-.045.232-.045.277 0 .425.174.148.172.148.525v.042q0 .024-.003.045h-.94q.017.214.125.325t.338.11q.129 0 .216-.02.09-.024.134-.045l.035.205q-.045.024-.159.05-.11.027-.253.027-.18 0-.311-.053-.13-.055-.214-.15-.084-.095-.126-.224-.04-.132-.04-.288zm.942-.135q.002-.166-.085-.271-.084-.108-.234-.108-.085 0-.15.034-.064.032-.109.084-.045.053-.071.122-.024.068-.032.14zM35.22 211.5q-.026-.063-.071-.16-.042-.099-.093-.212t-.108-.232l-.105-.227q-.05-.108-.095-.193-.042-.084-.069-.129-.029.311-.047.675-.019.362-.032.731h-.25q.01-.237.023-.477.013-.243.03-.475l.036-.456q.021-.222.045-.42h.224q.071.116.153.275.082.158.164.332.082.171.158.345l.14.314.14-.314q.076-.174.158-.345.082-.174.164-.333.081-.158.153-.274h.224q.09.884.134 1.828h-.25q-.014-.37-.032-.73-.018-.365-.047-.676-.027.045-.072.13-.042.084-.092.192l-.108.227q-.056.119-.106.232l-.095.211-.068.16zM36.42 212.1q.029.013.074.024.047.013.092.013.145 0 .227-.066.082-.063.148-.208-.166-.317-.312-.67-.142-.357-.237-.72h.264q.029.118.068.255.043.137.093.283t.108.29q.058.145.121.28.1-.278.174-.55.074-.271.14-.559h.253q-.095.388-.21.747-.117.356-.251.667-.053.12-.111.204-.055.087-.124.142-.069.055-.156.082-.084.026-.192.026-.03 0-.06-.005-.033-.003-.064-.01-.03-.005-.056-.014l-.034-.013zM39.87 211.8q-.045-.119-.084-.232l-.082-.235h-.829l-.166.467h-.266q.105-.29.198-.536.092-.248.18-.47.089-.22.176-.421.087-.203.182-.401h.235q.095.197.182.4.087.201.174.423.09.221.182.47.092.245.198.535zm-.24-.678q-.085-.23-.169-.443-.082-.216-.171-.414-.093.197-.177.414-.082.214-.164.443zM41.34 211.1q0-.24-.119-.37-.118-.129-.316-.129-.111 0-.174.008-.061.008-.098.019v.865q.045.037.13.071.084.035.184.035.105 0 .18-.037.076-.04.123-.106.048-.068.069-.158.021-.092.021-.198zm.256 0q0 .156-.042.287-.04.132-.119.227-.08.095-.195.148-.114.053-.261.053-.12 0-.211-.032-.09-.032-.135-.06v.548h-.245v-1.818q.087-.02.216-.045.132-.026.303-.026.159 0 .285.05t.217.142q.09.093.137.227.05.132.05.298zM42.81 211.1q0-.24-.119-.37-.118-.129-.316-.129-.111 0-.174.008-.061.008-.098.019v.865q.045.037.13.071.084.035.184.035.105 0 .18-.037.076-.04.123-.106.048-.068.069-.158.021-.092.021-.198zm.256 0q0 .156-.042.287-.04.132-.119.227-.08.095-.195.148-.114.053-.261.053-.12 0-.211-.032-.09-.032-.135-.06v.548h-.245v-1.818q.087-.02.216-.045.132-.026.303-.026.159 0 .285.05t.217.142q.09.093.137.227.05.132.05.298zM113 208.4q.385 0 .59.148.21.145.21.435 0 .158-.059.272-.055.11-.163.182-.106.068-.259.1-.153.032-.345.032h-.204v.678h-.255v-1.802q.108-.027.24-.035.134-.01.245-.01zm.021.224q-.163 0-.25.008v.718h.192q.132 0 .238-.016.105-.019.176-.058.074-.042.114-.114.04-.07.04-.182 0-.105-.043-.174-.04-.068-.11-.108-.07-.042-.162-.058t-.195-.016zM114.1 209.6q0-.182.053-.317.053-.137.14-.226.087-.09.2-.135t.232-.045q.277 0 .425.174.148.172.148.525v.043q0 .023-.003.044h-.94q.016.214.125.325t.337.11q.13 0 .217-.02.09-.024.134-.045l.034.206q-.045.023-.158.05-.11.026-.253.026-.18 0-.311-.053-.13-.055-.214-.15t-.127-.224q-.04-.132-.04-.288zm.942-.135q.003-.166-.085-.271-.084-.108-.234-.108-.085 0-.15.034-.064.032-.109.084-.045.053-.071.122-.024.068-.032.14zM115.6 209.6q0-.182.053-.317.053-.137.14-.226.087-.09.2-.135t.232-.045q.277 0 .425.174.148.172.148.525v.043q0 .023-.003.044h-.94q.016.214.125.325t.337.11q.13 0 .217-.02.09-.024.134-.045l.034.206q-.044.023-.158.05-.11.026-.253.026-.18 0-.311-.053-.13-.055-.214-.15t-.127-.224q-.04-.132-.04-.288zm.942-.135q.003-.166-.085-.271-.084-.108-.234-.108-.085 0-.15.034-.064.032-.109.084-.045.053-.071.122-.024.068-.032.14zM117.7 208.9q.032 0 .071.005.042.003.082.01.04.006.071.014.035.005.05.01l-.042.214q-.029-.01-.097-.024-.066-.015-.172-.015-.069 0-.137.015l-.087.019v1.153h-.246v-1.314q.087-.032.217-.058.129-.03.29-.03zM120 210.3q-.045-.119-.084-.232l-.082-.235h-.829l-.166.467h-.266q.105-.29.198-.536.092-.248.18-.47.089-.22.176-.421.087-.203.182-.401h.235q.095.197.182.4.087.201.174.423.09.221.182.47.092.245.198.535zm-.24-.678q-.085-.23-.169-.443-.082-.216-.171-.414-.093.197-.177.414-.082.214-.164.443zM121.5 209.6q0-.24-.119-.37t-.316-.129q-.111 0-.174.008-.061.008-.098.019v.865q.045.037.13.071.084.035.184.035.106 0 .18-.037.076-.04.123-.106.048-.068.069-.158.021-.092.021-.198zm.256 0q0 .156-.042.288-.04.131-.119.226t-.195.148q-.114.053-.261.053-.12 0-.211-.032-.09-.031-.135-.06v.548h-.245v-1.818q.087-.02.216-.044.132-.027.304-.027.158 0 .284.05t.217.143.137.227q.05.131.05.298zM122.9 209.6q0-.24-.119-.37t-.316-.129q-.111 0-.174.008-.061.008-.098.019v.865q.045.037.13.071.084.035.184.035.106 0 .18-.037.076-.04.123-.106.048-.068.069-.158.021-.092.021-.198zm.256 0q0 .156-.042.288-.04.131-.119.226t-.195.148q-.114.053-.261.053-.12 0-.211-.032-.09-.031-.135-.06v.548h-.245v-1.818q.087-.02.216-.044.132-.027.304-.027.158 0 .284.05t.217.143.137.227q.05.131.05.298zM113.1 212.6q0 .338.098.625t.287.533l-.174.119q-.206-.25-.332-.575-.124-.327-.124-.702t.124-.7q.126-.326.332-.577l.174.119q-.19.245-.287.533t-.098.625zM114.2 213.2q.401 0 .401-.274 0-.085-.037-.143-.034-.06-.095-.103-.06-.045-.14-.076-.076-.032-.163-.064-.1-.034-.19-.076-.09-.045-.156-.103-.066-.06-.105-.142-.037-.082-.037-.198 0-.24.163-.375.164-.134.451-.134.167 0 .301.037.137.034.2.076l-.081.208q-.056-.034-.166-.066-.109-.034-.254-.034-.073 0-.137.016t-.11.047-.077.082q-.026.048-.026.114 0 .074.029.124t.081.09q.053.036.122.068.071.032.155.063.12.048.217.095.1.048.171.114.074.066.114.158.04.09.04.219 0 .24-.178.37-.174.129-.493.129-.108 0-.2-.016-.09-.013-.161-.032-.072-.021-.124-.042l-.08-.04.077-.21q.06.034.185.076t.303.042zM116.8 212.7q0 .164-.048.295t-.134.227q-.084.095-.203.148-.119.05-.259.05t-.258-.05q-.119-.053-.206-.148-.084-.095-.132-.227t-.047-.295q0-.16.047-.293.048-.134.132-.23.087-.094.206-.144.119-.053.258-.053t.259.053q.119.05.203.145.087.095.135.23.047.131.047.292zm-.256 0q0-.232-.105-.367-.103-.137-.283-.137t-.285.137q-.103.135-.103.367t.103.37q.106.134.285.134t.283-.135q.105-.137.105-.369zM118.1 213.3q-.084.021-.224.045-.137.024-.32.024-.158 0-.266-.045-.108-.048-.174-.132-.066-.085-.095-.198-.029-.116-.029-.256v-.77h.245v.717q0 .25.08.36t.266.107q.04 0 .082-.003t.079-.005l.066-.008q.032-.005.045-.01v-1.158h.245zM119 211.9q.032 0 .071.005.042.003.082.01.04.006.071.014.035.005.05.01l-.042.214q-.029-.01-.097-.024-.066-.016-.172-.016-.069 0-.137.016-.066.013-.087.019v1.153h-.246v-1.314q.087-.032.217-.058.129-.03.29-.03zM120 213.4q-.166 0-.293-.053-.124-.053-.21-.147-.085-.095-.127-.225-.043-.132-.043-.29t.045-.29q.048-.132.132-.227.085-.098.206-.15.124-.056.274-.056.093 0 .185.016t.177.05l-.055.209q-.056-.027-.13-.043-.071-.015-.153-.015-.206 0-.316.129-.109.13-.109.377 0 .11.024.203.027.092.08.158.055.066.139.103.084.035.206.035.097 0 .177-.019t.123-.04l.035.206q-.021.014-.06.027-.04.01-.09.018-.05.01-.109.016-.055.008-.108.008zM120.6 212.7q0-.182.053-.317.053-.137.14-.227.087-.09.2-.134t.232-.045q.277 0 .425.174.148.172.148.525v.043q0 .023-.003.044h-.94q.016.214.125.325t.337.11q.13 0 .217-.02.09-.024.134-.045l.034.206q-.044.023-.158.05-.11.026-.253.026-.18 0-.311-.053-.13-.055-.214-.15t-.127-.224q-.04-.132-.04-.288zm.942-.135q.003-.166-.085-.271-.084-.108-.234-.108-.085 0-.15.034-.064.032-.109.084-.045.053-.071.122-.024.068-.032.14zM122.3 212.6q0-.338-.098-.625t-.287-.533l.174-.119q.206.25.33.578.126.324.126.699t-.126.702q-.124.324-.33.575l-.174-.119q.19-.245.287-.533t.098-.625zM70.06 197q.042.053.105.14.066.084.135.19.069.103.135.216.068.113.116.219h-.28q-.053-.1-.116-.203-.06-.103-.124-.195-.063-.095-.127-.177-.06-.082-.11-.143-.035.003-.072.003h-.301v.715h-.256v-1.802q.108-.026.24-.034.135-.01.246-.01.385 0 .585.145.203.145.203.432 0 .182-.097.312-.095.129-.283.192zm-.388-.857q-.163 0-.25.008v.688h.182q.132 0 .237-.013t.177-.05q.074-.037.113-.103.04-.069.04-.18 0-.102-.04-.171t-.108-.108q-.066-.04-.158-.056-.09-.015-.193-.015zM70.98 197q0-.182.053-.317.053-.137.14-.226.087-.09.2-.135t.232-.045q.277 0 .425.174.148.172.148.525v.043q0 .023-.003.044h-.94q.017.214.125.325t.338.11q.129 0 .216-.02.09-.024.134-.045l.035.206q-.045.023-.159.05-.11.026-.253.026-.18 0-.311-.053-.13-.055-.214-.15-.084-.095-.126-.224-.04-.132-.04-.288zm.942-.135q.002-.166-.085-.271-.084-.108-.234-.108-.085 0-.15.034-.064.032-.109.084-.045.053-.071.122-.024.068-.032.14zM72.7 197q0 .105.021.198.021.09.069.158.047.066.121.106.076.037.182.037.1 0 .185-.035.084-.034.129-.071v-.865q-.037-.01-.1-.019-.06-.008-.172-.008-.198 0-.316.13-.119.129-.119.369zm-.256 0q0-.166.048-.298.05-.135.14-.227.09-.092.216-.142.126-.05.285-.05.171 0 .3.026.132.023.22.045v1.818h-.246v-.55q-.045.03-.137.062-.09.031-.209.031-.147 0-.263-.052-.114-.053-.193-.148-.08-.095-.121-.227-.04-.132-.04-.288zM75.08 197.7q-.084.021-.224.045-.137.023-.32.023-.158 0-.266-.044-.108-.048-.174-.132-.066-.085-.095-.198-.029-.116-.029-.256v-.77h.245v.717q0 .25.08.36t.266.107q.04 0 .082-.003t.079-.005l.066-.008q.031-.005.045-.01v-1.158h.245zM75.38 197q0-.182.053-.317.053-.137.14-.226.087-.09.2-.135t.232-.045q.277 0 .425.174.148.172.148.525v.043q0 .023-.003.044h-.94q.017.214.125.325t.338.11q.129 0 .216-.02.09-.024.134-.045l.035.206q-.045.023-.159.05-.11.026-.253.026-.18 0-.311-.053-.13-.055-.214-.15-.084-.095-.126-.224-.04-.132-.04-.288zm.942-.135q.002-.166-.085-.271-.084-.108-.234-.108-.085 0-.15.034-.064.032-.109.084-.045.053-.071.122-.024.068-.032.14zM77.24 197.5q.15 0 .222-.04.073-.04.073-.126 0-.09-.07-.143-.072-.052-.236-.118l-.153-.064q-.07-.034-.124-.079-.052-.045-.084-.108t-.032-.156q0-.182.135-.287.134-.108.367-.108.058 0 .116.008.058.005.108.015.05.008.087.019.04.01.06.018l-.044.211q-.04-.02-.124-.042-.085-.023-.203-.023-.103 0-.18.042-.076.04-.076.126 0 .045.016.08.018.034.052.063.037.026.09.05t.127.05q.097.037.174.074.076.034.129.082.055.047.084.116.03.066.03.163 0 .19-.143.288-.14.097-.401.097-.182 0-.285-.031-.103-.03-.14-.045l.045-.211q.042.016.135.047.092.032.245.032zM78.47 196.4h.52v.206h-.52v.633q0 .103.016.171.016.066.047.106.032.037.08.053.047.016.11.016.111 0 .177-.024l.095-.037.047.203q-.037.019-.129.045-.092.029-.21.029-.14 0-.233-.034-.09-.037-.145-.109-.056-.07-.08-.174-.02-.105-.02-.242v-1.224l.245-.043zM80.24 195.7q.108 0 .185.016.079.016.11.029l-.044.21q-.032-.015-.09-.028-.058-.016-.143-.016-.171 0-.24.095-.068.092-.068.25v.12h.527v.205h-.527v1.166h-.246v-1.496q0-.264.13-.406.13-.145.406-.145z"/><path d="M81.65 197q0 .164-.047.295t-.135.227q-.084.095-.203.148-.119.05-.259.05t-.258-.05q-.119-.053-.206-.148-.084-.095-.132-.226t-.047-.296q0-.16.047-.293.048-.134.132-.23.087-.094.206-.144.119-.053.258-.053t.259.053q.119.05.203.145.087.095.135.23.047.131.047.292zm-.256 0q0-.232-.105-.367-.103-.137-.283-.137t-.285.137q-.103.135-.103.367 0 .232.103.37.106.134.285.134t.283-.135q.105-.137.105-.369zM82.41 196.3q.032 0 .071.005.042.003.082.01.04.006.071.014.035.005.05.01l-.042.214q-.029-.01-.097-.024-.066-.016-.172-.016-.069 0-.137.016-.066.013-.087.019v1.153h-.25v-1.314q.087-.032.216-.058.13-.03.29-.03zM83.53 197.7v-1.828h1.103v.219h-.847v.551h.752v.217h-.752v.841zM85.37 197.7h-.245v-1.372h.245zm-.124-1.62q-.066 0-.113-.042-.045-.045-.045-.119t.045-.116q.047-.045.113-.045t.11.045q.048.042.048.116t-.047.119q-.045.042-.111.042zM86.12 197.8q-.227-.005-.322-.098-.095-.092-.095-.287v-1.646l.246-.042v1.649q0 .06.01.1.01.04.034.063t.064.037q.04.01.097.019zM86.22 197q0-.182.053-.317.053-.137.14-.226.087-.09.2-.135t.232-.045q.277 0 .425.174.148.172.148.525v.043q0 .023-.003.044h-.94q.017.214.125.325t.338.11q.129 0 .216-.02.09-.024.134-.045l.035.206q-.045.023-.159.05-.11.026-.253.026-.18 0-.311-.053-.13-.055-.214-.15-.084-.095-.126-.224-.04-.132-.04-.288zm.942-.135q.002-.166-.085-.271-.084-.108-.234-.108-.085 0-.15.034-.064.032-.109.084-.045.053-.071.122-.024.068-.032.14zM72.23 224.5h.256v1.828h-.256zM72.95 225q.084-.021.222-.045.14-.024.321-.024.132 0 .222.037.09.035.15.103l.058-.037q.04-.024.098-.044.058-.024.13-.04.07-.018.152-.018.159 0 .259.047.1.045.155.13.058.084.077.2.021.116.021.253v.77h-.245v-.717q0-.122-.013-.209-.011-.087-.045-.145-.032-.058-.09-.084-.055-.03-.145-.03-.124 0-.206.035-.079.032-.108.058.021.069.032.15.01.082.01.172v.77h-.245v-.717q0-.122-.013-.209-.014-.087-.048-.145-.031-.058-.09-.084-.055-.029-.142-.029-.037 0-.08.003t-.08.008q-.038.003-.07.008t-.042.008v1.158h-.245zM76.1 225.6q0-.24-.119-.37-.118-.129-.316-.129-.111 0-.174.008-.061.008-.098.019v.865q.045.037.13.071.084.035.184.035.105 0 .18-.037.076-.04.123-.106.048-.068.069-.158.021-.092.021-.198zm.256 0q0 .156-.042.287-.04.132-.119.227-.08.095-.195.148-.114.053-.261.053-.12 0-.211-.032-.09-.032-.135-.06v.548h-.245v-1.818q.087-.02.216-.045.132-.026.303-.026.159 0 .285.05t.217.142q.09.093.137.227.05.132.05.298zM77.82 225.6q0 .164-.047.295-.048.132-.135.227-.084.095-.203.148-.119.05-.259.05t-.258-.05q-.119-.053-.206-.148-.084-.095-.132-.227t-.047-.295q0-.16.047-.293.048-.134.132-.23.087-.094.206-.144.119-.053.258-.053t.259.053q.119.05.203.145.087.095.135.23.047.131.047.292zm-.256 0q0-.232-.105-.367-.103-.137-.283-.137t-.285.137q-.103.135-.103.367 0 .232.103.37.106.134.285.134t.283-.135q.105-.137.105-.369zM78.58 224.9q.032 0 .071.005.042.003.082.01.04.006.071.014.035.005.05.01l-.042.214q-.029-.01-.097-.024-.066-.016-.172-.016-.069 0-.137.016-.066.013-.087.019v1.153h-.246v-1.314q.088-.032.217-.058.13-.03.29-.03zM79.19 224.9h.52v.206h-.52v.633q0 .103.016.171.015.066.047.106.032.037.08.053.047.016.11.016.11 0 .177-.024l.095-.037.047.203q-.037.019-.13.045-.092.029-.21.029-.14 0-.232-.034-.09-.037-.145-.109-.056-.07-.08-.174-.02-.105-.02-.242v-1.224l.245-.043zM80.44 226.3v-1.828h1.103v.219h-.847v.551h.752v.217h-.752v.841zM82.28 226.3h-.245v-1.372h.245zm-.124-1.62q-.066 0-.113-.042-.045-.045-.045-.119t.045-.116q.047-.045.113-.045t.11.045q.048.042.048.116t-.047.119q-.045.042-.111.042zM83.03 226.3q-.227-.005-.322-.098-.095-.092-.095-.287v-1.646l.246-.042v1.649q0 .06.01.1.01.04.034.063t.064.037q.04.01.097.019zM83.13 225.6q0-.182.053-.317.053-.137.14-.226.087-.09.2-.135t.232-.045q.277 0 .425.174.148.172.148.525v.043q0 .023-.003.044h-.94q.017.214.125.325t.338.11q.129 0 .216-.02.09-.024.134-.045l.035.206q-.045.023-.159.05-.11.026-.253.026-.18 0-.311-.053-.13-.055-.214-.15-.084-.095-.126-.224-.04-.132-.04-.288zm.942-.135q.002-.166-.085-.271-.084-.108-.234-.108-.085 0-.15.034-.064.032-.109.084-.045.053-.071.122-.024.068-.032.14zM35.22 132.4q-.026-.063-.071-.16-.042-.099-.093-.212t-.108-.232l-.105-.227q-.05-.108-.095-.192-.042-.085-.069-.13-.029.311-.047.675-.019.362-.032.731h-.25q.01-.237.023-.477.013-.243.03-.475l.036-.456q.021-.222.045-.42h.224q.071.116.153.275.082.158.164.332.082.171.158.346l.14.313.14-.313q.076-.175.158-.346.082-.174.164-.332.081-.159.153-.275h.224q.09.884.134 1.828h-.25q-.014-.37-.032-.73-.018-.365-.047-.676-.027.045-.072.13-.042.084-.092.192l-.108.227q-.056.119-.106.232l-.095.211-.068.16zM36.42 132.9q.029.013.074.024.047.013.092.013.145 0 .227-.066.082-.063.148-.208-.166-.317-.312-.67-.142-.356-.237-.72h.264q.029.118.068.255.043.138.093.283t.108.29q.058.145.121.28.1-.278.174-.55.074-.271.14-.559h.253q-.095.388-.21.747-.117.356-.251.667-.053.12-.111.204-.055.087-.124.142-.069.055-.156.082-.084.026-.192.026-.03 0-.06-.005-.033-.003-.064-.01-.03-.005-.056-.014l-.034-.013zM39.87 132.7q-.045-.119-.084-.232l-.082-.235h-.829l-.166.467h-.266q.105-.29.198-.536.092-.248.18-.47.089-.22.176-.421.087-.203.182-.401h.235q.095.197.182.4.087.201.174.423.09.221.182.47.092.245.198.535zm-.24-.678q-.085-.23-.169-.443-.082-.217-.171-.414-.093.197-.177.414-.082.213-.164.443zM41.34 132q0-.24-.119-.37-.118-.129-.316-.129-.111 0-.174.008-.061.008-.098.019v.865q.045.037.13.071.084.035.184.035.105 0 .18-.037.076-.04.123-.106.048-.068.069-.158.021-.092.021-.198zm.256 0q0 .156-.042.287-.04.132-.119.227-.08.095-.195.148-.114.053-.261.053-.12 0-.211-.032-.09-.031-.135-.06v.548h-.245v-1.818q.087-.02.216-.045.132-.026.303-.026.159 0 .285.05t.217.143q.09.092.137.226.05.132.05.299zM42.81 132q0-.24-.119-.37-.118-.129-.316-.129-.111 0-.174.008-.061.008-.098.019v.865q.045.037.13.071.084.035.184.035.105 0 .18-.037.076-.04.123-.106.048-.068.069-.158.021-.092.021-.198zm.256 0q0 .156-.042.287-.04.132-.119.227-.08.095-.195.148-.114.053-.261.053-.12 0-.211-.032-.09-.031-.135-.06v.548h-.245v-1.818q.087-.02.216-.045.132-.026.303-.026.159 0 .285.05t.217.143q.09.092.137.226.05.132.05.299zM113 129.3q.385 0 .59.148.21.145.21.435 0 .158-.059.272-.055.11-.163.182-.106.068-.259.1-.153.032-.345.032h-.204v.678h-.255v-1.802q.108-.027.24-.035.134-.01.245-.01zm.021.224q-.163 0-.25.008v.718h.192q.132 0 .238-.016.105-.019.176-.058.074-.042.114-.113.04-.072.04-.182 0-.106-.043-.175-.04-.068-.11-.108-.07-.042-.162-.058t-.195-.016zM114.1 130.5q0-.182.053-.317.053-.137.14-.226.087-.09.2-.135t.232-.045q.277 0 .425.174.148.172.148.525v.043q0 .023-.003.044h-.94q.016.214.125.325t.337.11q.13 0 .217-.02.09-.024.134-.045l.034.206q-.045.023-.158.05-.11.026-.253.026-.18 0-.311-.053-.13-.055-.214-.15t-.127-.224q-.04-.132-.04-.288zm.942-.135q.003-.166-.085-.271-.084-.108-.234-.108-.085 0-.15.034-.064.032-.109.084-.045.053-.071.122-.024.068-.032.14zM115.6 130.5q0-.182.053-.317.053-.137.14-.226.087-.09.2-.135t.232-.045q.277 0 .425.174.148.172.148.525v.043q0 .023-.003.044h-.94q.016.214.125.325t.337.11q.13 0 .217-.02.09-.024.134-.045l.034.206q-.044.023-.158.05-.11.026-.253.026-.18 0-.311-.053-.13-.055-.214-.15t-.127-.224q-.04-.132-.04-.288zm.942-.135q.003-.166-.085-.271-.084-.108-.234-.108-.085 0-.15.034-.064.032-.109.084-.045.053-.071.122-.024.068-.032.14zM117.7 129.7q.032 0 .071.005.042.003.082.01.04.005.071.014.035.005.05.01l-.042.214q-.029-.01-.097-.024-.066-.016-.172-.016-.069 0-.137.016-.066.013-.087.019v1.153h-.246v-1.314q.087-.032.217-.058.129-.03.29-.03zM120 131.1q-.045-.119-.084-.232l-.082-.235h-.829l-.166.467h-.266q.105-.29.198-.535.092-.249.18-.47.089-.222.176-.422.087-.203.182-.401h.235q.095.198.182.4.087.201.174.423.09.221.182.47.092.245.198.535zm-.24-.678q-.085-.23-.169-.443-.082-.217-.171-.414-.093.197-.177.414-.082.213-.164.443zM121.5 130.5q0-.24-.119-.37-.118-.129-.316-.129-.111 0-.174.008-.061.008-.098.019v.865q.045.037.13.071.084.035.184.035.106 0 .18-.037.076-.04.123-.106.048-.068.069-.158.021-.092.021-.198zm.256 0q0 .156-.042.287-.04.132-.119.227t-.195.148q-.114.053-.261.053-.12 0-.211-.032-.09-.031-.135-.06v.548h-.245v-1.818q.087-.02.216-.045.132-.026.304-.026.158 0 .284.05t.217.142.137.227q.05.132.05.298zM122.9 130.5q0-.24-.119-.37-.118-.129-.316-.129-.111 0-.174.008-.061.008-.098.019v.865q.045.037.13.071.084.035.184.035.106 0 .18-.037.076-.04.123-.106.048-.068.069-.158.021-.092.021-.198zm.256 0q0 .156-.042.287-.04.132-.119.227t-.195.148q-.114.053-.261.053-.12 0-.211-.032-.09-.031-.135-.06v.548h-.245v-1.818q.087-.02.216-.045.132-.026.304-.026.158 0 .284.05t.217.142.137.227q.05.132.05.298zM113.8 133.4q0 .338.098.625t.287.533l-.174.119q-.206-.25-.332-.575-.124-.327-.124-.702t.124-.7q.126-.326.332-.577l.174.119q-.19.245-.287.533-.098.287-.098.625zM114.9 134q.401 0 .401-.274 0-.085-.037-.143-.034-.06-.095-.103-.06-.045-.14-.076-.076-.032-.163-.064-.1-.034-.19-.076-.09-.045-.156-.103-.066-.06-.105-.142-.037-.082-.037-.198 0-.24.163-.375t.451-.134q.167 0 .301.037.137.034.2.076l-.081.209q-.056-.035-.166-.066-.108-.035-.253-.035-.074 0-.138.016t-.11.048-.077.081q-.026.048-.026.114 0 .074.029.124t.081.09q.053.036.122.068.071.032.155.063.12.048.217.095.1.048.171.114.074.066.114.158.04.09.04.22 0 .24-.177.369-.175.129-.494.129-.108 0-.2-.016-.09-.013-.161-.032-.071-.02-.124-.042l-.08-.04.077-.21q.06.034.185.076t.303.042zM116.2 134.2v-2.005l.245-.042v.701q.069-.026.145-.04.08-.015.156-.015.164 0 .272.048.108.044.171.129.066.082.093.198.026.116.026.256v.77h-.245v-.718q0-.126-.019-.216-.016-.09-.055-.145t-.106-.08q-.066-.026-.163-.026-.04 0-.082.005t-.082.014q-.037.005-.069.013l-.042.013v1.14zM118.1 134q.087 0 .153-.003.069-.005.113-.016v-.409q-.026-.013-.087-.02-.058-.011-.142-.011-.056 0-.119.008-.06.008-.113.034-.05.024-.085.069-.034.042-.034.113 0 .132.084.185.085.05.23.05zm-.021-1.229q.148 0 .248.04.103.036.163.108.064.068.09.166.027.095.027.211v.857l-.09.016-.127.016q-.07.008-.155.013-.082.008-.164.008-.116 0-.214-.024-.097-.023-.168-.073-.072-.053-.111-.138t-.04-.203q0-.113.045-.195.047-.082.127-.132t.184-.074q.106-.023.222-.023.037 0 .076.005.04.003.074.01l.064.01.036.009v-.07q0-.06-.013-.118-.013-.06-.047-.105-.035-.048-.095-.074-.058-.03-.153-.03-.122 0-.214.02-.09.015-.134.034l-.03-.203q.048-.022.159-.04.11-.021.24-.021zM119.6 132.8q.032 0 .071.005.042.003.082.01.04.006.071.014.035.005.05.01l-.042.214q-.029-.01-.097-.024-.066-.016-.172-.016-.069 0-.137.016-.066.013-.087.019v1.153h-.246v-1.314q.087-.032.217-.058.129-.03.29-.03zM119.9 133.5q0-.182.053-.317.053-.137.14-.226.087-.09.2-.135t.232-.045q.277 0 .425.174.148.172.148.525v.043q0 .023-.003.044h-.94q.016.214.125.325t.337.11q.13 0 .217-.02.09-.024.134-.045l.034.206q-.044.023-.158.05-.11.026-.253.026-.18 0-.311-.053-.13-.055-.214-.15t-.127-.224q-.04-.132-.04-.288zm.942-.135q.003-.166-.085-.271-.084-.108-.234-.108-.085 0-.15.034-.064.032-.109.084-.045.053-.071.122-.024.068-.032.14zM121.7 133.4q0-.338-.098-.625t-.287-.533l.174-.119q.206.25.33.578.126.324.126.699t-.126.702q-.124.324-.33.575l-.174-.119q.19-.245.287-.533.098-.287.098-.625zM72.24 118.6v-1.828h1.116v.219h-.86v.543h.765v.214h-.765v.633h.926v.22zM74.8 118.6q-.029-.058-.071-.13-.042-.07-.093-.144-.05-.077-.102-.15-.053-.075-.103-.14-.05.065-.103.142-.053.074-.103.15-.048.074-.09.145t-.071.127h-.253q.092-.18.219-.364.129-.187.256-.356l-.454-.652h.277l.327.48.33-.48h.261l-.443.636q.126.171.258.364.135.19.227.372zM76.26 117.9q0-.24-.119-.37-.118-.129-.316-.129-.111 0-.174.008-.061.008-.098.019v.865q.045.037.13.071.084.035.184.035.105 0 .18-.037.076-.04.123-.106.048-.068.069-.158.021-.092.021-.198zm.256 0q0 .156-.042.287-.04.132-.119.227-.08.095-.195.148-.114.053-.261.053-.12 0-.211-.032-.09-.031-.135-.06v.548h-.245v-1.818q.087-.02.216-.045.132-.026.303-.026.159 0 .285.05t.217.143q.09.092.137.226.05.132.05.299zM77.98 117.9q0 .164-.047.295t-.135.227q-.084.095-.203.148-.119.05-.259.05t-.258-.05q-.119-.053-.206-.148-.084-.095-.132-.226t-.047-.296q0-.16.047-.293.048-.134.132-.23.087-.094.206-.144.119-.053.258-.053t.259.053q.119.05.203.145.087.095.135.23.047.131.047.292zm-.256 0q0-.232-.105-.367-.103-.137-.283-.137t-.285.137q-.103.135-.103.367t.103.37q.106.134.285.134t.283-.135q.105-.137.105-.369zM78.74 117.2q.032 0 .071.005.042.003.082.01.04.006.071.014.035.005.05.01l-.042.214q-.029-.01-.097-.024-.066-.015-.172-.015-.069 0-.137.015l-.087.019v1.153h-.246v-1.314q.088-.032.217-.058.13-.03.29-.03zM79.34 117.2h.52v.206h-.52v.633q0 .103.016.171.016.066.047.106.032.037.08.053.047.016.11.016.111 0 .177-.024l.095-.037.047.203q-.037.018-.129.045-.092.029-.21.029-.14 0-.233-.035-.09-.036-.145-.108-.056-.07-.08-.174-.02-.105-.02-.243v-1.223l.245-.043zM80.6 118.6v-1.828h1.103v.219h-.847v.551h.752v.217h-.752v.841zM82.44 118.6h-.245v-1.372h.245zm-.124-1.62q-.066 0-.113-.042-.045-.045-.045-.119t.045-.116q.047-.045.113-.045t.11.045q.048.042.048.116t-.047.119q-.045.042-.111.042zM83.19 118.6q-.227-.005-.322-.098-.095-.092-.095-.287v-1.646l.246-.042v1.649q0 .06.01.1.01.04.034.063t.064.037q.04.01.097.018zM83.29 117.9q0-.182.053-.317.053-.137.14-.226.087-.09.2-.135t.232-.045q.277 0 .425.174.148.172.148.525v.043q0 .023-.003.044h-.94q.017.214.125.325t.338.11q.129 0 .216-.02.09-.024.134-.045l.035.206q-.045.023-.159.05-.11.026-.253.026-.18 0-.311-.053-.13-.055-.214-.15-.084-.095-.126-.224-.04-.132-.04-.288zm.942-.135q.002-.166-.085-.271-.084-.108-.234-.108-.085 0-.15.034-.064.032-.109.084-.045.053-.071.122-.024.068-.032.14z"/></g><g stroke-width=".22"><path d="M151.7 115.8q.401 0 .401-.274 0-.085-.037-.143-.034-.06-.095-.103-.06-.045-.14-.076-.076-.032-.163-.064-.1-.034-.19-.076-.09-.045-.156-.103-.066-.06-.105-.142-.037-.082-.037-.198 0-.24.163-.375t.451-.134q.167 0 .301.037.137.034.2.076l-.081.209q-.055-.035-.166-.066-.108-.035-.253-.035-.074 0-.138.016t-.11.048-.077.081q-.026.048-.026.114 0 .074.029.124t.081.09q.053.036.122.068.071.032.155.063.12.048.217.095.1.048.171.114.074.066.114.158.04.09.04.22 0 .24-.178.368-.174.13-.493.13-.108 0-.2-.016-.09-.013-.161-.032-.072-.02-.124-.042l-.08-.04.077-.21q.06.034.185.076t.303.042zM153 116v-2.005l.245-.042v.702q.069-.027.145-.04.08-.016.156-.016.164 0 .272.048.108.044.171.129.066.082.093.198.026.116.026.256v.77h-.245v-.718q0-.126-.019-.216-.016-.09-.055-.145t-.106-.08q-.066-.025-.163-.025-.04 0-.082.005t-.082.013q-.037.005-.069.013l-.042.013V116zM154.9 115.8q.087 0 .153-.003.069-.005.113-.016v-.409q-.026-.013-.087-.02-.058-.011-.142-.011-.056 0-.119.008-.06.008-.113.034-.05.024-.085.068-.034.043-.034.114 0 .132.085.185.084.05.229.05zm-.021-1.229q.148 0 .248.04.103.036.163.108.064.068.09.166.027.095.027.211v.857l-.09.016-.127.016q-.07.008-.155.013-.082.008-.164.008-.116 0-.214-.024-.097-.023-.168-.073-.072-.053-.111-.138t-.04-.203q0-.113.045-.195.048-.082.127-.132t.184-.074q.106-.023.222-.023.037 0 .076.005.04.003.074.01l.064.01.037.009v-.069q0-.06-.014-.119-.013-.06-.047-.105-.034-.048-.095-.074-.058-.03-.153-.03-.122 0-.214.02-.09.015-.134.034l-.03-.203q.048-.022.159-.04.11-.021.24-.021zM156.4 114.6q.032 0 .071.005.042.003.082.01.04.005.071.014.035.005.05.01l-.042.214q-.029-.01-.098-.024-.065-.016-.171-.016-.069 0-.137.016-.066.013-.087.019V116h-.246v-1.314q.087-.032.217-.058.129-.03.29-.03zM156.7 115.3q0-.182.053-.317.053-.137.14-.227.087-.09.2-.134t.232-.045q.277 0 .425.174.148.172.148.525v.043q0 .023-.003.044h-.94q.016.214.124.325t.338.11q.13 0 .217-.02.09-.024.134-.045l.034.206q-.044.023-.158.05-.11.026-.253.026-.18 0-.311-.053-.13-.055-.214-.15t-.127-.224q-.04-.132-.04-.288zm.942-.135q.003-.166-.085-.271-.084-.108-.234-.108-.085 0-.15.034-.064.032-.109.084-.045.053-.071.122-.024.068-.032.14zM159 116v-1.828h1.103v.219h-.847v.551h.752v.217h-.752V116zM160.9 116h-.245v-1.372h.245zm-.124-1.62q-.066 0-.113-.042-.045-.045-.045-.119t.045-.116q.047-.045.113-.045t.11.045q.048.042.048.116t-.047.119q-.045.042-.111.042zM161.6 116q-.227-.005-.322-.098-.095-.092-.095-.287v-1.646l.246-.042v1.649q0 .06.01.1.01.04.034.063t.064.037q.04.01.097.019zM161.7 115.3q0-.182.053-.317.053-.137.14-.227.087-.09.2-.134t.232-.045q.277 0 .425.174.148.172.148.525v.043q0 .023-.003.044h-.94q.016.214.125.325t.337.11q.13 0 .217-.02.09-.024.134-.045l.034.206q-.044.023-.158.05-.11.026-.253.026-.18 0-.311-.053-.13-.055-.214-.15t-.127-.224q-.04-.132-.04-.288zm.942-.135q.003-.166-.085-.271-.084-.108-.234-.108-.085 0-.15.034-.064.032-.109.084-.045.053-.071.122-.024.068-.032.14zM144.5 118.2q0 .338.098.625.097.288.287.533l-.174.119q-.206-.25-.332-.575-.124-.327-.124-.702t.124-.7q.126-.326.332-.577l.174.119q-.19.245-.287.533-.098.287-.098.625zM145 118.3q0-.182.053-.317.053-.137.14-.227.087-.09.2-.134t.232-.045q.277 0 .425.174.148.172.148.525v.043q0 .023-.003.044h-.94q.016.214.125.325t.337.11q.13 0 .217-.02.09-.024.134-.045l.034.205q-.044.024-.158.05-.11.027-.253.027-.18 0-.311-.053-.13-.055-.214-.15t-.127-.224q-.04-.132-.04-.288zm.942-.135q.003-.166-.085-.271-.084-.108-.234-.108-.085 0-.15.034-.064.032-.109.084-.045.053-.071.122-.024.068-.032.14zM147.4 119q-.029-.058-.071-.13-.042-.07-.093-.144-.05-.077-.102-.15t-.103-.14q-.05.065-.103.142-.053.074-.103.15-.048.074-.09.145t-.071.127h-.253q.092-.18.219-.364.13-.187.256-.356l-.454-.652h.277l.327.48.33-.48h.261l-.443.636q.126.172.258.364.135.19.227.372zM148.2 118.9q0 .071-.048.124t-.129.053-.13-.053-.047-.124.048-.124.13-.053.128.053.048.124zm0-1.053q0 .071-.048.124t-.129.053-.13-.053-.047-.124.048-.124.13-.053.128.053.048.124zM149.8 118.8q.401 0 .401-.274 0-.085-.037-.143-.034-.06-.095-.103-.06-.045-.14-.076-.076-.032-.163-.064-.1-.034-.19-.076-.09-.045-.156-.103-.066-.06-.105-.142-.037-.082-.037-.198 0-.24.163-.375t.452-.134q.166 0 .3.037.137.034.2.076l-.081.209q-.055-.035-.166-.067-.108-.034-.253-.034-.074 0-.138.016t-.11.047-.077.082q-.026.048-.026.114 0 .074.029.124t.081.09q.053.036.122.068.071.032.155.063.12.048.217.095.1.048.171.114.074.066.114.158.04.09.04.219 0 .24-.177.37-.175.129-.494.129-.108 0-.2-.016-.09-.013-.161-.032-.071-.021-.124-.042l-.08-.04.077-.21q.06.034.185.076t.303.042zM152.3 118.3q0 .164-.048.295t-.134.227q-.084.095-.203.148-.119.05-.259.05t-.258-.05q-.119-.053-.206-.148-.084-.095-.132-.227t-.047-.295q0-.16.047-.293.048-.134.132-.23.087-.094.206-.144.119-.053.258-.053t.259.053q.119.05.203.145.087.095.135.23.047.131.047.292zm-.256 0q0-.232-.105-.367-.103-.137-.283-.137t-.285.137q-.102.135-.102.367 0 .232.102.37.106.134.285.134t.283-.135q.105-.137.105-.369zM153.2 119.1q-.166 0-.293-.053-.124-.053-.21-.148-.085-.095-.127-.224-.043-.132-.043-.29t.045-.29q.048-.132.132-.227.084-.098.206-.15.124-.056.274-.056.093 0 .185.016t.177.05l-.056.208q-.055-.026-.129-.042-.071-.016-.153-.016-.206 0-.316.13-.109.13-.109.377 0 .11.024.203.026.092.08.158.054.066.139.103.084.035.206.035.097 0 .176-.019t.124-.04l.035.206q-.021.013-.061.027-.04.01-.09.018-.05.01-.108.016-.055.008-.108.008zM154.1 119h-.245v-1.372h.245zm-.124-1.62q-.066 0-.113-.042-.045-.045-.045-.119t.045-.116q.047-.045.113-.045t.11.045q.048.042.048.116t-.047.119q-.045.042-.111.042zM154.9 118.9q.087 0 .153-.003.069-.005.113-.016v-.409q-.026-.013-.087-.02-.058-.011-.142-.011-.056 0-.119.008-.06.008-.113.034-.05.024-.085.068-.034.043-.034.114 0 .132.084.185.085.05.23.05zm-.021-1.229q.148 0 .248.04.103.037.163.108.064.068.09.166.027.095.027.211v.857l-.09.016-.127.016q-.07.008-.155.013-.082.008-.164.008-.116 0-.214-.024-.097-.023-.168-.073-.072-.053-.111-.138t-.04-.203q0-.113.045-.195.048-.082.127-.132t.184-.074q.106-.023.222-.023.037 0 .076.005.04.003.074.01l.064.01.037.009v-.069q0-.06-.014-.119-.013-.06-.047-.105-.035-.048-.095-.074-.058-.029-.153-.029-.122 0-.214.018-.09.016-.134.035l-.03-.203q.048-.021.159-.04.11-.021.24-.021zM156.4 119.1q-.227-.005-.322-.098-.095-.092-.095-.287v-1.646l.246-.042v1.649q0 .06.01.1.01.04.034.063t.064.037q.04.01.097.019zM157.3 117.7q.084-.021.222-.045.14-.024.321-.024.132 0 .222.037.09.035.15.103l.058-.037q.04-.023.098-.044.058-.024.13-.04.07-.019.152-.019.159 0 .259.048.1.045.155.13.058.084.077.2.021.116.021.253v.77h-.245v-.717q0-.122-.014-.209-.01-.087-.044-.145-.032-.058-.09-.084-.055-.03-.145-.03-.124 0-.206.035-.079.032-.108.058.021.069.032.15.01.082.01.172v.77h-.245v-.717q0-.121-.013-.209t-.048-.145q-.032-.058-.09-.084-.055-.03-.142-.03-.037 0-.08.004t-.08.008q-.038.003-.07.008t-.042.008v1.158h-.245zM159.4 118.3q0-.182.053-.317.053-.137.14-.227.087-.09.2-.134t.232-.045q.277 0 .425.174.148.172.148.525v.043q0 .023-.003.044h-.94q.016.214.125.325t.337.11q.13 0 .217-.02.09-.024.134-.045l.034.205q-.044.024-.158.05-.11.027-.253.027-.18 0-.311-.053-.13-.055-.214-.15t-.127-.224q-.04-.132-.04-.288zm.942-.135q.003-.166-.085-.271-.084-.108-.234-.108-.085 0-.15.034-.064.032-.109.084-.045.053-.071.122-.024.068-.032.14zM161.8 118q-.045-.037-.13-.071-.084-.035-.184-.035-.105 0-.182.04-.074.037-.121.106-.048.066-.069.158t-.021.198q0 .24.119.372.118.129.316.129.1 0 .166-.008.069-.01.106-.021zm0-.923.245-.042v2.008q-.084.023-.216.047t-.303.024q-.159 0-.285-.05t-.217-.143-.14-.224q-.047-.134-.047-.3 0-.159.04-.29.042-.133.121-.228.08-.095.193-.147.116-.053.263-.053.12 0 .209.031.092.032.137.061zM162.6 119h-.245v-1.372h.245zm-.124-1.62q-.066 0-.113-.042-.045-.045-.045-.119t.045-.116q.047-.045.113-.045t.11.045q.048.042.048.116t-.047.119q-.045.042-.111.042zM163.4 118.9q.087 0 .153-.003.069-.005.113-.016v-.409q-.026-.013-.087-.02-.058-.011-.142-.011-.056 0-.119.008-.06.008-.113.034-.05.024-.085.068-.034.043-.034.114 0 .132.085.185.084.05.229.05zm-.021-1.229q.148 0 .248.04.103.037.163.108.064.068.09.166.027.095.027.211v.857l-.09.016-.127.016q-.07.008-.155.013-.082.008-.164.008-.116 0-.214-.024-.097-.023-.168-.073-.072-.053-.111-.138t-.04-.203q0-.113.045-.195.048-.082.127-.132t.184-.074q.106-.023.222-.023.037 0 .076.005.04.003.074.01l.064.01.037.009v-.069q0-.06-.014-.119-.013-.06-.047-.105-.035-.048-.095-.074-.058-.029-.153-.029-.122 0-.214.018-.09.016-.134.035l-.03-.203q.048-.021.159-.04.11-.021.24-.021zM164.7 118.7q.003.021.003.042v.04q0 .166-.05.327-.048.163-.132.311l-.19-.06q.066-.135.087-.275.021-.137.021-.258 0-.035-.003-.066 0-.032-.003-.061zM166.1 117.7h.52v.206h-.52v.633q0 .103.016.171.016.066.047.106.032.037.08.053.047.016.11.016.111 0 .177-.024l.095-.037.048.203q-.037.018-.13.045-.092.029-.21.029-.14 0-.233-.035-.09-.036-.145-.108-.055-.07-.08-.174-.02-.105-.02-.243v-1.223l.245-.043z"/><path d="M166.6 118.3q0-.182.053-.317.053-.137.14-.227.087-.09.2-.134t.232-.045q.277 0 .425.174.148.172.148.525v.043q0 .023-.003.044h-.94q.016.214.125.325t.337.11q.13 0 .217-.02.09-.024.134-.045l.034.205q-.044.024-.158.05-.11.027-.253.027-.18 0-.311-.053-.13-.055-.214-.15t-.127-.224q-.04-.132-.04-.288zm.942-.135q.003-.166-.085-.271-.084-.108-.234-.108-.085 0-.15.034-.064.032-.109.084-.045.053-.071.122-.024.068-.032.14zM168.9 119q-.029-.058-.071-.13-.042-.07-.093-.144-.05-.077-.102-.15t-.103-.14q-.05.065-.103.142-.053.074-.103.15-.048.074-.09.145t-.071.127h-.253q.092-.18.219-.364.13-.187.256-.356l-.454-.652h.277l.327.48.33-.48h.261l-.443.636q.126.172.258.364.135.19.227.372zM169.7 117.7h.52v.206h-.52v.633q0 .103.016.171.016.066.047.106.032.037.08.053.047.016.11.016.111 0 .177-.024l.095-.037.047.203q-.036.018-.129.045-.092.029-.21.029-.14 0-.233-.035-.09-.036-.145-.108-.055-.07-.08-.174-.02-.105-.02-.243v-1.223l.245-.043z"/><path d="M170.4 118.2q0-.338-.098-.625t-.287-.533l.174-.119q.206.25.33.578.126.324.126.699t-.126.702q-.124.324-.33.575l-.174-.119q.19-.245.287-.533.098-.287.098-.625zM63.96 168.7h.512v3.656h-.512zM65.39 169.7q.169-.042.443-.09.28-.047.644-.047.264 0 .443.074.18.068.3.205.037-.026.117-.074.079-.047.195-.09.116-.047.258-.078.143-.037.306-.037.317 0 .517.095.2.09.311.258.116.17.153.401.043.232.043.507v1.54h-.491v-1.435q0-.243-.026-.417-.021-.174-.09-.29-.063-.116-.18-.169-.11-.058-.29-.058-.247 0-.41.069-.16.063-.217.116.042.137.063.3t.021.343v1.54h-.49v-1.435q0-.242-.027-.416t-.095-.29q-.063-.117-.18-.17-.11-.057-.284-.057-.074 0-.158.005-.085.005-.164.015-.074.005-.137.016-.063.01-.084.016v2.316h-.49zM71.69 171q0-.48-.237-.739t-.633-.258q-.222 0-.349.016-.12.016-.195.037v1.73q.09.074.259.142.169.069.369.069.21 0 .359-.074.153-.08.248-.211.094-.137.137-.317.042-.184.042-.395zm.512 0q0 .311-.085.575-.079.264-.237.454-.158.19-.39.295-.227.105-.523.105-.237 0-.422-.063-.18-.063-.269-.121v1.097h-.49v-3.634q.174-.042.433-.09.264-.053.607-.053.316 0 .57.1t.432.285.274.454q.1.264.1.596zM75.14 171q0 .327-.095.59t-.269.454q-.169.19-.406.296-.238.1-.517.1t-.517-.1q-.238-.106-.412-.296-.168-.19-.263-.453-.095-.264-.095-.591 0-.322.095-.586.095-.268.263-.458.175-.19.412-.29.237-.106.517-.106t.517.105q.237.1.406.29.174.19.27.46.094.263.094.585zm-.512 0q0-.464-.21-.733-.206-.275-.565-.275t-.57.275q-.206.269-.206.733t.206.739q.211.268.57.268t.564-.269q.211-.274.211-.738zM76.67 169.5q.063 0 .142.01.085.006.164.022.079.01.142.026.069.01.1.021l-.084.427q-.058-.02-.195-.047-.132-.032-.343-.032-.137 0-.274.032-.132.026-.174.037v2.305h-.491v-2.627q.174-.064.433-.116.258-.058.58-.058zM77.87 169.6h1.039v.411H77.87v1.266q0 .206.032.343.031.132.095.211.063.074.158.106.095.031.221.031.222 0 .354-.047l.19-.074.095.406q-.074.037-.259.09-.184.058-.422.058-.28 0-.464-.069-.18-.073-.29-.216-.111-.142-.158-.348-.043-.211-.043-.485v-2.448l.491-.085zM81.27 172q.174 0 .306-.005.137-.01.227-.032v-.817q-.053-.027-.174-.042-.116-.022-.285-.022-.11 0-.238.016-.12.016-.226.069-.1.047-.17.137-.068.085-.068.227 0 .264.17.37.168.1.458.1zm-.042-2.458q.295 0 .496.08.205.073.327.215.126.138.179.333.053.19.053.422v1.714q-.064.01-.18.031-.11.016-.253.032-.142.016-.311.027-.164.015-.327.015-.232 0-.427-.047t-.338-.148q-.142-.105-.222-.274-.079-.169-.079-.406 0-.227.09-.39.095-.164.253-.265.158-.1.37-.147t.442-.048q.074 0 .153.01.08.006.148.022.074.01.127.02.053.011.074.017v-.138q0-.12-.027-.237-.026-.121-.095-.21-.068-.096-.19-.149-.116-.058-.306-.058-.242 0-.427.037-.18.032-.269.069l-.058-.406q.095-.043.317-.08.221-.042.48-.042zM84.77 172.3v-3.656h2.205v.438h-1.693v1.102h1.503v.432h-1.503v1.683zM88.46 172.3h-.49v-2.743h.49zm-.248-3.239q-.132 0-.227-.084-.09-.09-.09-.238t.09-.232q.095-.09.227-.09t.222.09q.095.085.095.232t-.095.238q-.09.084-.222.084zM89.96 172.4q-.454-.01-.644-.195t-.19-.575v-3.292l.491-.085v3.297q0 .122.021.2t.069.127q.047.048.126.074.08.021.196.037zM90.16 171q0-.364.105-.633.106-.274.28-.454.174-.179.401-.269.227-.09.464-.09.554 0 .85.349.295.343.295 1.05v.084q0 .048-.005.09h-1.878q.031.427.248.649.216.221.675.221.258 0 .432-.042.18-.047.27-.09l.068.412q-.09.047-.317.1-.221.053-.506.053-.359 0-.622-.106-.259-.11-.428-.3t-.253-.449q-.08-.264-.08-.575zm1.883-.269q.005-.332-.169-.543-.169-.217-.47-.217-.168 0-.3.069-.127.063-.216.169-.09.105-.143.242-.047.138-.063.28z"/></g></svg>