<?xml version="1.0" encoding="UTF-8" standalone="no"?>
<svg xmlns="http://www.w3.org/2000/svg" height="267.1mm" width="194.4mm" version="1.1" viewBox="0 0 194.38824 267.08875">
 <g transform="translate(-8.725 -14.05)">
  <g stroke-width=".2198" stroke="#000" fill="none">
   <path d="m66.99 68.24v-8.79h37.01v-10.45l6.781 14.84-6.781 14.84v-10.44z"/>
   <path d="m66.99 215.5v-8.792h36.96v-10.44l6.781 14.84-6.781 14.84v-10.44z"/>
   <path d="m110.7 235.3v8.792h-36.93v10.44l-6.781-14.84 6.781-14.84v10.44z"/>
   <path d="m66.99 136.4v-8.792h36.96v-10.44l6.781 14.84-6.781 14.84v-10.44z"/>
   <path d="m146.1 135.3v-8.792h36.96v-10.44l6.781 14.84-6.781 14.84v-10.44z"/>
  </g>
  <g stroke-width=".2646" stroke="#000" fill="none">
   <rect ry="5.341" height="56.88" width="35.31" y="49.67" x="31.36"/>
   <rect ry="5.341" height="56.88" width="35.31" y="49.67" x="110.7"/>
   <rect ry="5.341" height="56.88" width="35.31" y="117.9" x="110.7"/>
   <rect ry="5.341" height="56.88" width="35.31" y="117.9" x="31.36"/>
   <rect ry="5.341" height="56.88" width="35.31" y="196.8" x="31.36"/>
   <rect ry="5.341" height="56.88" width="35.31" y="196.8" x="110.7"/>
  </g>
 </g>
 <g stroke-width=".2198">
  <path d="m64.03 29.46v-3.66h2.23v0.4378h-1.72v1.087h1.53v0.4273h-1.53v1.266h1.852v0.4378z"/>
  <path d="m69.16 29.46q-0.05803-0.116-0.1424-0.2585-0.0844-0.1424-0.1846-0.2901-0.1002-0.153-0.2057-0.3007t-0.2057-0.2796q-0.1002 0.1319-0.2057 0.2848-0.1055 0.1477-0.2057 0.3007-0.09495 0.1477-0.1794 0.2901-0.0844 0.1424-0.1424 0.2532h-0.5064q0.1846-0.3587 0.4378-0.728 0.2585-0.3745 0.5117-0.7121l-0.9073-1.303h0.5539l0.6541 0.96 0.6594-0.96h0.5222l-0.8862 1.271q0.2532 0.3429 0.517 0.728 0.269 0.3798 0.4536 0.7438z"/>
  <path d="m72.06 28.09q0-0.48-0.2374-0.7385t-0.633-0.2585q-0.2216 0-0.3482 0.01582-0.1213 0.01582-0.1952 0.03693v1.73q0.08967 0.07385 0.2585 0.1424 0.1688 0.06857 0.3692 0.06857 0.211 0 0.3587-0.07385 0.153-0.07912 0.2479-0.211 0.09495-0.1372 0.1372-0.3165 0.0422-0.1846 0.0422-0.3956zm0.5117 0q0 0.3112-0.0844 0.575-0.07912 0.2638-0.2374 0.4536-0.1582 0.1899-0.3904 0.2954-0.2268 0.1055-0.5222 0.1055-0.2374 0-0.422-0.0633-0.1794-0.0633-0.269-0.1213v1.097h-0.4906v-3.634q0.1741-0.0422 0.4326-0.08967 0.2638-0.05275 0.6066-0.05275 0.3165 0 0.5697 0.1002t0.4326 0.2848 0.2743 0.4536q0.1002 0.2638 0.1002 0.5961z"/>
  <path d="m75.51 28.09q0 0.327-0.09495 0.5908t-0.269 0.4536q-0.1688 0.1899-0.4062 0.2954-0.2374 0.1002-0.517 0.1002t-0.517-0.1002q-0.2374-0.1055-0.4114-0.2954-0.1688-0.1899-0.2638-0.4536-0.09495-0.2638-0.09495-0.5908 0-0.3218 0.09495-0.5855 0.09495-0.269 0.2638-0.4589 0.1741-0.1899 0.4114-0.2901 0.2374-0.1055 0.517-0.1055t0.517 0.1055q0.2374 0.1002 0.4062 0.2901 0.1741 0.1899 0.269 0.4589 0.09495 0.2638 0.09495 0.5855zm-0.5117 0q0-0.4642-0.211-0.7332-0.2057-0.2743-0.5644-0.2743t-0.5697 0.2743q-0.2057 0.269-0.2057 0.7332t0.2057 0.7385q0.211 0.269 0.5697 0.269t0.5644-0.269q0.211-0.2743 0.211-0.7385z"/>
  <path d="m77.04 26.66q0.0633 0 0.1424 0.01055 0.0844 0.0053 0.1635 0.0211 0.07913 0.01055 0.1424 0.02638 0.06857 0.01055 0.1002 0.0211l-0.0844 0.4273q-0.05803-0.0211-0.1952-0.04747-0.1319-0.03165-0.3429-0.03165-0.1372 0-0.2743 0.03165-0.1319 0.02637-0.1741 0.03693v2.305h-0.4906v-2.627q0.1741-0.0633 0.4326-0.116 0.2585-0.05803 0.5802-0.05803z"/>
  <path d="m78.24 26.72h1.039v0.4114h-1.039v1.266q0 0.2057 0.03165 0.3429 0.03165 0.1319 0.09495 0.211 0.0633 0.07385 0.1582 0.1055 0.09495 0.03165 0.2216 0.03165 0.2216 0 0.3534-0.04748 0.1372-0.05275 0.1899-0.07385l0.09495 0.4062q-0.07385 0.03693-0.2585 0.08967-0.1846 0.05803-0.422 0.05803-0.2796 0-0.4642-0.06857-0.1794-0.07385-0.2901-0.2163-0.1108-0.1424-0.1582-0.3482-0.0422-0.211-0.0422-0.4853v-2.448l0.4906-0.0844z"/>
  <path d="m81.64 29.11q0.1741 0 0.306-0.0053 0.1372-0.01055 0.2268-0.03165v-0.8176q-0.05275-0.02637-0.1741-0.0422-0.116-0.0211-0.2848-0.0211-0.1108 0-0.2374 0.01582-0.1213 0.01582-0.2268 0.06857-0.1002 0.04748-0.1688 0.1372-0.06857 0.0844-0.06857 0.2268 0 0.2638 0.1688 0.3692 0.1688 0.1002 0.4589 0.1002zm-0.0422-2.458q0.2954 0 0.4958 0.07913 0.2057 0.07385 0.327 0.2163 0.1266 0.1372 0.1794 0.3323 0.05275 0.1899 0.05275 0.422v1.714q-0.0633 0.01055-0.1794 0.03165-0.1108 0.01582-0.2532 0.03165-0.1424 0.01582-0.3112 0.02638-0.1635 0.01582-0.327 0.01582-0.2321 0-0.4273-0.04747-0.1952-0.04748-0.3376-0.1477-0.1424-0.1055-0.2216-0.2743-0.07913-0.1688-0.07913-0.4062 0-0.2268 0.08967-0.3904 0.09495-0.1635 0.2532-0.2638 0.1582-0.1002 0.3692-0.1477 0.211-0.04747 0.4431-0.04747 0.07385 0 0.153 0.01055 0.07913 0.0053 0.1477 0.0211 0.07385 0.01055 0.1266 0.0211t0.07385 0.01582v-0.1372q0-0.1213-0.02638-0.2374-0.02638-0.1213-0.09495-0.211-0.06858-0.09495-0.1899-0.1477-0.116-0.05803-0.306-0.05803-0.2426 0-0.4273 0.03693-0.1794 0.03165-0.269 0.06858l-0.05803-0.4062q0.09495-0.0422 0.3165-0.07913 0.2216-0.0422 0.48-0.0422z"/>
  <path d="m85.14 29.46v-3.656h2.205v0.4378h-1.693v1.102h1.503v0.4326h-1.503v1.683z"/>
  <path d="m88.82 29.46h-0.4906v-2.743h0.4906zm-0.2479-3.239q-0.1319 0-0.2268-0.0844-0.08967-0.08968-0.08967-0.2374t0.08967-0.2321q0.09495-0.08967 0.2268-0.08967 0.1319 0 0.2216 0.08967 0.09495 0.0844 0.09495 0.2321t-0.09495 0.2374q-0.08967 0.0844-0.2216 0.0844z"/>
  <path d="m90.33 29.51q-0.4536-0.01055-0.6436-0.1952-0.1899-0.1846-0.1899-0.575v-3.292l0.4906-0.0844v3.297q0 0.1213 0.0211 0.2004 0.0211 0.07913 0.06857 0.1266 0.04748 0.04747 0.1266 0.07385 0.07913 0.0211 0.1952 0.03693z"/>
  <path d="m90.52 28.09q0-0.364 0.1055-0.633 0.1055-0.2743 0.2796-0.4536 0.1741-0.1794 0.4009-0.269 0.2268-0.08968 0.4642-0.08968 0.5539 0 0.8493 0.3482 0.2954 0.3429 0.2954 1.05 0 0.03165 0 0.0844 0 0.04747-0.0053 0.08967h-1.878q0.03165 0.4273 0.2479 0.6488 0.2163 0.2216 0.6752 0.2216 0.2585 0 0.4326-0.0422 0.1794-0.04748 0.269-0.08967l0.06857 0.4114q-0.08967 0.04747-0.3165 0.1002-0.2216 0.05275-0.5064 0.05275-0.3587 0-0.6225-0.1055-0.2585-0.1108-0.4273-0.3007t-0.2532-0.4484q-0.07912-0.2638-0.07912-0.575zm1.883-0.269q0.0053-0.3323-0.1688-0.5433-0.1688-0.2163-0.4695-0.2163-0.1688 0-0.3007 0.06857-0.1266 0.0633-0.2163 0.1688-0.08967 0.1055-0.1424 0.2426-0.04747 0.1372-0.0633 0.2796z"/>
  <path d="m35.22 64.27q-0.02638-0.06331-0.07123-0.1609-0.04221-0.09761-0.09233-0.211t-0.1082-0.2321q-0.0554-0.1213-0.1055-0.2269-0.05012-0.1082-0.09497-0.1926-0.04221-0.08442-0.06859-0.1293-0.02902 0.3113-0.04748 0.6753-0.01847 0.3614-0.03166 0.7307h-0.2506q0.01055-0.2374 0.02374-0.4775 0.01319-0.2427 0.02902-0.4748 0.01847-0.2348 0.03693-0.4564 0.0211-0.2216 0.04485-0.4194h0.2242q0.07123 0.1161 0.153 0.2744 0.08178 0.1583 0.1636 0.3324 0.08178 0.1715 0.1583 0.3456 0.0765 0.1715 0.1398 0.3139 0.06331-0.1425 0.1398-0.3139 0.0765-0.1741 0.1583-0.3456 0.08178-0.1741 0.1636-0.3324 0.08178-0.1583 0.153-0.2744h0.2242q0.08969 0.8837 0.1345 1.828h-0.2506q-0.01319-0.3693-0.03166-0.7307-0.01847-0.364-0.04748-0.6753-0.02638 0.04485-0.07123 0.1293-0.04221 0.08442-0.09233 0.1926-0.05012 0.1055-0.1082 0.2269-0.0554 0.1187-0.1055 0.2321-0.05012 0.1134-0.09497 0.211-0.04221 0.09761-0.06859 0.1609z"/>
  <path d="m36.42 64.78q0.02902 0.01319 0.07386 0.02374 0.04748 0.01319 0.09233 0.01319 0.1451 0 0.2269-0.06595 0.08178-0.06331 0.1477-0.2084-0.1662-0.3166-0.3113-0.6701-0.1425-0.3561-0.2374-0.7202h0.2638q0.02902 0.1187 0.06859 0.2559 0.04221 0.1372 0.09233 0.2823t0.1082 0.2902q0.05804 0.1451 0.1213 0.2796 0.1002-0.277 0.1741-0.5487 0.07386-0.2717 0.1398-0.5593h0.2532q-0.09497 0.3878-0.211 0.7466-0.1161 0.3561-0.2506 0.6674-0.05276 0.1187-0.1108 0.2031-0.0554 0.08705-0.124 0.1425-0.06859 0.0554-0.1556 0.08178-0.08442 0.02638-0.1926 0.02638-0.02902 0-0.06067-0.0053-0.03166-0.0026-0.06331-0.01055-0.02902-0.0053-0.0554-0.01319-0.02374-0.0079-0.03429-0.01319z"/>
  <path d="m39.87 64.53q-0.04485-0.1187-0.08442-0.2321-0.03957-0.1161-0.08178-0.2348h-0.8283l-0.1662 0.4669h-0.2664q0.1055-0.2902 0.1978-0.5355 0.09233-0.248 0.1794-0.4696 0.08969-0.2216 0.1767-0.4221 0.08705-0.2031 0.182-0.401h0.2348q0.09497 0.1978 0.182 0.401 0.08705 0.2005 0.1741 0.4221 0.08969 0.2216 0.182 0.4696 0.09233 0.2453 0.1978 0.5355zm-0.2401-0.678q-0.08442-0.2295-0.1688-0.4432-0.08178-0.2163-0.1715-0.4142-0.09233 0.1978-0.1767 0.4142-0.08178 0.2137-0.1636 0.4432z"/>
  <path d="m41.34 63.84q0-0.2401-0.1187-0.3693-0.1187-0.1293-0.3166-0.1293-0.1108 0-0.1741 0.0079-0.06067 0.0079-0.09761 0.01847v0.8653q0.04485 0.03693 0.1293 0.07123 0.08442 0.03429 0.1847 0.03429 0.1055 0 0.1794-0.03693 0.0765-0.03957 0.124-0.1055 0.04748-0.06859 0.06859-0.1583 0.0211-0.09233 0.0211-0.1978zm0.2559 0q0 0.1556-0.04221 0.2875-0.03957 0.1319-0.1187 0.2269-0.07914 0.09497-0.1952 0.1477-0.1134 0.05276-0.2612 0.05276-0.1187 0-0.211-0.03166-0.08969-0.03166-0.1345-0.06067v0.5487h-0.2453v-1.818q0.08705-0.0211 0.2163-0.04485 0.1319-0.02638 0.3034-0.02638 0.1583 0 0.2849 0.05012t0.2163 0.1425q0.08969 0.09233 0.1372 0.2269 0.05012 0.1319 0.05012 0.2981z"/>
  <path d="m42.81 63.84q0-0.2401-0.1187-0.3693-0.1187-0.1293-0.3166-0.1293-0.1108 0-0.1741 0.0079-0.06067 0.0079-0.09761 0.01847v0.8653q0.04485 0.03693 0.1293 0.07123 0.08442 0.03429 0.1847 0.03429 0.1055 0 0.1794-0.03693 0.0765-0.03957 0.124-0.1055 0.04748-0.06859 0.06859-0.1583 0.0211-0.09233 0.0211-0.1978zm0.2559 0q0 0.1556-0.04221 0.2875-0.03957 0.1319-0.1187 0.2269-0.07914 0.09497-0.1952 0.1477-0.1134 0.05276-0.2612 0.05276-0.1187 0-0.211-0.03166-0.08969-0.03166-0.1345-0.06067v0.5487h-0.2453v-1.818q0.08705-0.0211 0.2163-0.04485 0.1319-0.02638 0.3034-0.02638 0.1583 0 0.2849 0.05012t0.2163 0.1425q0.08969 0.09233 0.1372 0.2269 0.05012 0.1319 0.05012 0.2981z"/>
  <path d="m113.1 61.15q0.3851 0 0.5909 0.1477 0.2084 0.1451 0.2084 0.4353 0 0.1583-0.058 0.2717-0.0554 0.1108-0.1636 0.182-0.1055 0.06859-0.2585 0.1002-0.153 0.03166-0.3456 0.03166h-0.2031v0.678h-0.2559v-1.802q0.1082-0.02638 0.2401-0.03429 0.1345-0.01055 0.2453-0.01055zm0.0211 0.2242q-0.1636 0-0.2506 0.0079v0.7175h0.1926q0.1319 0 0.2374-0.01583 0.1055-0.01847 0.1768-0.05804 0.0739-0.04221 0.1134-0.1134 0.0396-0.07123 0.0396-0.182 0-0.1055-0.0422-0.1741-0.0396-0.06859-0.1108-0.1082-0.0686-0.04221-0.1609-0.05804t-0.1952-0.01583z"/>
  <path d="m114.2 62.32q0-0.182 0.0528-0.3166 0.0528-0.1372 0.1398-0.2269 0.0871-0.08969 0.2005-0.1345 0.1134-0.04485 0.2321-0.04485 0.277 0 0.4247 0.1741 0.1477 0.1715 0.1477 0.525 0 0.01583 0 0.04221 0 0.02374-0.003 0.04485h-0.9391q0.0158 0.2137 0.124 0.3245t0.3377 0.1108q0.1293 0 0.2163-0.0211 0.0897-0.02374 0.1345-0.04485l0.0343 0.2058q-0.0449 0.02374-0.1583 0.05012-0.1108 0.02638-0.2532 0.02638-0.1794 0-0.3113-0.05276-0.1293-0.0554-0.2137-0.1504-0.0844-0.09497-0.1266-0.2242-0.0396-0.1319-0.0396-0.2875zm0.9418-0.1345q0.003-0.1662-0.0844-0.2717-0.0844-0.1082-0.2348-0.1082-0.0844 0-0.1504 0.03429-0.0633 0.03166-0.1082 0.08442-0.0448 0.05276-0.0712 0.1213-0.0237 0.06859-0.0316 0.1398z"/>
  <path d="m115.7 62.32q0-0.182 0.0528-0.3166 0.0528-0.1372 0.1398-0.2269 0.0871-0.08969 0.2005-0.1345 0.1134-0.04485 0.2321-0.04485 0.277 0 0.4247 0.1741 0.1477 0.1715 0.1477 0.525 0 0.01583 0 0.04221 0 0.02374-0.003 0.04485h-0.9391q0.0158 0.2137 0.124 0.3245t0.3377 0.1108q0.1293 0 0.2163-0.0211 0.0897-0.02374 0.1345-0.04485l0.0343 0.2058q-0.0448 0.02374-0.1583 0.05012-0.1108 0.02638-0.2532 0.02638-0.1794 0-0.3113-0.05276-0.1293-0.0554-0.2137-0.1504-0.0844-0.09497-0.1266-0.2242-0.0396-0.1319-0.0396-0.2875zm0.9418-0.1345q0.003-0.1662-0.0844-0.2717-0.0844-0.1082-0.2348-0.1082-0.0844 0-0.1504 0.03429-0.0633 0.03166-0.1082 0.08442-0.0448 0.05276-0.0712 0.1213-0.0237 0.06859-0.0316 0.1398z"/>
  <path d="m117.8 61.6q0.0317 0 0.0712 0.0053 0.0422 0.0026 0.0818 0.01055 0.0396 0.0053 0.0712 0.01319 0.0343 0.0053 0.0501 0.01055l-0.0422 0.2137q-0.029-0.01055-0.0976-0.02374-0.066-0.01583-0.1715-0.01583-0.0686 0-0.1372 0.01583-0.066 0.01319-0.087 0.01847v1.153h-0.2453v-1.314q0.0871-0.03166 0.2163-0.05804 0.1293-0.02902 0.2902-0.02902z"/>
  <path d="m120.1 63q-0.0448-0.1187-0.0844-0.2321-0.0396-0.1161-0.0818-0.2348h-0.8283l-0.1662 0.4669h-0.2664q0.1055-0.2902 0.1978-0.5355 0.0923-0.248 0.1794-0.4696 0.0897-0.2216 0.1768-0.4221 0.087-0.2031 0.182-0.401h0.2348q0.095 0.1978 0.182 0.401 0.0871 0.2005 0.1741 0.4221 0.0897 0.2216 0.182 0.4696 0.0923 0.2453 0.1978 0.5355zm-0.2401-0.678q-0.0844-0.2295-0.1688-0.4432-0.0818-0.2163-0.1715-0.4142-0.0923 0.1978-0.1768 0.4142-0.0818 0.2137-0.1636 0.4432z"/>
  <path d="m121.6 62.32q0-0.2401-0.1187-0.3693-0.1187-0.1293-0.3166-0.1293-0.1108 0-0.1741 0.0079-0.0607 0.0079-0.0976 0.01847v0.8653q0.0448 0.03693 0.1293 0.07123 0.0844 0.03429 0.1847 0.03429 0.1055 0 0.1794-0.03693 0.0765-0.03957 0.124-0.1055 0.0475-0.06859 0.0686-0.1583 0.0211-0.09233 0.0211-0.1978zm0.2559 0q0 0.1556-0.0422 0.2875-0.0396 0.1319-0.1187 0.2269-0.0791 0.09497-0.1952 0.1477-0.1134 0.05276-0.2612 0.05276-0.1187 0-0.211-0.03166-0.0897-0.03166-0.1345-0.06067v0.5487h-0.2453v-1.818q0.0871-0.0211 0.2163-0.04485 0.1319-0.02638 0.3034-0.02638 0.1583 0 0.2849 0.05012t0.2163 0.1425q0.0897 0.09233 0.1372 0.2269 0.0501 0.1319 0.0501 0.2981z"/>
  <path d="m123 62.32q0-0.2401-0.1187-0.3693-0.1187-0.1293-0.3166-0.1293-0.1108 0-0.1741 0.0079-0.0607 0.0079-0.0976 0.01847v0.8653q0.0448 0.03693 0.1293 0.07123 0.0844 0.03429 0.1847 0.03429 0.1055 0 0.1794-0.03693 0.0765-0.03957 0.124-0.1055 0.0475-0.06859 0.0686-0.1583 0.0211-0.09233 0.0211-0.1978zm0.2559 0q0 0.1556-0.0422 0.2875-0.0396 0.1319-0.1187 0.2269-0.0791 0.09497-0.1952 0.1477-0.1134 0.05276-0.2612 0.05276-0.1187 0-0.211-0.03166-0.0897-0.03166-0.1345-0.06067v0.5487h-0.2453v-1.818q0.0871-0.0211 0.2163-0.04485 0.1319-0.02638 0.3034-0.02638 0.1583 0 0.2849 0.05012t0.2163 0.1425q0.0897 0.09233 0.1372 0.2269 0.0501 0.1319 0.0501 0.2981z"/>
  <path d="m110.8 65.29q0 0.3377 0.0976 0.6252t0.2875 0.5329l-0.1741 0.1187q-0.2058-0.2506-0.3324-0.5751-0.124-0.3271-0.124-0.7017t0.124-0.6991q0.1266-0.3271 0.3324-0.5777l0.1741 0.1187q-0.1899 0.2453-0.2875 0.5329-0.0976 0.2875-0.0976 0.6252z"/>
  <path d="m113 65.16q0 0.2374-0.0739 0.4142-0.0739 0.1741-0.2084 0.2902-0.1345 0.1134-0.3218 0.1715-0.1873 0.0554-0.4115 0.0554-0.1108 0-0.2453-0.01055-0.1319-0.0079-0.2401-0.03429v-1.773q0.1082-0.02638 0.2401-0.03429 0.1345-0.01055 0.2453-0.01055 0.2242 0 0.4115 0.05804 0.1873 0.0554 0.3218 0.1715 0.1345 0.1134 0.2084 0.2902 0.0739 0.1741 0.0739 0.4115zm-0.9945 0.707q0.364 0 0.5434-0.1847 0.1794-0.1873 0.1794-0.5223t-0.1794-0.5197q-0.1794-0.1873-0.5434-0.1873-0.1082 0-0.1688 0.0026-0.058 0.0026-0.0818 0.0053v1.398q0.0237 0.0026 0.0818 0.0053 0.0607 0.0026 0.1688 0.0026z"/>
  <path d="m113.3 65.39q0-0.182 0.0528-0.3166 0.0528-0.1372 0.1398-0.2269 0.0871-0.08969 0.2005-0.1345 0.1134-0.04485 0.2322-0.04485 0.277 0 0.4247 0.1741 0.1477 0.1715 0.1477 0.525 0 0.01583 0 0.04221 0 0.02374-0.003 0.04485h-0.9391q0.0158 0.2137 0.124 0.3245t0.3377 0.1108q0.1293 0 0.2163-0.0211 0.0897-0.02374 0.1345-0.04485l0.0343 0.2058q-0.0448 0.02374-0.1583 0.05012-0.1108 0.02638-0.2532 0.02638-0.1794 0-0.3113-0.05276-0.1293-0.0554-0.2137-0.1504-0.0844-0.09497-0.1266-0.2242-0.0396-0.1319-0.0396-0.2875zm0.9418-0.1345q0.003-0.1662-0.0844-0.2717-0.0844-0.1082-0.2348-0.1082-0.0844 0-0.1504 0.03429-0.0633 0.03166-0.1082 0.08442-0.0448 0.05276-0.0712 0.1213-0.0237 0.06859-0.0317 0.1398z"/>
  <path d="m115.2 65.9q0.1504 0 0.2216-0.03957 0.0739-0.03957 0.0739-0.1266 0-0.08969-0.0712-0.1425-0.0712-0.05276-0.2348-0.1187-0.0791-0.03166-0.153-0.06331-0.0712-0.03429-0.124-0.07914t-0.0844-0.1082q-0.0316-0.06331-0.0316-0.1556 0-0.182 0.1345-0.2875 0.1345-0.1082 0.3667-0.1082 0.058 0 0.1161 0.0079 0.058 0.0053 0.1082 0.01583 0.0501 0.0079 0.0871 0.01847 0.0396 0.01055 0.0607 0.01847l-0.0449 0.211q-0.0396-0.0211-0.124-0.04221-0.0844-0.02374-0.2031-0.02374-0.1029 0-0.1794 0.04221-0.0765 0.03957-0.0765 0.1266 0 0.04485 0.0158 0.07914 0.0185 0.03429 0.0528 0.06331 0.0369 0.02638 0.0897 0.05012t0.1266 0.05012q0.0976 0.03693 0.1741 0.07386 0.0765 0.03429 0.1293 0.08178 0.0554 0.04748 0.0844 0.1161 0.029 0.06595 0.029 0.1636 0 0.1899-0.1424 0.2875-0.1398 0.09761-0.401 0.09761-0.182 0-0.2849-0.03166-0.1029-0.02902-0.1398-0.04485l0.0449-0.211q0.0422 0.01583 0.1345 0.04748 0.0923 0.03166 0.2453 0.03166z"/>
  <path d="m116.4 64.71h0.5197v0.2058h-0.5197v0.6331q0 0.1029 0.0158 0.1715 0.0158 0.06595 0.0475 0.1055 0.0317 0.03693 0.0791 0.05276 0.0475 0.01583 0.1108 0.01583 0.1108 0 0.1767-0.02374 0.0686-0.02638 0.095-0.03693l0.0475 0.2031q-0.0369 0.01847-0.1293 0.04485-0.0923 0.02902-0.211 0.02902-0.1398 0-0.2321-0.03429-0.0897-0.03693-0.1451-0.1082-0.0554-0.07123-0.0791-0.1741-0.0211-0.1055-0.0211-0.2427v-1.224l0.2453-0.04221z"/>
  <path d="m117.1 66.08h-0.2453v-1.372h0.2453zm-0.124-1.62q-0.066 0-0.1134-0.04221-0.0448-0.04485-0.0448-0.1187 0-0.07386 0.0448-0.1161 0.0475-0.04485 0.1134-0.04485 0.066 0 0.1108 0.04485 0.0475 0.04221 0.0475 0.1161 0 0.07386-0.0475 0.1187-0.0448 0.04221-0.1108 0.04221z"/>
  <path d="m117.5 64.75q0.0844-0.0211 0.2242-0.04485 0.1398-0.02374 0.3218-0.02374 0.1636 0 0.2717 0.04748 0.1082 0.04485 0.1715 0.1293 0.0659 0.08178 0.0923 0.1978 0.0264 0.1161 0.0264 0.2559v0.7703h-0.2453v-0.7175q0-0.1266-0.0185-0.2163-0.0158-0.08969-0.0554-0.1451-0.0396-0.0554-0.1055-0.07914-0.066-0.02638-0.1636-0.02638-0.0396 0-0.0818 0.0026t-0.0818 0.0079q-0.0369 0.0026-0.0686 0.0079-0.029 0.0053-0.0422 0.0079v1.158h-0.2453z"/>
  <path d="m119.4 65.9q0.087 0 0.153-0.0026 0.0686-0.0053 0.1134-0.01583v-0.4089q-0.0264-0.01319-0.0871-0.0211-0.058-0.01055-0.1424-0.01055-0.0554 0-0.1187 0.0079-0.0607 0.0079-0.1134 0.03429-0.0501 0.02374-0.0844 0.06859-0.0343 0.04221-0.0343 0.1134 0 0.1319 0.0844 0.1847 0.0844 0.05012 0.2295 0.05012zm-0.0211-1.229q0.1477 0 0.248 0.03957 0.1029 0.03693 0.1636 0.1082 0.0633 0.06859 0.0897 0.1662 0.0264 0.09497 0.0264 0.211v0.8574q-0.0317 0.0053-0.0897 0.01583-0.0554 0.0079-0.1266 0.01583-0.0712 0.0079-0.1556 0.01319-0.0818 0.0079-0.1636 0.0079-0.1161 0-0.2137-0.02374t-0.1688-0.07386q-0.0712-0.05276-0.1108-0.1372-0.0396-0.08442-0.0396-0.2031 0-0.1134 0.0448-0.1952 0.0475-0.08178 0.1266-0.1319t0.1847-0.07386q0.1055-0.02374 0.2216-0.02374 0.0369 0 0.0765 0.0053 0.0396 0.0026 0.0739 0.01055 0.0369 0.0053 0.0633 0.01055 0.0264 0.0053 0.0369 0.0079v-0.06859q0-0.06067-0.0132-0.1187-0.0132-0.06067-0.0475-0.1055-0.0343-0.04748-0.095-0.07386-0.058-0.02902-0.153-0.02902-0.1214 0-0.2137 0.01847-0.0897 0.01583-0.1345 0.03429l-0.029-0.2031q0.0475-0.0211 0.1583-0.03957 0.1108-0.0211 0.2401-0.0211z"/>
  <path d="m120.6 64.71h0.5197v0.2058h-0.5197v0.6331q0 0.1029 0.0158 0.1715 0.0158 0.06595 0.0475 0.1055 0.0317 0.03693 0.0791 0.05276 0.0475 0.01583 0.1108 0.01583 0.1108 0 0.1767-0.02374 0.0686-0.02638 0.095-0.03693l0.0475 0.2031q-0.0369 0.01847-0.1293 0.04485-0.0923 0.02902-0.211 0.02902-0.1398 0-0.2321-0.03429-0.0897-0.03693-0.1451-0.1082-0.0554-0.07123-0.0791-0.1741-0.0211-0.1055-0.0211-0.2427v-1.224l0.2453-0.04221z"/>
  <path d="m121.4 66.08h-0.2453v-1.372h0.2453zm-0.124-1.62q-0.066 0-0.1134-0.04221-0.0448-0.04485-0.0448-0.1187 0-0.07386 0.0448-0.1161 0.0475-0.04485 0.1134-0.04485 0.066 0 0.1108 0.04485 0.0475 0.04221 0.0475 0.1161 0 0.07386-0.0475 0.1187-0.0448 0.04221-0.1108 0.04221z"/>
  <path d="m122.9 65.39q0 0.1636-0.0475 0.2955t-0.1345 0.2269q-0.0844 0.09497-0.2031 0.1477-0.1187 0.05012-0.2585 0.05012t-0.2585-0.05012q-0.1187-0.05276-0.2058-0.1477-0.0844-0.09497-0.1319-0.2269t-0.0475-0.2955q0-0.1609 0.0475-0.2928 0.0475-0.1345 0.1319-0.2295 0.0871-0.09497 0.2058-0.1451 0.1187-0.05276 0.2585-0.05276t0.2585 0.05276q0.1187 0.05012 0.2031 0.1451 0.087 0.09497 0.1345 0.2295 0.0475 0.1319 0.0475 0.2928zm-0.2559 0q0-0.2321-0.1055-0.3667-0.1029-0.1372-0.2823-0.1372t-0.2849 0.1372q-0.1029 0.1345-0.1029 0.3667 0 0.2321 0.1029 0.3693 0.1055 0.1345 0.2849 0.1345t0.2823-0.1345q0.1055-0.1372 0.1055-0.3693z"/>
  <path d="m123.2 64.75q0.0844-0.0211 0.2242-0.04485 0.1398-0.02374 0.3218-0.02374 0.1636 0 0.2717 0.04748 0.1082 0.04485 0.1715 0.1293 0.066 0.08178 0.0923 0.1978 0.0264 0.1161 0.0264 0.2559v0.7703h-0.2453v-0.7175q0-0.1266-0.0185-0.2163-0.0158-0.08969-0.0554-0.1451-0.0396-0.0554-0.1055-0.07914-0.066-0.02638-0.1636-0.02638-0.0396 0-0.0818 0.0026t-0.0818 0.0079q-0.0369 0.0026-0.0686 0.0079-0.029 0.0053-0.0422 0.0079v1.158h-0.2453z"/>
  <path d="m124.9 65.29q0-0.3377-0.0976-0.6252t-0.2875-0.5329l0.1741-0.1187q0.2058 0.2506 0.3298 0.5777 0.1266 0.3245 0.1266 0.6991t-0.1266 0.7017q-0.124 0.3245-0.3298 0.5751l-0.1741-0.1187q0.1899-0.2453 0.2875-0.5329 0.0976-0.2875 0.0976-0.6252z"/>
  <path d="m72.24 50.45v-1.828h1.116v0.219h-0.86v0.5434h0.765v0.2137h-0.765v0.6331h0.9259v0.219z"/>
  <path d="m74.8 50.45q-0.02902-0.05804-0.07123-0.1293-0.04221-0.07123-0.09233-0.1451-0.05012-0.0765-0.1029-0.1504-0.05276-0.07386-0.1029-0.1398-0.05012 0.06595-0.1029 0.1425-0.05276 0.07386-0.1029 0.1504-0.04748 0.07386-0.08969 0.1451-0.04221 0.07123-0.07123 0.1266h-0.2532q0.09233-0.1794 0.219-0.364 0.1293-0.1873 0.2559-0.3561l-0.4537-0.6516h0.277l0.3271 0.4801 0.3298-0.4801h0.2612l-0.4432 0.6358q0.1266 0.1715 0.2585 0.364 0.1345 0.1899 0.2269 0.372z"/>
  <path d="m76.26 49.77q0-0.2401-0.1187-0.3693-0.1187-0.1293-0.3166-0.1293-0.1108 0-0.1741 0.0079-0.06067 0.0079-0.09761 0.01847v0.8653q0.04485 0.03693 0.1293 0.07123 0.08442 0.03429 0.1847 0.03429 0.1055 0 0.1794-0.03693 0.0765-0.03957 0.124-0.1055 0.04748-0.06859 0.06859-0.1583 0.0211-0.09233 0.0211-0.1978zm0.2559 0q0 0.1556-0.04221 0.2875-0.03957 0.1319-0.1187 0.2269-0.07914 0.09497-0.1952 0.1477-0.1134 0.05276-0.2612 0.05276-0.1187 0-0.211-0.03166-0.08969-0.03166-0.1345-0.06067v0.5487h-0.2453v-1.818q0.08705-0.0211 0.2163-0.04485 0.1319-0.02638 0.3034-0.02638 0.1583 0 0.2849 0.05012t0.2163 0.1425q0.08969 0.09233 0.1372 0.2269 0.05012 0.1319 0.05012 0.2981z"/>
  <path d="m77.98 49.77q0 0.1636-0.04748 0.2955t-0.1345 0.2269q-0.08442 0.09497-0.2031 0.1477-0.1187 0.05012-0.2585 0.05012t-0.2585-0.05012q-0.1187-0.05276-0.2058-0.1477-0.08442-0.09497-0.1319-0.2269t-0.04748-0.2955q0-0.1609 0.04748-0.2928 0.04748-0.1345 0.1319-0.2295 0.08705-0.09497 0.2058-0.1451 0.1187-0.05276 0.2585-0.05276t0.2585 0.05276q0.1187 0.05012 0.2031 0.1451 0.08705 0.09497 0.1345 0.2295 0.04748 0.1319 0.04748 0.2928zm-0.2559 0q0-0.2321-0.1055-0.3667-0.1029-0.1372-0.2823-0.1372t-0.2849 0.1372q-0.1029 0.1345-0.1029 0.3667 0 0.2321 0.1029 0.3693 0.1055 0.1345 0.2849 0.1345t0.2823-0.1345q0.1055-0.1372 0.1055-0.3693z"/>
  <path d="m78.74 49.05q0.03166 0 0.07123 0.0053 0.04221 0.0026 0.08178 0.01055 0.03957 0.0053 0.07123 0.01319 0.03429 0.0053 0.05012 0.01055l-0.04221 0.2137q-0.02902-0.01055-0.09761-0.02374-0.06595-0.01583-0.1715-0.01583-0.06859 0-0.1372 0.01583-0.06595 0.01319-0.08705 0.01847v1.153h-0.2453v-1.314q0.08705-0.03166 0.2163-0.05804 0.1293-0.02902 0.2902-0.02902z"/>
  <path d="m79.34 49.08h0.5197v0.2058h-0.5197v0.6331q0 0.1029 0.01583 0.1715 0.01583 0.06595 0.04748 0.1055 0.03166 0.03693 0.07914 0.05276t0.1108 0.01583q0.1108 0 0.1767-0.02374 0.06859-0.02638 0.09497-0.03693l0.04748 0.2031q-0.03693 0.01847-0.1293 0.04485-0.09233 0.02902-0.211 0.02902-0.1398 0-0.2321-0.03429-0.08969-0.03693-0.1451-0.1082-0.0554-0.07123-0.07914-0.1741-0.0211-0.1055-0.0211-0.2427v-1.224l0.2453-0.04221z"/>
  <path d="m80.6 50.45v-1.828h1.103v0.219h-0.8468v0.5513h0.7518v0.2163h-0.7518v0.8415z"/>
  <path d="m82.44 50.45h-0.2453v-1.372h0.2453zm-0.124-1.62q-0.06595 0-0.1134-0.04221-0.04485-0.04485-0.04485-0.1187 0-0.07386 0.04485-0.1161 0.04748-0.04485 0.1134-0.04485 0.06595 0 0.1108 0.04485 0.04748 0.04221 0.04748 0.1161 0 0.07386-0.04748 0.1187-0.04485 0.04221-0.1108 0.04221z"/>
  <path d="m83.19 50.48q-0.2269-0.0053-0.3218-0.09761-0.09497-0.09233-0.09497-0.2875v-1.646l0.2453-0.04221v1.649q0 0.06067 0.01055 0.1002 0.01055 0.03957 0.03429 0.06331t0.06331 0.03693q0.03957 0.01055 0.09761 0.01847z"/>
  <path d="m83.29 49.77q0-0.182 0.05276-0.3166 0.05276-0.1372 0.1398-0.2269 0.08705-0.08969 0.2005-0.1345 0.1134-0.04485 0.2321-0.04485 0.277 0 0.4247 0.1741 0.1477 0.1715 0.1477 0.525 0 0.01583 0 0.04221 0 0.02374-0.0026 0.04485h-0.9391q0.01583 0.2137 0.124 0.3245t0.3377 0.1108q0.1293 0 0.2163-0.0211 0.08969-0.02374 0.1345-0.04485l0.03429 0.2058q-0.04485 0.02374-0.1583 0.05012-0.1108 0.02638-0.2532 0.02638-0.1794 0-0.3113-0.05276-0.1293-0.0554-0.2137-0.1504-0.08442-0.09497-0.1266-0.2242-0.03957-0.1319-0.03957-0.2875zm0.9418-0.1345q0.0026-0.1662-0.08442-0.2717-0.08442-0.1082-0.2348-0.1082-0.08442 0-0.1504 0.03429-0.06331 0.03166-0.1082 0.08442-0.04485 0.05276-0.07123 0.1213-0.02374 0.06859-0.03166 0.1398z"/>
  <path d="m35.22 211.5q-0.02638-0.0633-0.07123-0.1609-0.04221-0.0976-0.09233-0.211t-0.1082-0.2321q-0.0554-0.1214-0.1055-0.2269-0.05012-0.1082-0.09497-0.1926-0.04221-0.0844-0.06859-0.1293-0.02902 0.3113-0.04748 0.6753-0.01847 0.3614-0.03166 0.7307h-0.2506q0.01055-0.2374 0.02374-0.4775 0.01319-0.2427 0.02902-0.4748 0.01847-0.2348 0.03693-0.4564 0.0211-0.2216 0.04485-0.4194h0.2242q0.07123 0.1161 0.153 0.2744 0.08178 0.1583 0.1636 0.3324 0.08178 0.1715 0.1583 0.3456 0.0765 0.1715 0.1398 0.3139 0.06331-0.1424 0.1398-0.3139 0.0765-0.1741 0.1583-0.3456 0.08178-0.1741 0.1636-0.3324 0.08178-0.1583 0.153-0.2744h0.2242q0.08969 0.8837 0.1345 1.828h-0.2506q-0.01319-0.3693-0.03166-0.7307-0.01847-0.364-0.04748-0.6753-0.02638 0.0448-0.07123 0.1293-0.04221 0.0844-0.09233 0.1926-0.05012 0.1055-0.1082 0.2269-0.0554 0.1187-0.1055 0.2321-0.05012 0.1134-0.09497 0.211-0.04221 0.0976-0.06859 0.1609z"/>
  <path d="m36.42 212.1q0.02902 0.0132 0.07386 0.0237 0.04748 0.0132 0.09233 0.0132 0.1451 0 0.2269-0.0659 0.08178-0.0633 0.1477-0.2084-0.1662-0.3166-0.3113-0.67-0.1425-0.3561-0.2374-0.7202h0.2638q0.02902 0.1187 0.06859 0.2559 0.04221 0.1372 0.09233 0.2823t0.1082 0.2902q0.05804 0.1451 0.1213 0.2796 0.1002-0.277 0.1741-0.5487 0.07386-0.2717 0.1398-0.5592h0.2532q-0.09497 0.3878-0.211 0.7466-0.1161 0.3561-0.2506 0.6674-0.05276 0.1187-0.1108 0.2031-0.0554 0.0871-0.124 0.1424-0.06859 0.0554-0.1556 0.0818-0.08442 0.0264-0.1926 0.0264-0.02902 0-0.06067-0.005-0.03166-0.003-0.06331-0.0106-0.02902-0.005-0.0554-0.0132-0.02374-0.008-0.03429-0.0132z"/>
  <path d="m39.87 211.8q-0.04485-0.1187-0.08442-0.2322-0.03957-0.1161-0.08178-0.2348h-0.8283l-0.1662 0.4669h-0.2664q0.1055-0.2902 0.1978-0.5355 0.09233-0.248 0.1794-0.4696 0.08969-0.2216 0.1767-0.4221 0.08705-0.2031 0.182-0.401h0.2348q0.09497 0.1978 0.182 0.401 0.08705 0.2005 0.1741 0.4221 0.08969 0.2216 0.182 0.4696 0.09233 0.2453 0.1978 0.5355zm-0.2401-0.678q-0.08442-0.2295-0.1688-0.4432-0.08178-0.2163-0.1715-0.4142-0.09233 0.1978-0.1767 0.4142-0.08178 0.2137-0.1636 0.4432z"/>
  <path d="m41.34 211.1q0-0.2401-0.1187-0.3693-0.1187-0.1293-0.3166-0.1293-0.1108 0-0.1741 0.008-0.06067 0.008-0.09761 0.0185v0.8653q0.04485 0.0369 0.1293 0.0712 0.08442 0.0343 0.1847 0.0343 0.1055 0 0.1794-0.0369 0.0765-0.0396 0.124-0.1055 0.04748-0.0686 0.06859-0.1583 0.0211-0.0923 0.0211-0.1978zm0.2559 0q0 0.1556-0.04221 0.2875-0.03957 0.1319-0.1187 0.2269-0.07914 0.095-0.1952 0.1477-0.1134 0.0528-0.2612 0.0528-0.1187 0-0.211-0.0317-0.08969-0.0317-0.1345-0.0607v0.5487h-0.2453v-1.818q0.08705-0.0211 0.2163-0.0448 0.1319-0.0264 0.3034-0.0264 0.1583 0 0.2849 0.0501t0.2163 0.1424q0.08969 0.0923 0.1372 0.2269 0.05012 0.1319 0.05012 0.2981z"/>
  <path d="m42.81 211.1q0-0.2401-0.1187-0.3693-0.1187-0.1293-0.3166-0.1293-0.1108 0-0.1741 0.008-0.06067 0.008-0.09761 0.0185v0.8653q0.04485 0.0369 0.1293 0.0712 0.08442 0.0343 0.1847 0.0343 0.1055 0 0.1794-0.0369 0.0765-0.0396 0.124-0.1055 0.04748-0.0686 0.06859-0.1583 0.0211-0.0923 0.0211-0.1978zm0.2559 0q0 0.1556-0.04221 0.2875-0.03957 0.1319-0.1187 0.2269-0.07914 0.095-0.1952 0.1477-0.1134 0.0528-0.2612 0.0528-0.1187 0-0.211-0.0317-0.08969-0.0317-0.1345-0.0607v0.5487h-0.2453v-1.818q0.08705-0.0211 0.2163-0.0448 0.1319-0.0264 0.3034-0.0264 0.1583 0 0.2849 0.0501t0.2163 0.1424q0.08969 0.0923 0.1372 0.2269 0.05012 0.1319 0.05012 0.2981z"/>
  <path d="m113 208.4q0.3852 0 0.5909 0.1477 0.2084 0.1451 0.2084 0.4353 0 0.1583-0.058 0.2717-0.0554 0.1108-0.1636 0.182-0.1055 0.0686-0.2585 0.1002-0.153 0.0317-0.3456 0.0317h-0.2031v0.678h-0.2559v-1.802q0.1082-0.0264 0.2401-0.0343 0.1345-0.0105 0.2453-0.0105zm0.0211 0.2242q-0.1636 0-0.2506 0.008v0.7175h0.1926q0.1319 0 0.2374-0.0158 0.1055-0.0185 0.1768-0.058 0.0739-0.0422 0.1134-0.1134 0.0396-0.0712 0.0396-0.182 0-0.1055-0.0422-0.1741-0.0396-0.0686-0.1108-0.1082-0.0686-0.0422-0.1609-0.058t-0.1952-0.0158z"/>
  <path d="m114.1 209.6q0-0.182 0.0528-0.3166 0.0528-0.1372 0.1398-0.2269 0.0871-0.0897 0.2005-0.1345t0.2321-0.0448q0.277 0 0.4247 0.1741 0.1477 0.1715 0.1477 0.525 0 0.0158 0 0.0422 0 0.0237-0.003 0.0448h-0.9391q0.0158 0.2137 0.124 0.3245t0.3377 0.1108q0.1293 0 0.2163-0.0211 0.0897-0.0237 0.1345-0.0448l0.0343 0.2058q-0.0449 0.0237-0.1583 0.0501-0.1108 0.0264-0.2532 0.0264-0.1794 0-0.3113-0.0528-0.1293-0.0554-0.2137-0.1504t-0.1266-0.2242q-0.0396-0.1319-0.0396-0.2876zm0.9418-0.1345q0.003-0.1662-0.0844-0.2717-0.0844-0.1082-0.2348-0.1082-0.0844 0-0.1504 0.0343-0.0633 0.0317-0.1082 0.0844-0.0448 0.0528-0.0712 0.1214-0.0237 0.0686-0.0316 0.1398z"/>
  <path d="m115.6 209.6q0-0.182 0.0528-0.3166 0.0528-0.1372 0.1398-0.2269 0.0871-0.0897 0.2005-0.1345t0.2321-0.0448q0.277 0 0.4247 0.1741 0.1477 0.1715 0.1477 0.525 0 0.0158 0 0.0422 0 0.0237-0.003 0.0448h-0.9391q0.0158 0.2137 0.124 0.3245t0.3377 0.1108q0.1293 0 0.2163-0.0211 0.0897-0.0237 0.1345-0.0448l0.0343 0.2058q-0.0448 0.0237-0.1583 0.0501-0.1108 0.0264-0.2532 0.0264-0.1794 0-0.3113-0.0528-0.1293-0.0554-0.2137-0.1504t-0.1266-0.2242q-0.0396-0.1319-0.0396-0.2876zm0.9418-0.1345q0.003-0.1662-0.0844-0.2717-0.0844-0.1082-0.2348-0.1082-0.0844 0-0.1504 0.0343-0.0633 0.0317-0.1082 0.0844-0.0448 0.0528-0.0712 0.1214-0.0237 0.0686-0.0316 0.1398z"/>
  <path d="m117.7 208.9q0.0317 0 0.0712 0.005 0.0422 0.003 0.0818 0.0106 0.0396 0.005 0.0712 0.0132 0.0343 0.005 0.0501 0.0105l-0.0422 0.2137q-0.029-0.0106-0.0976-0.0237-0.0659-0.0158-0.1715-0.0158-0.0686 0-0.1372 0.0158-0.066 0.0132-0.0871 0.0185v1.153h-0.2453v-1.314q0.087-0.0317 0.2163-0.058 0.1293-0.029 0.2902-0.029z"/>
  <path d="m120 210.3q-0.0448-0.1187-0.0844-0.2322-0.0396-0.1161-0.0818-0.2348h-0.8283l-0.1662 0.4669h-0.2664q0.1055-0.2902 0.1978-0.5355 0.0923-0.248 0.1794-0.4696 0.0897-0.2216 0.1767-0.4221 0.0871-0.2031 0.182-0.401h0.2348q0.095 0.1978 0.182 0.401 0.087 0.2005 0.1741 0.4221 0.0897 0.2216 0.182 0.4696 0.0923 0.2453 0.1978 0.5355zm-0.2401-0.678q-0.0844-0.2295-0.1688-0.4432-0.0818-0.2163-0.1715-0.4142-0.0923 0.1978-0.1768 0.4142-0.0818 0.2137-0.1636 0.4432z"/>
  <path d="m121.5 209.6q0-0.24-0.1187-0.3693t-0.3166-0.1293q-0.1108 0-0.1741 0.008-0.0607 0.008-0.0976 0.0185v0.8653q0.0448 0.0369 0.1293 0.0712 0.0844 0.0343 0.1847 0.0343 0.1055 0 0.1794-0.0369 0.0765-0.0396 0.124-0.1055 0.0475-0.0686 0.0686-0.1583 0.0211-0.0923 0.0211-0.1978zm0.2559 0q0 0.1556-0.0422 0.2876-0.0396 0.1319-0.1187 0.2269t-0.1952 0.1477q-0.1134 0.0528-0.2612 0.0528-0.1187 0-0.211-0.0316-0.0897-0.0317-0.1345-0.0607v0.5487h-0.2453v-1.818q0.087-0.0211 0.2163-0.0448 0.1319-0.0264 0.3034-0.0264 0.1583 0 0.2849 0.0501t0.2163 0.1424 0.1372 0.2269q0.0501 0.1319 0.0501 0.2981z"/>
  <path d="m122.9 209.6q0-0.24-0.1187-0.3693t-0.3166-0.1293q-0.1108 0-0.1741 0.008-0.0607 0.008-0.0976 0.0185v0.8653q0.0448 0.0369 0.1293 0.0712 0.0844 0.0343 0.1847 0.0343 0.1055 0 0.1794-0.0369 0.0765-0.0396 0.124-0.1055 0.0475-0.0686 0.0686-0.1583 0.0211-0.0923 0.0211-0.1978zm0.2559 0q0 0.1556-0.0422 0.2876-0.0396 0.1319-0.1187 0.2269t-0.1952 0.1477q-0.1134 0.0528-0.2612 0.0528-0.1187 0-0.211-0.0316-0.0897-0.0317-0.1345-0.0607v0.5487h-0.2453v-1.818q0.0871-0.0211 0.2163-0.0448 0.1319-0.0264 0.3034-0.0264 0.1583 0 0.2849 0.0501t0.2163 0.1424 0.1372 0.2269q0.0501 0.1319 0.0501 0.2981z"/>
  <path d="m113.1 212.6q0 0.3377 0.0976 0.6252t0.2875 0.5329l-0.1741 0.1187q-0.2058-0.2506-0.3324-0.5751-0.124-0.3271-0.124-0.7017t0.124-0.6991q0.1266-0.3271 0.3324-0.5777l0.1741 0.1187q-0.1899 0.2453-0.2875 0.5329t-0.0976 0.6252z"/>
  <path d="m114.2 213.2q0.401 0 0.401-0.2744 0-0.0844-0.0369-0.1424-0.0343-0.0607-0.095-0.1029-0.0607-0.0448-0.1398-0.0765-0.0765-0.0316-0.1636-0.0633-0.1002-0.0343-0.1899-0.0765-0.0897-0.0449-0.1556-0.1029-0.066-0.0607-0.1055-0.1425-0.0369-0.0818-0.0369-0.1978 0-0.24 0.1636-0.3746 0.1636-0.1345 0.4511-0.1345 0.1662 0 0.3007 0.0369 0.1372 0.0343 0.2005 0.0765l-0.0818 0.2084q-0.0554-0.0343-0.1662-0.066-0.1082-0.0343-0.2532-0.0343-0.0739 0-0.1372 0.0158t-0.1108 0.0475-0.0765 0.0818q-0.0264 0.0475-0.0264 0.1134 0 0.0739 0.029 0.124t0.0818 0.0897q0.0528 0.0369 0.1214 0.0686 0.0712 0.0317 0.1556 0.0633 0.1187 0.0475 0.2163 0.095 0.1002 0.0475 0.1715 0.1134 0.0739 0.066 0.1134 0.1583 0.0396 0.0897 0.0396 0.219 0 0.2401-0.1768 0.3693-0.1741 0.1293-0.4933 0.1293-0.1082 0-0.2005-0.0158-0.0897-0.0132-0.1609-0.0317-0.0712-0.0211-0.124-0.0422-0.0501-0.0237-0.0791-0.0396l0.0765-0.211q0.0607 0.0343 0.1847 0.0765t0.3034 0.0422z"/>
  <path d="m116.8 212.7q0 0.1636-0.0475 0.2955t-0.1345 0.2269q-0.0844 0.095-0.2031 0.1477-0.1187 0.0501-0.2585 0.0501t-0.2585-0.0501q-0.1187-0.0528-0.2058-0.1477-0.0844-0.095-0.1319-0.2269t-0.0475-0.2955q0-0.1609 0.0475-0.2928 0.0475-0.1345 0.1319-0.2295 0.0871-0.095 0.2058-0.1451 0.1187-0.0528 0.2585-0.0528t0.2585 0.0528q0.1187 0.0501 0.2031 0.1451 0.0871 0.095 0.1345 0.2295 0.0475 0.1319 0.0475 0.2928zm-0.2559 0q0-0.2321-0.1055-0.3667-0.1029-0.1372-0.2823-0.1372t-0.2849 0.1372q-0.1029 0.1345-0.1029 0.3667t0.1029 0.3693q0.1055 0.1345 0.2849 0.1345t0.2823-0.1345q0.1055-0.1372 0.1055-0.3693z"/>
  <path d="m118.1 213.3q-0.0844 0.0211-0.2242 0.0448-0.1372 0.0237-0.3192 0.0237-0.1583 0-0.2664-0.0448-0.1082-0.0475-0.1741-0.1319-0.066-0.0844-0.095-0.1978-0.029-0.1161-0.029-0.2559v-0.7703h0.2453v0.7175q0 0.2506 0.0791 0.3588t0.2664 0.1082q0.0396 0 0.0818-0.003t0.0791-0.005q0.0369-0.005 0.066-0.008 0.0317-0.005 0.0448-0.0106v-1.158h0.2453z"/>
  <path d="m119 211.9q0.0317 0 0.0712 0.005 0.0422 0.003 0.0818 0.0105 0.0396 0.005 0.0712 0.0132 0.0343 0.005 0.0501 0.0105l-0.0422 0.2137q-0.029-0.0105-0.0976-0.0237-0.066-0.0158-0.1715-0.0158-0.0686 0-0.1372 0.0158-0.066 0.0132-0.0871 0.0185v1.153h-0.2453v-1.314q0.087-0.0317 0.2163-0.058 0.1293-0.029 0.2902-0.029z"/>
  <path d="m120 213.4q-0.1662 0-0.2928-0.0528-0.124-0.0528-0.211-0.1477-0.0844-0.095-0.1266-0.2242-0.0422-0.1319-0.0422-0.2902t0.0449-0.2902q0.0475-0.1319 0.1319-0.2269 0.0844-0.0976 0.2058-0.1504 0.124-0.0554 0.2744-0.0554 0.0923 0 0.1847 0.0158 0.0923 0.0158 0.1768 0.0501l-0.0554 0.2084q-0.0554-0.0264-0.1293-0.0422-0.0712-0.0158-0.153-0.0158-0.2058 0-0.3166 0.1293-0.1082 0.1293-0.1082 0.3772 0 0.1108 0.0237 0.2031 0.0264 0.0923 0.0791 0.1583 0.0554 0.066 0.1398 0.1029 0.0844 0.0343 0.2058 0.0343 0.0976 0 0.1767-0.0185t0.124-0.0396l0.0343 0.2058q-0.0211 0.0132-0.0607 0.0264-0.0396 0.0105-0.0897 0.0185-0.0501 0.0105-0.1082 0.0158-0.0554 0.008-0.1082 0.008z"/>
  <path d="m120.6 212.7q0-0.182 0.0528-0.3166 0.0528-0.1372 0.1398-0.2269 0.0871-0.0897 0.2005-0.1345t0.2321-0.0448q0.277 0 0.4247 0.1741 0.1477 0.1715 0.1477 0.525 0 0.0158 0 0.0422 0 0.0237-0.003 0.0448h-0.9391q0.0158 0.2137 0.124 0.3245t0.3377 0.1108q0.1293 0 0.2163-0.0211 0.0897-0.0237 0.1345-0.0448l0.0343 0.2058q-0.0448 0.0237-0.1583 0.0501-0.1108 0.0264-0.2532 0.0264-0.1794 0-0.3113-0.0528-0.1293-0.0554-0.2137-0.1504t-0.1266-0.2242q-0.0396-0.1319-0.0396-0.2875zm0.9418-0.1345q0.003-0.1662-0.0844-0.2717-0.0844-0.1082-0.2348-0.1082-0.0844 0-0.1504 0.0343-0.0633 0.0317-0.1082 0.0844-0.0448 0.0528-0.0712 0.1214-0.0237 0.0686-0.0316 0.1398z"/>
  <path d="m122.3 212.6q0-0.3377-0.0976-0.6252t-0.2875-0.5329l0.1741-0.1187q0.2058 0.2506 0.3298 0.5777 0.1266 0.3245 0.1266 0.6991t-0.1266 0.7017q-0.124 0.3245-0.3298 0.5751l-0.1741-0.1187q0.1899-0.2453 0.2875-0.5329t0.0976-0.6252z"/>
  <path d="m70.06 197q0.04221 0.0528 0.1055 0.1398 0.06595 0.0844 0.1345 0.1899 0.06859 0.1029 0.1345 0.2163 0.06859 0.1134 0.1161 0.219h-0.2796q-0.05276-0.1002-0.1161-0.2031-0.06067-0.1029-0.124-0.1952-0.06331-0.095-0.1266-0.1767-0.06067-0.0818-0.1108-0.1425-0.03429 0.003-0.07123 0.003-0.03429 0-0.07123 0h-0.23v0.7149h-0.2559v-1.802q0.1082-0.0264 0.2401-0.0343 0.1345-0.0105 0.2453-0.0105 0.3851 0 0.5856 0.1451 0.2031 0.1451 0.2031 0.4326 0 0.182-0.09761 0.3113-0.09497 0.1293-0.2823 0.1926zm-0.3878-0.8574q-0.1636 0-0.2506 0.008v0.6885h0.182q0.1319 0 0.2374-0.0132t0.1767-0.0501q0.07386-0.0369 0.1134-0.1029 0.03957-0.0686 0.03957-0.1794 0-0.1029-0.03957-0.1715t-0.1082-0.1082q-0.06595-0.0396-0.1583-0.0554-0.08969-0.0158-0.1926-0.0158z"/>
  <path d="m70.98 197q0-0.182 0.05276-0.3166 0.05276-0.1372 0.1398-0.2269 0.08705-0.0897 0.2005-0.1345t0.2321-0.0448q0.277 0 0.4247 0.1741 0.1477 0.1715 0.1477 0.525 0 0.0158 0 0.0422 0 0.0238-0.0026 0.0448h-0.9391q0.01583 0.2137 0.124 0.3245t0.3377 0.1108q0.1293 0 0.2163-0.0211 0.08969-0.0238 0.1345-0.0448l0.03429 0.2058q-0.04485 0.0238-0.1583 0.0501-0.1108 0.0264-0.2532 0.0264-0.1794 0-0.3113-0.0528-0.1293-0.0554-0.2137-0.1504-0.08442-0.095-0.1266-0.2242-0.03957-0.1319-0.03957-0.2875zm0.9418-0.1345q0.0026-0.1662-0.08442-0.2717-0.08442-0.1082-0.2348-0.1082-0.08442 0-0.1504 0.0343-0.06331 0.0317-0.1082 0.0844-0.04485 0.0528-0.07123 0.1214-0.02374 0.0686-0.03166 0.1398z"/>
  <path d="m72.7 197q0 0.1055 0.0211 0.1978 0.0211 0.0897 0.06859 0.1583 0.04748 0.066 0.1213 0.1055 0.0765 0.0369 0.182 0.0369 0.1002 0 0.1847-0.0343 0.08442-0.0343 0.1293-0.0712v-0.8653q-0.03693-0.0106-0.1002-0.0185-0.06067-0.008-0.1715-0.008-0.1978 0-0.3166 0.1293-0.1187 0.1293-0.1187 0.3693zm-0.2559 0q0-0.1662 0.04748-0.2981 0.05012-0.1345 0.1398-0.2269 0.08969-0.0923 0.2163-0.1425 0.1266-0.0501 0.2849-0.0501 0.1715 0 0.3007 0.0264 0.1319 0.0237 0.219 0.0448v1.818h-0.2453v-0.5487q-0.04485 0.029-0.1372 0.0607-0.08969 0.0317-0.2084 0.0317-0.1477 0-0.2638-0.0528-0.1134-0.0528-0.1926-0.1477-0.07914-0.095-0.1213-0.2269-0.03957-0.1319-0.03957-0.2875z"/>
  <path d="m75.08 197.7q-0.08442 0.0211-0.2242 0.0448-0.1372 0.0237-0.3192 0.0237-0.1583 0-0.2664-0.0448-0.1082-0.0475-0.1741-0.1319-0.06595-0.0844-0.09497-0.1978-0.02902-0.1161-0.02902-0.2559v-0.7703h0.2453v0.7175q0 0.2506 0.07914 0.3588t0.2664 0.1082q0.03957 0 0.08178-0.003t0.07914-0.005q0.03693-0.005 0.06595-0.008 0.03166-0.005 0.04485-0.0106v-1.158h0.2453z"/>
  <path d="m75.38 197q0-0.182 0.05276-0.3166 0.05276-0.1372 0.1398-0.2269 0.08705-0.0897 0.2005-0.1345t0.2321-0.0448q0.277 0 0.4247 0.1741 0.1477 0.1715 0.1477 0.525 0 0.0158 0 0.0422 0 0.0238-0.0026 0.0448h-0.9391q0.01583 0.2137 0.124 0.3245t0.3377 0.1108q0.1293 0 0.2163-0.0211 0.08969-0.0238 0.1345-0.0448l0.03429 0.2058q-0.04485 0.0238-0.1583 0.0501-0.1108 0.0264-0.2532 0.0264-0.1794 0-0.3113-0.0528-0.1293-0.0554-0.2137-0.1504-0.08442-0.095-0.1266-0.2242-0.03957-0.1319-0.03957-0.2875zm0.9418-0.1345q0.0026-0.1662-0.08442-0.2717-0.08442-0.1082-0.2348-0.1082-0.08442 0-0.1504 0.0343-0.06331 0.0317-0.1082 0.0844-0.04485 0.0528-0.07123 0.1214-0.02374 0.0686-0.03166 0.1398z"/>
  <path d="m77.24 197.5q0.1504 0 0.2216-0.0396 0.07386-0.0396 0.07386-0.1266 0-0.0897-0.07123-0.1424-0.07123-0.0528-0.2348-0.1187-0.07914-0.0317-0.153-0.0633-0.07123-0.0343-0.124-0.0791-0.05276-0.0449-0.08442-0.1082t-0.03166-0.1556q0-0.182 0.1345-0.2876 0.1345-0.1082 0.3667-0.1082 0.05804 0 0.1161 0.008 0.05804 0.005 0.1082 0.0158 0.05012 0.008 0.08705 0.0185 0.03957 0.0106 0.06067 0.0185l-0.04485 0.211q-0.03957-0.0211-0.124-0.0422-0.08442-0.0237-0.2031-0.0237-0.1029 0-0.1794 0.0422-0.0765 0.0396-0.0765 0.1266 0 0.0448 0.01583 0.0791 0.01847 0.0343 0.05276 0.0633 0.03693 0.0264 0.08969 0.0501t0.1266 0.0501q0.09761 0.0369 0.1741 0.0739 0.0765 0.0343 0.1293 0.0818 0.0554 0.0475 0.08442 0.1161 0.02902 0.066 0.02902 0.1636 0 0.1899-0.1425 0.2875-0.1398 0.0976-0.401 0.0976-0.182 0-0.2849-0.0317-0.1029-0.029-0.1398-0.0448l0.04485-0.211q0.04221 0.0158 0.1345 0.0475 0.09233 0.0317 0.2453 0.0317z"/>
  <path d="m78.47 196.4h0.5197v0.2058h-0.5197v0.6331q0 0.1029 0.01583 0.1715 0.01583 0.066 0.04748 0.1055 0.03166 0.0369 0.07914 0.0528 0.04748 0.0158 0.1108 0.0158 0.1108 0 0.1767-0.0237 0.06859-0.0264 0.09497-0.0369l0.04748 0.2031q-0.03693 0.0185-0.1293 0.0448-0.09233 0.029-0.211 0.029-0.1398 0-0.2321-0.0343-0.08969-0.0369-0.1451-0.1082-0.0554-0.0712-0.07914-0.1741-0.0211-0.1055-0.0211-0.2427v-1.224l0.2453-0.0422z"/>
  <path d="m80.24 195.7q0.1082 0 0.1847 0.0158 0.07914 0.0158 0.1108 0.029l-0.04485 0.211q-0.03166-0.0158-0.08969-0.029-0.05804-0.0158-0.1425-0.0158-0.1715 0-0.2401 0.095-0.06859 0.0923-0.06859 0.2506v0.1187h0.5276v0.2058h-0.5276v1.166h-0.2453v-1.496q0-0.2638 0.1293-0.4062 0.1293-0.1451 0.4063-0.1451z"/>
  <path d="m81.65 197q0 0.1636-0.04748 0.2955t-0.1345 0.2269q-0.08442 0.095-0.2031 0.1477-0.1187 0.0501-0.2585 0.0501t-0.2585-0.0501q-0.1187-0.0528-0.2058-0.1477-0.08442-0.095-0.1319-0.2269t-0.04748-0.2955q0-0.1609 0.04748-0.2928 0.04748-0.1345 0.1319-0.2295 0.08705-0.095 0.2058-0.1451 0.1187-0.0528 0.2585-0.0528t0.2585 0.0528q0.1187 0.0501 0.2031 0.1451 0.08705 0.095 0.1345 0.2295 0.04748 0.1319 0.04748 0.2928zm-0.2559 0q0-0.2321-0.1055-0.3667-0.1029-0.1372-0.2823-0.1372t-0.2849 0.1372q-0.1029 0.1345-0.1029 0.3667 0 0.2321 0.1029 0.3693 0.1055 0.1345 0.2849 0.1345t0.2823-0.1345q0.1055-0.1372 0.1055-0.3693z"/>
  <path d="m82.41 196.3q0.03166 0 0.07123 0.005 0.04221 0.003 0.08178 0.0105 0.03957 0.005 0.07123 0.0132 0.03429 0.005 0.05012 0.0105l-0.04221 0.2137q-0.02902-0.0106-0.09761-0.0237-0.06595-0.0158-0.1715-0.0158-0.06859 0-0.1372 0.0158-0.06595 0.0132-0.08705 0.0185v1.153h-0.25v-1.314q0.08705-0.0317 0.2163-0.058 0.1293-0.029 0.2902-0.029z"/>
  <path d="m83.53 197.7v-1.828h1.103v0.219h-0.8468v0.5513h0.7518v0.2163h-0.7518v0.8415z"/>
  <path d="m85.37 197.7h-0.2453v-1.372h0.2453zm-0.124-1.62q-0.06595 0-0.1134-0.0422-0.04485-0.0449-0.04485-0.1187 0-0.0739 0.04485-0.1161 0.04748-0.0449 0.1134-0.0449 0.06595 0 0.1108 0.0449 0.04748 0.0422 0.04748 0.1161t-0.04748 0.1187q-0.04485 0.0422-0.1108 0.0422z"/>
  <path d="m86.12 197.8q-0.2269-0.005-0.3218-0.0976-0.09497-0.0923-0.09497-0.2875v-1.646l0.2453-0.0422v1.649q0 0.0607 0.01055 0.1002 0.01055 0.0396 0.03429 0.0633t0.06331 0.0369q0.03957 0.0105 0.09761 0.0185z"/>
  <path d="m86.22 197q0-0.182 0.05276-0.3166 0.05276-0.1372 0.1398-0.2269 0.08705-0.0897 0.2005-0.1345t0.2321-0.0448q0.277 0 0.4247 0.1741 0.1477 0.1715 0.1477 0.525 0 0.0158 0 0.0422 0 0.0238-0.0026 0.0448h-0.9391q0.01583 0.2137 0.124 0.3245t0.3377 0.1108q0.1293 0 0.2163-0.0211 0.08969-0.0238 0.1345-0.0448l0.03429 0.2058q-0.04485 0.0238-0.1583 0.0501-0.1108 0.0264-0.2532 0.0264-0.1794 0-0.3113-0.0528-0.1293-0.0554-0.2137-0.1504-0.08442-0.095-0.1266-0.2242-0.03957-0.1319-0.03957-0.2875zm0.9418-0.1345q0.0026-0.1662-0.08442-0.2717-0.08442-0.1082-0.2348-0.1082-0.08442 0-0.1504 0.0343-0.06331 0.0317-0.1082 0.0844-0.04485 0.0528-0.07123 0.1214-0.02374 0.0686-0.03166 0.1398z"/>
  <path d="m72.23 224.5h0.2559v1.828h-0.2559z"/>
  <path d="m72.95 225q0.08442-0.0211 0.2216-0.0448 0.1398-0.0237 0.3218-0.0237 0.1319 0 0.2216 0.0369 0.08969 0.0343 0.1504 0.1029 0.01847-0.0132 0.05804-0.0369t0.09761-0.0448q0.05804-0.0238 0.1293-0.0396 0.07123-0.0185 0.153-0.0185 0.1583 0 0.2585 0.0475 0.1002 0.0448 0.1556 0.1293 0.05804 0.0844 0.0765 0.2005 0.0211 0.1161 0.0211 0.2532v0.7703h-0.2453v-0.7175q0-0.1214-0.01319-0.2084-0.01055-0.0871-0.04485-0.1451-0.03166-0.058-0.08969-0.0844-0.0554-0.029-0.1451-0.029-0.124 0-0.2058 0.0343-0.07914 0.0317-0.1082 0.058 0.0211 0.0686 0.03166 0.1504 0.01055 0.0818 0.01055 0.1715v0.7703h-0.2453v-0.7175q0-0.1214-0.01319-0.2084-0.01319-0.0871-0.04748-0.1451-0.03166-0.058-0.08969-0.0844-0.0554-0.029-0.1425-0.029-0.03693 0-0.07914 0.003t-0.08178 0.008q-0.03693 0.003-0.06859 0.008t-0.04221 0.008v1.158h-0.2453z"/>
  <path d="m76.1 225.6q0-0.2401-0.1187-0.3693-0.1187-0.1293-0.3166-0.1293-0.1108 0-0.1741 0.008-0.06067 0.008-0.09761 0.0185v0.8653q0.04485 0.0369 0.1293 0.0712 0.08442 0.0343 0.1847 0.0343 0.1055 0 0.1794-0.0369 0.0765-0.0396 0.124-0.1055 0.04748-0.0686 0.06859-0.1583 0.0211-0.0923 0.0211-0.1978zm0.2559 0q0 0.1556-0.04221 0.2875-0.03957 0.1319-0.1187 0.2269-0.07914 0.095-0.1952 0.1477-0.1134 0.0528-0.2612 0.0528-0.1187 0-0.211-0.0317-0.08969-0.0317-0.1345-0.0607v0.5487h-0.2453v-1.818q0.08705-0.0211 0.2163-0.0449 0.1319-0.0264 0.3034-0.0264 0.1583 0 0.2849 0.0501t0.2163 0.1424q0.08969 0.0923 0.1372 0.2269 0.05012 0.1319 0.05012 0.2981z"/>
  <path d="m77.82 225.6q0 0.1636-0.04748 0.2954-0.04748 0.1319-0.1345 0.2269-0.08442 0.095-0.2031 0.1477-0.1187 0.0501-0.2585 0.0501t-0.2585-0.0501q-0.1187-0.0528-0.2058-0.1477-0.08442-0.095-0.1319-0.2269t-0.04748-0.2954q0-0.1609 0.04748-0.2928 0.04748-0.1345 0.1319-0.2295 0.08705-0.095 0.2058-0.1451 0.1187-0.0528 0.2585-0.0528t0.2585 0.0528q0.1187 0.0501 0.2031 0.1451 0.08705 0.095 0.1345 0.2295 0.04748 0.1319 0.04748 0.2928zm-0.2559 0q0-0.2322-0.1055-0.3667-0.1029-0.1372-0.2823-0.1372t-0.2849 0.1372q-0.1029 0.1345-0.1029 0.3667 0 0.2321 0.1029 0.3693 0.1055 0.1345 0.2849 0.1345t0.2823-0.1345q0.1055-0.1372 0.1055-0.3693z"/>
  <path d="m78.58 224.9q0.03166 0 0.07123 0.005 0.04221 0.003 0.08178 0.0105 0.03957 0.005 0.07123 0.0132 0.03429 0.005 0.05012 0.0105l-0.04221 0.2137q-0.02902-0.0105-0.09761-0.0237-0.06595-0.0158-0.1715-0.0158-0.06859 0-0.1372 0.0158-0.06595 0.0132-0.08705 0.0185v1.153h-0.2453v-1.314q0.08705-0.0317 0.2163-0.058 0.1293-0.029 0.2902-0.029z"/>
  <path d="m79.19 224.9h0.5197v0.2058h-0.52v0.6331q0 0.1029 0.01583 0.1715 0.01583 0.066 0.04748 0.1055 0.03166 0.0369 0.07914 0.0528 0.04748 0.0158 0.1108 0.0158 0.1108 0 0.1767-0.0237 0.06859-0.0264 0.09497-0.0369l0.04748 0.2031q-0.03693 0.0185-0.1293 0.0448-0.09233 0.029-0.211 0.029-0.1398 0-0.2321-0.0343-0.08969-0.0369-0.1451-0.1082-0.0554-0.0712-0.07914-0.1741-0.0211-0.1055-0.0211-0.2427v-1.224l0.2453-0.0422z"/>
  <path d="m80.44 226.3v-1.828h1.103v0.219h-0.8468v0.5513h0.7518v0.2163h-0.7518v0.8415z"/>
  <path d="m82.28 226.3h-0.2453v-1.372h0.2453zm-0.124-1.62q-0.06595 0-0.1134-0.0422-0.04485-0.0448-0.04485-0.1187t0.04485-0.1161q0.04748-0.0448 0.1134-0.0448 0.06595 0 0.1108 0.0448 0.04748 0.0422 0.04748 0.1161t-0.04748 0.1187q-0.04485 0.0422-0.1108 0.0422z"/>
  <path d="m83.03 226.3q-0.2269-0.005-0.3218-0.0976-0.09497-0.0923-0.09497-0.2875v-1.646l0.2453-0.0422v1.649q0 0.0607 0.01055 0.1002 0.01055 0.0396 0.03429 0.0633t0.06331 0.0369q0.03957 0.0105 0.09761 0.0185z"/>
  <path d="m83.13 225.6q0-0.182 0.05276-0.3166 0.05276-0.1372 0.1398-0.2269 0.08705-0.0897 0.2005-0.1345t0.2321-0.0448q0.277 0 0.4247 0.1741 0.1477 0.1715 0.1477 0.525 0 0.0158 0 0.0422 0 0.0237-0.0026 0.0449h-0.9391q0.01583 0.2137 0.124 0.3245t0.3377 0.1108q0.1293 0 0.2163-0.0211 0.08969-0.0237 0.1345-0.0448l0.03429 0.2058q-0.04485 0.0237-0.1583 0.0501-0.1108 0.0264-0.2532 0.0264-0.1794 0-0.3113-0.0528-0.1293-0.0554-0.2137-0.1504-0.08442-0.095-0.1266-0.2242-0.03957-0.1319-0.03957-0.2875zm0.9418-0.1345q0.0026-0.1662-0.08442-0.2717-0.08442-0.1082-0.2348-0.1082-0.08442 0-0.1504 0.0343-0.06331 0.0317-0.1082 0.0844-0.04485 0.0528-0.07123 0.1213-0.02374 0.0686-0.03166 0.1398z"/>
  <path d="m35.22 132.4q-0.02638-0.0633-0.07123-0.1609-0.04221-0.0976-0.09233-0.211t-0.1082-0.2321q-0.0554-0.1214-0.1055-0.2269-0.05012-0.1082-0.09497-0.1926-0.04221-0.0844-0.06859-0.1293-0.02902 0.3113-0.04748 0.6753-0.01847 0.3614-0.03166 0.7307h-0.2506q0.01055-0.2374 0.02374-0.4775 0.01319-0.2427 0.02902-0.4748 0.01847-0.2348 0.03693-0.4564 0.0211-0.2216 0.04485-0.4194h0.2242q0.07123 0.1161 0.153 0.2744 0.08178 0.1583 0.1636 0.3324 0.08178 0.1715 0.1583 0.3456 0.0765 0.1715 0.1398 0.3139 0.06331-0.1424 0.1398-0.3139 0.0765-0.1741 0.1583-0.3456 0.08178-0.1741 0.1636-0.3324 0.08178-0.1583 0.153-0.2744h0.2242q0.08969 0.8837 0.1345 1.828h-0.2506q-0.01319-0.3693-0.03166-0.7307-0.01847-0.364-0.04748-0.6753-0.02638 0.0448-0.07123 0.1293-0.04221 0.0844-0.09233 0.1926-0.05012 0.1055-0.1082 0.2269-0.0554 0.1187-0.1055 0.2321-0.05012 0.1134-0.09497 0.211-0.04221 0.0976-0.06859 0.1609z"/>
  <path d="m36.42 132.9q0.02902 0.0132 0.07386 0.0238 0.04748 0.0132 0.09233 0.0132 0.1451 0 0.2269-0.066 0.08178-0.0633 0.1477-0.2084-0.1662-0.3166-0.3113-0.67-0.1425-0.3561-0.2374-0.7202h0.2638q0.02902 0.1187 0.06859 0.2559 0.04221 0.1372 0.09233 0.2823t0.1082 0.2902q0.05804 0.1451 0.1213 0.2796 0.1002-0.277 0.1741-0.5487 0.07386-0.2717 0.1398-0.5592h0.2532q-0.09497 0.3878-0.211 0.7466-0.1161 0.3561-0.2506 0.6674-0.05276 0.1187-0.1108 0.2031-0.0554 0.0871-0.124 0.1424-0.06859 0.0554-0.1556 0.0818-0.08442 0.0264-0.1926 0.0264-0.02902 0-0.06067-0.005-0.03166-0.003-0.06331-0.0106-0.02902-0.005-0.0554-0.0132-0.02374-0.008-0.03429-0.0132z"/>
  <path d="m39.87 132.7q-0.04485-0.1187-0.08442-0.2322-0.03957-0.1161-0.08178-0.2348h-0.8283l-0.1662 0.4669h-0.2664q0.1055-0.2902 0.1978-0.5355 0.09233-0.248 0.1794-0.4696 0.08969-0.2216 0.1767-0.4221 0.08705-0.2031 0.182-0.401h0.2348q0.09497 0.1978 0.182 0.401 0.08705 0.2005 0.1741 0.4221 0.08969 0.2216 0.182 0.4696 0.09233 0.2453 0.1978 0.5355zm-0.2401-0.678q-0.08442-0.2295-0.1688-0.4432-0.08178-0.2163-0.1715-0.4142-0.09233 0.1978-0.1767 0.4142-0.08178 0.2137-0.1636 0.4432z"/>
  <path d="m41.34 132q0-0.2401-0.1187-0.3693-0.1187-0.1293-0.3166-0.1293-0.1108 0-0.1741 0.008-0.06067 0.008-0.09761 0.0185v0.8653q0.04485 0.0369 0.1293 0.0712 0.08442 0.0343 0.1847 0.0343 0.1055 0 0.1794-0.0369 0.0765-0.0396 0.124-0.1055 0.04748-0.0686 0.06859-0.1583 0.0211-0.0923 0.0211-0.1978zm0.2559 0q0 0.1556-0.04221 0.2875-0.03957 0.1319-0.1187 0.2269-0.07914 0.095-0.1952 0.1477-0.1134 0.0528-0.2612 0.0528-0.1187 0-0.211-0.0316-0.08969-0.0317-0.1345-0.0607v0.5487h-0.2453v-1.818q0.08705-0.0211 0.2163-0.0448 0.1319-0.0264 0.3034-0.0264 0.1583 0 0.2849 0.0501t0.2163 0.1424q0.08969 0.0923 0.1372 0.2269 0.05012 0.1319 0.05012 0.2981z"/>
  <path d="m42.81 132q0-0.2401-0.1187-0.3693-0.1187-0.1293-0.3166-0.1293-0.1108 0-0.1741 0.008-0.06067 0.008-0.09761 0.0185v0.8653q0.04485 0.0369 0.1293 0.0712 0.08442 0.0343 0.1847 0.0343 0.1055 0 0.1794-0.0369 0.0765-0.0396 0.124-0.1055 0.04748-0.0686 0.06859-0.1583 0.0211-0.0923 0.0211-0.1978zm0.2559 0q0 0.1556-0.04221 0.2875-0.03957 0.1319-0.1187 0.2269-0.07914 0.095-0.1952 0.1477-0.1134 0.0528-0.2612 0.0528-0.1187 0-0.211-0.0316-0.08969-0.0317-0.1345-0.0607v0.5487h-0.2453v-1.818q0.08705-0.0211 0.2163-0.0448 0.1319-0.0264 0.3034-0.0264 0.1583 0 0.2849 0.0501t0.2163 0.1424q0.08969 0.0923 0.1372 0.2269 0.05012 0.1319 0.05012 0.2981z"/>
  <path d="m113 129.3q0.3852 0 0.5909 0.1477 0.2084 0.1451 0.2084 0.4353 0 0.1583-0.058 0.2717-0.0554 0.1108-0.1636 0.182-0.1055 0.0686-0.2585 0.1002-0.153 0.0317-0.3456 0.0317h-0.2031v0.678h-0.2559v-1.802q0.1082-0.0264 0.2401-0.0343 0.1345-0.0105 0.2453-0.0105zm0.0211 0.2242q-0.1636 0-0.2506 0.008v0.7175h0.1926q0.1319 0 0.2374-0.0158 0.1055-0.0185 0.1768-0.058 0.0739-0.0422 0.1134-0.1134 0.0396-0.0712 0.0396-0.182 0-0.1055-0.0422-0.1741-0.0396-0.0686-0.1108-0.1082-0.0686-0.0422-0.1609-0.058t-0.1952-0.0158z"/>
  <path d="m114.1 130.5q0-0.182 0.0528-0.3166 0.0528-0.1372 0.1398-0.2269 0.0871-0.0897 0.2005-0.1345t0.2321-0.0448q0.277 0 0.4247 0.1741 0.1477 0.1715 0.1477 0.525 0 0.0158 0 0.0422 0 0.0237-0.003 0.0448h-0.9391q0.0158 0.2137 0.124 0.3245t0.3377 0.1108q0.1293 0 0.2163-0.0211 0.0897-0.0237 0.1345-0.0448l0.0343 0.2058q-0.0449 0.0237-0.1583 0.0501-0.1108 0.0264-0.2532 0.0264-0.1794 0-0.3113-0.0528-0.1293-0.0554-0.2137-0.1504t-0.1266-0.2242q-0.0396-0.1319-0.0396-0.2875zm0.9418-0.1345q0.003-0.1662-0.0844-0.2717-0.0844-0.1082-0.2348-0.1082-0.0844 0-0.1504 0.0343-0.0633 0.0317-0.1082 0.0844-0.0448 0.0528-0.0712 0.1214-0.0237 0.0686-0.0316 0.1398z"/>
  <path d="m115.6 130.5q0-0.182 0.0528-0.3166 0.0528-0.1372 0.1398-0.2269 0.0871-0.0897 0.2005-0.1345t0.2321-0.0448q0.277 0 0.4247 0.1741 0.1477 0.1715 0.1477 0.525 0 0.0158 0 0.0422 0 0.0237-0.003 0.0448h-0.9391q0.0158 0.2137 0.124 0.3245t0.3377 0.1108q0.1293 0 0.2163-0.0211 0.0897-0.0237 0.1345-0.0448l0.0343 0.2058q-0.0448 0.0237-0.1583 0.0501-0.1108 0.0264-0.2532 0.0264-0.1794 0-0.3113-0.0528-0.1293-0.0554-0.2137-0.1504t-0.1266-0.2242q-0.0396-0.1319-0.0396-0.2875zm0.9418-0.1345q0.003-0.1662-0.0844-0.2717-0.0844-0.1082-0.2348-0.1082-0.0844 0-0.1504 0.0343-0.0633 0.0317-0.1082 0.0844-0.0448 0.0528-0.0712 0.1214-0.0237 0.0686-0.0316 0.1398z"/>
  <path d="m117.7 129.7q0.0317 0 0.0712 0.005 0.0422 0.003 0.0818 0.0105 0.0396 0.005 0.0712 0.0132 0.0343 0.005 0.0501 0.0105l-0.0422 0.2137q-0.029-0.0105-0.0976-0.0237-0.0659-0.0158-0.1715-0.0158-0.0686 0-0.1372 0.0158-0.066 0.0132-0.0871 0.0185v1.153h-0.2453v-1.314q0.087-0.0317 0.2163-0.058 0.1293-0.029 0.2902-0.029z"/>
  <path d="m120 131.1q-0.0448-0.1187-0.0844-0.2321-0.0396-0.1161-0.0818-0.2348h-0.8283l-0.1662 0.4669h-0.2664q0.1055-0.2902 0.1978-0.5355 0.0923-0.248 0.1794-0.4696 0.0897-0.2216 0.1767-0.4221 0.0871-0.2031 0.182-0.401h0.2348q0.095 0.1978 0.182 0.401 0.087 0.2005 0.1741 0.4221 0.0897 0.2216 0.182 0.4696 0.0923 0.2453 0.1978 0.5355zm-0.2401-0.678q-0.0844-0.2295-0.1688-0.4432-0.0818-0.2163-0.1715-0.4142-0.0923 0.1978-0.1768 0.4142-0.0818 0.2137-0.1636 0.4432z"/>
  <path d="m121.5 130.5q0-0.2401-0.1187-0.3693-0.1187-0.1293-0.3166-0.1293-0.1108 0-0.1741 0.008-0.0607 0.008-0.0976 0.0185v0.8653q0.0448 0.0369 0.1293 0.0712 0.0844 0.0343 0.1847 0.0343 0.1055 0 0.1794-0.0369 0.0765-0.0396 0.124-0.1055 0.0475-0.0686 0.0686-0.1583 0.0211-0.0923 0.0211-0.1978zm0.2559 0q0 0.1556-0.0422 0.2875-0.0396 0.1319-0.1187 0.2269t-0.1952 0.1477q-0.1134 0.0528-0.2612 0.0528-0.1187 0-0.211-0.0317-0.0897-0.0316-0.1345-0.0607v0.5487h-0.2453v-1.818q0.087-0.0211 0.2163-0.0449 0.1319-0.0264 0.3034-0.0264 0.1583 0 0.2849 0.0501t0.2163 0.1424 0.1372 0.2269q0.0501 0.1319 0.0501 0.2981z"/>
  <path d="m122.9 130.5q0-0.2401-0.1187-0.3693-0.1187-0.1293-0.3166-0.1293-0.1108 0-0.1741 0.008-0.0607 0.008-0.0976 0.0185v0.8653q0.0448 0.0369 0.1293 0.0712 0.0844 0.0343 0.1847 0.0343 0.1055 0 0.1794-0.0369 0.0765-0.0396 0.124-0.1055 0.0475-0.0686 0.0686-0.1583 0.0211-0.0923 0.0211-0.1978zm0.2559 0q0 0.1556-0.0422 0.2875-0.0396 0.1319-0.1187 0.2269t-0.1952 0.1477q-0.1134 0.0528-0.2612 0.0528-0.1187 0-0.211-0.0317-0.0897-0.0316-0.1345-0.0607v0.5487h-0.2453v-1.818q0.0871-0.0211 0.2163-0.0449 0.1319-0.0264 0.3034-0.0264 0.1583 0 0.2849 0.0501t0.2163 0.1424 0.1372 0.2269q0.0501 0.1319 0.0501 0.2981z"/>
  <path d="m113.8 133.4q0 0.3377 0.0976 0.6252t0.2875 0.5329l-0.1741 0.1187q-0.2058-0.2506-0.3324-0.5751-0.124-0.3271-0.124-0.7017t0.124-0.6991q0.1266-0.3271 0.3324-0.5777l0.1741 0.1187q-0.1899 0.2453-0.2875 0.5329-0.0976 0.2875-0.0976 0.6252z"/>
  <path d="m114.9 134q0.401 0 0.401-0.2744 0-0.0844-0.0369-0.1424-0.0343-0.0607-0.095-0.1029-0.0607-0.0448-0.1398-0.0765-0.0765-0.0317-0.1636-0.0633-0.1002-0.0343-0.1899-0.0765-0.0897-0.0448-0.1556-0.1029-0.0659-0.0607-0.1055-0.1424-0.0369-0.0818-0.0369-0.1978 0-0.2401 0.1636-0.3746t0.4511-0.1345q0.1662 0 0.3007 0.0369 0.1372 0.0343 0.2005 0.0765l-0.0818 0.2084q-0.0554-0.0343-0.1662-0.0659-0.1082-0.0343-0.2532-0.0343-0.0739 0-0.1372 0.0158t-0.1108 0.0475-0.0765 0.0818q-0.0264 0.0475-0.0264 0.1134 0 0.0739 0.029 0.124t0.0818 0.0897q0.0528 0.0369 0.1214 0.0686 0.0712 0.0317 0.1556 0.0633 0.1187 0.0475 0.2163 0.095 0.1002 0.0475 0.1715 0.1134 0.0739 0.0659 0.1134 0.1583 0.0396 0.0897 0.0396 0.219 0 0.24-0.1767 0.3693-0.1741 0.1293-0.4933 0.1293-0.1082 0-0.2005-0.0158-0.0897-0.0132-0.1609-0.0317-0.0712-0.0211-0.124-0.0422-0.0501-0.0238-0.0791-0.0396l0.0765-0.211q0.0607 0.0343 0.1847 0.0765t0.3034 0.0422z"/>
  <path d="m116.2 134.2v-2.005l0.2453-0.0422v0.7017q0.0686-0.0264 0.1451-0.0396 0.0791-0.0158 0.1556-0.0158 0.1636 0 0.2717 0.0475 0.1082 0.0448 0.1715 0.1293 0.066 0.0818 0.0923 0.1978 0.0264 0.1161 0.0264 0.2559v0.7703h-0.2453v-0.7175q0-0.1266-0.0185-0.2163-0.0158-0.0897-0.0554-0.1451t-0.1055-0.0791q-0.066-0.0264-0.1636-0.0264-0.0396 0-0.0818 0.005t-0.0818 0.0132q-0.0369 0.005-0.0686 0.0132-0.029 0.008-0.0422 0.0132v1.14z"/>
  <path d="m118.1 134q0.0871 0 0.153-0.003 0.0686-0.005 0.1134-0.0158v-0.4089q-0.0264-0.0132-0.0871-0.0211-0.058-0.0105-0.1424-0.0105-0.0554 0-0.1187 0.008-0.0607 0.008-0.1134 0.0343-0.0501 0.0237-0.0844 0.0686-0.0343 0.0422-0.0343 0.1134 0 0.1319 0.0844 0.1847 0.0844 0.0501 0.2295 0.0501zm-0.0211-1.229q0.1477 0 0.248 0.0396 0.1029 0.0369 0.1636 0.1082 0.0633 0.0686 0.0897 0.1662 0.0264 0.095 0.0264 0.211v0.8574q-0.0317 0.005-0.0897 0.0158-0.0554 0.008-0.1266 0.0158-0.0712 0.008-0.1556 0.0132-0.0818 0.008-0.1636 0.008-0.1161 0-0.2137-0.0238-0.0976-0.0237-0.1688-0.0739-0.0712-0.0528-0.1108-0.1372t-0.0396-0.2031q0-0.1134 0.0448-0.1952 0.0475-0.0818 0.1266-0.1319t0.1847-0.0739q0.1055-0.0237 0.2216-0.0237 0.0369 0 0.0765 0.005 0.0396 0.003 0.0739 0.0105 0.0369 0.005 0.0633 0.0105 0.0264 0.005 0.0369 0.008v-0.0686q0-0.0607-0.0132-0.1187-0.0132-0.0607-0.0475-0.1055-0.0343-0.0475-0.095-0.0739-0.058-0.029-0.153-0.029-0.1214 0-0.2137 0.0185-0.0897 0.0158-0.1345 0.0343l-0.029-0.2031q0.0475-0.0211 0.1583-0.0396 0.1108-0.0211 0.2401-0.0211z"/>
  <path d="m119.6 132.8q0.0316 0 0.0712 0.005 0.0422 0.003 0.0818 0.0105 0.0396 0.005 0.0712 0.0132 0.0343 0.005 0.0501 0.0105l-0.0422 0.2137q-0.029-0.0105-0.0976-0.0237-0.066-0.0158-0.1715-0.0158-0.0686 0-0.1372 0.0158-0.066 0.0132-0.0871 0.0185v1.153h-0.2453v-1.314q0.0871-0.0316 0.2163-0.058 0.1293-0.029 0.2902-0.029z"/>
  <path d="m119.9 133.5q0-0.182 0.0528-0.3166 0.0528-0.1372 0.1398-0.2269 0.0871-0.0897 0.2005-0.1345t0.2321-0.0448q0.277 0 0.4247 0.1741 0.1477 0.1715 0.1477 0.525 0 0.0158 0 0.0422 0 0.0237-0.003 0.0448h-0.9391q0.0158 0.2137 0.124 0.3245t0.3377 0.1108q0.1293 0 0.2163-0.0211 0.0897-0.0237 0.1345-0.0448l0.0343 0.2058q-0.0448 0.0237-0.1583 0.0501-0.1108 0.0264-0.2532 0.0264-0.1794 0-0.3113-0.0528-0.1293-0.0554-0.2137-0.1504t-0.1266-0.2242q-0.0396-0.1319-0.0396-0.2875zm0.9418-0.1345q0.003-0.1662-0.0844-0.2717-0.0844-0.1082-0.2348-0.1082-0.0844 0-0.1504 0.0343-0.0633 0.0317-0.1082 0.0844-0.0448 0.0528-0.0712 0.1213-0.0238 0.0686-0.0317 0.1398z"/>
  <path d="m121.7 133.4q0-0.3377-0.0976-0.6252t-0.2875-0.5329l0.1741-0.1187q0.2058 0.2506 0.3298 0.5777 0.1266 0.3245 0.1266 0.6991t-0.1266 0.7017q-0.124 0.3245-0.3298 0.5751l-0.1741-0.1187q0.1899-0.2453 0.2875-0.5329 0.0976-0.2875 0.0976-0.6252z"/>
  <path d="m72.24 118.6v-1.828h1.116v0.219h-0.86v0.5434h0.765v0.2137h-0.765v0.6331h0.9259v0.219z"/>
  <path d="m74.8 118.6q-0.02902-0.058-0.07123-0.1293-0.04221-0.0712-0.09233-0.1451-0.05012-0.0765-0.1029-0.1504-0.05276-0.0739-0.1029-0.1398-0.05012 0.066-0.1029 0.1424-0.05276 0.0739-0.1029 0.1504-0.04748 0.0739-0.08969 0.1451t-0.07123 0.1266h-0.2532q0.09233-0.1794 0.219-0.364 0.1293-0.1873 0.2559-0.3561l-0.4537-0.6516h0.277l0.3271 0.4801 0.3298-0.4801h0.2612l-0.4432 0.6358q0.1266 0.1715 0.2585 0.364 0.1345 0.1899 0.2269 0.372z"/>
  <path d="m76.26 117.9q0-0.2401-0.1187-0.3693-0.1187-0.1293-0.3166-0.1293-0.1108 0-0.1741 0.008-0.06067 0.008-0.09761 0.0185v0.8653q0.04485 0.0369 0.1293 0.0712 0.08442 0.0343 0.1847 0.0343 0.1055 0 0.1794-0.0369 0.0765-0.0396 0.124-0.1055 0.04748-0.0686 0.06859-0.1583 0.0211-0.0923 0.0211-0.1978zm0.2559 0q0 0.1556-0.04221 0.2875-0.03957 0.1319-0.1187 0.2269-0.07914 0.095-0.1952 0.1477-0.1134 0.0528-0.2612 0.0528-0.1187 0-0.211-0.0317-0.08969-0.0316-0.1345-0.0607v0.5487h-0.2453v-1.818q0.08705-0.0211 0.2163-0.0448 0.1319-0.0264 0.3034-0.0264 0.1583 0 0.2849 0.0501t0.2163 0.1424q0.08969 0.0923 0.1372 0.2269 0.05012 0.1319 0.05012 0.2981z"/>
  <path d="m77.98 117.9q0 0.1636-0.04748 0.2955t-0.1345 0.2269q-0.08442 0.095-0.2031 0.1477-0.1187 0.0501-0.2585 0.0501t-0.2585-0.0501q-0.1187-0.0528-0.2058-0.1477-0.08442-0.095-0.1319-0.2269t-0.04748-0.2955q0-0.1609 0.04748-0.2928 0.04748-0.1345 0.1319-0.2295 0.08705-0.095 0.2058-0.1451 0.1187-0.0528 0.2585-0.0528t0.2585 0.0528q0.1187 0.0501 0.2031 0.1451 0.08705 0.095 0.1345 0.2295 0.04748 0.1319 0.04748 0.2928zm-0.2559 0q0-0.2321-0.1055-0.3667-0.1029-0.1372-0.2823-0.1372t-0.2849 0.1372q-0.1029 0.1345-0.1029 0.3667t0.1029 0.3693q0.1055 0.1345 0.2849 0.1345t0.2823-0.1345q0.1055-0.1372 0.1055-0.3693z"/>
  <path d="m78.74 117.2q0.03166 0 0.07123 0.005 0.04221 0.003 0.08178 0.0106 0.03957 0.005 0.07123 0.0132 0.03429 0.005 0.05012 0.0106l-0.04221 0.2137q-0.02902-0.0106-0.09761-0.0237-0.06595-0.0158-0.1715-0.0158-0.06859 0-0.1372 0.0158-0.06595 0.0132-0.08705 0.0185v1.153h-0.2453v-1.314q0.08705-0.0317 0.2163-0.058 0.1293-0.029 0.2902-0.029z"/>
  <path d="m79.34 117.2h0.5197v0.2058h-0.5197v0.6331q0 0.1029 0.01583 0.1715 0.01583 0.066 0.04748 0.1055 0.03166 0.0369 0.07914 0.0528 0.04748 0.0158 0.1108 0.0158 0.1108 0 0.1767-0.0237 0.06859-0.0264 0.09497-0.0369l0.04748 0.2031q-0.03693 0.0185-0.1293 0.0448-0.09233 0.029-0.211 0.029-0.1398 0-0.2321-0.0343-0.08969-0.0369-0.1451-0.1082-0.0554-0.0712-0.07914-0.1741-0.0211-0.1055-0.0211-0.2427v-1.224l0.2453-0.0422z"/>
  <path d="m80.6 118.6v-1.828h1.103v0.219h-0.8468v0.5513h0.7518v0.2163h-0.7518v0.8415z"/>
  <path d="m82.44 118.6h-0.2453v-1.372h0.2453zm-0.124-1.62q-0.06595 0-0.1134-0.0422-0.04485-0.0448-0.04485-0.1187t0.04485-0.1161q0.04748-0.0448 0.1134-0.0448 0.06595 0 0.1108 0.0448 0.04748 0.0422 0.04748 0.1161t-0.04748 0.1187q-0.04485 0.0422-0.1108 0.0422z"/>
  <path d="m83.19 118.6q-0.2269-0.005-0.3218-0.0976-0.09497-0.0923-0.09497-0.2876v-1.646l0.2453-0.0422v1.649q0 0.0607 0.01055 0.1002 0.01055 0.0396 0.03429 0.0633t0.06331 0.0369q0.03957 0.0105 0.09761 0.0185z"/>
  <path d="m83.29 117.9q0-0.182 0.05276-0.3166 0.05276-0.1372 0.1398-0.2269 0.08705-0.0897 0.2005-0.1345t0.2321-0.0448q0.277 0 0.4247 0.1741 0.1477 0.1715 0.1477 0.525 0 0.0158 0 0.0422 0 0.0237-0.0026 0.0448h-0.9391q0.01583 0.2137 0.124 0.3245t0.3377 0.1108q0.1293 0 0.2163-0.0211 0.08969-0.0237 0.1345-0.0448l0.03429 0.2058q-0.04485 0.0237-0.1583 0.0501-0.1108 0.0264-0.2532 0.0264-0.1794 0-0.3113-0.0528-0.1293-0.0554-0.2137-0.1504-0.08442-0.095-0.1266-0.2242-0.03957-0.1319-0.03957-0.2875zm0.9418-0.1345q0.0026-0.1662-0.08442-0.2717-0.08442-0.1082-0.2348-0.1082-0.08442 0-0.1504 0.0343-0.06331 0.0317-0.1082 0.0844-0.04485 0.0528-0.07123 0.1214-0.02374 0.0686-0.03166 0.1398z"/>
 </g>
 <g stroke-width=".2198">
  <path d="m151.7 115.8q0.401 0 0.401-0.2744 0-0.0844-0.0369-0.1425-0.0343-0.0607-0.095-0.1029-0.0607-0.0448-0.1398-0.0765-0.0765-0.0317-0.1636-0.0633-0.1002-0.0343-0.1899-0.0765-0.0897-0.0448-0.1556-0.1029-0.0659-0.0607-0.1055-0.1424-0.0369-0.0818-0.0369-0.1978 0-0.2401 0.1636-0.3746t0.4511-0.1345q0.1662 0 0.3007 0.0369 0.1372 0.0343 0.2005 0.0765l-0.0818 0.2084q-0.0554-0.0343-0.1662-0.0659-0.1082-0.0343-0.2532-0.0343-0.0739 0-0.1372 0.0158t-0.1108 0.0475-0.0765 0.0818q-0.0264 0.0475-0.0264 0.1134 0 0.0739 0.029 0.124t0.0818 0.0897q0.0528 0.0369 0.1214 0.0686 0.0712 0.0317 0.1556 0.0633 0.1187 0.0475 0.2163 0.095 0.1002 0.0475 0.1715 0.1134 0.0739 0.066 0.1134 0.1583 0.0396 0.0897 0.0396 0.219 0 0.2401-0.1768 0.3693-0.1741 0.1293-0.4933 0.1293-0.1082 0-0.2005-0.0158-0.0897-0.0132-0.1609-0.0316-0.0712-0.0211-0.124-0.0422-0.0501-0.0237-0.0791-0.0396l0.0765-0.211q0.0607 0.0343 0.1847 0.0765t0.3034 0.0422z"/>
  <path d="m153 116v-2.005l0.2453-0.0422v0.7017q0.0686-0.0264 0.1451-0.0396 0.0791-0.0158 0.1556-0.0158 0.1636 0 0.2717 0.0475 0.1082 0.0448 0.1715 0.1293 0.0659 0.0818 0.0923 0.1978 0.0264 0.1161 0.0264 0.2559v0.7703h-0.2453v-0.7175q0-0.1266-0.0185-0.2163-0.0158-0.0897-0.0554-0.1451t-0.1055-0.0791q-0.066-0.0264-0.1636-0.0264-0.0396 0-0.0818 0.005t-0.0818 0.0132q-0.0369 0.005-0.0686 0.0132-0.029 0.008-0.0422 0.0132v1.14z"/>
  <path d="m154.9 115.8q0.0871 0 0.153-0.003 0.0686-0.005 0.1134-0.0158v-0.4089q-0.0264-0.0132-0.0871-0.0211-0.058-0.0106-0.1424-0.0106-0.0554 0-0.1187 0.008-0.0607 0.008-0.1134 0.0343-0.0501 0.0237-0.0844 0.0686-0.0343 0.0422-0.0343 0.1134 0 0.1319 0.0844 0.1847 0.0844 0.0501 0.2295 0.0501zm-0.0211-1.229q0.1477 0 0.248 0.0396 0.1029 0.0369 0.1636 0.1082 0.0633 0.0686 0.0897 0.1662 0.0264 0.095 0.0264 0.211v0.8574q-0.0317 0.005-0.0897 0.0158-0.0554 0.008-0.1266 0.0158-0.0712 0.008-0.1556 0.0132-0.0818 0.008-0.1636 0.008-0.1161 0-0.2137-0.0237-0.0976-0.0238-0.1688-0.0739-0.0712-0.0528-0.1108-0.1372t-0.0396-0.2031q0-0.1134 0.0449-0.1952 0.0475-0.0818 0.1266-0.1319t0.1847-0.0739q0.1055-0.0237 0.2216-0.0237 0.0369 0 0.0765 0.005 0.0396 0.003 0.0739 0.0105 0.0369 0.005 0.0633 0.0105 0.0264 0.005 0.0369 0.008v-0.0686q0-0.0607-0.0132-0.1187-0.0132-0.0607-0.0475-0.1055-0.0343-0.0475-0.095-0.0739-0.058-0.029-0.153-0.029-0.1214 0-0.2137 0.0185-0.0897 0.0158-0.1345 0.0343l-0.029-0.2031q0.0475-0.0211 0.1583-0.0396 0.1108-0.0211 0.2401-0.0211z"/>
  <path d="m156.4 114.6q0.0317 0 0.0712 0.005 0.0422 0.003 0.0818 0.0105 0.0396 0.005 0.0712 0.0132 0.0343 0.005 0.0501 0.0105l-0.0422 0.2137q-0.029-0.0105-0.0976-0.0237-0.0659-0.0158-0.1715-0.0158-0.0686 0-0.1372 0.0158-0.0659 0.0132-0.0871 0.0185v1.153h-0.2453v-1.314q0.0871-0.0317 0.2163-0.058 0.1293-0.029 0.2902-0.029z"/>
  <path d="m156.7 115.3q0-0.182 0.0528-0.3166 0.0528-0.1372 0.1398-0.2269 0.0871-0.0897 0.2005-0.1345t0.2321-0.0448q0.277 0 0.4247 0.1741 0.1477 0.1715 0.1477 0.525 0 0.0158 0 0.0422 0 0.0238-0.003 0.0449h-0.9391q0.0158 0.2137 0.124 0.3245t0.3377 0.1108q0.1293 0 0.2163-0.0211 0.0897-0.0238 0.1345-0.0448l0.0343 0.2058q-0.0448 0.0237-0.1583 0.0501-0.1108 0.0264-0.2532 0.0264-0.1794 0-0.3113-0.0528-0.1293-0.0554-0.2137-0.1504t-0.1266-0.2242q-0.0396-0.1319-0.0396-0.2875zm0.9418-0.1345q0.003-0.1662-0.0844-0.2717-0.0844-0.1082-0.2348-0.1082-0.0844 0-0.1504 0.0343-0.0633 0.0317-0.1082 0.0844-0.0448 0.0528-0.0712 0.1214-0.0237 0.0686-0.0317 0.1398z"/>
  <path d="m159 116v-1.828h1.103v0.219h-0.8468v0.5513h0.7518v0.2163h-0.7518v0.8415z"/>
  <path d="m160.9 116h-0.2453v-1.372h0.2453zm-0.124-1.62q-0.0659 0-0.1134-0.0422-0.0448-0.0448-0.0448-0.1187t0.0448-0.1161q0.0475-0.0448 0.1134-0.0448 0.066 0 0.1108 0.0448 0.0475 0.0422 0.0475 0.1161t-0.0475 0.1187q-0.0448 0.0422-0.1108 0.0422z"/>
  <path d="m161.6 116q-0.2269-0.005-0.3218-0.0976-0.095-0.0923-0.095-0.2875v-1.646l0.2453-0.0422v1.649q0 0.0607 0.0105 0.1002 0.0105 0.0396 0.0343 0.0633t0.0633 0.0369q0.0396 0.0105 0.0976 0.0185z"/>
  <path d="m161.7 115.3q0-0.182 0.0528-0.3166 0.0528-0.1372 0.1398-0.2269 0.0871-0.0897 0.2005-0.1345t0.2322-0.0448q0.277 0 0.4247 0.1741 0.1477 0.1715 0.1477 0.525 0 0.0158 0 0.0422 0 0.0238-0.003 0.0449h-0.9391q0.0158 0.2137 0.124 0.3245t0.3377 0.1108q0.1293 0 0.2163-0.0211 0.0897-0.0238 0.1345-0.0448l0.0343 0.2058q-0.0448 0.0237-0.1583 0.0501-0.1108 0.0264-0.2532 0.0264-0.1794 0-0.3113-0.0528-0.1293-0.0554-0.2137-0.1504t-0.1266-0.2242q-0.0396-0.1319-0.0396-0.2875zm0.9418-0.1345q0.003-0.1662-0.0844-0.2717-0.0844-0.1082-0.2348-0.1082-0.0844 0-0.1504 0.0343-0.0633 0.0317-0.1082 0.0844-0.0448 0.0528-0.0712 0.1214-0.0237 0.0686-0.0317 0.1398z"/>
  <path d="m144.5 118.2q0 0.3377 0.0976 0.6252 0.0976 0.2876 0.2876 0.5329l-0.1741 0.1187q-0.2058-0.2506-0.3324-0.5751-0.124-0.3271-0.124-0.7017t0.124-0.6991q0.1266-0.3271 0.3324-0.5777l0.1741 0.1187q-0.1899 0.2453-0.2876 0.5329-0.0976 0.2875-0.0976 0.6252z"/>
  <path d="m145 118.3q0-0.182 0.0528-0.3166 0.0528-0.1372 0.1398-0.2269 0.0871-0.0897 0.2005-0.1345t0.2321-0.0448q0.277 0 0.4247 0.1741 0.1477 0.1715 0.1477 0.525 0 0.0158 0 0.0422 0 0.0238-0.003 0.0449h-0.9391q0.0158 0.2137 0.124 0.3245t0.3377 0.1108q0.1293 0 0.2163-0.0211 0.0897-0.0238 0.1345-0.0449l0.0343 0.2058q-0.0448 0.0237-0.1583 0.0501-0.1108 0.0264-0.2532 0.0264-0.1794 0-0.3113-0.0528-0.1293-0.0554-0.2137-0.1504t-0.1266-0.2242q-0.0396-0.1319-0.0396-0.2875zm0.9418-0.1345q0.003-0.1662-0.0844-0.2717-0.0844-0.1082-0.2348-0.1082-0.0844 0-0.1504 0.0343-0.0633 0.0317-0.1082 0.0844-0.0448 0.0528-0.0712 0.1214-0.0237 0.0686-0.0317 0.1398z"/>
  <path d="m147.4 119q-0.029-0.058-0.0712-0.1293-0.0422-0.0712-0.0923-0.1451-0.0501-0.0765-0.1029-0.1504t-0.1029-0.1398q-0.0501 0.066-0.1029 0.1424-0.0528 0.0739-0.1029 0.1504-0.0475 0.0739-0.0897 0.1451t-0.0712 0.1266h-0.2532q0.0923-0.1794 0.219-0.364 0.1293-0.1873 0.2559-0.3561l-0.4537-0.6516h0.277l0.3271 0.4801 0.3298-0.4801h0.2612l-0.4432 0.6358q0.1266 0.1715 0.2585 0.364 0.1345 0.1899 0.2269 0.372z"/>
  <path d="m148.2 118.9q0 0.0712-0.0475 0.124t-0.1293 0.0528-0.1293-0.0528-0.0475-0.124 0.0475-0.124 0.1293-0.0528 0.1293 0.0528 0.0475 0.124zm0-1.053q0 0.0712-0.0475 0.124t-0.1293 0.0528-0.1293-0.0528-0.0475-0.124 0.0475-0.124 0.1293-0.0528 0.1293 0.0528 0.0475 0.124z"/>
  <path d="m149.8 118.8q0.401 0 0.401-0.2744 0-0.0844-0.0369-0.1425-0.0343-0.0607-0.095-0.1029-0.0607-0.0448-0.1398-0.0765-0.0765-0.0317-0.1636-0.0633-0.1002-0.0343-0.1899-0.0765-0.0897-0.0449-0.1556-0.1029-0.066-0.0607-0.1055-0.1424-0.0369-0.0818-0.0369-0.1978 0-0.2401 0.1636-0.3746t0.4511-0.1345q0.1662 0 0.3007 0.0369 0.1372 0.0343 0.2005 0.0765l-0.0818 0.2084q-0.0554-0.0343-0.1662-0.066-0.1082-0.0343-0.2532-0.0343-0.0739 0-0.1372 0.0158t-0.1108 0.0475-0.0765 0.0818q-0.0264 0.0475-0.0264 0.1134 0 0.0739 0.029 0.124t0.0818 0.0897q0.0528 0.0369 0.1214 0.0686 0.0712 0.0317 0.1556 0.0633 0.1187 0.0475 0.2163 0.095 0.1002 0.0475 0.1715 0.1134 0.0739 0.066 0.1134 0.1583 0.0396 0.0897 0.0396 0.219 0 0.2401-0.1767 0.3693-0.1741 0.1293-0.4933 0.1293-0.1082 0-0.2005-0.0158-0.0897-0.0132-0.1609-0.0317-0.0712-0.0211-0.124-0.0422-0.0501-0.0237-0.0791-0.0396l0.0765-0.211q0.0607 0.0343 0.1847 0.0765t0.3034 0.0422z"/>
  <path d="m152.3 118.3q0 0.1636-0.0475 0.2955t-0.1345 0.2269q-0.0844 0.095-0.2031 0.1477-0.1187 0.0501-0.2585 0.0501t-0.2585-0.0501q-0.1187-0.0528-0.2058-0.1477-0.0844-0.095-0.1319-0.2269t-0.0475-0.2955q0-0.1609 0.0475-0.2928 0.0475-0.1345 0.1319-0.2295 0.0871-0.095 0.2058-0.1451 0.1187-0.0528 0.2585-0.0528t0.2585 0.0528q0.1187 0.0501 0.2031 0.1451 0.0871 0.095 0.1345 0.2295 0.0475 0.1319 0.0475 0.2928zm-0.2559 0q0-0.2321-0.1055-0.3667-0.1029-0.1372-0.2823-0.1372t-0.2849 0.1372q-0.1029 0.1345-0.1029 0.3667 0 0.2321 0.1029 0.3693 0.1055 0.1345 0.2849 0.1345t0.2823-0.1345q0.1055-0.1372 0.1055-0.3693z"/>
  <path d="m153.2 119.1q-0.1662 0-0.2928-0.0528-0.124-0.0528-0.211-0.1477-0.0844-0.095-0.1266-0.2242-0.0422-0.1319-0.0422-0.2902t0.0448-0.2902q0.0475-0.1319 0.1319-0.2269 0.0844-0.0976 0.2058-0.1504 0.124-0.0554 0.2744-0.0554 0.0923 0 0.1847 0.0158 0.0923 0.0158 0.1768 0.0501l-0.0554 0.2084q-0.0554-0.0264-0.1293-0.0422-0.0712-0.0158-0.153-0.0158-0.2058 0-0.3166 0.1293-0.1082 0.1293-0.1082 0.3772 0 0.1108 0.0237 0.2031 0.0264 0.0923 0.0791 0.1583 0.0554 0.066 0.1398 0.1029 0.0844 0.0343 0.2058 0.0343 0.0976 0 0.1767-0.0185t0.124-0.0396l0.0343 0.2058q-0.0211 0.0132-0.0607 0.0264-0.0396 0.0106-0.0897 0.0185-0.0501 0.0106-0.1082 0.0158-0.0554 0.008-0.1082 0.008z"/>
  <path d="m154.1 119h-0.2453v-1.372h0.2453zm-0.124-1.62q-0.066 0-0.1134-0.0422-0.0448-0.0448-0.0448-0.1187t0.0448-0.1161q0.0475-0.0448 0.1134-0.0448t0.1108 0.0448q0.0475 0.0422 0.0475 0.1161t-0.0475 0.1187q-0.0448 0.0422-0.1108 0.0422z"/>
  <path d="m154.9 118.9q0.0871 0 0.153-0.003 0.0686-0.005 0.1134-0.0158v-0.4089q-0.0264-0.0132-0.0871-0.0211-0.058-0.0106-0.1425-0.0106-0.0554 0-0.1187 0.008-0.0607 0.008-0.1134 0.0343-0.0501 0.0237-0.0844 0.0686-0.0343 0.0422-0.0343 0.1134 0 0.1319 0.0844 0.1847 0.0844 0.0501 0.2295 0.0501zm-0.0211-1.229q0.1477 0 0.248 0.0396 0.1029 0.0369 0.1636 0.1082 0.0633 0.0686 0.0897 0.1662 0.0264 0.095 0.0264 0.211v0.8574q-0.0317 0.005-0.0897 0.0158-0.0554 0.008-0.1266 0.0158-0.0712 0.008-0.1556 0.0132-0.0818 0.008-0.1636 0.008-0.1161 0-0.2137-0.0237-0.0976-0.0238-0.1688-0.0739-0.0712-0.0528-0.1108-0.1372t-0.0396-0.2031q0-0.1134 0.0448-0.1952 0.0475-0.0818 0.1266-0.1319t0.1847-0.0739q0.1055-0.0237 0.2216-0.0237 0.0369 0 0.0765 0.005 0.0396 0.003 0.0739 0.0106 0.0369 0.005 0.0633 0.0105 0.0264 0.005 0.0369 0.008v-0.0686q0-0.0607-0.0132-0.1187-0.0132-0.0607-0.0475-0.1055-0.0343-0.0475-0.095-0.0739-0.058-0.029-0.153-0.029-0.1213 0-0.2137 0.0185-0.0897 0.0158-0.1345 0.0343l-0.029-0.2031q0.0475-0.0211 0.1583-0.0396 0.1108-0.0211 0.2401-0.0211z"/>
  <path d="m156.4 119.1q-0.2269-0.005-0.3218-0.0976-0.095-0.0923-0.095-0.2875v-1.646l0.2453-0.0422v1.649q0 0.0607 0.0105 0.1002 0.0105 0.0396 0.0343 0.0633t0.0633 0.0369q0.0396 0.0105 0.0976 0.0185z"/>
  <path d="m157.3 117.7q0.0844-0.0211 0.2216-0.0449 0.1398-0.0237 0.3218-0.0237 0.1319 0 0.2216 0.0369 0.0897 0.0343 0.1504 0.1029 0.0185-0.0132 0.058-0.0369 0.0396-0.0237 0.0976-0.0448 0.058-0.0237 0.1293-0.0396 0.0712-0.0185 0.153-0.0185 0.1583 0 0.2585 0.0475 0.1002 0.0448 0.1556 0.1293 0.058 0.0844 0.0765 0.2005 0.0211 0.1161 0.0211 0.2532v0.7703h-0.2453v-0.7175q0-0.1213-0.0132-0.2084-0.0105-0.0871-0.0448-0.1451-0.0317-0.058-0.0897-0.0844-0.0554-0.029-0.1451-0.029-0.124 0-0.2058 0.0343-0.0791 0.0317-0.1082 0.058 0.0211 0.0686 0.0317 0.1504 0.0105 0.0818 0.0105 0.1715v0.7703h-0.2453v-0.7175q0-0.1213-0.0132-0.2084t-0.0475-0.1451q-0.0317-0.058-0.0897-0.0844-0.0554-0.029-0.1424-0.029-0.0369 0-0.0791 0.003t-0.0818 0.008q-0.0369 0.003-0.0686 0.008t-0.0422 0.008v1.158h-0.2453z"/>
  <path d="m159.4 118.3q0-0.182 0.0528-0.3166 0.0528-0.1372 0.1398-0.2269 0.0871-0.0897 0.2005-0.1345t0.2322-0.0448q0.277 0 0.4247 0.1741 0.1477 0.1715 0.1477 0.525 0 0.0158 0 0.0422 0 0.0238-0.003 0.0449h-0.9391q0.0158 0.2137 0.124 0.3245t0.3377 0.1108q0.1293 0 0.2163-0.0211 0.0897-0.0238 0.1345-0.0449l0.0343 0.2058q-0.0448 0.0237-0.1583 0.0501-0.1108 0.0264-0.2532 0.0264-0.1794 0-0.3113-0.0528-0.1293-0.0554-0.2137-0.1504t-0.1266-0.2242q-0.0396-0.1319-0.0396-0.2875zm0.9418-0.1345q0.003-0.1662-0.0844-0.2717-0.0844-0.1082-0.2348-0.1082-0.0844 0-0.1504 0.0343-0.0633 0.0317-0.1082 0.0844-0.0448 0.0528-0.0712 0.1214-0.0237 0.0686-0.0317 0.1398z"/>
  <path d="m161.8 118q-0.0448-0.0369-0.1293-0.0712-0.0844-0.0343-0.1847-0.0343-0.1055 0-0.182 0.0396-0.0739 0.0369-0.1214 0.1055-0.0475 0.066-0.0686 0.1583t-0.0211 0.1978q0 0.2401 0.1187 0.372 0.1187 0.1293 0.3166 0.1293 0.1002 0 0.1662-0.008 0.0686-0.0106 0.1055-0.0211zm0-0.9233 0.2453-0.0422v2.008q-0.0844 0.0237-0.2163 0.0475t-0.3034 0.0238q-0.1583 0-0.2849-0.0501t-0.2163-0.1424-0.1398-0.2242q-0.0475-0.1345-0.0475-0.3007 0-0.1583 0.0396-0.2902 0.0422-0.1319 0.1214-0.2269 0.0791-0.095 0.1926-0.1477 0.1161-0.0528 0.2638-0.0528 0.1187 0 0.2084 0.0317 0.0923 0.0317 0.1372 0.0607z"/>
  <path d="m162.6 119h-0.2453v-1.372h0.2453zm-0.124-1.62q-0.0659 0-0.1134-0.0422-0.0448-0.0448-0.0448-0.1187t0.0448-0.1161q0.0475-0.0448 0.1134-0.0448 0.066 0 0.1108 0.0448 0.0475 0.0422 0.0475 0.1161t-0.0475 0.1187q-0.0448 0.0422-0.1108 0.0422z"/>
  <path d="m163.4 118.9q0.0871 0 0.153-0.003 0.0686-0.005 0.1134-0.0158v-0.4089q-0.0264-0.0132-0.0871-0.0211-0.058-0.0106-0.1424-0.0106-0.0554 0-0.1187 0.008-0.0607 0.008-0.1134 0.0343-0.0501 0.0237-0.0844 0.0686-0.0343 0.0422-0.0343 0.1134 0 0.1319 0.0844 0.1847 0.0844 0.0501 0.2295 0.0501zm-0.0211-1.229q0.1477 0 0.248 0.0396 0.1029 0.0369 0.1636 0.1082 0.0633 0.0686 0.0897 0.1662 0.0264 0.095 0.0264 0.211v0.8574q-0.0317 0.005-0.0897 0.0158-0.0554 0.008-0.1266 0.0158-0.0712 0.008-0.1556 0.0132-0.0818 0.008-0.1636 0.008-0.1161 0-0.2137-0.0237-0.0976-0.0238-0.1688-0.0739-0.0712-0.0528-0.1108-0.1372t-0.0396-0.2031q0-0.1134 0.0448-0.1952 0.0475-0.0818 0.1266-0.1319t0.1847-0.0739q0.1055-0.0237 0.2216-0.0237 0.0369 0 0.0765 0.005 0.0396 0.003 0.0739 0.0106 0.0369 0.005 0.0633 0.0105 0.0264 0.005 0.0369 0.008v-0.0686q0-0.0607-0.0132-0.1187-0.0132-0.0607-0.0475-0.1055-0.0343-0.0475-0.095-0.0739-0.058-0.029-0.153-0.029-0.1214 0-0.2137 0.0185-0.0897 0.0158-0.1345 0.0343l-0.029-0.2031q0.0475-0.0211 0.1583-0.0396 0.1108-0.0211 0.2401-0.0211z"/>
  <path d="m164.7 118.7q0.003 0.0211 0.003 0.0422 0 0.0185 0 0.0396 0 0.1662-0.0501 0.3271-0.0475 0.1636-0.1319 0.3113l-0.1899-0.0607q0.066-0.1345 0.0871-0.2744 0.0211-0.1372 0.0211-0.2585 0-0.0343-0.003-0.066 0-0.0316-0.003-0.0607z"/>
  <path d="m166.1 117.7h0.5197v0.2058h-0.5197v0.6331q0 0.1029 0.0158 0.1715 0.0158 0.066 0.0475 0.1055 0.0316 0.0369 0.0791 0.0528 0.0475 0.0158 0.1108 0.0158 0.1108 0 0.1768-0.0237 0.0686-0.0264 0.095-0.0369l0.0475 0.2031q-0.0369 0.0185-0.1293 0.0448-0.0923 0.029-0.211 0.029-0.1398 0-0.2321-0.0343-0.0897-0.0369-0.1451-0.1082-0.0554-0.0712-0.0791-0.1741-0.0211-0.1055-0.0211-0.2427v-1.224l0.2453-0.0422z"/>
  <path d="m166.6 118.3q0-0.182 0.0528-0.3166 0.0528-0.1372 0.1398-0.2269 0.0871-0.0897 0.2005-0.1345t0.2321-0.0448q0.277 0 0.4247 0.1741 0.1477 0.1715 0.1477 0.525 0 0.0158 0 0.0422 0 0.0238-0.003 0.0449h-0.9391q0.0158 0.2137 0.124 0.3245t0.3377 0.1108q0.1293 0 0.2163-0.0211 0.0897-0.0238 0.1345-0.0449l0.0343 0.2058q-0.0448 0.0237-0.1583 0.0501-0.1108 0.0264-0.2532 0.0264-0.1794 0-0.3113-0.0528-0.1293-0.0554-0.2137-0.1504t-0.1266-0.2242q-0.0396-0.1319-0.0396-0.2875zm0.9418-0.1345q0.003-0.1662-0.0844-0.2717-0.0844-0.1082-0.2348-0.1082-0.0844 0-0.1504 0.0343-0.0633 0.0317-0.1082 0.0844-0.0448 0.0528-0.0712 0.1214-0.0237 0.0686-0.0317 0.1398z"/>
  <path d="m168.9 119q-0.029-0.058-0.0712-0.1293-0.0422-0.0712-0.0923-0.1451-0.0501-0.0765-0.1029-0.1504t-0.1029-0.1398q-0.0501 0.066-0.1029 0.1424-0.0528 0.0739-0.1029 0.1504-0.0475 0.0739-0.0897 0.1451t-0.0712 0.1266h-0.2532q0.0923-0.1794 0.219-0.364 0.1293-0.1873 0.2559-0.3561l-0.4537-0.6516h0.277l0.3271 0.4801 0.3298-0.4801h0.2612l-0.4432 0.6358q0.1266 0.1715 0.2585 0.364 0.1345 0.1899 0.2269 0.372z"/>
  <path d="m169.7 117.7h0.5197v0.2058h-0.5197v0.6331q0 0.1029 0.0158 0.1715 0.0158 0.066 0.0475 0.1055 0.0317 0.0369 0.0791 0.0528 0.0475 0.0158 0.1108 0.0158 0.1108 0 0.1767-0.0237 0.0686-0.0264 0.095-0.0369l0.0475 0.2031q-0.0369 0.0185-0.1293 0.0448-0.0923 0.029-0.211 0.029-0.1398 0-0.2321-0.0343-0.0897-0.0369-0.1451-0.1082-0.0554-0.0712-0.0791-0.1741-0.0211-0.1055-0.0211-0.2427v-1.224l0.2453-0.0422z"/>
  <path d="m170.4 118.2q0-0.3377-0.0976-0.6252t-0.2875-0.5329l0.1741-0.1187q0.2058 0.2506 0.3298 0.5777 0.1266 0.3245 0.1266 0.6991t-0.1266 0.7017q-0.124 0.3245-0.3298 0.5751l-0.1741-0.1187q0.1899-0.2453 0.2875-0.5329 0.0976-0.2875 0.0976-0.6252z"/>
  <path d="m63.96 168.7h0.5117v3.656h-0.5117z"/>
  <path d="m65.39 169.7q0.1688-0.0422 0.4431-0.0897 0.2796-0.0475 0.6436-0.0475 0.2638 0 0.4431 0.0738 0.1794 0.0686 0.3007 0.2057 0.03692-0.0264 0.116-0.0738 0.07912-0.0475 0.1952-0.0897 0.116-0.0475 0.2585-0.0791 0.1424-0.0369 0.306-0.0369 0.3165 0 0.517 0.095 0.2004 0.0897 0.3112 0.2585 0.116 0.1688 0.153 0.4009 0.0422 0.2321 0.0422 0.5064v1.54h-0.4906v-1.435q0-0.2426-0.02638-0.4167-0.0211-0.1741-0.08967-0.2901-0.0633-0.116-0.1794-0.1688-0.1108-0.058-0.2901-0.058-0.2479 0-0.4114 0.0686-0.1582 0.0633-0.2163 0.116 0.0422 0.1372 0.0633 0.3007t0.0211 0.3429v1.54h-0.4906v-1.435q0-0.2426-0.02638-0.4167t-0.09495-0.2901q-0.0633-0.116-0.1794-0.1688-0.1108-0.058-0.2848-0.058-0.07385 0-0.1582 0.005-0.0844 0.005-0.1635 0.0158-0.07385 0.005-0.1372 0.0158-0.0633 0.0105-0.0844 0.0158v2.316h-0.4906z"/>
  <path d="m71.69 171q0-0.48-0.2374-0.7385t-0.633-0.2585q-0.2216 0-0.3482 0.0158-0.1213 0.0158-0.1952 0.0369v1.73q0.08967 0.0739 0.2585 0.1424 0.1688 0.0686 0.3692 0.0686 0.211 0 0.3587-0.0738 0.153-0.0791 0.2479-0.211 0.09495-0.1372 0.1372-0.3165 0.0422-0.1846 0.0422-0.3956zm0.5117 0q0 0.3112-0.0844 0.575-0.07913 0.2638-0.2374 0.4536-0.1582 0.1899-0.3904 0.2954-0.2268 0.1055-0.5222 0.1055-0.2374 0-0.422-0.0633-0.1794-0.0633-0.269-0.1213v1.097h-0.49v-3.634q0.1741-0.0422 0.4326-0.0897 0.2638-0.0528 0.6066-0.0528 0.3165 0 0.5697 0.1002t0.4326 0.2848 0.2743 0.4536q0.1002 0.2638 0.1002 0.5961z"/>
  <path d="m75.14 171q0 0.327-0.09495 0.5908t-0.269 0.4536q-0.1688 0.1899-0.4062 0.2954-0.2374 0.1002-0.517 0.1002t-0.517-0.1002q-0.2374-0.1055-0.4114-0.2954-0.1688-0.1899-0.2638-0.4536-0.09495-0.2638-0.09495-0.5908 0-0.3218 0.09495-0.5855 0.09495-0.269 0.2638-0.4589 0.1741-0.1899 0.4114-0.2901 0.2374-0.1055 0.517-0.1055t0.517 0.1055q0.2374 0.1002 0.4062 0.2901 0.1741 0.1899 0.269 0.4589 0.09495 0.2638 0.09495 0.5855zm-0.5117 0q0-0.4642-0.211-0.7332-0.2057-0.2743-0.5644-0.2743t-0.5697 0.2743q-0.2057 0.269-0.2057 0.7332t0.2057 0.7385q0.211 0.269 0.5697 0.269t0.5644-0.269q0.211-0.2743 0.211-0.7385z"/>
  <path d="m76.67 169.5q0.0633 0 0.1424 0.0105 0.0844 0.005 0.1635 0.0211 0.07912 0.0105 0.1424 0.0264 0.06858 0.0105 0.1002 0.0211l-0.0844 0.4273q-0.05803-0.0211-0.1952-0.0475-0.1319-0.0317-0.3429-0.0317-0.1372 0-0.2743 0.0317-0.1319 0.0264-0.1741 0.0369v2.305h-0.4906v-2.627q0.1741-0.0633 0.4326-0.116 0.2585-0.058 0.5802-0.058z"/>
  <path d="m77.87 169.6h1.039v0.4114h-1.039v1.266q0 0.2057 0.03165 0.3429 0.03165 0.1319 0.09495 0.211 0.0633 0.0738 0.1582 0.1055 0.09495 0.0317 0.2216 0.0317 0.2216 0 0.3534-0.0475 0.1372-0.0528 0.1899-0.0738l0.09495 0.4062q-0.07385 0.0369-0.2585 0.0897-0.1846 0.058-0.422 0.058-0.2796 0-0.4642-0.0686-0.1794-0.0738-0.2901-0.2163-0.1108-0.1424-0.1582-0.3482-0.0422-0.211-0.0422-0.4853v-2.448l0.4906-0.0844z"/>
  <path d="m81.27 172q0.1741 0 0.306-0.005 0.1372-0.0105 0.2268-0.0316v-0.8176q-0.05275-0.0264-0.1741-0.0422-0.116-0.0211-0.2848-0.0211-0.1108 0-0.2374 0.0158-0.1213 0.0158-0.2268 0.0686-0.1002 0.0475-0.1688 0.1372-0.06857 0.0844-0.06857 0.2268 0 0.2638 0.1688 0.3692 0.1688 0.1002 0.4589 0.1002zm-0.0422-2.458q0.2954 0 0.4958 0.0791 0.2057 0.0738 0.327 0.2163 0.1266 0.1372 0.1794 0.3323 0.05275 0.1899 0.05275 0.422v1.714q-0.0633 0.0106-0.1794 0.0317-0.1108 0.0158-0.2532 0.0317-0.1424 0.0158-0.3112 0.0264-0.1635 0.0158-0.327 0.0158-0.2321 0-0.4273-0.0475t-0.3376-0.1477q-0.1424-0.1055-0.2216-0.2743-0.07913-0.1688-0.07913-0.4062 0-0.2268 0.08967-0.3904 0.09495-0.1635 0.2532-0.2638 0.1582-0.1002 0.3692-0.1477t0.4431-0.0475q0.07385 0 0.153 0.0105 0.07913 0.005 0.1477 0.0211 0.07385 0.0105 0.1266 0.0211 0.05275 0.0105 0.07385 0.0158v-0.1372q0-0.1213-0.02638-0.2374-0.02638-0.1213-0.09495-0.211-0.06857-0.0949-0.1899-0.1477-0.116-0.058-0.306-0.058-0.2426 0-0.4273 0.0369-0.1794 0.0316-0.269 0.0686l-0.05803-0.4062q0.09495-0.0422 0.3165-0.0791 0.2216-0.0422 0.48-0.0422z"/>
  <path d="m84.77 172.3v-3.656h2.205v0.4378h-1.693v1.102h1.503v0.4326h-1.503v1.683z"/>
  <path d="m88.46 172.3h-0.4906v-2.743h0.4906zm-0.2479-3.239q-0.1319 0-0.2268-0.0844-0.08968-0.0897-0.08968-0.2374t0.08968-0.2321q0.09495-0.0897 0.2268-0.0897 0.1319 0 0.2216 0.0897 0.09495 0.0844 0.09495 0.2321t-0.09495 0.2374q-0.08967 0.0844-0.2216 0.0844z"/>
  <path d="m89.96 172.4q-0.4536-0.0105-0.6436-0.1952-0.1899-0.1846-0.1899-0.575v-3.292l0.4906-0.0844v3.297q0 0.1213 0.0211 0.2004t0.06858 0.1266q0.04747 0.0475 0.1266 0.0739 0.07913 0.0211 0.1952 0.0369z"/>
  <path d="m90.16 171q0-0.364 0.1055-0.633 0.1055-0.2743 0.2796-0.4536 0.1741-0.1794 0.4009-0.269 0.2268-0.0897 0.4642-0.0897 0.5539 0 0.8493 0.3482 0.2954 0.3429 0.2954 1.05 0 0.0317 0 0.0844 0 0.0475-0.0053 0.0897h-1.878q0.03165 0.4273 0.2479 0.6488 0.2163 0.2216 0.6752 0.2216 0.2585 0 0.4326-0.0422 0.1794-0.0475 0.269-0.0897l0.06857 0.4114q-0.08967 0.0475-0.3165 0.1002-0.2216 0.0528-0.5064 0.0528-0.3587 0-0.6224-0.1055-0.2585-0.1108-0.4273-0.3007t-0.2532-0.4484q-0.07912-0.2638-0.07912-0.575zm1.883-0.269q0.0053-0.3323-0.1688-0.5433-0.1688-0.2163-0.4695-0.2163-0.1688 0-0.3007 0.0686-0.1266 0.0633-0.2163 0.1688-0.08967 0.1055-0.1424 0.2426-0.04747 0.1372-0.0633 0.2796z"/>
 </g>
</svg>
