<?xml version="1.0" encoding="UTF-8" standalone="no"?>
<!-- Created with Inkscape (http://www.inkscape.org/) -->

<svg
   xmlns:dc="http://purl.org/dc/elements/1.1/"
   xmlns:cc="http://creativecommons.org/ns#"
   xmlns:rdf="http://www.w3.org/1999/02/22-rdf-syntax-ns#"
   xmlns:svg="http://www.w3.org/2000/svg"
   xmlns="http://www.w3.org/2000/svg"
   xmlns:sodipodi="http://sodipodi.sourceforge.net/DTD/sodipodi-0.dtd"
   xmlns:inkscape="http://www.inkscape.org/namespaces/inkscape"
   width="96"
   height="96"
   id="svg4874"
   version="1.1"
   inkscape:version="0.91+devel r"
   viewBox="0 0 96 96.000001"
   sodipodi:docname="event-new.svg">
  <defs
     id="defs4876" />
  <sodipodi:namedview
     id="base"
     pagecolor="#ffffff"
     bordercolor="#666666"
     borderopacity="1.0"
     inkscape:pageopacity="0.0"
     inkscape:pageshadow="2"
     inkscape:zoom="10.976561"
     inkscape:cx="12.28071"
     inkscape:cy="87.695943"
     inkscape:document-units="px"
     inkscape:current-layer="g4780"
     showgrid="true"
     showborder="true"
     fit-margin-top="0"
     fit-margin-left="0"
     fit-margin-right="0"
     fit-margin-bottom="0"
     inkscape:snap-bbox="true"
     inkscape:bbox-paths="true"
     inkscape:bbox-nodes="true"
     inkscape:snap-bbox-edge-midpoints="true"
     inkscape:snap-bbox-midpoints="true"
     inkscape:object-paths="true"
     inkscape:snap-intersection-paths="true"
     inkscape:object-nodes="true"
     inkscape:snap-smooth-nodes="true"
     inkscape:snap-midpoints="true"
     inkscape:snap-object-midpoints="true"
     inkscape:snap-center="true"
     showguides="true"
     inkscape:guide-bbox="true"
     inkscape:snap-global="true">
    <inkscape:grid
       type="xygrid"
       id="grid5451"
       empspacing="8" />
    <sodipodi:guide
       orientation="1,0"
       position="8,-8.0000001"
       id="guide4063" />
    <sodipodi:guide
       orientation="1,0"
       position="4,-8.0000001"
       id="guide4065" />
    <sodipodi:guide
       orientation="0,1"
       position="-8,88.000001"
       id="guide4067" />
    <sodipodi:guide
       orientation="0,1"
       position="-8,92.000001"
       id="guide4069" />
    <sodipodi:guide
       orientation="0,1"
       position="104,4"
       id="guide4071" />
    <sodipodi:guide
       orientation="0,1"
       position="-5,8.0000001"
       id="guide4073" />
    <sodipodi:guide
       orientation="1,0"
       position="92,-8.0000001"
       id="guide4075" />
    <sodipodi:guide
       orientation="1,0"
       position="88,-8.0000001"
       id="guide4077" />
    <sodipodi:guide
       orientation="0,1"
       position="-8,84.000001"
       id="guide4074" />
    <sodipodi:guide
       orientation="1,0"
       position="12,-8.0000001"
       id="guide4076" />
    <sodipodi:guide
       orientation="0,1"
       position="-5,12"
       id="guide4078" />
    <sodipodi:guide
       orientation="1,0"
       position="84,-9.0000001"
       id="guide4080" />
    <sodipodi:guide
       position="48,-8.0000001"
       orientation="1,0"
       id="guide4170" />
    <sodipodi:guide
       position="-8,48"
       orientation="0,1"
       id="guide4172" />
  </sodipodi:namedview>
  <metadata
     id="metadata4879">
    <rdf:RDF>
      <cc:Work
         rdf:about="">
        <dc:format>image/svg+xml</dc:format>
        <dc:type
           rdf:resource="http://purl.org/dc/dcmitype/StillImage" />
        <dc:title></dc:title>
      </cc:Work>
    </rdf:RDF>
  </metadata>
  <g
     inkscape:label="Layer 1"
     inkscape:groupmode="layer"
     id="layer1"
     transform="translate(67.857146,-78.50504)">
    <g
       transform="matrix(0,-1,-1,0,373.50506,516.50504)"
       id="g4845"
       style="display:inline">
      <g
         inkscape:export-ydpi="90"
         inkscape:export-xdpi="90"
         inkscape:export-filename="next01.png"
         transform="matrix(-0.9996045,0,0,1,575.94296,-611.00001)"
         id="g4778"
         inkscape:label="Layer 1">
        <g
           transform="matrix(-1,0,0,1,575.99999,611)"
           id="g4780"
           style="display:inline">
          <rect
             style="color:#000000;display:inline;overflow:visible;visibility:visible;fill:none;stroke:none;stroke-width:4;marker:none;enable-background:accumulate"
             id="rect4782"
             width="96.037987"
             height="96"
             x="-438.00244"
             y="345.36221"
             transform="scale(-1,1)" />
          <path
             style="color:#000000;font-style:normal;font-variant:normal;font-weight:normal;font-stretch:normal;font-size:medium;line-height:normal;font-family:sans-serif;text-indent:0;text-align:start;text-decoration:none;text-decoration-line:none;text-decoration-style:solid;text-decoration-color:#000000;letter-spacing:normal;word-spacing:normal;text-transform:none;direction:ltr;block-progression:tb;writing-mode:lr-tb;baseline-shift:baseline;text-anchor:start;white-space:normal;clip-rule:nonzero;display:inline;overflow:visible;visibility:visible;opacity:1;isolation:auto;mix-blend-mode:normal;color-interpolation:sRGB;color-interpolation-filters:linearRGB;solid-color:#000000;solid-opacity:1;fill:#808080;fill-opacity:1;fill-rule:nonzero;stroke:none;stroke-width:4.00079155;stroke-linecap:butt;stroke-linejoin:miter;stroke-miterlimit:4;stroke-dasharray:none;stroke-dashoffset:0;stroke-opacity:1;marker:none;color-rendering:auto;image-rendering:auto;shape-rendering:auto;text-rendering:auto;enable-background:accumulate"
             d="M 14.783203 6.0019531 C 11.386133 6.0412376 8.8997575 5.9215225 6.8671875 7.0429688 C 5.8509075 7.6036869 5.0480656 8.5520567 4.6035156 9.7363281 C 4.1589556 10.9206 3.9980469 12.324142 3.9980469 14.099609 L 3.9980469 33.001953 L 3.9980469 53.900391 C 3.9980469 55.675878 4.1589556 57.081354 4.6035156 58.265625 C 5.0480656 59.449896 5.8509075 60.398256 6.8671875 60.958984 C 8.8997575 62.080431 11.386133 61.960726 14.783203 62 L 14.791016 62 L 30.998047 62 L 49.205078 62 L 49.212891 62 C 52.609971 61.960716 55.096336 62.080341 57.128906 60.958984 C 58.145186 60.398256 58.949981 59.449896 59.394531 58.265625 C 59.839081 57.081354 59.913187 55.673849 59.998047 53.900391 L 59.998047 33.001953 L 56 34.201172 L 56 52.599609 C 56 54.199107 55.831829 55.315726 55.568359 56.017578 C 55.304909 56.71942 55.020501 57.02176 54.525391 57.294922 C 53.537001 57.840266 51.301181 57.960326 47.900391 58 L 47.884766 58 L 30.998047 58 L 16.115234 58 L 16.099609 58 C 12.697939 57.960416 10.463149 57.840346 9.4746094 57.294922 C 8.9794994 57.02176 8.6950906 56.71942 8.4316406 56.017578 C 8.1681706 55.315726 8 54.199107 8 52.599609 L 8 34.201172 L 8 23.400391 C 8 21.800893 8.1681706 20.684264 8.4316406 19.982422 C 8.6950906 19.28057 8.9794994 18.97825 9.4746094 18.705078 C 10.464839 18.158714 12.703714 18.039474 16.115234 18 L 30.998047 18 L 47.900391 18 C 51.301181 18.039684 53.537001 18.159734 54.525391 18.705078 C 55.020501 18.97825 55.304909 19.28057 55.568359 19.982422 C 55.831819 20.684264 55.85253 21.807711 56 23.400391 L 56 34.199219 L 59.998047 33 L 59.998047 14.099609 C 59.998047 12.324142 59.839081 10.9206 59.394531 9.7363281 C 58.949981 8.5520567 58.145186 7.6036869 57.128906 7.0429688 C 55.096336 5.9215125 52.609961 6.0412176 49.212891 6.0019531 L 49.205078 6.0019531 L 49.199219 6.0019531 L 48 6.0019531 L 48 12 L 44 12 L 44 6.0019531 L 20 6.0019531 L 20 12 L 16 12 L 16 6.0019531 L 14.798828 6.0019531 L 14.791016 6.0019531 L 14.783203 6.0019531 z "
             transform="matrix(0,-1,-1.0003957,0,438.00245,441.36222)"
             id="path4410" />
          <path
             style="color:#000000;display:inline;overflow:visible;visibility:visible;fill:#808080;fill-opacity:1;fill-rule:nonzero;stroke:none;stroke-width:10;marker:none;enable-background:accumulate"
             d="M 20 0 L 16 1 L 16 6 L 20 6 L 20 0 z M 48 0 L 44 1 L 44 6 L 48 6 L 48 0 z "
             transform="matrix(0,-1,-1.0003957,0,438.00245,441.36222)"
             id="path4438" />
          <path
             style="color:#000000;display:inline;overflow:visible;visibility:visible;fill:#808080;fill-opacity:1;fill-rule:nonzero;stroke:none;stroke-width:7.5;marker:none;enable-background:accumulate"
             d="m 384.98148,371.36221 1.0004,-3.99998 -40.01574,0 0,3.99998 z"
             id="rect3470"
             inkscape:connector-curvature="0"
             sodipodi:nodetypes="ccccc" />
          <rect
             transform="scale(-1,1)"
             style="color:#000000;display:inline;overflow:visible;visibility:visible;fill:#808080;fill-opacity:1;fill-rule:nonzero;stroke:none;stroke-width:7.5;marker:none;enable-background:accumulate"
             id="rect3472"
             width="4.0014911"
             height="40.000053"
             x="-367.97476"
             y="349.36221" />
        </g>
      </g>
    </g>
  </g>
</svg>
