<?xml version="1.0" encoding="UTF-8" standalone="no"?>
<!-- Created with Inkscape (http://www.inkscape.org/) -->

<svg
   xmlns:dc="http://purl.org/dc/elements/1.1/"
   xmlns:cc="http://creativecommons.org/ns#"
   xmlns:rdf="http://www.w3.org/1999/02/22-rdf-syntax-ns#"
   xmlns:svg="http://www.w3.org/2000/svg"
   xmlns="http://www.w3.org/2000/svg"
   xmlns:sodipodi="http://sodipodi.sourceforge.net/DTD/sodipodi-0.dtd"
   xmlns:inkscape="http://www.inkscape.org/namespaces/inkscape"
   width="96"
   height="96"
   id="svg4874"
   version="1.1"
   inkscape:version="0.91+devel r"
   viewBox="0 0 96 96.000001"
   sodipodi:docname="calendar-today.svg">
  <defs
     id="defs4876" />
  <sodipodi:namedview
     id="base"
     pagecolor="#ffffff"
     bordercolor="#666666"
     borderopacity="1.0"
     inkscape:pageopacity="0.0"
     inkscape:pageshadow="2"
     inkscape:zoom="8.7812489"
     inkscape:cx="49.924558"
     inkscape:cy="43.695365"
     inkscape:document-units="px"
     inkscape:current-layer="g4780"
     showgrid="true"
     showborder="true"
     fit-margin-top="0"
     fit-margin-left="0"
     fit-margin-right="0"
     fit-margin-bottom="0"
     inkscape:snap-bbox="true"
     inkscape:bbox-paths="true"
     inkscape:bbox-nodes="true"
     inkscape:snap-bbox-edge-midpoints="true"
     inkscape:snap-bbox-midpoints="true"
     inkscape:object-paths="true"
     inkscape:snap-intersection-paths="true"
     inkscape:object-nodes="true"
     inkscape:snap-smooth-nodes="true"
     inkscape:snap-midpoints="true"
     inkscape:snap-object-midpoints="true"
     inkscape:snap-center="true"
     showguides="true"
     inkscape:guide-bbox="true"
     inkscape:snap-global="true">
    <inkscape:grid
       type="xygrid"
       id="grid5451"
       empspacing="8" />
    <sodipodi:guide
       orientation="1,0"
       position="8,-8.0000001"
       id="guide4063" />
    <sodipodi:guide
       orientation="1,0"
       position="4,-8.0000001"
       id="guide4065" />
    <sodipodi:guide
       orientation="0,1"
       position="-8,88.000001"
       id="guide4067" />
    <sodipodi:guide
       orientation="0,1"
       position="-8,92.000001"
       id="guide4069" />
    <sodipodi:guide
       orientation="0,1"
       position="104,4"
       id="guide4071" />
    <sodipodi:guide
       orientation="0,1"
       position="-5,8.0000001"
       id="guide4073" />
    <sodipodi:guide
       orientation="1,0"
       position="92,-8.0000001"
       id="guide4075" />
    <sodipodi:guide
       orientation="1,0"
       position="88,-8.0000001"
       id="guide4077" />
    <sodipodi:guide
       orientation="0,1"
       position="-8,84.000001"
       id="guide4074" />
    <sodipodi:guide
       orientation="1,0"
       position="12,-8.0000001"
       id="guide4076" />
    <sodipodi:guide
       orientation="0,1"
       position="-5,12"
       id="guide4078" />
    <sodipodi:guide
       orientation="1,0"
       position="84,-9.0000001"
       id="guide4080" />
    <sodipodi:guide
       position="48,-8.0000001"
       orientation="1,0"
       id="guide4170" />
    <sodipodi:guide
       position="-8,48"
       orientation="0,1"
       id="guide4172" />
  </sodipodi:namedview>
  <metadata
     id="metadata4879">
    <rdf:RDF>
      <cc:Work
         rdf:about="">
        <dc:format>image/svg+xml</dc:format>
        <dc:type
           rdf:resource="http://purl.org/dc/dcmitype/StillImage" />
        <dc:title></dc:title>
      </cc:Work>
    </rdf:RDF>
  </metadata>
  <g
     inkscape:label="Layer 1"
     inkscape:groupmode="layer"
     id="layer1"
     transform="translate(67.857146,-78.50504)">
    <g
       transform="matrix(0,-1,-1,0,373.50506,516.50504)"
       id="g4845"
       style="display:inline">
      <g
         inkscape:export-ydpi="90"
         inkscape:export-xdpi="90"
         inkscape:export-filename="next01.png"
         transform="matrix(-0.9996045,0,0,1,575.94296,-611.00001)"
         id="g4778"
         inkscape:label="Layer 1">
        <g
           transform="matrix(-1,0,0,1,575.99999,611)"
           id="g4780"
           style="display:inline">
          <rect
             style="color:#000000;display:inline;overflow:visible;visibility:visible;fill:none;stroke:none;stroke-width:4;marker:none;enable-background:accumulate"
             id="rect4782"
             width="96.037987"
             height="96"
             x="-438.00244"
             y="345.36221"
             transform="scale(-1,1)" />
          <path
             style="color:#000000;font-style:normal;font-variant:normal;font-weight:normal;font-stretch:normal;font-size:medium;line-height:normal;font-family:sans-serif;text-indent:0;text-align:start;text-decoration:none;text-decoration-line:none;text-decoration-style:solid;text-decoration-color:#000000;letter-spacing:normal;word-spacing:normal;text-transform:none;direction:ltr;block-progression:tb;writing-mode:lr-tb;baseline-shift:baseline;text-anchor:start;white-space:normal;clip-rule:nonzero;display:inline;overflow:visible;visibility:visible;opacity:1;isolation:auto;mix-blend-mode:normal;color-interpolation:sRGB;color-interpolation-filters:linearRGB;solid-color:#000000;solid-opacity:1;fill:#808080;fill-opacity:1;fill-rule:nonzero;stroke:none;stroke-width:4.00079155;stroke-linecap:butt;stroke-linejoin:miter;stroke-miterlimit:4;stroke-dasharray:none;stroke-dashoffset:0;stroke-opacity:1;marker:none;color-rendering:auto;image-rendering:auto;shape-rendering:auto;text-rendering:auto;enable-background:accumulate"
             d="M 23.976562 8.0019531 C 18.943803 8.0601401 15.26124 7.881546 12.25 9.5429688 C 10.74438 10.37368 9.5531414 11.778707 8.8945312 13.533203 C 8.2359314 15.287699 7.9980469 17.369641 7.9980469 20 L 7.9980469 48.001953 L 7.9980469 76 C 7.9980469 78.630359 8.2359314 80.714254 8.8945312 82.46875 C 9.5531414 84.223246 10.74438 85.62632 12.25 86.457031 C 15.26124 88.118454 18.943803 87.941823 23.976562 88 L 23.988281 88 L 47.998047 88 L 72.009766 88 L 72.021484 88 C 77.054244 87.94182 80.736807 88.118454 83.748047 86.457031 C 85.253667 85.62632 86.444916 84.223246 87.103516 82.46875 C 87.762113 80.714254 88 78.630359 88 76 L 88 48.001953 L 83.998047 48.001953 L 83.998047 76 C 83.998047 78.369642 83.747742 80.022711 83.357422 81.0625 C 82.967112 82.102279 82.547973 82.550368 81.814453 82.955078 C 80.350163 83.762988 77.036307 83.941223 71.998047 84 L 71.974609 84 L 47.998047 84 L 24.021484 84 L 24 84 C 18.96042 83.941263 15.648104 83.763108 14.183594 82.955078 C 13.450074 82.550368 13.030935 82.102279 12.640625 81.0625 C 12.250305 80.022711 12 78.369642 12 76 L 12 48.001953 L 12 32 C 12 29.630358 12.250305 27.977279 12.640625 26.9375 C 13.030935 25.897711 13.450074 25.449632 14.183594 25.044922 C 15.650624 24.235492 18.967304 24.058477 24.021484 24 L 47.998047 24 L 71.998047 24 C 77.036307 24.05877 80.350163 24.237002 81.814453 25.044922 C 82.547973 25.449632 82.967112 25.897711 83.357422 26.9375 C 83.747742 27.977279 83.998047 29.630358 83.998047 32 L 83.998047 48 L 88 48 L 88 20 C 88 17.369641 87.762116 15.287699 87.103516 13.533203 C 86.444916 11.778707 85.253667 10.37368 83.748047 9.5429688 C 80.736807 7.881546 77.054244 8.0601301 72.021484 8.0019531 L 72.009766 8.0019531 L 72 8.0019531 L 72 16 L 66 16 L 66 8.0019531 L 30 8.0019531 L 30 16 L 24 16 L 24 8.0019531 L 23.988281 8.0019531 L 23.976562 8.0019531 z "
             transform="matrix(0,-1,-1.0003957,0,438.00245,441.36222)"
             id="path4410" />
          <path
             style="color:#000000;display:inline;overflow:visible;visibility:visible;fill:#808080;fill-opacity:1;fill-rule:nonzero;stroke:none;stroke-width:10;marker:none;enable-background:accumulate"
             d="M 30 0 L 24 1 L 24 8 L 30 8 L 30 0 z M 72 0 L 66 1 L 66 8 L 72 8 L 72 0 z "
             transform="matrix(0,-1,-1.0003957,0,438.00245,441.36222)"
             id="path4430" />
          <path
             style="font-style:normal;font-variant:normal;font-weight:normal;font-stretch:normal;font-size:15px;line-height:125%;font-family:Ubuntu;-inkscape-font-specification:Ubuntu;text-align:center;letter-spacing:0px;word-spacing:0px;writing-mode:lr-tb;text-anchor:middle;display:inline;fill:#808080;fill-opacity:1;stroke:none;stroke-width:1.00019777"
             d="m 400.59117,369.53995 -23.81411,27.17969 13.43891,15.66211 -3.26301,2.88477 -19.51553,-18.54102 30.80711,-29.26562 2.34663,2.08007 z"
             id="path4041-9"
             inkscape:connector-curvature="0" />
        </g>
      </g>
    </g>
  </g>
</svg>
