<?xml version="1.0" encoding="UTF-8" standalone="no"?>
<!-- Created with Inkscape (http://www.inkscape.org/) -->

<svg
   xmlns:dc="http://purl.org/dc/elements/1.1/"
   xmlns:cc="http://creativecommons.org/ns#"
   xmlns:rdf="http://www.w3.org/1999/02/22-rdf-syntax-ns#"
   xmlns:svg="http://www.w3.org/2000/svg"
   xmlns="http://www.w3.org/2000/svg"
   xmlns:sodipodi="http://sodipodi.sourceforge.net/DTD/sodipodi-0.dtd"
   xmlns:inkscape="http://www.inkscape.org/namespaces/inkscape"
   width="96"
   height="96"
   id="svg4874"
   version="1.1"
   inkscape:version="0.92pre1 unknown"
   viewBox="0 0 96 96.000001"
   sodipodi:docname="contact-group.svg">
  <defs
     id="defs4876" />
  <sodipodi:namedview
     id="base"
     pagecolor="#ffffff"
     bordercolor="#666666"
     borderopacity="1.0"
     inkscape:pageopacity="0.0"
     inkscape:pageshadow="2"
     inkscape:zoom="10.976561"
     inkscape:cx="-15.533103"
     inkscape:cy="56.488537"
     inkscape:document-units="px"
     inkscape:current-layer="g4780"
     showgrid="true"
     showborder="true"
     fit-margin-top="0"
     fit-margin-left="0"
     fit-margin-right="0"
     fit-margin-bottom="0"
     inkscape:snap-bbox="true"
     inkscape:bbox-paths="true"
     inkscape:bbox-nodes="true"
     inkscape:snap-bbox-edge-midpoints="true"
     inkscape:snap-bbox-midpoints="true"
     inkscape:object-paths="true"
     inkscape:snap-intersection-paths="true"
     inkscape:object-nodes="false"
     inkscape:snap-smooth-nodes="false"
     inkscape:snap-midpoints="false"
     inkscape:snap-object-midpoints="false"
     inkscape:snap-center="false"
     showguides="true"
     inkscape:guide-bbox="true"
     inkscape:snap-others="false">
    <inkscape:grid
       type="xygrid"
       id="grid5451"
       empspacing="8" />
    <sodipodi:guide
       orientation="1,0"
       position="8,-8.0000001"
       id="guide4063"
       inkscape:locked="false" />
    <sodipodi:guide
       orientation="1,0"
       position="4,-8.0000001"
       id="guide4065"
       inkscape:locked="false" />
    <sodipodi:guide
       orientation="0,1"
       position="-8,88.000001"
       id="guide4067"
       inkscape:locked="false" />
    <sodipodi:guide
       orientation="0,1"
       position="-8,92.000001"
       id="guide4069"
       inkscape:locked="false" />
    <sodipodi:guide
       orientation="0,1"
       position="104,4"
       id="guide4071"
       inkscape:locked="false" />
    <sodipodi:guide
       orientation="0,1"
       position="-5,8.0000001"
       id="guide4073"
       inkscape:locked="false" />
    <sodipodi:guide
       orientation="1,0"
       position="92,-8.0000001"
       id="guide4075"
       inkscape:locked="false" />
    <sodipodi:guide
       orientation="1,0"
       position="88,-8.0000001"
       id="guide4077"
       inkscape:locked="false" />
    <sodipodi:guide
       orientation="0,1"
       position="-8,84.000001"
       id="guide4074"
       inkscape:locked="false" />
    <sodipodi:guide
       orientation="1,0"
       position="12,-8.0000001"
       id="guide4076"
       inkscape:locked="false" />
    <sodipodi:guide
       orientation="0,1"
       position="-5,12"
       id="guide4078"
       inkscape:locked="false" />
    <sodipodi:guide
       orientation="1,0"
       position="84,-9.0000001"
       id="guide4080"
       inkscape:locked="false" />
    <sodipodi:guide
       position="48,-8.0000001"
       orientation="1,0"
       id="guide4170"
       inkscape:locked="false" />
    <sodipodi:guide
       position="-8,48"
       orientation="0,1"
       id="guide4172"
       inkscape:locked="false" />
  </sodipodi:namedview>
  <metadata
     id="metadata4879">
    <rdf:RDF>
      <cc:Work
         rdf:about="">
        <dc:format>image/svg+xml</dc:format>
        <dc:type
           rdf:resource="http://purl.org/dc/dcmitype/StillImage" />
        <dc:title />
      </cc:Work>
    </rdf:RDF>
  </metadata>
  <g
     inkscape:label="Layer 1"
     inkscape:groupmode="layer"
     id="layer1"
     transform="translate(67.857146,-78.50504)">
    <g
       transform="matrix(0,-1,-1,0,373.50506,516.50504)"
       id="g4845"
       style="display:inline">
      <g
         inkscape:export-ydpi="90"
         inkscape:export-xdpi="90"
         inkscape:export-filename="next01.png"
         transform="matrix(-0.9996045,0,0,1,575.94296,-611.00001)"
         id="g4778"
         inkscape:label="Layer 1">
        <g
           transform="matrix(-1,0,0,1,575.99999,611)"
           id="g4780"
           style="display:inline">
          <rect
             style="color:#000000;display:inline;overflow:visible;visibility:visible;fill:none;stroke:none;stroke-width:4;marker:none;enable-background:accumulate"
             id="rect4782"
             width="96.037987"
             height="96"
             x="-438.00244"
             y="345.36221"
             transform="scale(-1,1)" />
          <path
             style="color:#000000;font-style:normal;font-variant:normal;font-weight:normal;font-stretch:normal;font-size:medium;line-height:125%;font-family:Ubuntu;-inkscape-font-specification:'Ubuntu, Normal';font-variant-ligatures:normal;font-variant-position:normal;font-variant-caps:normal;font-variant-numeric:normal;font-variant-alternates:normal;font-feature-settings:normal;text-indent:0;text-align:start;text-decoration:none;text-decoration-line:none;text-decoration-style:solid;text-decoration-color:#000000;letter-spacing:0px;word-spacing:0px;text-transform:none;writing-mode:lr-tb;direction:ltr;text-orientation:mixed;dominant-baseline:auto;baseline-shift:baseline;text-anchor:start;white-space:normal;shape-padding:0;clip-rule:nonzero;display:inline;overflow:visible;visibility:visible;opacity:1;isolation:auto;mix-blend-mode:normal;color-interpolation:sRGB;color-interpolation-filters:linearRGB;solid-color:#000000;solid-opacity:1;fill:#808080;fill-opacity:1;fill-rule:nonzero;stroke:none;stroke-width:4.00079107;stroke-linecap:butt;stroke-linejoin:miter;stroke-miterlimit:4;stroke-dasharray:none;stroke-dashoffset:0;stroke-opacity:1;color-rendering:auto;image-rendering:auto;shape-rendering:auto;text-rendering:auto;enable-background:accumulate"
             d="m 405.98047,360.83398 c -2.92356,0 -5.62655,0.43591 -8.07617,1.33985 -2.41608,0.89153 -4.54478,2.18046 -6.32813,3.85156 -1.78862,1.63101 -3.19224,3.61247 -4.17578,5.88086 l -0.008,0.0156 -0.008,0.0176 c -0.94047,2.28314 -1.40235,4.76367 -1.40235,7.38477 0,2.62104 0.46188,5.10162 1.40235,7.38476 l 0.008,0.0176 0.008,0.0156 c 0.98234,2.2656 2.37795,4.26268 4.15625,5.93359 l 0.0117,0.0117 0.0117,0.01 c 1.78511,1.62648 3.91161,2.88707 6.32422,3.77734 2.44963,0.90396 5.15261,1.33984 8.07617,1.33984 2.87838,0 5.55748,-0.43632 8,-1.33593 l 0.004,-0.002 c 2.4549,-0.88866 4.60754,-2.14753 6.39843,-3.77929 l 0.0117,-0.01 0.0117,-0.0117 c 1.78118,-1.67362 3.15878,-3.6796 4.09766,-5.95312 0.98771,-2.28529 1.47656,-4.77228 1.47656,-7.39844 0,-2.62622 -0.48885,-5.11316 -1.47656,-7.39844 -0.93998,-2.27607 -2.32569,-4.2667 -4.11719,-5.90039 -1.78918,-1.67646 -3.9442,-2.96367 -6.40234,-3.85351 -2.44359,-0.90059 -5.12398,-1.3379 -8.00391,-1.3379 z m 0,4.00196 c 2.47948,0 4.67711,0.37229 6.62695,1.09179 l 0.006,0.002 0.006,0.002 c 2.01547,0.72913 3.67584,1.73514 5.04688,3.02344 l 0.0117,0.0117 0.01,0.01 c 1.36676,1.24529 2.39573,2.71587 3.125,4.48633 l 0.006,0.0176 0.008,0.0176 c 0.76507,1.76442 1.1543,3.68375 1.1543,5.82617 0,2.14234 -0.38922,4.06367 -1.1543,5.82812 l -0.008,0.0156 -0.006,0.0176 c -0.72853,1.76865 -1.76088,3.2675 -3.13281,4.56054 -1.37137,1.24771 -3.0374,2.23879 -5.06055,2.97071 l -0.006,0.002 -0.006,0.002 c -1.94984,0.71952 -4.14747,1.09375 -6.62695,1.09375 -2.52668,0 -4.74565,-0.37573 -6.69141,-1.09375 -1.97691,-0.72949 -3.62487,-1.71902 -5.00195,-2.9707 -1.37663,-1.29629 -2.4359,-2.80476 -3.20899,-4.58203 -0.72519,-1.7671 -1.0957,-3.69599 -1.0957,-5.84375 0,-2.14575 0.37191,-4.07222 1.0957,-5.83789 0.77314,-1.77839 1.82515,-3.26139 3.19532,-4.50977 l 0.0117,-0.01 0.0117,-0.0117 c 1.37779,-1.29463 3.02071,-2.29987 4.99218,-3.02735 1.94576,-0.718 4.16472,-1.09179 6.69141,-1.09179 z"
             id="path4202"
             inkscape:connector-curvature="0" />
          <path
             style="color:#000000;font-style:normal;font-variant:normal;font-weight:normal;font-stretch:normal;font-size:medium;line-height:125%;font-family:Ubuntu;-inkscape-font-specification:'Ubuntu, Normal';font-variant-ligatures:normal;font-variant-position:normal;font-variant-caps:normal;font-variant-numeric:normal;font-variant-alternates:normal;font-feature-settings:normal;text-indent:0;text-align:start;text-decoration:none;text-decoration-line:none;text-decoration-style:solid;text-decoration-color:#000000;letter-spacing:0px;word-spacing:0px;text-transform:none;writing-mode:lr-tb;direction:ltr;text-orientation:mixed;dominant-baseline:auto;baseline-shift:baseline;text-anchor:start;white-space:normal;shape-padding:0;clip-rule:nonzero;display:inline;overflow:visible;visibility:visible;opacity:1;isolation:auto;mix-blend-mode:normal;color-interpolation:sRGB;color-interpolation-filters:linearRGB;solid-color:#000000;solid-opacity:1;fill:#808080;fill-opacity:1;fill-rule:nonzero;stroke:none;stroke-width:4.00079107;stroke-linecap:butt;stroke-linejoin:miter;stroke-miterlimit:4;stroke-dasharray:none;stroke-dashoffset:0;stroke-opacity:1;color-rendering:auto;image-rendering:auto;shape-rendering:auto;text-rendering:auto;enable-background:accumulate"
             d="m 355.93359,345.47266 -0.002,4 c 4.08212,0.003 7.36661,0.32537 9.9043,1.11914 2.53769,0.79376 4.32832,1.98431 5.7832,3.94531 2.90977,3.92201 4.35156,11.50475 4.35156,24.77344 0,13.26868 -1.44098,20.85138 -4.35156,24.77734 -1.45529,1.96298 -3.24695,3.15589 -5.78516,3.95313 -2.5382,0.79723 -5.82397,1.12543 -9.90625,1.13476 l 0.01,4 c 4.2821,-0.01 7.93327,-0.3231 11.0957,-1.3164 3.16244,-0.99331 5.83546,-2.74036 7.79883,-5.38868 3.92675,-5.29662 5.14063,-13.62724 5.14063,-27.16015 -1e-5,-13.53292 -1.21307,-21.86238 -5.14063,-27.15625 -1.96378,-2.64694 -4.63783,-4.39152 -7.80078,-5.38086 -3.16295,-0.98934 -6.8154,-1.29771 -11.09766,-1.30078 z"
             id="path4228"
             inkscape:connector-curvature="0" />
          <path
             style="color:#000000;font-style:normal;font-variant:normal;font-weight:normal;font-stretch:normal;font-size:medium;line-height:125%;font-family:Ubuntu;-inkscape-font-specification:'Ubuntu, Normal';font-variant-ligatures:normal;font-variant-position:normal;font-variant-caps:normal;font-variant-numeric:normal;font-variant-alternates:normal;font-feature-settings:normal;text-indent:0;text-align:start;text-decoration:none;text-decoration-line:none;text-decoration-style:solid;text-decoration-color:#000000;letter-spacing:0px;word-spacing:0px;text-transform:none;writing-mode:lr-tb;direction:ltr;text-orientation:mixed;dominant-baseline:auto;baseline-shift:baseline;text-anchor:start;white-space:normal;shape-padding:0;clip-rule:nonzero;display:inline;overflow:visible;visibility:visible;opacity:1;isolation:auto;mix-blend-mode:normal;color-interpolation:sRGB;color-interpolation-filters:linearRGB;solid-color:#000000;solid-opacity:1;fill:#808080;fill-opacity:1;fill-rule:nonzero;stroke:none;stroke-width:4.00079107;stroke-linecap:butt;stroke-linejoin:miter;stroke-miterlimit:4;stroke-dasharray:none;stroke-dashoffset:0;stroke-opacity:1;color-rendering:auto;image-rendering:auto;shape-rendering:auto;text-rendering:auto;enable-background:accumulate"
             d="m 400.2832,401.98438 c -2.21241,0 -4.27231,0.32902 -6.14843,1.02148 -1.84263,0.68006 -3.47923,1.6698 -4.84961,2.95312 -1.37567,1.25503 -2.4588,2.78386 -3.21289,4.52344 l -0.008,0.0156 -0.006,0.0176 c -0.72247,1.75433 -1.07617,3.65801 -1.07617,5.65626 0,1.9982 0.3537,3.90387 1.07617,5.6582 l 0.006,0.0176 0.008,0.0156 c 0.75289,1.7368 1.82802,3.27543 3.19335,4.5586 l 0.0117,0.0117 0.0117,0.01 c 1.37215,1.25048 3.00661,2.2177 4.84571,2.89648 1.87612,0.69248 3.93602,1.02149 6.14843,1.02149 2.17875,0 4.22087,-0.32947 6.08985,-1.01758 l 0.004,-0.002 c 1.86995,-0.67719 3.52443,-1.64269 4.90235,-2.89844 l 0.01,-0.01 0.0117,-0.0117 c 1.36567,-1.28349 2.42759,-2.82758 3.14844,-4.56836 0.76088,-1.75896 1.13672,-3.67481 1.13672,-5.68164 0,-2.00688 -0.37583,-3.92073 -1.13672,-5.67969 -0.72126,-1.74157 -1.78811,-3.27462 -3.16211,-4.5293 -1.3772,-1.29102 -3.03459,-2.27975 -4.91016,-2.95898 -1.87004,-0.68909 -3.91346,-1.01954 -6.09375,-1.01953 z m 0,4 c 1.77973,0 3.34054,0.26742 4.7168,0.77539 l 0.006,0.002 0.006,0.002 c 1.43042,0.51758 2.59072,1.22452 3.54883,2.125 l 0.0117,0.01 0.0117,0.0117 c 0.95384,0.86924 1.66639,1.8872 2.17774,3.1289 l 0.006,0.0176 0.008,0.0156 c 0.53569,1.23567 0.81055,2.57994 0.81055,4.09961 0,1.51961 -0.27486,2.86587 -0.81055,4.10156 l -0.008,0.0156 -0.006,0.0176 c -0.51112,1.24114 -1.231,2.28172 -2.19141,3.1875 -0.95773,0.87003 -2.12248,1.56823 -3.55859,2.08789 l -0.006,0.002 -0.006,0.002 c -1.37626,0.50797 -2.93708,0.77539 -4.7168,0.77539 -1.81545,0 -3.39149,-0.26892 -4.76367,-0.77539 -1.40473,-0.51847 -2.55867,-1.2168 -3.52344,-2.09375 -0.9613,-0.90678 -1.69723,-1.95588 -2.24023,-3.20117 -0.50811,-1.23918 -0.77344,-2.59297 -0.77344,-4.11914 0,-1.52623 0.26533,-2.87804 0.77344,-4.11719 0.54334,-1.24582 1.27338,-2.2741 2.22852,-3.14453 l 0.01,-0.0117 0.0117,-0.01 c 0.96485,-0.90682 2.11577,-1.61298 3.51367,-2.1289 1.37219,-0.50646 2.94822,-0.7754 4.76367,-0.77539 z"
             id="path4269"
             inkscape:connector-curvature="0" />
          <path
             style="color:#000000;font-style:normal;font-variant:normal;font-weight:normal;font-stretch:normal;font-size:medium;line-height:125%;font-family:Ubuntu;-inkscape-font-specification:'Ubuntu, Normal';font-variant-ligatures:normal;font-variant-position:normal;font-variant-caps:normal;font-variant-numeric:normal;font-variant-alternates:normal;font-feature-settings:normal;text-indent:0;text-align:start;text-decoration:none;text-decoration-line:none;text-decoration-style:solid;text-decoration-color:#000000;letter-spacing:0px;word-spacing:0px;text-transform:none;writing-mode:lr-tb;direction:ltr;text-orientation:mixed;dominant-baseline:auto;baseline-shift:baseline;text-anchor:start;white-space:normal;shape-padding:0;clip-rule:nonzero;display:inline;overflow:visible;visibility:visible;opacity:1;isolation:auto;mix-blend-mode:normal;color-interpolation:sRGB;color-interpolation-filters:linearRGB;solid-color:#000000;solid-opacity:1;fill:#808080;fill-opacity:1;fill-rule:nonzero;stroke:none;stroke-width:4.00079107;stroke-linecap:butt;stroke-linejoin:miter;stroke-miterlimit:4;stroke-dasharray:none;stroke-dashoffset:0;stroke-opacity:1;color-rendering:auto;image-rendering:auto;shape-rendering:auto;text-rendering:auto;enable-background:accumulate"
             d="m 375.9375,416.16406 c 0,9.64488 -1.05932,15.07099 -3.05273,17.74219 -0.99671,1.3356 -2.19811,2.13401 -4.00586,2.69141 -1.80776,0.5574 -4.21783,0.79793 -7.25782,0.80468 h -5.6914 v 4 h 5.69726 0.004 c 3.23429,-0.007 6.00035,-0.23397 8.42773,-0.98242 2.42738,-0.74845 4.5202,-2.09364 6.03321,-4.12109 3.02601,-4.0549 3.84765,-10.23305 3.84765,-20.13477 z"
             id="path4271"
             inkscape:connector-curvature="0" />
        </g>
      </g>
    </g>
  </g>
</svg>
