<?xml version="1.0" encoding="UTF-8" standalone="no"?>
<!-- Created with Inkscape (http://www.inkscape.org/) -->

<svg
   xmlns:dc="http://purl.org/dc/elements/1.1/"
   xmlns:cc="http://creativecommons.org/ns#"
   xmlns:rdf="http://www.w3.org/1999/02/22-rdf-syntax-ns#"
   xmlns:svg="http://www.w3.org/2000/svg"
   xmlns="http://www.w3.org/2000/svg"
   xmlns:sodipodi="http://sodipodi.sourceforge.net/DTD/sodipodi-0.dtd"
   xmlns:inkscape="http://www.inkscape.org/namespaces/inkscape"
   width="96"
   height="96"
   id="svg4874"
   version="1.1"
   inkscape:version="0.91+devel r"
   viewBox="0 0 96 96.000001"
   sodipodi:docname="contact-new.svg">
  <defs
     id="defs4876" />
  <sodipodi:namedview
     id="base"
     pagecolor="#ffffff"
     bordercolor="#666666"
     borderopacity="1.0"
     inkscape:pageopacity="0.0"
     inkscape:pageshadow="2"
     inkscape:zoom="17.150877"
     inkscape:cx="-6.9384225"
     inkscape:cy="56.839654"
     inkscape:document-units="px"
     inkscape:current-layer="g4780"
     showgrid="true"
     showborder="true"
     fit-margin-top="0"
     fit-margin-left="0"
     fit-margin-right="0"
     fit-margin-bottom="0"
     inkscape:snap-bbox="true"
     inkscape:bbox-paths="true"
     inkscape:bbox-nodes="true"
     inkscape:snap-bbox-edge-midpoints="true"
     inkscape:snap-bbox-midpoints="true"
     inkscape:object-paths="true"
     inkscape:snap-intersection-paths="true"
     inkscape:object-nodes="false"
     inkscape:snap-smooth-nodes="false"
     inkscape:snap-midpoints="false"
     inkscape:snap-object-midpoints="false"
     inkscape:snap-center="false"
     showguides="true"
     inkscape:guide-bbox="true"
     inkscape:snap-global="true"
     inkscape:snap-others="false">
    <inkscape:grid
       type="xygrid"
       id="grid5451"
       empspacing="8" />
    <sodipodi:guide
       orientation="1,0"
       position="8,-8.0000001"
       id="guide4063"
       inkscape:locked="false" />
    <sodipodi:guide
       orientation="1,0"
       position="4,-8.0000001"
       id="guide4065"
       inkscape:locked="false" />
    <sodipodi:guide
       orientation="0,1"
       position="-8,88.000001"
       id="guide4067"
       inkscape:locked="false" />
    <sodipodi:guide
       orientation="0,1"
       position="-8,92.000001"
       id="guide4069"
       inkscape:locked="false" />
    <sodipodi:guide
       orientation="0,1"
       position="104,4"
       id="guide4071"
       inkscape:locked="false" />
    <sodipodi:guide
       orientation="0,1"
       position="-5,8.0000001"
       id="guide4073"
       inkscape:locked="false" />
    <sodipodi:guide
       orientation="1,0"
       position="88,-8.0000001"
       id="guide4077"
       inkscape:locked="false" />
    <sodipodi:guide
       orientation="0,1"
       position="-8,84.000001"
       id="guide4074"
       inkscape:locked="false" />
    <sodipodi:guide
       orientation="1,0"
       position="12,-8.0000001"
       id="guide4076"
       inkscape:locked="false" />
    <sodipodi:guide
       orientation="1,0"
       position="84,-8.0000001"
       id="guide4080"
       inkscape:locked="false" />
    <sodipodi:guide
       position="48,-8.0000001"
       orientation="1,0"
       id="guide4170"
       inkscape:locked="false" />
    <sodipodi:guide
       position="-8,48"
       orientation="0,1"
       id="guide4172"
       inkscape:locked="false" />
    <sodipodi:guide
       position="92,-8.0000001"
       orientation="1,0"
       id="guide4760"
       inkscape:locked="false" />
  </sodipodi:namedview>
  <metadata
     id="metadata4879">
    <rdf:RDF>
      <cc:Work
         rdf:about="">
        <dc:format>image/svg+xml</dc:format>
        <dc:type
           rdf:resource="http://purl.org/dc/dcmitype/StillImage" />
        <dc:title />
      </cc:Work>
    </rdf:RDF>
  </metadata>
  <g
     inkscape:label="Layer 1"
     inkscape:groupmode="layer"
     id="layer1"
     transform="translate(67.857146,-78.50504)">
    <g
       transform="matrix(0,-1,-1,0,373.50506,516.50504)"
       id="g4845"
       style="display:inline">
      <g
         inkscape:export-ydpi="90"
         inkscape:export-xdpi="90"
         inkscape:export-filename="next01.png"
         transform="matrix(-0.9996045,0,0,1,575.94296,-611.00001)"
         id="g4778"
         inkscape:label="Layer 1">
        <g
           transform="matrix(-1,0,0,1,575.99999,611)"
           id="g4780"
           style="display:inline">
          <rect
             style="color:#000000;display:inline;overflow:visible;visibility:visible;fill:none;stroke:none;stroke-width:4;marker:none;enable-background:accumulate"
             id="rect4782"
             width="96.037987"
             height="96"
             x="-438.00244"
             y="345.36221"
             transform="scale(-1,1)" />
          <path
             style="color:#000000;display:inline;overflow:visible;visibility:visible;fill:#808080;fill-opacity:1;fill-rule:nonzero;stroke:none;stroke-width:7.5;marker:none;enable-background:accumulate"
             d="m 384.98148,371.3622 1.0004,-3.99998 -40.01574,0 0,3.99998 z"
             id="rect3470"
             inkscape:connector-curvature="0"
             sodipodi:nodetypes="ccccc" />
          <rect
             transform="scale(-1,1)"
             style="color:#000000;display:inline;overflow:visible;visibility:visible;fill:#808080;fill-opacity:1;fill-rule:nonzero;stroke:none;stroke-width:7.5;marker:none;enable-background:accumulate"
             id="rect3472"
             width="4.0014911"
             height="40.000053"
             x="-367.97476"
             y="349.36221" />
          <path
             style="color:#000000;font-style:normal;font-variant:normal;font-weight:normal;font-stretch:normal;font-size:medium;line-height:125%;font-family:Ubuntu;-inkscape-font-specification:'Ubuntu, Normal';font-variant-ligatures:normal;font-variant-position:normal;font-variant-caps:normal;font-variant-numeric:normal;font-variant-alternates:normal;font-feature-settings:normal;text-indent:0;text-align:start;text-decoration:none;text-decoration-line:none;text-decoration-style:solid;text-decoration-color:#000000;letter-spacing:0px;word-spacing:0px;text-transform:none;writing-mode:lr-tb;direction:ltr;text-orientation:mixed;dominant-baseline:auto;baseline-shift:baseline;text-anchor:start;white-space:normal;shape-padding:0;clip-rule:nonzero;display:inline;overflow:visible;visibility:visible;opacity:1;isolation:auto;mix-blend-mode:normal;color-interpolation:sRGB;color-interpolation-filters:linearRGB;solid-color:#000000;solid-opacity:1;fill:#808080;fill-opacity:1;fill-rule:nonzero;stroke:none;stroke-width:3.99999976;stroke-linecap:butt;stroke-linejoin:miter;stroke-miterlimit:4;stroke-dasharray:none;stroke-dashoffset:0;stroke-opacity:1;color-rendering:auto;image-rendering:auto;shape-rendering:auto;text-rendering:auto;enable-background:accumulate"
             d="M 35 2.5644531 C 32.67165 2.5644531 30.457751 2.9981208 28.425781 3.8769531 C 26.412051 4.7098436 24.632128 5.9356862 23.148438 7.5136719 L 23.136719 7.5253906 L 23.126953 7.5371094 C 21.676483 9.1279699 20.557924 11.039127 19.771484 13.210938 C 19.771484 13.210938 19.771484 13.212891 19.771484 13.212891 C 18.974584 15.376345 18.589844 17.743344 18.589844 20.28125 C 18.589844 22.85941 18.973711 25.252787 19.775391 27.423828 C 20.563391 29.557874 21.682323 31.444824 23.126953 33.029297 L 23.136719 33.041016 L 23.148438 33.052734 C 24.631818 34.63041 26.406206 35.871342 28.416016 36.742188 L 28.433594 36.748047 L 28.449219 36.755859 C 30.476559 37.590389 32.68026 38 35 38 C 37.3198 38 39.521488 37.590399 41.548828 36.755859 L 41.564453 36.748047 L 41.582031 36.742188 C 43.592031 35.871262 45.352671 34.624135 46.800781 33.039062 C 48.286681 31.455319 49.432536 29.563671 50.222656 27.423828 C 51.024326 25.252787 51.408193 22.8594 51.408203 20.28125 C 51.408193 17.743344 51.023453 15.376345 50.226562 13.212891 L 50.226562 13.210938 C 49.438103 11.033529 48.292611 9.1174846 46.800781 7.5273438 C 45.352331 5.942031 43.585886 4.7098836 41.572266 3.8769531 C 39.540296 2.9981208 37.32841 2.5644531 35 2.5644531 z M 35 6.5644531 C 36.84125 6.5644531 38.481534 6.8950768 39.990234 7.5488281 L 40.007812 7.5585938 L 40.025391 7.5664062 C 41.540121 8.1899196 42.792089 9.0621871 43.855469 10.228516 L 43.865234 10.240234 L 43.876953 10.251953 C 44.977653 11.42255 45.838054 12.840841 46.464844 14.572266 L 46.466797 14.578125 L 46.46875 14.583984 C 47.08591 16.255353 47.408193 18.141527 47.408203 20.28125 C 47.408193 22.462587 47.08441 24.371772 46.46875 26.039062 C 45.84362 27.732063 44.983993 29.135146 43.876953 30.3125 L 43.865234 30.324219 L 43.855469 30.335938 C 42.788989 31.505685 41.524563 32.402675 40.001953 33.064453 C 38.491993 33.682519 36.84454 34 35 34 C 33.15553 34 31.506074 33.682519 29.996094 33.064453 C 28.474954 32.403365 27.186715 31.501207 26.078125 30.326172 C 25.006555 29.148688 24.157177 27.73948 23.529297 26.039062 C 22.913637 24.371782 22.589844 22.462587 22.589844 20.28125 C 22.589844 18.141537 22.912127 16.255353 23.529297 14.583984 L 23.53125 14.578125 L 23.533203 14.572266 C 24.161853 12.835703 25.010589 11.412165 26.074219 10.242188 C 27.180519 9.0686618 28.457976 8.1898996 29.972656 7.5664062 L 29.990234 7.5585938 L 30.007812 7.5488281 C 31.516543 6.8950768 33.15882 6.5644531 35 6.5644531 z M 34.982422 43.980469 C 23.424652 43.980469 16.296649 44.893248 11.667969 48.144531 C 9.3536287 49.770168 7.8016706 52.031581 6.9316406 54.6875 C 6.0616106 57.343429 5.7951094 60.384757 5.7871094 63.943359 L 9.7871094 63.953125 C 9.7950194 60.600801 10.076275 57.940596 10.734375 55.931641 C 11.392465 53.922695 12.3476 52.556698 13.96875 51.417969 C 17.21105 49.1405 23.666502 47.980469 34.982422 47.980469 C 46.298352 47.980479 52.751444 49.14131 55.990234 51.417969 C 57.609624 52.556288 58.56357 53.921292 59.21875 55.929688 C 59.87394 57.938083 60.152297 60.597035 60.154297 63.949219 L 64.154297 63.947266 C 64.151647 60.388524 63.890038 57.345932 63.023438 54.689453 C 62.156837 52.032984 60.606189 49.770578 58.292969 48.144531 C 53.666529 44.892448 46.540202 43.980479 34.982422 43.980469 z "
             transform="matrix(0,-1,-1.0003957,0,438.00245,441.36222)"
             id="path4202-9" />
        </g>
      </g>
    </g>
  </g>
</svg>
