<?xml version="1.0" encoding="UTF-8" standalone="no"?>
<!-- Created with Inkscape (http://www.inkscape.org/) -->

<svg
   xmlns:dc="http://purl.org/dc/elements/1.1/"
   xmlns:cc="http://creativecommons.org/ns#"
   xmlns:rdf="http://www.w3.org/1999/02/22-rdf-syntax-ns#"
   xmlns:svg="http://www.w3.org/2000/svg"
   xmlns="http://www.w3.org/2000/svg"
   xmlns:sodipodi="http://sodipodi.sourceforge.net/DTD/sodipodi-0.dtd"
   xmlns:inkscape="http://www.inkscape.org/namespaces/inkscape"
   width="96"
   height="96"
   id="svg4874"
   version="1.1"
   inkscape:version="0.91+devel r"
   viewBox="0 0 96 96.000001"
   sodipodi:docname="document-open.svg">
  <defs
     id="defs4876" />
  <sodipodi:namedview
     id="base"
     pagecolor="#ffffff"
     bordercolor="#666666"
     borderopacity="1.0"
     inkscape:pageopacity="0.0"
     inkscape:pageshadow="2"
     inkscape:zoom="7.024999"
     inkscape:cx="-21.494672"
     inkscape:cy="43.850521"
     inkscape:document-units="px"
     inkscape:current-layer="g4780"
     showgrid="true"
     showborder="true"
     fit-margin-top="0"
     fit-margin-left="0"
     fit-margin-right="0"
     fit-margin-bottom="0"
     inkscape:snap-bbox="true"
     inkscape:bbox-paths="true"
     inkscape:bbox-nodes="true"
     inkscape:snap-bbox-edge-midpoints="true"
     inkscape:snap-bbox-midpoints="true"
     inkscape:object-paths="true"
     inkscape:snap-intersection-paths="true"
     inkscape:object-nodes="true"
     inkscape:snap-smooth-nodes="true"
     inkscape:snap-midpoints="true"
     inkscape:snap-object-midpoints="true"
     inkscape:snap-center="true"
     showguides="true"
     inkscape:guide-bbox="true"
     inkscape:snap-global="true">
    <inkscape:grid
       type="xygrid"
       id="grid5451"
       empspacing="8" />
    <sodipodi:guide
       orientation="1,0"
       position="8,-8.0000001"
       id="guide4063" />
    <sodipodi:guide
       orientation="1,0"
       position="4,-8.0000001"
       id="guide4065" />
    <sodipodi:guide
       orientation="0,1"
       position="-8,88.000001"
       id="guide4067" />
    <sodipodi:guide
       orientation="0,1"
       position="-8,92.000001"
       id="guide4069" />
    <sodipodi:guide
       orientation="0,1"
       position="104,4"
       id="guide4071" />
    <sodipodi:guide
       orientation="0,1"
       position="-5,8.0000001"
       id="guide4073" />
    <sodipodi:guide
       orientation="1,0"
       position="88,-8.0000001"
       id="guide4077" />
    <sodipodi:guide
       orientation="0,1"
       position="-8,84.000001"
       id="guide4074" />
    <sodipodi:guide
       orientation="1,0"
       position="12,-8.0000001"
       id="guide4076" />
    <sodipodi:guide
       orientation="1,0"
       position="84,-8.0000001"
       id="guide4080" />
    <sodipodi:guide
       position="48,-8.0000001"
       orientation="1,0"
       id="guide4170" />
    <sodipodi:guide
       position="-8,48"
       orientation="0,1"
       id="guide4172" />
    <sodipodi:guide
       position="92,-8.0000001"
       orientation="1,0"
       id="guide4760" />
  </sodipodi:namedview>
  <metadata
     id="metadata4879">
    <rdf:RDF>
      <cc:Work
         rdf:about="">
        <dc:format>image/svg+xml</dc:format>
        <dc:type
           rdf:resource="http://purl.org/dc/dcmitype/StillImage" />
        <dc:title></dc:title>
      </cc:Work>
    </rdf:RDF>
  </metadata>
  <g
     inkscape:label="Layer 1"
     inkscape:groupmode="layer"
     id="layer1"
     transform="translate(67.857146,-78.50504)">
    <g
       transform="matrix(0,-1,-1,0,373.50506,516.50504)"
       id="g4845"
       style="display:inline">
      <g
         inkscape:export-ydpi="90"
         inkscape:export-xdpi="90"
         inkscape:export-filename="next01.png"
         transform="matrix(-0.9996045,0,0,1,575.94296,-611.00001)"
         id="g4778"
         inkscape:label="Layer 1">
        <g
           transform="matrix(-1,0,0,1,575.99999,611)"
           id="g4780"
           style="display:inline">
          <rect
             style="color:#000000;display:inline;overflow:visible;visibility:visible;fill:none;stroke:none;stroke-width:4;marker:none;enable-background:accumulate"
             id="rect4782"
             width="96.037987"
             height="96"
             x="-438.00244"
             y="345.36221"
             transform="scale(-1,1)" />
          <path
             style="color:#000000;font-style:normal;font-variant:normal;font-weight:normal;font-stretch:normal;font-size:medium;line-height:normal;font-family:sans-serif;font-variant-ligatures:none;font-variant-position:normal;font-variant-caps:normal;font-variant-numeric:normal;font-variant-alternates:normal;font-feature-settings:normal;text-indent:0;text-align:start;text-decoration:none;text-decoration-line:none;text-decoration-style:solid;text-decoration-color:#000000;letter-spacing:normal;word-spacing:normal;text-transform:none;direction:ltr;block-progression:tb;writing-mode:lr-tb;baseline-shift:baseline;text-anchor:start;white-space:normal;shape-padding:0;clip-rule:nonzero;display:inline;overflow:visible;visibility:visible;opacity:1;isolation:auto;mix-blend-mode:normal;color-interpolation:sRGB;color-interpolation-filters:linearRGB;solid-color:#000000;solid-opacity:1;fill:#808080;fill-opacity:1;fill-rule:nonzero;stroke:none;stroke-width:4.00000048;stroke-linecap:butt;stroke-linejoin:miter;stroke-miterlimit:4;stroke-dasharray:none;stroke-dashoffset:0;stroke-opacity:1;marker:none;color-rendering:auto;image-rendering:auto;shape-rendering:auto;text-rendering:auto;enable-background:accumulate"
             d="M 19.976562 12 C 14.943803 12.058187 11.26124 11.883489 8.25 13.544922 C 6.74438 14.375633 5.5531413 15.778707 4.8945312 17.533203 C 4.2359313 19.287699 3.9980469 21.369641 3.9980469 24 L 3.9980469 72.001953 C 3.9980469 74.632312 4.2359313 76.712301 4.8945312 78.466797 C 5.5531413 80.221293 6.74438 81.628273 8.25 82.458984 C 11.26124 84.120407 14.943803 83.941823 19.976562 84 L 19.988281 84 L 27.994141 84 L 27.994141 80 L 20.021484 80 L 20 80 C 14.96042 79.941263 11.648104 79.763108 10.183594 78.955078 C 9.4500738 78.550358 9.030935 78.104232 8.640625 77.064453 C 8.250305 76.024665 8 74.371596 8 72.001953 L 8 24 C 8 21.630358 8.250305 19.977279 8.640625 18.9375 C 9.030935 17.897711 9.4500738 17.449632 10.183594 17.044922 C 11.650624 16.235502 14.967304 16.058377 20.021484 16 L 42.148438 16 L 50.234375 23.998047 L 75.974609 23.998047 C 81.028779 24.056474 84.347423 24.235502 85.814453 25.044922 C 86.547973 25.449642 86.967112 25.897721 87.357422 26.9375 C 87.747742 27.977289 87.998047 29.630358 87.998047 32 L 87.998047 72.001953 C 87.998047 74.371596 87.747742 76.024665 87.357422 77.064453 C 86.967112 78.104232 86.547973 78.550358 85.814453 78.955078 C 84.787583 79.521644 82.801458 79.769597 80 79.892578 L 80 36 L 35.998047 36 L 35.998047 38 L 35.998047 87.998047 L 80 87.998047 L 80 83.957031 C 83.088274 83.890973 85.594658 83.647096 87.748047 82.458984 C 89.253667 81.628273 90.444916 80.221293 91.103516 78.466797 C 91.762116 76.712301 92 74.632312 92 72.001953 L 92 32 C 92 29.369641 91.762116 27.287699 91.103516 25.533203 C 90.444916 23.778697 89.253667 22.37368 87.748047 21.542969 C 84.736807 19.881546 81.054244 20.058177 76.021484 20 L 76.009766 20 L 51.878906 20 L 43.792969 12 L 19.988281 12 L 19.976562 12 z M 40 40 L 75.998047 40 L 75.998047 80 C 75.989514 80.0001 75.983153 79.999901 75.974609 80 L 75.998047 82 L 75.998047 84 L 40 84 L 40 40 z M 48 48.048828 L 48 51.951172 L 68 51.951172 L 68 48.048828 L 48 48.048828 z M 48 60.048828 L 48 63.951172 L 68 63.951172 L 68 60.048828 L 48 60.048828 z M 48 72.048828 L 48 75.951172 L 68 75.951172 L 68 72.048828 L 48 72.048828 z "
             transform="matrix(0,-1,-1.0003957,0,438.00245,441.36222)"
             id="path4211" />
        </g>
      </g>
    </g>
  </g>
</svg>
