<?xml version="1.0" encoding="UTF-8" standalone="no"?>
<!-- Created with Inkscape (http://www.inkscape.org/) -->

<svg
   xmlns:dc="http://purl.org/dc/elements/1.1/"
   xmlns:cc="http://creativecommons.org/ns#"
   xmlns:rdf="http://www.w3.org/1999/02/22-rdf-syntax-ns#"
   xmlns:svg="http://www.w3.org/2000/svg"
   xmlns="http://www.w3.org/2000/svg"
   xmlns:sodipodi="http://sodipodi.sourceforge.net/DTD/sodipodi-0.dtd"
   xmlns:inkscape="http://www.inkscape.org/namespaces/inkscape"
   width="96"
   height="96"
   id="svg4874"
   version="1.1"
   inkscape:version="0.91+devel r"
   viewBox="0 0 96 96.000001"
   sodipodi:docname="import.svg">
  <defs
     id="defs4876" />
  <sodipodi:namedview
     id="base"
     pagecolor="#ffffff"
     bordercolor="#666666"
     borderopacity="1.0"
     inkscape:pageopacity="0.0"
     inkscape:pageshadow="2"
     inkscape:zoom="7.024999"
     inkscape:cx="-50.134238"
     inkscape:cy="59.266894"
     inkscape:document-units="px"
     inkscape:current-layer="layer1"
     showgrid="true"
     showborder="true"
     fit-margin-top="0"
     fit-margin-left="0"
     fit-margin-right="0"
     fit-margin-bottom="0"
     inkscape:snap-bbox="true"
     inkscape:bbox-paths="true"
     inkscape:bbox-nodes="true"
     inkscape:snap-bbox-edge-midpoints="true"
     inkscape:snap-bbox-midpoints="true"
     inkscape:object-paths="true"
     inkscape:snap-intersection-paths="true"
     inkscape:object-nodes="true"
     inkscape:snap-smooth-nodes="true"
     inkscape:snap-midpoints="true"
     inkscape:snap-object-midpoints="true"
     inkscape:snap-center="true"
     showguides="true"
     inkscape:guide-bbox="true"
     inkscape:snap-global="true">
    <inkscape:grid
       type="xygrid"
       id="grid5451"
       empspacing="8" />
    <sodipodi:guide
       orientation="1,0"
       position="8,-8.0000001"
       id="guide4063"
       inkscape:locked="false" />
    <sodipodi:guide
       orientation="1,0"
       position="4,-8.0000001"
       id="guide4065"
       inkscape:locked="false" />
    <sodipodi:guide
       orientation="0,1"
       position="-8,88.000001"
       id="guide4067"
       inkscape:locked="false" />
    <sodipodi:guide
       orientation="0,1"
       position="-8,92.000001"
       id="guide4069"
       inkscape:locked="false" />
    <sodipodi:guide
       orientation="0,1"
       position="104,4"
       id="guide4071"
       inkscape:locked="false" />
    <sodipodi:guide
       orientation="0,1"
       position="-5,8.0000001"
       id="guide4073"
       inkscape:locked="false" />
    <sodipodi:guide
       orientation="1,0"
       position="88,-8.0000001"
       id="guide4077"
       inkscape:locked="false" />
    <sodipodi:guide
       orientation="0,1"
       position="-8,84.000001"
       id="guide4074"
       inkscape:locked="false" />
    <sodipodi:guide
       orientation="1,0"
       position="12,-8.0000001"
       id="guide4076"
       inkscape:locked="false" />
    <sodipodi:guide
       orientation="1,0"
       position="84,-8.0000001"
       id="guide4080"
       inkscape:locked="false" />
    <sodipodi:guide
       position="48,-8.0000001"
       orientation="1,0"
       id="guide4170"
       inkscape:locked="false" />
    <sodipodi:guide
       position="-8,48"
       orientation="0,1"
       id="guide4172"
       inkscape:locked="false" />
    <sodipodi:guide
       position="92,-8.0000001"
       orientation="1,0"
       id="guide4760"
       inkscape:locked="false" />
  </sodipodi:namedview>
  <metadata
     id="metadata4879">
    <rdf:RDF>
      <cc:Work
         rdf:about="">
        <dc:format>image/svg+xml</dc:format>
        <dc:type
           rdf:resource="http://purl.org/dc/dcmitype/StillImage" />
        <dc:title></dc:title>
      </cc:Work>
    </rdf:RDF>
  </metadata>
  <g
     inkscape:label="Layer 1"
     inkscape:groupmode="layer"
     id="layer1"
     transform="translate(67.857146,-78.50504)">
    <rect
       transform="rotate(90)"
       y="-28.142855"
       x="78.505043"
       height="96"
       width="96"
       id="rect4782-2"
       style="color:#000000;display:inline;overflow:visible;visibility:visible;fill:none;stroke:none;stroke-width:3.99999976;marker:none;enable-background:accumulate" />
    <path
       style="color:#000000;font-style:normal;font-variant:normal;font-weight:normal;font-stretch:normal;font-size:medium;line-height:normal;font-family:sans-serif;font-variant-ligatures:normal;font-variant-position:normal;font-variant-caps:normal;font-variant-numeric:normal;font-variant-alternates:normal;font-feature-settings:normal;text-indent:0;text-align:start;text-decoration:none;text-decoration-line:none;text-decoration-style:solid;text-decoration-color:#000000;letter-spacing:normal;word-spacing:normal;text-transform:none;writing-mode:lr-tb;direction:ltr;baseline-shift:baseline;text-anchor:start;white-space:normal;shape-padding:0;clip-rule:nonzero;display:inline;overflow:visible;visibility:visible;opacity:1;isolation:auto;mix-blend-mode:normal;color-interpolation:sRGB;color-interpolation-filters:linearRGB;solid-color:#000000;solid-opacity:1;fill:#808080;fill-opacity:1;fill-rule:nonzero;stroke:none;stroke-width:4;stroke-linecap:butt;stroke-linejoin:miter;stroke-miterlimit:4;stroke-dasharray:none;stroke-dashoffset:0;stroke-opacity:1;marker:none;color-rendering:auto;image-rendering:auto;shape-rendering:auto;text-rendering:auto;enable-background:accumulate"
       d="m -39.869162,98.503875 -0.01134,0.002 c -5.032781,0.0582 -8.713625,-0.12019 -11.724623,1.541035 -1.5055,0.83062 -2.696807,2.23555 -3.355465,3.99023 -0.658658,1.75465 -0.896466,3.83637 -0.896466,6.46681 v 48.00193 c 0,2.63044 0.237732,4.71216 0.896466,6.46681 0.658658,1.75464 1.849965,3.15957 3.355465,3.99023 3.010998,1.66129 6.691842,1.48479 11.724623,1.54296 h 0.01134 40.02341859 0.01134 c 5.03278101,-0.0582 8.71362501,0.1183 11.72462441,-1.54296 1.505499,-0.83066 2.696806,-2.23559 3.355464,-3.99023 0.658658,-1.75465 0.896504,-3.83637 0.896504,-6.46681 v -48.00192 c 0,-2.63044 -0.237732,-4.71217 -0.896504,-6.46681 -0.658659,-1.75469 -1.849966,-3.15961 -3.355465,-3.99024 C 8.8792206,98.385575 5.1983766,98.564005 0.16559559,98.505835 l -0.01134,-0.002 -12.01171559,0.002 v 3.999995 l 11.97656659,-0.002 c 5.05417301,0.0586 8.37256001,0.23547 9.83984901,1.04493 0.7336444,0.40479 1.1527184,0.85493 1.5429924,1.89452 0.390236,1.03964 0.640592,2.69099 0.640592,5.06056 v 48.00197 c 0,2.36954 -0.250205,4.02089 -0.640592,5.06052 -0.390274,1.03964 -0.809348,1.48978 -1.5429924,1.89453 -1.46453,0.80806 -4.778155,0.98615 -9.81641601,1.04492 h -39.97655259 -0.02268 c -5.038261,-0.059 -8.351886,-0.23697 -9.816416,-1.04492 -0.733644,-0.40475 -1.150752,-0.85489 -1.540988,-1.89453 -0.390274,-1.03963 -0.642596,-2.69098 -0.642596,-5.06052 v -48.00197 c 0,-2.36957 0.252473,-4.02092 0.642596,-5.06056 0.390236,-1.0396 0.807344,-1.48974 1.540988,-1.89452 1.46453,-0.80807 4.778155,-0.98616 9.816416,-1.04493 l 12,0.002 v -3.999995 z"
       id="path4643-2"
       inkscape:connector-curvature="0" />
    <path
       style="font-style:normal;font-variant:normal;font-weight:normal;font-stretch:normal;font-size:15px;line-height:125%;font-family:Ubuntu;-inkscape-font-specification:Ubuntu;text-align:center;letter-spacing:0px;word-spacing:0px;writing-mode:lr-tb;text-anchor:middle;display:inline;fill:#808080;fill-opacity:1;stroke:none;stroke-width:0.99980223"
       d="m -21.857597,82.505015 v 50.000065 h 3.999987 V 82.505015 Z"
       id="path4237"
       inkscape:connector-curvature="0" />
    <path
       style="color:#000000;display:inline;overflow:visible;visibility:visible;opacity:1;fill:#808080;fill-opacity:1;fill-rule:nonzero;stroke:none;stroke-width:2.99940658;marker:none;enable-background:accumulate"
       d="m -7.8571314,124.50503 -23.9999996,0.008 c 1.668737,3.65007 3.535899,7.36595 5.59869,11.14922 2.067779,3.74774 4.200529,7.36282 6.400289,10.84286 2.155729,-3.48004 4.268032,-7.09512 6.335811,-10.84286 2.063925,-3.78535 3.9519116,-7.50334 5.6652096,-11.15535 z"
       id="path5588-9-2-96-04"
       inkscape:connector-curvature="0" />
  </g>
</svg>
