<?xml version="1.0" encoding="UTF-8" standalone="no"?>
<!-- Created with Inkscape (http://www.inkscape.org/) -->

<svg
   xmlns:dc="http://purl.org/dc/elements/1.1/"
   xmlns:cc="http://creativecommons.org/ns#"
   xmlns:rdf="http://www.w3.org/1999/02/22-rdf-syntax-ns#"
   xmlns:svg="http://www.w3.org/2000/svg"
   xmlns="http://www.w3.org/2000/svg"
   xmlns:sodipodi="http://sodipodi.sourceforge.net/DTD/sodipodi-0.dtd"
   xmlns:inkscape="http://www.inkscape.org/namespaces/inkscape"
   width="96"
   height="96"
   id="svg4874"
   version="1.1"
   inkscape:version="0.91+devel r"
   viewBox="0 0 96 96.000001"
   sodipodi:docname="insert-link.svg">
  <defs
     id="defs4876" />
  <sodipodi:namedview
     id="base"
     pagecolor="#ffffff"
     bordercolor="#666666"
     borderopacity="1.0"
     inkscape:pageopacity="0.0"
     inkscape:pageshadow="2"
     inkscape:zoom="7.024999"
     inkscape:cx="39.827402"
     inkscape:cy="59.266894"
     inkscape:document-units="px"
     inkscape:current-layer="layer1"
     showgrid="true"
     showborder="true"
     fit-margin-top="0"
     fit-margin-left="0"
     fit-margin-right="0"
     fit-margin-bottom="0"
     inkscape:snap-bbox="true"
     inkscape:bbox-paths="true"
     inkscape:bbox-nodes="true"
     inkscape:snap-bbox-edge-midpoints="true"
     inkscape:snap-bbox-midpoints="true"
     inkscape:object-paths="true"
     inkscape:snap-intersection-paths="true"
     inkscape:object-nodes="true"
     inkscape:snap-smooth-nodes="true"
     inkscape:snap-midpoints="true"
     inkscape:snap-object-midpoints="true"
     inkscape:snap-center="true"
     showguides="true"
     inkscape:guide-bbox="true"
     inkscape:snap-global="true">
    <inkscape:grid
       type="xygrid"
       id="grid5451"
       empspacing="8" />
    <sodipodi:guide
       orientation="1,0"
       position="8,-8.0000001"
       id="guide4063"
       inkscape:locked="false" />
    <sodipodi:guide
       orientation="1,0"
       position="4,-8.0000001"
       id="guide4065"
       inkscape:locked="false" />
    <sodipodi:guide
       orientation="0,1"
       position="-8,88.000001"
       id="guide4067"
       inkscape:locked="false" />
    <sodipodi:guide
       orientation="0,1"
       position="-8,92.000001"
       id="guide4069"
       inkscape:locked="false" />
    <sodipodi:guide
       orientation="0,1"
       position="104,4"
       id="guide4071"
       inkscape:locked="false" />
    <sodipodi:guide
       orientation="0,1"
       position="-5,8.0000001"
       id="guide4073"
       inkscape:locked="false" />
    <sodipodi:guide
       orientation="1,0"
       position="88,-8.0000001"
       id="guide4077"
       inkscape:locked="false" />
    <sodipodi:guide
       orientation="0,1"
       position="-8,84.000001"
       id="guide4074"
       inkscape:locked="false" />
    <sodipodi:guide
       orientation="1,0"
       position="12,-8.0000001"
       id="guide4076"
       inkscape:locked="false" />
    <sodipodi:guide
       orientation="1,0"
       position="84,-8.0000001"
       id="guide4080"
       inkscape:locked="false" />
    <sodipodi:guide
       position="48,-8.0000001"
       orientation="1,0"
       id="guide4170"
       inkscape:locked="false" />
    <sodipodi:guide
       position="-8,48"
       orientation="0,1"
       id="guide4172"
       inkscape:locked="false" />
    <sodipodi:guide
       position="92,-8.0000001"
       orientation="1,0"
       id="guide4760"
       inkscape:locked="false" />
  </sodipodi:namedview>
  <metadata
     id="metadata4879">
    <rdf:RDF>
      <cc:Work
         rdf:about="">
        <dc:format>image/svg+xml</dc:format>
        <dc:type
           rdf:resource="http://purl.org/dc/dcmitype/StillImage" />
        <dc:title></dc:title>
      </cc:Work>
    </rdf:RDF>
  </metadata>
  <g
     inkscape:label="Layer 1"
     inkscape:groupmode="layer"
     id="layer1"
     transform="translate(67.857146,-78.50504)">
    <rect
       transform="rotate(90)"
       y="-28.142855"
       x="78.505035"
       height="96"
       width="96.000008"
       id="rect4782-6"
       style="color:#000000;display:inline;overflow:visible;visibility:visible;fill:none;stroke:none;stroke-width:3.99920893;marker:none;enable-background:accumulate" />
    <path
       sodipodi:nodetypes="cc"
       inkscape:connector-curvature="0"
       id="path4188"
       d="M -39.857122,116.50502 H 0.14286173"
       style="color:#000000;display:inline;overflow:visible;visibility:visible;opacity:1;fill:none;fill-opacity:1;fill-rule:nonzero;stroke:#808080;stroke-width:3.99999976;stroke-linecap:butt;stroke-linejoin:miter;stroke-miterlimit:4;stroke-dasharray:none;stroke-dashoffset:0;stroke-opacity:1;marker:none;enable-background:accumulate" />
    <path
       id="path4156-6"
       d="m -45.880593,100.50502 c -5.031232,0.0582 -9.177411,-0.0629 -12.582009,1.47266 -1.7023,0.76778 -3.183572,2.06548 -4.095723,3.85547 -0.912151,1.78998 -1.300762,3.97489 -1.300762,6.67188 v 8 c 0,2.69698 0.388611,4.88189 1.300762,6.67187 0.912151,1.78999 2.393423,3.08963 4.095723,3.85742 3.404598,1.53555 7.550777,1.41253 12.582009,1.4707 h 0.01134 4.021493 0.01134 c 5.031231,-0.0582 9.177411,0.0649 12.582052,-1.4707 1.24682,-0.56236 2.37316,-1.41302 3.24608,-2.52929 h -15.851568 -0.02268 -1.974615 -1.978507 -0.02268 c -5.04359,-0.0586 -8.89062,-0.18343 -10.960932,-1.11719 -1.036838,-0.46763 -1.664012,-1.0211 -2.17576,-2.02539 -0.511786,-1.00429 -0.863282,-2.5544 -0.863282,-4.85742 v -8 c 0,-2.30302 0.351496,-3.85312 0.863282,-4.85742 0.511748,-1.0043 1.138922,-1.55776 2.17576,-2.0254 2.073676,-0.93527 5.926715,-1.05871 10.982438,-1.11718 h 1.978507 1.998047 15.85157 c -0.87292,-1.11628 -1.99926,-1.96499 -3.24609,-2.52735 -3.404636,-1.53555 -7.550815,-1.41448 -12.582047,-1.47266 h -0.01134 -4.021493 z"
       style="color:#000000;font-style:normal;font-variant:normal;font-weight:normal;font-stretch:normal;font-size:medium;line-height:normal;font-family:sans-serif;text-indent:0;text-align:start;text-decoration:none;text-decoration-line:none;text-decoration-style:solid;text-decoration-color:#000000;letter-spacing:normal;word-spacing:normal;text-transform:none;writing-mode:lr-tb;direction:ltr;baseline-shift:baseline;text-anchor:start;white-space:normal;clip-rule:nonzero;display:inline;overflow:visible;visibility:visible;opacity:1;isolation:auto;mix-blend-mode:normal;color-interpolation:sRGB;color-interpolation-filters:linearRGB;solid-color:#000000;solid-opacity:1;fill:#808080;fill-opacity:1;fill-rule:nonzero;stroke:none;stroke-width:4.00079155;stroke-linecap:butt;stroke-linejoin:miter;stroke-miterlimit:4;stroke-dasharray:none;stroke-dashoffset:0;stroke-opacity:1;marker:none;color-rendering:auto;image-rendering:auto;shape-rendering:auto;text-rendering:auto;enable-background:accumulate"
       inkscape:connector-curvature="0" />
    <path
       inkscape:connector-curvature="0"
       style="color:#000000;font-style:normal;font-variant:normal;font-weight:normal;font-stretch:normal;font-size:medium;line-height:normal;font-family:sans-serif;text-indent:0;text-align:start;text-decoration:none;text-decoration-line:none;text-decoration-style:solid;text-decoration-color:#000000;letter-spacing:normal;word-spacing:normal;text-transform:none;writing-mode:lr-tb;direction:ltr;baseline-shift:baseline;text-anchor:start;white-space:normal;clip-rule:nonzero;display:inline;overflow:visible;visibility:visible;opacity:1;isolation:auto;mix-blend-mode:normal;color-interpolation:sRGB;color-interpolation-filters:linearRGB;solid-color:#000000;solid-opacity:1;fill:#808080;fill-opacity:1;fill-rule:nonzero;stroke:none;stroke-width:4;stroke-linecap:butt;stroke-linejoin:miter;stroke-miterlimit:4;stroke-dasharray:none;stroke-dashoffset:0;stroke-opacity:1;marker:none;color-rendering:auto;image-rendering:auto;shape-rendering:auto;text-rendering:auto;enable-background:accumulate"
       d="m 6.0139417,100.50503 c 5.0312703,0.0582 9.1774503,-0.063 12.5820503,1.47265 1.7023,0.76777 3.18357,2.06548 4.09572,3.85547 0.91212,1.78998 1.30077,3.97489 1.30077,6.67187 v 8.00001 c 0,2.69698 -0.38865,4.88189 -1.30077,6.67187 -0.91215,1.78999 -2.39342,3.08963 -4.09572,3.85742 -3.4046,1.53554 -7.55078,1.41253 -12.5820503,1.47071 h -0.0113 -4.02149 -0.0113 c -5.03127,-0.0582 -9.17745,0.0649 -12.5820497,-1.47071 -1.24683,-0.56236 -2.3732,-1.41302 -3.24608,-2.52929 h 15.8515597 0.0227 1.97462 1.9785 0.0227 c 5.0436003,-0.0586 8.8906303,-0.18342 10.9609403,-1.1172 1.0368,-0.46762 1.66401,-1.02109 2.17576,-2.02539 0.51178,-1.00429 0.86328,-2.55439 0.86328,-4.85741 v -8.00001 c 0,-2.30302 -0.3515,-3.85311 -0.86328,-4.85741 -0.51175,-1.0043 -1.13897,-1.55776 -2.17577,-2.02539 -2.07367,-0.93528 -5.92675,-1.05872 -10.9824303,-1.11719 h -1.97851 -1.99805 -15.8515597 c 0.87292,-1.11628 1.99925,-1.96499 3.24608,-2.52735 3.4045997,-1.53555 7.5508197,-1.41447 12.5820497,-1.47265 h 0.0113 4.02149 0.0113 z"
       id="path4161" />
    <path
       style="color:#000000;display:inline;overflow:visible;visibility:visible;opacity:1;fill:#808080;fill-opacity:1;fill-rule:nonzero;stroke:none;stroke-width:2.99940658;marker:none;enable-background:accumulate"
       d="m -7.8670083,148.5187 -23.9999997,0.008 c 1.66873,3.65008 3.53593,7.36596 5.59872,11.14923 2.06778,3.74774 4.20049,7.36282 6.40026,10.84286 2.15576,-3.48004 4.26806,-7.09512 6.33584,-10.84286 2.06393,-3.78535 3.9518797,-7.50335 5.6651797,-11.15535 z"
       id="path5588-9-2-1"
       inkscape:connector-curvature="0" />
  </g>
</svg>
