<?xml version="1.0" encoding="UTF-8" standalone="no"?>
<!-- Created with Inkscape (http://www.inkscape.org/) -->

<svg
   xmlns:dc="http://purl.org/dc/elements/1.1/"
   xmlns:cc="http://creativecommons.org/ns#"
   xmlns:rdf="http://www.w3.org/1999/02/22-rdf-syntax-ns#"
   xmlns:svg="http://www.w3.org/2000/svg"
   xmlns="http://www.w3.org/2000/svg"
   xmlns:sodipodi="http://sodipodi.sourceforge.net/DTD/sodipodi-0.dtd"
   xmlns:inkscape="http://www.inkscape.org/namespaces/inkscape"
   width="96"
   height="96"
   id="svg4874"
   version="1.1"
   inkscape:version="0.91+devel r"
   viewBox="0 0 96 96.000001"
   sodipodi:docname="livetv.svg">
  <defs
     id="defs4876" />
  <sodipodi:namedview
     id="base"
     pagecolor="#ffffff"
     bordercolor="#666666"
     borderopacity="1.0"
     inkscape:pageopacity="0.0"
     inkscape:pageshadow="2"
     inkscape:zoom="4.4959994"
     inkscape:cx="-152.95821"
     inkscape:cy="18.916789"
     inkscape:document-units="px"
     inkscape:current-layer="layer1"
     showgrid="true"
     showborder="true"
     fit-margin-top="0"
     fit-margin-left="0"
     fit-margin-right="0"
     fit-margin-bottom="0"
     inkscape:snap-bbox="true"
     inkscape:bbox-paths="true"
     inkscape:bbox-nodes="true"
     inkscape:snap-bbox-edge-midpoints="true"
     inkscape:snap-bbox-midpoints="true"
     inkscape:object-paths="true"
     inkscape:snap-intersection-paths="true"
     inkscape:object-nodes="true"
     inkscape:snap-smooth-nodes="true"
     inkscape:snap-midpoints="true"
     inkscape:snap-object-midpoints="true"
     inkscape:snap-center="true"
     showguides="true"
     inkscape:guide-bbox="true"
     inkscape:snap-global="true">
    <inkscape:grid
       type="xygrid"
       id="grid5451"
       empspacing="8" />
    <sodipodi:guide
       orientation="1,0"
       position="8,-8.0000001"
       id="guide4063"
       inkscape:locked="false" />
    <sodipodi:guide
       orientation="1,0"
       position="4,-8.0000001"
       id="guide4065"
       inkscape:locked="false" />
    <sodipodi:guide
       orientation="0,1"
       position="-8,88.000001"
       id="guide4067"
       inkscape:locked="false" />
    <sodipodi:guide
       orientation="0,1"
       position="-8,92.000001"
       id="guide4069"
       inkscape:locked="false" />
    <sodipodi:guide
       orientation="0,1"
       position="104,4"
       id="guide4071"
       inkscape:locked="false" />
    <sodipodi:guide
       orientation="0,1"
       position="-5,8.0000001"
       id="guide4073"
       inkscape:locked="false" />
    <sodipodi:guide
       orientation="1,0"
       position="88,-8.0000001"
       id="guide4077"
       inkscape:locked="false" />
    <sodipodi:guide
       orientation="0,1"
       position="-8,84.000001"
       id="guide4074"
       inkscape:locked="false" />
    <sodipodi:guide
       orientation="1,0"
       position="12,-8.0000001"
       id="guide4076"
       inkscape:locked="false" />
    <sodipodi:guide
       orientation="1,0"
       position="84,-8.0000001"
       id="guide4080"
       inkscape:locked="false" />
    <sodipodi:guide
       position="48,-8.0000001"
       orientation="1,0"
       id="guide4170"
       inkscape:locked="false" />
    <sodipodi:guide
       position="-8,48"
       orientation="0,1"
       id="guide4172"
       inkscape:locked="false" />
    <sodipodi:guide
       position="92,-8.0000001"
       orientation="1,0"
       id="guide4760"
       inkscape:locked="false" />
  </sodipodi:namedview>
  <metadata
     id="metadata4879">
    <rdf:RDF>
      <cc:Work
         rdf:about="">
        <dc:format>image/svg+xml</dc:format>
        <dc:type
           rdf:resource="http://purl.org/dc/dcmitype/StillImage" />
        <dc:title />
      </cc:Work>
    </rdf:RDF>
  </metadata>
  <g
     inkscape:label="Layer 1"
     inkscape:groupmode="layer"
     id="layer1"
     transform="translate(67.857146,-78.50504)">
    <rect
       transform="rotate(90)"
       y="-28.142857"
       x="78.505051"
       height="96"
       width="96"
       id="rect4782"
       style="color:#000000;display:inline;overflow:visible;visibility:visible;fill:none;stroke:none;stroke-width:4;marker:none;enable-background:accumulate" />
    <path
       style="color:#000000;font-style:normal;font-variant:normal;font-weight:normal;font-stretch:normal;font-size:medium;line-height:normal;font-family:sans-serif;font-variant-ligatures:normal;font-variant-position:normal;font-variant-caps:normal;font-variant-numeric:normal;font-variant-alternates:normal;font-feature-settings:normal;text-indent:0;text-align:start;text-decoration:none;text-decoration-line:none;text-decoration-style:solid;text-decoration-color:#000000;letter-spacing:normal;word-spacing:normal;text-transform:none;writing-mode:lr-tb;direction:ltr;text-orientation:mixed;baseline-shift:baseline;text-anchor:start;white-space:normal;shape-padding:0;clip-rule:nonzero;display:inline;overflow:visible;visibility:visible;opacity:1;isolation:auto;mix-blend-mode:normal;color-interpolation:sRGB;color-interpolation-filters:linearRGB;solid-color:#000000;solid-opacity:1;fill:#808080;fill-opacity:1;fill-rule:nonzero;stroke:none;stroke-width:4.00000048;stroke-linecap:butt;stroke-linejoin:miter;stroke-miterlimit:4;stroke-dasharray:none;stroke-dashoffset:0;stroke-opacity:1;marker:none;color-rendering:auto;image-rendering:auto;shape-rendering:auto;text-rendering:auto;enable-background:accumulate"
       d="M 33.414062 7.5859375 L 30.585938 10.414062 L 44.171875 23.998047 L 19.988281 23.998047 L 19.976562 24 C 14.943787 24.0582 11.262944 23.879726 8.2519531 25.541016 C 6.7464581 26.371666 5.5551474 27.77659 4.8964844 29.53125 C 4.2378224 31.28591 4 33.367607 4 35.998047 L 4 76 C 4 78.63043 4.2378224 80.712137 4.8964844 82.466797 C 5.5551474 84.221447 6.7464581 85.626391 8.2519531 86.457031 C 11.262944 88.118321 14.943787 87.94182 19.976562 88 L 19.988281 88 L 76.011719 88 L 76.023438 88 C 81.056213 87.9418 84.737057 88.118321 87.748047 86.457031 C 89.253542 85.626391 90.444854 84.221447 91.103516 82.466797 C 91.762178 80.712137 92 78.63043 92 76 L 92 35.998047 C 92 33.367607 91.762178 31.28591 91.103516 29.53125 C 90.444854 27.77659 89.253542 26.371666 87.748047 25.541016 C 84.737057 23.879726 81.056212 24.05818 76.023438 24 L 76.011719 23.998047 L 51.828125 23.998047 L 65.412109 10.414062 L 62.583984 7.5859375 L 47.998047 22.169922 L 33.414062 7.5859375 z M 20 27.998047 L 64 27.998047 C 69.038254 28.056847 72.351872 28.234919 73.816406 29.042969 C 74.550044 29.447749 74.969122 29.89788 75.359375 30.9375 C 75.749629 31.97712 76 33.628477 76 35.998047 L 76 76 C 76 78.36956 75.749629 80.020917 75.359375 81.060547 C 74.969122 82.100167 74.550044 82.550298 73.816406 82.955078 C 72.351872 83.763118 69.038253 83.94124 64 84 L 20.023438 84 L 20 84 C 14.961747 83.9412 11.648128 83.763118 10.183594 82.955078 C 9.4499565 82.550298 9.0328321 82.100167 8.6425781 81.060547 C 8.2523251 80.020917 8 78.36956 8 76 L 8 35.998047 C 8 33.628477 8.2523251 31.97712 8.6425781 30.9375 C 9.0328321 29.89788 9.4499564 29.447749 10.183594 29.042969 C 11.648128 28.234919 14.961747 28.056807 20 27.998047 z M 84 34 A 3 3 0 0 1 87 37 A 3 3 0 0 1 84 40 A 3 3 0 0 1 81 37 A 3 3 0 0 1 84 34 z M 84 46 A 3 3 0 0 1 87 49 A 3 3 0 0 1 84 52 A 3 3 0 0 1 81 49 A 3 3 0 0 1 84 46 z "
       transform="translate(-67.857146,78.50504)"
       id="path4643" />
  </g>
</svg>
