<?xml version="1.0" encoding="UTF-8" standalone="no"?>
<!-- Created with Inkscape (http://www.inkscape.org/) -->

<svg
   xmlns:dc="http://purl.org/dc/elements/1.1/"
   xmlns:cc="http://creativecommons.org/ns#"
   xmlns:rdf="http://www.w3.org/1999/02/22-rdf-syntax-ns#"
   xmlns:svg="http://www.w3.org/2000/svg"
   xmlns="http://www.w3.org/2000/svg"
   xmlns:sodipodi="http://sodipodi.sourceforge.net/DTD/sodipodi-0.dtd"
   xmlns:inkscape="http://www.inkscape.org/namespaces/inkscape"
   width="96"
   height="96"
   id="svg4874"
   version="1.1"
   inkscape:version="0.91+devel r"
   viewBox="0 0 96 96.000001"
   sodipodi:docname="media-playlist-repeat.svg">
  <defs
     id="defs4876" />
  <sodipodi:namedview
     id="base"
     pagecolor="#ffffff"
     bordercolor="#666666"
     borderopacity="1.0"
     inkscape:pageopacity="0.0"
     inkscape:pageshadow="2"
     inkscape:zoom="7.024999"
     inkscape:cx="-53.950191"
     inkscape:cy="59.266894"
     inkscape:document-units="px"
     inkscape:current-layer="layer1"
     showgrid="true"
     showborder="true"
     fit-margin-top="0"
     fit-margin-left="0"
     fit-margin-right="0"
     fit-margin-bottom="0"
     inkscape:snap-bbox="true"
     inkscape:bbox-paths="true"
     inkscape:bbox-nodes="true"
     inkscape:snap-bbox-edge-midpoints="true"
     inkscape:snap-bbox-midpoints="true"
     inkscape:object-paths="true"
     inkscape:snap-intersection-paths="true"
     inkscape:object-nodes="true"
     inkscape:snap-smooth-nodes="true"
     inkscape:snap-midpoints="true"
     inkscape:snap-object-midpoints="true"
     inkscape:snap-center="true"
     showguides="true"
     inkscape:guide-bbox="true"
     inkscape:snap-global="true">
    <inkscape:grid
       type="xygrid"
       id="grid5451"
       empspacing="8" />
    <sodipodi:guide
       orientation="1,0"
       position="8,-8.0000001"
       id="guide4063"
       inkscape:locked="false" />
    <sodipodi:guide
       orientation="1,0"
       position="4,-8.0000001"
       id="guide4065"
       inkscape:locked="false" />
    <sodipodi:guide
       orientation="0,1"
       position="-8,88.000001"
       id="guide4067"
       inkscape:locked="false" />
    <sodipodi:guide
       orientation="0,1"
       position="-8,92.000001"
       id="guide4069"
       inkscape:locked="false" />
    <sodipodi:guide
       orientation="0,1"
       position="104,4"
       id="guide4071"
       inkscape:locked="false" />
    <sodipodi:guide
       orientation="0,1"
       position="-5,8.0000001"
       id="guide4073"
       inkscape:locked="false" />
    <sodipodi:guide
       orientation="1,0"
       position="88,-8.0000001"
       id="guide4077"
       inkscape:locked="false" />
    <sodipodi:guide
       orientation="0,1"
       position="-8,84.000001"
       id="guide4074"
       inkscape:locked="false" />
    <sodipodi:guide
       orientation="1,0"
       position="12,-8.0000001"
       id="guide4076"
       inkscape:locked="false" />
    <sodipodi:guide
       orientation="1,0"
       position="84,-8.0000001"
       id="guide4080"
       inkscape:locked="false" />
    <sodipodi:guide
       position="48,-8.0000001"
       orientation="1,0"
       id="guide4170"
       inkscape:locked="false" />
    <sodipodi:guide
       position="-8,48"
       orientation="0,1"
       id="guide4172"
       inkscape:locked="false" />
    <sodipodi:guide
       position="92,-8.0000001"
       orientation="1,0"
       id="guide4760"
       inkscape:locked="false" />
  </sodipodi:namedview>
  <metadata
     id="metadata4879">
    <rdf:RDF>
      <cc:Work
         rdf:about="">
        <dc:format>image/svg+xml</dc:format>
        <dc:type
           rdf:resource="http://purl.org/dc/dcmitype/StillImage" />
        <dc:title></dc:title>
      </cc:Work>
    </rdf:RDF>
  </metadata>
  <g
     inkscape:label="Layer 1"
     inkscape:groupmode="layer"
     id="layer1"
     transform="translate(67.857146,-78.50504)">
    <rect
       transform="rotate(90)"
       y="-28.142855"
       x="78.505035"
       height="96"
       width="96.000008"
       id="rect4782-45"
       style="color:#000000;display:inline;overflow:visible;visibility:visible;fill:none;stroke:none;stroke-width:3.99920893;marker:none;enable-background:accumulate" />
    <path
       inkscape:connector-curvature="0"
       id="path4174"
       d="m 24.143841,146.50596 c 0,2.63036 -0.237732,4.71169 -0.896504,6.46619 -0.658582,1.7545 -1.849852,3.1599 -3.355464,3.99061 -3.011225,1.66142 -6.693808,1.48417 -11.7265512,1.54236 h -0.01134 -56.0214788 -0.01134 c -5.032741,-0.0582 -8.715286,0.11905 -11.726549,-1.54236 -1.505612,-0.83071 -2.696844,-2.23611 -3.355464,-3.99061 -0.658583,-1.7545 -0.896466,-3.83583 -0.896466,-6.46619 v -36.00138 c 0,-2.63035 0.237732,-4.71169 0.896466,-6.46619 0.65862,-1.7545 1.849852,-3.1599 3.355464,-3.99061 3.011263,-1.661427 6.693808,-1.484167 11.726551,-1.542357 h 0.01134 16.080075 v 3.998417 h -16.046854 c -5.054173,0.0584 -8.37086,0.23705 -9.837883,1.04646 -0.733531,0.40471 -1.152681,0.85205 -1.542992,1.89183 -0.390312,1.03979 -0.64063,2.69281 -0.64063,5.06245 v 36.00138 c 0,2.36964 0.250204,4.02267 0.64063,5.06245 0.390311,1.03978 0.809461,1.48712 1.542992,1.89183 1.464491,0.80804 4.776793,0.98773 9.816377,1.04646 h 0.02268 55.9531068 0.02268 c 5.0382612,-0.0588 8.3521132,-0.23856 9.8164152,-1.04646 0.733531,-0.40471 1.152643,-0.85205 1.542954,-1.89183 0.39035,-1.03978 0.64063,-2.69281 0.64063,-5.06245 v -36.00138 c 0,-2.36964 -0.250204,-4.02266 -0.64063,-5.06245 -0.390311,-1.03978 -0.809423,-1.48712 -1.542954,-1.89183 -1.464302,-0.80792 -4.778154,-0.98769 -9.8164152,-1.04646 h -14.025378 v -3.998417 h 14.03709 0.01134 c 5.0327812,0.0582 8.7153252,-0.11906 11.7265512,1.542357 1.505612,0.83071 2.696881,2.23611 3.355464,3.99061 0.658621,1.7545 0.896504,3.83584 0.896504,6.46619 v 36.00138 z"
       style="color:#000000;font-style:normal;font-variant:normal;font-weight:normal;font-stretch:normal;font-size:medium;line-height:normal;font-family:sans-serif;font-variant-ligatures:none;font-variant-position:normal;font-variant-caps:normal;font-variant-numeric:normal;font-variant-alternates:normal;font-feature-settings:normal;text-indent:0;text-align:start;text-decoration:none;text-decoration-line:none;text-decoration-style:solid;text-decoration-color:#000000;letter-spacing:normal;word-spacing:normal;text-transform:none;writing-mode:lr-tb;direction:ltr;baseline-shift:baseline;text-anchor:start;white-space:normal;shape-padding:0;clip-rule:nonzero;display:inline;overflow:visible;visibility:visible;opacity:1;isolation:auto;mix-blend-mode:normal;color-interpolation:sRGB;color-interpolation-filters:linearRGB;solid-color:#000000;solid-opacity:1;fill:#808080;fill-opacity:1;fill-rule:nonzero;stroke:none;stroke-width:4;stroke-linecap:butt;stroke-linejoin:miter;stroke-miterlimit:4;stroke-dasharray:none;stroke-dashoffset:0;stroke-opacity:1;marker:none;color-rendering:auto;image-rendering:auto;shape-rendering:auto;text-rendering:auto;enable-background:accumulate" />
    <path
       style="color:#000000;display:inline;overflow:visible;visibility:visible;opacity:1;fill:#808080;fill-opacity:1;fill-rule:nonzero;stroke:none;stroke-width:2.99940658;marker:none;enable-background:accumulate"
       d="m -36.855805,88.505073 0.0076,24.000007 c 3.650079,-1.66876 7.365959,-3.53593 11.149228,-5.59872 3.747742,-2.06778 7.362822,-4.20051 10.84286,-6.40027 -3.480038,-2.155747 -7.095118,-4.268057 -10.84286,-6.335827 -3.785348,-2.06392 -7.503345,-3.9519 -11.155351,-5.66519 z"
       id="path5588-9-2-96"
       inkscape:connector-curvature="0" />
  </g>
</svg>
