<?xml version="1.0" encoding="UTF-8" standalone="no"?>
<!-- Created with Inkscape (http://www.inkscape.org/) -->

<svg
   xmlns:dc="http://purl.org/dc/elements/1.1/"
   xmlns:cc="http://creativecommons.org/ns#"
   xmlns:rdf="http://www.w3.org/1999/02/22-rdf-syntax-ns#"
   xmlns:svg="http://www.w3.org/2000/svg"
   xmlns="http://www.w3.org/2000/svg"
   xmlns:sodipodi="http://sodipodi.sourceforge.net/DTD/sodipodi-0.dtd"
   xmlns:inkscape="http://www.inkscape.org/namespaces/inkscape"
   width="96"
   height="96"
   id="svg4874"
   version="1.1"
   inkscape:version="0.91+devel r"
   viewBox="0 0 96 96.000001"
   sodipodi:docname="private-browsing.svg">
  <defs
     id="defs4876" />
  <sodipodi:namedview
     id="base"
     pagecolor="#ffffff"
     bordercolor="#666666"
     borderopacity="1.0"
     inkscape:pageopacity="0.0"
     inkscape:pageshadow="2"
     inkscape:zoom="7.0249991"
     inkscape:cx="44.270464"
     inkscape:cy="35.701054"
     inkscape:document-units="px"
     inkscape:current-layer="g4780"
     showgrid="true"
     showborder="true"
     fit-margin-top="0"
     fit-margin-left="0"
     fit-margin-right="0"
     fit-margin-bottom="0"
     inkscape:snap-bbox="true"
     inkscape:bbox-paths="true"
     inkscape:bbox-nodes="true"
     inkscape:snap-bbox-edge-midpoints="true"
     inkscape:snap-bbox-midpoints="true"
     inkscape:object-paths="true"
     inkscape:snap-intersection-paths="true"
     inkscape:object-nodes="true"
     inkscape:snap-smooth-nodes="true"
     inkscape:snap-midpoints="true"
     inkscape:snap-object-midpoints="true"
     inkscape:snap-center="true"
     showguides="true"
     inkscape:guide-bbox="true"
     inkscape:snap-global="true">
    <inkscape:grid
       type="xygrid"
       id="grid5451"
       empspacing="8" />
    <sodipodi:guide
       orientation="1,0"
       position="8,-8.0000001"
       id="guide4063" />
    <sodipodi:guide
       orientation="1,0"
       position="4,-8.0000001"
       id="guide4065" />
    <sodipodi:guide
       orientation="0,1"
       position="-8,88.000001"
       id="guide4067" />
    <sodipodi:guide
       orientation="0,1"
       position="-8,92.000001"
       id="guide4069" />
    <sodipodi:guide
       orientation="0,1"
       position="104,4"
       id="guide4071" />
    <sodipodi:guide
       orientation="0,1"
       position="-5,8.0000001"
       id="guide4073" />
    <sodipodi:guide
       orientation="1,0"
       position="88,-8.0000001"
       id="guide4077" />
    <sodipodi:guide
       orientation="0,1"
       position="-8,84.000001"
       id="guide4074" />
    <sodipodi:guide
       orientation="1,0"
       position="12,-8.0000001"
       id="guide4076" />
    <sodipodi:guide
       orientation="1,0"
       position="84,-8.0000001"
       id="guide4080" />
    <sodipodi:guide
       position="48,-8.0000001"
       orientation="1,0"
       id="guide4170" />
    <sodipodi:guide
       position="-8,48"
       orientation="0,1"
       id="guide4172" />
    <sodipodi:guide
       position="92,-8.0000001"
       orientation="1,0"
       id="guide4760" />
  </sodipodi:namedview>
  <metadata
     id="metadata4879">
    <rdf:RDF>
      <cc:Work
         rdf:about="">
        <dc:format>image/svg+xml</dc:format>
        <dc:type
           rdf:resource="http://purl.org/dc/dcmitype/StillImage" />
        <dc:title></dc:title>
      </cc:Work>
    </rdf:RDF>
  </metadata>
  <g
     inkscape:label="Layer 1"
     inkscape:groupmode="layer"
     id="layer1"
     transform="translate(67.857146,-78.50504)">
    <g
       transform="matrix(0,-1,-1,0,373.50506,516.50504)"
       id="g4845"
       style="display:inline">
      <g
         inkscape:export-ydpi="90"
         inkscape:export-xdpi="90"
         inkscape:export-filename="next01.png"
         transform="matrix(-0.9996045,0,0,1,575.94296,-611.00001)"
         id="g4778"
         inkscape:label="Layer 1">
        <g
           transform="matrix(-1,0,0,1,575.99999,611)"
           id="g4780"
           style="display:inline">
          <rect
             style="color:#000000;display:inline;overflow:visible;visibility:visible;fill:none;stroke:none;stroke-width:4;marker:none;enable-background:accumulate"
             id="rect4782"
             width="96.037987"
             height="96"
             x="-438.00244"
             y="345.36221"
             transform="scale(-1,1)" />
          <path
             style="font-style:normal;font-variant:normal;font-weight:normal;font-stretch:normal;font-size:14.46281052px;line-height:125%;font-family:Ubuntu;-inkscape-font-specification:Ubuntu;text-align:center;letter-spacing:0px;word-spacing:0px;writing-mode:lr-tb;text-anchor:middle;display:inline;fill:#808080;fill-opacity:1;stroke:none;stroke-width:0.99999994"
             d="M 48 20.300781 C 38.61157 20.300781 29.819444 21.544274 21.621094 24.03125 C 13.488864 26.571345 6.28099 29.969999 0 34.097656 L 0 35.232422 L 0 39.271484 L 0 62.966797 L 0 66.166016 C 2.93113 68.718876 6.2948038 70.82159 10.089844 72.392578 C 13.915734 73.93071 18.019131 74.699219 22.400391 74.699219 C 26.781661 74.699219 30.869023 73.93071 34.664062 72.392578 C 38.489962 70.82159 41.869661 68.718876 44.800781 66.166016 C 45.219521 65.817963 45.700038 65.536561 46.242188 65.322266 C 46.788738 65.112449 47.37411 65.007812 48 65.007812 C 48.6259 65.007812 49.209803 65.112279 49.751953 65.322266 C 50.298513 65.536561 50.780489 65.817963 51.199219 66.166016 C 54.130359 68.718876 57.494023 70.82159 61.289062 72.392578 C 65.114953 73.93071 69.218349 74.699219 73.599609 74.699219 C 77.980879 74.699219 82.070194 73.93071 85.865234 72.392578 C 89.691134 70.82159 93.06887 68.718876 96 66.166016 L 96 62.966797 L 96 39.271484 L 96 35.232422 L 96 34.097656 C 89.71902 29.969999 82.4796 26.571345 74.28125 24.03125 C 66.14901 21.544274 57.38843 20.300781 48 20.300781 z M 48 24.298828 C 57.02961 24.298828 65.378823 25.493166 73.095703 27.851562 C 80.229583 30.061848 86.449297 33.012269 91.998047 36.439453 L 91.998047 39.269531 L 91.998047 62.964844 L 91.998047 64.160156 C 89.713992 65.94464 87.218872 67.510852 84.349609 68.689453 L 84.345703 68.691406 C 81.051703 70.023849 77.507023 70.701172 73.601562 70.701172 C 69.696742 70.701172 66.133404 70.021738 62.802734 68.685547 C 59.409344 67.278264 56.432808 65.417224 53.830078 63.150391 L 53.794922 63.121094 L 53.759766 63.089844 C 52.994136 62.453446 52.124454 61.956258 51.214844 61.599609 L 51.207031 61.597656 L 51.199219 61.59375 C 50.171819 61.195817 49.073763 61.009766 48.001953 61.009766 C 46.929423 61.009766 45.832334 61.196839 44.808594 61.589844 L 44.789062 61.597656 L 44.771484 61.603516 C 43.867754 61.960734 43.003398 62.457134 42.242188 63.089844 L 42.207031 63.121094 L 42.169922 63.150391 C 39.568072 65.416474 36.578528 67.280481 33.148438 68.689453 L 33.142578 68.691406 C 29.848578 70.023839 26.303898 70.701172 22.398438 70.701172 C 18.492068 70.701172 14.929466 70.020845 11.597656 68.683594 C 8.7613262 67.507089 6.27868 65.947007 4 64.164062 L 4 62.964844 L 4 39.269531 L 4 36.435547 C 9.542 33.009802 15.729632 30.063875 22.794922 27.855469 C 30.583732 25.494273 38.97036 24.298828 48 24.298828 z "
             transform="matrix(0,-1,-1.0003957,0,438.00245,441.36222)"
             id="path4186" />
          <path
             style="font-style:normal;font-variant:normal;font-weight:normal;font-stretch:normal;font-size:14.46281052px;line-height:125%;font-family:Ubuntu;-inkscape-font-specification:Ubuntu;text-align:center;letter-spacing:0px;word-spacing:0px;writing-mode:lr-tb;text-anchor:middle;display:inline;fill:#808080;fill-opacity:1;stroke:none;stroke-width:1.00019777"
             d="m 395.18763,415.76224 c 0,-3.12948 -0.5255,-6.04968 -1.57978,-8.76043 -1.07648,-2.73278 -2.48958,-5.14591 -4.23918,-7.23957 -1.74949,2.09366 -3.16259,4.50679 -4.23918,7.23957 -1.05418,2.71075 -1.58188,5.63095 -1.58188,8.76043 0,3.12947 0.5277,6.06096 1.58188,8.79375 1.07659,2.71074 2.48969,5.11259 4.23918,7.20625 1.7496,-2.09366 3.1627,-4.49551 4.23918,-7.20625 1.05428,-2.73279 1.57978,-5.66428 1.57978,-8.79375 z"
             id="path4184" />
          <path
             style="font-style:normal;font-variant:normal;font-weight:normal;font-stretch:normal;font-size:14.46281052px;line-height:125%;font-family:Ubuntu;-inkscape-font-specification:Ubuntu;text-align:center;letter-spacing:0px;word-spacing:0px;writing-mode:lr-tb;text-anchor:middle;display:inline;fill:#808080;fill-opacity:1;stroke:none;stroke-width:1.00019777"
             d="m 395.18763,370.96223 c 0,-3.12948 -0.5255,-6.04967 -1.57978,-8.76042 -1.07648,-2.73278 -2.48958,-5.14591 -4.23918,-7.23958 -1.74949,2.09367 -3.16259,4.5068 -4.23918,7.23958 -1.05418,2.71075 -1.58188,5.63094 -1.58188,8.76042 0,3.12948 0.5277,6.06097 1.58188,8.79376 1.07659,2.71074 2.48969,5.11258 4.23918,7.20625 1.7496,-2.09367 3.1627,-4.49551 4.23918,-7.20625 1.05428,-2.73279 1.57978,-5.66428 1.57978,-8.79376 z"
             id="path4120" />
        </g>
      </g>
    </g>
  </g>
</svg>
