<?xml version="1.0" encoding="UTF-8" standalone="no"?>
<!-- Created with Inkscape (http://www.inkscape.org/) -->

<svg
   xmlns:dc="http://purl.org/dc/elements/1.1/"
   xmlns:cc="http://creativecommons.org/ns#"
   xmlns:rdf="http://www.w3.org/1999/02/22-rdf-syntax-ns#"
   xmlns:svg="http://www.w3.org/2000/svg"
   xmlns="http://www.w3.org/2000/svg"
   xmlns:sodipodi="http://sodipodi.sourceforge.net/DTD/sodipodi-0.dtd"
   xmlns:inkscape="http://www.inkscape.org/namespaces/inkscape"
   width="96"
   height="96"
   id="svg4874"
   version="1.1"
   inkscape:version="0.91+devel r"
   viewBox="0 0 96 96.000001"
   sodipodi:docname="private-tab-new.svg">
  <defs
     id="defs4876" />
  <sodipodi:namedview
     id="base"
     pagecolor="#ffffff"
     bordercolor="#666666"
     borderopacity="1.0"
     inkscape:pageopacity="0.0"
     inkscape:pageshadow="2"
     inkscape:zoom="7.024999"
     inkscape:cx="26.483984"
     inkscape:cy="64.94661"
     inkscape:document-units="px"
     inkscape:current-layer="g4780"
     showgrid="true"
     showborder="true"
     fit-margin-top="0"
     fit-margin-left="0"
     fit-margin-right="0"
     fit-margin-bottom="0"
     inkscape:snap-bbox="true"
     inkscape:bbox-paths="true"
     inkscape:bbox-nodes="true"
     inkscape:snap-bbox-edge-midpoints="true"
     inkscape:snap-bbox-midpoints="true"
     inkscape:object-paths="true"
     inkscape:snap-intersection-paths="true"
     inkscape:object-nodes="true"
     inkscape:snap-smooth-nodes="true"
     inkscape:snap-midpoints="true"
     inkscape:snap-object-midpoints="true"
     inkscape:snap-center="true"
     showguides="true"
     inkscape:guide-bbox="true"
     inkscape:snap-global="true">
    <inkscape:grid
       type="xygrid"
       id="grid5451"
       empspacing="8" />
    <sodipodi:guide
       orientation="1,0"
       position="8,-8.0000001"
       id="guide4063" />
    <sodipodi:guide
       orientation="1,0"
       position="4,-8.0000001"
       id="guide4065" />
    <sodipodi:guide
       orientation="0,1"
       position="-8,88.000001"
       id="guide4067" />
    <sodipodi:guide
       orientation="0,1"
       position="-8,92.000001"
       id="guide4069" />
    <sodipodi:guide
       orientation="0,1"
       position="104,4"
       id="guide4071" />
    <sodipodi:guide
       orientation="0,1"
       position="-5,8.0000001"
       id="guide4073" />
    <sodipodi:guide
       orientation="1,0"
       position="88,-8.0000001"
       id="guide4077" />
    <sodipodi:guide
       orientation="0,1"
       position="-8,84.000001"
       id="guide4074" />
    <sodipodi:guide
       orientation="1,0"
       position="12,-8.0000001"
       id="guide4076" />
    <sodipodi:guide
       orientation="1,0"
       position="84,-8.0000001"
       id="guide4080" />
    <sodipodi:guide
       position="48,-8.0000001"
       orientation="1,0"
       id="guide4170" />
    <sodipodi:guide
       position="-8,48"
       orientation="0,1"
       id="guide4172" />
    <sodipodi:guide
       position="92,-8.0000001"
       orientation="1,0"
       id="guide4760" />
  </sodipodi:namedview>
  <metadata
     id="metadata4879">
    <rdf:RDF>
      <cc:Work
         rdf:about="">
        <dc:format>image/svg+xml</dc:format>
        <dc:type
           rdf:resource="http://purl.org/dc/dcmitype/StillImage" />
        <dc:title></dc:title>
      </cc:Work>
    </rdf:RDF>
  </metadata>
  <g
     inkscape:label="Layer 1"
     inkscape:groupmode="layer"
     id="layer1"
     transform="translate(67.857146,-78.50504)">
    <g
       transform="matrix(0,-1,-1,0,373.50506,516.50504)"
       id="g4845"
       style="display:inline">
      <g
         inkscape:export-ydpi="90"
         inkscape:export-xdpi="90"
         inkscape:export-filename="next01.png"
         transform="matrix(-0.9996045,0,0,1,575.94296,-611.00001)"
         id="g4778"
         inkscape:label="Layer 1">
        <g
           transform="matrix(-1,0,0,1,575.99999,611)"
           id="g4780"
           style="display:inline">
          <rect
             style="color:#000000;display:inline;overflow:visible;visibility:visible;fill:none;stroke:none;stroke-width:4;marker:none;enable-background:accumulate"
             id="rect4782"
             width="96.037987"
             height="96"
             x="-438.00244"
             y="345.36221"
             transform="scale(-1,1)" />
          <path
             style="color:#000000;display:inline;overflow:visible;visibility:visible;fill:#808080;fill-opacity:1;fill-rule:nonzero;stroke:none;stroke-width:7.5;marker:none;enable-background:accumulate"
             d="m 384.98148,371.3622 1.0004,-3.99998 -40.01574,0 0,3.99998 z"
             id="rect3470"
             inkscape:connector-curvature="0"
             sodipodi:nodetypes="ccccc" />
          <rect
             transform="scale(-1,1)"
             style="color:#000000;display:inline;overflow:visible;visibility:visible;fill:#808080;fill-opacity:1;fill-rule:nonzero;stroke:none;stroke-width:7.5;marker:none;enable-background:accumulate"
             id="rect3472"
             width="4.0014911"
             height="40.000053"
             x="-367.97476"
             y="349.36221" />
          <path
             style="font-style:normal;font-variant:normal;font-weight:normal;font-stretch:normal;font-size:14.46281052px;line-height:125%;font-family:Ubuntu;-inkscape-font-specification:Ubuntu;text-align:center;letter-spacing:0px;word-spacing:0px;writing-mode:lr-tb;text-anchor:middle;display:inline;fill:#808080;fill-opacity:1;stroke:none;stroke-width:1.00019777"
             d="m 429.99927,405.36222 c 0,7.04132 -0.93844,13.63639 -2.81361,19.78516 -1.91522,6.09917 -4.4767,11.5041 -7.58894,16.21484 l -0.85581,0 -3.04612,0 -17.86645,0 -2.41111,0 c -1.92485,-2.19834 -3.51069,-4.72208 -4.69521,-7.56836 -1.15975,-2.86941 -1.73897,-5.94647 -1.73897,-9.23242 0,-3.28595 0.57922,-6.35099 1.73897,-9.19727 1.18452,-2.86943 2.77036,-5.40517 4.69521,-7.60351 0.26242,-0.31406 0.47539,-0.67347 0.63697,-1.08008 0.1582,-0.40991 0.23643,-0.84894 0.23643,-1.31836 0,-0.46942 -0.0781,-0.90784 -0.23643,-1.31445 -0.16158,-0.40992 -0.37455,-0.76995 -0.63697,-1.08399 -1.92485,-2.19836 -3.51069,-4.72208 -4.69521,-7.56836 -1.15975,-2.86942 -1.73897,-5.94647 -1.73897,-9.23242 0,-3.28595 0.57922,-6.35294 1.73897,-9.19922 1.18452,-2.86943 2.77036,-5.40321 4.69521,-7.60156 l 2.41111,0 17.86645,0 3.04612,0 0.85581,0 c 3.11224,4.71073 5.67372,10.1403 7.58894,16.28906 1.87517,6.09918 2.81361,12.66962 2.81361,19.71094 z m -4.00158,0 c 0,-6.68617 -0.88773,-12.84937 -2.63581,-18.53516 -1.58266,-5.0767 -3.68906,-9.49027 -6.10202,-13.46289 l -1.56507,0 -17.86645,0 -0.41227,0 c -1.1608,1.5417 -2.19879,3.20105 -2.98751,5.10742 -10e-4,0.002 -10e-4,0.004 -0.002,0.006 -0.95497,2.34585 -1.44198,4.87025 -1.44198,7.6836 0,2.80818 0.4862,5.34304 1.44198,7.71484 1.01913,2.4427 2.36146,4.58022 3.99963,6.45117 l 0.0313,0.0332 0.0293,0.0351 c 0.55065,0.65898 0.98406,1.41049 1.28957,2.18555 l 0.002,0.008 0.004,0.008 c 0.3478,0.89335 0.50997,1.84652 0.50997,2.76368 0,0.91772 -0.16325,1.8715 -0.50606,2.75976 l -0.008,0.0176 -0.006,0.0195 c -0.30587,0.76972 -0.73803,1.51258 -1.28566,2.16797 l -0.0293,0.0371 -0.0313,0.0332 c -1.63399,1.86616 -2.97743,4.01055 -3.99768,6.47657 -0.001,0.002 -0.001,0.006 -0.002,0.008 -0.95515,2.34629 -1.44198,4.87024 -1.44198,7.68359 0,2.80975 0.48709,5.34387 1.44393,7.7168 0.78793,1.88799 1.82327,3.54165 2.98556,5.08203 l 0.41422,0 17.86645,0 1.56702,0 c 2.41418,-3.97024 4.52042,-8.36455 6.10202,-13.39648 1.74822,-5.73755 2.63386,-11.92253 2.63386,-18.60352 z"
             id="path4192"
             inkscape:connector-curvature="0" />
          <path
             inkscape:connector-curvature="0"
             style="font-style:normal;font-variant:normal;font-weight:normal;font-stretch:normal;font-size:14.46281052px;line-height:125%;font-family:Ubuntu;-inkscape-font-specification:Ubuntu;text-align:center;letter-spacing:0px;word-spacing:0px;writing-mode:lr-tb;text-anchor:middle;display:inline;fill:#808080;fill-opacity:1;stroke:none;stroke-width:1.00019777"
             d="m 413.11976,421.36222 c 0,-2.34711 -0.39412,-4.53726 -1.18483,-6.57033 -0.80736,-2.04958 -1.86718,-3.85943 -3.17938,-5.42967 -1.31212,1.57024 -2.37195,3.38009 -3.1794,5.42967 -0.79063,2.03307 -1.1864,4.22322 -1.1864,6.57033 0,2.3471 0.39577,4.54572 1.1864,6.59531 0.80745,2.03305 1.86728,3.83444 3.1794,5.40469 1.3122,-1.57025 2.37202,-3.37164 3.17938,-5.40469 0.79071,-2.04959 1.18483,-4.24821 1.18483,-6.59531 z"
             id="path4184" />
          <path
             inkscape:connector-curvature="0"
             style="font-style:normal;font-variant:normal;font-weight:normal;font-stretch:normal;font-size:14.46281052px;line-height:125%;font-family:Ubuntu;-inkscape-font-specification:Ubuntu;text-align:center;letter-spacing:0px;word-spacing:0px;writing-mode:lr-tb;text-anchor:middle;display:inline;fill:#808080;fill-opacity:1;stroke:none;stroke-width:1.00019777"
             d="m 413.11976,389.36221 c 0,-2.34711 -0.39412,-4.53726 -1.18483,-6.57032 -0.80736,-2.04958 -1.86718,-3.85943 -3.17938,-5.42968 -1.31212,1.57025 -2.37195,3.3801 -3.1794,5.42968 -0.79063,2.03306 -1.1864,4.22321 -1.1864,6.57032 0,2.34711 0.39577,4.54573 1.1864,6.59532 0.80745,2.03305 1.86728,3.83443 3.1794,5.40469 1.3122,-1.57026 2.37202,-3.37164 3.17938,-5.40469 0.79071,-2.04959 1.18483,-4.24821 1.18483,-6.59532 z"
             id="path4120" />
        </g>
      </g>
    </g>
  </g>
</svg>
