<?xml version="1.0" encoding="UTF-8" standalone="no"?>
<!-- Created with Inkscape (http://www.inkscape.org/) -->

<svg
   xmlns:dc="http://purl.org/dc/elements/1.1/"
   xmlns:cc="http://creativecommons.org/ns#"
   xmlns:rdf="http://www.w3.org/1999/02/22-rdf-syntax-ns#"
   xmlns:svg="http://www.w3.org/2000/svg"
   xmlns="http://www.w3.org/2000/svg"
   xmlns:sodipodi="http://sodipodi.sourceforge.net/DTD/sodipodi-0.dtd"
   xmlns:inkscape="http://www.inkscape.org/namespaces/inkscape"
   width="96"
   height="96"
   id="svg4874"
   version="1.1"
   inkscape:version="0.91+devel r"
   viewBox="0 0 96 96.000001"
   sodipodi:docname="remove-from-group.svg">
  <defs
     id="defs4876" />
  <sodipodi:namedview
     id="base"
     pagecolor="#ffffff"
     bordercolor="#666666"
     borderopacity="1.0"
     inkscape:pageopacity="0.0"
     inkscape:pageshadow="2"
     inkscape:zoom="8.7812486"
     inkscape:cx="-7.6868395"
     inkscape:cy="41.417784"
     inkscape:document-units="px"
     inkscape:current-layer="g4780"
     showgrid="true"
     showborder="true"
     fit-margin-top="0"
     fit-margin-left="0"
     fit-margin-right="0"
     fit-margin-bottom="0"
     inkscape:snap-bbox="true"
     inkscape:bbox-paths="true"
     inkscape:bbox-nodes="true"
     inkscape:snap-bbox-edge-midpoints="true"
     inkscape:snap-bbox-midpoints="true"
     inkscape:object-paths="true"
     inkscape:snap-intersection-paths="true"
     inkscape:object-nodes="false"
     inkscape:snap-smooth-nodes="false"
     inkscape:snap-midpoints="false"
     inkscape:snap-object-midpoints="false"
     inkscape:snap-center="false"
     showguides="true"
     inkscape:guide-bbox="true"
     inkscape:snap-others="false">
    <inkscape:grid
       type="xygrid"
       id="grid5451"
       empspacing="8" />
    <sodipodi:guide
       orientation="1,0"
       position="8,-8.0000001"
       id="guide4063"
       inkscape:locked="false" />
    <sodipodi:guide
       orientation="1,0"
       position="4,-8.0000001"
       id="guide4065"
       inkscape:locked="false" />
    <sodipodi:guide
       orientation="0,1"
       position="-8,88.000001"
       id="guide4067"
       inkscape:locked="false" />
    <sodipodi:guide
       orientation="0,1"
       position="-8,92.000001"
       id="guide4069"
       inkscape:locked="false" />
    <sodipodi:guide
       orientation="0,1"
       position="104,4"
       id="guide4071"
       inkscape:locked="false" />
    <sodipodi:guide
       orientation="0,1"
       position="-5,8.0000001"
       id="guide4073"
       inkscape:locked="false" />
    <sodipodi:guide
       orientation="1,0"
       position="92,-8.0000001"
       id="guide4075"
       inkscape:locked="false" />
    <sodipodi:guide
       orientation="1,0"
       position="88,-8.0000001"
       id="guide4077"
       inkscape:locked="false" />
    <sodipodi:guide
       orientation="0,1"
       position="-8,84.000001"
       id="guide4074"
       inkscape:locked="false" />
    <sodipodi:guide
       orientation="1,0"
       position="12,-8.0000001"
       id="guide4076"
       inkscape:locked="false" />
    <sodipodi:guide
       orientation="0,1"
       position="-5,12"
       id="guide4078"
       inkscape:locked="false" />
    <sodipodi:guide
       orientation="1,0"
       position="84,-9.0000001"
       id="guide4080"
       inkscape:locked="false" />
    <sodipodi:guide
       position="48,-8.0000001"
       orientation="1,0"
       id="guide4170"
       inkscape:locked="false" />
    <sodipodi:guide
       position="-8,48"
       orientation="0,1"
       id="guide4172"
       inkscape:locked="false" />
  </sodipodi:namedview>
  <metadata
     id="metadata4879">
    <rdf:RDF>
      <cc:Work
         rdf:about="">
        <dc:format>image/svg+xml</dc:format>
        <dc:type
           rdf:resource="http://purl.org/dc/dcmitype/StillImage" />
        <dc:title />
      </cc:Work>
    </rdf:RDF>
  </metadata>
  <g
     inkscape:label="Layer 1"
     inkscape:groupmode="layer"
     id="layer1"
     transform="translate(67.857146,-78.50504)">
    <g
       transform="matrix(0,-1,-1,0,373.50506,516.50504)"
       id="g4845"
       style="display:inline">
      <g
         inkscape:export-ydpi="90"
         inkscape:export-xdpi="90"
         inkscape:export-filename="next01.png"
         transform="matrix(-0.9996045,0,0,1,575.94296,-611.00001)"
         id="g4778"
         inkscape:label="Layer 1">
        <g
           transform="matrix(-1,0,0,1,575.99999,611)"
           id="g4780"
           style="display:inline">
          <rect
             style="color:#000000;display:inline;overflow:visible;visibility:visible;fill:none;stroke:none;stroke-width:4;marker:none;enable-background:accumulate"
             id="rect4782"
             width="96.037987"
             height="96"
             x="-438.00244"
             y="345.36221"
             transform="scale(-1,1)" />
          <path
             style="color:#000000;font-style:normal;font-variant:normal;font-weight:normal;font-stretch:normal;font-size:medium;line-height:125%;font-family:Ubuntu;-inkscape-font-specification:'Ubuntu, Normal';font-variant-ligatures:normal;font-variant-position:normal;font-variant-caps:normal;font-variant-numeric:normal;font-variant-alternates:normal;font-feature-settings:normal;text-indent:0;text-align:start;text-decoration:none;text-decoration-line:none;text-decoration-style:solid;text-decoration-color:#000000;letter-spacing:0px;word-spacing:0px;text-transform:none;writing-mode:lr-tb;direction:ltr;text-orientation:mixed;dominant-baseline:auto;baseline-shift:baseline;text-anchor:start;white-space:normal;shape-padding:0;clip-rule:nonzero;display:inline;overflow:visible;visibility:visible;opacity:1;isolation:auto;mix-blend-mode:normal;color-interpolation:sRGB;color-interpolation-filters:linearRGB;solid-color:#000000;solid-opacity:1;fill:#808080;fill-opacity:1;fill-rule:nonzero;stroke:none;stroke-width:4.00079107;stroke-linecap:butt;stroke-linejoin:miter;stroke-miterlimit:4;stroke-dasharray:none;stroke-dashoffset:0;stroke-opacity:1;color-rendering:auto;image-rendering:auto;shape-rendering:auto;text-rendering:auto;enable-background:accumulate"
             d="m 416.37695,370.04297 c -2.56441,0 -4.94181,0.36551 -7.10156,1.12891 -2.12757,0.75222 -4.01259,1.84245 -5.5957,3.26367 -1.58642,1.38663 -2.83994,3.08042 -3.7168,5.01757 l -0.008,0.0156 -0.006,0.0176 c -0.84023,1.95386 -1.25586,4.08201 -1.25586,6.31836 0,2.23629 0.41564,4.36448 1.25586,6.31836 l 0.006,0.0156 0.008,0.0176 c 0.87611,1.93549 2.12336,3.64243 3.70117,5.0625 l 0.0117,0.01 0.0117,0.01 c 1.5839,1.38236 3.46484,2.44858 5.58789,3.19922 2.15975,0.76341 4.53715,1.12891 7.10156,1.12891 2.52477,0 4.87853,-0.36573 7.03125,-1.125 l 0.006,-0.002 c 2.15957,-0.74911 4.06258,-1.81368 5.65235,-3.20117 l 0.0117,-0.01 0.0117,-0.01 c 1.57892,-1.42108 2.808,-3.13463 3.64649,-5.07617 0.88369,-1.95731 1.32226,-4.09373 1.32226,-6.33789 0,-2.24422 -0.43856,-4.38059 -1.32226,-6.33789 -0.83917,-1.94294 -2.07462,-3.6436 -3.66211,-5.03125 -1.58944,-1.42682 -3.49753,-2.51499 -5.66211,-3.26563 -2.15379,-0.76021 -4.50884,-1.12695 -7.03516,-1.12695 z m 0,4 c 2.14286,0 4.03515,0.30875 5.70899,0.90039 l 0.006,0.002 0.006,0.002 c 1.73331,0.60063 3.15052,1.42699 4.31445,2.47461 l 0.0117,0.01 0.0117,0.01 c 1.16001,1.01238 2.02223,2.19801 2.63672,3.62695 l 0.008,0.0156 0.008,0.0176 c 0.64427,1.42323 0.9707,2.96651 0.9707,4.70313 0,1.73654 -0.32642,3.27986 -0.9707,4.70312 l -0.008,0.0156 -0.008,0.0176 c -0.6142,1.42826 -1.48272,2.63691 -2.64844,3.68945 -1.16436,1.01395 -2.5866,1.82882 -4.32617,2.43164 l -0.006,0.002 -0.006,0.002 c -1.67384,0.59164 -3.56613,0.90039 -5.70899,0.90039 -2.18426,0 -4.09771,-0.31015 -5.76757,-0.90039 -1.6995,-0.60071 -3.10501,-1.41329 -4.2754,-2.43164 -1.17093,-1.05613 -2.06341,-2.27634 -2.71679,-3.71485 -0.60929,-1.42466 -0.92188,-2.97375 -0.92188,-4.71484 0,-1.74416 0.31248,-3.29602 0.92383,-4.72266 0.65253,-1.43402 1.53806,-2.62724 2.69922,-3.64062 l 0.0117,-0.01 0.0117,-0.01 c 1.17079,-1.05379 2.57271,-1.87946 4.26758,-2.47852 1.66986,-0.59024 3.58331,-0.90039 5.76757,-0.90039 z"
             id="path4202"
             inkscape:connector-curvature="0" />
          <path
             style="color:#000000;font-style:normal;font-variant:normal;font-weight:normal;font-stretch:normal;font-size:medium;line-height:125%;font-family:Ubuntu;-inkscape-font-specification:'Ubuntu, Normal';font-variant-ligatures:normal;font-variant-position:normal;font-variant-caps:normal;font-variant-numeric:normal;font-variant-alternates:normal;font-feature-settings:normal;text-indent:0;text-align:start;text-decoration:none;text-decoration-line:none;text-decoration-style:solid;text-decoration-color:#000000;letter-spacing:0px;word-spacing:0px;text-transform:none;writing-mode:lr-tb;direction:ltr;text-orientation:mixed;dominant-baseline:auto;baseline-shift:baseline;text-anchor:start;white-space:normal;shape-padding:0;clip-rule:nonzero;display:inline;overflow:visible;visibility:visible;opacity:1;isolation:auto;mix-blend-mode:normal;color-interpolation:sRGB;color-interpolation-filters:linearRGB;solid-color:#000000;solid-opacity:1;fill:#808080;fill-opacity:1;fill-rule:nonzero;stroke:none;stroke-width:4.00079107;stroke-linecap:butt;stroke-linejoin:miter;stroke-miterlimit:4;stroke-dasharray:none;stroke-dashoffset:0;stroke-opacity:1;color-rendering:auto;image-rendering:auto;shape-rendering:auto;text-rendering:auto;enable-background:accumulate"
             d="m 371.77148,357.2207 -0.002,4.00196 c 3.54801,0.002 6.39554,0.27243 8.57617,0.92578 2.18064,0.65334 3.68541,1.61794 4.91016,3.19922 2.4495,3.16254 3.71679,9.39923 3.7168,20.44531 0,11.04608 -1.26647,17.2833 -3.7168,20.44922 -1.22516,1.58296 -2.731,2.55081 -4.91211,3.20703 -2.18111,0.65621 -5.02997,0.92973 -8.57813,0.9375 l 0.01,4.00195 c 3.73956,-0.008 6.93496,-0.27124 9.7207,-1.10937 2.78575,-0.83813 5.17038,-2.32237 6.92383,-4.58789 3.5069,-4.53105 4.55274,-11.57651 4.55274,-22.89844 -1e-5,-11.32193 -1.04696,-18.36571 -4.55469,-22.89453 -1.75387,-2.26441 -4.13761,-3.74725 -6.92383,-4.58203 -2.78622,-0.83479 -5.98294,-1.09314 -9.72266,-1.09571 z"
             id="path4228"
             inkscape:connector-curvature="0" />
          <path
             style="color:#000000;font-style:normal;font-variant:normal;font-weight:normal;font-stretch:normal;font-size:medium;line-height:125%;font-family:Ubuntu;-inkscape-font-specification:'Ubuntu, Normal';font-variant-ligatures:normal;font-variant-position:normal;font-variant-caps:normal;font-variant-numeric:normal;font-variant-alternates:normal;font-feature-settings:normal;text-indent:0;text-align:start;text-decoration:none;text-decoration-line:none;text-decoration-style:solid;text-decoration-color:#000000;letter-spacing:0px;word-spacing:0px;text-transform:none;writing-mode:lr-tb;direction:ltr;text-orientation:mixed;dominant-baseline:auto;baseline-shift:baseline;text-anchor:start;white-space:normal;shape-padding:0;clip-rule:nonzero;display:inline;overflow:visible;visibility:visible;opacity:1;isolation:auto;mix-blend-mode:normal;color-interpolation:sRGB;color-interpolation-filters:linearRGB;solid-color:#000000;solid-opacity:1;fill:#808080;fill-opacity:1;fill-rule:nonzero;stroke:none;stroke-width:4.00079107;stroke-linecap:butt;stroke-linejoin:miter;stroke-miterlimit:4;stroke-dasharray:none;stroke-dashoffset:0;stroke-opacity:1;color-rendering:auto;image-rendering:auto;shape-rendering:auto;text-rendering:auto;enable-background:accumulate"
             d="m 411.41211,407.34766 c -1.94857,0 -3.77034,0.28511 -5.43359,0.88476 -1.63295,0.58869 -3.08953,1.44659 -4.3125,2.56641 -1.22342,1.09225 -2.19228,2.42892 -2.86524,3.94531 l -0.008,0.0176 -0.006,0.0156 c -0.64695,1.53449 -0.96484,3.20442 -0.96484,4.94532 0,1.74086 0.3179,3.40887 0.96484,4.94336 l 0.006,0.0156 0.008,0.0176 c 0.67301,1.51649 1.63691,2.86166 2.85352,3.97851 l 0.0117,0.01 0.0117,0.0117 c 1.22327,1.08893 2.67399,1.92522 4.30079,2.51172 1.66325,0.59966 3.48501,0.88476 5.43359,0.88476 1.92277,0 3.72988,-0.28698 5.38867,-0.88476 1.65056,-0.58483 3.12031,-1.41914 4.34766,-2.51172 l 0.0117,-0.0117 0.01,-0.01 c 1.21734,-1.11752 2.16916,-2.46862 2.81446,-3.99023 0.68081,-1.53851 1.01757,-3.21569 1.01757,-4.96484 0,-1.74919 -0.33675,-3.42829 -1.01757,-4.9668 -0.6443,-1.51908 -1.59875,-2.85907 -2.82032,-3.95117 -1.22791,-1.12591 -2.70266,-1.98433 -4.36133,-2.57227 -1.65926,-0.5982 -3.46717,-0.88476 -5.39062,-0.88476 z m 0,4 c 1.52935,0 2.86226,0.22628 4.0332,0.64843 l 0.008,0.002 0.006,0.002 c 1.22066,0.43143 2.20022,1.01623 3.00586,1.75586 l 0.0117,0.01 0.0117,0.01 c 0.80156,0.71353 1.39429,1.54152 1.82227,2.55664 l 0.006,0.0176 0.008,0.0176 c 0.44793,1.00926 0.67773,2.10451 0.67773,3.35547 0,1.2509 -0.22979,2.34422 -0.67773,3.35351 l -0.008,0.0176 -0.006,0.0176 c -0.42836,1.01603 -1.02841,1.86392 -1.83789,2.60937 -0.80523,0.71364 -1.78852,1.28962 -3.01368,1.72266 l -0.006,0.002 -0.008,0.002 c -1.17094,0.42215 -2.50385,0.64843 -4.0332,0.64843 -1.56083,0 -2.90926,-0.22772 -4.07617,-0.64843 -1.197,-0.43155 -2.17249,-1.00695 -2.98438,-1.72657 -0.81116,-0.74689 -1.42638,-1.60534 -1.88281,-2.62695 -0.42412,-1.01206 -0.64453,-2.1142 -0.64453,-3.37109 0,-1.25694 0.22041,-2.36101 0.64453,-3.37305 0.45588,-1.02015 1.06408,-1.85932 1.86719,-2.57422 l 0.0117,-0.01 0.0117,-0.01 c 0.81245,-0.74587 1.78431,-1.32995 2.97656,-1.75977 1.16691,-0.4207 2.51534,-0.64843 4.07617,-0.64843 z"
             id="path4269"
             inkscape:connector-curvature="0" />
          <path
             style="color:#000000;font-style:normal;font-variant:normal;font-weight:normal;font-stretch:normal;font-size:medium;line-height:125%;font-family:Ubuntu;-inkscape-font-specification:'Ubuntu, Normal';font-variant-ligatures:normal;font-variant-position:normal;font-variant-caps:normal;font-variant-numeric:normal;font-variant-alternates:normal;font-feature-settings:normal;text-indent:0;text-align:start;text-decoration:none;text-decoration-line:none;text-decoration-style:solid;text-decoration-color:#000000;letter-spacing:0px;word-spacing:0px;text-transform:none;writing-mode:lr-tb;direction:ltr;text-orientation:mixed;dominant-baseline:auto;baseline-shift:baseline;text-anchor:start;white-space:normal;shape-padding:0;clip-rule:nonzero;display:inline;overflow:visible;visibility:visible;opacity:1;isolation:auto;mix-blend-mode:normal;color-interpolation:sRGB;color-interpolation-filters:linearRGB;solid-color:#000000;solid-opacity:1;fill:#808080;fill-opacity:1;fill-rule:nonzero;stroke:none;stroke-width:4.00079107;stroke-linecap:butt;stroke-linejoin:miter;stroke-miterlimit:4;stroke-dasharray:none;stroke-dashoffset:0;stroke-opacity:1;color-rendering:auto;image-rendering:auto;shape-rendering:auto;text-rendering:auto;enable-background:accumulate"
             d="m 388.94336,419.71289 c 0,8.18622 -0.9365,12.73253 -2.5957,14.9043 -0.82961,1.08588 -1.82078,1.73327 -3.36133,2.19726 -1.54056,0.46399 -3.62134,0.67202 -6.25977,0.67774 h -4.95898 v 4 h 4.96484 0.002 c 2.82822,-0.006 5.25681,-0.19833 7.40624,-0.84571 2.14944,-0.64737 4.02771,-1.82332 5.38477,-3.5996 2.71412,-3.55257 3.41797,-8.88482 3.41797,-17.33399 z"
             id="path4271"
             inkscape:connector-curvature="0" />
          <path
             style="color:#000000;font-style:normal;font-variant:normal;font-weight:normal;font-stretch:normal;font-size:medium;line-height:normal;font-family:sans-serif;font-variant-ligatures:normal;font-variant-position:normal;font-variant-caps:normal;font-variant-numeric:normal;font-variant-alternates:normal;font-feature-settings:normal;text-indent:0;text-align:start;text-decoration:none;text-decoration-line:none;text-decoration-style:solid;text-decoration-color:#000000;letter-spacing:normal;word-spacing:normal;text-transform:none;writing-mode:lr-tb;direction:ltr;text-orientation:mixed;dominant-baseline:auto;baseline-shift:baseline;text-anchor:start;white-space:normal;shape-padding:0;clip-rule:nonzero;display:inline;overflow:visible;visibility:visible;opacity:1;isolation:auto;mix-blend-mode:normal;color-interpolation:sRGB;color-interpolation-filters:linearRGB;solid-color:#000000;solid-opacity:1;fill:#808080;fill-opacity:1;fill-rule:nonzero;stroke:none;stroke-width:4.00079107;stroke-linecap:butt;stroke-linejoin:miter;stroke-miterlimit:4;stroke-dasharray:none;stroke-dashoffset:0;stroke-opacity:1;marker:none;color-rendering:auto;image-rendering:auto;shape-rendering:auto;text-rendering:auto;enable-background:accumulate"
             d="m 369.14648,345.36133 -25.18164,25.17187 2.82813,2.82813 25.18164,-25.16992 z"
             id="path5390"
             inkscape:connector-curvature="0" />
          <path
             style="color:#000000;font-style:normal;font-variant:normal;font-weight:normal;font-stretch:normal;font-size:medium;line-height:normal;font-family:sans-serif;font-variant-ligatures:normal;font-variant-position:normal;font-variant-caps:normal;font-variant-numeric:normal;font-variant-alternates:normal;font-feature-settings:normal;text-indent:0;text-align:start;text-decoration:none;text-decoration-line:none;text-decoration-style:solid;text-decoration-color:#000000;letter-spacing:normal;word-spacing:normal;text-transform:none;writing-mode:lr-tb;direction:ltr;text-orientation:mixed;dominant-baseline:auto;baseline-shift:baseline;text-anchor:start;white-space:normal;shape-padding:0;clip-rule:nonzero;display:inline;overflow:visible;visibility:visible;opacity:1;isolation:auto;mix-blend-mode:normal;color-interpolation:sRGB;color-interpolation-filters:linearRGB;solid-color:#000000;solid-opacity:1;fill:#808080;fill-opacity:1;fill-rule:nonzero;stroke:none;stroke-width:4.00079107;stroke-linecap:butt;stroke-linejoin:miter;stroke-miterlimit:4;stroke-dasharray:none;stroke-dashoffset:0;stroke-opacity:1;marker:none;color-rendering:auto;image-rendering:auto;shape-rendering:auto;text-rendering:auto;enable-background:accumulate"
             d="m 346.79297,345.36133 -2.82813,2.83008 25.18164,25.16992 2.82813,-2.82813 z"
             id="path5392"
             inkscape:connector-curvature="0" />
        </g>
      </g>
    </g>
  </g>
</svg>
