<?xml version="1.0" encoding="UTF-8" standalone="no"?>
<!-- Created with Inkscape (http://www.inkscape.org/) -->

<svg
   xmlns:dc="http://purl.org/dc/elements/1.1/"
   xmlns:cc="http://creativecommons.org/ns#"
   xmlns:rdf="http://www.w3.org/1999/02/22-rdf-syntax-ns#"
   xmlns:svg="http://www.w3.org/2000/svg"
   xmlns="http://www.w3.org/2000/svg"
   xmlns:sodipodi="http://sodipodi.sourceforge.net/DTD/sodipodi-0.dtd"
   xmlns:inkscape="http://www.inkscape.org/namespaces/inkscape"
   width="96"
   height="96"
   id="svg4874"
   version="1.1"
   inkscape:version="0.91+devel r"
   viewBox="0 0 96 96.000001"
   sodipodi:docname="rotate-right.svg">
  <defs
     id="defs4876" />
  <sodipodi:namedview
     id="base"
     pagecolor="#ffffff"
     bordercolor="#666666"
     borderopacity="1.0"
     inkscape:pageopacity="0.0"
     inkscape:pageshadow="2"
     inkscape:zoom="7.024999"
     inkscape:cx="109.81075"
     inkscape:cy="31.025706"
     inkscape:document-units="px"
     inkscape:current-layer="layer1"
     showgrid="true"
     showborder="true"
     fit-margin-top="0"
     fit-margin-left="0"
     fit-margin-right="0"
     fit-margin-bottom="0"
     inkscape:snap-bbox="true"
     inkscape:bbox-paths="true"
     inkscape:bbox-nodes="true"
     inkscape:snap-bbox-edge-midpoints="true"
     inkscape:snap-bbox-midpoints="true"
     inkscape:object-paths="true"
     inkscape:snap-intersection-paths="true"
     inkscape:object-nodes="true"
     inkscape:snap-smooth-nodes="true"
     inkscape:snap-midpoints="true"
     inkscape:snap-object-midpoints="true"
     inkscape:snap-center="true"
     showguides="true"
     inkscape:guide-bbox="true"
     inkscape:snap-global="true">
    <inkscape:grid
       type="xygrid"
       id="grid5451"
       empspacing="8" />
    <sodipodi:guide
       orientation="1,0"
       position="8,-8.0000001"
       id="guide4063"
       inkscape:locked="false" />
    <sodipodi:guide
       orientation="1,0"
       position="4,-8.0000001"
       id="guide4065"
       inkscape:locked="false" />
    <sodipodi:guide
       orientation="0,1"
       position="-8,88.000001"
       id="guide4067"
       inkscape:locked="false" />
    <sodipodi:guide
       orientation="0,1"
       position="-8,92.000001"
       id="guide4069"
       inkscape:locked="false" />
    <sodipodi:guide
       orientation="0,1"
       position="104,4"
       id="guide4071"
       inkscape:locked="false" />
    <sodipodi:guide
       orientation="0,1"
       position="-5,8.0000001"
       id="guide4073"
       inkscape:locked="false" />
    <sodipodi:guide
       orientation="1,0"
       position="88,-8.0000001"
       id="guide4077"
       inkscape:locked="false" />
    <sodipodi:guide
       orientation="0,1"
       position="-8,84.000001"
       id="guide4074"
       inkscape:locked="false" />
    <sodipodi:guide
       orientation="1,0"
       position="12,-8.0000001"
       id="guide4076"
       inkscape:locked="false" />
    <sodipodi:guide
       orientation="1,0"
       position="84,-8.0000001"
       id="guide4080"
       inkscape:locked="false" />
    <sodipodi:guide
       position="48,-8.0000001"
       orientation="1,0"
       id="guide4170"
       inkscape:locked="false" />
    <sodipodi:guide
       position="-8,48"
       orientation="0,1"
       id="guide4172"
       inkscape:locked="false" />
    <sodipodi:guide
       position="92,-8.0000001"
       orientation="1,0"
       id="guide4760"
       inkscape:locked="false" />
  </sodipodi:namedview>
  <metadata
     id="metadata4879">
    <rdf:RDF>
      <cc:Work
         rdf:about="">
        <dc:format>image/svg+xml</dc:format>
        <dc:type
           rdf:resource="http://purl.org/dc/dcmitype/StillImage" />
        <dc:title></dc:title>
      </cc:Work>
    </rdf:RDF>
  </metadata>
  <g
     inkscape:label="Layer 1"
     inkscape:groupmode="layer"
     id="layer1"
     transform="translate(67.857146,-78.50504)">
    <rect
       transform="rotate(90)"
       y="-28.142855"
       x="78.505035"
       height="96"
       width="96.000008"
       id="rect4782-80"
       style="color:#000000;display:inline;overflow:visible;visibility:visible;fill:none;stroke:none;stroke-width:3.99920893;marker:none;enable-background:accumulate" />
    <path
       inkscape:connector-curvature="0"
       id="path4116-7"
       d="m -45.846465,101.43165 c -1.38686,1.2374 -2.695975,2.58405 -3.913172,4.03469 -9.737574,11.60507 -11.870135,27.81303 -5.466557,41.54397 6.403578,13.73094 20.192768,22.51698 35.342815,22.518 v -3.99878 c -13.605052,-9.2e-4 -25.966223,-7.87844 -31.71685,-20.20931 -5.750626,-12.33087 -3.839773,-26.86284 4.90458,-37.28422 8.744352,-10.421377 22.722973,-14.828107 35.864768,-11.305947 l 1.0355902,-3.86346 c -12.8047742,-3.43183 -26.3431552,-0.0967 -36.0511742,8.565057 z"
       style="color:#000000;font-style:normal;font-variant:normal;font-weight:normal;font-stretch:normal;font-size:medium;line-height:normal;font-family:sans-serif;font-variant-ligatures:none;font-variant-position:normal;font-variant-caps:normal;font-variant-numeric:normal;font-variant-alternates:normal;font-feature-settings:normal;text-indent:0;text-align:start;text-decoration:none;text-decoration-line:none;text-decoration-style:solid;text-decoration-color:#000000;letter-spacing:normal;word-spacing:normal;text-transform:none;writing-mode:lr-tb;direction:ltr;baseline-shift:baseline;text-anchor:start;white-space:normal;shape-padding:0;clip-rule:nonzero;display:inline;overflow:visible;visibility:visible;opacity:1;isolation:auto;mix-blend-mode:normal;color-interpolation:sRGB;color-interpolation-filters:linearRGB;solid-color:#000000;solid-opacity:1;fill:#808080;fill-opacity:1;fill-rule:nonzero;stroke:none;stroke-width:3.99999976;stroke-linecap:butt;stroke-linejoin:round;stroke-miterlimit:4;stroke-dasharray:none;stroke-dashoffset:0;stroke-opacity:1;marker:none;color-rendering:auto;image-rendering:auto;shape-rendering:auto;text-rendering:auto;enable-background:accumulate" />
    <path
       inkscape:connector-curvature="0"
       id="path4178-1"
       d="m -19.85628,118.50532 c -6.604119,0 -11.999999,5.39631 -11.999999,11.99916 0,6.60285 5.39588,11.99915 11.999999,11.99915 6.60412,0 12.0000012,-5.3963 12.0000012,-11.99915 0,-6.60285 -5.3958812,-11.99916 -12.0000012,-11.99916 z m 0,4.00036 c 4.441096,0 7.998048,3.55643 7.998048,7.9988 0,4.44237 -3.556952,8.00073 -7.998048,8.00073 -4.441096,0 -8.000012,-3.55836 -8.000012,-8.00073 0,-4.44237 3.558916,-7.99878 8.000012,-7.9988 z"
       style="color:#000000;font-style:normal;font-variant:normal;font-weight:normal;font-stretch:normal;font-size:medium;line-height:normal;font-family:sans-serif;font-variant-ligatures:none;font-variant-position:normal;font-variant-caps:normal;font-variant-numeric:normal;font-variant-alternates:normal;font-feature-settings:normal;text-indent:0;text-align:start;text-decoration:none;text-decoration-line:none;text-decoration-style:solid;text-decoration-color:#000000;letter-spacing:normal;word-spacing:normal;text-transform:none;writing-mode:lr-tb;direction:ltr;baseline-shift:baseline;text-anchor:start;white-space:normal;shape-padding:0;clip-rule:nonzero;display:inline;overflow:visible;visibility:visible;opacity:1;isolation:auto;mix-blend-mode:normal;color-interpolation:sRGB;color-interpolation-filters:linearRGB;solid-color:#000000;solid-opacity:1;fill:#808080;fill-opacity:1;fill-rule:nonzero;stroke:none;stroke-width:3.99999976;stroke-linecap:butt;stroke-linejoin:miter;stroke-miterlimit:4;stroke-dasharray:none;stroke-dashoffset:1.5999999;stroke-opacity:1;marker:none;color-rendering:auto;image-rendering:auto;shape-rendering:auto;text-rendering:auto;enable-background:accumulate" />
    <path
       inkscape:connector-curvature="0"
       id="path4180-0"
       d="m 10.357411,112.93091 1.12672,2.09329 0.99005,2.19132 0.11036,0.29824 3.74887,-1.39875 -0.13795,-0.36729 -0.051,-0.12563 -1.03699,-2.2935 -0.0609,-0.12152 -1.19988,-2.23274 -0.0692,-0.11876 -1.36147,-2.16232 -3.3856998,2.13194 z m 4.49311,13.35782 0.2056,2.34596 0.0495,2.35012 -0.065,1.39875 3.99602,0.18501 0.0677,-1.48159 9.8e-4,-0.13394 -0.0525,-2.47715 -0.008,-0.13395 -0.21807,-2.4661 -0.0151,-0.13255 -0.24152,-1.5451 -3.95047,0.61722 z m -34.666246,43.2382 0.15874,-0.004 -0.137953,-3.99879 -0.157228,0.006 z m 8.497436,-0.9638 1.8944502,-0.46394 0.129638,-0.0359 2.376342,-0.75254 0.12548,-0.0456 2.31284,-0.90718 0.12284,-0.0539 0.9693,-0.45843 -1.70805,-3.61629 -0.93343,0.43909 -2.163665,0.84918 -2.2521072,0.71388 -1.82264,0.44461 z m 25.05313,-28.31182 -0.73599,2.25484 -0.9044,2.23828 -1.05215,2.16508 3.59694,1.74947 1.08257,-2.22584 0.0567,-0.12567 0.94862,-2.34874 0.0469,-0.12979 0.78154,-2.39154 0.0378,-0.13118 0.11603,-0.45843 -3.87727,-0.98036 z m -9.9513898,21.25183 0.66966,-0.50124 0.10621,-0.0842 1.88477,-1.61691 0.0994,-0.0912 1.77706,-1.74671 0.0926,-0.0981 1.45395,-1.63348 -2.98942,-2.65803 -1.4222,1.59896 -1.66938,1.63624 -1.79365,1.53959 -0.6034,0.45152 z"
       style="color:#000000;font-style:normal;font-variant:normal;font-weight:normal;font-stretch:normal;font-size:medium;line-height:normal;font-family:sans-serif;font-variant-ligatures:none;font-variant-position:normal;font-variant-caps:normal;font-variant-numeric:normal;font-variant-alternates:normal;font-feature-settings:normal;text-indent:0;text-align:start;text-decoration:none;text-decoration-line:none;text-decoration-style:solid;text-decoration-color:#000000;letter-spacing:normal;word-spacing:normal;text-transform:none;writing-mode:lr-tb;direction:ltr;baseline-shift:baseline;text-anchor:start;white-space:normal;shape-padding:0;clip-rule:nonzero;display:inline;overflow:visible;visibility:visible;opacity:1;isolation:auto;mix-blend-mode:normal;color-interpolation:sRGB;color-interpolation-filters:linearRGB;solid-color:#000000;solid-opacity:1;fill:#808080;fill-opacity:1;fill-rule:nonzero;stroke:none;stroke-width:3.99999976;stroke-linecap:butt;stroke-linejoin:round;stroke-miterlimit:4;stroke-dasharray:7.99999962, 7.99999962;stroke-dashoffset:0;stroke-opacity:1;marker:none;color-rendering:auto;image-rendering:auto;shape-rendering:auto;text-rendering:auto;enable-background:accumulate" />
    <path
       style="color:#000000;display:inline;overflow:visible;visibility:visible;opacity:1;fill:#808080;fill-opacity:1;fill-rule:nonzero;stroke:none;stroke-width:2.99940658;marker:none;enable-background:accumulate"
       d="m -19.855902,81.505083 0.0076,23.999997 c 3.650079,-1.66875 7.365959,-3.53592 11.1492292,-5.598717 3.747744,-2.06778 7.362824,-4.20051 10.842864,-6.40027 -3.48008,-2.15574 -7.09516,-4.26806 -10.842905,-6.33582 -3.7853482,-2.06393 -7.5033452,-3.95191 -11.1553512,-5.66519 z"
       id="path5588-9-2-96-6"
       inkscape:connector-curvature="0" />
  </g>
</svg>
