<?xml version="1.0" encoding="UTF-8" standalone="no"?>
<!-- Created with Inkscape (http://www.inkscape.org/) -->

<svg
   xmlns:dc="http://purl.org/dc/elements/1.1/"
   xmlns:cc="http://creativecommons.org/ns#"
   xmlns:rdf="http://www.w3.org/1999/02/22-rdf-syntax-ns#"
   xmlns:svg="http://www.w3.org/2000/svg"
   xmlns="http://www.w3.org/2000/svg"
   xmlns:sodipodi="http://sodipodi.sourceforge.net/DTD/sodipodi-0.dtd"
   xmlns:inkscape="http://www.inkscape.org/namespaces/inkscape"
   width="96"
   height="96"
   id="svg4874"
   version="1.1"
   inkscape:version="0.91+devel r"
   viewBox="0 0 96 96.000001"
   sodipodi:docname="rotate-left.svg">
  <defs
     id="defs4876" />
  <sodipodi:namedview
     id="base"
     pagecolor="#ffffff"
     bordercolor="#666666"
     borderopacity="1.0"
     inkscape:pageopacity="0.0"
     inkscape:pageshadow="2"
     inkscape:zoom="7.024999"
     inkscape:cx="109.81075"
     inkscape:cy="31.025706"
     inkscape:document-units="px"
     inkscape:current-layer="layer1"
     showgrid="true"
     showborder="true"
     fit-margin-top="0"
     fit-margin-left="0"
     fit-margin-right="0"
     fit-margin-bottom="0"
     inkscape:snap-bbox="true"
     inkscape:bbox-paths="true"
     inkscape:bbox-nodes="true"
     inkscape:snap-bbox-edge-midpoints="true"
     inkscape:snap-bbox-midpoints="true"
     inkscape:object-paths="true"
     inkscape:snap-intersection-paths="true"
     inkscape:object-nodes="true"
     inkscape:snap-smooth-nodes="true"
     inkscape:snap-midpoints="true"
     inkscape:snap-object-midpoints="true"
     inkscape:snap-center="true"
     showguides="true"
     inkscape:guide-bbox="true"
     inkscape:snap-global="true">
    <inkscape:grid
       type="xygrid"
       id="grid5451"
       empspacing="8" />
    <sodipodi:guide
       orientation="1,0"
       position="8,-8.0000001"
       id="guide4063"
       inkscape:locked="false" />
    <sodipodi:guide
       orientation="1,0"
       position="4,-8.0000001"
       id="guide4065"
       inkscape:locked="false" />
    <sodipodi:guide
       orientation="0,1"
       position="-8,88.000001"
       id="guide4067"
       inkscape:locked="false" />
    <sodipodi:guide
       orientation="0,1"
       position="-8,92.000001"
       id="guide4069"
       inkscape:locked="false" />
    <sodipodi:guide
       orientation="0,1"
       position="104,4"
       id="guide4071"
       inkscape:locked="false" />
    <sodipodi:guide
       orientation="0,1"
       position="-5,8.0000001"
       id="guide4073"
       inkscape:locked="false" />
    <sodipodi:guide
       orientation="1,0"
       position="88,-8.0000001"
       id="guide4077"
       inkscape:locked="false" />
    <sodipodi:guide
       orientation="0,1"
       position="-8,84.000001"
       id="guide4074"
       inkscape:locked="false" />
    <sodipodi:guide
       orientation="1,0"
       position="12,-8.0000001"
       id="guide4076"
       inkscape:locked="false" />
    <sodipodi:guide
       orientation="1,0"
       position="84,-8.0000001"
       id="guide4080"
       inkscape:locked="false" />
    <sodipodi:guide
       position="48,-8.0000001"
       orientation="1,0"
       id="guide4170"
       inkscape:locked="false" />
    <sodipodi:guide
       position="-8,48"
       orientation="0,1"
       id="guide4172"
       inkscape:locked="false" />
    <sodipodi:guide
       position="92,-8.0000001"
       orientation="1,0"
       id="guide4760"
       inkscape:locked="false" />
  </sodipodi:namedview>
  <metadata
     id="metadata4879">
    <rdf:RDF>
      <cc:Work
         rdf:about="">
        <dc:format>image/svg+xml</dc:format>
        <dc:type
           rdf:resource="http://purl.org/dc/dcmitype/StillImage" />
        <dc:title></dc:title>
      </cc:Work>
    </rdf:RDF>
  </metadata>
  <g
     inkscape:label="Layer 1"
     inkscape:groupmode="layer"
     id="layer1"
     transform="translate(67.857146,-78.50504)">
    <rect
       transform="matrix(0,1,1,0,0,0)"
       y="-67.857147"
       x="78.505035"
       height="96"
       width="96.000008"
       id="rect4782-060"
       style="color:#000000;display:inline;overflow:visible;visibility:visible;fill:none;stroke:none;stroke-width:3.99920893;marker:none;enable-background:accumulate" />
    <path
       inkscape:connector-curvature="0"
       id="path4116-1"
       d="m 6.1321012,101.43165 c 1.38686,1.23739 2.695975,2.58404 3.9131718,4.03468 9.737575,11.60508 11.870135,27.81303 5.466557,41.54397 -6.4035768,13.73094 -20.1927688,22.51698 -35.342819,22.518 v -3.99878 C -6.2259288,165.5286 6.1352412,157.65108 11.885865,145.32021 17.636492,132.98934 15.725638,118.45737 6.9812912,108.03599 -1.7630688,97.614613 -15.741689,93.207883 -28.883479,96.730043 l -1.03559,-3.86346 c 12.80477,-3.43183 26.3431502,-0.0967 36.0511702,8.565067 z"
       style="color:#000000;font-style:normal;font-variant:normal;font-weight:normal;font-stretch:normal;font-size:medium;line-height:normal;font-family:sans-serif;font-variant-ligatures:none;font-variant-position:normal;font-variant-caps:normal;font-variant-numeric:normal;font-variant-alternates:normal;font-feature-settings:normal;text-indent:0;text-align:start;text-decoration:none;text-decoration-line:none;text-decoration-style:solid;text-decoration-color:#000000;letter-spacing:normal;word-spacing:normal;text-transform:none;writing-mode:lr-tb;direction:ltr;baseline-shift:baseline;text-anchor:start;white-space:normal;shape-padding:0;clip-rule:nonzero;display:inline;overflow:visible;visibility:visible;opacity:1;isolation:auto;mix-blend-mode:normal;color-interpolation:sRGB;color-interpolation-filters:linearRGB;solid-color:#000000;solid-opacity:1;fill:#808080;fill-opacity:1;fill-rule:nonzero;stroke:none;stroke-width:3.99999976;stroke-linecap:butt;stroke-linejoin:round;stroke-miterlimit:4;stroke-dasharray:none;stroke-dashoffset:0;stroke-opacity:1;marker:none;color-rendering:auto;image-rendering:auto;shape-rendering:auto;text-rendering:auto;enable-background:accumulate" />
    <path
       inkscape:connector-curvature="0"
       id="path4178-4"
       d="m -19.858079,118.50531 c 6.60412,0 12.0000002,5.39631 12.0000002,11.99916 0,6.60285 -5.3958802,11.99915 -12.0000002,11.99915 -6.60412,0 -12,-5.3963 -12,-11.99915 0,-6.60285 5.39588,-11.99916 12,-11.99916 z m 0,4.00036 c -4.4411,0 -7.99805,3.55643 -7.99805,7.9988 0,4.44237 3.55695,8.00073 7.99805,8.00073 4.44109,0 8.00001,-3.55836 8.00001,-8.00073 0,-4.44237 -3.55892,-7.99878 -8.00001,-7.9988 z"
       style="color:#000000;font-style:normal;font-variant:normal;font-weight:normal;font-stretch:normal;font-size:medium;line-height:normal;font-family:sans-serif;font-variant-ligatures:none;font-variant-position:normal;font-variant-caps:normal;font-variant-numeric:normal;font-variant-alternates:normal;font-feature-settings:normal;text-indent:0;text-align:start;text-decoration:none;text-decoration-line:none;text-decoration-style:solid;text-decoration-color:#000000;letter-spacing:normal;word-spacing:normal;text-transform:none;writing-mode:lr-tb;direction:ltr;baseline-shift:baseline;text-anchor:start;white-space:normal;shape-padding:0;clip-rule:nonzero;display:inline;overflow:visible;visibility:visible;opacity:1;isolation:auto;mix-blend-mode:normal;color-interpolation:sRGB;color-interpolation-filters:linearRGB;solid-color:#000000;solid-opacity:1;fill:#808080;fill-opacity:1;fill-rule:nonzero;stroke:none;stroke-width:3.99999976;stroke-linecap:butt;stroke-linejoin:miter;stroke-miterlimit:4;stroke-dasharray:none;stroke-dashoffset:1.5999999;stroke-opacity:1;marker:none;color-rendering:auto;image-rendering:auto;shape-rendering:auto;text-rendering:auto;enable-background:accumulate" />
    <path
       inkscape:connector-curvature="0"
       id="path4180"
       d="m -50.071779,112.9309 -1.12671,2.09329 -0.99005,2.19132 -0.11036,0.29824 -3.74888,-1.39875 0.13795,-0.36729 0.051,-0.12563 1.03699,-2.2935 0.0609,-0.12151 1.19989,-2.23275 0.0692,-0.11876 1.36146,-2.16232 3.3857,2.13195 z m -4.4931,13.35782 -0.20561,2.34596 -0.0495,2.35012 0.065,1.39875 -3.99602,0.18501 -0.0676,-1.48159 -9.8e-4,-0.13394 0.0525,-2.47715 0.008,-0.13395 0.21808,-2.4661 0.0151,-0.13255 0.24151,-1.5451 3.95048,0.61722 z m 34.66624,43.2382 -0.15874,-0.004 0.13795,-3.99878 0.15723,0.006 z m -8.49743,-0.9638 -1.89446,-0.46394 -0.12963,-0.0359 -2.37634,-0.75254 -0.12548,-0.0456 -2.31285,-0.90718 -0.12283,-0.0539 -0.9693,-0.45843 1.70804,-3.61629 0.93343,0.43909 2.16367,0.84918 2.25211,0.71388 1.82264,0.44462 z m -25.05313,-28.31182 0.73599,2.25484 0.9044,2.23828 1.05214,2.16508 -3.59694,1.74947 -1.08257,-2.22584 -0.0567,-0.12563 -0.94862,-2.34874 -0.0469,-0.12979 -0.78153,-2.39154 -0.0378,-0.13118 -0.11603,-0.45843 3.87726,-0.98036 z m 9.95138,21.25183 -0.66966,-0.50124 -0.1062,-0.0842 -1.88478,-1.61691 -0.0994,-0.0912 -1.77705,-1.74671 -0.0926,-0.0981 -1.45395,-1.63348 2.98942,-2.65803 1.4222,1.59896 1.66937,1.63624 1.79366,1.53959 0.6034,0.45152 z"
       style="color:#000000;font-style:normal;font-variant:normal;font-weight:normal;font-stretch:normal;font-size:medium;line-height:normal;font-family:sans-serif;font-variant-ligatures:none;font-variant-position:normal;font-variant-caps:normal;font-variant-numeric:normal;font-variant-alternates:normal;font-feature-settings:normal;text-indent:0;text-align:start;text-decoration:none;text-decoration-line:none;text-decoration-style:solid;text-decoration-color:#000000;letter-spacing:normal;word-spacing:normal;text-transform:none;writing-mode:lr-tb;direction:ltr;baseline-shift:baseline;text-anchor:start;white-space:normal;shape-padding:0;clip-rule:nonzero;display:inline;overflow:visible;visibility:visible;opacity:1;isolation:auto;mix-blend-mode:normal;color-interpolation:sRGB;color-interpolation-filters:linearRGB;solid-color:#000000;solid-opacity:1;fill:#808080;fill-opacity:1;fill-rule:nonzero;stroke:none;stroke-width:3.99999976;stroke-linecap:butt;stroke-linejoin:round;stroke-miterlimit:4;stroke-dasharray:7.99999962, 7.99999962;stroke-dashoffset:0;stroke-opacity:1;marker:none;color-rendering:auto;image-rendering:auto;shape-rendering:auto;text-rendering:auto;enable-background:accumulate" />
    <path
       inkscape:connector-curvature="0"
       id="path5713"
       d="m -19.856119,81.505113 -0.008,23.999997 c -3.65008,-1.66875 -7.36596,-3.53592 -11.14923,-5.598717 -3.74774,-2.06778 -7.36282,-4.20051 -10.84286,-6.40027 3.48004,-2.15574 7.09512,-4.26806 10.84286,-6.33583 3.78535,-2.06392 7.50335,-3.9519 11.15535,-5.66518 z"
       style="color:#000000;display:inline;overflow:visible;visibility:visible;opacity:1;fill:#808080;fill-opacity:1;fill-rule:nonzero;stroke:none;stroke-width:2.99940658;marker:none;enable-background:accumulate" />
  </g>
</svg>
