<?xml version="1.0" encoding="UTF-8" standalone="no"?>
<!-- Created with Inkscape (http://www.inkscape.org/) -->

<svg
   xmlns:dc="http://purl.org/dc/elements/1.1/"
   xmlns:cc="http://creativecommons.org/ns#"
   xmlns:rdf="http://www.w3.org/1999/02/22-rdf-syntax-ns#"
   xmlns:svg="http://www.w3.org/2000/svg"
   xmlns="http://www.w3.org/2000/svg"
   xmlns:sodipodi="http://sodipodi.sourceforge.net/DTD/sodipodi-0.dtd"
   xmlns:inkscape="http://www.inkscape.org/namespaces/inkscape"
   width="96"
   height="96"
   id="svg4874"
   version="1.1"
   inkscape:version="0.91 r13725"
   viewBox="0 0 96 96.000001"
   sodipodi:docname="stock_key01.svg">
  <defs
     id="defs4876" />
  <sodipodi:namedview
     id="base"
     pagecolor="#ffffff"
     bordercolor="#666666"
     borderopacity="1.0"
     inkscape:pageopacity="0.0"
     inkscape:pageshadow="2"
     inkscape:zoom="8.7812489"
     inkscape:cx="35.148755"
     inkscape:cy="15.789312"
     inkscape:document-units="px"
     inkscape:current-layer="g4780"
     showgrid="true"
     showborder="true"
     fit-margin-top="0"
     fit-margin-left="0"
     fit-margin-right="0"
     fit-margin-bottom="0"
     inkscape:snap-bbox="true"
     inkscape:bbox-paths="true"
     inkscape:bbox-nodes="true"
     inkscape:snap-bbox-edge-midpoints="true"
     inkscape:snap-bbox-midpoints="true"
     inkscape:object-paths="true"
     inkscape:snap-intersection-paths="true"
     inkscape:object-nodes="true"
     inkscape:snap-smooth-nodes="true"
     inkscape:snap-midpoints="true"
     inkscape:snap-object-midpoints="true"
     inkscape:snap-center="true"
     showguides="true"
     inkscape:guide-bbox="true"
     inkscape:snap-global="true">
    <inkscape:grid
       type="xygrid"
       id="grid5451"
       empspacing="8" />
    <sodipodi:guide
       orientation="1,0"
       position="8,-8.0000001"
       id="guide4063" />
    <sodipodi:guide
       orientation="1,0"
       position="4,-8.0000001"
       id="guide4065" />
    <sodipodi:guide
       orientation="0,1"
       position="-8,88.000001"
       id="guide4067" />
    <sodipodi:guide
       orientation="0,1"
       position="45,92.000001"
       id="guide4069" />
    <sodipodi:guide
       orientation="0,1"
       position="-8,4"
       id="guide4071" />
    <sodipodi:guide
       orientation="0,1"
       position="-8,8.0000001"
       id="guide4073" />
    <sodipodi:guide
       orientation="1,0"
       position="88,-8.0000001"
       id="guide4077" />
    <sodipodi:guide
       orientation="0,1"
       position="-8,84.000001"
       id="guide4074" />
    <sodipodi:guide
       orientation="1,0"
       position="12,-8.0000001"
       id="guide4076" />
    <sodipodi:guide
       orientation="1,0"
       position="84,-8.0000001"
       id="guide4080" />
    <sodipodi:guide
       position="48,-8.0000001"
       orientation="1,0"
       id="guide4170" />
    <sodipodi:guide
       position="-8,48"
       orientation="0,1"
       id="guide4172" />
    <sodipodi:guide
       position="92,-8.0000001"
       orientation="1,0"
       id="guide4760" />
    <sodipodi:guide
       position="-8,12"
       orientation="0,1"
       id="guide3234" />
  </sodipodi:namedview>
  <metadata
     id="metadata4879">
    <rdf:RDF>
      <cc:Work
         rdf:about="">
        <dc:format>image/svg+xml</dc:format>
        <dc:type
           rdf:resource="http://purl.org/dc/dcmitype/StillImage" />
        <dc:title />
      </cc:Work>
    </rdf:RDF>
  </metadata>
  <g
     inkscape:label="Layer 1"
     inkscape:groupmode="layer"
     id="layer1"
     transform="translate(67.857146,-78.50504)">
    <g
       transform="matrix(0,-1,-1,0,373.50506,516.50504)"
       id="g4845">
      <g
         inkscape:export-ydpi="90"
         inkscape:export-xdpi="90"
         inkscape:export-filename="next01.png"
         transform="matrix(-0.9996045,0,0,1,575.94296,-611.00001)"
         id="g4778"
         inkscape:label="Layer 1">
        <g
           transform="matrix(-1,0,0,1,575.99999,611)"
           id="g4780">
          <rect
             style="color:#000000;fill:none;stroke-width:4"
             id="rect4782"
             width="96.037987"
             height="96"
             x="-438.00244"
             y="345.36221"
             transform="scale(-1,1)" />
          <path
             style="color:#000000;solid-opacity:1;fill:#808080;stroke-width:4.00079155"
             d="M 35.976562 0 C 30.943803 0.058176982 27.26124 -0.11846389 24.25 1.5429688 C 22.74438 2.3736801 21.555084 3.7767542 20.896484 5.53125 C 20.237874 7.2857458 20 9.3696407 20 12 L 20 28 C 20 30.630359 20.237874 32.712301 20.896484 34.466797 C 21.555084 36.221293 22.74438 37.624367 24.25 38.455078 C 27.26124 40.116501 30.943792 39.93987 35.976562 39.998047 L 35.988281 40 L 37.998047 40 L 37.998047 72.828125 L 43.169922 78 L 37.169922 84 L 47.169922 94 L 58 94 L 58 40 L 60.011719 40 L 60.021484 39.998047 C 65.054254 39.93987 68.736807 40.116501 71.748047 38.455078 C 73.253667 37.624367 74.444916 36.221293 75.103516 34.466797 C 75.762116 32.712301 76 30.630359 76 28 L 76 12 C 76 9.3696407 75.762116 7.2857458 75.103516 5.53125 C 74.444916 3.7767542 73.253667 2.3736801 71.748047 1.5429688 C 68.736807 -0.11846389 65.054244 0.058176982 60.021484 0 L 60.011719 0 L 35.988281 0 L 35.976562 0 z M 36.023438 3.9980469 L 60 3.9980469 C 65.03826 4.0568136 68.350173 4.2350584 69.814453 5.0429688 C 70.547973 5.4476786 70.967112 5.8977214 71.357422 6.9375 C 71.747742 7.9772786 71.998047 9.6303576 71.998047 12 L 71.998047 28 C 71.998047 30.369642 71.747742 32.022711 71.357422 33.0625 C 70.967112 34.102279 70.547973 34.550368 69.814453 34.955078 C 68.350173 35.762988 65.03825 35.941223 60 36 L 59.976562 36 L 58 36 L 55.998047 36 L 53.998047 36 L 53.998047 90 L 48.828125 90 L 42.828125 84 L 48.828125 78 L 42 71.171875 L 42 36 L 40 36 L 37.998047 36 L 36.023438 36 L 36 36 C 30.96174 35.941233 27.647884 35.762988 26.183594 34.955078 C 25.450074 34.550368 25.032888 34.102279 24.642578 33.0625 C 24.252268 32.022711 24 30.369642 24 28 L 24 12 C 24 9.6303576 24.252268 7.9772786 24.642578 6.9375 C 25.032888 5.8977214 25.450074 5.4476786 26.183594 5.0429688 C 27.650624 4.233549 30.969268 4.0565237 36.023438 3.9980469 z "
             transform="matrix(0,-1,-1.0003957,0,438.00245,441.36222)"
             id="path4643" />
          <ellipse
             style="color:#000000;fill:#808080;stroke-width:4.00079155;stroke-dashoffset:0.25999999"
             id="path3281"
             transform="matrix(0,-1,-1,0,0,0)"
             cx="-393.36221"
             cy="-423.99692"
             rx="5.9999971"
             ry="6.0023713" />
        </g>
      </g>
    </g>
  </g>
</svg>
