<?xml version="1.0" encoding="UTF-8" standalone="no"?>
<!-- Created with Inkscape (http://www.inkscape.org/) -->

<svg
   xmlns:dc="http://purl.org/dc/elements/1.1/"
   xmlns:cc="http://creativecommons.org/ns#"
   xmlns:rdf="http://www.w3.org/1999/02/22-rdf-syntax-ns#"
   xmlns:svg="http://www.w3.org/2000/svg"
   xmlns="http://www.w3.org/2000/svg"
   xmlns:sodipodi="http://sodipodi.sourceforge.net/DTD/sodipodi-0.dtd"
   xmlns:inkscape="http://www.inkscape.org/namespaces/inkscape"
   width="96"
   height="96"
   id="svg4874"
   version="1.1"
   inkscape:version="0.91+devel r"
   viewBox="0 0 96 96.000001"
   sodipodi:docname="contact04b.svg">
  <defs
     id="defs4876" />
  <sodipodi:namedview
     id="base"
     pagecolor="#ffffff"
     bordercolor="#666666"
     borderopacity="1.0"
     inkscape:pageopacity="0.0"
     inkscape:pageshadow="2"
     inkscape:zoom="13.720701"
     inkscape:cx="-0.36441607"
     inkscape:cy="49.782431"
     inkscape:document-units="px"
     inkscape:current-layer="g4780"
     showgrid="true"
     showborder="true"
     fit-margin-top="0"
     fit-margin-left="0"
     fit-margin-right="0"
     fit-margin-bottom="0"
     inkscape:snap-bbox="true"
     inkscape:bbox-paths="true"
     inkscape:bbox-nodes="true"
     inkscape:snap-bbox-edge-midpoints="true"
     inkscape:snap-bbox-midpoints="true"
     inkscape:object-paths="true"
     inkscape:snap-intersection-paths="true"
     inkscape:object-nodes="false"
     inkscape:snap-smooth-nodes="false"
     inkscape:snap-midpoints="false"
     inkscape:snap-object-midpoints="false"
     inkscape:snap-center="false"
     showguides="true"
     inkscape:guide-bbox="true"
     inkscape:snap-others="false">
    <inkscape:grid
       type="xygrid"
       id="grid5451"
       empspacing="8" />
    <sodipodi:guide
       orientation="1,0"
       position="8,-8.0000001"
       id="guide4063"
       inkscape:locked="false" />
    <sodipodi:guide
       orientation="1,0"
       position="4,-8.0000001"
       id="guide4065"
       inkscape:locked="false" />
    <sodipodi:guide
       orientation="0,1"
       position="-8,88.000001"
       id="guide4067"
       inkscape:locked="false" />
    <sodipodi:guide
       orientation="0,1"
       position="-8,92.000001"
       id="guide4069"
       inkscape:locked="false" />
    <sodipodi:guide
       orientation="0,1"
       position="104,4"
       id="guide4071"
       inkscape:locked="false" />
    <sodipodi:guide
       orientation="0,1"
       position="-5,8.0000001"
       id="guide4073"
       inkscape:locked="false" />
    <sodipodi:guide
       orientation="1,0"
       position="92,-8.0000001"
       id="guide4075"
       inkscape:locked="false" />
    <sodipodi:guide
       orientation="1,0"
       position="88,-8.0000001"
       id="guide4077"
       inkscape:locked="false" />
    <sodipodi:guide
       orientation="0,1"
       position="-8,84.000001"
       id="guide4074"
       inkscape:locked="false" />
    <sodipodi:guide
       orientation="1,0"
       position="12,-8.0000001"
       id="guide4076"
       inkscape:locked="false" />
    <sodipodi:guide
       orientation="0,1"
       position="-5,12"
       id="guide4078"
       inkscape:locked="false" />
    <sodipodi:guide
       orientation="1,0"
       position="84,-9.0000001"
       id="guide4080"
       inkscape:locked="false" />
    <sodipodi:guide
       position="48,-8.0000001"
       orientation="1,0"
       id="guide4170"
       inkscape:locked="false" />
    <sodipodi:guide
       position="-8,48"
       orientation="0,1"
       id="guide4172"
       inkscape:locked="false" />
  </sodipodi:namedview>
  <metadata
     id="metadata4879">
    <rdf:RDF>
      <cc:Work
         rdf:about="">
        <dc:format>image/svg+xml</dc:format>
        <dc:type
           rdf:resource="http://purl.org/dc/dcmitype/StillImage" />
        <dc:title />
      </cc:Work>
    </rdf:RDF>
  </metadata>
  <g
     inkscape:label="Layer 1"
     inkscape:groupmode="layer"
     id="layer1"
     transform="translate(67.857146,-78.50504)">
    <g
       transform="matrix(0,-1,-1,0,373.50506,516.50504)"
       id="g4845"
       style="display:inline">
      <g
         inkscape:export-ydpi="90"
         inkscape:export-xdpi="90"
         inkscape:export-filename="next01.png"
         transform="matrix(-0.9996045,0,0,1,575.94296,-611.00001)"
         id="g4778"
         inkscape:label="Layer 1">
        <g
           transform="matrix(-1,0,0,1,575.99999,611)"
           id="g4780"
           style="display:inline">
          <rect
             style="color:#000000;display:inline;overflow:visible;visibility:visible;fill:none;stroke:none;stroke-width:4;marker:none;enable-background:accumulate"
             id="rect4782"
             width="96.037987"
             height="96"
             x="-438.00244"
             y="345.36221"
             transform="scale(-1,1)" />
          <path
             style="color:#000000;font-style:normal;font-variant:normal;font-weight:normal;font-stretch:normal;font-size:medium;line-height:125%;font-family:Ubuntu;-inkscape-font-specification:'Ubuntu, Normal';font-variant-ligatures:normal;font-variant-position:normal;font-variant-caps:normal;font-variant-numeric:normal;font-variant-alternates:normal;font-feature-settings:normal;text-indent:0;text-align:start;text-decoration:none;text-decoration-line:none;text-decoration-style:solid;text-decoration-color:#000000;letter-spacing:0px;word-spacing:0px;text-transform:none;writing-mode:lr-tb;direction:ltr;text-orientation:mixed;dominant-baseline:auto;baseline-shift:baseline;text-anchor:start;white-space:normal;shape-padding:0;clip-rule:nonzero;display:inline;overflow:visible;visibility:visible;opacity:1;isolation:auto;mix-blend-mode:normal;color-interpolation:sRGB;color-interpolation-filters:linearRGB;solid-color:#000000;solid-opacity:1;fill:#808080;fill-opacity:1;fill-rule:nonzero;stroke:none;stroke-width:4.00079107;stroke-linecap:butt;stroke-linejoin:miter;stroke-miterlimit:4;stroke-dasharray:none;stroke-dashoffset:0;stroke-opacity:1;color-rendering:auto;image-rendering:auto;shape-rendering:auto;text-rendering:auto;enable-background:accumulate"
             d="m 406.97852,372.12695 c -3.37757,0 -6.49087,0.50403 -9.30664,1.54297 -2.78686,1.02823 -5.23414,2.51029 -7.28321,4.4336 -2.04738,1.86924 -3.65311,4.13471 -4.78125,6.73632 l -0.008,0.0176 -0.006,0.0176 c -1.07962,2.6207 -1.61328,5.46764 -1.61328,8.48633 0,3.01862 0.53366,5.86757 1.61328,8.48828 l 0.006,0.0176 0.008,0.0156 c 1.12882,2.60318 2.73147,4.89406 4.77344,6.8125 l 0.0117,0.01 0.01,0.01 c 2.04875,1.86651 4.49076,3.31458 7.26954,4.33985 2.81577,1.03896 5.92907,1.54297 9.30664,1.54297 3.32507,0 6.41006,-0.50444 9.21875,-1.53907 l 0.004,-0.002 c 2.82837,-1.02366 5.30094,-2.47001 7.35547,-4.3418 l 0.01,-0.01 0.0117,-0.01 c 2.04226,-1.91875 3.62129,-4.21524 4.69922,-6.82226 1.13683,-2.62534 1.70118,-5.48451 1.70118,-8.51172 0,-3.02531 -0.56583,-5.88193 -1.70118,-8.50586 -1.07726,-2.60648 -2.65861,-4.8816 -4.70703,-6.75195 -2.05279,-1.92677 -4.52858,-3.40719 -7.36133,-4.4336 -2.81173,-1.03744 -5.90091,-1.54297 -9.23046,-1.54297 z m 0,4 c 2.92622,0 5.52967,0.44038 7.8457,1.29493 l 0.006,0.004 0.006,0.002 c 2.38897,0.86416 4.36925,2.05986 6.0039,3.59571 l 0.01,0.0117 0.0117,0.01 c 1.63038,1.48535 2.86011,3.24552 3.72851,5.35352 l 0.006,0.0176 0.008,0.0156 c 0.91152,2.10196 1.37304,4.38974 1.37304,6.92969 0,2.53988 -0.46152,4.8277 -1.37304,6.92969 l -0.008,0.0176 -0.006,0.0176 c -0.86766,2.10621 -2.10074,3.89687 -3.73632,5.4375 -1.63499,1.48774 -3.62091,2.66625 -6.01758,3.53321 l -0.006,0.002 -0.006,0.002 c -2.31603,0.85456 -4.91948,1.29688 -7.8457,1.29688 -2.98074,0 -5.60995,-0.44383 -7.92188,-1.29688 -2.34557,-0.86543 -4.30945,-2.04319 -5.95117,-3.53711 -1.63702,-1.54179 -2.8978,-3.34217 -3.81641,-5.45312 -0.86491,-2.10523 -1.30664,-4.403 -1.30664,-6.94922 0,-2.54768 0.4408,-4.84503 1.30664,-6.95117 0.91923,-2.1116 2.17733,-3.87912 3.8086,-5.36524 l 0.0117,-0.01 0.01,-0.0117 c 1.6414,-1.54218 3.59983,-2.73907 5.9375,-3.60156 2.31194,-0.85305 4.94114,-1.29493 7.92188,-1.29493 z"
             id="path4202"
             inkscape:connector-curvature="0" />
          <path
             style="color:#000000;font-style:normal;font-variant:normal;font-weight:normal;font-stretch:normal;font-size:medium;line-height:125%;font-family:Ubuntu;-inkscape-font-specification:'Ubuntu, Normal';font-variant-ligatures:normal;font-variant-position:normal;font-variant-caps:normal;font-variant-numeric:normal;font-variant-alternates:normal;font-feature-settings:normal;text-indent:0;text-align:start;text-decoration:none;text-decoration-line:none;text-decoration-style:solid;text-decoration-color:#000000;letter-spacing:0px;word-spacing:0px;text-transform:none;writing-mode:lr-tb;direction:ltr;text-orientation:mixed;dominant-baseline:auto;baseline-shift:baseline;text-anchor:start;white-space:normal;shape-padding:0;clip-rule:nonzero;display:inline;overflow:visible;visibility:visible;opacity:1;isolation:auto;mix-blend-mode:normal;color-interpolation:sRGB;color-interpolation-filters:linearRGB;solid-color:#000000;solid-opacity:1;fill:#808080;fill-opacity:1;fill-rule:nonzero;stroke:none;stroke-width:4.00079107;stroke-linecap:butt;stroke-linejoin:miter;stroke-miterlimit:4;stroke-dasharray:none;stroke-dashoffset:0;stroke-opacity:1;color-rendering:auto;image-rendering:auto;shape-rendering:auto;text-rendering:auto;enable-background:accumulate"
             d="m 349.96875,353.34766 -0.002,4 c 4.90208,0.004 8.84435,0.38878 11.90429,1.35351 3.05995,0.96474 5.23773,2.43182 6.98633,4.83594 3.4972,4.80824 5.11914,13.94918 5.11914,29.82422 0,15.87504 -1.62113,25.0172 -5.11914,29.83008 -1.749,2.40643 -3.92781,3.87678 -6.98828,4.8457 -3.06046,0.96892 -7.00402,1.35992 -11.90625,1.37109 l 0.01,4 c 5.10173,-0.0116 9.41131,-0.38772 13.10351,-1.55664 3.69221,-1.16892 6.765,-3.20734 9.01758,-6.30664 4.50515,-6.19859 5.88477,-16.0584 5.88477,-32.18359 -10e-6,-16.12519 -1.3788,-25.98255 -5.88477,-32.17774 -2.25298,-3.09759 -5.32681,-5.13264 -9.01953,-6.29687 -3.69272,-1.16424 -8.00359,-1.53539 -13.10547,-1.53906 z"
             id="path4228"
             inkscape:connector-curvature="0" />
        </g>
      </g>
    </g>
  </g>
</svg>
