<?xml version="1.0" encoding="UTF-8" standalone="no"?>
<!-- Created with Inkscape (http://www.inkscape.org/) -->

<svg
   xmlns:dc="http://purl.org/dc/elements/1.1/"
   xmlns:cc="http://creativecommons.org/ns#"
   xmlns:rdf="http://www.w3.org/1999/02/22-rdf-syntax-ns#"
   xmlns:svg="http://www.w3.org/2000/svg"
   xmlns="http://www.w3.org/2000/svg"
   xmlns:sodipodi="http://sodipodi.sourceforge.net/DTD/sodipodi-0.dtd"
   xmlns:inkscape="http://www.inkscape.org/namespaces/inkscape"
   width="96"
   height="96"
   id="svg4874"
   version="1.1"
   inkscape:version="0.91+devel r"
   viewBox="0 0 96 96.000001"
   sodipodi:docname="stock_link.svg">
  <defs
     id="defs4876" />
  <sodipodi:namedview
     id="base"
     pagecolor="#ffffff"
     bordercolor="#666666"
     borderopacity="1.0"
     inkscape:pageopacity="0.0"
     inkscape:pageshadow="2"
     inkscape:zoom="8.7812488"
     inkscape:cx="22.143771"
     inkscape:cy="63.339496"
     inkscape:document-units="px"
     inkscape:current-layer="g4780"
     showgrid="true"
     showborder="true"
     fit-margin-top="0"
     fit-margin-left="0"
     fit-margin-right="0"
     fit-margin-bottom="0"
     inkscape:snap-bbox="true"
     inkscape:bbox-paths="true"
     inkscape:bbox-nodes="true"
     inkscape:snap-bbox-edge-midpoints="true"
     inkscape:snap-bbox-midpoints="true"
     inkscape:object-paths="true"
     inkscape:snap-intersection-paths="true"
     inkscape:object-nodes="true"
     inkscape:snap-smooth-nodes="true"
     inkscape:snap-midpoints="true"
     inkscape:snap-object-midpoints="true"
     inkscape:snap-center="true"
     showguides="true"
     inkscape:guide-bbox="true"
     inkscape:snap-global="true">
    <inkscape:grid
       type="xygrid"
       id="grid5451"
       empspacing="8" />
    <sodipodi:guide
       orientation="1,0"
       position="8,-8.0000001"
       id="guide4063" />
    <sodipodi:guide
       orientation="1,0"
       position="4,-8.0000001"
       id="guide4065" />
    <sodipodi:guide
       orientation="0,1"
       position="-8,88.000001"
       id="guide4067" />
    <sodipodi:guide
       orientation="0,1"
       position="-8,92.000001"
       id="guide4069" />
    <sodipodi:guide
       orientation="0,1"
       position="104,4"
       id="guide4071" />
    <sodipodi:guide
       orientation="0,1"
       position="-5,8.0000001"
       id="guide4073" />
    <sodipodi:guide
       orientation="1,0"
       position="92,-8.0000001"
       id="guide4075" />
    <sodipodi:guide
       orientation="1,0"
       position="88,-8.0000001"
       id="guide4077" />
    <sodipodi:guide
       orientation="0,1"
       position="-8,84.000001"
       id="guide4074" />
    <sodipodi:guide
       orientation="1,0"
       position="12,-8.0000001"
       id="guide4076" />
    <sodipodi:guide
       orientation="0,1"
       position="-5,12"
       id="guide4078" />
    <sodipodi:guide
       orientation="1,0"
       position="84,-9.0000001"
       id="guide4080" />
    <sodipodi:guide
       position="48,-8.0000001"
       orientation="1,0"
       id="guide4170" />
    <sodipodi:guide
       position="-8,48"
       orientation="0,1"
       id="guide4172" />
  </sodipodi:namedview>
  <metadata
     id="metadata4879">
    <rdf:RDF>
      <cc:Work
         rdf:about="">
        <dc:format>image/svg+xml</dc:format>
        <dc:type
           rdf:resource="http://purl.org/dc/dcmitype/StillImage" />
        <dc:title></dc:title>
      </cc:Work>
    </rdf:RDF>
  </metadata>
  <g
     inkscape:label="Layer 1"
     inkscape:groupmode="layer"
     id="layer1"
     transform="translate(67.857146,-78.50504)">
    <g
       transform="matrix(0,-1,-1,0,373.50506,516.50504)"
       id="g4845"
       style="display:inline">
      <g
         inkscape:export-ydpi="90"
         inkscape:export-xdpi="90"
         inkscape:export-filename="next01.png"
         transform="matrix(-0.9996045,0,0,1,575.94296,-611.00001)"
         id="g4778"
         inkscape:label="Layer 1">
        <g
           transform="matrix(-1,0,0,1,575.99999,611)"
           id="g4780"
           style="display:inline">
          <rect
             style="color:#000000;display:inline;overflow:visible;visibility:visible;fill:none;stroke:none;stroke-width:4;marker:none;enable-background:accumulate"
             id="rect4782"
             width="96.037987"
             height="96"
             x="-438.00244"
             y="345.36221"
             transform="scale(-1,1)" />
          <path
             style="color:#000000;font-style:normal;font-variant:normal;font-weight:normal;font-stretch:normal;font-size:medium;line-height:normal;font-family:sans-serif;text-indent:0;text-align:start;text-decoration:none;text-decoration-line:none;text-decoration-style:solid;text-decoration-color:#000000;letter-spacing:normal;word-spacing:normal;text-transform:none;direction:ltr;block-progression:tb;writing-mode:lr-tb;baseline-shift:baseline;text-anchor:start;clip-rule:nonzero;display:inline;overflow:visible;visibility:visible;opacity:1;isolation:auto;color-interpolation:sRGB;color-interpolation-filters:linearRGB;fill:#808080;fill-opacity:1;fill-rule:nonzero;stroke:none;stroke-width:6;stroke-linecap:butt;stroke-linejoin:miter;stroke-miterlimit:4;stroke-dasharray:none;stroke-dashoffset:0;stroke-opacity:1;marker:none;color-rendering:auto;image-rendering:auto;shape-rendering:auto;text-rendering:auto;enable-background:accumulate"
             d="M 69.566406 8.0488281 C 69.069076 8.0655215 68.581069 8.1223681 68.099609 8.21875 C 64.146469 9.0095971 61.55585 11.815233 59.03125 14.339844 L 51.582031 21.789062 C 49.057731 24.313344 46.251997 26.903206 45.460938 30.857422 C 45.283448 31.744611 45.266754 32.66528 45.365234 33.615234 L 52.550781 26.431641 L 52.597656 26.382812 C 53.138306 25.792336 53.721869 25.184352 54.349609 24.556641 L 61.798828 17.109375 C 64.322638 14.585564 66.387158 12.553584 68.867188 12.056641 L 68.869141 12.056641 C 69.145331 12.001362 69.445295 11.959233 69.765625 11.943359 C 70.088725 11.927366 70.424994 11.938332 70.771484 11.978516 L 70.775391 11.978516 C 72.894811 12.226667 75.361421 13.576263 78.894531 17.109375 C 81.249971 19.464803 82.610609 21.31933 83.355469 22.947266 C 84.100319 24.575212 84.166413 26.02767 83.945312 27.132812 C 83.449142 29.613081 81.416668 31.675097 78.892578 34.199219 L 71.445312 41.650391 C 70.811523 42.28418 70.202562 42.869758 69.607422 43.414062 L 62.382812 50.638672 C 63.334272 50.737533 64.255931 50.718845 65.144531 50.541016 C 69.097661 49.750179 71.688271 46.94259 74.212891 44.417969 L 81.662109 36.96875 C 84.186399 34.444449 86.992153 31.854626 87.783203 27.900391 C 87.975833 26.937542 88.012236 25.930438 87.878906 24.882812 L 87.876953 24.882812 C 87.476983 21.739956 85.542106 18.217882 81.660156 14.335938 C 77.778196 10.453973 74.196321 8.5141882 71.087891 8.1210938 C 70.569991 8.0556197 70.063686 8.0322347 69.566406 8.0488281 z M 32.322266 45.291016 C 31.824926 45.307709 31.336889 45.364556 30.855469 45.460938 C 26.902319 46.251795 24.311729 49.059373 21.787109 51.583984 L 14.337891 59.029297 C 11.813921 61.553248 9.0078769 64.147277 8.2167969 68.101562 C 7.4462969 71.952979 9.1619706 76.48814 14.337891 81.664062 C 19.513821 86.839995 24.047738 88.553558 27.898438 87.783203 C 31.851578 86.992366 34.442177 84.18672 36.966797 81.662109 L 44.416016 74.212891 C 46.940306 71.688599 49.746059 69.096784 50.537109 65.142578 C 50.701629 64.320253 50.753321 63.476986 50.681641 62.601562 C 50.675641 62.53199 50.642066 62.454708 50.634766 62.384766 L 43.423828 69.59375 C 42.877238 70.192193 42.286968 70.804832 41.648438 71.443359 L 34.199219 78.892578 C 31.674489 81.417309 29.610479 83.447316 27.130859 83.943359 C 26.025439 84.164512 24.571479 84.098461 22.943359 83.353516 C 21.315239 82.60857 19.460899 81.247996 17.105469 78.892578 C 14.750029 76.53714 13.389391 74.682623 12.644531 73.054688 C 11.899681 71.426752 11.833597 69.974283 12.054688 68.869141 C 12.550878 66.388892 14.583322 64.326826 17.107422 61.802734 L 24.554688 54.351562 C 25.186537 53.719702 25.795702 53.136275 26.388672 52.59375 L 26.390625 52.591797 L 33.628906 45.353516 C 33.186796 45.307434 32.749326 45.276721 32.322266 45.291016 z "
             transform="matrix(0,-1,-1.0003957,0,438.00245,441.36222)"
             id="path4190" />
          <path
             style="color:#000000;display:inline;overflow:visible;visibility:visible;opacity:1;fill:none;fill-opacity:1;fill-rule:nonzero;stroke:#808080;stroke-width:4.00079107;stroke-linecap:butt;stroke-linejoin:miter;stroke-miterlimit:4;stroke-dasharray:none;stroke-dashoffset:0;stroke-opacity:1;marker:none;enable-background:accumulate"
             d="m 373.97713,409.36222 32.01266,-32"
             id="path9289"
             inkscape:connector-curvature="0" />
        </g>
      </g>
    </g>
  </g>
</svg>
