<?xml version="1.0" encoding="UTF-8" standalone="no"?>
<!-- Created with Inkscape (http://www.inkscape.org/) -->

<svg
   xmlns:dc="http://purl.org/dc/elements/1.1/"
   xmlns:cc="http://creativecommons.org/ns#"
   xmlns:rdf="http://www.w3.org/1999/02/22-rdf-syntax-ns#"
   xmlns:svg="http://www.w3.org/2000/svg"
   xmlns="http://www.w3.org/2000/svg"
   xmlns:sodipodi="http://sodipodi.sourceforge.net/DTD/sodipodi-0.dtd"
   xmlns:inkscape="http://www.inkscape.org/namespaces/inkscape"
   width="96"
   height="96"
   id="svg4874"
   version="1.1"
   inkscape:version="0.91+devel r"
   viewBox="0 0 96 96.000001"
   sodipodi:docname="thumb-up.svg">
  <defs
     id="defs4876" />
  <sodipodi:namedview
     id="base"
     pagecolor="#ffffff"
     bordercolor="#666666"
     borderopacity="1.0"
     inkscape:pageopacity="0.0"
     inkscape:pageshadow="2"
     inkscape:zoom="5.6199993"
     inkscape:cx="2.2610172"
     inkscape:cy="82.766892"
     inkscape:document-units="px"
     inkscape:current-layer="g4780"
     showgrid="true"
     showborder="true"
     fit-margin-top="0"
     fit-margin-left="0"
     fit-margin-right="0"
     fit-margin-bottom="0"
     inkscape:snap-bbox="true"
     inkscape:bbox-paths="true"
     inkscape:bbox-nodes="true"
     inkscape:snap-bbox-edge-midpoints="true"
     inkscape:snap-bbox-midpoints="true"
     inkscape:object-paths="true"
     inkscape:snap-intersection-paths="true"
     inkscape:object-nodes="true"
     inkscape:snap-smooth-nodes="true"
     inkscape:snap-midpoints="true"
     inkscape:snap-object-midpoints="true"
     inkscape:snap-center="true"
     showguides="true"
     inkscape:guide-bbox="true"
     inkscape:snap-global="true">
    <inkscape:grid
       type="xygrid"
       id="grid5451"
       empspacing="8" />
    <sodipodi:guide
       orientation="1,0"
       position="8,-8.0000001"
       id="guide4063" />
    <sodipodi:guide
       orientation="1,0"
       position="4,-8.0000001"
       id="guide4065" />
    <sodipodi:guide
       orientation="0,1"
       position="-8,88.000001"
       id="guide4067" />
    <sodipodi:guide
       orientation="0,1"
       position="-8,92.000001"
       id="guide4069" />
    <sodipodi:guide
       orientation="0,1"
       position="104,4"
       id="guide4071" />
    <sodipodi:guide
       orientation="0,1"
       position="-5,8.0000001"
       id="guide4073" />
    <sodipodi:guide
       orientation="1,0"
       position="92,-8.0000001"
       id="guide4075" />
    <sodipodi:guide
       orientation="1,0"
       position="88,-8.0000001"
       id="guide4077" />
    <sodipodi:guide
       orientation="0,1"
       position="-8,84.000001"
       id="guide4074" />
    <sodipodi:guide
       orientation="1,0"
       position="12,-8.0000001"
       id="guide4076" />
    <sodipodi:guide
       orientation="0,1"
       position="-5,12"
       id="guide4078" />
    <sodipodi:guide
       orientation="1,0"
       position="84,-9.0000001"
       id="guide4080" />
    <sodipodi:guide
       position="48,-8.0000001"
       orientation="1,0"
       id="guide4170" />
    <sodipodi:guide
       position="-8,48"
       orientation="0,1"
       id="guide4172" />
  </sodipodi:namedview>
  <metadata
     id="metadata4879">
    <rdf:RDF>
      <cc:Work
         rdf:about="">
        <dc:format>image/svg+xml</dc:format>
        <dc:type
           rdf:resource="http://purl.org/dc/dcmitype/StillImage" />
        <dc:title />
      </cc:Work>
    </rdf:RDF>
  </metadata>
  <g
     inkscape:label="Layer 1"
     inkscape:groupmode="layer"
     id="layer1"
     transform="translate(67.857146,-78.50504)">
    <g
       transform="matrix(0,-1,-1,0,373.50506,516.50504)"
       id="g4845"
       style="display:inline">
      <g
         inkscape:export-ydpi="90"
         inkscape:export-xdpi="90"
         inkscape:export-filename="next01.png"
         transform="matrix(-0.9996045,0,0,1,575.94296,-611.00001)"
         id="g4778"
         inkscape:label="Layer 1">
        <g
           transform="matrix(-1,0,0,1,575.99999,611)"
           id="g4780"
           style="display:inline">
          <rect
             style="color:#000000;display:inline;overflow:visible;visibility:visible;fill:none;stroke:none;stroke-width:4;marker:none;enable-background:accumulate"
             id="rect4782"
             width="96.037987"
             height="96"
             x="-438.00244"
             y="345.36221"
             transform="scale(-1,1)" />
          <path
             style="color:#000000;font-style:normal;font-variant:normal;font-weight:normal;font-stretch:normal;font-size:53.6204567px;line-height:125%;font-family:Ubuntu;-inkscape-font-specification:Ubuntu;font-variant-ligatures:normal;font-variant-position:normal;font-variant-caps:normal;font-variant-numeric:normal;font-variant-alternates:normal;font-feature-settings:normal;text-indent:0;text-align:end;text-decoration:none;text-decoration-line:none;text-decoration-style:solid;text-decoration-color:#000000;letter-spacing:0px;word-spacing:0px;text-transform:none;direction:ltr;block-progression:tb;writing-mode:lr-tb;baseline-shift:baseline;text-anchor:end;white-space:normal;shape-padding:0;clip-rule:nonzero;display:inline;overflow:visible;visibility:visible;opacity:1;isolation:auto;mix-blend-mode:normal;color-interpolation:sRGB;color-interpolation-filters:linearRGB;solid-color:#000000;solid-opacity:1;fill:#808080;fill-opacity:1;fill-rule:nonzero;stroke:none;stroke-width:3.99999976;stroke-linecap:butt;stroke-linejoin:miter;stroke-miterlimit:4;stroke-dasharray:none;stroke-dashoffset:0;stroke-opacity:1;color-rendering:auto;image-rendering:auto;shape-rendering:auto;text-rendering:auto;enable-background:accumulate"
             d="M 49.414062 0.30273438 C 47.980466 0.30818788 46.378163 0.51451277 44.601562 0.87695312 L 43.316406 1.1386719 L 39.041016 21.294922 L 39.035156 21.314453 C 38.480546 24.209198 37.865993 25.955553 37.158203 26.769531 C 36.450403 27.583509 35.51612 28.001953 33 28.001953 L 28 28.001953 L 28 28 L 7.9980469 28 L 7.9980469 30 L 7.9980469 76 L 28 76 L 28 68.705078 L 28 64.582031 L 28 59 L 28 32 L 33 32 C 36.07598 32 38.569124 31.242516 40.177734 29.392578 C 41.786334 27.54264 42.375181 25.135867 42.962891 22.068359 L 46.652344 4.6796875 C 47.858839 4.5008083 48.88124 4.4261657 49.728516 4.4375 C 51.140641 4.4563906 52.066503 4.7160344 52.548828 5.1425781 C 53.435348 5.926558 53.998047 7.84751 53.998047 11.332031 L 53.998047 22.283203 C 53.998047 25.292472 54.247458 27.697904 55.767578 29.550781 C 56.903198 30.934994 58.670193 31.466503 60.658203 31.710938 L 60.658203 31.966797 L 62.673828 31.966797 L 62.761719 31.966797 L 79.455078 31.84375 C 79.457078 31.84379 79.456984 31.8437 79.458984 31.84375 C 82.911614 31.954976 83.907117 33.426603 84.341797 35.451172 C 84.776667 37.47663 83.973018 40.134128 83.023438 41.158203 L 81.869141 42.404297 L 82.910156 43.742188 C 84.793566 46.166688 84.199058 50.686186 81.861328 53.025391 L 80.890625 53.996094 L 81.449219 55.251953 C 82.884589 58.468091 82.388041 62.3105 79.394531 64.546875 L 78.509766 65.207031 L 78.597656 66.308594 C 78.805816 68.917252 77.561054 71.134906 74.896484 72.958984 C 72.231904 74.783063 68.157803 76.001953 63.345703 76.001953 C 58.781323 76.001953 52.590056 73.969565 46.103516 71.416016 C 42.112839 69.845004 38.023153 68.152258 34 66.654297 L 34 70.888672 C 37.483485 72.240039 41.074352 73.7316 44.638672 75.134766 C 51.234722 77.731428 57.661713 80 63.345703 80 C 68.818153 80 73.635533 78.671271 77.158203 76.259766 C 80.398703 74.041413 82.451478 70.706138 82.517578 66.957031 C 86.017948 63.747471 86.809671 58.962352 85.425781 54.804688 C 88.147271 51.385529 88.846088 46.604735 86.767578 42.724609 C 87.825628 41.134459 88.470506 39.216824 88.503906 37.175781 L 88.505859 37.175781 C 88.519759 36.327467 88.438999 35.464301 88.255859 34.611328 C 87.523309 31.199418 84.488104 28.003834 79.583984 27.847656 L 79.552734 27.845703 L 79.521484 27.845703 L 79.513672 27.845703 L 62.75 27.966797 L 62.646484 27.966797 C 60.211624 27.98429 59.330481 27.58509 58.863281 27.015625 C 58.396081 26.44615 58.001953 24.991941 58.001953 22.283203 L 58.001953 11.332031 C 58.001953 7.4840438 57.564652 4.2385706 55.201172 2.1484375 C 53.723997 0.84211055 51.803392 0.29364519 49.414062 0.30273438 z M 12 32 L 23.998047 32 L 23.998047 67.515625 L 23.998047 72.001953 L 12 72.001953 L 12 32 z "
             transform="matrix(0,-1,-1.0003957,0,438.00245,441.36222)"
             id="path5380" />
        </g>
      </g>
    </g>
  </g>
</svg>
