<?xml version="1.0" encoding="UTF-8" standalone="no"?>
<!-- Created with Inkscape (http://www.inkscape.org/) -->

<svg
   xmlns:dc="http://purl.org/dc/elements/1.1/"
   xmlns:cc="http://creativecommons.org/ns#"
   xmlns:rdf="http://www.w3.org/1999/02/22-rdf-syntax-ns#"
   xmlns:svg="http://www.w3.org/2000/svg"
   xmlns="http://www.w3.org/2000/svg"
   xmlns:sodipodi="http://sodipodi.sourceforge.net/DTD/sodipodi-0.dtd"
   xmlns:inkscape="http://www.inkscape.org/namespaces/inkscape"
   width="96"
   height="96"
   id="svg4874"
   version="1.1"
   inkscape:version="0.91+devel r"
   viewBox="0 0 96 96.000001"
   sodipodi:docname="thumb-down.svg">
  <defs
     id="defs4876" />
  <sodipodi:namedview
     id="base"
     pagecolor="#ffffff"
     bordercolor="#666666"
     borderopacity="1.0"
     inkscape:pageopacity="0.0"
     inkscape:pageshadow="2"
     inkscape:zoom="8.7812489"
     inkscape:cx="23.397231"
     inkscape:cy="64.187895"
     inkscape:document-units="px"
     inkscape:current-layer="g4780"
     showgrid="true"
     showborder="true"
     fit-margin-top="0"
     fit-margin-left="0"
     fit-margin-right="0"
     fit-margin-bottom="0"
     inkscape:snap-bbox="true"
     inkscape:bbox-paths="true"
     inkscape:bbox-nodes="true"
     inkscape:snap-bbox-edge-midpoints="true"
     inkscape:snap-bbox-midpoints="true"
     inkscape:object-paths="true"
     inkscape:snap-intersection-paths="true"
     inkscape:object-nodes="true"
     inkscape:snap-smooth-nodes="true"
     inkscape:snap-midpoints="true"
     inkscape:snap-object-midpoints="true"
     inkscape:snap-center="true"
     showguides="true"
     inkscape:guide-bbox="true"
     inkscape:snap-global="true">
    <inkscape:grid
       type="xygrid"
       id="grid5451"
       empspacing="8" />
    <sodipodi:guide
       orientation="1,0"
       position="8,-8.0000001"
       id="guide4063" />
    <sodipodi:guide
       orientation="1,0"
       position="4,-8.0000001"
       id="guide4065" />
    <sodipodi:guide
       orientation="0,1"
       position="-8,88.000001"
       id="guide4067" />
    <sodipodi:guide
       orientation="0,1"
       position="-8,92.000001"
       id="guide4069" />
    <sodipodi:guide
       orientation="0,1"
       position="104,4"
       id="guide4071" />
    <sodipodi:guide
       orientation="0,1"
       position="-5,8.0000001"
       id="guide4073" />
    <sodipodi:guide
       orientation="1,0"
       position="92,-8.0000001"
       id="guide4075" />
    <sodipodi:guide
       orientation="1,0"
       position="88,-8.0000001"
       id="guide4077" />
    <sodipodi:guide
       orientation="0,1"
       position="-8,84.000001"
       id="guide4074" />
    <sodipodi:guide
       orientation="1,0"
       position="12,-8.0000001"
       id="guide4076" />
    <sodipodi:guide
       orientation="0,1"
       position="-5,12"
       id="guide4078" />
    <sodipodi:guide
       orientation="1,0"
       position="84,-9.0000001"
       id="guide4080" />
    <sodipodi:guide
       position="48,-8.0000001"
       orientation="1,0"
       id="guide4170" />
    <sodipodi:guide
       position="-8,48"
       orientation="0,1"
       id="guide4172" />
  </sodipodi:namedview>
  <metadata
     id="metadata4879">
    <rdf:RDF>
      <cc:Work
         rdf:about="">
        <dc:format>image/svg+xml</dc:format>
        <dc:type
           rdf:resource="http://purl.org/dc/dcmitype/StillImage" />
        <dc:title />
      </cc:Work>
    </rdf:RDF>
  </metadata>
  <g
     inkscape:label="Layer 1"
     inkscape:groupmode="layer"
     id="layer1"
     transform="translate(67.857146,-78.50504)">
    <g
       transform="matrix(0,-1,-1,0,373.50506,516.50504)"
       id="g4845"
       style="display:inline">
      <g
         inkscape:export-ydpi="90"
         inkscape:export-xdpi="90"
         inkscape:export-filename="next01.png"
         transform="matrix(-0.9996045,0,0,1,575.94296,-611.00001)"
         id="g4778"
         inkscape:label="Layer 1">
        <g
           transform="matrix(-1,0,0,1,575.99999,611)"
           id="g4780"
           style="display:inline">
          <rect
             style="color:#000000;display:inline;overflow:visible;visibility:visible;fill:none;stroke:none;stroke-width:4;marker:none;enable-background:accumulate"
             id="rect4782"
             width="96.037987"
             height="96"
             x="-438.00244"
             y="345.36221"
             transform="scale(-1,1)" />
          <path
             style="color:#000000;font-style:normal;font-variant:normal;font-weight:normal;font-stretch:normal;font-size:53.6204567px;line-height:125%;font-family:Ubuntu;-inkscape-font-specification:Ubuntu;font-variant-ligatures:normal;font-variant-position:normal;font-variant-caps:normal;font-variant-numeric:normal;font-variant-alternates:normal;font-feature-settings:normal;text-indent:0;text-align:end;text-decoration:none;text-decoration-line:none;text-decoration-style:solid;text-decoration-color:#000000;letter-spacing:0px;word-spacing:0px;text-transform:none;direction:ltr;block-progression:tb;writing-mode:lr-tb;baseline-shift:baseline;text-anchor:end;white-space:normal;shape-padding:0;clip-rule:nonzero;display:inline;overflow:visible;visibility:visible;opacity:1;isolation:auto;mix-blend-mode:normal;color-interpolation:sRGB;color-interpolation-filters:linearRGB;solid-color:#000000;solid-opacity:1;fill:#808080;fill-opacity:1;fill-rule:nonzero;stroke:none;stroke-width:3.99999976;stroke-linecap:butt;stroke-linejoin:miter;stroke-miterlimit:4;stroke-dasharray:none;stroke-dashoffset:0;stroke-opacity:1;color-rendering:auto;image-rendering:auto;shape-rendering:auto;text-rendering:auto;enable-background:accumulate"
             d="M 63.345703 16.302734 C 57.661713 16.302734 51.234722 18.571306 44.638672 21.167969 C 38.50472 23.582721 32.253056 26.309399 26.708984 28 L 7.9980469 28 L 7.9980469 30 L 7.9980469 76 L 28 76 L 28 68.302734 L 28 64.302734 L 28 59 L 28 31.720703 C 33.86987 29.925613 40.105286 27.249998 46.103516 24.888672 C 52.590056 22.335122 58.781323 20.302734 63.345703 20.302734 C 68.157803 20.302734 72.231904 21.519672 74.896484 23.34375 C 77.561054 25.167828 78.805816 27.387436 78.597656 29.996094 L 78.509766 31.095703 L 79.394531 31.755859 C 82.388041 33.992245 82.884589 37.836597 81.449219 41.052734 L 80.890625 42.308594 L 81.861328 43.279297 C 84.199058 45.618501 84.793566 50.136056 82.910156 52.560547 L 81.869141 53.900391 L 83.023438 55.144531 C 83.973016 56.168596 84.776667 58.826094 84.341797 60.851562 L 84.34375 60.851562 C 83.90907 62.876122 82.913567 64.347758 79.460938 64.458984 L 79.455078 64.458984 L 62.761719 64.335938 L 60.658203 64.335938 L 60.658203 64.59375 C 58.670253 64.838203 56.903168 65.367771 55.767578 66.751953 C 54.247458 68.60483 53.998047 71.012215 53.998047 74.021484 L 53.998047 84.970703 C 53.998047 88.455234 53.435348 90.376176 52.548828 91.160156 C 51.777098 91.842626 49.869704 92.100068 46.652344 91.623047 L 42.962891 74.236328 C 42.375181 71.168822 41.786334 68.760094 40.177734 66.910156 C 38.74786 65.265768 36.615762 64.489241 34 64.335938 L 34 68.351562 C 35.7386 68.460364 36.560221 68.845517 37.158203 69.533203 C 37.865993 70.347181 38.480546 72.093547 39.035156 74.988281 L 39.039062 75.007812 L 43.314453 95.164062 L 44.599609 95.425781 C 49.337209 96.392289 52.835739 96.24443 55.199219 94.154297 C 57.562699 92.064174 58 88.818701 58 84.970703 L 58 74.021484 C 58 71.312746 58.394128 69.856584 58.861328 69.287109 C 59.328528 68.717635 60.209671 68.318443 62.644531 68.335938 L 62.748047 68.335938 L 79.503906 68.457031 L 79.511719 68.457031 L 79.550781 68.457031 L 79.582031 68.457031 C 84.486151 68.300853 87.521356 65.103316 88.253906 61.691406 C 88.437006 60.838434 88.517806 59.975267 88.503906 59.126953 C 88.470456 57.085571 87.825958 55.168406 86.767578 53.578125 C 88.845908 49.69832 88.146721 44.919127 85.425781 41.5 C 86.810601 37.341635 86.019128 32.555713 82.517578 29.345703 C 82.451498 25.596596 80.398703 22.261311 77.158203 20.042969 C 73.635533 17.631463 68.818153 16.302734 63.345703 16.302734 z M 12 32 L 23.998047 32 L 23.998047 68.302734 L 23.998047 72.001953 L 12 72.001953 L 12 32 z "
             transform="matrix(0,-1,-1.0003957,0,438.00245,441.36222)"
             id="path5380" />
        </g>
      </g>
    </g>
  </g>
</svg>
