<?xml version="1.0" encoding="UTF-8" standalone="no"?>
<!-- Created with Inkscape (http://www.inkscape.org/) -->

<svg
   xmlns:dc="http://purl.org/dc/elements/1.1/"
   xmlns:cc="http://creativecommons.org/ns#"
   xmlns:rdf="http://www.w3.org/1999/02/22-rdf-syntax-ns#"
   xmlns:svg="http://www.w3.org/2000/svg"
   xmlns="http://www.w3.org/2000/svg"
   xmlns:sodipodi="http://sodipodi.sourceforge.net/DTD/sodipodi-0.dtd"
   xmlns:inkscape="http://www.inkscape.org/namespaces/inkscape"
   width="96"
   height="96"
   id="svg4874"
   version="1.1"
   inkscape:version="0.91 r13725"
   viewBox="0 0 96 96.000001"
   sodipodi:docname="view-off.svg">
  <defs
     id="defs4876" />
  <sodipodi:namedview
     id="base"
     pagecolor="#ffffff"
     bordercolor="#666666"
     borderopacity="1.0"
     inkscape:pageopacity="0.0"
     inkscape:pageshadow="2"
     inkscape:zoom="4.4959994"
     inkscape:cx="-20.551612"
     inkscape:cy="43.672131"
     inkscape:document-units="px"
     inkscape:current-layer="g4780"
     showgrid="false"
     showborder="true"
     fit-margin-top="0"
     fit-margin-left="0"
     fit-margin-right="0"
     fit-margin-bottom="0"
     inkscape:snap-bbox="true"
     inkscape:bbox-paths="true"
     inkscape:bbox-nodes="true"
     inkscape:snap-bbox-edge-midpoints="true"
     inkscape:snap-bbox-midpoints="true"
     inkscape:object-paths="true"
     inkscape:snap-intersection-paths="true"
     inkscape:object-nodes="true"
     inkscape:snap-smooth-nodes="true"
     inkscape:snap-midpoints="true"
     inkscape:snap-object-midpoints="true"
     inkscape:snap-center="true"
     showguides="false"
     inkscape:guide-bbox="true"
     inkscape:snap-global="true">
    <inkscape:grid
       type="xygrid"
       id="grid5451"
       empspacing="8" />
    <sodipodi:guide
       orientation="1,0"
       position="8,-8.0000001"
       id="guide4063" />
    <sodipodi:guide
       orientation="1,0"
       position="4,-8.0000001"
       id="guide4065" />
    <sodipodi:guide
       orientation="0,1"
       position="-8,88.000001"
       id="guide4067" />
    <sodipodi:guide
       orientation="0,1"
       position="-8,92.000001"
       id="guide4069" />
    <sodipodi:guide
       orientation="0,1"
       position="104,4"
       id="guide4071" />
    <sodipodi:guide
       orientation="0,1"
       position="-5,8.0000001"
       id="guide4073" />
    <sodipodi:guide
       orientation="1,0"
       position="88,-8.0000001"
       id="guide4077" />
    <sodipodi:guide
       orientation="0,1"
       position="-8,84.000001"
       id="guide4074" />
    <sodipodi:guide
       orientation="1,0"
       position="12,-8.0000001"
       id="guide4076" />
    <sodipodi:guide
       orientation="1,0"
       position="84,-8.0000001"
       id="guide4080" />
    <sodipodi:guide
       position="48,-8.0000001"
       orientation="1,0"
       id="guide4170" />
    <sodipodi:guide
       position="-8,48"
       orientation="0,1"
       id="guide4172" />
    <sodipodi:guide
       position="92,-8.0000001"
       orientation="1,0"
       id="guide4760" />
  </sodipodi:namedview>
  <metadata
     id="metadata4879">
    <rdf:RDF>
      <cc:Work
         rdf:about="">
        <dc:format>image/svg+xml</dc:format>
        <dc:type
           rdf:resource="http://purl.org/dc/dcmitype/StillImage" />
        <dc:title />
      </cc:Work>
    </rdf:RDF>
  </metadata>
  <g
     inkscape:label="Layer 1"
     inkscape:groupmode="layer"
     id="layer1"
     transform="translate(67.857146,-78.50504)">
    <g
       transform="matrix(0,-1,-1,0,373.50506,516.50504)"
       id="g4845">
      <g
         inkscape:export-ydpi="90"
         inkscape:export-xdpi="90"
         inkscape:export-filename="next01.png"
         transform="matrix(-0.9996045,0,0,1,575.94296,-611.00001)"
         id="g4778"
         inkscape:label="Layer 1">
        <g
           transform="matrix(-1,0,0,1,575.99999,611)"
           id="g4780">
          <rect
             style="color:#000000;fill:none;stroke-width:4"
             id="rect4782"
             width="96.037987"
             height="96"
             x="-438.00244"
             y="345.36221"
             transform="scale(-1,1)" />
          <path
             style="color:#000000;solid-opacity:1;fill:#808080;stroke-width:3.99999976"
             d="M 86.583984 6.5859375 L 6.5839844 86.585938 L 9.4140625 89.414062 L 27.830078 70.996094 C 33.575069 73.543823 40.286113 75.269531 48 75.269531 C 78.23735 75.269531 93.349609 48.996094 93.349609 48.996094 L 93.923828 48 L 93.349609 47.003906 C 93.349609 47.003906 86.215389 34.625929 71.962891 26.863281 L 89.414062 9.4121094 L 86.583984 6.5859375 z M 48 20.730469 C 17.76265 20.730469 2.6484375 47.003906 2.6484375 47.003906 L 2.0742188 48 L 2.6484375 48.996094 C 2.6484375 48.996094 8.6065688 59.343262 20.515625 67.050781 L 23.320312 64.246094 C 13.287643 58.034808 7.8533454 49.702752 6.8046875 48 C 8.0489482 45.979874 15.444488 34.651312 29.363281 28.578125 C 24.292936 33.492993 21.130859 40.381779 21.130859 48 C 21.130859 53.259227 22.642146 58.167989 25.242188 62.324219 L 28.144531 59.421875 C 26.231831 56.058556 25.132812 52.163002 25.132812 48 C 25.132812 35.267307 35.35334 24.998047 48 24.998047 C 52.184998 24.998047 56.101461 26.127707 59.472656 28.09375 L 61.017578 26.548828 L 62.367188 25.199219 L 64.152344 23.414062 C 59.356529 21.766227 53.978134 20.730469 48 20.730469 z M 69.080078 29.746094 C 81.412837 35.999106 88.023748 46.101168 89.193359 48 C 87.949922 50.018926 80.555745 61.344747 66.638672 67.417969 C 71.70679 62.503288 74.867188 55.616747 74.867188 48 C 74.867188 41.301263 72.41804 35.169614 68.380859 30.445312 L 69.080078 29.746094 z M 65.5625 33.263672 C 68.872059 37.250516 70.867187 42.383088 70.867188 48 C 70.867188 60.732703 60.64666 71 48 71 C 42.370792 71 37.227718 68.959136 33.248047 65.578125 L 40.341797 58.484375 A 12.999997 12.999999 0 0 0 48 61 A 12.999997 12.999999 0 0 0 61 48 A 12.999997 12.999999 0 0 0 58.478516 40.347656 L 65.5625 33.263672 z M 48 35 A 12.999997 12.999999 0 0 0 35 48 A 12.999997 12.999999 0 0 0 35.626953 51.939453 L 51.947266 35.619141 A 12.999997 12.999999 0 0 0 48 35 z "
             transform="matrix(0,-1,-1.0003957,0,438.00245,441.36222)"
             id="path5662" />
        </g>
      </g>
    </g>
  </g>
</svg>
