<?xml version="1.0" encoding="UTF-8" standalone="no"?>
<!-- Created with Inkscape (http://www.inkscape.org/) -->

<svg
   xmlns:dc="http://purl.org/dc/elements/1.1/"
   xmlns:cc="http://creativecommons.org/ns#"
   xmlns:rdf="http://www.w3.org/1999/02/22-rdf-syntax-ns#"
   xmlns:svg="http://www.w3.org/2000/svg"
   xmlns="http://www.w3.org/2000/svg"
   xmlns:sodipodi="http://sodipodi.sourceforge.net/DTD/sodipodi-0.dtd"
   xmlns:inkscape="http://www.inkscape.org/namespaces/inkscape"
   width="96"
   height="96"
   id="svg4874"
   version="1.1"
   inkscape:version="0.91 r13725"
   viewBox="0 0 96 96.000001"
   sodipodi:docname="view.svg">
  <defs
     id="defs4876" />
  <sodipodi:namedview
     id="base"
     pagecolor="#ffffff"
     bordercolor="#666666"
     borderopacity="1.0"
     inkscape:pageopacity="0.0"
     inkscape:pageshadow="2"
     inkscape:zoom="2.8774396"
     inkscape:cx="4.7959183"
     inkscape:cy="10.199996"
     inkscape:document-units="px"
     inkscape:current-layer="g4780"
     showgrid="false"
     showborder="true"
     fit-margin-top="0"
     fit-margin-left="0"
     fit-margin-right="0"
     fit-margin-bottom="0"
     inkscape:snap-bbox="true"
     inkscape:bbox-paths="true"
     inkscape:bbox-nodes="true"
     inkscape:snap-bbox-edge-midpoints="true"
     inkscape:snap-bbox-midpoints="true"
     inkscape:object-paths="true"
     inkscape:snap-intersection-paths="true"
     inkscape:object-nodes="true"
     inkscape:snap-smooth-nodes="true"
     inkscape:snap-midpoints="true"
     inkscape:snap-object-midpoints="true"
     inkscape:snap-center="true"
     showguides="false"
     inkscape:guide-bbox="true"
     inkscape:snap-global="true">
    <inkscape:grid
       type="xygrid"
       id="grid5451"
       empspacing="8" />
    <sodipodi:guide
       orientation="1,0"
       position="8,-8.0000001"
       id="guide4063" />
    <sodipodi:guide
       orientation="1,0"
       position="4,-8.0000001"
       id="guide4065" />
    <sodipodi:guide
       orientation="0,1"
       position="-8,88.000001"
       id="guide4067" />
    <sodipodi:guide
       orientation="0,1"
       position="-8,92.000001"
       id="guide4069" />
    <sodipodi:guide
       orientation="0,1"
       position="104,4"
       id="guide4071" />
    <sodipodi:guide
       orientation="0,1"
       position="-5,8.0000001"
       id="guide4073" />
    <sodipodi:guide
       orientation="1,0"
       position="88,-8.0000001"
       id="guide4077" />
    <sodipodi:guide
       orientation="0,1"
       position="-8,84.000001"
       id="guide4074" />
    <sodipodi:guide
       orientation="1,0"
       position="12,-8.0000001"
       id="guide4076" />
    <sodipodi:guide
       orientation="1,0"
       position="84,-8.0000001"
       id="guide4080" />
    <sodipodi:guide
       position="48,-8.0000001"
       orientation="1,0"
       id="guide4170" />
    <sodipodi:guide
       position="-8,48"
       orientation="0,1"
       id="guide4172" />
    <sodipodi:guide
       position="92,-8.0000001"
       orientation="1,0"
       id="guide4760" />
  </sodipodi:namedview>
  <metadata
     id="metadata4879">
    <rdf:RDF>
      <cc:Work
         rdf:about="">
        <dc:format>image/svg+xml</dc:format>
        <dc:type
           rdf:resource="http://purl.org/dc/dcmitype/StillImage" />
        <dc:title></dc:title>
      </cc:Work>
    </rdf:RDF>
  </metadata>
  <g
     inkscape:label="Layer 1"
     inkscape:groupmode="layer"
     id="layer1"
     transform="translate(67.857146,-78.50504)">
    <g
       transform="matrix(0,-1,-1,0,373.50506,516.50504)"
       id="g4845">
      <g
         inkscape:export-ydpi="90"
         inkscape:export-xdpi="90"
         inkscape:export-filename="next01.png"
         transform="matrix(-0.9996045,0,0,1,575.94296,-611.00001)"
         id="g4778"
         inkscape:label="Layer 1">
        <g
           transform="matrix(-1,0,0,1,575.99999,611)"
           id="g4780">
          <rect
             style="color:#000000;fill:none;stroke-width:4"
             id="rect4782"
             width="96.037987"
             height="96"
             x="-438.00244"
             y="345.36221"
             transform="scale(-1,1)" />
          <path
             style="color:#000000;solid-opacity:1;fill:#808080;stroke-width:3.99999976"
             d="M 48 20.730469 C 47.139239 20.730469 46.295201 20.759389 45.458984 20.800781 C 45.309729 20.808161 45.160193 20.813614 45.011719 20.822266 C 44.216231 20.868664 43.431253 20.931989 42.658203 21.013672 C 42.502655 21.030097 42.349953 21.050559 42.195312 21.068359 C 41.499761 21.148479 40.811944 21.240643 40.134766 21.347656 C 40.01724 21.366217 39.898223 21.383001 39.78125 21.402344 C 39.03438 21.525916 38.300488 21.66609 37.576172 21.820312 C 37.416404 21.854308 37.258281 21.890358 37.099609 21.925781 C 36.394168 22.083366 35.69743 22.25098 35.013672 22.435547 C 34.987432 22.442625 34.959802 22.447961 34.933594 22.455078 C 34.929655 22.456148 34.925813 22.457913 34.921875 22.458984 C 33.997194 22.710331 33.097825 22.988857 32.212891 23.285156 C 31.97651 23.364336 31.747217 23.451042 31.513672 23.533203 C 30.860179 23.763007 30.217226 24.00218 29.585938 24.253906 C 29.336134 24.353544 29.088125 24.4538 28.841797 24.556641 C 28.223486 24.814705 27.61789 25.084508 27.021484 25.361328 C 26.807536 25.460649 26.590039 25.55665 26.378906 25.658203 C 24.286644 26.6644 22.331077 27.77424 20.515625 28.949219 C 19.774323 29.428997 19.056479 29.916949 18.361328 30.414062 C 18.346031 30.425 18.331681 30.436321 18.316406 30.447266 C 17.675035 30.906879 17.057048 31.372648 16.455078 31.841797 C 16.354928 31.919831 16.257264 31.997954 16.158203 32.076172 C 15.612029 32.507526 15.081382 32.9403 14.568359 33.375 C 14.505387 33.428344 14.441379 33.481795 14.378906 33.535156 C 13.798916 34.030689 13.23616 34.527513 12.699219 35.021484 C 12.172558 35.505997 11.672746 35.985259 11.1875 36.462891 C 10.50796 37.131426 9.8796643 37.785188 9.28125 38.427734 C 9.0854077 38.63812 8.9000354 38.840315 8.7128906 39.046875 C 8.1760782 39.63894 7.664594 40.218939 7.1992188 40.771484 C 7.1728793 40.802758 7.141345 40.836061 7.1152344 40.867188 C 6.3994297 41.721037 5.7935959 42.495087 5.25 43.214844 C 5.1278726 43.376317 5.0373141 43.502872 4.9238281 43.65625 C 4.5335443 44.184151 4.1921909 44.655681 3.9042969 45.074219 C 3.7889324 45.241598 3.7007092 45.369745 3.6015625 45.517578 C 3.3610975 45.876108 3.2846048 45.992836 3.1386719 46.224609 C 2.8472813 46.681033 2.6484375 47.003906 2.6484375 47.003906 L 2.0742188 48 L 2.6484375 48.996094 C 2.6484375 48.996094 2.8472812 49.318967 3.1386719 49.775391 C 3.2846047 50.007164 3.3610976 50.123891 3.6015625 50.482422 C 3.7007092 50.630255 3.7889324 50.758402 3.9042969 50.925781 C 4.1921909 51.344319 4.5335444 51.815849 4.9238281 52.34375 C 5.0373141 52.497128 5.1278726 52.623683 5.25 52.785156 C 5.7935958 53.504913 6.3994298 54.278962 7.1152344 55.132812 C 7.1407907 55.163297 7.1734429 55.19789 7.1992188 55.228516 C 7.664594 55.781061 8.1760782 56.36106 8.7128906 56.953125 C 8.9000354 57.159686 9.0854077 57.36188 9.28125 57.572266 C 9.8796642 58.214812 10.50796 58.868574 11.1875 59.537109 C 11.672746 60.014741 12.172558 60.494003 12.699219 60.978516 C 13.23616 61.472487 13.798916 61.969311 14.378906 62.464844 C 14.441379 62.518205 14.505387 62.571656 14.568359 62.625 C 15.081382 63.0597 15.612029 63.492474 16.158203 63.923828 C 16.257264 64.002046 16.354928 64.08017 16.455078 64.158203 C 17.057048 64.627352 17.675035 65.093121 18.316406 65.552734 C 18.331681 65.563679 18.346031 65.575 18.361328 65.585938 C 19.056479 66.083051 19.774323 66.571003 20.515625 67.050781 C 22.331077 68.22576 24.286644 69.3356 26.378906 70.341797 C 26.590039 70.44335 26.807536 70.539351 27.021484 70.638672 C 27.61789 70.915492 28.223486 71.185295 28.841797 71.443359 C 29.088125 71.5462 29.336134 71.646456 29.585938 71.746094 C 30.217226 71.99782 30.860179 72.236993 31.513672 72.466797 C 31.747217 72.548958 31.97651 72.635664 32.212891 72.714844 C 33.097825 73.011143 33.997194 73.289669 34.921875 73.541016 C 34.952096 73.54923 34.983409 73.556289 35.013672 73.564453 C 35.69743 73.74902 36.394168 73.916635 37.099609 74.074219 C 37.258281 74.109642 37.416404 74.145692 37.576172 74.179688 C 38.300488 74.33391 39.03438 74.474084 39.78125 74.597656 C 39.898223 74.616999 40.01724 74.633783 40.134766 74.652344 C 40.811944 74.759357 41.499761 74.851521 42.195312 74.931641 C 42.349953 74.949441 42.502655 74.969903 42.658203 74.986328 C 43.431253 75.068011 44.216231 75.131336 45.011719 75.177734 C 45.160193 75.186386 45.309729 75.191839 45.458984 75.199219 C 46.295201 75.240611 47.139239 75.269531 48 75.269531 C 48.871025 75.269531 49.724698 75.241885 50.570312 75.199219 C 50.82271 75.186596 51.07015 75.166639 51.320312 75.150391 C 51.882175 75.113598 52.439739 75.07026 52.990234 75.015625 C 53.318404 74.983293 53.644585 74.948576 53.96875 74.910156 C 54.443618 74.853485 54.912671 74.788107 55.378906 74.71875 C 55.722887 74.667901 56.068899 74.61999 56.408203 74.5625 C 56.817842 74.492696 57.218276 74.411198 57.621094 74.332031 C 58.380673 74.183517 59.127938 74.019796 59.863281 73.839844 C 60.097483 73.782313 60.33465 73.728515 60.566406 73.667969 C 61.081545 73.533828 61.586852 73.388732 62.089844 73.240234 C 62.22545 73.200122 62.361362 73.160248 62.496094 73.119141 C 63.046864 72.951361 63.590939 72.777613 64.126953 72.59375 C 64.13536 72.590866 64.14394 72.588825 64.152344 72.585938 C 65.556984 72.103274 66.913572 71.571172 68.216797 70.992188 C 68.347583 70.934083 68.473751 70.871461 68.603516 70.8125 C 69.355227 70.470943 70.089203 70.116012 70.806641 69.748047 C 71.015678 69.640853 71.225511 69.534996 71.431641 69.425781 C 71.80885 69.225887 72.179409 69.022602 72.546875 68.816406 C 72.691405 68.735329 72.833538 68.652298 72.976562 68.570312 C 73.357141 68.352089 73.737516 68.13434 74.107422 67.910156 C 74.991538 67.374333 75.840912 66.822889 76.664062 66.259766 C 76.716662 66.223798 76.769914 66.188402 76.822266 66.152344 C 78.498851 64.997032 80.04747 63.798217 81.46875 62.591797 C 82.770454 61.486877 83.951496 60.385012 85.039062 59.302734 C 85.58452 58.760364 86.098178 58.228023 86.589844 57.703125 C 86.740928 57.541713 86.906735 57.376069 87.052734 57.216797 C 87.057331 57.211782 87.061814 57.208138 87.066406 57.203125 C 87.665462 56.549767 88.209259 55.923793 88.722656 55.316406 C 88.935645 55.064229 89.124037 54.832162 89.322266 54.589844 C 89.641514 54.200022 89.941589 53.82734 90.222656 53.466797 C 90.39165 53.249842 90.557716 53.04092 90.712891 52.835938 C 91.071872 52.362313 91.398292 51.918446 91.683594 51.517578 C 91.705353 51.487005 91.734529 51.450032 91.755859 51.419922 C 91.765038 51.406958 91.770198 51.399596 91.779297 51.386719 C 91.800948 51.356108 91.806921 51.344572 91.828125 51.314453 C 92.31021 50.629256 92.559561 50.248412 92.810547 49.853516 C 93.141373 49.338983 93.349609 48.996094 93.349609 48.996094 L 93.923828 48 L 93.349609 47.003906 C 93.349609 47.003906 93.141373 46.661017 92.810547 46.146484 C 92.559561 45.751588 92.31021 45.370744 91.828125 44.685547 C 91.808962 44.65831 91.798825 44.640919 91.779297 44.613281 C 91.77221 44.603261 91.762995 44.59015 91.755859 44.580078 C 91.735265 44.550989 91.704588 44.511942 91.683594 44.482422 C 91.398292 44.081554 91.071873 43.637687 90.712891 43.164062 C 90.557716 42.95908 90.39165 42.750158 90.222656 42.533203 C 89.941589 42.17266 89.641514 41.799978 89.322266 41.410156 C 89.124037 41.167838 88.935645 40.935771 88.722656 40.683594 C 88.209259 40.076207 87.665462 39.450233 87.066406 38.796875 C 87.062224 38.792314 87.05692 38.787766 87.052734 38.783203 C 86.906735 38.623931 86.740928 38.458287 86.589844 38.296875 C 86.098178 37.771977 85.58452 37.239636 85.039062 36.697266 C 83.951496 35.614987 82.770454 34.513123 81.46875 33.408203 C 80.04747 32.201783 78.498851 31.002968 76.822266 29.847656 C 76.769914 29.811598 76.716662 29.776202 76.664062 29.740234 C 75.840912 29.17711 74.991538 28.625667 74.107422 28.089844 C 73.737516 27.86566 73.357141 27.647911 72.976562 27.429688 C 72.833538 27.347702 72.691405 27.264671 72.546875 27.183594 C 72.179409 26.977398 71.80885 26.774113 71.431641 26.574219 C 71.225511 26.465004 71.015678 26.359147 70.806641 26.251953 C 70.089203 25.883988 69.355227 25.529057 68.603516 25.1875 C 68.473751 25.128539 68.347583 25.065917 68.216797 25.007812 C 66.913572 24.428827 65.556984 23.896726 64.152344 23.414062 C 64.144043 23.411211 64.135257 23.409098 64.126953 23.40625 C 63.590938 23.222387 63.046864 23.048639 62.496094 22.880859 C 62.361362 22.839752 62.22545 22.799878 62.089844 22.759766 C 61.586852 22.611268 61.081545 22.466172 60.566406 22.332031 C 60.33465 22.271485 60.097483 22.217687 59.863281 22.160156 C 59.127938 21.980204 58.380673 21.816483 57.621094 21.667969 C 57.218276 21.588802 56.817842 21.507304 56.408203 21.4375 C 56.068899 21.38001 55.722887 21.332099 55.378906 21.28125 C 54.912671 21.211893 54.443618 21.146515 53.96875 21.089844 C 53.644585 21.051424 53.318404 21.016707 52.990234 20.984375 C 52.439739 20.92974 51.882175 20.886402 51.320312 20.849609 C 51.07015 20.833361 50.82271 20.813404 50.570312 20.800781 C 49.724698 20.758115 48.871026 20.730469 48 20.730469 z M 48 24.730469 C 48.751671 24.730469 49.490084 24.752046 50.220703 24.785156 C 50.381816 24.792508 50.541088 24.801631 50.701172 24.810547 C 51.276297 24.842367 51.844303 24.884228 52.40625 24.935547 C 52.575226 24.951066 52.746281 24.965187 52.914062 24.982422 C 53.590016 25.051489 54.257398 25.130756 54.914062 25.226562 C 55.069404 25.249325 55.220737 25.27853 55.375 25.302734 C 55.855298 25.377787 56.330921 25.460239 56.800781 25.548828 C 57.082744 25.602167 57.362405 25.656826 57.640625 25.714844 C 58.023588 25.79448 58.401486 25.880543 58.777344 25.96875 C 59.001893 26.021556 59.229139 26.071209 59.451172 26.126953 C 61.541734 26.651002 63.519828 27.302472 65.386719 28.052734 C 66.146741 28.358192 66.88427 28.684131 67.607422 29.019531 C 67.821633 29.11888 68.035112 29.218586 68.246094 29.320312 C 68.961549 29.665303 69.663395 30.019196 70.341797 30.388672 C 70.374478 30.406469 70.408811 30.423557 70.441406 30.441406 C 70.526489 30.487997 70.606909 30.53705 70.691406 30.583984 C 71.332464 30.940103 71.953089 31.307879 72.560547 31.681641 C 72.74546 31.795402 72.929522 31.908274 73.111328 32.023438 C 73.738246 32.420611 74.351362 32.823398 74.941406 33.234375 C 74.971422 33.255277 75.003283 33.275943 75.033203 33.296875 C 75.098672 33.342676 75.159597 33.389608 75.224609 33.435547 C 75.785208 33.831754 76.326763 34.23443 76.853516 34.638672 C 77.024421 34.769817 77.193978 34.901487 77.361328 35.033203 C 77.625082 35.240829 77.873974 35.449589 78.128906 35.658203 C 78.694761 36.121212 79.241171 36.583168 79.763672 37.046875 C 79.97464 37.234129 80.188661 37.422666 80.392578 37.609375 C 81.055444 38.216302 81.694634 38.821416 82.283203 39.414062 C 82.884406 40.01943 83.434939 40.608803 83.958984 41.185547 C 84.117762 41.360313 84.266253 41.529864 84.417969 41.701172 C 84.789899 42.121139 85.145031 42.530619 85.474609 42.925781 C 85.600242 43.076443 85.730118 43.230471 85.849609 43.376953 C 86.227444 43.840172 86.579931 44.284402 86.896484 44.699219 C 86.92494 44.736507 86.962273 44.781506 86.990234 44.818359 C 86.99104 44.819422 86.991382 44.821204 86.992188 44.822266 C 87.481017 45.46667 87.855067 46.001384 88.193359 46.492188 C 88.63055 47.128519 89.013744 47.708365 89.193359 48 C 89.013744 48.291635 88.63055 48.871481 88.193359 49.507812 C 87.855068 49.998617 87.481017 50.533329 86.992188 51.177734 C 86.991224 51.179004 86.991198 51.180371 86.990234 51.181641 C 86.961689 51.219265 86.925545 51.262704 86.896484 51.300781 C 86.579931 51.715598 86.227444 52.159828 85.849609 52.623047 C 85.730118 52.769529 85.600242 52.923557 85.474609 53.074219 C 85.145031 53.469381 84.789899 53.878861 84.417969 54.298828 C 84.266253 54.470136 84.117762 54.639687 83.958984 54.814453 C 83.434939 55.391197 82.884406 55.98057 82.283203 56.585938 C 81.694634 57.178584 81.055444 57.783698 80.392578 58.390625 C 80.188661 58.577334 79.97464 58.765871 79.763672 58.953125 C 79.241171 59.416832 78.694761 59.878788 78.128906 60.341797 C 77.873974 60.550411 77.625082 60.759171 77.361328 60.966797 C 77.193978 61.098513 77.024421 61.230183 76.853516 61.361328 C 76.326763 61.76557 75.785208 62.168246 75.224609 62.564453 C 75.159597 62.610392 75.098672 62.657324 75.033203 62.703125 C 75.003283 62.724057 74.971422 62.744723 74.941406 62.765625 C 74.351362 63.176602 73.738246 63.579389 73.111328 63.976562 C 72.929522 64.091726 72.74546 64.204598 72.560547 64.318359 C 71.953089 64.692121 71.332465 65.059897 70.691406 65.416016 C 70.606909 65.46295 70.526489 65.512003 70.441406 65.558594 C 70.408811 65.576443 70.374478 65.593531 70.341797 65.611328 C 69.663395 65.980804 68.961549 66.334697 68.246094 66.679688 C 68.035112 66.781414 67.821633 66.88112 67.607422 66.980469 C 66.88427 67.315869 66.146741 67.641808 65.386719 67.947266 C 63.519828 68.697528 61.541734 69.348999 59.451172 69.873047 C 59.229139 69.928792 59.001894 69.978444 58.777344 70.03125 C 58.401486 70.119457 58.023588 70.20552 57.640625 70.285156 C 57.362405 70.343174 57.082744 70.397832 56.800781 70.451172 C 56.330921 70.539761 55.855298 70.622213 55.375 70.697266 C 55.220737 70.72147 55.069404 70.750675 54.914062 70.773438 C 54.257398 70.869244 53.590016 70.948511 52.914062 71.017578 C 52.746282 71.034813 52.575226 71.048934 52.40625 71.064453 C 51.844303 71.115772 51.276297 71.157633 50.701172 71.189453 C 50.541088 71.198369 50.381816 71.207492 50.220703 71.214844 C 49.490084 71.247954 48.751671 71.269531 48 71.269531 C 47.028538 71.269531 46.078756 71.234644 45.142578 71.179688 C 44.93943 71.167778 44.740559 71.149145 44.539062 71.134766 C 43.815839 71.083077 43.102303 71.01791 42.400391 70.935547 C 42.165723 70.908053 41.931516 70.880386 41.699219 70.849609 C 40.927479 70.7472 40.167436 70.629223 39.421875 70.492188 C 39.330032 70.475331 39.235979 70.460719 39.144531 70.443359 C 38.252283 70.273739 37.376076 70.082282 36.521484 69.867188 C 35.692495 69.658537 34.885499 69.426989 34.091797 69.179688 C 33.972532 69.142571 33.854798 69.104342 33.736328 69.066406 C 33.012446 68.834331 32.301691 68.587018 31.607422 68.326172 C 31.547723 68.303761 31.487215 68.282377 31.427734 68.259766 C 29.857918 67.662516 28.361651 66.99872 26.943359 66.28125 L 26.941406 66.283203 C 25.672359 65.64114 24.468358 64.95692 23.320312 64.246094 C 22.693271 63.857888 22.083356 63.461231 21.492188 63.058594 C 20.169568 62.157775 18.946634 61.225553 17.802734 60.287109 C 17.27618 59.854785 16.768085 59.42118 16.279297 58.988281 C 16.004275 58.74492 15.73187 58.502151 15.46875 58.259766 C 14.950614 57.781925 14.450508 57.307133 13.978516 56.837891 C 13.973762 56.833165 13.967639 56.828943 13.962891 56.824219 C 13.70345 56.566442 13.462345 56.316177 13.216797 56.0625 C 12.888305 55.722632 12.569235 55.384961 12.265625 55.054688 C 12.075631 54.848294 11.877561 54.637391 11.697266 54.435547 C 11.691099 54.428643 11.685843 54.422913 11.679688 54.416016 C 11.042581 53.702039 10.476921 53.025771 9.9609375 52.386719 C 9.8411531 52.238066 9.7323895 52.098741 9.6191406 51.955078 C 9.2450909 51.481333 8.9027488 51.032535 8.5996094 50.621094 C 8.4760197 50.453006 8.3500548 50.283123 8.2382812 50.126953 C 8.0672666 49.888232 7.9284992 49.686749 7.7851562 49.478516 C 7.3612871 48.860191 6.980914 48.286113 6.8046875 48 C 6.980914 47.713886 7.3612871 47.139809 7.7851562 46.521484 C 7.9284992 46.313251 8.0672667 46.111768 8.2382812 45.873047 C 8.3500548 45.716877 8.4760196 45.546993 8.5996094 45.378906 C 8.9027486 44.967465 9.2450911 44.518667 9.6191406 44.044922 C 9.7323895 43.901259 9.841153 43.761934 9.9609375 43.613281 C 10.476921 42.974229 11.042582 42.297961 11.679688 41.583984 C 11.685843 41.577087 11.691099 41.571357 11.697266 41.564453 C 11.877561 41.362609 12.075631 41.151706 12.265625 40.945312 C 12.569236 40.615039 12.888305 40.277368 13.216797 39.9375 C 13.462344 39.683823 13.70345 39.433558 13.962891 39.175781 C 13.967668 39.171034 13.973733 39.166858 13.978516 39.162109 C 14.450508 38.692867 14.950614 38.218075 15.46875 37.740234 C 15.73187 37.497849 16.004275 37.25508 16.279297 37.011719 C 16.768085 36.57882 17.27618 36.145215 17.802734 35.712891 C 18.946634 34.774447 20.169568 33.842225 21.492188 32.941406 C 22.083356 32.538769 22.693271 32.142111 23.320312 31.753906 C 24.468358 31.04308 25.672359 30.35886 26.941406 29.716797 L 26.943359 29.71875 C 28.361651 29.001281 29.857918 28.337484 31.427734 27.740234 C 31.487215 27.717623 31.547723 27.696239 31.607422 27.673828 C 32.301691 27.412982 33.012446 27.165669 33.736328 26.933594 C 33.854798 26.895658 33.972532 26.857429 34.091797 26.820312 C 34.885498 26.573011 35.692495 26.341463 36.521484 26.132812 C 37.376076 25.917718 38.252283 25.726261 39.144531 25.556641 C 39.235979 25.539281 39.330032 25.524669 39.421875 25.507812 C 40.167436 25.370777 40.92748 25.252801 41.699219 25.150391 C 41.931516 25.119614 42.165723 25.091947 42.400391 25.064453 C 43.102303 24.98209 43.815839 24.916923 44.539062 24.865234 C 44.740559 24.850855 44.93943 24.832222 45.142578 24.820312 C 46.078756 24.765356 47.028539 24.730469 48 24.730469 z "
             transform="matrix(0,-1,-1.0003957,0,438.00245,441.36222)"
             id="path5662" />
          <path
             style="color:#000000;solid-opacity:1;fill:#808080;stroke-width:3.99999976"
             d="M 47.994141 21 C 47.402262 21.000128 46.816813 21.026269 46.234375 21.064453 C 46.084099 21.074326 45.934751 21.087246 45.785156 21.099609 C 45.296397 21.139906 44.811138 21.193426 44.330078 21.259766 C 44.232706 21.273226 44.134148 21.282363 44.037109 21.296875 C 43.458375 21.383215 42.886481 21.488395 42.320312 21.611328 C 42.228567 21.63129 42.138271 21.654877 42.046875 21.675781 C 41.55833 21.787296 41.075751 21.912843 40.597656 22.050781 C 40.490879 22.081644 40.383575 22.110422 40.277344 22.142578 C 39.726993 22.308877 39.183387 22.491155 38.648438 22.691406 C 38.600451 22.709396 38.553717 22.72979 38.505859 22.748047 C 37.996926 22.941918 37.495655 23.151459 37.001953 23.375 C 36.932143 23.406639 36.862462 23.438484 36.792969 23.470703 C 35.721926 23.966823 34.688975 24.530193 33.699219 25.158203 C 33.676805 25.172423 33.653229 25.184935 33.630859 25.199219 L 33.632812 25.201172 C 32.493934 25.928501 31.414765 26.740898 30.400391 27.626953 L 30.398438 27.625 C 30.384557 27.637125 30.371277 27.649957 30.357422 27.662109 C 30.026434 27.952423 29.703154 28.250626 29.386719 28.556641 C 29.371822 28.571043 29.35666 28.585173 29.341797 28.599609 C 29.013455 28.918596 28.692768 29.244813 28.380859 29.580078 C 28.376468 29.584796 28.371575 29.589029 28.367188 29.59375 C 27.086529 30.972272 25.94645 32.483715 24.972656 34.107422 C 24.728997 34.5137 24.496044 34.925931 24.273438 35.345703 C 24.065496 35.737822 23.866684 36.135796 23.677734 36.539062 C 23.631131 36.638409 23.588396 36.739843 23.542969 36.839844 C 23.396961 37.161627 23.254735 37.4861 23.121094 37.814453 C 23.073996 37.930036 23.031867 38.04769 22.986328 38.164062 C 22.864064 38.476878 22.745603 38.791035 22.634766 39.109375 C 22.589104 39.24036 22.545648 39.372015 22.501953 39.503906 C 22.39906 39.814855 22.300791 40.127548 22.208984 40.443359 C 22.165938 40.591256 22.12456 40.739744 22.083984 40.888672 C 22.005468 41.177236 21.932398 41.467471 21.863281 41.759766 C 21.82146 41.936366 21.780523 42.113101 21.742188 42.291016 C 21.682051 42.570529 21.627593 42.852139 21.576172 43.134766 C 21.541921 43.322728 21.506899 43.50993 21.476562 43.699219 C 21.429376 43.994077 21.391081 44.291914 21.353516 44.589844 C 21.332124 44.759294 21.307297 44.927251 21.289062 45.097656 C 21.256148 45.405573 21.233415 45.716459 21.210938 46.027344 C 21.198017 46.205846 21.179351 46.383061 21.169922 46.5625 C 21.144928 47.03868 21.130859 47.517696 21.130859 48 C 21.130859 48.591084 21.155933 49.176034 21.193359 49.757812 C 21.202853 49.904757 21.214719 50.050969 21.226562 50.197266 C 21.266914 50.697838 21.321398 51.194914 21.388672 51.6875 C 21.400239 51.771858 21.407575 51.857298 21.419922 51.941406 C 21.504886 52.522534 21.609138 53.097406 21.730469 53.666016 C 21.748874 53.751946 21.771795 53.836248 21.791016 53.921875 C 21.904399 54.428862 22.030469 54.929919 22.171875 55.425781 C 22.19461 55.50525 22.216792 55.584894 22.240234 55.664062 C 22.581936 56.821669 22.999695 57.94572 23.486328 59.033203 C 23.498024 59.059289 23.509709 59.085286 23.521484 59.111328 C 24.024012 60.224831 24.599687 61.297083 25.242188 62.324219 C 25.960396 63.472385 26.761906 64.562185 27.638672 65.585938 C 27.946937 65.945883 28.263419 66.297514 28.589844 66.640625 C 29.242357 67.326493 29.929809 67.977731 30.650391 68.591797 C 32.092346 69.820604 33.661311 70.901683 35.339844 71.806641 C 35.752676 72.029213 36.172322 72.240249 36.597656 72.441406 C 36.627917 72.455739 36.659131 72.4682 36.689453 72.482422 C 37.057789 72.654929 37.429502 72.820591 37.806641 72.976562 C 37.93724 73.030662 38.069552 73.080736 38.201172 73.132812 C 38.498242 73.250165 38.79751 73.363804 39.099609 73.470703 C 39.244004 73.521875 39.389647 73.570397 39.535156 73.619141 C 39.831934 73.718407 40.13039 73.813321 40.431641 73.902344 C 40.582221 73.946918 40.733103 73.99123 40.884766 74.033203 C 41.20529 74.121751 41.528347 74.202531 41.853516 74.279297 C 41.979124 74.309005 42.10419 74.339265 42.230469 74.367188 C 42.545389 74.436696 42.862715 74.498376 43.181641 74.556641 C 43.356044 74.588561 43.529523 74.621888 43.705078 74.650391 C 43.969078 74.693177 44.235457 74.728704 44.501953 74.763672 C 44.712723 74.791379 44.922494 74.821008 45.134766 74.84375 C 45.452316 74.877711 45.77302 74.901129 46.09375 74.923828 C 46.241139 74.934281 46.387122 74.950944 46.535156 74.958984 C 47.019748 74.985245 47.507026 75 47.998047 75 C 47.998702 75 47.999345 75 48 75 C 48.49102 75 48.978299 74.985245 49.462891 74.958984 C 49.610924 74.950944 49.756908 74.934281 49.904297 74.923828 C 50.225027 74.901129 50.545731 74.877711 50.863281 74.84375 C 51.075553 74.821008 51.285324 74.791379 51.496094 74.763672 C 51.76259 74.728704 52.028969 74.693177 52.292969 74.650391 C 52.468524 74.621888 52.642003 74.588561 52.816406 74.556641 C 53.135331 74.498376 53.452658 74.436696 53.767578 74.367188 C 53.893857 74.339265 54.018922 74.309005 54.144531 74.279297 C 54.4697 74.202531 54.792757 74.121751 55.113281 74.033203 C 55.264944 73.99123 55.415826 73.946918 55.566406 73.902344 C 55.867657 73.813321 56.166113 73.718407 56.462891 73.619141 C 56.608399 73.570397 56.754043 73.521875 56.898438 73.470703 C 57.200537 73.363804 57.499805 73.250165 57.796875 73.132812 C 57.928495 73.080736 58.060807 73.030662 58.191406 72.976562 C 58.568545 72.820591 58.940258 72.654929 59.308594 72.482422 C 59.338938 72.468211 59.370108 72.455728 59.400391 72.441406 C 59.825724 72.240249 60.245371 72.029213 60.658203 71.806641 C 62.336735 70.901683 63.9057 69.820604 65.347656 68.591797 C 66.068238 67.977731 66.75569 67.326493 67.408203 66.640625 C 67.734628 66.297514 68.05111 65.945883 68.359375 65.585938 C 69.236141 64.562185 70.037651 63.472385 70.755859 62.324219 C 71.39836 61.297083 71.974035 60.224831 72.476562 59.111328 C 72.488338 59.085286 72.500023 59.059289 72.511719 59.033203 C 72.998352 57.94572 73.416111 56.821669 73.757812 55.664062 C 73.781255 55.584894 73.803437 55.50525 73.826172 55.425781 C 73.967578 54.929919 74.093648 54.428862 74.207031 53.921875 C 74.226252 53.836248 74.249173 53.751946 74.267578 53.666016 C 74.388908 53.097406 74.493161 52.522534 74.578125 51.941406 C 74.590472 51.857298 74.597807 51.771858 74.609375 51.6875 C 74.676649 51.194914 74.731132 50.697838 74.771484 50.197266 C 74.783328 50.050969 74.795194 49.904757 74.804688 49.757812 C 74.842114 49.176034 74.867188 48.591084 74.867188 48 C 74.867188 47.517696 74.853118 47.03868 74.828125 46.5625 C 74.818696 46.383061 74.80003 46.205846 74.787109 46.027344 C 74.764632 45.716459 74.741899 45.405573 74.708984 45.097656 C 74.69075 44.927251 74.665923 44.759294 74.644531 44.589844 C 74.606966 44.291914 74.56867 43.994077 74.521484 43.699219 C 74.491148 43.50993 74.456126 43.322728 74.421875 43.134766 C 74.370454 42.852139 74.315996 42.570529 74.255859 42.291016 C 74.217524 42.113101 74.176587 41.936366 74.134766 41.759766 C 74.065648 41.467471 73.992579 41.177236 73.914062 40.888672 C 73.873487 40.739744 73.832109 40.591256 73.789062 40.443359 C 73.697256 40.127548 73.598987 39.814855 73.496094 39.503906 C 73.452399 39.372015 73.408943 39.24036 73.363281 39.109375 C 73.252444 38.791035 73.133983 38.476878 73.011719 38.164062 C 72.96618 38.04769 72.924051 37.930036 72.876953 37.814453 C 72.743312 37.4861 72.601086 37.161627 72.455078 36.839844 C 72.409651 36.739843 72.366916 36.638409 72.320312 36.539062 C 72.131363 36.135796 71.932551 35.737822 71.724609 35.345703 C 71.502003 34.925931 71.26905 34.5137 71.025391 34.107422 C 70.051597 32.483715 68.911518 30.972272 67.630859 29.59375 C 67.629606 29.592401 67.628207 29.591193 67.626953 29.589844 C 67.623817 29.586471 67.620326 29.58345 67.617188 29.580078 C 67.305279 29.244813 66.984592 28.918596 66.65625 28.599609 C 66.650307 28.593836 66.64462 28.5878 66.638672 28.582031 C 66.629746 28.573378 66.620266 28.565282 66.611328 28.556641 C 66.294893 28.250626 65.971613 27.952423 65.640625 27.662109 C 65.62677 27.649957 65.613489 27.637125 65.599609 27.625 L 65.597656 27.626953 C 64.583281 26.740898 63.504113 25.928501 62.365234 25.201172 L 62.367188 25.199219 C 62.344818 25.184935 62.321242 25.172423 62.298828 25.158203 C 61.309072 24.530193 60.276121 23.966823 59.205078 23.470703 C 59.135585 23.438484 59.065904 23.406639 58.996094 23.375 C 58.502392 23.151459 58.001121 22.941918 57.492188 22.748047 C 57.44433 22.72979 57.397596 22.709396 57.349609 22.691406 C 56.81466 22.491155 56.271054 22.308877 55.720703 22.142578 C 55.614472 22.110422 55.507168 22.081644 55.400391 22.050781 C 54.922296 21.912843 54.439717 21.787296 53.951172 21.675781 C 53.859776 21.654877 53.76948 21.63129 53.677734 21.611328 C 53.111566 21.488395 52.539672 21.383215 51.960938 21.296875 C 51.863899 21.282363 51.765341 21.273226 51.667969 21.259766 C 51.186909 21.193426 50.701649 21.139906 50.212891 21.099609 C 50.063296 21.087246 49.913948 21.074326 49.763672 21.064453 C 49.181234 21.026269 48.595785 21.000128 48.003906 21 C 48.001942 21 48.000011 21 47.998047 21 C 47.996735 21 47.995453 21 47.994141 21 z M 47.992188 24.998047 C 47.994154 24.998046 47.99608 24.998047 47.998047 24.998047 C 48.000667 24.998047 48.00324 24.998046 48.005859 24.998047 C 48.481051 24.998167 48.952064 25.018055 49.419922 25.046875 C 49.549182 25.054819 49.677976 25.066087 49.806641 25.076172 C 50.154753 25.103542 50.500257 25.138786 50.84375 25.181641 C 50.970891 25.19745 51.09813 25.210624 51.224609 25.228516 C 51.673279 25.292188 52.118779 25.365652 52.558594 25.455078 C 52.565702 25.456519 52.572972 25.457537 52.580078 25.458984 C 52.581325 25.459239 52.582737 25.458729 52.583984 25.458984 C 53.048116 25.5539 53.505616 25.666391 53.958984 25.789062 C 54.034324 25.809395 54.108566 25.832433 54.183594 25.853516 C 54.572389 25.963043 54.95781 26.081605 55.337891 26.210938 C 55.408876 26.235045 55.480112 26.258417 55.550781 26.283203 C 56.452533 26.600073 57.329664 26.969738 58.175781 27.392578 C 58.18387 27.396618 58.191135 27.402201 58.199219 27.40625 C 58.612897 27.613598 59.019014 27.833232 59.417969 28.064453 C 60.612043 28.75666 61.738327 29.550856 62.783203 30.441406 C 62.797225 30.453357 62.810226 30.466532 62.824219 30.478516 C 63.099438 30.714158 63.369091 30.956763 63.632812 31.205078 C 63.681416 31.250863 63.729141 31.297544 63.777344 31.34375 C 64.010678 31.567314 64.239122 31.796059 64.462891 32.029297 C 64.52083 32.089722 64.579436 32.149876 64.636719 32.210938 C 64.844252 32.432037 65.045378 32.657457 65.244141 32.886719 C 65.314358 32.967754 65.384027 33.048827 65.453125 33.130859 C 65.643878 33.357192 65.829652 33.588513 66.011719 33.822266 C 66.066695 33.8929 66.123567 33.961906 66.177734 34.033203 C 66.382376 34.302355 66.580547 34.577105 66.773438 34.855469 C 66.805104 34.901206 66.837797 34.946207 66.869141 34.992188 C 67.092085 35.318964 67.307384 35.651524 67.513672 35.990234 C 67.726357 36.33945 67.930661 36.693421 68.125 37.054688 C 68.308604 37.395997 68.481773 37.744197 68.648438 38.095703 C 68.705221 38.21558 68.757728 38.337965 68.8125 38.458984 C 68.920293 38.69692 69.027065 38.935501 69.126953 39.177734 C 69.181973 39.311294 69.232577 39.447205 69.285156 39.582031 C 69.376989 39.817273 69.466499 40.053983 69.550781 40.292969 C 69.607621 40.45432 69.661499 40.616297 69.714844 40.779297 C 69.78142 40.982468 69.845187 41.186919 69.90625 41.392578 C 69.960345 41.575021 70.012804 41.759027 70.0625 41.943359 C 70.120331 42.157595 70.174768 42.37314 70.226562 42.589844 C 70.265919 42.754716 70.304027 42.919689 70.339844 43.085938 C 70.388113 43.309694 70.430895 43.535551 70.472656 43.761719 C 70.508226 43.95464 70.545402 44.147195 70.576172 44.341797 C 70.605991 44.530101 70.629035 44.720332 70.654297 44.910156 C 70.681855 45.117576 70.712325 45.324047 70.734375 45.533203 C 70.758909 45.765511 70.775336 46.000015 70.792969 46.234375 C 70.806255 46.411233 70.822723 46.587654 70.832031 46.765625 C 70.843924 46.992774 70.846238 47.222285 70.851562 47.451172 C 70.855817 47.634317 70.865234 47.8158 70.865234 48 C 70.865234 48.490179 70.848368 48.976654 70.818359 49.458984 C 70.813224 49.541895 70.80483 49.624365 70.798828 49.707031 C 70.769342 50.111247 70.729657 50.512153 70.679688 50.910156 C 70.668447 51.000126 70.656797 51.090049 70.644531 51.179688 C 70.511965 52.143786 70.32347 53.090237 70.076172 54.011719 C 69.947711 54.490388 69.804274 54.962077 69.646484 55.427734 C 69.173117 56.824706 68.570778 58.16063 67.853516 59.421875 L 67.855469 59.423828 C 67.181374 60.608866 66.4088 61.729602 65.542969 62.769531 L 65.541016 62.767578 C 65.279027 63.082305 65.008572 63.389424 64.730469 63.689453 C 64.457376 63.984077 64.176676 64.270963 63.888672 64.550781 C 63.875111 64.563952 63.86125 64.576707 63.847656 64.589844 C 63.578526 64.850039 63.303025 65.102835 63.021484 65.349609 C 62.986454 65.380299 62.951234 65.410929 62.916016 65.441406 C 62.643158 65.677649 62.36395 65.907612 62.080078 66.130859 C 62.048006 66.156066 62.016584 66.181993 61.984375 66.207031 C 61.689975 66.436028 61.389585 66.658456 61.083984 66.873047 C 61.060626 66.889436 61.037094 66.905571 61.013672 66.921875 C 60.685555 67.150447 60.352043 67.372569 60.011719 67.583984 C 60.010488 67.584748 60.009043 67.585174 60.007812 67.585938 C 59.310188 68.01913 58.588736 68.414321 57.84375 68.771484 C 57.480175 68.94579 57.110251 69.110367 56.736328 69.265625 C 56.690493 69.284639 56.643642 69.301589 56.597656 69.320312 C 56.284122 69.448086 55.966802 69.569574 55.646484 69.683594 C 55.540302 69.721351 55.433072 69.756748 55.326172 69.792969 C 55.060217 69.883179 54.791751 69.968276 54.521484 70.048828 C 54.381449 70.090514 54.240759 70.130869 54.099609 70.169922 C 53.859018 70.236572 53.616773 70.298535 53.373047 70.357422 C 53.216063 70.395301 53.058625 70.432183 52.900391 70.466797 C 52.659613 70.519535 52.417401 70.568218 52.173828 70.613281 C 52.021767 70.641377 51.869903 70.670247 51.716797 70.695312 C 51.467714 70.736142 51.21659 70.770042 50.964844 70.802734 C 50.797518 70.82443 50.63134 70.847181 50.462891 70.865234 C 50.19746 70.893733 49.930211 70.914274 49.662109 70.933594 C 49.52799 70.943244 49.394522 70.957518 49.259766 70.964844 C 48.84294 70.987526 48.422555 70.999964 48 71 C 47.999345 71 47.998701 71 47.998047 71 C 47.575492 70.999964 47.155107 70.987526 46.738281 70.964844 C 46.603525 70.957518 46.470057 70.943244 46.335938 70.933594 C 46.067836 70.914274 45.800587 70.893733 45.535156 70.865234 C 45.366707 70.847181 45.200529 70.82443 45.033203 70.802734 C 44.781456 70.770042 44.530333 70.736142 44.28125 70.695312 C 44.128144 70.670247 43.976279 70.641377 43.824219 70.613281 C 43.580646 70.568218 43.338434 70.519535 43.097656 70.466797 C 42.939422 70.432183 42.781984 70.395301 42.625 70.357422 C 42.381273 70.298535 42.139029 70.236572 41.898438 70.169922 C 41.757288 70.130869 41.616598 70.090514 41.476562 70.048828 C 41.206295 69.968276 40.93783 69.883179 40.671875 69.792969 C 40.564975 69.756748 40.457745 69.721351 40.351562 69.683594 C 40.031245 69.569574 39.713924 69.448086 39.400391 69.320312 C 39.354405 69.301589 39.307554 69.284639 39.261719 69.265625 C 38.887796 69.110367 38.517871 68.94579 38.154297 68.771484 C 37.409311 68.414321 36.687859 68.01913 35.990234 67.585938 C 35.989005 67.585174 35.987557 67.584748 35.986328 67.583984 C 35.646004 67.372569 35.312491 67.150447 34.984375 66.921875 C 34.960957 66.905561 34.937417 66.889446 34.914062 66.873047 C 34.608462 66.658456 34.308072 66.436028 34.013672 66.207031 C 33.981462 66.181993 33.950041 66.156066 33.917969 66.130859 C 33.634097 65.907612 33.354889 65.677649 33.082031 65.441406 C 33.046813 65.410929 33.011593 65.380299 32.976562 65.349609 C 32.695022 65.102835 32.419521 64.850039 32.150391 64.589844 C 32.136809 64.576713 32.122924 64.563946 32.109375 64.550781 C 31.821371 64.270963 31.540671 63.984077 31.267578 63.689453 C 30.989475 63.389424 30.71902 63.082305 30.457031 62.767578 L 30.455078 62.769531 C 29.589247 61.729602 28.816673 60.608866 28.142578 59.423828 L 28.144531 59.421875 C 27.427269 58.16063 26.82493 56.824706 26.351562 55.427734 C 26.193773 54.962077 26.050336 54.490388 25.921875 54.011719 C 25.674577 53.090237 25.486081 52.143786 25.353516 51.179688 C 25.34125 51.090049 25.3296 51.000126 25.318359 50.910156 C 25.26839 50.512153 25.228705 50.111247 25.199219 49.707031 C 25.193217 49.624365 25.184823 49.541895 25.179688 49.458984 C 25.149679 48.976654 25.132812 48.490179 25.132812 48 C 25.132812 47.8158 25.14223 47.634317 25.146484 47.451172 C 25.151809 47.222285 25.154123 46.992774 25.166016 46.765625 C 25.175324 46.587654 25.191792 46.411233 25.205078 46.234375 C 25.222711 46.000015 25.239138 45.765511 25.263672 45.533203 C 25.285721 45.324047 25.316192 45.117576 25.34375 44.910156 C 25.369012 44.720332 25.392056 44.530101 25.421875 44.341797 C 25.452645 44.147195 25.48982 43.95464 25.525391 43.761719 C 25.567152 43.535551 25.609934 43.309694 25.658203 43.085938 C 25.69402 42.919689 25.732128 42.754716 25.771484 42.589844 C 25.823279 42.37314 25.877715 42.157595 25.935547 41.943359 C 25.985243 41.759027 26.037701 41.575021 26.091797 41.392578 C 26.15286 41.186919 26.216627 40.982468 26.283203 40.779297 C 26.336548 40.616297 26.390426 40.45432 26.447266 40.292969 C 26.531548 40.053983 26.621058 39.817273 26.712891 39.582031 C 26.76547 39.447205 26.816074 39.311294 26.871094 39.177734 C 26.970982 38.935501 27.077754 38.69692 27.185547 38.458984 C 27.240319 38.337965 27.292826 38.21558 27.349609 38.095703 C 27.516274 37.744197 27.689443 37.395997 27.873047 37.054688 C 28.067386 36.693421 28.27169 36.33945 28.484375 35.990234 C 28.690662 35.651524 28.905962 35.318964 29.128906 34.992188 C 29.16025 34.946207 29.192943 34.901206 29.224609 34.855469 C 29.4175 34.577105 29.615671 34.302355 29.820312 34.033203 C 29.87448 33.961906 29.931352 33.8929 29.986328 33.822266 C 30.168395 33.588513 30.354169 33.357192 30.544922 33.130859 C 30.61402 33.048827 30.683689 32.967754 30.753906 32.886719 C 30.952669 32.657457 31.153795 32.432037 31.361328 32.210938 C 31.418611 32.149876 31.477217 32.089722 31.535156 32.029297 C 31.758925 31.796059 31.987369 31.567314 32.220703 31.34375 C 32.268906 31.297544 32.316631 31.250863 32.365234 31.205078 C 32.628956 30.956763 32.898609 30.714158 33.173828 30.478516 C 33.187832 30.466526 33.200811 30.453363 33.214844 30.441406 C 34.25972 29.550856 35.386004 28.75666 36.580078 28.064453 C 36.979033 27.833232 37.38515 27.613598 37.798828 27.40625 C 37.806915 27.402197 37.814173 27.396622 37.822266 27.392578 C 38.668383 26.969738 39.545514 26.600073 40.447266 26.283203 C 40.517935 26.258417 40.589171 26.235045 40.660156 26.210938 C 41.040237 26.081605 41.425658 25.963043 41.814453 25.853516 C 41.889481 25.832433 41.963723 25.809395 42.039062 25.789062 C 42.492431 25.666391 42.949931 25.5539 43.414062 25.458984 C 43.415313 25.458729 43.416718 25.459239 43.417969 25.458984 C 43.425064 25.457535 43.432356 25.456521 43.439453 25.455078 C 43.879268 25.365652 44.324768 25.292188 44.773438 25.228516 C 44.899917 25.210624 45.027156 25.19745 45.154297 25.181641 C 45.49779 25.138786 45.843294 25.103542 46.191406 25.076172 C 46.320071 25.066087 46.448865 25.054819 46.578125 25.046875 C 47.045983 25.018055 47.516996 24.998167 47.992188 24.998047 z M 48 35 A 12.999997 13 0 0 0 35 48 A 12.999997 13 0 0 0 37.542969 55.681641 L 37.537109 55.6875 A 12.999997 13 0 0 0 37.701172 55.888672 A 12.999997 13 0 0 0 38.263672 56.580078 A 12.999997 13 0 0 0 38.587891 56.927734 A 12.999997 13 0 0 0 39.134766 57.478516 A 12.999997 13 0 0 0 39.601562 57.886719 A 12.999997 13 0 0 0 40.244141 58.414062 A 12.999997 13 0 0 0 40.296875 58.455078 A 12.999997 13 0 0 0 40.310547 58.464844 A 12.999997 13 0 0 0 44.064453 60.369141 L 44.052734 60.380859 A 12.999997 13 0 0 0 44.558594 60.515625 A 12.999997 13 0 0 0 45.115234 60.664062 A 12.999997 13 0 0 0 45.785156 60.791016 A 12.999997 13 0 0 0 46.412109 60.892578 A 12.999997 13 0 0 0 47.080078 60.951172 A 12.999997 13 0 0 0 47.830078 60.996094 A 12.999997 13 0 0 0 48 61 A 12.999997 13 0 0 0 61 48 A 12.999997 13 0 0 0 58.457031 40.318359 L 58.462891 40.3125 A 12.999997 13 0 0 0 58.298828 40.111328 A 12.999997 13 0 0 0 57.736328 39.419922 A 12.999997 13 0 0 0 57.412109 39.072266 A 12.999997 13 0 0 0 56.865234 38.521484 A 12.999997 13 0 0 0 56.398438 38.113281 A 12.999997 13 0 0 0 55.755859 37.585938 A 12.999997 13 0 0 0 55.703125 37.544922 A 12.999997 13 0 0 0 55.689453 37.535156 A 12.999997 13 0 0 0 51.935547 35.630859 L 51.947266 35.619141 A 12.999997 13 0 0 0 51.441406 35.484375 A 12.999997 13 0 0 0 50.884766 35.335938 A 12.999997 13 0 0 0 50.214844 35.208984 A 12.999997 13 0 0 0 49.587891 35.107422 A 12.999997 13 0 0 0 48.919922 35.048828 A 12.999997 13 0 0 0 48.169922 35.003906 A 12.999997 13 0 0 0 48 35 z "
             transform="matrix(0,-1,-1.0003957,0,438.00245,441.36222)"
             id="path5666-5" />
        </g>
      </g>
    </g>
  </g>
</svg>
