<?xml version="1.0" encoding="UTF-8" standalone="no"?>
<!-- Created with Inkscape (http://www.inkscape.org/) -->

<svg
   xmlns:dc="http://purl.org/dc/elements/1.1/"
   xmlns:cc="http://creativecommons.org/ns#"
   xmlns:rdf="http://www.w3.org/1999/02/22-rdf-syntax-ns#"
   xmlns:svg="http://www.w3.org/2000/svg"
   xmlns="http://www.w3.org/2000/svg"
   xmlns:sodipodi="http://sodipodi.sourceforge.net/DTD/sodipodi-0.dtd"
   xmlns:inkscape="http://www.inkscape.org/namespaces/inkscape"
   width="96"
   height="96"
   id="svg4874"
   version="1.1"
   inkscape:version="0.92pre1 unknown"
   viewBox="0 0 96 96.000001"
   sodipodi:docname="folder-symbolic01.svg">
  <defs
     id="defs4876" />
  <sodipodi:namedview
     id="base"
     pagecolor="#ffffff"
     bordercolor="#666666"
     borderopacity="1.0"
     inkscape:pageopacity="0.0"
     inkscape:pageshadow="2"
     inkscape:zoom="8.7812488"
     inkscape:cx="-24.751609"
     inkscape:cy="49.36654"
     inkscape:document-units="px"
     inkscape:current-layer="layer1"
     showgrid="true"
     showborder="true"
     fit-margin-top="0"
     fit-margin-left="0"
     fit-margin-right="0"
     fit-margin-bottom="0"
     inkscape:snap-bbox="true"
     inkscape:bbox-paths="true"
     inkscape:bbox-nodes="true"
     inkscape:snap-bbox-edge-midpoints="true"
     inkscape:snap-bbox-midpoints="true"
     inkscape:object-paths="true"
     inkscape:snap-intersection-paths="true"
     inkscape:object-nodes="true"
     inkscape:snap-smooth-nodes="true"
     inkscape:snap-midpoints="true"
     inkscape:snap-object-midpoints="true"
     inkscape:snap-center="true"
     showguides="true"
     inkscape:guide-bbox="true"
     inkscape:snap-global="true">
    <inkscape:grid
       type="xygrid"
       id="grid5451"
       empspacing="8" />
    <sodipodi:guide
       orientation="1,0"
       position="8,-8.0000001"
       id="guide4063"
       inkscape:locked="false" />
    <sodipodi:guide
       orientation="1,0"
       position="4,-8.0000001"
       id="guide4065"
       inkscape:locked="false" />
    <sodipodi:guide
       orientation="0,1"
       position="-8,88.000001"
       id="guide4067"
       inkscape:locked="false" />
    <sodipodi:guide
       orientation="0,1"
       position="-8,92.000001"
       id="guide4069"
       inkscape:locked="false" />
    <sodipodi:guide
       orientation="0,1"
       position="104,4"
       id="guide4071"
       inkscape:locked="false" />
    <sodipodi:guide
       orientation="0,1"
       position="-5,8.0000001"
       id="guide4073"
       inkscape:locked="false" />
    <sodipodi:guide
       orientation="1,0"
       position="88,-8.0000001"
       id="guide4077"
       inkscape:locked="false" />
    <sodipodi:guide
       orientation="0,1"
       position="-8,84.000001"
       id="guide4074"
       inkscape:locked="false" />
    <sodipodi:guide
       orientation="1,0"
       position="12,-8.0000001"
       id="guide4076"
       inkscape:locked="false" />
    <sodipodi:guide
       orientation="1,0"
       position="84,-8.0000001"
       id="guide4080"
       inkscape:locked="false" />
    <sodipodi:guide
       position="48,-8.0000001"
       orientation="1,0"
       id="guide4170"
       inkscape:locked="false" />
    <sodipodi:guide
       position="-8,48"
       orientation="0,1"
       id="guide4172"
       inkscape:locked="false" />
    <sodipodi:guide
       position="92,-8.0000001"
       orientation="1,0"
       id="guide4760"
       inkscape:locked="false" />
    <sodipodi:guide
       position="109,12"
       orientation="0,1"
       id="guide4267"
       inkscape:locked="false" />
  </sodipodi:namedview>
  <metadata
     id="metadata4879">
    <rdf:RDF>
      <cc:Work
         rdf:about="">
        <dc:format>image/svg+xml</dc:format>
        <dc:type
           rdf:resource="http://purl.org/dc/dcmitype/StillImage" />
        <dc:title />
      </cc:Work>
    </rdf:RDF>
  </metadata>
  <g
     inkscape:label="Layer 1"
     inkscape:groupmode="layer"
     id="layer1"
     transform="translate(67.857146,-78.50504)">
    <rect
       transform="rotate(90)"
       y="-28.142857"
       x="78.505051"
       height="96"
       width="96"
       id="rect4782"
       style="color:#000000;display:inline;overflow:visible;visibility:visible;fill:none;stroke:none;stroke-width:4;marker:none;enable-background:accumulate" />
    <path
       style="color:#000000;font-style:normal;font-variant:normal;font-weight:normal;font-stretch:normal;font-size:medium;line-height:normal;font-family:sans-serif;font-variant-ligatures:normal;font-variant-position:normal;font-variant-caps:normal;font-variant-numeric:normal;font-variant-alternates:normal;font-feature-settings:normal;text-indent:0;text-align:start;text-decoration:none;text-decoration-line:none;text-decoration-style:solid;text-decoration-color:#000000;letter-spacing:normal;word-spacing:normal;text-transform:none;writing-mode:lr-tb;direction:ltr;text-orientation:mixed;dominant-baseline:auto;baseline-shift:baseline;text-anchor:start;white-space:normal;shape-padding:0;clip-rule:nonzero;display:inline;overflow:visible;visibility:visible;opacity:1;isolation:auto;mix-blend-mode:normal;color-interpolation:sRGB;color-interpolation-filters:linearRGB;solid-color:#000000;solid-opacity:1;fill:#808080;fill-opacity:1;fill-rule:nonzero;stroke:none;stroke-width:4.00000048;stroke-linecap:butt;stroke-linejoin:miter;stroke-miterlimit:4;stroke-dasharray:none;stroke-dashoffset:0;stroke-opacity:1;marker:none;color-rendering:auto;image-rendering:auto;shape-rendering:auto;text-rendering:auto;enable-background:accumulate"
       d="m -47.869141,86.503906 -0.01172,0.002 c -5.032775,0.05818 -8.713619,-0.120274 -11.72461,1.541016 -1.505495,0.830645 -2.696806,2.235578 -3.355469,3.990234 -0.658662,1.754657 -0.896484,3.836361 -0.896484,6.466797 v 54.001957 c 0,2.63043 0.237822,4.71214 0.896484,6.4668 0.658663,1.75465 1.849974,3.15959 3.355469,3.99023 3.010991,1.66129 6.691834,1.48479 11.72461,1.54297 h 0.01172 56.0234379 0.011719 c 5.0327751,-0.0582 8.7136191,0.11832 11.7246091,-1.54297 1.505495,-0.83064 2.696807,-2.23558 3.355469,-3.99023 0.658662,-1.75466 0.896484,-3.83637 0.896484,-6.4668 v -38 c 0,-2.63333 -0.24451,-4.72628 -0.910156,-6.48828 -0.665646,-1.76201 -1.859292,-3.17292 -3.369141,-4.01172 -3.019698,-1.67761 -6.720703,-1.5 -11.7207026,-1.5 H -37.857422 c -5,0 -8.701005,-0.17761 -11.720703,1.5 -1.509849,0.8388 -2.703495,2.24971 -3.369141,4.01172 -0.665646,1.762 -0.910156,3.85495 -0.910156,6.48828 v 40 h 4 v -40 c 0,-2.36667 0.25549,-4.02568 0.652344,-5.07617 0.396854,-1.0505 0.828208,-1.51459 1.568359,-1.92578 1.480302,-0.82239 4.779297,-0.99805 9.779297,-0.99805 H 8.1425781 c 4.9999999,0 8.2989949,0.17566 9.7792969,0.99805 0.740151,0.41119 1.171505,0.87528 1.568359,1.92578 0.396854,1.05049 0.652344,2.7095 0.652344,5.07617 v 38 c 0,2.36956 -0.250371,4.02092 -0.640625,5.06055 -0.390253,1.03962 -0.809331,1.48975 -1.542969,1.89453 -1.464534,0.80804 -4.778153,0.98616 -9.8164059,1.04492 h -55.9765621 -0.02344 c -5.038253,-0.0588 -8.351872,-0.23688 -9.816406,-1.04492 -0.733637,-0.40478 -1.150762,-0.85491 -1.541016,-1.89453 -0.390253,-1.03963 -0.642578,-2.69099 -0.642578,-5.06055 V 98.503906 c 0,-2.369565 0.252325,-4.020923 0.642578,-5.060547 0.390254,-1.039624 0.807379,-1.489752 1.541016,-1.894531 1.464534,-0.808045 4.778153,-0.986156 9.816406,-1.044922 l 20.171875,0.002 6,6 33.828125,-0.002 v -4 l -32.171875,0.002 -6,-6 z"
       id="path4643"
       inkscape:connector-curvature="0"
       sodipodi:nodetypes="ccssssccccccccssccssccsccsccssccsscccccccsssscccccccc" />
  </g>
</svg>
