<?xml version="1.0" encoding="UTF-8" standalone="no"?>
<!-- Created with Inkscape (http://www.inkscape.org/) -->

<svg
   xmlns:dc="http://purl.org/dc/elements/1.1/"
   xmlns:cc="http://creativecommons.org/ns#"
   xmlns:rdf="http://www.w3.org/1999/02/22-rdf-syntax-ns#"
   xmlns:svg="http://www.w3.org/2000/svg"
   xmlns="http://www.w3.org/2000/svg"
   xmlns:sodipodi="http://sodipodi.sourceforge.net/DTD/sodipodi-0.dtd"
   xmlns:inkscape="http://www.inkscape.org/namespaces/inkscape"
   width="96"
   height="96"
   id="svg4874"
   version="1.1"
   inkscape:version="0.92pre1 unknown"
   viewBox="0 0 96 96.000001"
   sodipodi:docname="application-pdf-symbolic.svg">
  <defs
     id="defs4876" />
  <sodipodi:namedview
     id="base"
     pagecolor="#ffffff"
     bordercolor="#666666"
     borderopacity="1.0"
     inkscape:pageopacity="0.0"
     inkscape:pageshadow="2"
     inkscape:zoom="5.6199993"
     inkscape:cx="-15.747339"
     inkscape:cy="23.816707"
     inkscape:document-units="px"
     inkscape:current-layer="g4780"
     showgrid="true"
     showborder="true"
     fit-margin-top="0"
     fit-margin-left="0"
     fit-margin-right="0"
     fit-margin-bottom="0"
     inkscape:snap-bbox="true"
     inkscape:bbox-paths="true"
     inkscape:bbox-nodes="true"
     inkscape:snap-bbox-edge-midpoints="true"
     inkscape:snap-bbox-midpoints="true"
     inkscape:object-paths="true"
     inkscape:snap-intersection-paths="true"
     inkscape:object-nodes="true"
     inkscape:snap-smooth-nodes="true"
     inkscape:snap-midpoints="true"
     inkscape:snap-object-midpoints="true"
     inkscape:snap-center="true"
     showguides="true"
     inkscape:guide-bbox="true"
     inkscape:snap-global="true">
    <inkscape:grid
       type="xygrid"
       id="grid5451"
       empspacing="8" />
    <sodipodi:guide
       orientation="1,0"
       position="8,-8.0000001"
       id="guide4063"
       inkscape:locked="false" />
    <sodipodi:guide
       orientation="1,0"
       position="4,-8.0000001"
       id="guide4065"
       inkscape:locked="false" />
    <sodipodi:guide
       orientation="0,1"
       position="-8,88.000001"
       id="guide4067"
       inkscape:locked="false" />
    <sodipodi:guide
       orientation="0,1"
       position="-8,92.000001"
       id="guide4069"
       inkscape:locked="false" />
    <sodipodi:guide
       orientation="0,1"
       position="104,4"
       id="guide4071"
       inkscape:locked="false" />
    <sodipodi:guide
       orientation="0,1"
       position="-5,8.0000001"
       id="guide4073"
       inkscape:locked="false" />
    <sodipodi:guide
       orientation="1,0"
       position="92,-8.0000001"
       id="guide4075"
       inkscape:locked="false" />
    <sodipodi:guide
       orientation="1,0"
       position="88,-8.0000001"
       id="guide4077"
       inkscape:locked="false" />
    <sodipodi:guide
       orientation="0,1"
       position="-8,84.000001"
       id="guide4074"
       inkscape:locked="false" />
    <sodipodi:guide
       orientation="1,0"
       position="12,-8.0000001"
       id="guide4076"
       inkscape:locked="false" />
    <sodipodi:guide
       orientation="0,1"
       position="-5,12"
       id="guide4078"
       inkscape:locked="false" />
    <sodipodi:guide
       orientation="1,0"
       position="84,-9.0000001"
       id="guide4080"
       inkscape:locked="false" />
    <sodipodi:guide
       position="48,-8.0000001"
       orientation="1,0"
       id="guide4170"
       inkscape:locked="false" />
    <sodipodi:guide
       position="-8,48"
       orientation="0,1"
       id="guide4172"
       inkscape:locked="false" />
  </sodipodi:namedview>
  <metadata
     id="metadata4879">
    <rdf:RDF>
      <cc:Work
         rdf:about="">
        <dc:format>image/svg+xml</dc:format>
        <dc:type
           rdf:resource="http://purl.org/dc/dcmitype/StillImage" />
        <dc:title />
      </cc:Work>
    </rdf:RDF>
  </metadata>
  <g
     inkscape:label="Layer 1"
     inkscape:groupmode="layer"
     id="layer1"
     transform="translate(67.857146,-78.50504)">
    <g
       transform="matrix(0,-1,-1,0,373.50506,516.50504)"
       id="g4845"
       style="display:inline">
      <g
         inkscape:export-ydpi="90"
         inkscape:export-xdpi="90"
         inkscape:export-filename="next01.png"
         transform="matrix(-0.9996045,0,0,1,575.94296,-611.00001)"
         id="g4778"
         inkscape:label="Layer 1">
        <g
           transform="matrix(-1,0,0,1,575.99999,611)"
           id="g4780"
           style="display:inline">
          <rect
             style="color:#000000;display:inline;overflow:visible;visibility:visible;fill:none;stroke:none;stroke-width:4;marker:none;enable-background:accumulate"
             id="rect4782"
             width="96.037987"
             height="96"
             x="-438.00244"
             y="345.36221"
             transform="scale(-1,1)" />
          <path
             style="color:#000000;font-style:normal;font-variant:normal;font-weight:normal;font-stretch:normal;font-size:medium;line-height:normal;font-family:sans-serif;font-variant-ligatures:normal;font-variant-position:normal;font-variant-caps:normal;font-variant-numeric:normal;font-variant-alternates:normal;font-feature-settings:normal;text-indent:0;text-align:start;text-decoration:none;text-decoration-line:none;text-decoration-style:solid;text-decoration-color:#000000;letter-spacing:normal;word-spacing:normal;text-transform:none;writing-mode:lr-tb;direction:ltr;text-orientation:mixed;dominant-baseline:auto;baseline-shift:baseline;text-anchor:start;white-space:normal;shape-padding:0;clip-rule:nonzero;display:inline;overflow:visible;visibility:visible;opacity:1;isolation:auto;mix-blend-mode:normal;color-interpolation:sRGB;color-interpolation-filters:linearRGB;solid-color:#000000;solid-opacity:1;fill:#808080;fill-opacity:1;fill-rule:nonzero;stroke:none;stroke-width:4.00000048;stroke-linecap:butt;stroke-linejoin:miter;stroke-miterlimit:4;stroke-dasharray:none;stroke-dashoffset:0;stroke-opacity:1;marker:none;color-rendering:auto;image-rendering:auto;shape-rendering:auto;text-rendering:auto;enable-background:accumulate"
             d="M 27.988281 3.9980469 L 27.976562 4 C 22.943803 4.058187 19.26124 3.8815461 16.25 5.5429688 C 14.74438 6.3736801 13.555084 7.7767542 12.896484 9.53125 C 12.237874 11.285746 12 13.369641 12 16 L 12 80 C 12 82.630349 12.237874 84.712301 12.896484 86.466797 C 13.555084 88.221293 14.74438 89.62632 16.25 90.457031 C 19.26124 92.118464 22.943792 91.941823 27.976562 92 L 27.988281 92 L 68.011719 92 L 68.021484 92 C 73.054254 91.941823 76.736807 92.118464 79.748047 90.457031 C 81.253667 89.62632 82.444916 88.221293 83.103516 86.466797 C 83.762116 84.712301 84 82.630349 84 80 L 84 16 C 84 13.369641 83.762116 11.285746 83.103516 9.53125 C 82.444916 7.7767542 81.253667 6.3736801 79.748047 5.5429688 C 76.736807 3.8815461 73.054244 4.058177 68.021484 4 L 68.011719 3.9980469 L 27.988281 3.9980469 z M 28.023438 8 L 68 8 C 73.03826 8.0587667 76.350173 8.2350584 77.814453 9.0429688 C 78.547973 9.4476786 78.967112 9.8977214 79.357422 10.9375 C 79.747742 11.977289 79.998047 13.630358 79.998047 16 L 79.998047 72.001953 L 64 88 L 28.023438 88 L 28 88 C 22.96174 87.941243 19.647884 87.764942 18.183594 86.957031 C 17.450074 86.552321 17.032888 86.102279 16.642578 85.0625 C 16.252268 84.022721 16 82.369632 16 80 L 16 16 C 16 13.630358 16.252268 11.977289 16.642578 10.9375 C 17.032888 9.8977214 17.450074 9.4476786 18.183594 9.0429688 C 19.650624 8.233549 22.969268 8.0583769 28.023438 8 z "
             transform="matrix(0,-1,-1.0003957,0,438.00245,441.36222)"
             id="path4643" />
          <path
             d="m 384.07992,368.20403 c 1.02451,1.03948 1.567,3.34467 1.61318,6.85263 0.0262,2.37465 -0.18302,5.23263 -0.60406,8.23867 0.77702,1.34613 1.62247,2.73354 2.64073,3.82254 2.7366,2.92942 6.53533,5.37474 10.71246,6.89863 0.39012,-0.0993 0.73299,-0.18386 1.08288,-0.26261 0,0 9.37646,-1.65017 12.54659,-1.2133 0.43477,0.0602 0.56095,0.097 0.8988,0.21388 l 0.36831,0.14334 c 1.03564,0.44891 2.133,1.3289 2.0731,2.70869 l 0.0257,0.80917 4.6e-4,0.0222 c 0,1.53853 -0.78724,2.79249 -1.96383,3.12167 -3.69039,1.00064 -9.21127,-0.0318 -16.3618,-1.90273 l -1.1647,0.47892 c -3.26691,1.33957 -6.55729,3.01839 -9.46014,4.49963 l -0.37745,0.19253 c -3.05083,1.55832 -5.64052,2.97223 -7.83445,4.25407 l -0.70008,1.32343 c -0.0509,0.0963 -1.25096,2.36444 -1.57296,2.89637 -2.69575,4.51319 -5.75586,7.50384 -8.18448,7.99997 -0.77489,0.15782 -1.76664,0.0404 -2.22578,-0.7627 l -0.64445,-1.28002 c -0.27827,-0.55523 -0.41922,-1.14078 -0.41922,-1.74065 0,-3.21443 4.00568,-6.94616 12.9809,-12.08693 1.93306,-5.93548 3.53984,-12.69306 4.42613,-18.61559 -2.54244,-4.51333 -4.30833,-10.06448 -4.30833,-13.56803 0,-0.62211 0.0594,-1.15845 0.17479,-1.59426 0.17799,-0.67193 0.5614,-1.23829 1.0815,-1.58361 1.02345,-0.67984 2.43304,-0.81754 3.87647,-0.63307 0.42835,0.0551 0.95806,0.39711 1.31967,0.76712 z m -17.1108,48.01127 c 1.60328,-0.58616 4.77312,-2.90643 7.58561,-6.33717 0.17493,-0.21569 0.67294,-0.74701 1.13544,-1.23339 -5.72402,3.58748 -8.00543,5.99 -8.72105,7.57056 z m 46.81086,-20.31968 c 0,-1.03324 -2.60538,-1.62107 -5.04818,-1.66982 -2.44278,-0.0487 -4.15715,0.52234 -5.42563,1.23066 1.87802,0.58662 4.83833,0.87025 6.77397,0.87025 0,0 3.69984,0.0431 3.69984,-0.43109 z m -33.35845,6.06129 c 1.2889,-0.71975 2.6482,-1.46859 4.08995,-2.23388 3.52902,-1.86542 6.29029,-3.04337 8.56012,-3.92078 -3.17608,-1.74492 -5.8761,-3.91819 -8.03941,-6.47288 -0.26988,-0.31867 -0.54113,-0.65639 -0.81146,-1.01102 -1.02832,5.19517 -2.27897,9.68534 -3.7992,13.63856 z m 0.29273,-32.75453 c -0.19795,0.31639 -0.31239,1.22274 -0.31239,1.8057 0,1.88172 0.86053,4.20975 2.26038,7.47354 0.0928,-1.25413 0.14004,-2.4039 0.14004,-3.43501 0,-1.88749 0.008,-2.4464 -0.46265,-4.29185 -0.47088,-1.84546 -1.42742,-1.86876 -1.62538,-1.55238 z"
             id="path2"
             inkscape:connector-curvature="0"
             sodipodi:nodetypes="cccccccccccccccccccccccsccsccccccccssccsccccccsscsss"
             style="stroke-width:1.00019777;fill:#808080;fill-opacity:1" />
        </g>
      </g>
    </g>
  </g>
</svg>
