<svg xmlns="http://www.w3.org/2000/svg" width="381" height="225" style="fill:none"><path style="fill:#e95420" d="M22.53 269.42c-1.46 0-2.72-.2-3.78-.6-1.06-.42-1.94-.99-2.64-1.71a7.26 7.26 0 0 1-1.53-2.61c-.32-1.02-.48-2.14-.48-3.36v-12.93h4.68v12.54c0 .84.09 1.56.27 2.16.2.58.46 1.06.78 1.44.34.36.74.62 1.2.78.48.16 1 .24 1.56.24 1.14 0 2.06-.35 2.76-1.05.72-.7 1.08-1.89 1.08-3.57v-12.54h4.68v12.93c0 1.22-.17 2.34-.51 3.36-.34 1.02-.86 1.9-1.56 2.64-.7.72-1.59 1.28-2.67 1.68-1.08.4-2.36.6-3.84.6zm19.582-.15c-1.14 0-2.28-.04-3.42-.12a22.68 22.68 0 0 1-3.51-.48v-20.16c.96-.18 2.01-.31 3.15-.39 1.14-.1 2.2-.15 3.18-.15 1.32 0 2.53.1 3.63.3 1.12.18 2.08.5 2.88.96.8.46 1.42 1.07 1.86 1.83.46.74.69 1.66.69 2.76 0 1.66-.8 2.97-2.4 3.93 1.32.5 2.22 1.18 2.7 2.04.48.86.72 1.83.72 2.91 0 2.18-.8 3.82-2.4 4.92-1.58 1.1-3.94 1.65-7.08 1.65zm-2.37-9.33v5.37c.34.04.71.07 1.11.09.4.02.84.03 1.32.03 1.4 0 2.53-.2 3.39-.6.86-.4 1.29-1.14 1.29-2.22 0-.96-.36-1.64-1.08-2.04-.72-.42-1.75-.63-3.09-.63zm0-3.57h2.28c1.44 0 2.47-.18 3.09-.54.62-.38.93-.98.93-1.8 0-.84-.32-1.43-.96-1.77-.64-.34-1.58-.51-2.82-.51-.4 0-.83.01-1.29.03-.46 0-.87.02-1.23.06zm24.978 4.86c0-1.38-.31-2.48-.93-3.3-.62-.84-1.54-1.26-2.76-1.26-.4 0-.77.02-1.11.06-.34.02-.62.05-.84.09v8.07c.28.18.64.33 1.08.45.46.12.92.18 1.38.18 2.12 0 3.18-1.43 3.18-4.29zm4.56-.12c0 1.22-.15 2.33-.45 3.33-.3 1-.74 1.86-1.32 2.58a5.96 5.96 0 0 1-2.16 1.68c-.86.4-1.85.6-2.97.6-.62 0-1.2-.06-1.74-.18s-1.06-.29-1.56-.51v5.94h-4.47v-20.79c.4-.12.86-.23 1.38-.33.52-.12 1.06-.22 1.62-.3.58-.08 1.16-.14 1.74-.18.6-.06 1.17-.09 1.71-.09 1.3 0 2.46.2 3.48.6 1.02.38 1.88.93 2.58 1.65.7.7 1.23 1.56 1.59 2.58.38 1.02.57 2.16.57 3.42zm17.767-.03c0 1.24-.18 2.38-.54 3.42-.36 1.02-.88 1.9-1.56 2.64-.68.72-1.5 1.28-2.46 1.68-.94.4-2 .6-3.18.6-1.16 0-2.22-.2-3.18-.6-.94-.4-1.75-.96-2.43-1.68-.68-.74-1.21-1.62-1.59-2.64-.38-1.04-.57-2.18-.57-3.42 0-1.24.19-2.37.57-3.39.4-1.02.94-1.89 1.62-2.61.7-.72 1.52-1.28 2.46-1.68.96-.4 2-.6 3.12-.6 1.14 0 2.18.2 3.12.6.96.4 1.78.96 2.46 1.68.68.72 1.21 1.59 1.59 2.61.38 1.02.57 2.15.57 3.39zm-4.56 0c0-1.38-.28-2.46-.84-3.24-.54-.8-1.32-1.2-2.34-1.2-1.02 0-1.81.4-2.37 1.2-.56.78-.84 1.86-.84 3.24 0 1.38.28 2.48.84 3.3.56.8 1.35 1.2 2.37 1.2s1.8-.4 2.34-1.2c.56-.82.84-1.92.84-3.3zm17.104-3.9c-.4-.1-.87-.2-1.41-.3-.54-.12-1.12-.18-1.74-.18-.28 0-.62.03-1.02.09-.38.04-.67.09-.87.15V269h-4.47v-14.94c.8-.28 1.74-.54 2.82-.78 1.1-.26 2.32-.39 3.66-.39.24 0 .53.02.87.06.34.02.68.06 1.02.12.34.04.68.1 1.02.18.34.06.63.14.87.24zm2.568-7.89 4.47-.72v4.65h5.37v3.72h-5.37v5.55c0 .94.16 1.69.48 2.25.34.56 1.01.84 2.01.84.48 0 .97-.04 1.47-.12.52-.1.99-.23 1.41-.39l.63 3.48c-.54.22-1.14.41-1.8.57-.66.16-1.47.24-2.43.24-1.22 0-2.23-.16-3.03-.48-.8-.34-1.44-.8-1.92-1.38-.48-.6-.82-1.32-1.02-2.16-.18-.84-.27-1.77-.27-2.79zm17.581 16.5c.82 0 1.4-.08 1.74-.24.34-.16.51-.47.51-.93 0-.36-.22-.67-.66-.93-.44-.28-1.11-.59-2.01-.93-.7-.26-1.34-.53-1.92-.81-.56-.28-1.04-.61-1.44-.99-.4-.4-.71-.87-.93-1.41-.22-.54-.33-1.19-.33-1.95 0-1.48.55-2.65 1.65-3.51 1.1-.86 2.61-1.29 4.53-1.29.96 0 1.88.09 2.76.27.88.16 1.58.34 2.1.54l-.78 3.48c-.52-.18-1.09-.34-1.71-.48a9.01 9.01 0 0 0-2.04-.21c-1.4 0-2.1.39-2.1 1.17 0 .18.03.34.09.48.06.14.18.28.36.42.18.12.42.26.72.42.32.14.72.3 1.2.48.98.36 1.79.72 2.43 1.08.64.34 1.14.72 1.5 1.14.38.4.64.85.78 1.35.16.5.24 1.08.24 1.74 0 1.56-.59 2.74-1.77 3.54-1.16.8-2.81 1.2-4.95 1.2-1.4 0-2.57-.12-3.51-.36-.92-.24-1.56-.44-1.92-.6l.75-3.63c.76.3 1.54.54 2.34.72.8.16 1.59.24 2.37.24zm21.361-.6c.22.02.47.04.75.06h1.05c2.34 0 4.07-.59 5.19-1.77 1.14-1.18 1.71-2.81 1.71-4.89 0-2.18-.54-3.83-1.62-4.95s-2.79-1.68-5.13-1.68c-.32 0-.65.01-.99.03-.34 0-.66.02-.96.06zm13.53-6.6c0 1.8-.28 3.37-.84 4.71-.56 1.34-1.36 2.45-2.4 3.33-1.02.88-2.27 1.54-3.75 1.98-1.48.44-3.14.66-4.98.66-.84 0-1.82-.04-2.94-.12-1.12-.06-2.22-.2-3.3-.42v-20.25c1.08-.2 2.2-.33 3.36-.39 1.18-.08 2.19-.12 3.03-.12 1.78 0 3.39.2 4.83.6 1.46.4 2.71 1.03 3.75 1.89 1.04.86 1.84 1.96 2.4 3.3.56 1.34.84 2.95.84 4.83zm17.94 2.49c0 1.24-.18 2.38-.54 3.42-.36 1.02-.88 1.9-1.56 2.64-.68.72-1.5 1.28-2.46 1.68-.94.4-2 .6-3.18.6-1.16 0-2.22-.2-3.18-.6-.94-.4-1.75-.96-2.43-1.68-.68-.74-1.21-1.62-1.59-2.64-.38-1.04-.57-2.18-.57-3.42 0-1.24.19-2.37.57-3.39.4-1.02.94-1.89 1.62-2.61.7-.72 1.52-1.28 2.46-1.68.96-.4 2-.6 3.12-.6 1.14 0 2.18.2 3.12.6.96.4 1.78.96 2.46 1.68.68.72 1.21 1.59 1.59 2.61.38 1.02.57 2.15.57 3.39zm-4.56 0c0-1.38-.28-2.46-.84-3.24-.54-.8-1.32-1.2-2.34-1.2-1.02 0-1.81.4-2.37 1.2-.56.78-.84 1.86-.84 3.24 0 1.38.28 2.48.84 3.3.56.8 1.35 1.2 2.37 1.2s1.8-.4 2.34-1.2c.56-.82.84-1.92.84-3.3zm6.844.03c0-1.14.18-2.21.54-3.21.38-1.02.92-1.9 1.62-2.64.7-.76 1.55-1.36 2.55-1.8 1-.44 2.14-.66 3.42-.66.84 0 1.61.08 2.31.24.7.14 1.38.35 2.04.63l-.93 3.57c-.42-.16-.88-.3-1.38-.42-.5-.12-1.06-.18-1.68-.18-1.32 0-2.31.41-2.97 1.23-.64.82-.96 1.9-.96 3.24 0 1.42.3 2.52.9 3.3.62.78 1.69 1.17 3.21 1.17.54 0 1.12-.05 1.74-.15.62-.1 1.19-.26 1.71-.48l.63 3.66c-.52.22-1.17.41-1.95.57-.78.16-1.64.24-2.58.24-1.44 0-2.68-.21-3.72-.63-1.04-.44-1.9-1.03-2.58-1.77a7.135 7.135 0 0 1-1.47-2.61c-.3-1.02-.45-2.12-.45-3.3zm19.852 4.68c.82 0 1.4-.08 1.74-.24.34-.16.51-.47.51-.93 0-.36-.22-.67-.66-.93-.44-.28-1.11-.59-2.01-.93-.7-.26-1.34-.53-1.92-.81-.56-.28-1.04-.61-1.44-.99-.4-.4-.71-.87-.93-1.41-.22-.54-.33-1.19-.33-1.95 0-1.48.55-2.65 1.65-3.51 1.1-.86 2.61-1.29 4.53-1.29.96 0 1.88.09 2.76.27.88.16 1.58.34 2.1.54l-.78 3.48c-.52-.18-1.09-.34-1.71-.48a9.01 9.01 0 0 0-2.04-.21c-1.4 0-2.1.39-2.1 1.17 0 .18.03.34.09.48.06.14.18.28.36.42.18.12.42.26.72.42.32.14.72.3 1.2.48.98.36 1.79.72 2.43 1.08.64.34 1.14.72 1.5 1.14.38.4.64.85.78 1.35.16.5.24 1.08.24 1.74 0 1.56-.59 2.74-1.77 3.54-1.16.8-2.81 1.2-4.95 1.2-1.4 0-2.57-.12-3.51-.36-.92-.24-1.56-.44-1.92-.6l.75-3.63c.76.3 1.54.54 2.34.72.8.16 1.59.24 2.37.24z" transform="translate(83 -50)"/><path style="fill:#f15a24" d="M106.95 104c-47.842.502-60.102 7.524-60.102 7.524-26.43 12.64-31.704 38.854-32.06 56.18.356 17.326 5.63 43.54 32.06 56.179 0 0 12.26 7.023 60.102 7.524 47.842-.501 60.08-7.524 60.08-7.524 26.43-12.639 31.695-38.853 32.044-56.18-.349-17.325-5.614-43.54-32.044-56.179 0 0-12.238-7.022-60.08-7.524z" transform="translate(83 -50)"/><path style="fill:#db481b" d="M168.161 111.524s-12.241-7.022-60.092-7.524v127.407c47.851-.501 60.092-7.524 60.092-7.524 26.435-12.639 31.702-38.853 32.051-56.18-.349-17.325-5.616-43.54-32.051-56.179z" transform="translate(83 -50)"/><path style="fill:#f15a24" d="M17.064 147.227s-5.85 14.458-1.463 37.54c0 0-12.066-1.014-12.188-3.044 0 0-7.679-12.428 0-31.198 0 0 .853-1.522 13.65-3.298z" transform="translate(83 -50)"/><path style="fill:#db481b" d="M197.937 147.227s5.85 14.458 1.462 37.54c0 0 12.066-1.014 12.188-3.044 0 0 7.679-12.428 0-31.198 0 0-.853-1.522-13.65-3.298z" transform="translate(83 -50)"/><path style="clip-rule:evenodd;fill:#333;fill-rule:evenodd" d="m31.855 167.704-.003.11c.294 11.727 4.657 29.47 26.518 38.025 0 0 10.141 4.753 49.714 5.092 39.573-.339 49.696-5.092 49.696-5.092 21.862-8.556 26.217-26.298 26.506-38.025l-.003-.11.003-.11c-.289-11.727-4.644-29.47-26.506-38.025 0 0-10.123-4.753-49.696-5.093-39.573.34-49.714 5.093-49.714 5.093-21.861 8.555-26.224 26.298-26.518 38.024 0 .037.002.074.003.11z" transform="translate(83 -50)"/><path style="fill:#1a1a1a" d="M58.172 137.195s10.066-4.628 49.343-4.958c39.278.33 49.325 4.958 49.325 4.958 19.813 7.606 25.138 22.669 26.132 33.921a52.56 52.56 0 0 0 .176-3.208c-.286-11.812-4.609-29.684-26.308-38.302 0 0-10.047-4.788-49.325-5.13-39.278.342-49.343 5.13-49.343 5.13-21.698 8.618-26.029 26.49-26.32 38.302.025 1.027.082 2.1.177 3.208 1-11.252 6.33-26.315 26.143-33.92z" transform="translate(83 -50)"/><path style="fill:#1a1a1a" d="M156.642 129.582s-10.123-4.766-49.695-5.106h-.016v86.455h.016c39.572-.271 49.695-5.106 49.695-5.106 21.862-8.576 26.218-26.364 26.506-38.121-.288-11.757-4.644-29.545-26.506-38.122z" transform="translate(83 -50)"/><path style="fill:#f2f2f2" d="M83.042 167.135c0 6.596-5.093 11.944-11.376 11.944-6.282 0-11.375-5.348-11.375-11.944 0-6.597 5.093-11.945 11.376-11.945 6.282 0 11.375 5.348 11.375 11.945zm72.805 0c0 6.596-5.093 11.944-11.376 11.944-6.283 0-11.376-5.348-11.376-11.944 0-6.597 5.093-11.945 11.376-11.945 6.283 0 11.376 5.348 11.376 11.945zm-62.567 14.22c1.723 7.214 7.435 12.513 14.22 12.513 6.785 0 12.497-5.3 14.22-12.513z" transform="translate(83 -50)"/></svg>