<svg xmlns="http://www.w3.org/2000/svg" width="203.481" height="29.373" xml:space="preserve"><g transform="translate(170.58 15.468)" clip-path="url(#a)"><clipPath id="a"><path transform="translate(-170.79 -16.44)" d="M0 0h206v33H0z" style="stroke-linecap:round"/></clipPath><path style="opacity:1;fill:#fff;fill-rule:nonzero;stroke:none;stroke-width:1;stroke-linecap:butt;stroke-linejoin:miter;stroke-miterlimit:4;stroke-dasharray:none;stroke-dashoffset:0" transform="translate(-170.79 -16.44)" d="M139.76 12.51h6v1.6h-6v8a8.86 8.86 0 0 0 .2 2.09 3 3 0 0 0 .64 1.22 2 2 0 0 0 1 .58 5.26 5.26 0 0 0 1.28.15 5.78 5.78 0 0 0 1.91-.26 9.47 9.47 0 0 0 1.13-.52l.46 1.57a7.22 7.22 0 0 1-1.42.61 7.32 7.32 0 0 1-2.2.32 6.92 6.92 0 0 1-2.35-.35 3.65 3.65 0 0 1-1.51-1.1 4.78 4.78 0 0 1-.78-1.86 12.8 12.8 0 0 1-.23-2.61V8.1l1.88-.35zM161 20a9.45 9.45 0 0 1-.52 3.22 6.9 6.9 0 0 1-1.42 2.47 6.5 6.5 0 0 1-2.15 1.6 6.64 6.64 0 0 1-7.69-1.6 7.49 7.49 0 0 1-1.42-2.47 9.94 9.94 0 0 1-.49-3.22 9.94 9.94 0 0 1 .49-3.22 7.49 7.49 0 0 1 1.42-2.47 6.27 6.27 0 0 1 2.18-1.59 6.83 6.83 0 0 1 5.51 0 6 6 0 0 1 2.15 1.59 6.9 6.9 0 0 1 1.42 2.47A9.45 9.45 0 0 1 161 20zm-2 0a7 7 0 0 0-1.31-4.47 4.56 4.56 0 0 0-7.08 0 7 7 0 0 0-1.3 4.47 7 7 0 0 0 1.3 4.47 4.61 4.61 0 0 0 7.08 0A7 7 0 0 0 159 20zm16.61 7q-.84.23-2.26.52a17.75 17.75 0 0 1-3.48.29 7 7 0 0 1-2.81-.49 4.57 4.57 0 0 1-1.83-1.39 5.79 5.79 0 0 1-1-2.18 12.66 12.66 0 0 1-.29-2.81v-8.43h1.89v7.8A13.31 13.31 0 0 0 166 23a4.5 4.5 0 0 0 .75 1.8 3.09 3.09 0 0 0 1.33 1 6.26 6.26 0 0 0 2 .29 16.17 16.17 0 0 0 2.32-.15 6.25 6.25 0 0 0 1.25-.26V12.51h1.89zm10.21.84a8 8 0 0 1-3.07-.55 6 6 0 0 1-2.23-1.57 7.4 7.4 0 0 1-1.33-2.47 10.43 10.43 0 0 1-.46-3.19 10.54 10.54 0 0 1 .46-3.22 7.46 7.46 0 0 1 1.39-2.49 6 6 0 0 1 2.18-1.59 6.86 6.86 0 0 1 2.87-.58 11.86 11.86 0 0 1 2.26.2 5.73 5.73 0 0 1 1.65.52l-.54 1.61a6.06 6.06 0 0 0-1.3-.46 8.65 8.65 0 0 0-1.94-.17 4.59 4.59 0 0 0-3.8 1.62 7.14 7.14 0 0 0-1.24 4.5 9.92 9.92 0 0 0 .29 2.46 5.21 5.21 0 0 0 .93 1.91 4.79 4.79 0 0 0 1.68 1.25 6.55 6.55 0 0 0 2.52.43 6.73 6.73 0 0 0 2-.26 8.93 8.93 0 0 0 1.22-.49l.44 1.7a6.74 6.74 0 0 1-1.65.55 9.08 9.08 0 0 1-2.32.27zm6.18-.34V5.34l1.85-.34v7.95a10.93 10.93 0 0 1 1.88-.52 9.2 9.2 0 0 1 1.91-.2 7.44 7.44 0 0 1 2.9.49 4.43 4.43 0 0 1 1.86 1.42 5.2 5.2 0 0 1 1 2.18 12.72 12.72 0 0 1 .29 2.81v8.37h-1.89v-7.77a13.31 13.31 0 0 0-.23-2.7 4.23 4.23 0 0 0-.73-1.8 2.65 2.65 0 0 0-1.33-1 6 6 0 0 0-2.12-.32 7.27 7.27 0 0 0-1.07.09q-.55.09-1 .2a9 9 0 0 0-.9.2 4 4 0 0 0-.49.17V27.5z"/></g><g transform="translate(115.13 26.498)" clip-path="url(#b)"><clipPath id="b"><path transform="translate(-115.33 -27.48)" d="M0 0h206v33H0z" style="stroke-linecap:round"/></clipPath><path style="opacity:1;fill:#fff;fill-rule:nonzero;stroke:none;stroke-width:1;stroke-linecap:butt;stroke-linejoin:miter;stroke-miterlimit:4;stroke-dasharray:none;stroke-dashoffset:0" transform="translate(-115.33 -27.48)" d="M115.08 27.4h.24c.2 0 .38 0 .38-.24s-.17-.22-.32-.22h-.3zm-.22-.64h.56c.34 0 .5.13.5.41a.37.37 0 0 1-.38.39l.41.63h-.24l-.39-.62h-.24v.62h-.22zm.48 1.77a1 1 0 1 0-1-1.06 1 1 0 0 0 .99 1.06zm0-2.28a1.23 1.23 0 1 1-1.24 1.22 1.22 1.22 0 0 1 1.24-1.22z"/></g><g transform="matrix(-.87 .5 -.5 -.87 122.97 7.848)" clip-path="url(#c)"><clipPath id="c"><path transform="matrix(-.87 -.5 .5 -.87 102.67 69.295)" d="M0 0h206v33H0z" style="stroke-linecap:round"/></clipPath><path style="opacity:1;fill:#e95420;fill-rule:nonzero;stroke:none;stroke-width:1;stroke-linecap:butt;stroke-linejoin:miter;stroke-miterlimit:4;stroke-dasharray:none;stroke-dashoffset:0" transform="translate(-123.17 -8.83)" d="M123.16 16.65A7.83 7.83 0 1 1 131 8.83a7.83 7.83 0 0 1-7.83 7.83"/></g><g transform="matrix(-.87 .5 -.5 -.87 123.36 8.638)" clip-path="url(#d)"><clipPath id="d"><path transform="matrix(-.87 -.5 .5 -.87 102.61 70.175)" d="M0 0h206v33H0z" style="stroke-linecap:round"/></clipPath><path style="opacity:1;fill:#fffffe;fill-rule:nonzero;stroke:none;stroke-width:1;stroke-linecap:butt;stroke-linejoin:miter;stroke-miterlimit:4;stroke-dasharray:none;stroke-dashoffset:0" transform="translate(-123.22 -7.94)" d="M126.9 11a1 1 0 1 0 1.43-.38 1 1 0 0 0-1.43.38zm-6.75-2.14a3 3 0 0 1 .28-1.29l-1.3-.73a4.55 4.55 0 0 0-.3 3.23A1.47 1.47 0 0 1 120 12a4.52 4.52 0 0 0 2.94 1.35v-1.49a3.05 3.05 0 0 1-2.79-3.04zm6.1 0a3.05 3.05 0 0 1-2.78 3v1.49a4.52 4.52 0 0 0 2.96-1.35 1.47 1.47 0 0 1 1.14-2 4.55 4.55 0 0 0-.3-3.23l-1.3.73a3 3 0 0 1 .28 1.32zm-3.05-3.09a3 3 0 0 1 2.5 1.3l1.3-.77a4.55 4.55 0 0 0-2.64-1.88 1.46 1.46 0 0 1-2.27 0 4.54 4.54 0 0 0-2.64 1.88l1.28.76a3 3 0 0 1 2.47-1.29zM119.5 11a1 1 0 1 0-.38 1.43 1 1 0 0 0 .38-1.43zm4.75-7.46a1 1 0 1 0-1 1 1 1 0 0 0 1-1z"/></g><g transform="translate(7.82 19.438)" clip-path="url(#e)"><clipPath id="e"><path transform="translate(-8.02 -20.42)" d="M0 0h206v33H0z" style="stroke-linecap:round"/></clipPath><path style="opacity:1;fill:#fff;fill-rule:nonzero;stroke:none;stroke-width:1;stroke-linecap:butt;stroke-linejoin:miter;stroke-miterlimit:4;stroke-dasharray:none;stroke-dashoffset:0" transform="translate(-8.02 -20.42)" d="M15.85 29.34q-1.19.3-3.15.63a27.05 27.05 0 0 1-4.53.33 9.61 9.61 0 0 1-3.76-.65A6.06 6.06 0 0 1 2 27.81 7.48 7.48 0 0 1 .61 25a14.62 14.62 0 0 1-.41-3.59V10.53h3.46v10.13q0 3.54 1.12 5.06a4.35 4.35 0 0 0 3.76 1.53h1.15l1.12-.09.95-.11a2.79 2.79 0 0 0 .61-.13V10.53h3.46v18.8"/></g><g transform="translate(29.19 14.688)" clip-path="url(#f)"><clipPath id="f"><path transform="translate(-29.39 -15.67)" d="M0 0h206v33H0z" style="stroke-linecap:round"/></clipPath><path style="opacity:1;fill:#fff;fill-rule:nonzero;stroke:none;stroke-width:1;stroke-linecap:butt;stroke-linejoin:miter;stroke-miterlimit:4;stroke-dasharray:none;stroke-dashoffset:0" transform="translate(-29.39 -15.67)" d="M24.3 26.88a11.14 11.14 0 0 0 1.47.28 17.79 17.79 0 0 0 2.37.13 5.75 5.75 0 0 0 4.47-1.84 7.5 7.5 0 0 0 1.68-5.23 12.54 12.54 0 0 0-.3-2.79 6.3 6.3 0 0 0-1-2.25 4.69 4.69 0 0 0-1.73-1.49 5.58 5.58 0 0 0-2.55-.54 6.87 6.87 0 0 0-2.61.48 7.14 7.14 0 0 0-1.83 1zm0-15.49a9.35 9.35 0 0 1 1.92-.86 9 9 0 0 1 3-.45 8.79 8.79 0 0 1 3.71.74 7.71 7.71 0 0 1 2.74 2.09 9.19 9.19 0 0 1 1.69 3.2 13.77 13.77 0 0 1 .58 4.1 12.22 12.22 0 0 1-.69 4.23 8.89 8.89 0 0 1-2 3.18 8.61 8.61 0 0 1-3.05 2 10.87 10.87 0 0 1-4 .71 24.4 24.4 0 0 1-4.31-.33q-1.86-.34-3.05-.67V1.6L24.3 1z"/></g><g transform="translate(49.24 19.418)" clip-path="url(#g)"><clipPath id="g"><path transform="translate(-49.44 -20.4)" d="M0 0h206v33H0z" style="stroke-linecap:round"/></clipPath><path style="opacity:1;fill:#fff;fill-rule:nonzero;stroke:none;stroke-width:1;stroke-linecap:butt;stroke-linejoin:miter;stroke-miterlimit:4;stroke-dasharray:none;stroke-dashoffset:0" transform="translate(-49.44 -20.4)" d="M57.3 29.33q-1.2.3-3.16.63a27.2 27.2 0 0 1-4.54.34 9.66 9.66 0 0 1-3.78-.65 6.08 6.08 0 0 1-2.47-1.85A7.47 7.47 0 0 1 42 25a14.63 14.63 0 0 1-.41-3.6V10.5h3.48v10.14q0 3.54 1.12 5.07A4.37 4.37 0 0 0 50 27.24h1.16l1.12-.09 1-.11a2.79 2.79 0 0 0 .62-.13V10.5h3.4v18.83"/></g><g transform="translate(69.85 19.018)" clip-path="url(#h)"><clipPath id="h"><path transform="translate(-70.05 -20)" d="M0 0h206v33H0z" style="stroke-linecap:round"/></clipPath><path style="opacity:1;fill:#fff;fill-rule:nonzero;stroke:none;stroke-width:1;stroke-linecap:butt;stroke-linejoin:miter;stroke-miterlimit:4;stroke-dasharray:none;stroke-dashoffset:0" transform="translate(-70.05 -20)" d="M62.2 11.07q1.2-.3 3.18-.63a27.57 27.57 0 0 1 4.56-.34 9.88 9.88 0 0 1 3.85.65 6 6 0 0 1 2.45 1.83 7.07 7.07 0 0 1 1.29 2.82 16.34 16.34 0 0 1 .37 3.6v10.9h-3.48V19.76a16.53 16.53 0 0 0-.24-3.06 5.16 5.16 0 0 0-.8-2.05 3.18 3.18 0 0 0-1.5-1.14 6.59 6.59 0 0 0-2.32-.35H68.4l-1.14.09q-.54.06-1 .13l-.62.11V29.9H62.2V11.07"/></g><g transform="translate(88.01 16.468)" clip-path="url(#i)"><clipPath id="i"><path transform="translate(-88.22 -17.45)" d="M0 0h206v33H0z" style="stroke-linecap:round"/></clipPath><path style="opacity:1;fill:#fff;fill-rule:nonzero;stroke:none;stroke-width:1;stroke-linecap:butt;stroke-linejoin:miter;stroke-miterlimit:4;stroke-dasharray:none;stroke-dashoffset:0" transform="translate(-88.22 -17.45)" d="M85.92 10.55h7.35v2.91h-7.35v8.95a10.73 10.73 0 0 0 .22 2.4 3.61 3.61 0 0 0 .67 1.49 2.41 2.41 0 0 0 1.12.76 5 5 0 0 0 1.57.22 7.34 7.34 0 0 0 2.5-.34q.93-.35 1.27-.5l.75 2.83a13.78 13.78 0 0 1-1.85.67 10.15 10.15 0 0 1-3 .41 9 9 0 0 1-3.26-.5 4.75 4.75 0 0 1-2.07-1.51 6 6 0 0 1-1.1-2.48 16.3 16.3 0 0 1-.32-3.41V5.15l3.47-.6v6"/></g><g transform="translate(104.18 19.418)" clip-path="url(#j)"><clipPath id="j"><path transform="translate(-104.39 -20.4)" d="M0 0h206v33H0z" style="stroke-linecap:round"/></clipPath><path style="opacity:1;fill:#fff;fill-rule:nonzero;stroke:none;stroke-width:1;stroke-linecap:butt;stroke-linejoin:miter;stroke-miterlimit:4;stroke-dasharray:none;stroke-dashoffset:0" transform="translate(-104.39 -20.4)" d="M112.2 29.33q-1.2.3-3.16.63a27.19 27.19 0 0 1-4.54.34 9.66 9.66 0 0 1-3.78-.65 6.08 6.08 0 0 1-2.47-1.85 7.48 7.48 0 0 1-1.34-2.8 14.62 14.62 0 0 1-.41-3.6V10.5h3.5v10.14q0 3.54 1.12 5.07a4.37 4.37 0 0 0 3.78 1.53h1.16l1.12-.09 1-.11a2.78 2.78 0 0 0 .62-.13V10.5h3.48v18.83"/></g></svg>